<?xml version="1.0" standalone="no"?>
<!DOCTYPE svg PUBLIC "-//W3C//DTD SVG 1.1//EN" "http://www.w3.org/Graphics/SVG/1.1/DTD/svg11.dtd">
<svg xmlns:xlink="http://www.w3.org/1999/xlink" width="24.56ex" height="2.843ex" style="vertical-align: -0.838ex;" viewBox="0 -863.1 10574.6 1223.9" xmlns="http://www.w3.org/2000/svg">
<defs>
<path stroke-width="10" id="E1-MJMAIN-28" d="M94 250Q94 319 104 381T127 488T164 576T202 643T244 695T277 729T302 750H315H319Q333 750 333 741Q333 738 316 720T275 667T226 581T184 443T167 250T184 58T225 -81T274 -167T316 -220T333 -241Q333 -250 318 -250H315H302L274 -226Q180 -141 137 -14T94 250Z"></path>
<path stroke-width="10" id="E1-MJMATHI-46" d="M48 1Q31 1 31 11Q31 13 34 25Q38 41 42 43T65 46Q92 46 125 49Q139 52 144 61Q146 66 215 342T285 622Q285 629 281 629Q273 632 228 634H197Q191 640 191 642T193 659Q197 676 203 680H742Q749 676 749 669Q749 664 736 557T722 447Q720 440 702 440H690Q683 445 683 453Q683 454 686 477T689 530Q689 560 682 579T663 610T626 626T575 633T503 634H480Q398 633 393 631Q388 629 386 623Q385 622 352 492L320 363H375Q378 363 398 363T426 364T448 367T472 374T489 386Q502 398 511 419T524 457T529 475Q532 480 548 480H560Q567 475 567 470Q567 467 536 339T502 207Q500 200 482 200H470Q463 206 463 212Q463 215 468 234T473 274Q473 303 453 310T364 317H309L277 190Q245 66 245 60Q245 46 334 46H359Q365 40 365 39T363 19Q359 6 353 0H336Q295 2 185 2Q120 2 86 2T48 1Z"></path>
<path stroke-width="10" id="E1-MJMAIN-2193" d="M473 86Q483 86 483 67Q483 63 483 61T483 56T481 53T480 50T478 48T474 47T470 46T464 44Q428 35 391 14T316 -55T264 -168Q264 -170 263 -173T262 -180T261 -184Q259 -194 251 -194Q242 -194 238 -176T221 -121T180 -49Q169 -34 155 -21T125 2T95 20T67 33T44 42T27 47L21 49Q17 53 17 67Q17 87 28 87Q33 87 42 84Q158 52 223 -45L230 -55V312Q230 391 230 482T229 591Q229 662 231 676T243 693Q244 694 251 694Q264 692 270 679V-55L277 -45Q307 1 353 33T430 76T473 86Z"></path>
<path stroke-width="10" id="E1-MJMATHI-47" d="M50 252Q50 367 117 473T286 641T490 704Q580 704 633 653Q642 643 648 636T656 626L657 623Q660 623 684 649Q691 655 699 663T715 679T725 690L740 705H746Q760 705 760 698Q760 694 728 561Q692 422 692 421Q690 416 687 415T669 413H653Q647 419 647 422Q647 423 648 429T650 449T651 481Q651 552 619 605T510 659Q492 659 471 656T418 643T357 615T294 567T236 496T189 394T158 260Q156 242 156 221Q156 173 170 136T206 79T256 45T308 28T353 24Q407 24 452 47T514 106Q517 114 529 161T541 214Q541 222 528 224T468 227H431Q425 233 425 235T427 254Q431 267 437 273H454Q494 271 594 271Q634 271 659 271T695 272T707 272Q721 272 721 263Q721 261 719 249Q714 230 709 228Q706 227 694 227Q674 227 653 224Q646 221 643 215T629 164Q620 131 614 108Q589 6 586 3Q584 1 581 1Q571 1 553 21T530 52Q530 53 528 52T522 47Q448 -22 322 -22Q201 -22 126 55T50 252Z"></path>
<path stroke-width="10" id="E1-MJMAIN-29" d="M60 749L64 750Q69 750 74 750H86L114 726Q208 641 251 514T294 250Q294 182 284 119T261 12T224 -76T186 -143T145 -194T113 -227T90 -246Q87 -249 86 -250H74Q66 -250 63 -250T58 -247T55 -238Q56 -237 66 -225Q221 -64 221 250T66 725Q56 737 55 738Q55 746 60 749Z"></path>
<path stroke-width="10" id="E1-MJMATHI-6F" d="M201 -11Q126 -11 80 38T34 156Q34 221 64 279T146 380Q222 441 301 441Q333 441 341 440Q354 437 367 433T402 417T438 387T464 338T476 268Q476 161 390 75T201 -11ZM121 120Q121 70 147 48T206 26Q250 26 289 58T351 142Q360 163 374 216T388 308Q388 352 370 375Q346 405 306 405Q243 405 195 347Q158 303 140 230T121 120Z"></path>
<path stroke-width="10" id="E1-MJMATHI-70" d="M23 287Q24 290 25 295T30 317T40 348T55 381T75 411T101 433T134 442Q209 442 230 378L240 387Q302 442 358 442Q423 442 460 395T497 281Q497 173 421 82T249 -10Q227 -10 210 -4Q199 1 187 11T168 28L161 36Q160 35 139 -51T118 -138Q118 -144 126 -145T163 -148H188Q194 -155 194 -157T191 -175Q188 -187 185 -190T172 -194Q170 -194 161 -194T127 -193T65 -192Q-5 -192 -24 -194H-32Q-39 -187 -39 -183Q-37 -156 -26 -148H-6Q28 -147 33 -136Q36 -130 94 103T155 350Q156 355 156 364Q156 405 131 405Q109 405 94 377T71 316T59 280Q57 278 43 278H29Q23 284 23 287ZM178 102Q200 26 252 26Q282 26 310 49T356 107Q374 141 392 215T411 325V331Q411 405 350 405Q339 405 328 402T306 393T286 380T269 365T254 350T243 336T235 326L232 322Q232 321 229 308T218 264T204 212Q178 106 178 102Z"></path>
<path stroke-width="10" id="E1-MJMAIN-2245" d="M55 388Q55 463 101 526T222 589Q260 589 296 571T362 526T421 474T484 430T554 411Q616 411 655 458T694 560Q694 572 698 580T708 589Q722 589 722 556Q722 482 677 419T562 356H554Q517 356 481 374T414 418T355 471T292 515T223 533Q179 533 145 508Q109 479 96 440T80 378T69 355Q55 355 55 388ZM56 236Q56 249 70 256H707Q722 248 722 236Q722 225 708 217L390 216H72Q56 221 56 236ZM56 42Q56 57 72 62H708Q722 52 722 42Q722 30 707 22H70Q56 29 56 42Z"></path>
</defs>
<g stroke="currentColor" fill="currentColor" stroke-width="0" transform="matrix(1 0 0 -1 0 0)">
 <use xlink:href="#E1-MJMAIN-28" x="0" y="0"></use>
 <use xlink:href="#E1-MJMATHI-46" x="394" y="0"></use>
 <use xlink:href="#E1-MJMAIN-2193" x="1425" y="0"></use>
 <use xlink:href="#E1-MJMATHI-47" x="2208" y="0"></use>
<g transform="translate(2999,0)">
 <use xlink:href="#E1-MJMAIN-29" x="0" y="0"></use>
<g transform="translate(394,412)">
 <use transform="scale(0.707)" xlink:href="#E1-MJMATHI-6F" x="0" y="0"></use>
 <use transform="scale(0.707)" xlink:href="#E1-MJMATHI-70" x="490" y="0"></use>
</g>
</g>
 <use xlink:href="#E1-MJMAIN-2245" x="4477" y="0"></use>
 <use xlink:href="#E1-MJMAIN-28" x="5537" y="0"></use>
<g transform="translate(5931,0)">
 <use xlink:href="#E1-MJMATHI-47" x="0" y="0"></use>
<g transform="translate(791,412)">
 <use transform="scale(0.707)" xlink:href="#E1-MJMATHI-6F" x="0" y="0"></use>
 <use transform="scale(0.707)" xlink:href="#E1-MJMATHI-70" x="490" y="0"></use>
</g>
</g>
 <use xlink:href="#E1-MJMAIN-2193" x="7806" y="0"></use>
<g transform="translate(8589,0)">
 <use xlink:href="#E1-MJMATHI-46" x="0" y="0"></use>
<g transform="translate(785,412)">
 <use transform="scale(0.707)" xlink:href="#E1-MJMATHI-6F" x="0" y="0"></use>
 <use transform="scale(0.707)" xlink:href="#E1-MJMATHI-70" x="490" y="0"></use>
</g>
</g>
 <use xlink:href="#E1-MJMAIN-29" x="10180" y="0"></use>
</g>
</svg>