<?xml version="1.0" standalone="no"?>
<!DOCTYPE svg PUBLIC "-//W3C//DTD SVG 1.1//EN" "http://www.w3.org/Graphics/SVG/1.1/DTD/svg11.dtd">
<svg xmlns:xlink="http://www.w3.org/1999/xlink" width="35.138ex" height="2.843ex" style="vertical-align: -0.838ex;" viewBox="0 -863.1 15128.8 1223.9" xmlns="http://www.w3.org/2000/svg">
<defs>
<path stroke-width="10" id="E1-MJMAIN-28" d="M94 250Q94 319 104 381T127 488T164 576T202 643T244 695T277 729T302 750H315H319Q333 750 333 741Q333 738 316 720T275 667T226 581T184 443T167 250T184 58T225 -81T274 -167T316 -220T333 -241Q333 -250 318 -250H315H302L274 -226Q180 -141 137 -14T94 250Z"></path>
<path stroke-width="10" id="E1-MJMATHI-46" d="M48 1Q31 1 31 11Q31 13 34 25Q38 41 42 43T65 46Q92 46 125 49Q139 52 144 61Q146 66 215 342T285 622Q285 629 281 629Q273 632 228 634H197Q191 640 191 642T193 659Q197 676 203 680H742Q749 676 749 669Q749 664 736 557T722 447Q720 440 702 440H690Q683 445 683 453Q683 454 686 477T689 530Q689 560 682 579T663 610T626 626T575 633T503 634H480Q398 633 393 631Q388 629 386 623Q385 622 352 492L320 363H375Q378 363 398 363T426 364T448 367T472 374T489 386Q502 398 511 419T524 457T529 475Q532 480 548 480H560Q567 475 567 470Q567 467 536 339T502 207Q500 200 482 200H470Q463 206 463 212Q463 215 468 234T473 274Q473 303 453 310T364 317H309L277 190Q245 66 245 60Q245 46 334 46H359Q365 40 365 39T363 19Q359 6 353 0H336Q295 2 185 2Q120 2 86 2T48 1Z"></path>
<path stroke-width="10" id="E1-MJMATHI-75" d="M21 287Q21 295 30 318T55 370T99 420T158 442Q204 442 227 417T250 358Q250 340 216 246T182 105Q182 62 196 45T238 27T291 44T328 78L339 95Q341 99 377 247Q407 367 413 387T427 416Q444 431 463 431Q480 431 488 421T496 402L420 84Q419 79 419 68Q419 43 426 35T447 26Q469 29 482 57T512 145Q514 153 532 153Q551 153 551 144Q550 139 549 130T540 98T523 55T498 17T462 -8Q454 -10 438 -10Q372 -10 347 46Q345 45 336 36T318 21T296 6T267 -6T233 -11Q189 -11 155 7Q103 38 103 113Q103 170 138 262T173 379Q173 380 173 381Q173 390 173 393T169 400T158 404H154Q131 404 112 385T82 344T65 302T57 280Q55 278 41 278H27Q21 284 21 287Z"></path>
<path stroke-width="10" id="E1-MJMATHI-6E" d="M21 287Q22 293 24 303T36 341T56 388T89 425T135 442Q171 442 195 424T225 390T231 369Q231 367 232 367L243 378Q304 442 382 442Q436 442 469 415T503 336T465 179T427 52Q427 26 444 26Q450 26 453 27Q482 32 505 65T540 145Q542 153 560 153Q580 153 580 145Q580 144 576 130Q568 101 554 73T508 17T439 -10Q392 -10 371 17T350 73Q350 92 386 193T423 345Q423 404 379 404H374Q288 404 229 303L222 291L189 157Q156 26 151 16Q138 -11 108 -11Q95 -11 87 -5T76 7T74 17Q74 30 112 180T152 343Q153 348 153 366Q153 405 129 405Q91 405 66 305Q60 285 60 284Q58 278 41 278H27Q21 284 21 287Z"></path>
<path stroke-width="10" id="E1-MJMATHI-63" d="M34 159Q34 268 120 355T306 442Q362 442 394 418T427 355Q427 326 408 306T360 285Q341 285 330 295T319 325T330 359T352 380T366 386H367Q367 388 361 392T340 400T306 404Q276 404 249 390Q228 381 206 359Q162 315 142 235T121 119Q121 73 147 50Q169 26 205 26H209Q321 26 394 111Q403 121 406 121Q410 121 419 112T429 98T420 83T391 55T346 25T282 0T202 -11Q127 -11 81 37T34 159Z"></path>
<path stroke-width="10" id="E1-MJMATHI-74" d="M26 385Q19 392 19 395Q19 399 22 411T27 425Q29 430 36 430T87 431H140L159 511Q162 522 166 540T173 566T179 586T187 603T197 615T211 624T229 626Q247 625 254 615T261 596Q261 589 252 549T232 470L222 433Q222 431 272 431H323Q330 424 330 420Q330 398 317 385H210L174 240Q135 80 135 68Q135 26 162 26Q197 26 230 60T283 144Q285 150 288 151T303 153H307Q322 153 322 145Q322 142 319 133Q314 117 301 95T267 48T216 6T155 -11Q125 -11 98 4T59 56Q57 64 57 83V101L92 241Q127 382 128 383Q128 385 77 385H26Z"></path>
<path stroke-width="10" id="E1-MJCAL-43" d="M201 -25Q167 -25 136 -14T75 23T29 94T12 202Q12 290 50 394T161 574Q227 642 303 673T433 704Q435 705 457 705Q533 701 533 640Q533 606 507 548T464 474Q431 444 396 444Q381 444 381 453Q381 459 388 473T407 513T428 563Q433 580 433 594Q433 636 381 636Q314 636 260 594T175 489T128 363T112 247Q112 157 153 101T273 44Q347 44 398 121Q413 144 437 157T481 171Q496 171 496 160Q496 150 476 123Q426 56 350 16T201 -25Z"></path>
<path stroke-width="10" id="E1-MJMAIN-2C" d="M78 35T78 60T94 103T137 121Q165 121 187 96T210 8Q210 -27 201 -60T180 -117T154 -158T130 -185T117 -194Q113 -194 104 -185T95 -172Q95 -168 106 -156T131 -126T157 -76T173 -3V9L172 8Q170 7 167 6T161 3T152 1T140 0Q113 0 96 17Z"></path>
<path stroke-width="10" id="E1-MJCAL-44" d="M37 475Q19 475 19 487Q19 536 103 604T327 682H356Q386 683 408 683H419Q475 683 506 681T582 668T667 633Q766 571 766 450Q766 365 723 287T611 152T455 57T279 6Q248 1 160 0Q148 0 131 0T108 -1Q72 -1 72 11Q72 24 90 40T133 64L144 68L152 88Q247 328 272 587Q275 613 272 613Q272 613 269 613Q225 610 195 602T149 579T129 556T119 532Q118 530 116 525T113 518Q102 502 80 490T37 475ZM665 407Q665 596 412 613Q403 614 383 614Q370 614 370 612Q370 598 363 542T323 357T242 103L228 69H265Q391 73 481 119Q536 148 575 188T633 268T658 338T665 392V407Z"></path>
<path stroke-width="10" id="E1-MJMAIN-29" d="M60 749L64 750Q69 750 74 750H86L114 726Q208 641 251 514T294 250Q294 182 284 119T261 12T224 -76T186 -143T145 -194T113 -227T90 -246Q87 -249 86 -250H74Q66 -250 63 -250T58 -247T55 -238Q56 -237 66 -225Q221 -64 221 250T66 725Q56 737 55 738Q55 746 60 749Z"></path>
<path stroke-width="10" id="E1-MJMATHI-6F" d="M201 -11Q126 -11 80 38T34 156Q34 221 64 279T146 380Q222 441 301 441Q333 441 341 440Q354 437 367 433T402 417T438 387T464 338T476 268Q476 161 390 75T201 -11ZM121 120Q121 70 147 48T206 26Q250 26 289 58T351 142Q360 163 374 216T388 308Q388 352 370 375Q346 405 306 405Q243 405 195 347Q158 303 140 230T121 120Z"></path>
<path stroke-width="10" id="E1-MJMATHI-70" d="M23 287Q24 290 25 295T30 317T40 348T55 381T75 411T101 433T134 442Q209 442 230 378L240 387Q302 442 358 442Q423 442 460 395T497 281Q497 173 421 82T249 -10Q227 -10 210 -4Q199 1 187 11T168 28L161 36Q160 35 139 -51T118 -138Q118 -144 126 -145T163 -148H188Q194 -155 194 -157T191 -175Q188 -187 185 -190T172 -194Q170 -194 161 -194T127 -193T65 -192Q-5 -192 -24 -194H-32Q-39 -187 -39 -183Q-37 -156 -26 -148H-6Q28 -147 33 -136Q36 -130 94 103T155 350Q156 355 156 364Q156 405 131 405Q109 405 94 377T71 316T59 280Q57 278 43 278H29Q23 284 23 287ZM178 102Q200 26 252 26Q282 26 310 49T356 107Q374 141 392 215T411 325V331Q411 405 350 405Q339 405 328 402T306 393T286 380T269 365T254 350T243 336T235 326L232 322Q232 321 229 308T218 264T204 212Q178 106 178 102Z"></path>
<path stroke-width="10" id="E1-MJMAIN-2245" d="M55 388Q55 463 101 526T222 589Q260 589 296 571T362 526T421 474T484 430T554 411Q616 411 655 458T694 560Q694 572 698 580T708 589Q722 589 722 556Q722 482 677 419T562 356H554Q517 356 481 374T414 418T355 471T292 515T223 533Q179 533 145 508Q109 479 96 440T80 378T69 355Q55 355 55 388ZM56 236Q56 249 70 256H707Q722 248 722 236Q722 225 708 217L390 216H72Q56 221 56 236ZM56 42Q56 57 72 62H708Q722 52 722 42Q722 30 707 22H70Q56 29 56 42Z"></path>
</defs>
<g stroke="currentColor" fill="currentColor" stroke-width="0" transform="matrix(1 0 0 -1 0 0)">
 <use xlink:href="#E1-MJMAIN-28" x="0" y="0"></use>
 <use xlink:href="#E1-MJMATHI-46" x="394" y="0"></use>
 <use xlink:href="#E1-MJMATHI-75" x="1148" y="0"></use>
 <use xlink:href="#E1-MJMATHI-6E" x="1725" y="0"></use>
 <use xlink:href="#E1-MJMATHI-63" x="2330" y="0"></use>
 <use xlink:href="#E1-MJMATHI-74" x="2768" y="0"></use>
 <use xlink:href="#E1-MJMAIN-28" x="3134" y="0"></use>
 <use xlink:href="#E1-MJCAL-43" x="3528" y="0"></use>
 <use xlink:href="#E1-MJMAIN-2C" x="4066" y="0"></use>
 <use xlink:href="#E1-MJCAL-44" x="4515" y="0"></use>
 <use xlink:href="#E1-MJMAIN-29" x="5291" y="0"></use>
<g transform="translate(5685,0)">
 <use xlink:href="#E1-MJMAIN-29" x="0" y="0"></use>
<g transform="translate(394,412)">
 <use transform="scale(0.707)" xlink:href="#E1-MJMATHI-6F" x="0" y="0"></use>
 <use transform="scale(0.707)" xlink:href="#E1-MJMATHI-70" x="490" y="0"></use>
</g>
</g>
 <use xlink:href="#E1-MJMAIN-2245" x="7163" y="0"></use>
 <use xlink:href="#E1-MJMATHI-46" x="8223" y="0"></use>
 <use xlink:href="#E1-MJMATHI-75" x="8977" y="0"></use>
 <use xlink:href="#E1-MJMATHI-6E" x="9554" y="0"></use>
 <use xlink:href="#E1-MJMATHI-63" x="10159" y="0"></use>
 <use xlink:href="#E1-MJMATHI-74" x="10597" y="0"></use>
 <use xlink:href="#E1-MJMAIN-28" x="10963" y="0"></use>
<g transform="translate(11357,0)">
 <use xlink:href="#E1-MJCAL-43" x="0" y="0"></use>
<g transform="translate(539,441)">
 <use transform="scale(0.707)" xlink:href="#E1-MJMATHI-6F" x="0" y="0"></use>
 <use transform="scale(0.707)" xlink:href="#E1-MJMATHI-70" x="490" y="0"></use>
</g>
</g>
 <use xlink:href="#E1-MJMAIN-2C" x="12703" y="0"></use>
<g transform="translate(13153,0)">
 <use xlink:href="#E1-MJCAL-44" x="0" y="0"></use>
<g transform="translate(776,419)">
 <use transform="scale(0.707)" xlink:href="#E1-MJMATHI-6F" x="0" y="0"></use>
 <use transform="scale(0.707)" xlink:href="#E1-MJMATHI-70" x="490" y="0"></use>
</g>
</g>
 <use xlink:href="#E1-MJMAIN-29" x="14734" y="0"></use>
</g>
</svg>