<?xml version="1.0" standalone="no"?>
<!DOCTYPE svg PUBLIC "-//W3C//DTD SVG 1.1//EN" "http://www.w3.org/Graphics/SVG/1.1/DTD/svg11.dtd">
<svg xmlns:xlink="http://www.w3.org/1999/xlink" width="7.8ex" height="2.843ex" style="vertical-align: -0.838ex;" viewBox="0 -863.1 3358.4 1223.9" xmlns="http://www.w3.org/2000/svg">
<defs>
<path stroke-width="10" id="E1-MJAMS-4E" d="M20 664Q20 666 31 683H142Q256 683 258 681Q259 680 279 653T342 572T422 468L582 259V425Q582 451 582 490T583 541Q583 611 573 628T522 648Q500 648 493 654Q484 665 493 679L500 683H691Q702 676 702 666Q702 657 698 652Q688 648 680 648Q633 648 627 612Q624 601 624 294V-8Q616 -20 607 -20Q601 -20 596 -15Q593 -13 371 270L156 548L153 319Q153 284 153 234T152 167Q152 103 156 78T172 44T213 34Q236 34 242 28Q253 17 242 3L236 -1H36Q24 6 24 16Q24 34 56 34Q58 35 69 36T86 40T100 50T109 72Q111 83 111 345V603L96 619Q72 643 44 648Q20 648 20 664ZM413 419L240 648H120L136 628Q137 626 361 341T587 54L589 68Q589 78 589 121V192L413 419Z"></path>
<path stroke-width="10" id="E1-MJMAIN-222A" d="M591 598H592Q604 598 611 583V376Q611 345 611 296Q610 162 606 148Q605 146 605 145Q586 68 507 23T333 -22Q268 -22 209 -1T106 66T56 173Q55 180 55 384L56 585Q66 598 75 598Q85 598 95 585V378L96 172L98 162Q112 95 181 57T332 18Q415 18 487 58T570 175Q571 180 571 383V583Q579 598 591 598Z"></path>
<path stroke-width="10" id="E1-MJMAIN-7B" d="M434 -231Q434 -244 428 -250H410Q281 -250 230 -184Q225 -177 222 -172T217 -161T213 -148T211 -133T210 -111T209 -84T209 -47T209 0Q209 21 209 53Q208 142 204 153Q203 154 203 155Q189 191 153 211T82 231Q71 231 68 234T65 250T68 266T82 269Q116 269 152 289T203 345Q208 356 208 377T209 529V579Q209 634 215 656T244 698Q270 724 324 740Q361 748 377 749Q379 749 390 749T408 750H428Q434 744 434 732Q434 719 431 716Q429 713 415 713Q362 710 332 689T296 647Q291 634 291 499V417Q291 370 288 353T271 314Q240 271 184 255L170 250L184 245Q202 239 220 230T262 196T290 137Q291 131 291 1Q291 -134 296 -147Q306 -174 339 -192T415 -213Q429 -213 431 -216Q434 -219 434 -231Z"></path>
<path stroke-width="10" id="E1-MJMAIN-30" d="M96 585Q152 666 249 666Q297 666 345 640T423 548Q460 465 460 320Q460 165 417 83Q397 41 362 16T301 -15T250 -22Q224 -22 198 -16T137 16T82 83Q39 165 39 320Q39 494 96 585ZM321 597Q291 629 250 629Q208 629 178 597Q153 571 145 525T137 333Q137 175 145 125T181 46Q209 16 250 16Q290 16 318 46Q347 76 354 130T362 333Q362 478 354 524T321 597Z"></path>
<path stroke-width="10" id="E1-MJMAIN-7D" d="M65 731Q65 745 68 747T88 750Q171 750 216 725T279 670Q288 649 289 635T291 501Q292 362 293 357Q306 312 345 291T417 269Q428 269 431 266T434 250T431 234T417 231Q380 231 345 210T298 157Q293 143 292 121T291 -28V-79Q291 -134 285 -156T256 -198Q202 -250 89 -250Q71 -250 68 -247T65 -230Q65 -224 65 -223T66 -218T69 -214T77 -213Q91 -213 108 -210T146 -200T183 -177T207 -139Q208 -134 209 3L210 139Q223 196 280 230Q315 247 330 250Q305 257 280 270Q225 304 212 352L210 362L209 498Q208 635 207 640Q195 680 154 696T77 713Q68 713 67 716T65 731Z"></path>
</defs>
<g stroke="currentColor" fill="currentColor" stroke-width="0" transform="matrix(1 0 0 -1 0 0)">
 <use xlink:href="#E1-MJAMS-4E" x="0" y="0"></use>
 <use xlink:href="#E1-MJMAIN-222A" x="949" y="0"></use>
 <use xlink:href="#E1-MJMAIN-7B" x="1843" y="0"></use>
 <use xlink:href="#E1-MJMAIN-30" x="2348" y="0"></use>
 <use xlink:href="#E1-MJMAIN-7D" x="2853" y="0"></use>
</g>
</svg>