<?xml version="1.0" standalone="no"?>
<!DOCTYPE svg PUBLIC "-//W3C//DTD SVG 1.1//EN" "http://www.w3.org/Graphics/SVG/1.1/DTD/svg11.dtd">
<svg xmlns:xlink="http://www.w3.org/1999/xlink" width="3.137ex" height="2.509ex" style="vertical-align: -0.338ex;" viewBox="0 -934.9 1350.5 1080.4" xmlns="http://www.w3.org/2000/svg">
<defs>
<path stroke-width="10" id="E1-MJCAL-43" d="M201 -25Q167 -25 136 -14T75 23T29 94T12 202Q12 290 50 394T161 574Q227 642 303 673T433 704Q435 705 457 705Q533 701 533 640Q533 606 507 548T464 474Q431 444 396 444Q381 444 381 453Q381 459 388 473T407 513T428 563Q433 580 433 594Q433 636 381 636Q314 636 260 594T175 489T128 363T112 247Q112 157 153 101T273 44Q347 44 398 121Q413 144 437 157T481 171Q496 171 496 160Q496 150 476 123Q426 56 350 16T201 -25Z"></path>
<path stroke-width="10" id="E1-MJMAIN-2192" d="M56 237T56 250T70 270H835Q719 357 692 493Q692 494 692 496T691 499Q691 511 708 511H711Q720 511 723 510T729 506T732 497T735 481T743 456Q765 389 816 336T935 261Q944 258 944 250Q944 244 939 241T915 231T877 212Q836 186 806 152T761 85T740 35T732 4Q730 -6 727 -8T711 -11Q691 -11 691 0Q691 7 696 25Q728 151 835 230H70Q56 237 56 250Z"></path>
</defs>
<g stroke="currentColor" fill="currentColor" stroke-width="0" transform="matrix(1 0 0 -1 0 0)">
 <use xlink:href="#E1-MJCAL-43" x="0" y="0"></use>
 <use transform="scale(0.707)" xlink:href="#E1-MJMAIN-2192" x="763" y="625"></use>
</g>
</svg>