<?xml version="1.0" standalone="no"?>
<!DOCTYPE svg PUBLIC "-//W3C//DTD SVG 1.1//EN" "http://www.w3.org/Graphics/SVG/1.1/DTD/svg11.dtd">
<svg xmlns:xlink="http://www.w3.org/1999/xlink" width="14.293ex" height="3.009ex" style="vertical-align: -0.838ex;" viewBox="0 -934.9 6153.7 1295.7" xmlns="http://www.w3.org/2000/svg">
<defs>
<path stroke-width="10" id="E1-MJMAIN-28" d="M94 250Q94 319 104 381T127 488T164 576T202 643T244 695T277 729T302 750H315H319Q333 750 333 741Q333 738 316 720T275 667T226 581T184 443T167 250T184 58T225 -81T274 -167T316 -220T333 -241Q333 -250 318 -250H315H302L274 -226Q180 -141 137 -14T94 250Z"></path>
<path stroke-width="10" id="E1-MJMATHI-67" d="M311 43Q296 30 267 15T206 0Q143 0 105 45T66 160Q66 265 143 353T314 442Q361 442 401 394L404 398Q406 401 409 404T418 412T431 419T447 422Q461 422 470 413T480 394Q480 379 423 152T363 -80Q345 -134 286 -169T151 -205Q10 -205 10 -137Q10 -111 28 -91T74 -71Q89 -71 102 -80T116 -111Q116 -121 114 -130T107 -144T99 -154T92 -162L90 -164H91Q101 -167 151 -167Q189 -167 211 -155Q234 -144 254 -122T282 -75Q288 -56 298 -13Q311 35 311 43ZM384 328L380 339Q377 350 375 354T369 368T359 382T346 393T328 402T306 405Q262 405 221 352Q191 313 171 233T151 117Q151 38 213 38Q269 38 323 108L331 118L384 328Z"></path>
<path stroke-width="10" id="E1-MJMAIN-2C" d="M78 35T78 60T94 103T137 121Q165 121 187 96T210 8Q210 -27 201 -60T180 -117T154 -158T130 -185T117 -194Q113 -194 104 -185T95 -172Q95 -168 106 -156T131 -126T157 -76T173 -3V9L172 8Q170 7 167 6T161 3T152 1T140 0Q113 0 96 17Z"></path>
<path stroke-width="10" id="E1-MJMATHI-68" d="M137 683Q138 683 209 688T282 694Q294 694 294 685Q294 674 258 534Q220 386 220 383Q220 381 227 388Q288 442 357 442Q411 442 444 415T478 336Q478 285 440 178T402 50Q403 36 407 31T422 26Q450 26 474 56T513 138Q516 149 519 151T535 153Q555 153 555 145Q555 144 551 130Q535 71 500 33Q466 -10 419 -10H414Q367 -10 346 17T325 74Q325 90 361 192T398 345Q398 404 354 404H349Q266 404 205 306L198 293L164 158Q132 28 127 16Q114 -11 83 -11Q69 -11 59 -2T48 16Q48 30 121 320L195 616Q195 629 188 632T149 637H128Q122 643 122 645T124 664Q129 683 137 683Z"></path>
<path stroke-width="10" id="E1-MJMAIN-29" d="M60 749L64 750Q69 750 74 750H86L114 726Q208 641 251 514T294 250Q294 182 284 119T261 12T224 -76T186 -143T145 -194T113 -227T90 -246Q87 -249 86 -250H74Q66 -250 63 -250T58 -247T55 -238Q56 -237 66 -225Q221 -64 221 250T66 725Q56 737 55 738Q55 746 60 749Z"></path>
<path stroke-width="10" id="E1-MJMAIN-2218" d="M55 251Q55 328 112 386T249 444T386 388T444 249Q444 171 388 113T250 55Q170 55 113 112T55 251ZM245 403Q188 403 142 361T96 250Q96 183 141 140T250 96Q284 96 313 109T354 135T375 160Q403 197 403 250Q403 313 360 358T245 403Z"></path>
<path stroke-width="10" id="E1-MJMAIN-2032" d="M79 43Q73 43 52 49T30 61Q30 68 85 293T146 528Q161 560 198 560Q218 560 240 545T262 501Q262 496 260 486Q259 479 173 263T84 45T79 43Z"></path>
</defs>
<g stroke="currentColor" fill="currentColor" stroke-width="0" transform="matrix(1 0 0 -1 0 0)">
 <use xlink:href="#E1-MJMAIN-28" x="0" y="0"></use>
 <use xlink:href="#E1-MJMATHI-67" x="394" y="0"></use>
 <use xlink:href="#E1-MJMAIN-2C" x="879" y="0"></use>
 <use xlink:href="#E1-MJMATHI-68" x="1328" y="0"></use>
 <use xlink:href="#E1-MJMAIN-29" x="1909" y="0"></use>
 <use xlink:href="#E1-MJMAIN-2218" x="2525" y="0"></use>
 <use xlink:href="#E1-MJMAIN-28" x="3253" y="0"></use>
<g transform="translate(3647,0)">
 <use xlink:href="#E1-MJMATHI-67" x="0" y="0"></use>
 <use transform="scale(0.707)" xlink:href="#E1-MJMAIN-2032" x="687" y="583"></use>
</g>
 <use xlink:href="#E1-MJMAIN-2C" x="4431" y="0"></use>
<g transform="translate(4880,0)">
 <use xlink:href="#E1-MJMATHI-68" x="0" y="0"></use>
 <use transform="scale(0.707)" xlink:href="#E1-MJMAIN-2032" x="821" y="583"></use>
</g>
 <use xlink:href="#E1-MJMAIN-29" x="5759" y="0"></use>
</g>
</svg>