<?xml version="1.0" standalone="no"?>
<!DOCTYPE svg PUBLIC "-//W3C//DTD SVG 1.1//EN" "http://www.w3.org/Graphics/SVG/1.1/DTD/svg11.dtd">
<svg xmlns:xlink="http://www.w3.org/1999/xlink" width="6.285ex" height="2.176ex" style="vertical-align: -0.671ex;" viewBox="0 -647.8 2706.1 936.9" xmlns="http://www.w3.org/2000/svg">
<defs>
<path stroke-width="10" id="E1-MJMAIN-28" d="M94 250Q94 319 104 381T127 488T164 576T202 643T244 695T277 729T302 750H315H319Q333 750 333 741Q333 738 316 720T275 667T226 581T184 443T167 250T184 58T225 -81T274 -167T316 -220T333 -241Q333 -250 318 -250H315H302L274 -226Q180 -141 137 -14T94 250Z"></path>
<path stroke-width="10" id="E1-MJMAIN-2219" d="M55 251Q55 328 112 386T249 444T386 388T444 249Q444 171 388 113T250 55Q170 55 113 112T55 251Z"></path>
<path stroke-width="10" id="E1-MJMAIN-2193" d="M473 86Q483 86 483 67Q483 63 483 61T483 56T481 53T480 50T478 48T474 47T470 46T464 44Q428 35 391 14T316 -55T264 -168Q264 -170 263 -173T262 -180T261 -184Q259 -194 251 -194Q242 -194 238 -176T221 -121T180 -49Q169 -34 155 -21T125 2T95 20T67 33T44 42T27 47L21 49Q17 53 17 67Q17 87 28 87Q33 87 42 84Q158 52 223 -45L230 -55V312Q230 391 230 482T229 591Q229 662 231 676T243 693Q244 694 251 694Q264 692 270 679V-55L277 -45Q307 1 353 33T430 76T473 86Z"></path>
<path stroke-width="10" id="E1-MJMAINB-54" d="M41 425Q41 426 51 545T62 669V675H737V669Q738 665 748 546T758 425V419H696V425Q687 517 669 555T595 607Q578 612 522 613H478V62H631V0H615Q585 3 399 3Q214 3 184 0H168V62H321V613H277H263Q164 613 134 561Q113 527 103 425V419H41V425Z"></path>
<path stroke-width="10" id="E1-MJMAINB-6F" d="M287 -5Q228 -5 182 10T109 48T63 102T39 161T32 219Q32 272 50 314T94 382T154 423T214 446T265 452H279Q319 452 326 451Q428 439 485 376T542 221Q542 156 514 108T442 33Q384 -5 287 -5ZM399 230V250Q399 280 398 298T391 338T372 372T338 392T282 401Q241 401 212 380Q190 363 183 334T175 230Q175 202 175 189T177 153T183 118T195 91T215 68T245 56T287 50Q348 50 374 84Q388 101 393 132T399 230Z"></path>
<path stroke-width="10" id="E1-MJMAINB-70" d="M32 442L123 446Q214 450 215 450H221V409Q222 409 229 413T251 423T284 436T328 446T382 450Q480 450 540 388T600 223Q600 128 539 61T361 -6H354Q292 -6 236 28L227 34V-132H296V-194H287Q269 -191 163 -191Q56 -191 38 -194H29V-132H98V113V284Q98 330 97 348T93 370T83 376Q69 380 42 380H29V442H32ZM457 224Q457 303 427 349T350 395Q282 395 235 352L227 345V104L233 97Q274 45 337 45Q383 45 420 86T457 224Z"></path>
<path stroke-width="10" id="E1-MJMAIN-29" d="M60 749L64 750Q69 750 74 750H86L114 726Q208 641 251 514T294 250Q294 182 284 119T261 12T224 -76T186 -143T145 -194T113 -227T90 -246Q87 -249 86 -250H74Q66 -250 63 -250T58 -247T55 -238Q56 -237 66 -225Q221 -64 221 250T66 725Q56 737 55 738Q55 746 60 749Z"></path>
</defs>
<g stroke="currentColor" fill="currentColor" stroke-width="0" transform="matrix(1 0 0 -1 0 0)">
 <use transform="scale(0.707)" xlink:href="#E1-MJMAIN-28" x="0" y="0"></use>
 <use transform="scale(0.707)" xlink:href="#E1-MJMAIN-2219" x="394" y="0"></use>
 <use transform="scale(0.707)" xlink:href="#E1-MJMAIN-2193" x="899" y="0"></use>
<g transform="translate(992,0)">
 <use transform="scale(0.707)" xlink:href="#E1-MJMAINB-54" x="0" y="0"></use>
 <use transform="scale(0.707)" xlink:href="#E1-MJMAINB-6F" x="805" y="0"></use>
 <use transform="scale(0.707)" xlink:href="#E1-MJMAINB-70" x="1385" y="0"></use>
</g>
 <use transform="scale(0.707)" xlink:href="#E1-MJMAIN-29" x="3433" y="0"></use>
</g>
</svg>