<?xml version="1.0" standalone="no"?>
<!DOCTYPE svg PUBLIC "-//W3C//DTD SVG 1.1//EN" "http://www.w3.org/Graphics/SVG/1.1/DTD/svg11.dtd">
<svg xmlns:xlink="http://www.w3.org/1999/xlink" width="2.98ex" height="3.843ex" style="vertical-align: -1.338ex;" viewBox="0 -1078.4 1283 1654.5" xmlns="http://www.w3.org/2000/svg">
<defs>
<path stroke-width="10" id="E1-MJSZ2-2210" d="M220 812Q220 813 218 819T214 829T208 840T199 853T185 866T166 878T140 887T107 893T66 896H56V950H552V896H542Q411 896 389 812L388 208V-396H889V812Q889 813 887 819T883 829T877 840T868 853T854 866T835 878T809 887T776 893T735 896H725V950H1221V896H1211Q1080 896 1058 812V-311Q1076 -396 1211 -396H1221V-450H56V-396H66Q195 -396 219 -314Q220 -312 220 -311V812Z"></path>
</defs>
<g stroke="currentColor" fill="currentColor" stroke-width="0" transform="matrix(1 0 0 -1 0 0)">
 <use xlink:href="#E1-MJSZ2-2210" x="0" y="0"></use>
</g>
</svg>