<?xml version="1.0" standalone="no"?>
<!DOCTYPE svg PUBLIC "-//W3C//DTD SVG 1.1//EN" "http://www.w3.org/Graphics/SVG/1.1/DTD/svg11.dtd">
<svg xmlns:xlink="http://www.w3.org/1999/xlink" width="27.564ex" height="2.843ex" style="vertical-align: -0.838ex;" viewBox="0 -863.1 11867.9 1223.9" xmlns="http://www.w3.org/2000/svg">
<defs>
<path stroke-width="10" id="E1-MJMAIN-27E8" d="M333 -232Q332 -239 327 -244T313 -250Q303 -250 296 -240Q293 -233 202 6T110 250T201 494T296 740Q299 745 306 749L309 750Q312 750 313 750Q331 750 333 732Q333 727 243 489Q152 252 152 250T243 11Q333 -227 333 -232Z"></path>
<path stroke-width="10" id="E1-MJMATHI-61" d="M33 157Q33 258 109 349T280 441Q331 441 370 392Q386 422 416 422Q429 422 439 414T449 394Q449 381 412 234T374 68Q374 43 381 35T402 26Q411 27 422 35Q443 55 463 131Q469 151 473 152Q475 153 483 153H487Q506 153 506 144Q506 138 501 117T481 63T449 13Q436 0 417 -8Q409 -10 393 -10Q359 -10 336 5T306 36L300 51Q299 52 296 50Q294 48 292 46Q233 -10 172 -10Q117 -10 75 30T33 157ZM351 328Q351 334 346 350T323 385T277 405Q242 405 210 374T160 293Q131 214 119 129Q119 126 119 118T118 106Q118 61 136 44T179 26Q217 26 254 59T298 110Q300 114 325 217T351 328Z"></path>
<path stroke-width="10" id="E1-MJMAIN-2C" d="M78 35T78 60T94 103T137 121Q165 121 187 96T210 8Q210 -27 201 -60T180 -117T154 -158T130 -185T117 -194Q113 -194 104 -185T95 -172Q95 -168 106 -156T131 -126T157 -76T173 -3V9L172 8Q170 7 167 6T161 3T152 1T140 0Q113 0 96 17Z"></path>
<path stroke-width="10" id="E1-MJMATHI-62" d="M73 647Q73 657 77 670T89 683Q90 683 161 688T234 694Q246 694 246 685T212 542Q204 508 195 472T180 418L176 399Q176 396 182 402Q231 442 283 442Q345 442 383 396T422 280Q422 169 343 79T173 -11Q123 -11 82 27T40 150V159Q40 180 48 217T97 414Q147 611 147 623T109 637Q104 637 101 637H96Q86 637 83 637T76 640T73 647ZM336 325V331Q336 405 275 405Q258 405 240 397T207 376T181 352T163 330L157 322L136 236Q114 150 114 114Q114 66 138 42Q154 26 178 26Q211 26 245 58Q270 81 285 114T318 219Q336 291 336 325Z"></path>
<path stroke-width="10" id="E1-MJMAIN-7C" d="M139 -249H137Q125 -249 119 -235V251L120 737Q130 750 139 750Q152 750 159 735V-235Q151 -249 141 -249H139Z"></path>
<path stroke-width="10" id="E1-MJMAIN-3D" d="M56 347Q56 360 70 367H707Q722 359 722 347Q722 336 708 328L390 327H72Q56 332 56 347ZM56 153Q56 168 72 173H708Q722 163 722 153Q722 140 707 133H70Q56 140 56 153Z"></path>
<path stroke-width="10" id="E1-MJMAIN-27E9" d="M55 732Q56 739 61 744T75 750Q85 750 92 740Q95 733 186 494T278 250T187 6T92 -240Q85 -250 75 -250Q67 -250 62 -245T55 -232Q55 -227 145 11Q236 248 236 250T145 489Q55 727 55 732Z"></path>
</defs>
<g stroke="currentColor" fill="currentColor" stroke-width="0" transform="matrix(1 0 0 -1 0 0)">
 <use xlink:href="#E1-MJMAIN-27E8" x="0" y="0"></use>
 <use xlink:href="#E1-MJMATHI-61" x="394" y="0"></use>
 <use xlink:href="#E1-MJMAIN-2C" x="928" y="0"></use>
 <use xlink:href="#E1-MJMATHI-62" x="1377" y="0"></use>
 <use xlink:href="#E1-MJMAIN-7C" x="1978" y="0"></use>
 <use xlink:href="#E1-MJMATHI-61" x="2539" y="0"></use>
 <use xlink:href="#E1-MJMATHI-62" x="3073" y="0"></use>
 <use xlink:href="#E1-MJMATHI-61" x="3507" y="0"></use>
 <use xlink:href="#E1-MJMAIN-3D" x="4318" y="0"></use>
 <use xlink:href="#E1-MJMATHI-62" x="5379" y="0"></use>
 <use xlink:href="#E1-MJMATHI-61" x="5813" y="0"></use>
 <use xlink:href="#E1-MJMATHI-61" x="6347" y="0"></use>
 <use xlink:href="#E1-MJMAIN-2C" x="6881" y="0"></use>
 <use xlink:href="#E1-MJMATHI-62" x="7331" y="0"></use>
 <use xlink:href="#E1-MJMATHI-62" x="7765" y="0"></use>
 <use xlink:href="#E1-MJMATHI-61" x="8199" y="0"></use>
 <use xlink:href="#E1-MJMAIN-3D" x="9011" y="0"></use>
 <use xlink:href="#E1-MJMATHI-62" x="10071" y="0"></use>
 <use xlink:href="#E1-MJMATHI-61" x="10505" y="0"></use>
 <use xlink:href="#E1-MJMATHI-62" x="11039" y="0"></use>
 <use xlink:href="#E1-MJMAIN-27E9" x="11473" y="0"></use>
</g>
</svg>