<?xml version="1.0" standalone="no"?>
<!DOCTYPE svg PUBLIC "-//W3C//DTD SVG 1.1//EN" "http://www.w3.org/Graphics/SVG/1.1/DTD/svg11.dtd">
<svg xmlns:xlink="http://www.w3.org/1999/xlink" width="1.914ex" height="2.343ex" style="vertical-align: -0.338ex;" viewBox="0 -863.1 824 1008.6" xmlns="http://www.w3.org/2000/svg">
<defs>
<path stroke-width="10" id="E1-MJCAL-41" d="M576 668Q576 688 606 708T660 728Q676 728 675 712V571Q675 409 688 252Q696 122 720 57Q722 53 723 50T728 46T732 43T737 41T743 39L754 45Q788 61 803 61Q819 61 819 47Q818 43 814 35Q799 15 755 -7T675 -30Q659 -30 648 -25T630 -8T621 11T614 34Q603 77 599 106T594 146T591 160V163H460L329 164L316 145Q241 35 196 -7T119 -50T59 -24T30 43Q30 75 46 100T74 125Q81 125 83 120T88 104T96 84Q118 57 151 57Q189 57 277 182Q432 400 542 625L559 659H567Q574 659 575 660T576 668ZM584 249Q579 333 577 386T575 473T574 520V581L563 560Q497 426 412 290L372 228L370 224H371L383 228L393 232H586L584 249Z"></path>
</defs>
<g stroke="currentColor" fill="currentColor" stroke-width="0" transform="matrix(1 0 0 -1 0 0)">
 <use xlink:href="#E1-MJCAL-41" x="0" y="0"></use>
</g>
</svg>