<?xml version="1.0" standalone="no"?>
<!DOCTYPE svg PUBLIC "-//W3C//DTD SVG 1.1//EN" "http://www.w3.org/Graphics/SVG/1.1/DTD/svg11.dtd">
<svg xmlns:xlink="http://www.w3.org/1999/xlink" width="10.022ex" height="2.176ex" style="vertical-align: -0.338ex;" viewBox="0 -791.3 4315.1 936.9" xmlns="http://www.w3.org/2000/svg">
<defs>
<path stroke-width="10" id="E1-MJMATHI-54" d="M40 437Q21 437 21 445Q21 450 37 501T71 602L88 651Q93 669 101 677H569H659Q691 677 697 676T704 667Q704 661 687 553T668 444Q668 437 649 437Q640 437 637 437T631 442L629 445Q629 451 635 490T641 551Q641 586 628 604T573 629Q568 630 515 631Q469 631 457 630T439 622Q438 621 368 343T298 60Q298 48 386 46Q418 46 427 45T436 36Q436 31 433 22Q429 4 424 1L422 0Q419 0 415 0Q410 0 363 1T228 2Q99 2 64 0H49Q43 6 43 9T45 27Q49 40 55 46H83H94Q174 46 189 55Q190 56 191 56Q196 59 201 76T241 233Q258 301 269 344Q339 619 339 625Q339 630 310 630H279Q212 630 191 624Q146 614 121 583T67 467Q60 445 57 441T43 437H40Z"></path>
<path stroke-width="10" id="E1-MJMAIN-3A" d="M78 370Q78 394 95 412T138 430Q162 430 180 414T199 371Q199 346 182 328T139 310T96 327T78 370ZM78 60Q78 84 95 102T138 120Q162 120 180 104T199 61Q199 36 182 18T139 0T96 17T78 60Z"></path>
<path stroke-width="10" id="E1-MJCAL-42" d="M304 342Q292 342 292 353Q292 372 323 391Q331 396 417 428T533 487Q563 512 563 555V562Q563 575 557 589T530 618T475 636Q429 636 396 613T330 539Q263 446 210 238Q196 183 173 120Q135 31 121 16Q108 1 85 -10T47 -22T32 -10Q32 -5 44 18T77 93T112 206Q135 296 154 395T182 550T191 615Q191 616 190 616Q188 616 179 611T157 601T131 594Q113 594 113 605Q113 623 144 644Q154 650 205 676T267 703Q277 705 279 705Q295 705 295 693Q295 686 288 635T278 575Q278 572 287 582Q336 635 402 669T540 704Q603 704 633 673T664 599Q664 559 638 523T580 462Q553 440 504 413L491 407L504 402Q566 381 596 338T627 244Q627 172 575 110T444 13T284 -22Q208 -22 158 28Q144 42 146 50Q150 67 178 85T230 103Q236 103 246 95T267 75T302 56T357 47Q436 47 486 93Q526 136 526 198V210Q526 228 518 249T491 292T436 330T350 345Q335 345 321 344T304 342Z"></path>
<path stroke-width="10" id="E1-MJMAIN-2192" d="M56 237T56 250T70 270H835Q719 357 692 493Q692 494 692 496T691 499Q691 511 708 511H711Q720 511 723 510T729 506T732 497T735 481T743 456Q765 389 816 336T935 261Q944 258 944 250Q944 244 939 241T915 231T877 212Q836 186 806 152T761 85T740 35T732 4Q730 -6 727 -8T711 -11Q691 -11 691 0Q691 7 696 25Q728 151 835 230H70Q56 237 56 250Z"></path>
<path stroke-width="10" id="E1-MJCAL-43" d="M201 -25Q167 -25 136 -14T75 23T29 94T12 202Q12 290 50 394T161 574Q227 642 303 673T433 704Q435 705 457 705Q533 701 533 640Q533 606 507 548T464 474Q431 444 396 444Q381 444 381 453Q381 459 388 473T407 513T428 563Q433 580 433 594Q433 636 381 636Q314 636 260 594T175 489T128 363T112 247Q112 157 153 101T273 44Q347 44 398 121Q413 144 437 157T481 171Q496 171 496 160Q496 150 476 123Q426 56 350 16T201 -25Z"></path>
</defs>
<g stroke="currentColor" fill="currentColor" stroke-width="0" transform="matrix(1 0 0 -1 0 0)">
 <use xlink:href="#E1-MJMATHI-54" x="0" y="0"></use>
 <use xlink:href="#E1-MJMAIN-3A" x="986" y="0"></use>
 <use xlink:href="#E1-MJCAL-42" x="1547" y="0"></use>
 <use xlink:href="#E1-MJMAIN-2192" x="2494" y="0"></use>
 <use xlink:href="#E1-MJCAL-43" x="3777" y="0"></use>
</g>
</svg>