<?xml version="1.0" standalone="no"?>
<!DOCTYPE svg PUBLIC "-//W3C//DTD SVG 1.1//EN" "http://www.w3.org/Graphics/SVG/1.1/DTD/svg11.dtd">
<svg xmlns:xlink="http://www.w3.org/1999/xlink" width="7.557ex" height="2.843ex" style="vertical-align: -0.838ex;" viewBox="0 -863.1 3253.6 1223.9" xmlns="http://www.w3.org/2000/svg">
<defs>
<path stroke-width="10" id="E1-MJMAIN-28" d="M94 250Q94 319 104 381T127 488T164 576T202 643T244 695T277 729T302 750H315H319Q333 750 333 741Q333 738 316 720T275 667T226 581T184 443T167 250T184 58T225 -81T274 -167T316 -220T333 -241Q333 -250 318 -250H315H302L274 -226Q180 -141 137 -14T94 250Z"></path>
<path stroke-width="10" id="E1-MJMATHI-53" d="M308 24Q367 24 416 76T466 197Q466 260 414 284Q308 311 278 321T236 341Q176 383 176 462Q176 523 208 573T273 648Q302 673 343 688T407 704H418H425Q521 704 564 640Q565 640 577 653T603 682T623 704Q624 704 627 704T632 705Q645 705 645 698T617 577T585 459T569 456Q549 456 549 465Q549 471 550 475Q550 478 551 494T553 520Q553 554 544 579T526 616T501 641Q465 662 419 662Q362 662 313 616T263 510Q263 480 278 458T319 427Q323 425 389 408T456 390Q490 379 522 342T554 242Q554 216 546 186Q541 164 528 137T492 78T426 18T332 -20Q320 -22 298 -22Q199 -22 144 33L134 44L106 13Q83 -14 78 -18T65 -22Q52 -22 52 -14Q52 -11 110 221Q112 227 130 227H143Q149 221 149 216Q149 214 148 207T144 186T142 153Q144 114 160 87T203 47T255 29T308 24Z"></path>
<path stroke-width="10" id="E1-MJMAIN-2193" d="M473 86Q483 86 483 67Q483 63 483 61T483 56T481 53T480 50T478 48T474 47T470 46T464 44Q428 35 391 14T316 -55T264 -168Q264 -170 263 -173T262 -180T261 -184Q259 -194 251 -194Q242 -194 238 -176T221 -121T180 -49Q169 -34 155 -21T125 2T95 20T67 33T44 42T27 47L21 49Q17 53 17 67Q17 87 28 87Q33 87 42 84Q158 52 223 -45L230 -55V312Q230 391 230 482T229 591Q229 662 231 676T243 693Q244 694 251 694Q264 692 270 679V-55L277 -45Q307 1 353 33T430 76T473 86Z"></path>
<path stroke-width="10" id="E1-MJMATHI-41" d="M208 74Q208 50 254 46Q272 46 272 35Q272 34 270 22Q267 8 264 4T251 0Q249 0 239 0T205 1T141 2Q70 2 50 0H42Q35 7 35 11Q37 38 48 46H62Q132 49 164 96Q170 102 345 401T523 704Q530 716 547 716H555H572Q578 707 578 706L606 383Q634 60 636 57Q641 46 701 46Q726 46 726 36Q726 34 723 22Q720 7 718 4T704 0Q701 0 690 0T651 1T578 2Q484 2 455 0H443Q437 6 437 9T439 27Q443 40 445 43L449 46H469Q523 49 533 63L521 213H283L249 155Q208 86 208 74ZM516 260Q516 271 504 416T490 562L463 519Q447 492 400 412L310 260L413 259Q516 259 516 260Z"></path>
<path stroke-width="10" id="E1-MJMAIN-29" d="M60 749L64 750Q69 750 74 750H86L114 726Q208 641 251 514T294 250Q294 182 284 119T261 12T224 -76T186 -143T145 -194T113 -227T90 -246Q87 -249 86 -250H74Q66 -250 63 -250T58 -247T55 -238Q56 -237 66 -225Q221 -64 221 250T66 725Q56 737 55 738Q55 746 60 749Z"></path>
</defs>
<g stroke="currentColor" fill="currentColor" stroke-width="0" transform="matrix(1 0 0 -1 0 0)">
 <use xlink:href="#E1-MJMAIN-28" x="0" y="0"></use>
 <use xlink:href="#E1-MJMATHI-53" x="394" y="0"></use>
 <use xlink:href="#E1-MJMAIN-2193" x="1321" y="0"></use>
 <use xlink:href="#E1-MJMATHI-41" x="2104" y="0"></use>
 <use xlink:href="#E1-MJMAIN-29" x="2859" y="0"></use>
</g>
</svg>