<?xml version="1.0" standalone="no"?>
<!DOCTYPE svg PUBLIC "-//W3C//DTD SVG 1.1//EN" "http://www.w3.org/Graphics/SVG/1.1/DTD/svg11.dtd">
<svg xmlns:xlink="http://www.w3.org/1999/xlink" width="1.25ex" height="2.176ex" style="vertical-align: -0.338ex;" viewBox="0 -791.3 538 936.9" xmlns="http://www.w3.org/2000/svg">
<defs>
<path stroke-width="10" id="E1-MJCAL-43" d="M201 -25Q167 -25 136 -14T75 23T29 94T12 202Q12 290 50 394T161 574Q227 642 303 673T433 704Q435 705 457 705Q533 701 533 640Q533 606 507 548T464 474Q431 444 396 444Q381 444 381 453Q381 459 388 473T407 513T428 563Q433 580 433 594Q433 636 381 636Q314 636 260 594T175 489T128 363T112 247Q112 157 153 101T273 44Q347 44 398 121Q413 144 437 157T481 171Q496 171 496 160Q496 150 476 123Q426 56 350 16T201 -25Z"></path>
</defs>
<g stroke="currentColor" fill="currentColor" stroke-width="0" transform="matrix(1 0 0 -1 0 0)">
 <use xlink:href="#E1-MJCAL-43" x="0" y="0"></use>
</g>
</svg>