<?xml version="1.0" standalone="no"?>
<!DOCTYPE svg PUBLIC "-//W3C//DTD SVG 1.1//EN" "http://www.w3.org/Graphics/SVG/1.1/DTD/svg11.dtd">
<svg xmlns:xlink="http://www.w3.org/1999/xlink" width="11.64ex" height="2.676ex" style="vertical-align: -0.338ex;" viewBox="0 -1006.6 5011.8 1152.1" xmlns="http://www.w3.org/2000/svg">
<defs>
<path stroke-width="10" id="E1-MJMAIN-394" d="M51 0Q46 4 46 7Q46 9 215 357T388 709Q391 716 416 716Q439 716 444 709Q447 705 616 357T786 7Q786 4 781 0H51ZM507 344L384 596L137 92L383 91H630Q630 93 507 344Z"></path>
<path stroke-width="10" id="E1-MJMAIN-3A" d="M78 370Q78 394 95 412T138 430Q162 430 180 414T199 371Q199 346 182 328T139 310T96 327T78 370ZM78 60Q78 84 95 102T138 120Q162 120 180 104T199 61Q199 36 182 18T139 0T96 17T78 60Z"></path>
<path stroke-width="10" id="E1-MJCAL-43" d="M201 -25Q167 -25 136 -14T75 23T29 94T12 202Q12 290 50 394T161 574Q227 642 303 673T433 704Q435 705 457 705Q533 701 533 640Q533 606 507 548T464 474Q431 444 396 444Q381 444 381 453Q381 459 388 473T407 513T428 563Q433 580 433 594Q433 636 381 636Q314 636 260 594T175 489T128 363T112 247Q112 157 153 101T273 44Q347 44 398 121Q413 144 437 157T481 171Q496 171 496 160Q496 150 476 123Q426 56 350 16T201 -25Z"></path>
<path stroke-width="10" id="E1-MJMAIN-2192" d="M56 237T56 250T70 270H835Q719 357 692 493Q692 494 692 496T691 499Q691 511 708 511H711Q720 511 723 510T729 506T732 497T735 481T743 456Q765 389 816 336T935 261Q944 258 944 250Q944 244 939 241T915 231T877 212Q836 186 806 152T761 85T740 35T732 4Q730 -6 727 -8T711 -11Q691 -11 691 0Q691 7 696 25Q728 151 835 230H70Q56 237 56 250Z"></path>
<path stroke-width="10" id="E1-MJCAL-4A" d="M148 78Q148 16 189 -17T286 -50Q319 -50 348 -33T396 10T426 59T444 101L471 204Q498 306 521 372Q575 532 649 605L659 614H591Q517 613 494 607Q433 591 400 550T360 477Q353 454 325 437T275 419Q256 419 260 435Q280 523 376 597T583 681Q603 683 713 683H830Q839 674 839 671Q839 654 810 634T754 614Q735 614 721 601Q688 571 654 495T600 351T561 209T541 132Q507 29 412 -45T213 -119Q141 -119 94 -77T47 33Q47 55 50 69T58 90T71 103Q105 131 135 131Q152 131 152 120Q152 119 151 114T149 99T148 78Z"></path>
</defs>
<g stroke="currentColor" fill="currentColor" stroke-width="0" transform="matrix(1 0 0 -1 0 0)">
 <use xlink:href="#E1-MJMAIN-394" x="0" y="0"></use>
 <use xlink:href="#E1-MJMAIN-3A" x="1115" y="0"></use>
 <use xlink:href="#E1-MJCAL-43" x="1676" y="0"></use>
 <use xlink:href="#E1-MJMAIN-2192" x="2492" y="0"></use>
<g transform="translate(3775,0)">
 <use xlink:href="#E1-MJCAL-43" x="0" y="0"></use>
 <use transform="scale(0.707)" xlink:href="#E1-MJCAL-4A" x="763" y="625"></use>
</g>
</g>
</svg>