<?xml version="1.0" standalone="no"?>
<!DOCTYPE svg PUBLIC "-//W3C//DTD SVG 1.1//EN" "http://www.w3.org/Graphics/SVG/1.1/DTD/svg11.dtd" >
<svg>
<metadata>
Created by FontForge 20090914 at Wed Nov  7 16:04:50 2012
 By www-data
Converted by Andrey V. Panov from TeX fonts
</metadata>
<defs>
<font id="CMUSansSerif-BoldOblique" horiz-adv-x="550" >
  <font-face 
    font-family="CMU Sans Serif"
    font-weight="700"
    font-style="oblique"
    font-stretch="normal"
    units-per-em="1000"
    panose-1="2 0 8 3 0 0 0 0 0 0"
    ascent="800"
    descent="-200"
    x-height="458"
    cap-height="694"
    bbox="-1263 -441.003 1544 1170"
    underline-thickness="50"
    underline-position="-100"
    slope="-12"
    unicode-range="U+0020-U+10147"
  />
<missing-glyph horiz-adv-x="760" 
d="M10 10v755h740v-755h-740zM70 112l276 276l-276 275v-551zM105 70h550l-275 276zM105 705l275 -276l275 276h-550zM414 388l276 -276v551z" />
    <glyph glyph-name="igrave" unicode="i&#x300;" horiz-adv-x="255" 
d="M68 37c0 3.33301 0.998047 9.99805 2.99805 19.998l77 361c3.33301 12.667 7.66602 22 12.999 28s9.83301 9.33301 13.5 10s10.834 1.33398 21.501 2.00098h42c30 0 45 -12 45 -36c0 -2.66699 -0.5 -6.5 -1.5 -11.5s-1.5 -7.83301 -1.5 -8.5l-77 -362
c-2.66699 -12.667 -7.16699 -22.167 -13.5 -28.5s-11.166 -9.66602 -14.499 -9.99902s-9.66602 -0.833008 -18.999 -1.5h-44c-29.333 -0 -44 12.333 -44 37zM102.998 664.998c0.666992 9.33301 7.33301 14 20 14h94c9.33301 -0.666992 16.5 -4.5 21.5 -11.5
s26.5 -44.5 64.5 -112.5l4 -10v-4c-2 -8.66699 -8 -13 -18 -13h-34c-7.33301 0 -16.333 5 -27 15l-77 72c-24 22 -38 35.167 -42 39.5s-6 7.83301 -6 10.5z" />
    <glyph glyph-name="iacute" unicode="i&#x301;" horiz-adv-x="255" 
d="M146 540c0 4.66699 9.99902 16.999 29.999 36.999c62.667 62.667 94.667 94.334 96 95.001c5.33301 4.66699 12 7 20 7h88c14 0 22.333 -3.33301 25 -10v-5c-0.666992 -3.33301 -4.16699 -7.33301 -10.5 -12s-29.166 -20 -68.499 -46l-98 -65
c-13.333 -8.66699 -24 -13 -32 -13h-29c-14 0 -21 4 -21 12zM67.999 36.999c0 3.33301 0.998047 9.99805 2.99805 19.998l77 361c3.33301 12.667 7.66602 22 12.999 28s9.83301 9.33301 13.5 10s10.834 1.33398 21.501 2.00098h42c30 0 45 -12 45 -36
c0 -2.66699 -0.5 -6.5 -1.5 -11.5s-1.5 -7.83301 -1.5 -8.5l-77 -362c-2.66699 -12.667 -7.16699 -22.167 -13.5 -28.5s-11.166 -9.66602 -14.499 -9.99902s-9.66602 -0.833008 -18.999 -1.5h-44c-29.333 0 -44 12.333 -44 37z" />
    <glyph glyph-name="icircumflex" unicode="i&#x302;" horiz-adv-x="255" 
d="M68 37c0 3.33301 0.998047 9.99805 2.99805 19.998l77 361c3.33301 12.667 7.66602 22 12.999 28s9.83301 9.33301 13.5 10s10.834 1.33398 21.501 2.00098h42c30 0 45 -12 45 -36c0 -2.66699 -0.5 -6.5 -1.5 -11.5s-1.5 -7.83301 -1.5 -8.5l-77 -362
c-2.66699 -12.667 -7.16699 -22.167 -13.5 -28.5s-11.166 -9.66602 -14.499 -9.99902s-9.66602 -0.833008 -18.999 -1.5h-44c-29.333 -0 -44 12.333 -44 37zM69.998 540.998c0 4.66699 5.33203 11.665 15.999 20.998c80.667 70.667 123.334 107.334 128.001 110.001
c5.33301 3.33301 11.666 5 18.999 5h74c6.66699 0 12 -2.16699 16 -6.5s16.333 -20.833 37 -49.5l43 -59c7.33301 -10.667 11 -18 11 -22c0 -2.66699 -0.333008 -4.66699 -1 -6s-2.16699 -2.5 -4.5 -3.5s-4.16602 -1.5 -5.49902 -1.5s-3.5 -0.166992 -6.5 -0.5
s-5.16699 -0.5 -6.5 -0.5h-25c-8 0 -15 2.16699 -21 6.5s-23 18.833 -51 43.5l-34 30l-34 -21.5l-27.5 -17.5l-20.5 -13.5c-6.66699 -4.33301 -12 -7.66602 -16 -9.99902l-11.5 -7c-3.66699 -2.33301 -6.66699 -4 -9 -5s-4.33301 -2 -6 -3s-3.5 -1.66699 -5.5 -2
s-3.66699 -0.5 -5 -0.5h-6h-23c-16.667 0 -25 4.33301 -25 13z" />
    <glyph glyph-name="idieresis" unicode="i&#x308;" horiz-adv-x="317" 
d="M99 37c0 3.33301 0.998047 9.99805 2.99805 19.998l77 361c3.33301 12.667 7.66602 22 12.999 28s9.83301 9.33301 13.5 10s10.834 1.33398 21.501 2.00098h42c30 0 45 -12 45 -36c0 -2.66699 -0.5 -6.5 -1.5 -11.5s-1.5 -7.83301 -1.5 -8.5l-77 -362
c-2.66699 -12.667 -7.16699 -22.167 -13.5 -28.5s-11.166 -9.66602 -14.499 -9.99902s-9.66602 -0.833008 -18.999 -1.5h-44c-29.333 -0 -44 12.333 -44 37zM105.998 589.998c0 4 3.66797 22.6689 11.001 56.002c4.66699 22 10.167 35.5 16.5 40.5s17.166 7.5 32.499 7.5h51
c29.333 0 44 -12.667 44 -38c0 -2.66699 -3.66699 -22.334 -11 -59.001c-3.33301 -14.667 -7.33301 -25.334 -12 -32.001s-9.16699 -10.5 -13.5 -11.5s-11.5 -1.5 -21.5 -1.5h-53c-29.333 0 -44 12.667 -44 38zM318.999 586c0 6 3.66895 26 11.002 60
c4.66699 22 10.167 35.5 16.5 40.5s17.166 7.5 32.499 7.5h52c17.333 0 29 -4 35 -12s9 -16 9 -24c0 -4.66699 -2.5 -19.5 -7.5 -44.5s-9.5 -40.167 -13.5 -45.5c-7.33301 -10.667 -20 -16 -38 -16h-52c-12.667 0 -22.834 3 -30.501 9s-12 11 -13 15s-1.5 7.33301 -1.5 10z
" />
    <glyph glyph-name="Aogonek" unicode="A&#x328;" horiz-adv-x="733" 
d="M47 22c0 4.66699 2.00098 10.998 6.00098 18.998l342 606c9.33301 16 19 27.833 29 35.5s24.667 11.5 44 11.5h90c14.667 0 26 -2.66699 34 -8s12.833 -11 14.5 -17s3.5 -14.667 5.5 -26l83 -594c0 -0.666992 0.166992 -2.33398 0.5 -5.00098s0.5 -5.33398 0.5 -8.00098
c0 -11.333 -2.66699 -19.666 -8 -24.999s-13 -9.16602 -23 -11.499s-17 -4.83301 -21 -7.5c-14.667 -9.33301 -28.5 -23.333 -41.5 -42s-19.5 -36.667 -19.5 -54c0 -4 1.66699 -10 5 -18c8 -6 17 -9 27 -9s22.167 2 36.5 6s23.166 6 26.499 6c14.667 0 22 -15 22 -45
c0 -11.333 -5.16699 -19.666 -15.5 -24.999s-30.833 -12.333 -61.5 -21c-23.333 -4.66699 -40.333 -7 -51 -7c-32 0 -55.167 8.5 -69.5 25.5s-21.5 35.833 -21.5 56.5c0 25.333 7.5 51.166 22.5 77.499s34.167 48.833 57.5 67.5l-10 16l-4 19l-10 70l-4 35h-286
c-6.66699 -11.333 -14.167 -24.833 -22.5 -40.5l-18.5 -34l-15 -25.5c-6 -10 -10.667 -16.833 -14 -20.5l-12 -13.5c-4.66699 -5.33301 -9.33398 -8.66602 -14.001 -9.99902s-9.66699 -2.66602 -15 -3.99902s-11.666 -2 -18.999 -2h-41c-19.333 -0 -29 7.33301 -29 22z
M296.001 236.998h225l-38 282l-4 50z" />
    <glyph glyph-name="imacron" unicode="i&#x304;" horiz-adv-x="255" 
d="M52 575c0 8.66699 3 26.333 9 53c2.66699 12 10.667 18 24 18h354c13.333 0 20 -5 20 -15l-10 -50c-2 -8.66699 -4.33301 -14 -7 -16s-7.66699 -3.33301 -15 -4h-356c-12.667 0 -19 4.66699 -19 14zM68 36.999c0 3.33301 0.998047 9.99805 2.99805 19.998l77 361
c3.33301 12.667 7.66602 22 12.999 28s9.83301 9.33301 13.5 10s10.834 1.33398 21.501 2.00098h42c30 0 45 -12 45 -36c0 -2.66699 -0.5 -6.5 -1.5 -11.5s-1.5 -7.83301 -1.5 -8.5l-77 -362c-2.66699 -12.667 -7.16699 -22.167 -13.5 -28.5
s-11.166 -9.66602 -14.499 -9.99902s-9.66602 -0.833008 -18.999 -1.5h-44c-29.333 0 -44 12.333 -44 37z" />
    <glyph glyph-name="ibreve" unicode="i&#x306;" horiz-adv-x="255" 
d="M71 625c0 12 3.66699 21.835 11 29.502s16 11.5 26 11.5c8.66699 0 18.334 -4.66699 29.001 -14c25.333 -3.33301 64 -5 116 -5h25h37.5c10.333 0 19.666 0.333008 27.999 1s14.333 1.16699 18 1.5s8 1.16602 13 2.49902s8 2.16602 9 2.49902s3.83301 1.83301 8.5 4.5
s7.66699 4.33398 9 5.00098c2.66699 1.33301 6.66699 2 12 2c10 0 18.5 -3.5 25.5 -10.5s10.5 -15.5 10.5 -25.5c0 -6 -1.33301 -12.667 -4 -20s-9.5 -15.833 -20.5 -25.5s-25.5 -16.834 -43.5 -21.501c-25.333 -6.66699 -63.333 -10 -114 -10h-33
c-21.333 0 -39.333 0.666992 -54 2s-31.5 4 -50.5 8s-33.5 11.333 -43.5 22s-15 24 -15 40zM68 37.002c0 3.33301 0.998047 9.99805 2.99805 19.998l77 361c3.33301 12.667 7.66602 22 12.999 28s9.83301 9.33301 13.5 10s10.834 1.33398 21.501 2.00098h42
c30 0 45 -12 45 -36c0 -2.66699 -0.5 -6.5 -1.5 -11.5s-1.5 -7.83301 -1.5 -8.5l-77 -362c-2.66699 -12.667 -7.16699 -22.167 -13.5 -28.5s-11.166 -9.66602 -14.499 -9.99902s-9.66602 -0.833008 -18.999 -1.5h-44c-29.333 0 -44 12.333 -44 37z" />
    <glyph glyph-name="IJ" unicode="IJ" horiz-adv-x="814" 
d="M69 37c0 6.66699 1.33301 16.002 4 28.002l124 583c4.66699 21.333 10.167 34.333 16.5 39s17.166 7 32.499 7h50c30.667 0 46 -12.333 46 -37c0 -3.33301 -1.66699 -12.666 -5 -27.999l-124 -584c-3.33301 -14.667 -7.66602 -25.334 -12.999 -32.001
s-10 -10.334 -14 -11.001s-11.333 -1.33398 -22 -2.00098h-50c-30 -0 -45 12.333 -45 37zM348 33.002c0 1.33301 11 30.668 33 88.001c4 12 9 18 15 18c3.33301 0 7.66602 -3.16699 12.999 -9.5s10.833 -13.333 16.5 -21s15.334 -14.667 29.001 -21s29.834 -9.5 48.501 -9.5
c22.667 0 43.5 4.5 62.5 13.5s32.5 21.833 40.5 38.5c3.33301 7.33301 6 16.333 8 27l105 495c4.66699 19.333 10.167 31.166 16.5 35.499s16.5 6.5 30.5 6.5h50c29.333 0 44 -12 44 -36c0 -0.666992 -1 -7 -3 -19l-106 -501c-10 -38.667 -27.667 -70.5 -53 -95.5
s-52 -42 -80 -51s-58 -13.5 -90 -13.5c-40.667 0 -80.834 6.33301 -120.501 19s-59.5 24.667 -59.5 36z" />
    <glyph glyph-name="ij" unicode="ij" horiz-adv-x="592" 
d="M76 37c0 3.33301 0.998047 9.99805 2.99805 19.998l77 361c3.33301 12.667 7.66602 22 12.999 28s9.83301 9.33301 13.5 10s10.834 1.33398 21.501 2.00098h42c30 0 45 -12 45 -36c0 -2.66699 -0.5 -6.5 -1.5 -11.5s-1.5 -7.83301 -1.5 -8.5l-77 -362
c-2.66699 -12.667 -7.16699 -22.167 -13.5 -28.5s-11.166 -9.66602 -14.499 -9.99902s-9.66602 -0.833008 -18.999 -1.5h-44c-29.333 -0 -44 12.333 -44 37zM194.998 616.998c0 4.66699 2.5 19.166 7.5 43.499s8.83301 38.833 11.5 43.5
c6.66699 11.333 20.667 17.666 42 18.999h51c29.333 0 44 -12 44 -36c0 -4.66699 -2.5 -19.5 -7.5 -44.5s-9.16699 -40.167 -12.5 -45.5c-2 -3.33301 -4.33301 -6.16602 -7 -8.49902s-5.66699 -4 -9 -5s-5.83301 -1.66699 -7.5 -2s-4.5 -0.666016 -8.5 -0.999023
s-6.33301 -0.5 -7 -0.5h-53c-17.333 0 -29 4.16699 -35 12.5s-9 16.5 -9 24.5zM216.998 -158.003c0 4 6.33594 18.999 19.0029 44.999c4 6.66699 9 11 15 13c0.666992 0 8.16699 -3.33301 22.5 -10s29.166 -10 44.499 -10c9.33301 0 17.833 0.833008 25.5 2.5
s14.167 5 19.5 10l13 12c3.33301 3 6.33301 9.16699 9 18.5l5.5 19c1 3.33301 2.66699 10.833 5 22.5s3.83301 18.834 4.5 21.501l92 434c1.33301 4.66699 2.83301 9 4.5 13s3 7.33301 4 10s2.83301 4.83398 5.5 6.50098s4.66699 3 6 4s3.66602 1.83301 6.99902 2.5
s5.33301 1 6 1s3 0.333008 7 1h7h47c14 0 24.333 -3.83301 31 -11.5s10 -15.834 10 -24.501c0 -2 -0.166992 -3.83301 -0.5 -5.5s-0.833008 -3.66699 -1.5 -6s-1 -4.16602 -1 -5.49902l-88 -417l-6 -28.5c-1.33301 -6.33301 -4.5 -17.333 -9.5 -33
s-10.167 -28.334 -15.5 -38.001s-12.833 -21.167 -22.5 -34.5s-20.334 -23.833 -32.001 -31.5s-26.167 -14.334 -43.5 -20.001s-36.333 -8.5 -57 -8.5c-26.667 0 -55.5 5.33301 -86.5 16s-46.5 21.334 -46.5 32.001zM526.001 613.996c0 4 3.99707 24.335 11.9971 61.002
c4.66699 21.333 10.334 34.666 17.001 39.999s17.334 8 32.001 8h51c12 0 21.667 -2.5 29 -7.5s11.833 -9.83301 13.5 -14.5s2.5 -9.33398 2.5 -14.001s-2.5 -19.5 -7.5 -44.5s-9.5 -40.167 -13.5 -45.5c-8 -11.333 -21 -17 -39 -17h-52c-12.667 0 -22.667 2.83301 -30 8.5
s-11.666 10.667 -12.999 15s-2 7.83301 -2 10.5z" />
    <glyph glyph-name="jcircumflex" unicode="j&#x302;" horiz-adv-x="286" 
d="M101 541c0 5.33301 3.66602 11.002 10.999 17.002c84 73.333 128.333 111.333 133 114c5.33301 3.33301 11.666 5 18.999 5h73c6.66699 0 13.167 -3.5 19.5 -10.5s19.833 -24.5 40.5 -52.5l37 -52c7.33301 -10.667 11 -18 11 -22c0 -2.66699 -0.5 -4.83398 -1.5 -6.50098
s-2.5 -2.83398 -4.5 -3.50098s-3.66699 -1 -5 -1s-3.66602 -0.166992 -6.99902 -0.5s-5.66602 -0.5 -6.99902 -0.5h-25c-8 0 -15 2.16699 -21 6.5s-23 18.833 -51 43.5l-34 30l-61 -39c-32 -20.667 -51.333 -32.667 -58 -36s-14 -5 -22 -5h-23c-16 0 -24 4.33301 -24 13z
M-103.001 -157.998c0 4.66699 4.83398 15.499 14.501 32.499s17.5 25.5 23.5 25.5c2 0 10.167 -3.33301 24.5 -10s29.166 -10 44.499 -10c8.66699 0 16.5 1 23.5 3s12.833 4 17.5 6s9.16699 5.83301 13.5 11.5l9.5 12.5c2 2.66699 4.33301 8.16699 7 16.5
s4.33398 14 5.00098 17s2 9.83301 4 20.5s3.33301 17 4 19l92 434c1.33301 4.66699 2.83301 9 4.5 13s3 7.33301 4 10s2.83301 4.83398 5.5 6.50098s4.66699 3 6 4s3.66602 1.83301 6.99902 2.5s5.33301 1 6 1s3 0.333008 7 1h7h47c14 0 24.333 -3.83301 31 -11.5
s10 -15.834 10 -24.501c0 -2 -0.166992 -3.83301 -0.5 -5.5s-0.833008 -3.66699 -1.5 -6s-1 -4.16602 -1 -5.49902l-93 -440c-12.667 -52 -33 -93.5 -61 -124.5s-69.333 -46.5 -124 -46.5c-31.333 0 -62 5.5 -92 16.5s-45 21.5 -45 31.5z" />
    <glyph glyph-name="uni01D0" unicode="i&#x30c;" horiz-adv-x="255" 
d="M81 653c0.666992 8.66699 7.33398 13.001 20.001 13.001h25c14 -0.666992 37.333 -3.33398 70 -8.00098s50.334 -7 53.001 -7c6 0 24 2.5 54 7.5s61.333 7.5 94 7.5h7c10 0 16.667 -3 20 -9v-3c-0.666992 -4 -1.33398 -6.5 -2.00098 -7.5s-5.16699 -3 -13.5 -6
s-20.833 -6.16699 -37.5 -9.5s-42.334 -8 -77.001 -14h-74l-20 1c-72.667 15.333 -110.667 24.333 -114 27c-2 1.33301 -3.66699 4 -5 8zM68 37.001c0 3.33301 0.998047 9.99805 2.99805 19.998l77 361c3.33301 12.667 7.66602 22 12.999 28s9.83301 9.33301 13.5 10
s10.834 1.33398 21.501 2.00098h42c30 0 45 -12 45 -36c0 -2.66699 -0.5 -6.5 -1.5 -11.5s-1.5 -7.83301 -1.5 -8.5l-77 -362c-2.66699 -12.667 -7.16699 -22.167 -13.5 -28.5s-11.166 -9.66602 -14.499 -9.99902s-9.66602 -0.833008 -18.999 -1.5h-44
c-29.333 0 -44 12.333 -44 37z" />
    <glyph glyph-name="uni01F0" unicode="j&#x30c;" horiz-adv-x="286" 
d="M113 653c0.666992 8.66699 7.33398 13.001 20.001 13.001h25c14 -0.666992 37.333 -3.33398 70 -8.00098s50.334 -7 53.001 -7c6 0 24 2.5 54 7.5s61.333 7.5 94 7.5h7c10 0 16.667 -3 20 -9v-3c-0.666992 -4 -1.33398 -6.5 -2.00098 -7.5s-5.16699 -3 -13.5 -6
s-20.833 -6.16699 -37.5 -9.5s-42.334 -8 -77.001 -14h-74l-20 1c-72.667 15.333 -110.667 24.333 -114 27c-2 1.33301 -3.66699 4 -5 8zM-103 -157.999c0 4.66699 4.83398 15.499 14.501 32.499s17.5 25.5 23.5 25.5c2 0 10.167 -3.33301 24.5 -10s29.166 -10 44.499 -10
c8.66699 0 16.5 1 23.5 3s12.833 4 17.5 6s9.16699 5.83301 13.5 11.5l9.5 12.5c2 2.66699 4.33301 8.16699 7 16.5s4.33398 14 5.00098 17s2 9.83301 4 20.5s3.33301 17 4 19l92 434c1.33301 4.66699 2.83301 9 4.5 13s3 7.33301 4 10s2.83301 4.83398 5.5 6.50098
s4.66699 3 6 4s3.66602 1.83301 6.99902 2.5s5.33301 1 6 1s3 0.333008 7 1h7h47c14 0 24.333 -3.83301 31 -11.5s10 -15.834 10 -24.501c0 -2 -0.166992 -3.83301 -0.5 -5.5s-0.833008 -3.66699 -1.5 -6s-1 -4.16602 -1 -5.49902l-93 -440
c-12.667 -52 -33 -93.5 -61 -124.5s-69.333 -46.5 -124 -46.5c-31.333 0 -62 5.5 -92 16.5s-45 21.5 -45 31.5z" />
    <glyph glyph-name="uni0410_acutecomb" unicode="&#x410;&#x301;" horiz-adv-x="733" 
d="M47 22c0 5.33301 7.33398 21.002 22.001 47.002l326 578c10 17.333 20.333 29.5 31 36.5s25 10.5 43 10.5h88c12 0 21.667 -1.33301 29 -4s12.666 -7.5 15.999 -14.5s5.5 -12.333 6.5 -16s2.16699 -10.834 3.5 -21.501l83 -592c0 -1.33301 0.166992 -3.33301 0.5 -6
s0.5 -4.66699 0.5 -6c0 -22.667 -13.333 -34 -40 -34h-56c-6 0 -11.167 0.333008 -15.5 1s-8.33301 1.5 -12 2.5s-6.83398 3 -9.50098 6l-7 8c-2 2.33301 -3.66699 6.16602 -5 11.499l-3.5 14.5c-1 4.33301 -2.16699 11 -3.5 20l-3.5 23.5
c-1 6.66699 -2.16699 16.334 -3.5 29.001s-2.66602 24 -3.99902 34h-286l-22.5 -41l-18.5 -34l-14.5 -25.5c-5.66699 -9.66699 -10.167 -16.5 -13.5 -20.5s-7.33301 -8.33301 -12 -13s-9.33398 -7.83398 -14.001 -9.50098s-9.66699 -3.16699 -15 -4.5s-11.666 -2 -18.999 -2
h-42c-19.333 -0 -29 7.33301 -29 22zM296.001 237.002h225l-38 282l-4 50zM397.001 775.002l-0.00195312 1c0.666992 4.66699 6.33398 11 17.001 19l45 30l66 43c10 6.66699 19.333 10 28 10h141c13.333 0 20 -4.33301 20 -13c0 -4.66699 -3.66699 -9 -11 -13l-198 -78
c-17.333 -6.66699 -30.666 -10 -39.999 -10h-44c-14.667 0 -22.667 3.66699 -24 11z" />
    <glyph glyph-name="ff" unicode="ff" horiz-adv-x="642" 
d="M93 36c0 0.666992 24.334 116.995 73.001 348.995c-30.667 0 -46 12.333 -46 37c0 24 15.333 36 46 36h17c1.33301 5.33301 4.16602 19.5 8.49902 42.5s7.5 38.833 9.5 47.5s6.5 23.334 13.5 44.001s13.833 35.834 20.5 45.501s16.334 21.834 29.001 36.501
s26.5 25.334 41.5 32.001s33.667 12.834 56 18.501s46.833 8.5 73.5 8.5c64 0 96 -8.66699 96 -26c0 -2 -4 -21.333 -12 -58c-3.33301 -16 -8.33301 -24.667 -15 -26h-3l-7 2c-18 23.333 -41.333 35 -70 35c-8 0 -15.167 -0.666992 -21.5 -2s-12 -2.83301 -17 -4.5
s-9.66699 -4.66699 -14 -9s-8 -8.16602 -11 -11.499s-6 -9 -9 -17s-5.5 -15 -7.5 -21s-4.33301 -15 -7 -27s-4.83398 -22.167 -6.50098 -30.5l-7.5 -37l-9 -42.5h46c29.333 0 44 -12 44 -36c0 -4.66699 -0.666992 -9.33398 -2 -14.001s-5.66602 -9.66699 -12.999 -15
s-17 -8 -29 -8h-58l-74 -345c-2 -8.66699 -4 -15.334 -6 -20.001s-6.33301 -9.16699 -13 -13.5s-15.334 -6.5 -26.001 -6.5h-45c-12 0 -21.667 2.5 -29 7.5s-11.833 9.83301 -13.5 14.5s-2.5 9.33398 -2.5 14.001zM399.001 35.9951c0 4 0.665039 10.667 1.99805 20l78 364
c23.333 106.667 35.666 161.667 36.999 165c30.667 98.667 105.667 148 225 148c29.333 0 56 -3 80 -9c10 -2.66699 15 -8.33398 15 -17.001c0 -2 -3.66699 -21.333 -11 -58c-3.33301 -15.333 -8.66602 -24 -15.999 -26h-3l-7 2c-6 7.33301 -11 13 -15 17s-10.667 8 -20 12
s-20.666 6 -33.999 6c-33.333 0 -56.333 -12 -69 -36c-8.66699 -16 -20.667 -61 -36 -135c-2 -11.333 -4 -21.666 -6 -30.999h46c29.333 0 44 -12 44 -36c0 -4.66699 -0.666992 -9.33398 -2 -14.001s-5.66602 -9.66699 -12.999 -15s-17 -8 -29 -8h-58l-74 -344
c-3.33301 -16 -8.33301 -26.833 -15 -32.5s-17 -8.5 -31 -8.5h-45c-16 0 -27.167 3.83301 -33.5 11.5s-9.5 15.834 -9.5 24.501z" />
    <glyph glyph-name="fi" unicode="fi" horiz-adv-x="586" 
d="M93 36c0 0.666992 24.3359 117.004 73.0029 349.004c-31.333 0 -47 12.333 -47 37c0 24 15.333 36 46 36h18c1.33301 6.66699 3.5 18.167 6.5 34.5s5.5 28.833 7.5 37.5s5 20.667 9 36s7.83301 27.666 11.5 36.999s8.66699 20.666 15 33.999s12.833 23.833 19.5 31.5
s15.167 16.167 25.5 25.5s21.333 16.5 33 21.5s25 9.16699 40 12.5s31.5 5 49.5 5h1c48 0 72 -8.66699 72 -26c0 -0.666992 -0.833008 -5.16699 -2.5 -13.5l-6.5 -31c-2.66699 -12.333 -4.66699 -21.833 -6 -28.5c-2 -6.66699 -4.66699 -11.667 -8 -15
c-1.33301 -0.666992 -3.33301 -1 -6 -1c-4 0 -7.33301 2.16699 -10 6.5s-4.83398 9.16602 -6.50098 14.499s-5.33398 10.166 -11.001 14.499s-13.5 6.5 -23.5 6.5c-17.333 0 -30 -10 -38 -30s-18 -60 -30 -120l-11 -52h54c17.333 0 29 -4 35 -12s9 -16 9 -24
c0 -4.66699 -0.833008 -9.5 -2.5 -14.5s-6 -10 -13 -15s-16.5 -7.5 -28.5 -7.5h-66l-74 -345c-2 -8.66699 -4 -15.334 -6 -20.001s-6.33301 -9.16699 -13 -13.5s-15.334 -6.5 -26.001 -6.5h-45c-12 0 -21.667 2.5 -29 7.5s-11.833 9.83301 -13.5 14.5
s-2.5 9.33398 -2.5 14.001zM398.003 37.0039c0 3.33301 0.998047 9.99805 2.99805 19.998l77 361c3.33301 12.667 7.66602 22 12.999 28s9.83301 9.33301 13.5 10s10.834 1.33398 21.501 2.00098h42c30 0 45 -12 45 -36c0 -2.66699 -0.5 -6.5 -1.5 -11.5
s-1.5 -7.83301 -1.5 -8.5l-77 -362c-2.66699 -12.667 -7.16699 -22.167 -13.5 -28.5s-11.166 -9.66602 -14.499 -9.99902s-9.66602 -0.833008 -18.999 -1.5h-44c-29.333 0 -44 12.333 -44 37zM521.001 624.002c0 2.66699 3.33008 19.668 9.99707 51.001
c4.66699 21.333 10.334 34.666 17.001 39.999s17.334 8 32.001 8h42c12 0 20.5 -0.833008 25.5 -2.5s10.5 -6.16699 16.5 -13.5c4.66699 -8 7 -15 7 -21c0 -3.33301 -2.16699 -16 -6.5 -38s-8.16602 -36 -11.499 -42c-6.66699 -12 -20 -18.667 -40 -20h-45
c-31.333 0 -47 12.667 -47 38z" />
    <glyph glyph-name="fl" unicode="fl" horiz-adv-x="586" 
d="M93 36c0 0.666992 24.333 117.001 73 349.001c-31.333 0 -47 12.333 -47 37c0 24 15.333 36 46 36h18c1.33301 6 4 19.667 8 41s7.16699 36.833 9.5 46.5s6.5 24.5 12.5 44.5s12 35.167 18 45.5s14.5 22.666 25.5 36.999s23 25.166 36 32.499s28.833 13.833 47.5 19.5
s39 8.5 61 8.5c48 0 72 -9 72 -27c0 -2 -0.333008 -4.66699 -1 -8s-2.16699 -9.66602 -4.5 -18.999s-4.5 -19.333 -6.5 -30c-3.33301 -16 -8.33301 -24.667 -15 -26h-3l-7 2c-4 8 -7 13.667 -9 17s-6.16699 7.16602 -12.5 11.499s-13.5 6.5 -21.5 6.5
c-19.333 0 -34 -14.667 -44 -44c-3.33301 -10.667 -14.666 -62 -33.999 -154c-0.666992 -1.33301 -1 -2.66602 -1 -3.99902h54c17.333 0 29 -4 35 -12s9 -16 9 -24c0 -4.66699 -0.833008 -9.5 -2.5 -14.5s-6 -10 -13 -15s-16.5 -7.5 -28.5 -7.5h-66l-74 -345
c-2 -8.66699 -3.83301 -15.167 -5.5 -19.5s-5.83398 -8.83301 -12.501 -13.5s-15.667 -7 -27 -7h-46c-29.333 0 -44 12 -44 36zM399 36.001c0 3.33301 0.671875 8.99902 2.00488 16.999l132 623c3.33301 14.667 7.5 25.5 12.5 32.5s9.66699 11 14 12s11.166 1.5 20.499 1.5
h49c13.333 0 23.333 -3.5 30 -10.5s10 -15.5 10 -25.5c0 -4 -0.666992 -9.33301 -2 -16l-132 -624c-2.66699 -11.333 -5.33398 -20.166 -8.00098 -26.499s-6.83398 -10.833 -12.501 -13.5s-9.83398 -4.16699 -12.501 -4.5s-8.33398 -0.833008 -17.001 -1.5h-42
c-29.333 0 -44 12 -44 36z" />
    <glyph glyph-name="ffi" unicode="ffi" horiz-adv-x="891" 
d="M93 36c0 0.666992 24.334 116.999 73.001 348.999c-31.333 0 -47 12.333 -47 37c0 24 15.333 36 46 36h18c1.33301 5.33301 4.16602 19.5 8.49902 42.5s7.5 38.833 9.5 47.5s6.33301 23.5 13 44.5s13.167 36.167 19.5 45.5s15.333 21.333 27 36s24.5 25.5 38.5 32.5
s31 13.167 51 18.5s42.333 8 67 8c39.333 0 65.333 -4.66699 78 -14c3.33301 -2.66699 5 -6.66699 5 -12c0 -2 -4 -21.333 -12 -58c-3.33301 -16 -8.33301 -24.667 -15 -26h-3l-7 2c-4.66699 8 -8.66699 14 -12 18s-8.83301 7.83301 -16.5 11.5s-16.5 5.5 -26.5 5.5
c-6.66699 0 -12.834 -0.666992 -18.501 -2s-10.667 -4 -15 -8s-8.16602 -7.83301 -11.499 -11.5s-6.66602 -9.5 -9.99902 -17.5s-6 -15.167 -8 -21.5s-4.5 -15.666 -7.5 -27.999s-5.33301 -23 -7 -32s-4.16699 -21.833 -7.5 -38.5s-6.33301 -31 -9 -43h54
c17.333 0 29 -4 35 -12s9 -16 9 -24c0 -4.66699 -0.833008 -9.5 -2.5 -14.5s-6 -10 -13 -15s-16.5 -7.5 -28.5 -7.5h-66l-74 -345c-2 -8.66699 -4 -15.334 -6 -20.001s-6.33301 -9.16699 -13 -13.5s-15.334 -6.5 -26.001 -6.5h-45c-12 0 -21.667 2.5 -29 7.5
s-11.833 9.83301 -13.5 14.5s-2.5 9.33398 -2.5 14.001zM399.001 35.999c0 6.66699 0.998047 13.6699 2.99805 21.0029l77 363l11.5 56c5.66699 27.333 9.83398 46.666 12.501 57.999s7.33398 28.333 14.001 51s13 39.167 19 49.5s14.667 23.166 26 38.499
s23.333 26.5 36 33.5s28.334 13.167 47.001 18.5s39.334 8 62.001 8c48 0 72 -7.66699 72 -23c0 -4 -2.16699 -16.5 -6.5 -37.5s-7.83301 -35.5 -10.5 -43.5c-2 -3.33301 -4.66699 -6 -8 -8h-4c-4 1.33301 -7.5 4.16602 -10.5 8.49902s-5.5 8.66602 -7.5 12.999
s-5.83301 8.33301 -11.5 12s-12.834 5.5 -21.501 5.5c-18 0 -31.167 -10.5 -39.5 -31.5s-18.5 -61.167 -30.5 -120.5c-4 -21.333 -7.33301 -38 -10 -50h55c17.333 0 29 -4 35 -12s9 -16 9 -24c0 -4.66699 -0.833008 -9.5 -2.5 -14.5s-6 -10 -13 -15s-16.5 -7.5 -28.5 -7.5
h-67l-74 -346c-2.66699 -13.333 -6.83398 -23.166 -12.501 -29.499s-16.167 -9.5 -31.5 -9.5h-45c-30 0 -45 12 -45 36zM702.999 37.002c0 3.33301 0.998047 9.99805 2.99805 19.998l77 361c3.33301 12.667 7.66602 22 12.999 28s9.83301 9.33301 13.5 10
s10.834 1.33398 21.501 2.00098h42c30 0 45 -12 45 -36c0 -2.66699 -0.5 -6.5 -1.5 -11.5s-1.5 -7.83301 -1.5 -8.5l-77 -362c-2.66699 -12.667 -7.16699 -22.167 -13.5 -28.5s-11.166 -9.66602 -14.499 -9.99902s-9.66602 -0.833008 -18.999 -1.5h-44
c-29.333 0 -44 12.333 -44 37zM826.997 624c0 2.66699 3.33008 19.668 9.99707 51.001c4.66699 21.333 10.334 34.666 17.001 39.999s17.334 8 32.001 8h41c12 0 20.5 -0.833008 25.5 -2.5s10.5 -6.16699 16.5 -13.5c4.66699 -8 7 -15 7 -21
c0 -3.33301 -2.16699 -16 -6.5 -38s-8.16602 -36 -11.499 -42c-6.66699 -12 -20 -18.667 -40 -20h-45c-30.667 0 -46 12.667 -46 38z" />
    <glyph glyph-name="ffl" unicode="ffl" horiz-adv-x="891" 
d="M93 36c0 0.666992 24.334 116.998 73.001 348.998c-31.333 0 -47 12.333 -47 37c0 24 15.333 36 46 36h18c1.33301 5.33301 4.16602 19.5 8.49902 42.5s7.5 38.833 9.5 47.5s6.33301 23.5 13 44.5s13.167 36.167 19.5 45.5s15.333 21.333 27 36s24.5 25.5 38.5 32.5
s31 13.167 51 18.5s42.333 8 67 8c39.333 0 65.333 -4.66699 78 -14c3.33301 -2.66699 5 -6.66699 5 -12c0 -2 -4 -21.333 -12 -58c-3.33301 -16 -8.33301 -24.667 -15 -26h-3l-7 2c-4.66699 8 -8.66699 14 -12 18s-8.83301 7.83301 -16.5 11.5s-16.5 5.5 -26.5 5.5
c-6.66699 0 -12.834 -0.666992 -18.501 -2s-10.667 -4 -15 -8s-8.16602 -7.83301 -11.499 -11.5s-6.66602 -9.5 -9.99902 -17.5s-6 -15.167 -8 -21.5s-4.5 -15.666 -7.5 -27.999s-5.33301 -23 -7 -32s-4.16699 -21.833 -7.5 -38.5s-6.33301 -31 -9 -43h54
c17.333 0 29 -4 35 -12s9 -16 9 -24c0 -4.66699 -0.833008 -9.5 -2.5 -14.5s-6 -10 -13 -15s-16.5 -7.5 -28.5 -7.5h-66l-74 -345c-2 -8.66699 -3.83301 -15.167 -5.5 -19.5s-5.83398 -8.83301 -12.501 -13.5s-15.667 -7 -27 -7h-45c-12 0 -21.667 2.5 -29 7.5
s-11.833 9.83301 -13.5 14.5s-2.5 9.33398 -2.5 14.001zM399.001 35.998c0 4.66699 0.666016 11.0029 1.99902 19.0029l78 365c3.33301 14.667 7 31.667 11 51l9 42.5l7 32c2.66699 12.333 4.66699 21.166 6 26.499s3 11.666 5 18.999s4 13.166 6 17.499l6 13.5
c2 4.66699 4.33301 9.33398 7 14.001c34 64.667 90.333 97 169 97c48.667 0 73 -8.66699 73 -26c0 -3.33301 -2.33301 -16.333 -7 -39s-8.33398 -36 -11.001 -40l-5 -4c-4 -1.33301 -8.33301 -1 -13 1c-4 8 -7 13.667 -9 17s-6.16699 7.16602 -12.5 11.499
s-13.5 6.5 -21.5 6.5c-19.333 0 -34 -14.667 -44 -44c-4.66699 -12 -16.667 -64.667 -36 -158h55c17.333 0 29 -4 35 -12s9 -16 9 -24c0 -4.66699 -0.833008 -9.5 -2.5 -14.5s-6 -10 -13 -15s-16.5 -7.5 -28.5 -7.5h-67l-73 -345
c-3.33301 -16.667 -8.66602 -27.5 -15.999 -32.5s-17.666 -7.5 -30.999 -7.5h-45c-16.667 0 -28 4 -34 12s-9 16 -9 24zM704 36.001c0 3.33301 0.669922 8.99805 2.00293 16.998l133 623c3.33301 14.667 7.5 25.5 12.5 32.5s9.66699 11 14 12s11.166 1.5 20.499 1.5h48
c13.333 0 23.5 -3.66699 30.5 -11s10.5 -15.666 10.5 -24.999c0 -4 -0.666992 -9.33301 -2 -16l-133 -624c-2.66699 -11.333 -5.33398 -20.166 -8.00098 -26.499s-6.66699 -10.833 -12 -13.5s-9.33301 -4.16699 -12 -4.5s-8.33398 -0.833008 -17.001 -1.5h-43
c-29.333 0 -44 12 -44 36z" />
    <glyph glyph-name=".notdef" horiz-adv-x="760" 
d="M10 10v755h740v-755h-740zM70 112l276 276l-276 275v-551zM105 70h550l-275 276zM105 705l275 -276l275 276h-550zM414 388l276 -276v551z" />
    <glyph glyph-name="space" unicode=" " horiz-adv-x="367" 
 />
    <glyph glyph-name="exclam" unicode="!" horiz-adv-x="367" 
d="M125 36c0 4.66699 0.331055 8.66699 0.998047 12l12 50c5.33301 22 20.333 33 45 33h44c14.667 0 25.167 -3.83301 31.5 -11.5s9.5 -16.167 9.5 -25.5c0 -2.66699 -0.666992 -7.33398 -2 -14.001l-9 -42c-3.33301 -15.333 -8.66602 -25.5 -15.999 -30.5
s-17.333 -7.5 -30 -7.5h-41c-12.667 0 -22.667 2.5 -30 7.5s-11.666 9.83301 -12.999 14.5s-2 9.33398 -2 14.001zM174.998 210c0 2 0.666992 5.83301 2 11.5s2 9.5 2 11.5l87 469c2.66699 13.333 10.667 20 24 20h86c14.667 0 22 -4.66699 22 -14
c0 -2 -0.666992 -5.83301 -2 -11.5s-2 -9.5 -2 -11.5l-113 -470c-2 -8.66699 -4.5 -14 -7.5 -16s-8.16699 -3.33301 -15.5 -4h-60c-15.333 0 -23 5 -23 15z" />
    <glyph glyph-name="quotedbl" unicode="&#x22;" 
d="M230 394c0 1.33301 0.166016 3.66602 0.499023 6.99902s0.5 6 0.5 8l32 283c0 1.33301 0.333008 4.5 1 9.5s1.33398 8 2.00098 9l3.5 5.5c1.66699 2.66699 4 4.33398 7 5.00098s6.83301 1 11.5 1h87c11.333 0 19.666 -3 24.999 -9c0.666992 -4 0 -9.66699 -2 -17
l-88 -281c-0.666992 -2.66699 -2.16699 -8 -4.5 -16s-4.5 -14 -6.5 -18c-5.33301 -2 -12.666 -3 -21.999 -3h-26c-14 0 -21 5.33301 -21 16zM413.999 395c0 5.33301 0.332031 9.66602 0.999023 12.999l33 289c1.33301 10.667 4 18 8 22c3.33301 2 8.33301 3 15 3h92
c14.667 0 22 -4.66699 22 -14c0 -2 -0.666992 -4.66699 -2 -8s-2 -5.33301 -2 -6l-92 -298c-2.66699 -7.33301 -5.66699 -12.166 -9 -14.499s-8.66602 -3.5 -15.999 -3.5h-25c-10 0.666992 -16.667 2 -20 4s-5 6.33301 -5 13z" />
    <glyph glyph-name="numbersign" unicode="#" horiz-adv-x="916" 
d="M89 135c0 10 3.16602 18.0029 9.49902 24.0029s13.166 9.66699 20.499 11c4 0.666992 10 1 18 1h176l76 158h-206c-30 0 -45 12 -45 36s15.667 36 47 36h239l139 286c11.333 23.333 24.666 35 39.999 35c10 0 18.5 -3.83301 25.5 -11.5s10.5 -15.834 10.5 -24.501
c0 -6 -3 -15.667 -9 -29l-125 -256h158l139 286c4 7.33301 6.83301 12.666 8.5 15.999s5.5 7.33301 11.5 12s12.667 7 20 7c10 0 18.333 -3.66699 25 -11s10 -15.666 10 -24.999c0 -6 -3 -15.667 -9 -29l-124 -256h136c13.333 0 21.333 -0.333008 24 -1
c18.667 -4.66699 28 -16.334 28 -35.001c0 -9.33301 -3.16699 -17.166 -9.5 -23.499s-13.166 -10.166 -20.499 -11.499c-4 -0.666992 -10 -1 -18 -1h-176l-75 -158h216c10 -0.666992 18.167 -4.5 24.5 -11.5s9.5 -15.167 9.5 -24.5c0 -24 -15.667 -36 -47 -36h-239
l-139 -287c-11.333 -22.667 -24.666 -34 -39.999 -34c-10 0 -18.5 3.66699 -25.5 11s-10.5 15.666 -10.5 24.999c0 5.33301 3 14.666 9 27.999l125 257h-158l-139 -287c-11.333 -22.667 -24.666 -34 -39.999 -34c-10 0 -18.333 3.66699 -25 11s-10 15.666 -10 24.999
c0 6.66699 2.66699 16 8 28l125 257h-137c-12 0 -19.333 0.333008 -22 1c-8 2 -14.833 6.33301 -20.5 13s-8.5 14 -8.5 22zM393.999 171.003h158l75 158h-158z" />
    <glyph glyph-name="dollar" unicode="$" 
d="M65 75c0 4.66699 5.6709 21.8311 17.0039 51.498s20 44.5 26 44.5c3.33301 0 10.166 -5.33301 20.499 -16s26.666 -22.667 48.999 -36s48.833 -22.333 79.5 -27l47 220c-42.667 11.333 -74.667 29.333 -96 54c-27.333 31.333 -41 69.333 -41 114
c0 11.333 1.16699 24.833 3.5 40.5s8.16602 35.667 17.499 60s21.666 46.5 36.999 66.5s37.833 38.333 67.5 55s63.834 26.667 102.501 30c9.33301 12 19.666 18 30.999 18s21.666 -6 30.999 -18c36 -3.33301 68.667 -12 98 -26s47.333 -27.333 54 -40v-5
c-17.333 -60 -31.333 -90 -42 -90c-4 0 -10 4 -18 12s-20.667 17 -38 27s-39 17 -65 21l-41 -192c46 -10 79.833 -31.667 101.5 -65s32.5 -70.333 32.5 -111c0 -18 -2.5 -37.833 -7.5 -59.5s-12.5 -44.667 -22.5 -69s-24.667 -47.333 -44 -69s-41.333 -38.5 -66 -50.5
c-26.667 -12.667 -57 -21 -91 -25c-9.33301 -11.333 -20 -17 -32 -17c-11.333 0 -21.666 5.66699 -30.999 17c-62 4.66699 -116 25.334 -162 62.001c-11.333 8.66699 -17.333 16.334 -18 23.001zM289.004 521.997c0 -29.333 15 -50.999 45 -64.999l37 172
c-29.333 -8.66699 -50.333 -23.334 -63 -44.001s-19 -41.667 -19 -63zM332.004 94.998c20.667 6 37.833 17.501 51.5 34.501s22.667 33.167 27 48.5s6.5 29.666 6.5 42.999c0 31.333 -14.333 55.333 -43 72z" />
    <glyph glyph-name="percent" unicode="%" horiz-adv-x="1029" 
d="M171 494c0 15.333 1.33496 32.166 4.00195 50.499s8.83398 40.333 18.501 66s22.334 48.334 38.001 68.001s38 36.5 67 50.5s62.5 21 100.5 21c42 0 77.167 -10 105.5 -30s42.5 -54 42.5 -102c0 -16.667 -1.33301 -34.167 -4 -52.5s-8.83398 -40.333 -18.501 -66
s-22.334 -48.167 -38.001 -67.5s-37.834 -36 -66.501 -50s-61.667 -21 -99 -21c-48.667 0 -85.834 11.333 -111.501 34s-38.5 55.667 -38.5 99zM204.002 15c0 9.33301 3 17.835 9 25.502s26 28.167 60 61.5l50 50l576 577c14 14 26.667 21 38 21c12 0 22 -4.33301 30 -13
s12 -18.334 12 -29.001c0 -8.66699 -3.66699 -17.5 -11 -26.5s-30.333 -32.833 -69 -71.5l-75 -75l-540 -541c-14 -14 -27 -21 -39 -21s-21.833 4.16699 -29.5 12.5s-11.5 18.166 -11.5 29.499zM287.002 481.002c0 -31.333 15 -46.999 45 -46.999c19.333 0 36 7.66699 50 23
s24.5 34 31.5 56s12 41.833 15 59.5s4.5 32.5 4.5 44.5c0 40 -15 60 -45 60c-38.667 0 -66 -28.667 -82 -86c-4 -14.667 -9.66699 -42.334 -17 -83.001c-1.33301 -12 -2 -21 -2 -27zM633.002 105.003c0 16 1.33301 33.168 4 51.501s9 40.166 19 65.499
s22.667 47.833 38 67.5s37.5 36.5 66.5 50.5s62.5 21 100.5 21c48 0 84.667 -11.333 110 -34s38 -55.334 38 -98.001c0 -16.667 -1.5 -34.5 -4.5 -53.5s-9.33301 -41.167 -19 -66.5s-22.334 -47.666 -38.001 -66.999s-37.667 -35.833 -66 -49.5s-61.166 -20.5 -98.499 -20.5
c-26.667 0 -50.5 3.5 -71.5 10.5s-39.333 20.833 -55 41.5s-23.5 47.667 -23.5 81zM749.002 92.0039c0 -31.333 15 -46.999 45 -46.999c18.667 0 35.167 7.66699 49.5 23s24.833 34 31.5 56s11.667 42 15 60s5 32.667 5 44c0 40 -15.333 60 -46 60
c-16 0 -29.5 -3.83301 -40.5 -11.5s-20 -20 -27 -37s-12.167 -32.667 -15.5 -47s-7.66602 -34.833 -12.999 -61.5c-0.666992 -4.66699 -1.33398 -8.33398 -2.00098 -11.001c-1.33301 -12 -2 -21.333 -2 -28z" />
    <glyph glyph-name="ampersand" unicode="&#x26;" horiz-adv-x="830" 
d="M75 126c0 58.667 26.999 108.665 80.999 149.998c5.33301 4 45 29.667 119 77c-7.33301 38 -11 73.333 -11 106c0 93.333 25 165.666 75 216.999c46 46 97.333 69 154 69c40.667 0 74.667 -13.333 102 -40s41 -61 41 -103c0 -16 -2.16699 -30.5 -6.5 -43.5
s-13.333 -29.833 -27 -50.5s-37.167 -44.334 -70.5 -71.001s-75.666 -55.667 -126.999 -87c21.333 -56.667 54.666 -117.667 99.999 -183h1c24.667 19.333 46 37.333 64 54s42 43.834 72 81.501s56.333 78.834 79 123.501c4.66699 8 9.66699 12 15 12
c1.33301 0 23.333 -6 66 -18c10 -2.66699 15 -7.66699 15 -15c0 -6 -7.5 -22.667 -22.5 -50s-40.167 -63.666 -75.5 -108.999s-74 -85.666 -116 -120.999l-30 -25c29.333 -14.667 56.333 -22 81 -22c26.667 0 53.334 3.33301 80.001 10l40 11c8 0 12 -4.33301 12 -13
c0 -4 -4.33301 -26.333 -13 -67c-2.66699 -12 -5.83398 -19.167 -9.50098 -21.5s-15.834 -5.83301 -36.501 -10.5c-27.333 -6 -55 -9 -83 -9c-65.333 0 -122.666 19.333 -171.999 58c-76 -38.667 -150.333 -58 -223 -58c-51.333 0 -93.166 14 -125.499 42
s-48.5 63.333 -48.5 106zM215.999 136.998c0 -39.333 13.999 -58.9941 41.999 -58.9941c50 2 97.333 11.667 142 29c-26 34.667 -46 63.667 -60 87s-28 52.333 -42 87h-1c-0.666992 -0.666992 -3 -2.33398 -7 -5.00098s-6.66699 -4.33398 -8 -5.00098
s-3.66602 -2.33398 -6.99902 -5.00098s-5.83301 -4.83398 -7.5 -6.50098s-4 -3.83398 -7 -6.50098s-5.5 -5.33398 -7.5 -8.00098l-6.5 -9l-7 -10.5c-2.33301 -3.66699 -4.5 -7.83398 -6.5 -12.501c-11.333 -23.333 -17 -48.666 -17 -75.999zM381.998 482.004
c0 -21.333 1.33301 -40 4 -56c91.333 59.333 137 124 137 194c0 34 -10.667 51 -32 51c-10 0 -20.5 -2.83301 -31.5 -8.5s-22.667 -15 -35 -28s-22.5 -32.667 -30.5 -59s-12 -57.5 -12 -93.5z" />
    <glyph glyph-name="quotesingle" unicode="'" horiz-adv-x="305" 
d="M200 395c0 1.33301 0.167969 3.33203 0.500977 5.99902s0.5 4.66699 0.5 6l33 290c1.33301 10 3.66602 17.333 6.99902 22c3.33301 2 8.33301 3 15 3h93c14 0 21 -4.66699 21 -14c0 -1.33301 -1 -6 -3 -14l-93 -298c-2.66699 -7.33301 -5.5 -12.166 -8.5 -14.499
s-8.16699 -3.5 -15.5 -3.5h-25c-6 0 -10.167 0.166992 -12.5 0.5s-5 1.83301 -8 4.5s-4.5 6.66699 -4.5 12z" />
    <glyph glyph-name="parenleft" unicode="(" horiz-adv-x="428" 
d="M120 87c0 113.333 25.333 228.332 76 344.999s122.334 211.334 215.001 284.001c19.333 16 32 25.667 38 29s13.667 5 23 5h28c14 0 21 -4.33301 21 -13c0 -4 -5.66699 -11.5 -17 -22.5s-26.333 -27.5 -45 -49.5s-38.5 -49 -59.5 -81s-42.833 -76.333 -65.5 -133
s-41.667 -120 -57 -190c-20 -90.667 -30 -170.667 -30 -240c0 -42 3.5 -80.167 10.5 -114.5s14.667 -59.833 23 -76.5s16 -31.167 23 -43.5s10.5 -19.833 10.5 -22.5c0 -9.33301 -6.33301 -14 -19 -14h-30c-7.33301 0 -12.833 0.833008 -16.5 2.5
s-8.83398 6.16699 -15.501 13.5c-75.333 78 -113 185 -113 321z" />
    <glyph glyph-name="parenright" unicode=")" horiz-adv-x="428" 
d="M11 -237c0 4 5.83594 11.5 17.5029 22.5s26.834 27.667 45.501 50s38.667 49.666 60 81.999s43.166 77.166 65.499 134.499s41.166 121 56.499 191c19.333 88.667 29 167 29 235c0 52.667 -5.5 99.167 -16.5 139.5s-22 70 -33 89s-16.5 29.167 -16.5 30.5
c0 8.66699 6 13 18 13h32c4.66699 0 8.66699 -0.666992 12 -2s8.66602 -5.66602 15.999 -12.999s16.666 -18 27.999 -32c58 -76 87 -172.667 87 -290c0 -108.667 -24.333 -221.667 -73 -339s-122.334 -214.666 -221.001 -291.999c-21.333 -16.667 -34.166 -26 -38.499 -28
s-11.5 -3.33301 -21.5 -4h-26c-14 0 -21 4.33301 -21 13z" />
    <glyph glyph-name="asterisk" unicode="*" 
d="M159 425c0 23.333 10 41 30 53c6 3.33301 46 17.333 120 42c-61.333 25.333 -95 40.333 -101 45c-8.66699 6 -13 15.333 -13 28c0 18 7.5 34.5 22.5 49.5s31.167 22.5 48.5 22.5c2.66699 0 4.83398 -0.166992 6.50098 -0.5s3.66699 -1 6 -2s4.33301 -2 6 -3
s4 -2.66699 7 -5s5.66699 -4.66602 8 -6.99902l11 -10.5l13.5 -13l16.5 -17l20.5 -21c3.33301 72.667 5.66602 112 6.99902 118c4 13.333 12.333 24.333 25 33s26 13 40 13c12 0 22.833 -3.66699 32.5 -11s14.5 -17 14.5 -29c0 -7.33301 -14.333 -48.666 -43 -123.999
l30.5 21l24 17.5l18.5 13.5l15 10.5c3.33301 2.33301 7 4.66602 11 6.99902s7 4 9 5s4.33301 1.83301 7 2.5s4.83398 1.16699 6.50098 1.5s3.83398 0.5 6.50098 0.5c13.333 0 24.166 -4.5 32.499 -13.5s12.5 -20.5 12.5 -34.5c0 -8 -0.666992 -14.833 -2 -20.5
s-4.5 -11 -9.5 -16s-9.33301 -9 -13 -12s-10.834 -6.66699 -21.501 -11s-19.5 -7.66602 -26.5 -9.99902l-35.5 -12l-42 -14.5l27.5 -11l23 -9.5l18.5 -7.5c6.66699 -2.66699 11.667 -4.83398 15 -6.50098l11 -5.5c4 -2 6.83301 -3.83301 8.5 -5.5s3.5 -3.33398 5.5 -5.00098
s3.33301 -3.66699 4 -6s1.16699 -4.66602 1.5 -6.99902s0.5 -5.16602 0.5 -8.49902c0 -18 -7.66699 -34.5 -23 -49.5s-31.333 -22.5 -48 -22.5h-6.5c-1.66699 0 -3.66699 0.5 -6 1.5s-4.16602 2 -5.49902 3l-6.5 5c-3 2.33301 -5.66699 4.66602 -8 6.99902l-10.5 10.5
l-13 13l-17.5 17.5l-21.5 21.5c-3.33301 -72.667 -5.66602 -112 -6.99902 -118c-4 -13.333 -12.333 -24.333 -25 -33s-26 -13 -40 -13c-12 0 -22.833 3.5 -32.5 10.5s-14.5 16.833 -14.5 29.5c0 6 14.667 47.333 44 124l-41 -29
c-32.667 -23.333 -53.334 -37.5 -62.001 -42.5s-17.334 -7.5 -26.001 -7.5c-13.333 0 -24.333 4.66699 -33 14s-13 20.666 -13 33.999z" />
    <glyph glyph-name="plus" unicode="+" horiz-adv-x="855" 
d="M114 250c0 18 8.99902 29.667 26.999 35c2.66699 0.666992 11 1 25 1h285l61 284c0 0.666992 0.5 2.83398 1.5 6.50098s1.66699 6.33398 2 8.00098s1 4.16699 2 7.5s2.16699 5.83301 3.5 7.5l5 6.5c2 2.66699 4 4.5 6 5.5s4.66699 2 8 3s7 1.5 11 1.5
c23.333 0 35 -12.667 35 -38c0 -4.66699 -0.666992 -11 -2 -19l-58 -273h280c14.667 0 25.167 -3.83301 31.5 -11.5s9.5 -15.834 9.5 -24.501c0 -18 -9 -29.667 -27 -35c-2.66699 -0.666992 -11 -1 -25 -1h-285v-1l-61 -286c-6 -28.667 -18.667 -43 -38 -43
c-3.33301 0 -6.66602 0.5 -9.99902 1.5s-6 2 -8 3s-4 2.5 -6 4.5s-3.66699 3.83301 -5 5.5s-2.5 3.66699 -3.5 6s-1.66699 4.16602 -2 5.49902s-0.5 2.66602 -0.5 3.99902l-1 2c-0.666992 5.33301 0.333008 14 3 26l58 272h-278c-12 0 -21.5 2.5 -28.5 7.5
s-11.333 9.83301 -13 14.5s-2.5 9.33398 -2.5 14.001z" />
    <glyph glyph-name="comma" unicode="," horiz-adv-x="305" 
d="M68 -92c0 2.66699 17.334 33.335 52.001 92.002h-6c-15.333 0 -23 4.66699 -23 14c0 2 6.66699 35 20 99c1.33301 4.66699 2.5 8.16699 3.5 10.5s3 4.16602 6 5.49902s7.16699 2 12.5 2h88c14 0 21 -5 21 -15c0 -4.66699 -3.5 -22.834 -10.5 -54.501
s-11.167 -49.167 -12.5 -52.5s-28.333 -36.666 -81 -99.999c-0.666992 -0.666992 -1.66699 -1.83398 -3 -3.50098s-2.33301 -2.66699 -3 -3s-1.5 -1 -2.5 -2s-1.83301 -1.66699 -2.5 -2s-1.5 -0.833008 -2.5 -1.5s-2 -1 -3 -1s-2.16699 -0.166992 -3.5 -0.5
s-2.66602 -0.5 -3.99902 -0.5h-5h-13c-0.666992 0 -1.83398 -0.166992 -3.50098 -0.5s-2.83398 -0.5 -3.50098 -0.5c-14 0 -21 4.66699 -21 14z" />
    <glyph glyph-name="hyphen" unicode="-" horiz-adv-x="367" 
d="M61 229c0 24.667 14.667 37 44 37h4l2 -1h197c17.333 0 29 -3.83301 35 -11.5s9 -15.5 9 -23.5c0 -4.66699 -0.666992 -9.33398 -2 -14.001s-5.5 -9.66699 -12.5 -15s-16.5 -8 -28.5 -8h-205c-12 0 -21.5 2.5 -28.5 7.5s-11.167 9.83301 -12.5 14.5s-2 9.33398 -2 14.001
z" />
    <glyph glyph-name="period" unicode="." horiz-adv-x="305" 
d="M91 14l3 20.998c2 8.66699 4.33301 19.667 7 33c6.66699 30.667 11.5 48.834 14.5 54.501s9.5 8.5 19.5 8.5h87c13.333 0 20 -5 20 -15c0 -2 -0.166992 -4 -0.5 -6s-0.833008 -4.5 -1.5 -7.5s-1 -5.16699 -1 -6.5c-2.66699 -11.333 -5.66699 -25.666 -9 -42.999
c-5.33301 -25.333 -9.33301 -40.5 -12 -45.5s-9 -7.5 -19 -7.5h-87c-14 0 -21 4.66699 -21 14z" />
    <glyph glyph-name="slash" unicode="/" 
d="M16 -214c0 6.66699 5.00098 19.334 15.001 38.001l534 896c11.333 20 24 30 38 30c9.33301 0 17.666 -3.33301 24.999 -10s11 -15.334 11 -26.001c0 -9.33301 -4.33301 -20.666 -13 -33.999l-535 -899c-12.667 -20.667 -26 -31 -40 -31
c-9.33301 0 -17.5 3.66699 -24.5 11s-10.5 15.666 -10.5 24.999z" />
    <glyph glyph-name="zero" unicode="0" 
d="M90 165c0 40.667 8.66602 101.666 25.999 182.999c5.33301 25.333 9.83301 45.833 13.5 61.5s10 38 19 67s18.333 52.833 28 71.5s22.667 39.667 39 63s33.833 41.833 52.5 55.5s41.667 25.334 69 35.001s57 14.5 89 14.5c119.333 0 179 -63.333 179 -190
c0 -40.667 -8.66699 -102 -26 -184c-19.333 -91.333 -40 -159 -62 -203c-53.333 -107.333 -135.666 -161 -246.999 -161c-120 0 -180 62.333 -180 187zM218.999 135.999c0 -30.667 6.66895 -52.501 20.002 -65.501s28.666 -19.5 45.999 -19.5c33.333 0 64 21 92 63
c19.333 34 41.166 108 65.499 222s36.5 189.333 36.5 226c0 26.667 -6.33301 46.834 -19 60.501s-28.667 20.5 -48 20.5c-34.667 0 -64 -17.667 -88 -53c-20 -30 -42.5 -103.333 -67.5 -220s-37.5 -194.667 -37.5 -234z" />
    <glyph glyph-name="one" unicode="1" 
d="M100 36c0 4.66699 0.667969 9.33398 2.00098 14.001s5.5 9.66699 12.5 15s16.5 8 28.5 8h92l109 513c-30.667 -8 -61.667 -12 -93 -12c-12 0 -21.5 2.5 -28.5 7.5s-11.333 9.83301 -13 14.5s-2.5 9.66699 -2.5 15c0 17.333 9 28.666 27 33.999
c1.33301 0 13.5 0.666992 36.5 2s47.167 6 72.5 14s50 21.333 74 40c14 10 24.667 15 32 15c0.666992 0 1.83398 -0.166992 3.50098 -0.5s2.83398 -0.5 3.50098 -0.5c1.33301 0 2.66602 0.166992 3.99902 0.5s2.66602 0.5 3.99902 0.5c9.33301 0 17.666 -3.33301 24.999 -10
s11 -15.334 11 -26.001c0 -3.33301 -0.666992 -9 -2 -17l-125 -590h64c28.667 0 43 -12.333 43 -37c0 -24 -14.333 -36 -43 -36h-294c-12 0 -21.5 2.5 -28.5 7.5s-11.167 9.83301 -12.5 14.5s-2 9.33398 -2 14.001z" />
    <glyph glyph-name="two" unicode="2" 
d="M62 36c0 11.333 3.33398 27.001 10.001 47.001l-1 -7l198 173c1.33301 1.33301 9.66602 8.33301 24.999 21s26.833 22.667 34.5 30l35.5 34c16 15.333 28.667 29.5 38 42.5s19.166 27.833 29.499 44.5s18 33.667 23 51s7.5 34.666 7.5 51.999
c0 24.667 -6.5 46.167 -19.5 64.5s-35.167 27.5 -66.5 27.5c-20.667 0 -39.5 -4.16699 -56.5 -12.5s-31.833 -20.666 -44.5 -36.999s-21.5 -28.333 -26.5 -36s-11.167 -18.834 -18.5 -33.501c-3.33301 -5.33301 -7 -8.66602 -11 -9.99902l-5 1
c-6.66699 3.33301 -16.167 16 -28.5 38s-18.5 35.333 -18.5 40c0 2.66699 2.83301 9 8.5 19s14.834 22.5 27.501 37.5s27.834 29.333 45.501 43s40.667 25.5 69 35.5s58.5 15 90.5 15c59.333 0 106.5 -16.5 141.5 -49.5s52.5 -76.833 52.5 -131.5
c0 -23.333 -3.5 -45.666 -10.5 -66.999s-14.333 -39 -22 -53s-21.334 -30.833 -41.001 -50.5s-34.5 -33.834 -44.5 -42.501s-29.333 -23.834 -58 -45.501l-58 -44.5l-160 -126l89 1h44l122 1c30.667 0 46 -12 46 -36c0 -6 -1.66699 -15.667 -5 -29s-6.33301 -22 -9 -26
c-7.33301 -11.333 -19.333 -17 -36 -17h-352c-30 0 -45 12 -45 36z" />
    <glyph glyph-name="three" unicode="3" 
d="M61 71c0 2 8.00195 23.668 24.002 65.001c3.33301 8 7.33301 12.667 12 14h4c2.66699 -1.33301 8.83398 -6.5 18.501 -15.5s20 -17.833 31 -26.5s27.5 -16.667 49.5 -24s46 -11 72 -11c41.333 0 71.166 11.5 89.499 34.5s32.166 54.833 41.499 95.5c6 30 9 51.667 9 65
c0 20.667 -5 36.667 -15 48s-20.333 18 -31 20s-24 3 -40 3h-38c-8 0 -13.667 0.166992 -17 0.5s-6.33301 1.66602 -9 3.99902s-4 5.83301 -4 10.5s2.33301 17 7 37c2 7.33301 4.83301 12.5 8.5 15.5s7.66699 4.66699 12 5s12 0.833008 23 1.5s21.167 2 30.5 4
c32.667 6 60.334 26.5 83.001 61.5s34 69.5 34 103.5c0 30 -20 45 -60 45c-24 0 -46.5 -4.33301 -67.5 -13s-37.333 -18.167 -49 -28.5l-31.5 -28.5c-9.33301 -8.66699 -15.666 -13 -18.999 -13l-5 1c-5.33301 4 -12 14.5 -20 31.5s-12.333 27.833 -13 32.5
c0.666992 6.66699 8.66699 16.667 24 30c59.333 51.333 125.666 77 198.999 77c118.667 0 178 -44 178 -132c0 -42 -12.333 -81 -37 -117s-61 -66.333 -109 -91c70 -20 105 -63 105 -129c0 -14.667 -1.66699 -31.5 -5 -50.5s-11.333 -42 -24 -69s-28.834 -51 -48.501 -72
s-48 -39.167 -85 -54.5s-79.5 -23 -127.5 -23c-24 0 -47 2.66699 -69 8s-40.667 12 -56 20s-28.833 16.333 -40.5 25s-20.334 16.5 -26.001 23.5s-8.5 12.5 -8.5 16.5z" />
    <glyph glyph-name="four" unicode="4" 
d="M71 189c0 6 1.83594 16.667 5.50293 32s6.16699 24.333 7.5 27c0.666992 2 6.33398 10 17.001 24l295 391c6.66699 8.66699 11.667 14.667 15 18s8.16602 6.33301 14.499 9s14.166 4 23.499 4h80c25.333 0 38 -9.66699 38 -29c0 -0.666992 -1 -7 -3 -19l-84 -398h36
c31.333 0 47 -12.333 47 -37c0 -7.33301 -1 -14 -3 -20c-3.33301 -16.667 -8.83301 -27.167 -16.5 -31.5s-17.834 -6.5 -30.501 -6.5h-53c-2.66699 -12 -5.33398 -25.167 -8.00098 -39.5s-4.83398 -25.333 -6.50098 -33l-5.5 -25c-2 -9 -3.66699 -15.833 -5 -20.5
s-3.16602 -9.5 -5.49902 -14.5s-4.5 -8.5 -6.5 -10.5s-4.66699 -4 -8 -6s-7 -3.16699 -11 -3.5s-8.66699 -0.5 -14 -0.5h-32c-12 -0 -21.667 2.33301 -29 7s-11.833 9.16699 -13.5 13.5s-2.5 8.5 -2.5 12.5c0 6.66699 8 46.667 24 120h-217c-17.333 0 -31 4.66699 -41 14
c-5.33301 8.66699 -8 16 -8 22zM187.003 248h175.999l73 344c-9.33301 -16 -34.666 -52.667 -75.999 -110l-118 -160z" />
    <glyph glyph-name="five" unicode="5" 
d="M57 94c0 2 0.99707 4.66797 2.99707 8.00098s5 7.5 9 12.5l11.5 14.5c3.66699 4.66699 8.33398 10.167 14.001 16.5s9.83398 11.166 12.501 14.499c6.66699 7.33301 12.334 11 17.001 11c3.33301 0 5.83301 -1.16699 7.5 -3.5s3 -5.5 4 -9.5s4 -10.667 9 -20
s11.833 -19.666 20.5 -30.999c11.333 -8.66699 19.333 -14.5 24 -17.5s13.334 -6.5 26.001 -10.5s26.334 -6 41.001 -6c64 0 106.667 30.333 128 91c4 12 9.33301 33.333 16 64c9.33301 43.333 14 75 14 95c0 36.667 -16 55 -48 55c-35.333 0 -68.666 -15.333 -99.999 -46
c-18 -19.333 -29.333 -30.333 -34 -33s-14 -4 -28 -4h-4c-31.333 0 -47 12 -47 36c0 3.33301 0.666992 9 2 17l64 305c4 17.333 9.33301 28.5 16 33.5s18 7.5 34 7.5h281c30.667 0 46 -12 46 -36c0 -14.667 -2.66699 -28.334 -8 -41.001
c-6.66699 -15.333 -20.334 -23 -41.001 -23h-210l-1 -1l-32 -153c25.333 7.33301 49.666 11 72.999 11c56.667 0 99.667 -13.167 129 -39.5s44 -64.5 44 -114.5c0 -24 -4.66699 -56.667 -14 -98c-37.333 -147.333 -135.333 -221 -294 -221c-30 0 -57.833 5.16699 -83.5 15.5
s-45.334 22.333 -59.001 36s-24.167 26.5 -31.5 38.5s-11 20.667 -11 26z" />
    <glyph glyph-name="six" unicode="6" 
d="M96 180c0 42.667 8.33398 102.999 25.001 180.999s41.667 143.333 75 196c67.333 106 163 159 287 159c24.667 0 46.667 -3.33301 66 -10s29 -15 29 -25c-6.66699 -42 -13.334 -66.667 -20.001 -74l-5 -2c-2.66699 0 -11.5 3.66699 -26.5 11s-33.167 11 -54.5 11
c-20.667 0 -39.834 -3.16699 -57.501 -9.5s-32.5 -13.666 -44.5 -21.999s-23.5 -20 -34.5 -35s-19.333 -27.333 -25 -37s-11.667 -23.167 -18 -40.5s-10.166 -28.666 -11.499 -33.999l-7 -28c14 12 25.167 21 33.5 27s22 12.833 41 20.5s38.833 11.5 59.5 11.5
c30 0 55.833 -4.66699 77.5 -14s38 -21.833 49 -37.5s18.833 -31.834 23.5 -48.501s7 -34.667 7 -54c0 -23.333 -4.16699 -54.833 -12.5 -94.5s-18.166 -72.167 -29.499 -97.5c-14 -30.667 -33.5 -58.667 -58.5 -84s-53.5 -44 -85.5 -56
c-28.667 -10.667 -63.334 -16 -104.001 -16c-52.667 0 -95.667 15.5 -129 46.5s-50 82.833 -50 155.5zM226.001 147.999c0 -50 21.998 -75.001 65.998 -75.001c9.33301 0 18 1 26 3s15.167 4.16699 21.5 6.5s12.333 6.33301 18 12l14 14
c3.66699 3.66699 7.33398 9.83398 11.001 18.501s6.5 15.167 8.5 19.5s4.5 12 7.5 23l6.5 23.5c1.33301 4.66699 3.33301 13.167 6 25.5s4.33398 20.5 5.00098 24.5c10 47.333 15 81.333 15 102c0 41.333 -19.333 62 -58 62c-27.333 0 -51.333 -10 -72 -30s-36 -45 -46 -75
s-17.333 -58 -22 -84s-7 -49.333 -7 -70z" />
    <glyph glyph-name="seven" unicode="7" 
d="M149 25c0 5.33301 1.99707 17.1641 5.99707 35.4971s12.5 45.833 25.5 82.5s28.833 75 47.5 115s45.334 85.333 80.001 136s73.667 98.334 117 143.001l52 50h-135l-22 -1h-97c-30 0 -45 12.333 -45 37c0 16 3.33301 32.333 10 49c6.66699 15.333 20.667 23 42 23h271
l22 -1h75c12.667 0 22.5 -2.66699 29.5 -8s11.167 -10.166 12.5 -14.499s2 -8.83301 2 -13.5c0 -7.33301 -3 -23 -9 -47v3c-2 -2.66699 -14.167 -15.5 -36.5 -38.5s-46.666 -50.333 -72.999 -82s-54.666 -69.667 -84.999 -114s-59 -97.666 -86 -159.999
s-48.167 -126.833 -63.5 -193.5c-5.33301 -24.667 -20.333 -37 -45 -37h-48c-31.333 0 -47 12 -47 36z" />
    <glyph glyph-name="eight" unicode="8" 
d="M81 133c0 79.333 22.998 141.995 68.998 187.995c23.333 22.667 56 40.667 98 54c-54 18.667 -81 54.334 -81 107.001c0 12.667 1.33301 26.834 4 42.501s9.33398 35.334 20.001 59.001s24.667 44.834 42 63.501s42.5 34.834 75.5 48.501s71.5 20.5 115.5 20.5
c120.667 0 181 -46 181 -138c0 -15.333 -1.5 -30.833 -4.5 -46.5s-8.16699 -33 -15.5 -52s-19.166 -36.833 -35.499 -53.5s-36.166 -30 -59.499 -40l-30 -11c61.333 -18.667 92 -59.667 92 -123c0 -33.333 -8.33301 -71 -25 -113s-40.334 -76 -71.001 -102
c-44 -39.333 -106.333 -59 -187 -59c-125.333 0 -188 51.667 -188 155zM214.998 133.995c0 -21.333 6.1709 -36.832 18.5039 -46.499s31.5 -14.5 57.5 -14.5c18 0 33.667 2.66699 47 8s23.666 11.333 30.999 18s14.166 17.667 20.499 33s10.666 28 12.999 38
s5.83301 26 10.5 48c5.33301 30 8 48.667 8 56c0 42.667 -25 64 -75 64c-16 0 -30 -1.83301 -42 -5.5s-22.333 -9.83398 -31 -18.501s-15.667 -16.667 -21 -24s-10.333 -19 -15 -35s-7.83398 -28.333 -9.50098 -37l-8.5 -43c-2.66699 -17.333 -4 -31 -4 -41z
M291.002 465.996c0 -36.667 24.334 -54.999 73.001 -54.999c19.333 0 35.5 2.5 48.5 7.5s23.167 13 30.5 24s12.666 21.167 15.999 30.5s6.66602 21.666 9.99902 36.999c6 30 9 51.333 9 64c0 21.333 -6.33301 35.5 -19 42.5s-30 10.5 -52 10.5
c-36.667 0 -61.667 -7.83301 -75 -23.5s-23.666 -40.5 -30.999 -74.5c-6.66699 -33.333 -10 -54.333 -10 -63z" />
    <glyph glyph-name="nine" unicode="9" 
d="M88 40c0 4 8.67188 16.999 26.0049 38.999s29 33 35 33c3.33301 0 7.33301 -2 12 -6l15 -13.5c5.33301 -5 13.666 -9.5 24.999 -13.5s24.333 -6 39 -6c87.333 0 147.666 65.333 180.999 196c0.666992 2.66699 1 4.33398 1 5.00098c-41.333 -40 -86.666 -60 -135.999 -60
c-30.667 0 -56.834 5 -78.501 15s-37.834 23.167 -48.501 39.5s-18.167 32.5 -22.5 48.5s-6.5 33 -6.5 51c0 26 5 61.333 15 106s22.667 80.667 38 108c28.667 50.667 68.667 88 120 112c32 14.667 73 22 123 22c51.333 0 93.166 -15 125.499 -45s48.5 -81 48.5 -153
c0 -22.667 -2.66699 -52.5 -8 -89.5s-14 -80.833 -26 -131.5s-31.5 -100.167 -58.5 -148.5s-59.167 -85.833 -96.5 -112.5c-54 -38.667 -115.333 -58 -184 -58c-28.667 0 -54.334 4.5 -77.001 13.5s-38.667 18 -48 27s-14 16.167 -14 21.5zM264.005 347.999
c0 -40.667 20 -61 60 -61c27.333 0 51.5 10.5 72.5 31.5s36.5 47.167 46.5 78.5s17.333 60.333 22 87s7 50 7 70c0 48.667 -21 73 -63 73c-47.333 0 -81.333 -24.667 -102 -74c-8.66699 -21.333 -21 -72.333 -37 -153c-4 -22 -6 -39.333 -6 -52z" />
    <glyph glyph-name="colon" unicode=":" horiz-adv-x="305" 
d="M91 14l3 20.998c2 8.66699 4.33301 19.667 7 33c6.66699 30.667 11.5 48.834 14.5 54.501s9.5 8.5 19.5 8.5h87c13.333 0 20 -5 20 -15c0 -2 -0.166992 -4 -0.5 -6s-0.833008 -4.5 -1.5 -7.5s-1 -5.16699 -1 -6.5c-2.66699 -11.333 -5.66699 -25.666 -9 -42.999
c-5.33301 -25.333 -9.33301 -40.5 -12 -45.5s-9 -7.5 -19 -7.5h-87c-14 0 -21 4.66699 -21 14zM160 341.998c0 2 0.667969 5.33398 2.00098 10.001s2 8 2 10c11.333 55.333 18.5 85.166 21.5 89.499s9.16699 6.5 18.5 6.5h87c13.333 0 20 -5.33301 20 -16
c0 -4 -5.66699 -33.333 -17 -88c-2.66699 -12 -5.33398 -19.5 -8.00098 -22.5s-8.66699 -4.5 -18 -4.5h-87c-14 0 -21 5 -21 15z" />
    <glyph glyph-name="semicolon" unicode=";" horiz-adv-x="305" 
d="M68 -92c0 2.66699 17.334 33.335 52.001 92.002h-6c-15.333 0 -23 4.66699 -23 14c0 2 6.66699 35 20 99c1.33301 4.66699 2.5 8.16699 3.5 10.5s3 4.16602 6 5.49902s7.16699 2 12.5 2h88c14 0 21 -5 21 -15c0 -4.66699 -3.5 -22.834 -10.5 -54.501
s-11.167 -49.167 -12.5 -52.5s-28.333 -36.666 -81 -99.999c-0.666992 -0.666992 -1.66699 -1.83398 -3 -3.50098s-2.33301 -2.66699 -3 -3s-1.5 -1 -2.5 -2s-1.83301 -1.66699 -2.5 -2s-1.5 -0.833008 -2.5 -1.5s-2 -1 -3 -1s-2.16699 -0.166992 -3.5 -0.5
s-2.66602 -0.5 -3.99902 -0.5h-5h-13c-0.666992 0 -1.83398 -0.166992 -3.50098 -0.5s-2.83398 -0.5 -3.50098 -0.5c-14 0 -21 4.66699 -21 14zM160.001 342.001c0 2 0.668945 5.33301 2.00195 10s2 8 2 10c11.333 55.333 18.5 85.166 21.5 89.499s9.16699 6.5 18.5 6.5h87
c13.333 0 20 -5.33301 20 -16c0 -1.33301 -6 -30.666 -18 -87.999c-2.66699 -12 -5.33398 -19.5 -8.00098 -22.5s-8.33398 -4.5 -17.001 -4.5h-87c-14 0 -21 5 -21 15z" />
    <glyph glyph-name="less" unicode="&#x3c;" horiz-adv-x="855" 
d="M146 248c0 8.66699 2.16797 15.8311 6.50098 21.498s8.33301 9.5 12 11.5s11.5 6 23.5 12l634 301c9.33301 4.66699 17.666 7 24.999 7c10 0 18.5 -3.83301 25.5 -11.5s10.5 -15.834 10.5 -24.501c0 -2.66699 -0.166992 -5.16699 -0.5 -7.5
s-1.16602 -4.66602 -2.49902 -6.99902l-3.5 -6c-1 -1.66699 -2.66699 -3.33398 -5 -5.00098s-4 -3 -5 -4s-3.16699 -2.33301 -6.5 -4l-6 -3c-0.666992 -0.333008 -2.66699 -1.16602 -6 -2.49902l-6 -3l-583 -276v-1l39 -23l32 -19l388 -230
c20.667 -12.667 31 -25.667 31 -39c0 -11.333 -3.83301 -20.166 -11.5 -26.499s-15.834 -9.5 -24.501 -9.5s-17.667 3 -27 9l-509 302c-20.667 12.667 -31 25.334 -31 38.001z" />
    <glyph glyph-name="equal" unicode="=" horiz-adv-x="855" 
d="M90 135c0 20 10 32.001 30 36.001h659c12 0 21.5 -2.5 28.5 -7.5s11.167 -9.83301 12.5 -14.5s2 -9.33398 2 -14.001c0 -24 -15.667 -36 -47 -36h-639c-30.667 0 -46 12 -46 36zM138 364.001c0 25.333 18.667 37.668 56 37.001h3h628c18 0 30.167 -4 36.5 -12
s9.5 -16 9.5 -24c0 -4.66699 -0.666992 -9.33398 -2 -14.001s-5.5 -9.5 -12.5 -14.5s-16.5 -7.5 -28.5 -7.5h-647c-12 0 -21.5 2.5 -28.5 7.5s-11.167 9.66699 -12.5 14s-2 8.83301 -2 13.5z" />
    <glyph glyph-name="greater" unicode="&#x3e;" horiz-adv-x="855" 
d="M78 -65c0 8 2.50098 15.001 7.50098 21.001s9.33301 10 13 12s10.167 5 19.5 9l584 276v1l-460 272c-0.666992 0 -2.33398 1 -5.00098 3s-4.5 3.33301 -5.5 4s-2.83301 2 -5.5 4s-4.5 3.83301 -5.5 5.5s-2.33301 3.66699 -4 6s-2.83398 4.83301 -3.50098 7.5
s-1 5.66699 -1 9c0 10 3.66699 18.5 11 25.5s15.666 10.5 24.999 10.5c8.66699 0 17.667 -3 27 -9l508 -302c10 -6 17.5 -11.667 22.5 -17s7.66699 -9.33301 8 -12s0.833008 -7.33398 1.5 -14.001c-2 -10 -5.16699 -17.167 -9.5 -21.5s-15.166 -10.5 -32.499 -18.5
l-635 -301c-9.33301 -4.66699 -17.666 -7 -24.999 -7c-9.33301 0 -17.5 3.5 -24.5 10.5s-10.5 15.5 -10.5 25.5z" />
    <glyph glyph-name="question" unicode="?" horiz-adv-x="519" 
d="M186 36c0 6 2.16602 18.668 6.49902 38.001s7.83301 31.333 10.5 36c6 12.667 19.667 19.667 41 21h44c14.667 0 25.167 -3.83301 31.5 -11.5s9.5 -16.5 9.5 -26.5c0 -4 -3 -19.667 -9 -47c-3.33301 -14.667 -7.33301 -25.334 -12 -32.001s-9.16699 -10.5 -13.5 -11.5
s-11.833 -1.83301 -22.5 -2.5h-41c-12.667 0 -22.667 2.66699 -30 8s-11.666 10.333 -12.999 15s-2 9 -2 13zM202.999 665.001c0 2.66699 0.667969 5.33203 2.00098 7.99902c9.33301 12 33.166 25 71.499 39s79.5 21 123.5 21c17.333 0 32.666 -0.5 45.999 -1.5
s29.333 -3.83301 48 -8.5s34 -11 46 -19s22.333 -19.833 31 -35.5s13 -34.5 13 -56.5c0 -27.333 -5.83301 -54.333 -17.5 -81s-28.5 -49 -50.5 -67l-14 -10l-19 -13.5c-3.33301 -2.33301 -9.83301 -7.33301 -19.5 -15s-17 -14 -22 -19l-21 -21
c-9 -9 -16.167 -17.667 -21.5 -26l-18 -27.5c-6.66699 -10 -12.167 -20.833 -16.5 -32.5s-8.16602 -23.5 -11.499 -35.5c-1.33301 -6 -2.83301 -12.333 -4.5 -19s-2.83398 -11.834 -3.50098 -15.501s-1.66699 -7.5 -3 -11.5s-2.16602 -7 -2.49902 -9
s-1.16602 -4 -2.49902 -6s-2.33301 -3.33301 -3 -4s-1.83398 -1.5 -3.50098 -2.5s-3.33398 -1.5 -5.00098 -1.5h-6.5h-61c-14.667 0 -22 5.33301 -22 16c0 7.33301 4.33301 28 13 62c8 32.667 21.167 64.334 39.5 95.001s35.833 55 52.5 73s33.667 35.333 51 52
s27.333 27 30 31c18.667 24.667 28 56.667 28 96c0 8 -1 14.5 -3 19.5s-7.66699 9.66699 -17 14s-22.666 6.5 -39.999 6.5c-30 0 -57.333 -6.16699 -82 -18.5s-43.834 -24.666 -57.501 -36.999s-22.5 -18.5 -26.5 -18.5h-1l-1 1c-4 1.33301 -7.66699 8.5 -11 21.5
s-5.66602 25.5 -6.99902 37.5z" />
    <glyph glyph-name="at" unicode="@" horiz-adv-x="733" 
d="M124 244c0 52.667 9.50098 112.166 28.501 178.499s48.5 123.5 88.5 171.5c77.333 92.667 189.666 139 336.999 139c72 0 122.833 -16.667 152.5 -50s44.5 -79.666 44.5 -138.999c0 -32.667 -4.66699 -74 -14 -124s-18.333 -88.667 -27 -116
c-40.667 -120.667 -122.667 -181 -246 -181c-50 0 -91.667 12 -125 36s-50 65 -50 123c0 20 4 51 12 93c35.333 148.667 120.666 223.334 255.999 224.001h2c23.333 0 46.666 -3 69.999 -9c-8 46.667 -37 70 -87 70c-1.33301 0 -2.66602 0.166992 -3.99902 0.5
s-2.33301 0.5 -3 0.5c-4.66699 0 -16.667 -1.33301 -36 -4c-46 -6 -86.167 -20.333 -120.5 -43s-61.666 -51.834 -81.999 -87.501s-36.333 -72.5 -48 -110.5s-20.5 -81 -26.5 -129c0 -4.66699 -0.5 -11.334 -1.5 -20.001s-1.5 -15.667 -1.5 -21
c0 -122.667 64.667 -184 194 -184c30.667 0 59.167 3.66699 85.5 11s47.666 14.5 63.999 21.5s27.166 10.5 32.499 10.5h54c11.333 -1.33301 17 -5.33301 17 -12c0 -8 -12.167 -20 -36.5 -36s-58.166 -31.333 -101.499 -46s-85.666 -22 -126.999 -22
c-40.667 0 -77.667 3.83301 -111 11.5s-64.833 20.667 -94.5 39s-53 44.833 -70 79.5s-25.5 76.334 -25.5 125.001zM431.001 280.999c0 -56.667 22.333 -85 67 -85c21.333 0 40.666 7 57.999 21s31 31 41 51s18.333 42 25 66s11.167 45 13.5 63s3.5 32.667 3.5 44
c0 56.667 -22 85 -66 85c-8 0 -16.167 -1.16699 -24.5 -3.5s-18.666 -7 -30.999 -14s-24 -19.333 -35 -37s-20.5 -39.5 -28.5 -65.5c-15.333 -55.333 -23 -97 -23 -125z" />
    <glyph glyph-name="A" unicode="A" horiz-adv-x="733" 
d="M47 22c0 5.33301 7.33398 21.002 22.001 47.002l326 578c10 17.333 20.333 29.5 31 36.5s25 10.5 43 10.5h88c12 0 21.667 -1.33301 29 -4s12.666 -7.5 15.999 -14.5s5.5 -12.333 6.5 -16s2.16699 -10.834 3.5 -21.501l83 -592c0 -1.33301 0.166992 -3.33301 0.5 -6
s0.5 -4.66699 0.5 -6c0 -22.667 -13.333 -34 -40 -34h-56c-6 0 -11.167 0.333008 -15.5 1s-8.33301 1.5 -12 2.5s-6.83398 3 -9.50098 6l-7 8c-2 2.33301 -3.66699 6.16602 -5 11.499l-3.5 14.5c-1 4.33301 -2.16699 11 -3.5 20l-3.5 23.5
c-1 6.66699 -2.16699 16.334 -3.5 29.001s-2.66602 24 -3.99902 34h-286l-22.5 -41l-18.5 -34l-14.5 -25.5c-5.66699 -9.66699 -10.167 -16.5 -13.5 -20.5s-7.33301 -8.33301 -12 -13s-9.33398 -7.83398 -14.001 -9.50098s-9.66699 -3.16699 -15 -4.5s-11.666 -2 -18.999 -2
h-42c-19.333 -0 -29 7.33301 -29 22zM296.001 237.002h225l-38 282l-4 50z" />
    <glyph glyph-name="B" unicode="B" horiz-adv-x="733" 
d="M100 36c0 0.666992 1.00195 8 3.00195 22l125 590c3.33301 16.667 8 28.5 14 35.5s17 10.5 33 10.5h246c46 0 85 -3.5 117 -10.5s59.333 -21.5 82 -43.5s34 -51.667 34 -89c0 -14.667 -1.83301 -29 -5.5 -43s-10.834 -31 -21.501 -51s-29.334 -38.333 -56.001 -55
s-60 -29.667 -100 -39c96.667 -16 145 -60.333 145 -133c0 -10.667 -1.5 -23 -4.5 -37s-8.16699 -30.5 -15.5 -49.5s-19.5 -38 -36.5 -57s-37.5 -34.833 -61.5 -47.5c-49.333 -26 -119.333 -39 -210 -39h-244c-29.333 0 -44 12 -44 36zM247.002 86l132 -0.000976562
c76 0 129.667 14.333 161 43c28 24.667 42 56.334 42 95.001c0 53.333 -31 85.333 -93 96c-20 3.33301 -44 5 -72 5h-119zM314.002 396.999l98.9961 -0.000976562c26.667 0.666992 46.834 1.5 60.501 2.5s32.834 6 57.501 15s44.334 22.5 59.001 40.5
c20 28.667 30 53.334 30 74.001c0 17.333 -4.5 31.666 -13.5 42.999s-22 19.333 -39 24s-33.167 7.83398 -48.5 9.50098s-33.666 2.5 -54.999 2.5h-106z" />
    <glyph glyph-name="C" unicode="C" horiz-adv-x="703" 
d="M121 235c0 44 7.83301 96.001 23.5 156.001s39.834 113.333 72.501 160c76 110 197 165 363 165c47.333 0 89.333 -4.66699 126 -14s59 -18 67 -26l3 -6c0 -6.66699 -13.667 -43.334 -41 -110.001c-3.33301 -6 -7 -9 -11 -9c-4.66699 0 -10.834 3.33301 -18.501 10
l-25 22.5c-9 8.33301 -24 15.833 -45 22.5s-45.5 10 -73.5 10c-158.667 0 -255.334 -98 -290.001 -294c-5.33301 -28 -8 -53.667 -8 -77c0 -111.333 57.333 -167 172 -167c45.333 0 80.833 3.83301 106.5 11.5s57.167 23.167 94.5 46.5c7.33301 4 13.666 6 18.999 6
c6.66699 0 10 -5 10 -15c0 -4 -2.66699 -26.667 -8 -68c0 -0.666992 -0.166992 -2.5 -0.5 -5.5s-0.666016 -4.83301 -0.999023 -5.5s-0.666016 -2 -0.999023 -4s-0.833008 -3.33301 -1.5 -4s-1.5 -1.66699 -2.5 -3s-2.33301 -2.5 -4 -3.5s-3.5 -2.16699 -5.5 -3.5
c-40.667 -20 -75.167 -33.667 -103.5 -41s-63.166 -11 -104.499 -11h-40c-38.667 2.66699 -72.334 8 -101.001 16s-57 20.833 -85 38.5s-49.5 43.5 -64.5 77.5s-22.5 75.667 -22.5 125z" />
    <glyph glyph-name="D" unicode="D" horiz-adv-x="794" 
d="M99 37c0 2.66699 1.66504 12.332 4.99805 28.999l125 588c1.33301 6.66699 2.83301 11.834 4.5 15.501s4 7.66699 7 12s7.33301 7.5 13 9.5s12.834 3 21.501 3h255c42 0 79 -3.33301 111 -10s62 -18.167 90 -34.5s49.667 -40.5 65 -72.5s23 -71.333 23 -118
c0 -56 -10.667 -117.667 -32 -185s-53.666 -123 -96.999 -167c-44.667 -45.333 -93.667 -74.5 -147 -87.5s-118 -19.5 -194 -19.5h-205c-30 -0 -45 12.333 -45 37zM249.998 85.998l110.003 0.000976562c2 0 4.5 0.166992 7.5 0.5s9.66699 0.666016 20 0.999023
s23.166 0.833008 38.499 1.5c39.333 4 73.166 13 101.499 27s51.333 33 69 57s31.5 48.667 41.5 74s18.667 55.666 26 90.999c10.667 48 16 86.333 16 115s-4.83301 53.334 -14.5 74.001s-20.834 36 -33.501 46s-29.667 17.833 -51 23.5s-39 9 -53 10s-31.667 1.5 -53 1.5
h-114z" />
    <glyph glyph-name="E" unicode="E" horiz-adv-x="642" 
d="M100 36c0 4.66699 0.664062 11.002 1.99707 19.002l125 589c2 8.66699 3.66699 15 5 19s3.66602 8.66699 6.99902 14s7.83301 9 13.5 11s12.834 3 21.501 3h400c12 0 21.5 -2.33301 28.5 -7s11.333 -9.33398 13 -14.001s2.5 -9.66699 2.5 -15
c0 -15.333 -3 -30.333 -9 -45c-6.66699 -15.333 -20.667 -23 -42 -23c-7.33301 0 -18.666 0.166992 -33.999 0.5s-47 0.666016 -95 0.999023s-107.333 0.833008 -178 1.5h-1l-38 -185h261c30 0 45 -12.333 45 -37c0 -4.66699 -0.666992 -9.66699 -2 -15
c-4 -17.333 -9.33301 -28.833 -16 -34.5s-17 -8.5 -31 -8.5h-278l-43 -203c30 0 70.167 0.333008 120.5 1s93.833 1.33398 130.5 2.00098s56.334 1 59.001 1c16 0 27.167 -3.83301 33.5 -11.5s9.5 -15.5 9.5 -23.5c0 -6 -1.66699 -16.333 -5 -31
s-6.66602 -24.334 -9.99902 -29.001c-8 -10.667 -20.667 -16 -38 -16h-414c-28.667 0 -43 12 -43 36z" />
    <glyph glyph-name="F" unicode="F" horiz-adv-x="611" 
d="M99 37c0 3.33301 1.67188 12.332 5.00488 26.999l122 574c0 1.33301 0.5 4.33301 1.5 9s1.66699 7.83398 2 9.50098s1.16602 4.5 2.49902 8.5s2.66602 6.83301 3.99902 8.5l5.5 7c2.33301 3 5 5 8 6s6.5 2 10.5 3s8.66699 1.5 14 1.5h382c31.333 0 47 -12 47 -36
c0 -17.333 -3.66699 -33.333 -11 -48c-6.66699 -12 -20.334 -18.667 -41.001 -20l-291 3h-1l-41 -197h232c28.667 0 43 -12.667 43 -38c0 -38 -16 -57 -48 -57h-247l-53 -248c-2.66699 -12.667 -4.83398 -21.5 -6.50098 -26.5s-5.83398 -10.167 -12.501 -15.5s-16 -8 -28 -8
h-54c-12 0 -21.667 2.5 -29 7.5s-11.833 9.83301 -13.5 14.5s-2.5 9.66699 -2.5 15z" />
    <glyph glyph-name="G" unicode="G" horiz-adv-x="733" 
d="M121 232c0 61.333 11.8291 127.835 35.4961 199.502s59.5 130.167 107.5 175.5c76 72.667 179.333 109 310 109c74.667 0 139.667 -14 195 -42c12.667 -5.33301 19 -12 19 -20c0 -4.66699 -13 -39.334 -39 -104.001c-2.66699 -6 -6 -10 -10 -12l-6 -1
c-4 1.33301 -12.167 9 -24.5 23s-30.5 26.833 -54.5 38.5s-55.333 17.5 -94 17.5c-45.333 0 -86 -8.66699 -122 -26s-64.5 -39.166 -85.5 -65.499s-38.5 -56.833 -52.5 -91.5s-23.5 -67.334 -28.5 -98.001s-7.5 -60.667 -7.5 -90c0 -111.333 59.667 -167 179 -167
c18.667 0 51.334 4 98.001 12h1l29 138h-75c-11.333 0.666992 -17 6 -17 16c0 4 3.66699 22.667 11 56c1.33301 7.33301 3.33301 12.666 6 15.999s5.16699 5.33301 7.5 6s6.5 1 12.5 1h180c8 0 13.333 -0.166992 16 -0.5s5.33398 -1.5 8.00098 -3.5s4 -5.33301 4 -10
c0 -4 -0.333008 -7.33301 -1 -10l-53 -250c-1.33301 -8 -3.16602 -13.5 -5.49902 -16.5s-7.16602 -6.16699 -14.499 -9.5c-74.667 -30 -150.667 -45 -228 -45c-32 0 -61.667 2.16699 -89 6.5s-54.333 12.5 -81 24.5s-49.5 27.333 -68.5 46s-34.167 43 -45.5 73
s-17 64.667 -17 104z" />
    <glyph glyph-name="H" unicode="H" horiz-adv-x="794" 
d="M99 37c0 4.66699 1.33203 12.335 3.99902 23.002l126 594c3.33301 14.667 8.33301 25 15 31s17.334 9 32.001 9h54c16.667 0 28 -3.83301 34 -11.5s9 -15.834 9 -24.501c0 -6 -17.333 -89 -52 -249h324l26 126c17.333 85.333 29.666 133.666 36.999 144.999
c6.66699 9.33301 18.667 14 36 14h53c12 0 21.5 -2.5 28.5 -7.5s11.333 -9.83301 13 -14.5s2.5 -9.66699 2.5 -15s-1.33301 -13.333 -4 -24l-126 -593c-2.66699 -14 -7.16699 -24.167 -13.5 -30.5s-17.166 -9.5 -32.499 -9.5h-55c-16 0 -27.167 4 -33.5 12
s-9.5 16.333 -9.5 25c0 3.33301 1.66699 12.333 5 27l53 250h-324l-56 -265c-2 -12 -3.83301 -20.5 -5.5 -25.5s-6 -10.167 -13 -15.5s-16.833 -8 -29.5 -8h-54c-12 0 -21.5 2.5 -28.5 7.5s-11.333 9.83301 -13 14.5s-2.5 9.66699 -2.5 15z" />
    <glyph glyph-name="I" unicode="I" horiz-adv-x="325" 
d="M100 37c0 6.66699 1.33301 16.002 4 28.002l124 583c4.66699 21.333 10.167 34.333 16.5 39s17.166 7 32.499 7h50c30.667 0 46 -12.333 46 -37c0 -3.33301 -1.66699 -12.666 -5 -27.999l-124 -584c-3.33301 -14.667 -7.66602 -25.334 -12.999 -32.001
s-10 -10.334 -14 -11.001s-11.333 -1.33398 -22 -2.00098h-50c-30 -0 -45 12.333 -45 37z" />
    <glyph glyph-name="J" unicode="J" horiz-adv-x="519" 
d="M53 33c0 1.33301 11 30.667 33 88c4 12.667 9.33301 19 16 19c3.33301 0 7.33301 -3.16699 12 -9.5l16 -21.5c6 -8 16 -15.167 30 -21.5s30.333 -9.5 49 -9.5c22.667 0 43.5 4.5 62.5 13.5s32.5 21.833 40.5 38.5c1.33301 2.66699 11.666 49.334 30.999 140.001l82 382
c4.66699 19.333 10.167 31.166 16.5 35.499s16.5 6.5 30.5 6.5h50c29.333 0 44 -12 44 -36c0 -0.666992 -1 -7 -3 -19l-106 -501c-13.333 -51.333 -40.166 -90.833 -80.499 -118.5s-88.166 -41.5 -143.499 -41.5c-40.667 0 -80.834 6.33301 -120.501 19
s-59.5 24.667 -59.5 36z" />
    <glyph glyph-name="K" unicode="K" horiz-adv-x="764" 
d="M99 37c0 2 1.33301 9.66699 4 23l127 595c3.33301 16.667 8.66602 27.334 15.999 32.001s17.333 7 30 7h40c11.333 0 20.833 -3.5 28.5 -10.5s11.5 -15.833 11.5 -26.5c0 -2.66699 -0.333008 -5.66699 -1 -9l-1 -5l-59 -275l388 303c20.667 15.333 43 23 67 23h66
c12.667 -0.666992 20.334 -6.33398 23.001 -17.001c0 -2.66699 -0.5 -5.16699 -1.5 -7.5s-2 -4.33301 -3 -6s-2.83301 -3.66699 -5.5 -6s-4.5 -4 -5.5 -5s-3.5 -3 -7.5 -6s-7 -5.16699 -9 -6.5l-302 -236l192 -353c6 -12 9 -20.333 9 -25c0 -17.333 -12 -26 -36 -26h-60
c-12 0 -21.167 1.66699 -27.5 5s-12.833 11 -19.5 23l-160 296l-140 -109l-20 -95c-10.667 -56 -19 -90 -25 -102s-18.667 -18 -38 -18h-39c-14 -0 -24.5 3.83301 -31.5 11.5s-10.5 16.167 -10.5 25.5z" />
    <glyph glyph-name="L" unicode="L" horiz-adv-x="580" 
d="M99 37c0 2 1.66797 10.668 5.00098 26.001l126 592c3.33301 15.333 8.5 25.666 15.5 30.999s17.167 8 30.5 8h53c28.667 0 43 -12.667 43 -38c0 -6.66699 -0.333008 -11.667 -1 -15l-115 -539c130 2 211.333 3 244 3h5c28.667 0 43 -12 43 -36
c0 -14 -3.33301 -29.333 -10 -46c-6.66699 -15.333 -20.334 -23 -41.001 -23h-354c-12 0 -21.5 2.5 -28.5 7.5s-11.333 9.83301 -13 14.5s-2.5 9.66699 -2.5 15z" />
    <glyph glyph-name="M" unicode="M" horiz-adv-x="978" 
d="M99 36c0 2 0.166016 3.83105 0.499023 5.49805s0.833008 3.66699 1.5 6s1 4.16602 1 5.49902l128 603c3.33301 16.667 8.83301 27.167 16.5 31.5s17.5 6.5 29.5 6.5h91c12 0 21.667 -1.33301 29 -4s13 -7.33398 17 -14.001s6.5 -11.834 7.5 -15.501s2.5 -10.5 4.5 -20.5
l64 -331c17.333 -94 26.666 -147.667 27.999 -161c20.667 44 120 206.667 298 488c0 0.666992 0.833008 2.33398 2.5 5.00098l4.5 7c1.33301 2 3.33301 4.83301 6 8.5s5.16699 6.83398 7.5 9.50098s5.33301 5.66699 9 9s7.33398 6 11.001 8s8 4 13 6s10.167 3.33301 15.5 4
l21 1h77c16 0 27 -4 33 -12s9 -16 9 -24l-3 -21l-125 -588c0 -1.33301 -0.833008 -5.16602 -2.5 -11.499s-2.66699 -10 -3 -11s-1.33301 -3.83301 -3 -8.5s-3.5 -7.5 -5.5 -8.5s-4.66699 -2.5 -8 -4.5s-7.5 -3.33301 -12.5 -4s-10.5 -1 -16.5 -1h-30c-30 0 -45 12 -45 36
c0 2 0.166992 3.83301 0.5 5.5s0.833008 3.66699 1.5 6s1 4.16602 1 5.49902l108 512c-12.667 -26.667 -45 -81.667 -97 -165l-201 -325c-13.333 -20.667 -25.333 -34.667 -36 -42s-26.334 -11 -47.001 -11h-20c-15.333 0 -27.166 2.83301 -35.499 8.5
s-13.5 11.334 -15.5 17.001s-4.33301 14.834 -7 27.501l-57 299c-17.333 92.667 -27.666 156 -30.999 190l-108 -510c-6 -25.333 -11.333 -40.333 -16 -45c-6.66699 -6 -18.667 -9 -36 -9h-31c-12 0 -21.5 2.33301 -28.5 7s-11.333 9.33398 -13 14.001s-2.5 9.66699 -2.5 15
z" />
    <glyph glyph-name="N" unicode="N" horiz-adv-x="794" 
d="M100 36c0 4.66699 0.670898 10.9941 2.00391 18.9941l128 601c3.33301 15.333 8.66602 25.5 15.999 30.5s17.333 7.5 30 7.5h100c12 0 22 -1.16699 30 -3.5s14.333 -6.83301 19 -13.5s7.83398 -12 9.50098 -16s4.16699 -11.333 7.5 -22l161 -519l112 525
c2 10 3.66699 16.833 5 20.5s3.66602 8.33398 6.99902 14.001s8 9.5 14 11.5s13.667 3 23 3h31c30.667 0 46 -12 46 -36c0 -2.66699 -0.666992 -6.66699 -2 -12s-2 -8.66602 -2 -9.99902l-125 -589c0 -1.33301 -0.5 -3.83301 -1.5 -7.5s-1.66699 -6.16699 -2 -7.5
s-1 -3.66602 -2 -6.99902s-2 -5.66602 -3 -6.99902l-4 -5.5c-1.66699 -2.33301 -3.5 -4 -5.5 -5s-4.5 -2.16699 -7.5 -3.5s-6.33301 -2.33301 -10 -3s-7.83398 -1 -12.501 -1h-102c-12 0 -21.833 1.33301 -29.5 4s-13.834 7.33398 -18.501 14.001s-7.5 11.167 -8.5 13.5
s-2.83301 7.5 -5.5 15.5l-163 528l-111 -523c0 -1.33301 -0.5 -4.16602 -1.5 -8.49902s-1.66699 -7 -2 -8s-1 -3.33301 -2 -7s-1.83301 -6 -2.5 -7s-1.66699 -3 -3 -6s-2.83301 -4.83301 -4.5 -5.5s-3.66699 -2 -6 -4s-4.83301 -3.16699 -7.5 -3.5
s-5.83398 -0.833008 -9.50098 -1.5s-7.5 -1 -11.5 -1h-32c-29.333 0 -44 12 -44 36z" />
    <glyph glyph-name="O" unicode="O" horiz-adv-x="794" 
d="M118 217c0 52.667 9.66602 112.666 28.999 179.999c60.667 212.667 195 319 403 319c28.667 0 55.334 -2.16699 80.001 -6.5s49 -12.166 73 -23.499s44.333 -25.833 61 -43.5s30.167 -41 40.5 -70s15.5 -62.5 15.5 -100.5c0 -44 -7.5 -98 -22.5 -162
s-38.833 -120.333 -71.5 -169c-73.333 -108.667 -185.333 -163 -336 -163c-181.333 0 -272 79.667 -272 239zM259.999 220.999c0 -59.333 14.168 -101.166 42.501 -125.499s63.833 -36.5 106.5 -36.5c128.667 0 213 94 253 282c0.666992 4 1.33398 7 2.00098 9
c12.667 61.333 19 105.666 19 132.999c0 56.667 -14.333 96.667 -43 120s-64.667 35 -108 35c-128.667 0 -212.334 -88.333 -251.001 -265c0 -2 -0.333008 -4.66699 -1 -8s-1.33398 -6 -2.00098 -8c-12 -60 -18 -105.333 -18 -136z" />
    <glyph glyph-name="P" unicode="P" horiz-adv-x="703" 
d="M99 36c0 4.66699 1.33398 12.333 4.00098 23l125 589c3.33301 16.667 8 28.5 14 35.5s17 10.5 33 10.5h232c54 0 98.5 -4.5 133.5 -13.5s62.5 -27.167 82.5 -54.5c17.333 -24 26 -54 26 -90c0 -38 -7.83301 -75.833 -23.5 -113.5s-38.5 -68.5 -68.5 -92.5
c-32.667 -26.667 -68 -43.667 -106 -51s-84.333 -11 -139 -11h-121c-34.667 -163.333 -53.334 -247 -56.001 -251c-8 -11.333 -20 -17 -36 -17h-55c-30 0 -45 12 -45 36zM305.001 346.999h112c23.333 0 42.333 0.666992 57 2s32.167 6 52.5 14s36.833 20 49.5 36
c13.333 16.667 23 38 29 64s9 46.667 9 62c0 32.667 -11 54.667 -33 66s-54.333 17 -97 17h-123z" />
    <glyph glyph-name="Q" unicode="Q" horiz-adv-x="794" 
d="M118 217c0 54.667 10.667 118.673 32 192.006s53.666 134.666 96.999 183.999c72 82 172.667 123 302 123c180.667 0 271 -81 271 -243c0 -30.667 -3.33301 -64.834 -10 -102.501s-17.334 -78.834 -32.001 -123.501s-37.167 -87 -67.5 -127s-66.166 -71 -107.499 -93
c5.33301 -10 11 -20 17 -30l14 -24l10 -18l7.5 -13.5l5 -9c1.66699 -3 2.66699 -5.5 3 -7.5s0.5 -3.66699 0.5 -5c0 -16.667 -12 -25 -36 -25h-74c-1.33301 0 -2.66602 -0.166992 -3.99902 -0.5s-2.66602 -0.5 -3.99902 -0.5c-15.333 0 -26 3.33301 -32 10s-16 25 -30 55
l-11 24c-30 -3.33301 -57 -5 -81 -5c-28.667 0 -55.334 2 -80.001 6s-49 11.667 -73 23s-44.333 25.666 -61 42.999s-30.167 40.166 -40.5 68.499s-15.5 61.166 -15.5 98.499zM255 211.006c0.666992 -56.667 15.5029 -96.666 44.5029 -119.999s65.167 -35 108.5 -35
c11.333 0 19.666 0.333008 24.999 1c-32.667 69.333 -49 106.333 -49 111c0 6.66699 3.16699 12.834 9.5 18.501s16.166 8.5 29.499 8.5h65c10 0 17.167 -2.33301 21.5 -7s13.5 -19.334 27.5 -44.001c7.33301 -14 13.666 -25.333 18.999 -34c30.667 26 56.5 67 77.5 123
s34.667 104.5 41 145.5s9.5 73.5 9.5 97.5c0 59.333 -14.5 101.166 -43.5 125.499s-65.167 36.5 -108.5 36.5c-80 0 -141.167 -31.5 -183.5 -94.5s-72.5 -158.5 -90.5 -286.5l-2 -26z" />
    <glyph glyph-name="R" unicode="R" horiz-adv-x="703" 
d="M99 36c0 1.33301 1 7.00293 3 17.0029l126 594c2 11.333 4 19.5 6 24.5s6.33301 10 13 15s16 7.5 28 7.5h220c36 0 65.667 -1 89 -3s49.333 -8.33301 78 -19s50.334 -26.334 65.001 -47.001c16 -22.667 24 -50.667 24 -84c0 -10.667 -0.833008 -22 -2.5 -34
s-6.5 -28.167 -14.5 -48.5s-18.5 -38.833 -31.5 -55.5s-32.833 -32.834 -59.5 -48.501s-58 -27.167 -94 -34.5l104 -271c2.66699 -8 4.33398 -14.333 5.00098 -19c-2 -20 -13.333 -30 -34 -30h-62c-12.667 0 -21.834 1.66699 -27.501 5s-10.834 10.333 -15.501 21l-104 285
h-117l-58 -272c-4 -16 -9.5 -26.5 -16.5 -31.5s-16.833 -7.5 -29.5 -7.5h-49c-16.667 0 -28.5 3.66699 -35.5 11s-10.5 15.666 -10.5 24.999zM313 384.003l117 0.00195312c24.667 0 45 1 61 3s32.833 6.16699 50.5 12.5s32 16.666 43 30.999s19.5 33.166 25.5 56.499
c4 18 6 33 6 45c0 30 -10.667 50.167 -32 60.5s-53.333 15.5 -96 15.5h-127z" />
    <glyph glyph-name="S" unicode="S" horiz-adv-x="611" 
d="M62 60c0 7.33301 13.6699 43.6709 41.0029 109.004c3.33301 6 7 9 11 9c3.33301 0 10.166 -4.83301 20.499 -14.5s22.166 -20.167 35.499 -31.5s33.666 -21.833 60.999 -31.5s58 -14.5 92 -14.5c30 0 55.333 5 76 15s35.334 22.5 44.001 37.5s14.5 27.833 17.5 38.5
s4.5 20.334 4.5 29.001c0 32.667 -16.333 55.667 -49 69c-6.66699 3.33301 -27.334 8.83301 -62.001 16.5s-57.667 13.5 -69 17.5c-33.333 12 -61.833 31.833 -85.5 59.5s-35.5 61.167 -35.5 100.5c0 14 1.5 29.167 4.5 45.5s10.5 37.166 22.5 62.499
s27.833 47.666 47.5 66.999s48.334 36.166 86.001 50.499s81.5 21.5 131.5 21.5c68.667 0 129 -15 181 -45c9.33301 -5.33301 14 -11 14 -17c0 -1.33301 -12.333 -34 -37 -98c-4.66699 -10.667 -9.33398 -17 -14.001 -19c-6 0.666992 -12.5 5 -19.5 13l-22.5 26
c-8 9.33301 -21.667 17.833 -41 25.5s-42.666 11.5 -69.999 11.5c-34.667 0 -64 -4.33301 -88 -13s-42 -26.667 -54 -54c-5.33301 -11.333 -8 -23.333 -8 -36c0 -30 17 -51.333 51 -64c8 -3.33301 29.5 -8.33301 64.5 -15s65.5 -16.834 91.5 -30.501
s47.667 -34.167 65 -61.5c18 -28.667 27 -61 27 -97c0 -14.667 -1.66699 -31 -5 -49s-11.166 -40.333 -23.499 -67s-28.333 -50.334 -48 -71.001s-48.334 -38.667 -86.001 -54s-80.834 -23 -129.501 -23c-56 0 -109.333 9.83301 -160 29.5s-78 37.167 -82 52.5z" />
    <glyph glyph-name="T" unicode="T" horiz-adv-x="733" 
d="M172 621c0 14 3.00098 28.667 9.00098 44c6.66699 16 21 24 43 24h562c30 0 45 -12.333 45 -37c0 -14.667 -3 -29.667 -9 -45c-6.66699 -15.333 -20.667 -23 -42 -23c-56.667 0 -129 1 -217 3l-115 -542c-2 -11.333 -3.83301 -19.333 -5.5 -24
s-6.16699 -9.33398 -13.5 -14.001s-17.333 -7 -30 -7h-51c-29.333 0 -44 12 -44 36c0 4 0.666992 10.667 2 20l113 531c-44.667 -0.666992 -82.334 -1.16699 -113.001 -1.5s-51 -0.666016 -61 -0.999023s-17.333 -0.5 -22 -0.5c-34 0 -51 12.333 -51 37z" />
    <glyph glyph-name="U" unicode="U" horiz-adv-x="764" 
d="M134 172c0 18.667 6.33008 58.998 18.9971 120.998l77 362c2.66699 12.667 7.16699 22 13.5 28s11.166 9.16699 14.499 9.5s10 0.833008 20 1.5h50c30 0 45 -12.333 45 -37c0 -6 -1.33301 -15 -4 -27l-82 -385c-8.66699 -43.333 -13 -73.333 -13 -90
c0 -30 8.33301 -52.667 25 -68s46.667 -23 90 -23c31.333 0 58.666 4.5 81.999 13.5s41.5 19.333 54.5 31s24.5 28 34.5 49s16.833 38.667 20.5 53s8.16699 33.5 13.5 57.5c0.666992 4.66699 1.33398 8 2.00098 10l80 377c3.33301 16.667 8.5 27.334 15.5 32.001
s17.833 7 32.5 7h44c12 0 21.5 -2.66699 28.5 -8s11.167 -10.333 12.5 -15s2 -9 2 -13c0 -3.33301 -0.666992 -8.33301 -2 -15l-86 -403c-5.33301 -24 -11.166 -45.5 -17.499 -64.5s-17.666 -41.667 -33.999 -68s-35.666 -48.166 -57.999 -65.499
s-53.166 -32.333 -92.499 -45s-84 -19 -134 -19h-11c-16 0 -31.5 0.666992 -46.5 2s-35.333 5.66602 -61 12.999s-47.5 17.333 -65.5 30s-34 31.834 -48 57.501s-21 56.167 -21 91.5z" />
    <glyph glyph-name="V" unicode="V" horiz-adv-x="733" 
d="M169 661c0 4.66699 0.831055 9.16504 2.49805 13.498s5.66699 8.66602 12 12.999s14.833 6.5 25.5 6.5h56c8.66699 0 16.167 -1 22.5 -3s11.333 -4.16699 15 -6.5s6.66699 -6.16602 9 -11.499s4 -9.5 5 -12.5s2 -8.33301 3 -16s1.83301 -12.5 2.5 -14.5l67 -430l10 -75
l27 50l283 486l9 12c16.667 14 34.667 21 54 21h44c20.667 0 31 -7 31 -21c0 -4.66699 -2.33301 -11.667 -7 -21l-346 -594c-8.66699 -15.333 -15.667 -26.166 -21 -32.499s-13.333 -12.166 -24 -17.499s-23.667 -8 -39 -8h-91c-15.333 0 -27.166 3 -35.499 9
s-14.166 18.333 -17.499 37l-96 602c-0.666992 2.66699 -1 7 -1 13z" />
    <glyph glyph-name="W" unicode="W" horiz-adv-x="1039" 
d="M165 655c0 26 14.9941 39.0049 44.9941 39.0049h35c15.333 0 28 -5 38 -15c4.66699 -6.66699 8 -20.334 10 -41.001c0 -5.33301 5 -97.333 15 -276c4 -79.333 7 -158.333 9 -237c8.66699 24.667 89.334 195.667 242.001 513c6.66699 13.333 11.5 22.5 14.5 27.5
s9.83301 11 20.5 18s23.334 10.5 38.001 10.5h71c6.66699 0 12.334 -0.333008 17.001 -1s8.83398 -2.16699 12.501 -4.5s6.66699 -4.66602 9 -6.99902s4.33301 -6.33301 6 -12s3 -10.834 4 -15.501s1.83301 -11.667 2.5 -21s1 -17.833 1 -25.5s0.333008 -18.334 1 -32.001
s1.33398 -26.167 2.00098 -37.5l16 -295l6 -118c17.333 39.333 45 98.333 83 177l166 345c8.66699 18 18.167 30.333 28.5 37s24.166 10 41.499 10h25c21.333 0 32 -7.66699 32 -23c0 -3.33301 -3.66699 -13.333 -11 -30l-286 -593
c-8.66699 -18.667 -18.167 -31.334 -28.5 -38.001s-23.5 -10 -39.5 -10h-78c-11.333 0 -20.333 1.33301 -27 4s-11.5 7.16699 -14.5 13.5s-4.66699 11.5 -5 15.5s-0.833008 10.333 -1.5 19l-21 381l-7 136l-244 -510c-12 -24.667 -23 -40.667 -33 -48s-25.667 -11 -47 -11
h-64c-19.333 0 -32.166 3.83301 -38.499 11.5s-10.166 19.5 -11.499 35.5l-33 594c0 1.33301 -0.166992 3.66602 -0.5 6.99902s-0.5 5.66602 -0.5 6.99902z" />
    <glyph glyph-name="X" unicode="X" horiz-adv-x="733" 
d="M42 19c0 7.33301 4.99805 15.999 14.998 25.999l305 323l-156 275c-7.33301 12.667 -10.333 22 -9 28c2.66699 15.333 14.334 23 35.001 23h86c13.333 0 22.833 -2.16699 28.5 -6.5s11.5 -12.166 17.5 -23.499l96 -180l93 102c46.667 51.333 75.667 82.166 87 92.499
s22 15.5 32 15.5h93c17.333 0 26 -6.66699 26 -20c0 -6 -5.33301 -14.667 -16 -26l-265 -281l178 -316c6.66699 -13.333 10 -21.666 10 -24.999c0 -13.333 -8 -21.666 -24 -24.999l-13 -1h-85c-4 0 -7.5 0.166992 -10.5 0.5s-5.83301 1 -8.5 2l-6.5 2.5
c-1.66699 0.666992 -3.83398 2.5 -6.50098 5.5s-4.66699 5.5 -6 7.5s-3.33301 5.66699 -6 11s-5 9.66602 -7 12.999s-5 9 -9 17s-7.33301 15 -10 21l-92 184l-205 -229c-13.333 -14.667 -23.666 -24.167 -30.999 -28.5s-17.666 -6.5 -30.999 -6.5h-75
c-20 -0 -30 6.33301 -30 19z" />
    <glyph glyph-name="Y" unicode="Y" horiz-adv-x="733" 
d="M167 667c0 3.33301 0.666016 6.66797 1.99902 10.001s5 7 11 11s14 6 24 6h67c29.333 0 50.666 -9.66699 63.999 -29c3.33301 -5.33301 22.833 -44.833 58.5 -118.5s57.5 -121.5 65.5 -143.5c12 17.333 82.333 96.333 211 237c20.667 22 37.834 36.5 51.501 43.5
s30.834 10.5 51.501 10.5h51c14 0 23 -6.33301 27 -19c-2 -8.66699 -7.33301 -17.667 -16 -27l-334 -365c-4 -5.33301 -8.16699 -16.833 -12.5 -34.5s-18.5 -84.167 -42.5 -199.5c-3.33301 -18 -9.16602 -30.667 -17.499 -38s-20.5 -11 -36.5 -11h-50
c-10.667 0 -17.834 1 -21.501 3s-8.16699 6.33301 -13.5 13c-2 4 -3 8.33301 -3 13c0 8.66699 17.333 91.667 52 249l-179 361c-6.66699 13.333 -10 22.666 -10 27.999z" />
    <glyph glyph-name="Z" unicode="Z" horiz-adv-x="672" 
d="M68 29c0 13.333 2.00098 25.5 6.00098 36.5s8 18.5 12 22.5l6 7l471 503l-307 -3h-3c-28.667 0 -43 12 -43 36c0 12.667 3 26 9 40c6.66699 15.333 20 23 40 23h458c22 0 33 -9.66699 33 -29c0 -12.667 -2 -24.334 -6 -35.001s-8 -18 -12 -22l-7 -7l-468 -499
c158.667 2 264.667 3 318 3c16 0 27 -1 33 -3c14.667 -6.66699 22 -17.667 22 -33s-3 -30.666 -9 -45.999c-6.66699 -15.333 -20.334 -23 -41.001 -23h-474c-25.333 0 -38 9.66699 -38 29z" />
    <glyph glyph-name="bracketleft" unicode="[" horiz-adv-x="343" 
d="M40 -213c0 0.666992 1 7 3 19l192 903c2 9.33301 4 16.5 6 21.5s6.5 9.5 13.5 13.5s16.5 6 28.5 6h142c30 0 45 -12 45 -36c0 -4.66699 -0.833008 -9.5 -2.5 -14.5s-6.16699 -10 -13.5 -15s-17 -7.5 -29 -7.5h-61l-182 -854h42c12.667 0 22 -1.33301 28 -4
c14 -7.33301 21 -18 21 -32c0 -5.33301 -0.833008 -10.333 -2.5 -15s-6.16699 -9.5 -13.5 -14.5s-17 -7.5 -29 -7.5h-144c-16.667 0 -28.167 4 -34.5 12s-9.5 16.333 -9.5 25z" />
    <glyph glyph-name="backslash" unicode="\" 
d="M212 713c0 11.333 3.66797 20.332 11.001 26.999s15.666 10 24.999 10c10 0 18.167 -3.5 24.5 -10.5s10.166 -13.167 11.499 -18.5s2 -9 2 -11l153 -901c2 -14 3 -21.333 3 -22c0 -10.667 -3.5 -19.5 -10.5 -26.5s-15.5 -10.5 -25.5 -10.5s-18.167 3.33301 -24.5 10
s-10.166 13.334 -11.499 20.001l-1 9l-154 901c-2 14 -3 21.667 -3 23z" />
    <glyph glyph-name="bracketright" unicode="]" horiz-adv-x="343" 
d="M-21 -214c0 4.66699 0.833008 9.49805 2.5 14.498s6.16699 10 13.5 15s17 7.5 29 7.5h62l181 854h-41c-13.333 0 -23 1.33301 -29 4c-13.333 6.66699 -20 17.334 -20 32.001c0 24.667 15 37 45 37h143c12 0 21.5 -2.5 28.5 -7.5s11.333 -10 13 -15
s2.5 -9.83301 2.5 -14.5c0 -2.66699 -0.5 -6.16699 -1.5 -10.5s-1.5 -7.16602 -1.5 -8.49902l-192 -903c-2 -10 -4 -17.333 -6 -22s-6.5 -9 -13.5 -13s-16.5 -6 -28.5 -6h-142c-30 0 -45 12 -45 36z" />
    <glyph glyph-name="asciicircum" unicode="^" horiz-adv-x="672" 
d="M270 471c0 4 8.00098 14.6641 24.001 31.9971c4 3.33301 11 10.333 21 21l90 96c9.33301 9.33301 18.333 14 27 14h72c7.33301 0 12.333 -0.833008 15 -2.5s6 -6.16699 10 -13.5c48 -96 72 -145.333 72 -148c-2 -6 -5.33301 -9.66699 -10 -11
c-2 -0.666992 -4.33301 -1 -7 -1h-33c-8.66699 0.666992 -16.334 4.33398 -23.001 11.001c-2.66699 2.66699 -27 30.667 -73 84l-30.5 -24l-25 -19.5l-19 -15.5c-6.33301 -5.33301 -11.5 -9.5 -15.5 -12.5l-12 -9c-4 -3 -7 -5.16699 -9 -6.5
s-4.16699 -2.66602 -6.5 -3.99902s-4.33301 -2.16602 -6 -2.49902l-5 -1c-1.66699 -0.333008 -3.5 -0.5 -5.5 -0.5h-28c-15.333 0 -23 4.33301 -23 13z" />
    <glyph glyph-name="underscore" unicode="_" horiz-adv-x="855" 
d="M30 -294c0 5.33301 0.834961 10.667 2.50195 16s6.5 11 14.5 17s18.667 9 32 9h571c13.333 0 24.166 -3 32.499 -9s13.333 -11.667 15 -17s2.5 -10.666 2.5 -15.999s-1 -10.833 -3 -16.5s-6.83301 -11.334 -14.5 -17.001s-17.834 -8.5 -30.501 -8.5h-572
c-33.333 0 -50 14 -50 42z" />
    <glyph glyph-name="grave" unicode="`" 
d="M249 665c0.666992 9.33301 7.66699 14.001 21 14.001h93c9.33301 -0.666992 16.5 -4.5 21.5 -11.5s26.833 -44.5 65.5 -112.5l4 -10l1 -4c-2 -8.66699 -8.33301 -13 -19 -13h-35c-4.66699 0 -9.5 1.83301 -14.5 5.5s-20.167 17.5 -45.5 41.5l-77 71
c-10 9.33301 -15 15.666 -15 18.999z" />
    <glyph glyph-name="a" unicode="a" horiz-adv-x="525" 
d="M56 109c0 34.667 10.5068 64.502 31.5068 89.502s48.833 43.833 83.5 56.5s70 21.834 106 27.501s73.667 8.5 113 8.5c6.66699 35.333 10 57 10 65c0 32 -18 48 -54 48c-24.667 0 -48.5 -3.5 -71.5 -10.5s-40.833 -14.5 -53.5 -22.5s-24.334 -15.833 -35.001 -23.5
s-17.334 -11.834 -20.001 -12.501c-8.66699 0 -13 5.33301 -13 16c0 4.66699 2.33301 24 7 58c1.33301 10.667 3.33301 17.5 6 20.5s9 6.5 19 10.5c55.333 23.333 113.666 35 174.999 35h10c15.333 0 30.166 -1 44.499 -3s31.833 -6.5 52.5 -13.5s37.334 -19.5 50.001 -37.5
s19 -40.333 19 -67v-12c0 -0.666992 -0.333008 -4 -1 -10s-1.33398 -10.5 -2.00098 -13.5l-5 -23l-8.5 -38c-3 -13 -7.16699 -33 -12.5 -60l-18 -87.5l-5 -24.5c-2 -9.66699 -3.33301 -16.667 -4 -21s-1.83398 -9.83301 -3.50098 -16.5s-3 -11.5 -4 -14.5
s-2.33301 -6.66699 -4 -11s-3.33398 -7.33301 -5.00098 -9l-6 -6c-2.33301 -2.33301 -5 -3.83301 -8 -4.5s-6.33301 -1.33398 -10 -2.00098s-7.83398 -1 -12.501 -1h-48c-25.333 0 -39 13 -41 39c-54 -33.333 -108 -50 -162 -50c-38 0 -67.5 11.667 -88.5 35
s-31.5 51.666 -31.5 84.999zM188.007 118.002c0 -14 4 -26.833 12 -38.5s21.667 -17.5 41 -17.5c22 0 43.333 6 64 18s36 27.333 46 46c2.66699 5.33301 11 40.333 25 105c-67.333 -3.33301 -115.5 -16 -144.5 -38s-43.5 -47 -43.5 -75z" />
    <glyph glyph-name="b" unicode="b" horiz-adv-x="561" 
d="M68 37c0 3.33301 1.6709 12.334 5.00391 27.001l130 611c2.66699 11.333 5 19.666 7 24.999s6.33301 10.333 13 15s16 7 28 7h43c30 0 45 -12 45 -36c0 -8 -17.667 -93 -53 -255c49.333 25.333 97.666 38 144.999 38c43.333 0 79.5 -11.5 108.5 -34.5
s43.5 -62.5 43.5 -118.5l-1 -25c-22.667 -201.333 -113.334 -302 -272.001 -302c-40 0 -75.667 13 -107 39c-4.66699 -10.667 -9.83398 -18 -15.501 -22s-14.834 -6 -27.501 -6h-42c-33.333 -0 -50 12.333 -50 37zM218.004 98.001c17.333 -24 39.668 -35.999 67.001 -35.999
c18.667 0 35.667 2.5 51 7.5s28 13 38 24s18.333 20.667 25 29s12.5 20.666 17.5 36.999s8.16699 27 9.5 32s3.66602 14.5 6.99902 28.5c10.667 49.333 16 83 16 101c0 50 -25.333 75 -76 75c-31.333 0 -64.333 -12 -99 -36z" />
    <glyph glyph-name="c" unicode="c" horiz-adv-x="489" 
d="M76 156c0 17.333 3.99805 46.667 11.998 88c36.667 154 131.667 231 285 231c37.333 0 66.833 -3 88.5 -9s44.834 -16.667 69.501 -32l5 -5l3 -5v-5c-0.666992 -6.66699 -10 -30.667 -28 -72c-3.33301 -5.33301 -6.66602 -8 -9.99902 -8c-4 0 -13.333 6.83301 -28 20.5
s-28.667 22.834 -42 27.501c-16.667 6 -40.667 9 -72 9c-60 0 -101.333 -37 -124 -111c-4 -12.667 -10 -38.334 -18 -77.001c-4.66699 -22 -7 -41.667 -7 -59c0 -54.667 26 -82 78 -82c30 0 57.667 4.83301 83 14.5s46 20.167 62 31.5s25.667 17.333 29 18h3
c6.66699 -2.66699 10 -7 10 -13c0 -4 -2 -23.667 -6 -59c-1.33301 -10 -3.5 -16.5 -6.5 -19.5s-10.167 -7.16699 -21.5 -12.5c-55.333 -25.333 -111.333 -38 -168 -38c-63.333 0 -112 14 -146 42s-51 69.667 -51 125z" />
    <glyph glyph-name="d" unicode="d" horiz-adv-x="561" 
d="M75 145c0 36.667 7.16602 80.167 21.499 130.5s37.166 91.833 68.499 124.5c43.333 46 101 69 173 69c44 0 83.667 -12.333 119 -37l29 138c16.667 82 28.334 128.667 35.001 140c7.33301 8 19.333 12 36 12h45c16.667 0 28 -4 34 -12s9 -16 9 -24
c0 -4 -0.666992 -9.33301 -2 -16l-134 -631c-2 -7.33301 -3.83301 -13.333 -5.5 -18s-6 -9.33398 -13 -14.001s-15.833 -7 -26.5 -7h-47c-26 0 -41.333 10.667 -46 32c-48 -28.667 -92.667 -43 -134 -43c-45.333 0 -83.666 11.833 -114.999 35.5s-47 63.834 -47 120.501z
M208.999 135c0 -48.667 25 -72.999 75 -72.999c36 0 70 16 102 48c35.333 166 53 250.333 53 253c0 7.33301 -6.5 14.666 -19.5 21.999s-28.833 11 -47.5 11c-22 0 -41.667 -4.16699 -59 -12.5s-30.666 -17.333 -39.999 -27s-17.833 -23.167 -25.5 -40.5
s-12.334 -29.5 -14.001 -36.5l-7.5 -32.5c-11.333 -50 -17 -87.333 -17 -112z" />
    <glyph glyph-name="e" unicode="e" horiz-adv-x="511" 
d="M72 169c0 19.333 1.83301 40.001 5.5 62.001s11.834 48.167 24.501 78.5s28.834 57.166 48.501 80.499s48 43.333 85 60s79.5 25 127.5 25c64 0 109.667 -14.5 137 -43.5s41 -66.167 41 -111.5c0 -12.667 -2.33301 -34.667 -7 -66
c-2.66699 -12 -6.66699 -21.167 -12 -27.5s-10.333 -10 -15 -11s-11 -1.5 -19 -1.5h-284c-4.66699 -31.333 -7 -52 -7 -62c0 -28 7.16699 -50 21.5 -66s39.166 -24 74.499 -24c32 0 61.667 5.16699 89 15.5s49.5 21.166 66.5 32.499s26.833 17.333 29.5 18
c8.66699 -2 13 -7 13 -15c0 -3.33301 -2 -21 -6 -53c-1.33301 -10.667 -3.83301 -17.5 -7.5 -20.5s-14.834 -8.5 -33.501 -16.5c-51.333 -22.667 -104 -34 -158 -34c-27.333 0 -52.666 2.83301 -75.999 8.5s-45.833 14.834 -67.5 27.501s-38.834 31.167 -51.501 55.5
s-19 53.833 -19 88.5zM221 279.001h205c4 22.667 6 40 6 52c0 22.667 -5 40.167 -15 52.5s-28.333 18.5 -55 18.5c-66.667 0 -113.667 -41 -141 -123z" />
    <glyph glyph-name="f" unicode="f" horiz-adv-x="336" 
d="M93 36c0 0.666992 24.334 116.995 73.001 348.995c-30.667 0 -46 12.333 -46 37c0 24 15.333 36 46 36h17c1.33301 5.33301 4.16602 19.5 8.49902 42.5s7.5 38.833 9.5 47.5s6.5 23.334 13.5 44.001s13.833 35.834 20.5 45.501s16.334 21.834 29.001 36.501
s26.5 25.334 41.5 32.001s33.667 12.834 56 18.501s46.833 8.5 73.5 8.5c64 0 96 -8.66699 96 -26c0 -2 -4 -21.333 -12 -58c-3.33301 -16 -8.33301 -24.667 -15 -26h-3l-7 2c-18 23.333 -41.333 35 -70 35c-8 0 -15.167 -0.666992 -21.5 -2s-12 -2.83301 -17 -4.5
s-9.66699 -4.66699 -14 -9s-8 -8.16602 -11 -11.499s-6 -9 -9 -17s-5.5 -15 -7.5 -21s-4.33301 -15 -7 -27s-4.83398 -22.167 -6.50098 -30.5l-7.5 -37l-9 -42.5h46c29.333 0 44 -12 44 -36c0 -4.66699 -0.666992 -9.33398 -2 -14.001s-5.66602 -9.66699 -12.999 -15
s-17 -8 -29 -8h-58l-74 -345c-2 -8.66699 -4 -15.334 -6 -20.001s-6.33301 -9.16699 -13 -13.5s-15.334 -6.5 -26.001 -6.5h-45c-12 0 -21.667 2.5 -29 7.5s-11.833 9.83301 -13.5 14.5s-2.5 9.33398 -2.5 14.001z" />
    <glyph glyph-name="g" unicode="g" 
d="M8 -87c0 20.667 6.00391 41.8301 18.0039 63.4971s32.667 39.5 62 53.5c-8.66699 18.667 -13 36 -13 52c0 38.667 16 75.667 48 111v1c-13.333 18.667 -20 42 -20 70c0 15.333 1.5 30.833 4.5 46.5s9.66699 33.334 20 53.001s23.666 37 39.999 52
s39.166 27.667 68.499 38s63.333 15.5 102 15.5c58.667 -1.33301 101 -10.333 127 -27c58.667 18 104 27 136 27c14 0 21 -6.66699 21 -20c0 -23.333 -1 -38.5 -3 -45.5s-7 -10.5 -15 -10.5c-1.33301 0 -5.16602 0.333008 -11.499 1s-15 1.33398 -26 2.00098
s-22.833 1 -35.5 1c-11.333 0 -20 -0.333008 -26 -1c6.66699 -19.333 10 -37 10 -53c0 -14.667 -1.5 -29.667 -4.5 -45s-9.5 -33 -19.5 -53s-23.333 -37.5 -40 -52.5s-40.334 -27.833 -71.001 -38.5s-66 -16 -106 -16c-45.333 0 -82.333 7 -111 21c-6 -10.667 -9 -21 -9 -31
c0 -24 14 -36 42 -36h103c25.333 0 46.166 -0.5 62.499 -1.5s35.166 -3.66699 56.499 -8s38.333 -10.5 51 -18.5s23.5 -19.833 32.5 -35.5s13.5 -34.5 13.5 -56.5c0 -50 -17.5 -89.667 -52.5 -119s-82.5 -47.666 -142.5 -54.999l-31 -3l-39 -1h-29
c-142 0 -213 39.667 -213 119zM113.004 -77.0039c0 -38 43.334 -57 130.001 -57c59.333 0 101.666 7.83301 126.999 23.5s38 33.5 38 53.5c0 16 -10 26.667 -30 32s-56.667 8 -110 8h-79c-26.667 0 -45 -4.33301 -55 -13c-14 -11.333 -21 -27 -21 -47zM228.005 253.996
c0 -16 4.49902 -27.002 13.499 -33.002s22.167 -9.33301 39.5 -10h12c16 0.666992 29.5 3.33398 40.5 8.00098s19.5 11.667 25.5 21s10.333 18 13 26s5.66699 19 9 33c5.33301 30 8 48 8 54c0 14 -4.16699 24.833 -12.5 32.5s-23.166 11.5 -44.499 11.5
c-32 0 -54.167 -7.16699 -66.5 -21.5s-21.833 -36.166 -28.5 -65.499c-6 -34 -9 -52.667 -9 -56z" />
    <glyph glyph-name="h" unicode="h" horiz-adv-x="561" 
d="M67 37c0 2.66699 0.995117 8.99805 2.99512 18.998l133 625c1.33301 7.33301 3 13.5 5 18.5s6.16699 10 12.5 15s14.833 7.5 25.5 7.5h52c14 0 24.167 -3.83301 30.5 -11.5s9.5 -15.834 9.5 -24.501l-3 -21l-55 -259c53.333 42 109.666 63 168.999 63
c40 0 71.167 -7 93.5 -21s33.5 -38.333 33.5 -73c0 -3.33301 -0.166992 -6.66602 -0.5 -9.99902s-0.666016 -7 -0.999023 -11s-1 -9 -2 -15l-3 -17.5c-1 -5.66699 -2.66699 -13.667 -5 -24l-6.5 -30l-8 -39.5c-3.33301 -16.667 -6.66602 -32.5 -9.99902 -47.5l-13 -59.5
l-15 -71c0 -1.33301 -0.333008 -3.66602 -1 -6.99902l-1.5 -7.5c-0.333008 -1.66699 -1 -4 -2 -7s-1.83301 -5.16699 -2.5 -6.5s-1.66699 -3.16602 -3 -5.49902s-2.66602 -4.16602 -3.99902 -5.49902s-3.16602 -2.83301 -5.49902 -4.5s-4.66602 -2.83398 -6.99902 -3.50098
s-5.16602 -1.33398 -8.49902 -2.00098s-7 -1 -11 -1h-49c-12 0 -21.667 2.5 -29 7.5s-11.833 9.83301 -13.5 14.5s-2.5 9.33398 -2.5 14.001c0 5.33301 1.33301 13.333 4 24l56 263c3.33301 13.333 5 26 5 38c0 23.333 -15 35 -45 35c-27.333 0 -53.333 -9.5 -78 -28.5
s-42.667 -43.833 -54 -74.5c-1.33301 -4.66699 -19 -86 -53 -244c-2 -10 -3.5 -16.667 -4.5 -20s-3.33301 -8 -7 -14s-8.5 -10 -14.5 -12s-13.667 -3 -23 -3h-47c-16.667 0 -28.167 4.16699 -34.5 12.5s-9.5 16.5 -9.5 24.5z" />
    <glyph glyph-name="i" unicode="i" horiz-adv-x="255" 
d="M188 617c0 4.66699 2.49902 19.168 7.49902 43.501s8.83301 38.833 11.5 43.5c6.66699 11.333 20.334 17.666 41.001 18.999h51c18 0 30 -4 36 -12s9 -16 9 -24c0 -4.66699 -2.5 -19.5 -7.5 -44.5s-9.5 -40.167 -13.5 -45.5c-8 -11.333 -21 -17 -39 -17h-52
c-29.333 0 -44 12.333 -44 37zM67.999 37.001c0 3.33301 0.998047 9.99805 2.99805 19.998l77 361c3.33301 12.667 7.66602 22 12.999 28s9.83301 9.33301 13.5 10s10.834 1.33398 21.501 2.00098h42c30 0 45 -12 45 -36c0 -2.66699 -0.5 -6.5 -1.5 -11.5
s-1.5 -7.83301 -1.5 -8.5l-77 -362c-2.66699 -12.667 -7.16699 -22.167 -13.5 -28.5s-11.166 -9.66602 -14.499 -9.99902s-9.66602 -0.833008 -18.999 -1.5h-44c-29.333 0 -44 12.333 -44 37z" />
    <glyph glyph-name="j" unicode="j" horiz-adv-x="286" 
d="M-103 -158c0 3.33301 4.16699 13.832 12.5 31.499s15.5 26.5 21.5 26.5c1.33301 0 8.83301 -3.33301 22.5 -10s29.5 -10 47.5 -10c42 0 67.667 18.667 77 56l102 483c2.66699 12.667 7 22 13 28s10.667 9.16699 14 9.5s10 0.833008 20 1.5h47
c14 0 24.333 -3.83301 31 -11.5s10 -15.834 10 -24.501c0 -2 -0.166992 -3.83301 -0.5 -5.5s-0.833008 -3.66699 -1.5 -6s-1 -4.16602 -1 -5.49902l-93 -440c-12.667 -52 -33 -93.5 -61 -124.5s-69.333 -46.5 -124 -46.5c-27.333 0 -57 5.33301 -89 16
s-48 21.334 -48 32.001zM215 616.999c0 4.66699 2.49902 19.168 7.49902 43.501s8.83301 38.833 11.5 43.5c6.66699 11.333 20.334 17.666 41.001 18.999h51c18 0 30 -4 36 -12s9 -16 9 -24c0 -4.66699 -2.5 -19.5 -7.5 -44.5s-9.5 -40.167 -13.5 -45.5
c-8 -11.333 -21 -17 -39 -17h-52c-29.333 0 -44 12.333 -44 37z" />
    <glyph glyph-name="k" unicode="k" horiz-adv-x="530" 
d="M76 36c0 0.666992 1.00488 6.99805 3.00488 18.998l133 623c1.33301 8 2.66602 13.833 3.99902 17.5s3.66602 8 6.99902 13s8 8.5 14 10.5s13.667 3 23 3h25c30 0 45 -12 45 -36c0 -4.66699 -0.666992 -11 -2 -19l-77 -362l76 59c60 46.667 96.833 74 110.5 82
s30.834 12 51.501 12h1h59h5c3.33301 -0.666992 5.66602 -1.16699 6.99902 -1.5s3.33301 -1.16602 6 -2.49902s4.5 -3 5.5 -5s1.5 -4.66699 1.5 -8v-1c0 -6 -3.83301 -12.333 -11.5 -19s-35.834 -28.667 -84.501 -66l-108 -83l122 -224
c4.66699 -8.66699 7 -16.334 7 -23.001c0 -16.667 -11 -25 -33 -25h-56c-12.667 0 -22.167 1.83301 -28.5 5.5s-12.833 11.834 -19.5 24.501l-91 165l-55 -42l-11 -53c-8.66699 -44.667 -15.834 -72.5 -21.501 -83.5s-17.834 -16.5 -36.501 -16.5h-27
c-12 0 -21.5 2.5 -28.5 7.5s-11.333 9.83301 -13 14.5s-2.5 9.33398 -2.5 14.001z" />
    <glyph glyph-name="l" unicode="l" horiz-adv-x="255" 
d="M69 36c0 3.33301 0.671875 8.99902 2.00488 16.999l132 622c4.66699 21.333 10.167 34.5 16.5 39.5s17.166 7.5 32.499 7.5h47c13.333 0 23.333 -3.5 30 -10.5s10 -15.5 10 -25.5c0 -4 -0.666992 -9.33301 -2 -16l-132 -624
c-2.66699 -11.333 -5.33398 -20.166 -8.00098 -26.499s-6.83398 -10.833 -12.501 -13.5s-9.83398 -4.16699 -12.501 -4.5s-8.33398 -0.833008 -17.001 -1.5h-42c-29.333 0 -44 12 -44 36z" />
    <glyph glyph-name="m" unicode="m" horiz-adv-x="866" 
d="M67 37l6 29.999l76 361c5.33301 24 20.333 36 45 36h46c13.333 0 23.5 -3.66699 30.5 -11s10.5 -15.666 10.5 -24.999c0 -6 -1.33301 -14.333 -4 -25c54 44 111.333 66 172 66c38 0 66.833 -5.5 86.5 -16.5s32.834 -29.833 39.501 -56.5c53.333 48.667 113.333 73 180 73
c40 0 71.167 -7 93.5 -21s33.5 -38.333 33.5 -73c0 -4.66699 -0.166992 -9.33398 -0.5 -14.001s-1.33301 -11.5 -3 -20.5l-5 -26.5c-1.66699 -8.66699 -4.5 -22.5 -8.5 -41.5l-12 -55.5c-4 -18 -9.5 -44.167 -16.5 -78.5l-21.5 -101.5
c-3.33301 -13.333 -8.16602 -22.833 -14.499 -28.5s-16.5 -8.5 -30.5 -8.5h-45c-31.333 0 -47 12.333 -47 37c0 3.33301 1.66699 12.333 5 27l54 255c4.66699 18.667 7 32 7 40c0 13.333 -3.66699 22.833 -11 28.5s-19 8.5 -35 8.5c-29.333 0 -56.833 -10.833 -82.5 -32.5
s-42.834 -46.5 -51.501 -74.5c-13.333 -54.667 -26.666 -115.667 -39.999 -183c-9.33301 -48.667 -16.833 -78.5 -22.5 -89.5s-17.834 -16.5 -36.501 -16.5h-48c-12 0 -21.5 2.33301 -28.5 7s-11.333 9.33398 -13 14.001s-2.5 9.66699 -2.5 15c0 2.66699 0.5 6.5 1.5 11.5
s1.5 7.83301 1.5 8.5l57 268c3.33301 12 5 23.667 5 35c0 24.667 -15 37 -45 37c-32.667 0 -61.167 -11 -85.5 -33s-40.833 -46.667 -49.5 -74c-1.33301 -4.66699 -10.833 -49.167 -28.5 -133.5s-27.5 -128.5 -29.5 -132.5c-6.66699 -15.333 -20.334 -23 -41.001 -23h-47
c-30 -0 -45 12.333 -45 37z" />
    <glyph glyph-name="n" unicode="n" horiz-adv-x="561" 
d="M67 36c0 3.33301 0.665039 8.33301 1.99805 15l80 377c5.33301 24 20.333 36 45 36h42c29.333 0 44 -12.333 44 -37c0 -3.33301 -1 -11 -3 -23c54.667 43.333 112 65 172 65c40 0 71.167 -7 93.5 -21s33.5 -38.333 33.5 -73c0 -18 -12.667 -85.667 -38 -203l-28 -132
c-3.33301 -14 -8.16602 -24.167 -14.499 -30.5s-17.166 -9.5 -32.499 -9.5h-46c-29.333 0 -44 12 -44 36c0 3.33301 0.666992 9 2 17l56 267c4.66699 18.667 7 31.667 7 39c0 24.667 -15 37 -45 37c-29.333 0 -56.833 -10.833 -82.5 -32.5s-43.167 -47.5 -52.5 -77.5
l-52 -242c-4 -20 -10 -32.667 -18 -38c-7.33301 -4 -17 -6 -29 -6h-46c-30.667 0 -46 12 -46 36z" />
    <glyph glyph-name="o" unicode="o" 
d="M69 151c0 38.667 8.49707 83.165 25.4971 133.498s43.5 91.5 79.5 123.5c48.667 44 115.334 66 200.001 66c134.667 0 202 -56 202 -168c0 -17.333 -1.5 -35.666 -4.5 -54.999s-8 -41.666 -15 -66.999s-17.667 -49 -32 -71s-31.666 -42.5 -51.999 -61.5
s-46.666 -34.167 -78.999 -45.5s-68.5 -17 -108.5 -17h-11c-136.667 0 -205 54 -205 162zM203.997 145.998c0 -52.667 28 -79 84 -79c21.333 0 40 3.83301 56 11.5s28.833 16.667 38.5 27s18.5 26.166 26.5 47.499s14 40.333 18 57s8.66699 40.334 14 71.001
c2.66699 24 4 38.333 4 43c0 52 -28.667 78 -86 78c-48.667 0 -83 -16.667 -103 -50s-36.333 -89 -49 -167c-2 -22 -3 -35 -3 -39z" />
    <glyph glyph-name="p" unicode="p" horiz-adv-x="561" 
d="M27 -158c0 0.666992 1.00098 6.00195 3.00098 16.002l119 563c4.66699 24.667 19.334 37 44.001 37h40c1.33301 0 5.16602 -0.166992 11.499 -0.5s11.333 -1 15 -2s8 -3.66699 13 -8s8.5 -10.833 10.5 -19.5c52 27.333 103.667 41 155 41
c41.333 0 75.833 -11.333 103.5 -34s41.5 -61.334 41.5 -116.001l-1 -26c-3.33301 -26 -7 -49.333 -11 -70s-12.333 -46.667 -25 -78s-28 -57.333 -46 -78s-43.333 -38.834 -76 -54.501s-70.334 -23.5 -113.001 -23.5c-41.333 0 -77 13 -107 39l-21 -103
c-11.333 -56 -20 -90 -26 -102s-18.667 -18 -38 -18h-49c-16.667 0 -28 4 -34 12s-9 16.333 -9 25zM219.001 98.002c17.333 -24 39.334 -36.001 66.001 -36.001c31.333 0 58.5 10 81.5 30s39.667 44.667 50 74s17.666 55.333 21.999 78s6.5 42.334 6.5 59.001
c0 58.667 -25 88 -75 88c-32 0 -64.333 -11.667 -97 -35z" />
    <glyph glyph-name="q" unicode="q" horiz-adv-x="561" 
d="M75 146c0 38.667 7.16797 82.335 21.501 131.002s36.833 89 67.5 121c44.667 47.333 104.334 71 179.001 71c46.667 0 83.667 -16 111 -48c0 0.666992 0.833008 4.66699 2.5 12s3.16699 12.166 4.5 14.499s3.66602 5.66602 6.99902 9.99902s7.83301 7.33301 13.5 9
s12.5 2.5 20.5 2.5h43c30.667 0 46 -12 46 -36c0 -5.33301 -1.33301 -13.333 -4 -24l-122 -571c-5.33301 -22 -20 -33 -44 -33h-47c-12 0 -21.5 2.5 -28.5 7.5s-11.333 9.83301 -13 14.5s-2.5 9.66699 -2.5 15c0 4 13 67.333 39 190
c-42.667 -28.667 -85.334 -43 -128.001 -43c-46.667 0 -86 12 -118 36s-48 64.333 -48 121zM211.001 150.001c0 -58.667 24.667 -87.999 74 -87.999c29.333 0 56.666 11 81.999 33c10 8.66699 16.333 15.167 19 19.5s5 11.166 7 20.499l42 198
c0 10 -5.16699 22.167 -15.5 36.5s-26.833 21.5 -49.5 21.5c-25.333 0 -48.166 -6.83301 -68.499 -20.5s-35.833 -30.167 -46.5 -49.5s-19.667 -41 -27 -65s-12 -44.5 -14 -61.5s-3 -31.833 -3 -44.5z" />
    <glyph glyph-name="r" unicode="r" horiz-adv-x="372" 
d="M68 36c0 1.33301 2 11.999 6 31.999l76 359c3.33301 16 8.66602 26.167 15.999 30.5s18 6.5 32 6.5h32c18.667 0 32.667 -5 42 -15c4.66699 -6.66699 7 -13.667 7 -21c0 -3.33301 -2 -15.666 -6 -36.999c52.667 52 106 78 160 78c12.667 0 19 -5 19 -15
c0 -3.33301 -2.5 -16.666 -7.5 -39.999s-8.5 -36.333 -10.5 -39c-2 -3.33301 -5.83301 -5.5 -11.5 -6.5s-14.334 -2.33301 -26.001 -4s-23.167 -4.5 -34.5 -8.5c-28 -10 -52.833 -25 -74.5 -45s-35.5 -43 -41.5 -69l-33 -153c-7.33301 -36 -12.166 -57.333 -14.499 -64
s-6.16602 -12.334 -11.499 -17.001c-6.66699 -5.33301 -17 -8 -31 -8h-41c-31.333 0 -47 12 -47 36z" />
    <glyph glyph-name="s" unicode="s" horiz-adv-x="422" 
d="M41 49c0 9.33301 11.3369 38.6689 34.0039 88.002c2 3.33301 5.33301 5.66602 10 6.99902l4 -1c2.66699 -1.33301 7.66699 -6.5 15 -15.5s15.166 -17.667 23.499 -26s21.833 -16 40.5 -23s39.667 -10.5 63 -10.5c33.333 0 57 6.66699 71 20s21 28 21 44
s-8.33301 27.833 -25 35.5s-35.834 12.5 -57.501 14.5s-44.834 9 -69.501 21s-43 29.333 -55 52c-8 16 -12 32.667 -12 50c0 21.333 5.5 44.666 16.5 69.999s26.167 45.333 45.5 60c34 26.667 83 40 147 40c27.333 0 53.333 -2.66699 78 -8s43.667 -11.5 57 -18.5
s20 -13.5 20 -19.5c0 -3.33301 -4 -15.666 -12 -36.999s-14 -35.666 -18 -42.999c-5.33301 -1.33301 -8.33301 -2 -9 -2c-4.66699 0 -9.66699 2.5 -15 7.5s-11 10.667 -17 17s-17 12.5 -33 18.5s-35.667 9.66699 -59 11h-18c-20.667 -0.666992 -37 -4.83398 -49 -12.501
s-19.5 -15.167 -22.5 -22.5s-4.5 -14.666 -4.5 -21.999c0 -14.667 7.5 -25.334 22.5 -32.001s32.333 -10.834 52 -12.501s41.5 -7.66699 65.5 -18s43 -25.5 57 -45.5c14 -20.667 21 -43 21 -67c0 -22 -5.83301 -46.833 -17.5 -74.5s-28.834 -50.167 -51.501 -67.5
c-34 -25.333 -80.667 -38 -140 -38c-66 0 -122.333 15 -169 45c-6.66699 5.33301 -10 10.333 -10 15z" />
    <glyph glyph-name="t" unicode="t" horiz-adv-x="404" 
d="M108 78l-0.00195312 10.001c0 2.66699 0.333008 6.33398 1 11.001s1.33398 9 2.00098 13s1.83398 10.333 3.50098 19s3.5 17.167 5.5 25.5s4.66699 20.666 8 36.999l10 48l13.5 63.5l16.5 80h-14c-17.333 0 -29 4.16699 -35 12.5s-9 16.5 -9 24.5c0 12 5 21.667 15 29
c6.66699 4.66699 17.334 7 32.001 7h29c13.333 63.333 20.833 98 22.5 104s6.5 12.667 14.5 20c6.66699 4.66699 16.334 7 29.001 7h38c17.333 0 29.166 -4 35.499 -12s9.5 -16.333 9.5 -25c0 -3.33301 -6.33301 -34.666 -19 -93.999h84c16.667 0 28 -4 34 -12s9 -16 9 -24
c0 -4.66699 -0.666992 -9.33398 -2 -14.001s-5.66602 -9.66699 -12.999 -15s-17 -8 -29 -8h-99c-38 -180 -57 -274.333 -57 -283c0 -22.667 9.33301 -34 28 -34c20.667 0 41.667 5.66699 63 17s32.666 17 33.999 17c5.33301 0 8.66602 -2.16699 9.99902 -6.5
s2.33301 -14.166 3 -29.499c0.666992 -4.66699 1 -8.33398 1 -11.001c-0.666992 -4.66699 -1 -7.5 -1 -8.5s-0.5 -2.83301 -1.5 -5.5s-2.66699 -4.83398 -5 -6.50098s-5.83301 -3.5 -10.5 -5.5c-58 -26.667 -115.667 -40 -173 -40c-55.333 0 -83 29.667 -83 89z" />
    <glyph glyph-name="u" unicode="u" horiz-adv-x="561" 
d="M80 83c0 13.333 3 35 9 65l58 271c3.33301 14.667 8 24.834 14 30.501s17 8.5 33 8.5h46c29.333 0 44 -12.333 44 -37c0 -2.66699 -0.666992 -8 -2 -16l-59 -278c-5.33301 -26.667 -8 -42.334 -8 -47.001c0 -11.333 3.83301 -19 11.5 -23s20.834 -6 39.501 -6
c34 0 62.167 11 84.5 33s37.5 46.333 45.5 73l54 254c2.66699 11.333 4.66699 19.333 6 24s5.5 9.66699 12.5 15s16.833 8 29.5 8h48c28.667 0 43 -12 43 -36c0 -8 -1 -15.333 -3 -22l-75 -353c-2 -8.66699 -3.66699 -15.167 -5 -19.5s-3.66602 -9 -6.99902 -14
s-8 -8.5 -14 -10.5s-13.667 -3 -23 -3h-46c-28.667 0 -42.334 14 -41.001 42c-10 -8 -20 -15 -30 -21s-19.833 -10.833 -29.5 -14.5s-18 -6.66699 -25 -9s-14.833 -4 -23.5 -5s-14.834 -1.83301 -18.501 -2.5s-9.16699 -1 -16.5 -1h-12c-44 0 -78.333 6.66699 -103 20
s-37 38 -37 74z" />
    <glyph glyph-name="v" unicode="v" horiz-adv-x="500" 
d="M116 425c2 6.66699 3.83398 11.834 5.50098 15.501s5.66699 7.5 12 11.5s14.833 6 25.5 6h31c8.66699 0 16 -1 22 -3s10.667 -4 14 -6s6.16602 -6 8.49902 -12s3.83301 -10 4.5 -12s1.5 -7 2.5 -15s1.5 -12.333 1.5 -13l32 -284l161 299
c10.667 20 21.334 32.667 32.001 38s24 8 40 8h26c20.667 0 31 -7.33301 31 -22c0 -4 -3.33301 -12.667 -10 -26l-192 -357c-6.66699 -12 -12.334 -21.167 -17.001 -27.5s-11.834 -12.166 -21.501 -17.499s-21.5 -8 -35.5 -8h-80c-14 0 -25 3.16699 -33 9.5
s-12.667 12.166 -14 17.499s-2.66602 13.666 -3.99902 24.999z" />
    <glyph glyph-name="w" unicode="w" horiz-adv-x="744" 
d="M115 421c0 5.33301 0.833984 10.5029 2.50098 15.5029s6.16699 9.83301 13.5 14.5s16.666 7 27.999 7h30c14.667 0 26 -3 34 -9s12.667 -18 14 -36c10 -160.667 16.667 -255.334 20 -284.001l138 281c9.33301 18 18.333 30.5 27 37.5s22.667 10.5 42 10.5h5
c14 0 24.833 -2.83301 32.5 -8.5s12 -11.334 13 -17.001s1.83301 -12.5 2.5 -20.5v-4l18 -259c2 -22.667 3 -34.334 3 -35.001l147 300c9.33301 18.667 19.333 30.667 30 36s23.667 8 39 8h23c22.667 0 34 -7.66699 34 -23c0 -4.66699 -2 -11 -6 -19l-177 -360
c-4.66699 -10 -8.16699 -17 -10.5 -21s-6.5 -9.5 -12.5 -16.5s-13 -11.833 -21 -14.5s-17.667 -4 -29 -4h-79c-11.333 0 -20.333 1.5 -27 4.5s-11.5 7.66699 -14.5 14s-4.66699 11.333 -5 15l-1.5 16.5c-6.66699 124 -10 196.333 -10 217c0 3.33301 0.666992 21 2 53
c-8 -30.667 -48.667 -120.334 -122 -269.001c-10.667 -20.667 -21 -34.334 -31 -41.001s-23.333 -10 -40 -10h-38c-18 0 -30.333 3.66699 -37 11s-10.667 18.333 -12 33l-24 370c0 0.666992 -0.166992 1.83398 -0.5 3.50098s-0.5 2.83398 -0.5 3.50098z" />
    <glyph glyph-name="x" unicode="x" horiz-adv-x="500" 
d="M29 18c0 6 6.49902 15.6689 19.499 29.002l193.5 190c-75.333 120 -114.333 183.333 -117 190c-0.666992 2 -1 4 -1 6c0 2.66699 0.5 5.5 1.5 8.5s4.16699 6.5 9.5 10.5s12.333 6 21 6h53c4.66699 0 8.33398 -0.166992 11.001 -0.5s5.5 -0.666016 8.5 -0.999023
s5.5 -1.33301 7.5 -3s4.16699 -3.33398 6.5 -5.00098s4.83301 -4.5 7.5 -8.5l8 -11.5c2.66699 -3.66699 6 -9.33398 10 -17.001s8 -14.834 12 -21.501l16 -28l19 -34h1l46 48c39.333 41.333 63.666 65.333 72.999 72s23 10 41 10h47c16.667 0 25 -6 25 -18
c0 -6 -4.5 -13.667 -13.5 -23s-42.5 -42.333 -100.5 -99l-83 -81c2.66699 -4 42.334 -67.667 119.001 -191c4.66699 -8 7 -15 7 -21c0 -16.667 -11 -25 -33 -25h-51c-16 -0 -27.5 4.33301 -34.5 13s-22.167 37 -45.5 85l-32 67l-69 -79
c-37.333 -42.667 -60.333 -67.667 -69 -75s-19.667 -11 -33 -11h-8h-42h-8c-6 0.666992 -10 1.16699 -12 1.5s-4.33301 2 -7 5s-4 6.83301 -4 11.5z" />
    <glyph glyph-name="y" unicode="y" horiz-adv-x="500" 
d="M4 -185c2 58.667 8.99707 88.002 20.9971 88.002c2 0 8.83301 -3.16699 20.5 -9.5s30.5 -10.833 56.5 -13.5c26.667 3.33301 46.667 11.833 60 25.5s30.666 39.5 51.999 77.5c4 7.33301 7 13 9 17l-97 402c-3.33301 13.333 -5 21.666 -5 24.999c0 4 0.833008 8 2.5 12
s5.66699 8.16699 12 12.5s14.833 6.5 25.5 6.5h32c8.66699 0 16.334 -1 23.001 -3s11.834 -3.83301 15.501 -5.5s7 -5.16699 10 -10.5s5 -9 6 -11s2.33301 -6.83301 4 -14.5s2.83398 -12.167 3.50098 -13.5c28 -115.333 42.667 -193 44 -233l-1 -30
c8.66699 35.333 51.667 121.666 129 258.999c0.666992 2 2.66699 5.83301 6 11.5l6.5 11c1 1.66699 3 4.83398 6 9.50098s5.16699 7.66699 6.5 9l7 7c3.33301 3.33301 6.5 5.5 9.5 6.5s6.5 2.33301 10.5 4s8.33301 2.66699 13 3s10 0.5 16 0.5h25c20.667 0 31 -7 31 -21
c0 -6.66699 -2 -14 -6 -22l-255 -456l-18 -31c-4 -6.66699 -13.833 -19.834 -29.5 -39.501s-30.667 -35.167 -45 -46.5s-33.333 -22 -57 -32s-48.167 -15 -73.5 -15c-47.333 0 -72.666 6.66699 -75.999 20z" />
    <glyph glyph-name="z" unicode="z" horiz-adv-x="476" 
d="M38 29c0 18 10 37.002 30 57.002l305 299l-196 -2c-11.333 0 -20.5 2.66699 -27.5 8s-11.167 10.166 -12.5 14.499s-2 8.83301 -2 13.5s0.833008 9.66699 2.5 15s6 10.666 13 15.999s16.5 8 28.5 8h317c22 -0.666992 33 -10.334 33 -29.001
c0 -17.333 -9.66699 -35.666 -29 -54.999l-306 -300l87 1h26l101 1c16 -0.666992 27 -4.83398 33 -12.501s9 -15.834 9 -24.501c0 -4.66699 -0.833008 -9.66699 -2.5 -15s-6 -10.666 -13 -15.999s-16.5 -8 -28.5 -8h-335c-22 0.666992 -33 10.334 -33 29.001z" />
    <glyph glyph-name="braceleft" unicode="{" 
d="M104 229c4 31.333 8.99609 49.334 14.9961 54.001c2 2 5.16699 3.16699 9.5 3.5l19 1.5c8.33301 0.666992 16.833 2 25.5 4c25.333 6 48.166 16.333 68.499 31s34.833 32.667 43.5 54c2.66699 8 12.334 52.167 29.001 132.5s27.334 126.166 32.001 137.499
c10.667 24 27.834 43.833 51.501 59.5s50.334 26.167 80.001 31.5s51.5 8.66602 65.5 9.99902s27.667 2 41 2h43c14.667 0 22 -5.33301 22 -16c0 -7.33301 -2.33301 -20.333 -7 -39c-2 -8 -4.66699 -13 -8 -15s-9 -3 -17 -3c-20.667 -0.666992 -37 -1.5 -49 -2.5
s-27 -4.33301 -45 -10s-31 -13.834 -39 -24.501c-4 -5.33301 -11.667 -34.666 -23 -87.999l-33 -151c-8.66699 -41.333 -25 -72.833 -49 -94.5s-62.333 -40.834 -115 -57.501c69.333 -21.333 104 -59.666 104 -114.999c0 -9.33301 -8.66699 -54 -26 -134
s-26 -124.333 -26 -133c0 -16 9.83301 -27 29.5 -33s48.834 -9.66699 87.501 -11c12.667 -0.666992 19 -5.66699 19 -15c-2.66699 -29.333 -8 -47.666 -16 -54.999c-5.33301 -2 -10 -3 -14 -3h-33c-140.667 0 -211 36 -211 108c0 10 9 55.833 27 137.5
s27 126.834 27 135.501c0 25.333 -10.5 44.666 -31.5 57.999s-44.5 21.333 -70.5 24c-0.666992 0 -2.5 0.166992 -5.5 0.5s-5.16699 0.5 -6.5 0.5s-3 0.333008 -5 1s-3.5 1.5 -4.5 2.5s-2 2.5 -3 4.5s-1.5 4.33301 -1.5 7z" />
    <glyph glyph-name="bar" unicode="|" horiz-adv-x="305" 
d="M66 -208c0 6 1.33301 14.334 4 25.001l189 887c5.33301 30.667 19.666 46 42.999 46c10.667 0 20.334 -4 29.001 -12s13 -18 13 -30l-3 -21l-189 -887l-1 -4l-1.5 -7.5c-0.333008 -1.66699 -1.16602 -4.33398 -2.49902 -8.00098s-2.5 -6.66699 -3.5 -9s-2.66699 -5 -5 -8
s-4.83301 -5.33301 -7.5 -7s-6 -3.16699 -10 -4.5s-8.33301 -2 -13 -2c-10.667 0 -20.334 4 -29.001 12s-13 18 -13 30z" />
    <glyph glyph-name="braceright" unicode="}" 
d="M6 -234c0 1.33301 2.66699 14.3291 8 38.9961c2 8 4.66699 13 8 15s9 3 17 3c20.667 0.666992 37 1.5 49 2.5s26.833 4.33301 44.5 10s30.5 13.834 38.5 24.501c4.66699 6 15 46.333 31 121l25 117c8.66699 38.667 24.5 69.5 47.5 92.5s61.833 43.167 116.5 60.5
c-28 8.66699 -52.333 22.5 -73 41.5s-31 43.5 -31 73.5c0 10.667 16.333 92.334 49 245.001c2.66699 9.33301 4 16.666 4 21.999c0 17.333 -10.833 28.833 -32.5 34.5s-50.167 8.83398 -85.5 9.50098c-12 0.666992 -18 5.66699 -18 15c0 4 2.33301 17.667 7 41
c3.33301 11.333 10.666 17 21.999 17h33c140.667 0 211 -36 211 -108c0 -10 -8.83301 -55.833 -26.5 -137.5s-26.5 -126.834 -26.5 -135.501c0 -25.333 10.5 -44.666 31.5 -57.999s44.167 -21.333 69.5 -24c0.666992 0 2.66699 -0.166992 6 -0.5
s5.83301 -0.666016 7.5 -0.999023s3.66699 -1 6 -2s4 -2.5 5 -4.5s1.5 -4.66699 1.5 -8c-3.33301 -31.333 -8 -49.333 -14 -54c-2 -2 -5.16699 -3.16699 -9.5 -3.5l-19 -1.5c-8.33301 -0.666992 -16.833 -2 -25.5 -4c-25.333 -6 -48.166 -16.333 -68.499 -31
s-34.833 -32.667 -43.5 -54c-2.66699 -8 -12.5 -52.333 -29.5 -133s-27.833 -126.667 -32.5 -138c-7.33301 -16.667 -17.833 -31.167 -31.5 -43.5s-29.334 -22 -47.001 -29s-34.167 -12.833 -49.5 -17.5s-32.166 -7.66699 -50.499 -9s-30.833 -2.16602 -37.5 -2.49902
s-14 -0.5 -22 -0.5h-43c-14.667 0 -22 5.33301 -22 16z" />
    <glyph glyph-name="asciitilde" unicode="~" horiz-adv-x="672" 
d="M219 597c0 23.333 16.0059 49.666 48.0059 78.999s71 44 117 44c36.667 0 73.5 -10.833 110.5 -32.5s66.167 -32.5 87.5 -32.5c14.667 1.33301 28.667 6 42 14s23 18 29 30c0.666992 1.33301 1.5 3.33301 2.5 6s1.66699 4.5 2 5.5s1.16602 2.33301 2.49902 4
s2.66602 2.66699 3.99902 3s3.16602 0.833008 5.49902 1.5s5.16602 1 8.49902 1h31c13.333 0 20 -5 20 -15c0 -23.333 -16 -49.666 -48 -78.999s-71 -44 -117 -44c-27.333 0 -52.5 5 -75.5 15s-43.5 20.5 -61.5 31.5s-34 17.167 -48 18.5h-14
c-14.667 -1.33301 -28.5 -6 -41.5 -14s-22.5 -18 -28.5 -30c-0.666992 -2 -1.66699 -4.5 -3 -7.5s-2.33301 -5 -3 -6s-1.83398 -2.33301 -3.50098 -4s-3.83398 -2.66699 -6.50098 -3s-6 -0.5 -10 -0.5h-30c-13.333 0 -20 5 -20 15z" />
    <glyph glyph-name="uni00A0" unicode="&#xa0;" horiz-adv-x="367" 
 />
    <glyph glyph-name="exclamdown" unicode="&#xa1;" horiz-adv-x="367" 
d="M80 -180c0 1.33301 1.33203 8.66699 3.99902 22l113 471c1.33301 5.33301 2.5 9 3.5 11s3 3.83301 6 5.5s7.16699 2.5 12.5 2.5h60c15.333 0 23 -4.66699 23 -14c0 -6 -1 -14 -3 -24l-87 -467c-1.33301 -7.33301 -4.33301 -13.333 -9 -18
c-5.33301 -2.66699 -10.666 -4 -15.999 -4h-83c-16 0 -24 5 -24 15zM209.999 433.001c0 5.33301 2.16797 18 6.50098 38s7.5 32 9.5 36c1.33301 2.66699 3 5.16699 5 7.5s4.16699 4.16602 6.5 5.49902s4.16602 2.5 5.49902 3.5s3.5 1.83301 6.5 2.5s5 1 6 1
s3.16699 0.333008 6.5 1h5h43c12 0 21.5 -2.66699 28.5 -8s11.167 -10.333 12.5 -15s2 -9 2 -13c0 -5.33301 -2.16699 -18 -6.5 -38s-7.83301 -32.667 -10.5 -38c-6.66699 -11.333 -20 -17.666 -40 -18.999h-43c-16.667 0 -28 4 -34 12s-9 16 -9 24z" />
    <glyph glyph-name="cent" unicode="&#xa2;" 
d="M78 164c0 38 7.50195 78.332 22.502 120.999s37.5 79 67.5 109c46.667 46 113.334 72.667 200.001 80h1c0.666992 4.66699 2 11.667 4 21s3.33301 15.833 4 19.5s2 8.66699 4 15s3.83301 10.833 5.5 13.5s4 5.66699 7 9s6.33301 5.5 10 6.5s8.16699 1.5 13.5 1.5
c10 0 18.5 -3.5 25.5 -10.5s10.5 -14.833 10.5 -23.5c0 -1.33301 -3.33301 -18.666 -10 -51.999c34 -0.666992 67 -6.83398 99 -18.501s51 -21.167 57 -28.5c1.33301 -4 2 -6.33301 2 -7c0 -1.33301 -2 -8.33301 -6 -21s-9.16699 -25.667 -15.5 -39s-12.166 -20 -17.499 -20
c-4.66699 0 -10.334 2.5 -17.001 7.5s-13.834 10.667 -21.501 17s-20.167 12.5 -37.5 18.5s-37.333 10 -60 12l-69 -325c30.667 3.33301 58.667 10.166 84 20.499s44.833 19.666 58.5 27.999s22.167 12.5 25.5 12.5c8 0 12 -5 12 -15c0 -5.33301 -2 -23.666 -6 -54.999
c-2 -13.333 -5.16699 -21.666 -9.5 -24.999s-19.833 -9.66602 -46.5 -18.999c-39.333 -14 -84.333 -23 -135 -27c-1.33301 -5.33301 -2.83301 -12.333 -4.5 -21s-2.83398 -15.167 -3.50098 -19.5s-1.83398 -9.5 -3.50098 -15.5s-3.5 -10.5 -5.5 -13.5s-4.33301 -6 -7 -9
s-6 -5.16699 -10 -6.5s-8.66699 -2 -14 -2c-10 0 -18.5 3.66699 -25.5 11s-10.5 15.333 -10.5 24l10 52c-125.333 9.33301 -188 67.333 -188 174zM213.002 157.999c0 -26 5.66699 -45.667 17 -59s29 -23 53 -29l68 322c-19.333 -3.33301 -36.333 -10.333 -51 -21
s-26.167 -20.834 -34.5 -30.501s-16.166 -24.334 -23.499 -44.001s-12 -33.667 -14 -42s-5 -23.166 -9 -44.499c-0.666992 -4 -1.33398 -7 -2.00098 -9c-2.66699 -17.333 -4 -31.666 -4 -42.999z" />
    <glyph glyph-name="sterling" unicode="&#xa3;" horiz-adv-x="818" 
d="M71 45c0 24 13.668 46.668 41.001 68.001s67.333 32 120 32c8 0 19.333 -0.666992 34 -2l40 182h-38c-16.667 0 -25 4.66699 -25 14c0 0.666992 2.66699 14.334 8 41.001c2 8 4.5 13 7.5 15s7.83301 3 14.5 3h48c2.66699 11.333 6.33398 29 11.001 53s8 40.333 10 49
l9 39.5c4 17.667 7.33301 30 10 37s6.16699 17 10.5 30s8.83301 23 13.5 30l16.5 24c6.33301 9 13.166 17.5 20.499 25.5c45.333 47.333 108.666 71 189.999 71c48 0 84.833 -15.833 110.5 -47.5s38.5 -70.834 38.5 -117.501c0 -70.667 -23.333 -106 -70 -106
c-28 0 -44 14.333 -48 43c-15.333 0 -23 5 -23 15c0 4 2.33301 17 7 39s7 41 7 57c0 29.333 -10.333 44 -31 44s-40 -6.33301 -58 -19c-4.66699 -3.33301 -8.66699 -7 -12 -11l-9.5 -11.5c-3 -3.66699 -6 -8.83398 -9 -15.501s-5.5 -12.5 -7.5 -17.5s-4.5 -12.5 -7.5 -22.5
s-5.33301 -18.5 -7 -25.5s-4 -17.667 -7 -32s-5.66699 -26.5 -8 -36.5s-5.5 -24.833 -9.5 -44.5l-10 -50.5h75c12 0 18 -5.33301 18 -16c0 -2 -2.66699 -15.667 -8 -41c-3.33301 -10 -10.333 -15.333 -21 -16h-80l-14.5 -70l-10.5 -51l-6.5 -31
c-2.33301 -11.333 -4.33301 -19.333 -6 -24l-5.5 -15c-2 -5.33301 -4.66699 -11.333 -8 -18c69.333 -20 122.333 -30.333 159 -31c4.66699 12.667 8.33398 26 11.001 40s5.16699 22.833 7.5 26.5s7.83301 5.5 16.5 5.5h90c11.333 0 19.666 -3 24.999 -9
c0 -0.666992 0.166992 -1.5 0.5 -2.5s0.5 -1.83301 0.5 -2.5c0 -10.667 -4.33301 -24 -13 -40s-20.834 -32.833 -36.501 -50.5s-37.5 -32.667 -65.5 -45s-58.333 -18.5 -91 -18.5c-22 0 -47.167 2.83301 -75.5 8.5s-52.666 11.5 -72.999 17.5s-31.833 9 -34.5 9
c-1.33301 0 -7.83301 -3 -19.5 -9s-29.5 -11.833 -53.5 -17.5s-51.333 -8.5 -82 -8.5c-31.333 0 -53.5 5.66699 -66.5 17s-19.5 24.333 -19.5 39z" />
    <glyph glyph-name="currency" unicode="&#xa4;" horiz-adv-x="788" 
d="M30 -22c0 10 3.83301 19.001 11.5 27.001s30.5 27.667 68.5 59l51 42c-14 34 -21 69 -21 105c0 44 8.5 93.5 25.5 148.5s42.833 100.5 77.5 136.5v1c-37.333 46 -59.666 74.5 -66.999 85.5s-11 20.5 -11 28.5c0 10 3.83301 19.333 11.5 28s17.5 13 29.5 13
c10.667 0 20.167 -4 28.5 -12s24.833 -27.667 49.5 -59c10 -13.333 18 -23.666 24 -30.999c60 33.333 127 50 201 50c34.667 0 65.834 -3.33301 93.501 -10s46.5 -12.667 56.5 -18s23 -13 39 -23l33 27l27 22.5l20.5 17.5l16 13.5l12 9.5
c4.33301 3.33301 7.66602 5.66602 9.99902 6.99902s4.83301 2.5 7.5 3.5s5 1.66699 7 2s4.33301 0.5 7 0.5c10 0 19.5 -3.83301 28.5 -11.5s13.5 -17.5 13.5 -29.5c0 -10.667 -4 -20.334 -12 -29.001s-31 -28.334 -69 -59.001l-49 -40
c13.333 -32.667 20 -67.334 20 -104.001c0 -42.667 -8 -90.834 -24 -144.501s-42.333 -100.834 -79 -141.501c48 -60 73.333 -93 76 -99c2 -4.66699 3 -10 3 -16c0 -11.333 -4 -21 -12 -29s-18 -12 -30 -12c-6 0 -11.5 1.33301 -16.5 4s-14.333 11.834 -28 27.501
s-32.5 39.5 -56.5 71.5c-0.666992 -0.666992 -4 -2.66699 -10 -6s-11.667 -6.16602 -17 -8.49902l-21.5 -9.5c-9 -4 -18.667 -7.33301 -29 -10l-34.5 -8.5c-12.667 -3 -26.667 -5.16699 -42 -6.5s-31.333 -2 -48 -2c-34.667 0 -65.834 3.33301 -93.501 10
s-46.334 12.5 -56.001 17.5s-22.5 12.833 -38.5 23.5l-33 -27c-11.333 -9.33301 -20.166 -16.833 -26.499 -22.5l-20.5 -17.5l-16.5 -13.5c-3.66699 -3 -7.83398 -6 -12.501 -9l-10 -6.5c-2 -1.33301 -4.5 -2.66602 -7.5 -3.99902s-5.5 -2.16602 -7.5 -2.49902
s-4.33301 -0.5 -7 -0.5c-13.333 0 -23.666 4.5 -30.999 13.5s-11 18.167 -11 27.5zM224 210.001c0 -44.667 13.167 -78.6689 39.5 -102.002s70.833 -35 133.5 -35c45.333 0 84.833 5.83301 118.5 17.5s61 28.334 82 50.001s37.5 44.667 49.5 69s21.667 52.5 29 84.5
c7.33301 34 11 62.333 11 85c0 44 -13.333 77.833 -40 101.5s-71 35.5 -133 35.5c-76.667 0 -138 -17.5 -184 -52.5s-78 -91.167 -96 -168.5c-6.66699 -31.333 -10 -59.666 -10 -84.999z" />
    <glyph glyph-name="yen" unicode="&#xa5;" horiz-adv-x="733" 
d="M12 214c0 24 16.002 36 48.002 36h290l6 28l-64 129h-187c-29.333 0 -44 12 -44 36c0 24.667 15.333 37 46 37h149l-83 168c-3.33301 8 -5 14.333 -5 19c0 18 11.667 27 35 27h68c15.333 0 28.333 -2.66699 39 -8s18 -10.833 22 -16.5s8.33301 -13.5 13 -23.5l81 -166h99
l58 65c63.333 71.333 104 114 122 128s42 21 72 21h47c14.667 0 24 -6.33301 28 -19v-1c-2 -8 -10.333 -20 -25 -36c-5.33301 -6 -16 -17.333 -32 -34l-114 -124h131c31.333 0 47 -12 47 -36c0 -12.667 -4.66699 -22.667 -14 -30c-6 -4.66699 -17 -7 -33 -7h-199l-65 -71
c-26.667 -28.667 -42.5 -46.167 -47.5 -52.5s-8.16699 -13.833 -9.5 -22.5c-0.666992 -4 -1.33398 -7.66699 -2.00098 -11h276c17.333 0 29.333 -4 36 -12s10 -16.333 10 -25c0 -17.333 -9 -28.666 -27 -33.999c-5.33301 -1.33301 -13.666 -2 -24.999 -2h-286l-8.5 -43
l-7 -36c-1.66699 -8.66699 -3.66699 -18.167 -6 -28.5s-4.33301 -18.333 -6 -24s-3.83398 -11.5 -6.50098 -17.5s-5.33398 -10.5 -8.00098 -13.5s-5.83398 -5.83301 -9.50098 -8.5s-8 -4.33398 -13 -5.00098s-10.5 -1 -16.5 -1h-48c-26.667 0 -40 8.66699 -40 26
c0 8 10 58.333 30 151h-280c-15.333 0 -26.166 4 -32.499 12s-9.5 16.333 -9.5 25zM458.002 407l1 -4l2 4h-3z" />
    <glyph glyph-name="brokenbar" unicode="&#xa6;" horiz-adv-x="183" 
d="M5 -208c0 2 2.66895 16.333 8.00195 43l64 302c0 2.66699 0.833008 6.66699 2.5 12s6 11.333 13 18s15.833 10 26.5 10c11.333 0 21.166 -4 29.499 -12s12.5 -18.333 12.5 -31v-6l-72 -337c-6.66699 -27.333 -20.667 -41 -42 -41c-10.667 0 -20.334 4 -29.001 12
s-13 18 -13 30zM127.002 365c0 2 2.66602 16.667 7.99902 44l64 300c0 2.66699 0.833008 6.66699 2.5 12s5.83398 11.5 12.501 18.5s15.667 10.5 27 10.5c10.667 0 20.334 -4 29.001 -12s13 -18 13 -30c0 -2 -2.66699 -16.667 -8 -44l-64 -299
c-7.33301 -28 -21.333 -42 -42 -42c-10.667 0 -20.334 4 -29.001 12s-13 18 -13 30z" />
    <glyph glyph-name="section" unicode="&#xa7;" horiz-adv-x="533" 
d="M24 -119c0 3.33301 5.33398 18.9961 16.001 46.9961s19 43.667 25 47h5c4 -1.33301 6.83301 -3.16602 8.5 -5.49902s3 -5 4 -8s3.16699 -7.83301 6.5 -14.5s7.66602 -13.667 12.999 -21c28 -39.333 71.333 -59 130 -59c34.667 0 63 13.833 85 41.5s33 52.834 33 75.501
c0 14.667 -7 27.167 -21 37.5s-30.667 18.666 -50 24.999s-40.833 17.666 -64.5 33.999s-43.167 36.5 -58.5 60.5c-17.333 27.333 -26 58 -26 92c0 34.667 9 67.334 27 98.001s43.333 56 76 76c-28 38.667 -42 76.667 -42 114c0 56.667 22.667 106.167 68 148.5
s100.333 63.5 165 63.5c57.333 0 108.666 -16.667 153.999 -50c8.66699 -6.66699 13.667 -13.667 15 -21c0 -2 -9.33301 -27 -28 -75c-4.66699 -10.667 -9.66699 -16 -15 -16c-4 0 -8.83301 4.66699 -14.5 14l-18.5 30.5c-6.66699 11 -19.167 21.167 -37.5 30.5
s-40.833 14 -67.5 14c-33.333 0 -61.333 -13.5 -84 -40.5s-34 -51.833 -34 -74.5c0 -10.667 4 -20.167 12 -28.5s16.667 -15 26 -20s23.333 -11.5 42 -19.5c38 -15.333 71 -38.166 99 -68.499s42 -68.166 42 -113.499c0 -67.333 -34.667 -125.666 -104 -174.999
c28 -32 42 -70 42 -114c0 -56.667 -22.833 -106.167 -68.5 -148.5s-100.167 -63.5 -163.5 -63.5c-38 0 -73.167 6.33301 -105.5 19s-55.666 25.5 -69.999 38.5s-21.5 22.833 -21.5 29.5zM233.001 256.996c0 -4.66699 0.499023 -8.83105 1.49902 -12.498
s2.83301 -7.33398 5.5 -11.001s5.33398 -7 8.00098 -10s6.5 -6 11.5 -9l12.5 -7.5c3.33301 -2 8.16602 -4.5 14.499 -7.5l14.5 -7c3.33301 -1.66699 8.5 -4 15.5 -7l15.5 -6.5c8 -3.33301 13 -5 15 -5c10 0 23.333 11.5 40 34.5s25 43.833 25 62.5
c0 14 -5.5 25.833 -16.5 35.5s-28.667 19.5 -53 29.5s-39.166 16.667 -44.499 20c-18 -10 -33.333 -24.833 -46 -44.5s-19 -37.834 -19 -54.501z" />
    <glyph glyph-name="dieresis" unicode="&#xa8;" 
d="M221 588c0 4 2.66406 18.3311 7.99707 42.998s9.33301 39.334 12 44.001c1.33301 2.66699 2.83301 5 4.5 7s3.66699 3.66699 6 5s4.33301 2.33301 6 3s3.83398 1.33398 6.50098 2.00098s4.5 1 5.5 1s3 0.166992 6 0.5s4.83301 0.5 5.5 0.5h52c12 0 21.667 -2.5 29 -7.5
s11.833 -9.83301 13.5 -14.5s2.5 -9.33398 2.5 -14.001c0 -4 -2.66699 -18.5 -8 -43.5s-9.66602 -40.167 -12.999 -45.5c-7.33301 -11.333 -20.333 -17 -39 -17h-52c-12.667 0 -22.667 2.5 -30 7.5s-11.666 9.83301 -12.999 14.5s-2 9.33398 -2 14.001zM434.997 587.998
c0 2 3.99805 22.332 11.998 60.999c2.66699 10.667 5.33398 19.334 8.00098 26.001s6.33398 11.167 11.001 13.5s8.5 3.83301 11.5 4.5s8.16699 1 15.5 1h54c29.333 0 44 -12.333 44 -37c0 -4 -2.5 -18.333 -7.5 -43s-9.16699 -39.667 -12.5 -45
c-7.33301 -11.333 -20.333 -17 -39 -17h-52c-30 0 -45 12 -45 36z" />
    <glyph glyph-name="copyright" unicode="&#xa9;" horiz-adv-x="1222" 
d="M97 104c0 87.333 17.667 180.001 53 278.001s88.333 178.333 159 241c112 99.333 264 149 456 149c160.667 0 278.5 -33 353.5 -99s112.5 -158 112.5 -276c0 -45.333 -5.66699 -95.333 -17 -150c-11.333 -54 -26.5 -104 -45.5 -150s-39.667 -85.5 -62 -118.5
s-47.833 -62.833 -76.5 -89.5s-56.5 -48.5 -83.5 -65.5s-56.667 -31.833 -89 -44.5s-61 -22.167 -86 -28.5s-52.333 -11.333 -82 -15s-53.167 -5.83398 -70.5 -6.50098s-36.333 -1 -57 -1c-160 0 -277.5 33 -352.5 99s-112.5 158.333 -112.5 277zM181 104.001
c0 -94 29.167 -166.332 87.5 -216.999s155.833 -76 292.5 -76c212 0 366.667 66 464 198c41.333 56 72 120.167 92 192.5s30 136.166 30 191.499c0 95.333 -29 168.5 -87 219.5s-156 76.5 -294 76.5c-69.333 0 -132.5 -7.16699 -189.5 -21.5s-105.833 -33.833 -146.5 -58.5
s-76.5 -55.5 -107.5 -92.5s-56.167 -76.5 -75.5 -118.5s-35 -89 -47 -141c-12.667 -52.667 -19 -103.667 -19 -153zM351 188.002c0 12 0.831055 24.667 2.49805 38s5.5 29.666 11.5 48.999s13.5 37.833 22.5 55.5s21.833 36 38.5 55s35.834 36 57.501 51
s48.834 28.333 81.501 40s68.667 20.167 108 25.5c30.667 4 69.334 6 116.001 6c37.333 0 71.166 -3.16699 101.499 -9.5s48.833 -13.166 55.5 -20.499l2 -6c0 -4 -3.33301 -15.167 -10 -33.5l-20 -52.5l-11 -24c-4 -6 -7.66699 -9 -11 -9c-4 0 -8.83301 2.83301 -14.5 8.5
l-18.5 19c-6.66699 7 -17.667 13.333 -33 19s-33.666 8.5 -54.999 8.5c-56 0 -103.833 -7 -143.5 -21s-68.667 -32.333 -87 -55s-31.166 -44.334 -38.499 -65.001s-11 -41.667 -11 -63c0 -27.333 6.33301 -50 19 -68s30.667 -30.833 54 -38.5s45.166 -12.834 65.499 -15.501
s43.833 -4 70.5 -4c32.667 0 60.5 4 83.5 12s40.5 16 52.5 24s20.333 12 25 12c8 0 12 -4.33301 12 -13c0 -5.33301 -2.66699 -28 -8 -68c-0.666992 -5.33301 -1.16699 -9.16602 -1.5 -11.499l-1 -7c-0.333008 -2.33301 -1.5 -4.16602 -3.5 -5.49902l-4.5 -3
c-1 -0.666992 -3.83301 -2 -8.5 -4s-8.33398 -3.66699 -11.001 -5c-48 -20.667 -98.333 -31 -151 -31c-38.667 0 -73.667 1.66699 -105 5s-61.833 9.83301 -91.5 19.5s-54.5 22.167 -74.5 37.5s-36 35.5 -48 60.5s-18 54.167 -18 87.5z" />
    <glyph glyph-name="ordfeminine" unicode="&#xaa;" horiz-adv-x="489" 
d="M0 255c0 8.66699 2.83301 16.5 8.5 23.5s13.5 11.167 23.5 12.5h360c31.333 0 47 -12 47 -36c0 -4.66699 -0.833008 -9.33398 -2.5 -14.001s-6.16699 -9.5 -13.5 -14.5s-17 -7.5 -29 -7.5h-337c-1.33301 0 -3.5 -0.166992 -6.5 -0.5s-5.16699 -0.5 -6.5 -0.5
c-12 0 -21.5 2.66699 -28.5 8s-11.333 10.333 -13 15s-2.5 9.33398 -2.5 14.001zM50 455c0 22.667 6.66504 38.8359 19.998 48.5029s33.666 17.167 60.999 22.5c38 7.33301 95.333 12.666 172 15.999h1c12 58 18 95 18 111c0 16.667 -2 28 -6 34s-11.333 9 -22 9
c-45.333 0 -89.666 -22.667 -132.999 -68c-5.33301 -5.33301 -10.333 -8 -15 -8c-6.66699 0 -10 4 -10 12c0 8.66699 2 29 6 61c0.666992 7.33301 1.5 12.166 2.5 14.499s2.5 4.66602 4.5 6.99902s6.33301 5.5 13 9.5c47.333 28 99.333 42 156 42
c40 -0.666992 72.833 -10.5 98.5 -29.5s38.5 -50.5 38.5 -94.5c0 -22.667 -13.333 -96.667 -40 -222c-1.33301 -6 -2.16602 -9.5 -2.49902 -10.5s-1.16602 -4.16699 -2.49902 -9.5s-3 -8.83301 -5 -10.5l-8 -7c-3.33301 -3 -7.33301 -5 -12 -6s-10.334 -1.5 -17.001 -1.5
h-43c-25.333 0 -40.666 10.333 -45.999 31c-39.333 -28 -79 -42 -119 -42c-31.333 0 -57.5 8.5 -78.5 25.5s-31.5 38.833 -31.5 65.5zM181.998 469.002c0 -21.333 10.333 -31.998 31 -31.998c24.667 0 47.667 15 69 45c-6 -0.666992 -14.667 -1.33398 -26 -2.00098
s-20.5 -1.16699 -27.5 -1.5s-15 -1.33301 -24 -3s-16.5 -3.83398 -22.5 -6.50098z" />
    <glyph glyph-name="guillemotleft" unicode="&#xab;" horiz-adv-x="733" 
d="M127 250c0 2 0.666992 4.16797 2 6.50098s2.83301 4.16602 4.5 5.49902l7 5.5c3 2.33301 5.16699 4.16602 6.5 5.49902l266 214c12.667 9.33301 23.667 14 33 14c1.33301 0 3.33301 -0.166992 6 -0.5s4.66699 -0.5 6 -0.5s3.33301 0.166992 6 0.5s4.66699 0.5 6 0.5
c6 0 10.667 -0.666992 14 -2s5.33301 -2.66602 6 -3.99902s1.33398 -3.66602 2.00098 -6.99902c0 -1.33301 -0.166992 -2.5 -0.5 -3.5s-0.833008 -2 -1.5 -3s-1.16699 -1.83301 -1.5 -2.5s-1.16602 -1.66699 -2.49902 -3l-3.5 -3.5l-5.5 -5.5
c-2.66699 -2.66699 -5 -5.33398 -7 -8.00098l-204 -210c7.33301 -14.667 21.833 -41.667 43.5 -81l57 -104.5c16.333 -30.333 24.5 -47.5 24.5 -51.5c0 -8 -7 -12 -21 -12h-26c-4.66699 -0 -8.33398 0.333008 -11.001 1s-5.33398 2 -8.00098 4s-4.66699 3.66699 -6 5
s-3.83301 4.33301 -7.5 9l-8.5 11l-165 200c-7.33301 9.33301 -11 16 -11 20zM359 250.001c0 4 6.66504 11.666 19.998 22.999l266 214c12.667 9.33301 23.667 14 33 14c1.33301 0 3.33301 -0.166992 6 -0.5s4.66699 -0.5 6 -0.5s3.33301 0.166992 6 0.5s4.66699 0.5 6 0.5
c6 0 10.667 -0.666992 14 -2s5.33301 -2.66602 6 -3.99902s1.33398 -3.66602 2.00098 -6.99902c0 -1.33301 -0.166992 -2.5 -0.5 -3.5s-0.833008 -2 -1.5 -3s-1.16699 -1.83301 -1.5 -2.5s-1.16602 -1.66699 -2.49902 -3l-3.5 -3.5l-5.5 -5.5
c-2.66699 -2.66699 -5 -5.33398 -7 -8.00098l-205 -210c7.33301 -14.667 22 -41.667 44 -81l57.5 -104.5c16.333 -30.333 24.5 -47.5 24.5 -51.5c0 -8 -7.33301 -12 -22 -12h-26c-5.33301 0 -9.83301 0.833008 -13.5 2.5s-6.16699 3 -7.5 4s-4.33301 4.5 -9 10.5l-10 13
l-165 200c-7.33301 9.33301 -11 16 -11 20z" />
    <glyph glyph-name="logicalnot" unicode="&#xac;" horiz-adv-x="733" 
d="M136 354c0 5.33301 1.00098 10.6689 3.00098 16.002s6.83301 11 14.5 17s18.167 9 31.5 9h512c18.667 0 31.5 -4.5 38.5 -13.5s10.5 -18.5 10.5 -28.5c0 -6 -16.667 -87.333 -50 -244l-1 -4c-0.666992 -3.33301 -1.33398 -6.16602 -2.00098 -8.49902
s-1.83398 -5.33301 -3.50098 -9s-3.5 -6.83398 -5.5 -9.50098s-4.5 -5.33398 -7.5 -8.00098s-6.5 -4.66699 -10.5 -6s-8.66699 -2 -14 -2c-11.333 0 -21.166 3.83301 -29.499 11.5s-12.5 17.5 -12.5 29.5c0 4 14.333 73.333 43 208h-468c-18.667 0 -31.5 4.66699 -38.5 14
s-10.5 18.666 -10.5 27.999z" />
    <glyph glyph-name="uni00AD" unicode="&#xad;" horiz-adv-x="183" 
d="M61 229c0 24.667 14.667 37 44 37h4l2 -1h197c17.333 0 29 -3.83301 35 -11.5s9 -15.5 9 -23.5c0 -4.66699 -0.666992 -9.33398 -2 -14.001s-5.5 -9.66699 -12.5 -15s-16.5 -8 -28.5 -8h-205c-12 0 -21.5 2.5 -28.5 7.5s-11.167 9.83301 -12.5 14.5s-2 9.33398 -2 14.001
z" />
    <glyph glyph-name="registered" unicode="&#xae;" horiz-adv-x="1222" 
d="M97 104c0 87.333 17.667 180.001 53 278.001s88.333 178.333 159 241c112 99.333 264 149 456 149c160.667 0 278.5 -33 353.5 -99s112.5 -158 112.5 -276c0 -45.333 -5.66699 -95.333 -17 -150c-11.333 -54 -26.5 -104 -45.5 -150s-39.667 -85.5 -62 -118.5
s-47.833 -62.833 -76.5 -89.5s-56.5 -48.5 -83.5 -65.5s-56.667 -31.833 -89 -44.5s-61 -22.167 -86 -28.5s-52.333 -11.333 -82 -15s-53.167 -5.83398 -70.5 -6.50098s-36.333 -1 -57 -1c-160 0 -277.5 33 -352.5 99s-112.5 158.333 -112.5 277zM181 104.001
c0 -94 29.167 -166.332 87.5 -216.999s155.833 -76 292.5 -76c212 0 366.667 66 464 198c41.333 56 72 120.167 92 192.5s30 136.166 30 191.499c0 95.333 -29 168.5 -87 219.5s-156 76.5 -294 76.5c-69.333 0 -132.5 -7.16699 -189.5 -21.5s-105.833 -33.833 -146.5 -58.5
s-76.5 -55.5 -107.5 -92.5s-56.167 -76.5 -75.5 -118.5s-35 -89 -47 -141c-12.667 -52.667 -19 -103.667 -19 -153zM375 36.002c0 4.66699 0.666016 11 1.99902 19l83 389c3.33301 15.333 8 26.166 14 32.499s17.333 9.5 34 9.5h254c152.667 0 229 -40.667 229 -122
c0 -8 -0.833008 -16.167 -2.5 -24.5s-6.16699 -19.166 -13.5 -32.499s-17 -25.5 -29 -36.5s-29.833 -21.667 -53.5 -32s-51.167 -18.166 -82.5 -23.499l108 -170c4.66699 -7.33301 7 -14 7 -20c0 -7.33301 -3.16699 -13.333 -9.5 -18s-14.166 -7 -23.499 -7h-55
c-13.333 0 -23.333 1.66699 -30 5s-14 11.666 -22 24.999l-108 177h-126l-19 -94c-10.667 -53.333 -19 -85.5 -25 -96.5s-19.333 -16.5 -40 -16.5h-50c-28 0 -42 12 -42 36zM566.999 280.002l133 -0.000976562c62.667 0 104 6.33301 124 19c20.667 13.333 31 30.333 31 51
c0 12 -3.33301 21.667 -10 29s-17.5 12.333 -32.5 15s-28.167 4.33398 -39.5 5.00098s-28.333 1 -51 1h-130v-1z" />
    <glyph glyph-name="macron" unicode="&#xaf;" 
d="M215 645c0 8.66699 3 26.333 9 53c2.66699 12 10.667 18 24 18h354c13.333 0 20 -5 20 -15l-10 -50c-2 -8.66699 -4.33301 -14 -7 -16s-7.66699 -3.33301 -15 -4h-356c-12.667 0 -19 4.66699 -19 14z" />
    <glyph glyph-name="degree" unicode="&#xb0;" horiz-adv-x="367" 
d="M179 546c0 20.667 3.66602 41.3311 10.999 61.998s22.333 40.167 45 58.5s51.667 27.5 87 27.5c32.667 0 58.667 -8.5 78 -25.5s29 -40.833 29 -71.5c0 -20.667 -3.5 -41.167 -10.5 -61.5s-21.833 -39.666 -44.5 -57.999s-51.667 -27.5 -87 -27.5
c-33.333 0 -59.666 8.33301 -78.999 25s-29 40.334 -29 71.001zM262.999 546.997l1 -9.99805c10.667 -2.66699 19 -4 25 -4c21.333 0 36 6.66699 44 20s12 27.666 12 42.999l-1 11c-8 2 -16 3 -24 3c-22 0 -37 -6.83301 -45 -20.5s-12 -27.834 -12 -42.501z" />
    <glyph glyph-name="plusminus" unicode="&#xb1;" horiz-adv-x="855" 
d="M64 17c0 28 17.3291 41.999 51.9961 41.999h281l51 241h-266c-18.667 0 -31.5 4.83301 -38.5 14.5s-10.5 18.834 -10.5 27.501c0 6 1 11.667 3 17s7.16699 10.833 15.5 16.5s19.5 8.5 33.5 8.5h281l59 281l1 3c0 1.33301 0.333008 3 1 5s1.5 4.33301 2.5 7
s2.33301 5.16699 4 7.5s3.66699 4.83301 6 7.5s4.83301 4.83398 7.5 6.50098s5.83398 3.16699 9.50098 4.5s7.83398 2 12.501 2c12.667 0 22.5 -4.16699 29.5 -12.5s10.5 -18.833 10.5 -31.5c0 -6.66699 -0.333008 -11.667 -1 -15l-57 -265h267c13.333 0 23.833 -3 31.5 -9
s12.334 -11.833 14.001 -17.5s2.5 -11.167 2.5 -16.5c0 -27.333 -17.333 -41 -52 -41h-280l-52 -241h259c18 0 30.667 -2.66699 38 -8c12 -8.66699 18 -20 18 -34c0 -3.33301 -0.666992 -7 -2 -11s-3.5 -8.5 -6.5 -13.5s-8.16699 -9.16699 -15.5 -12.5s-16.333 -5 -27 -5
h-632c-13.333 0 -24.166 3 -32.499 9s-13.333 11.667 -15 17s-2.5 10.666 -2.5 15.999z" />
    <glyph glyph-name="twosuperior" unicode="&#xb2;" horiz-adv-x="489" 
d="M140 398c0 14.667 3.00098 30.332 9.00098 46.999l-1 -8l7 6c139.333 78.667 215.666 122.334 228.999 131.001c26.667 23.333 41 43 43 59c0 26 -23 39 -69 39c-26.667 0 -51.5 -5 -74.5 -15s-34.833 -15 -35.5 -15c-4.66699 0 -9 3 -13 9s-14 24.667 -30 56
c-3.33301 6.66699 -5 11.667 -5 15c0 6 4 10.667 12 14c57.333 24 115.666 36 174.999 36c64.667 0 111 -12.667 139 -38s42 -53.666 42 -84.999c0 -20 -3.16699 -36.5 -9.5 -49.5s-17.333 -24.167 -33 -33.5s-32.167 -17.333 -49.5 -24s-41.666 -16.667 -72.999 -30
s-61 -28 -89 -44l159 1h7c29.333 0 44 -12.333 44 -37c0 -14.667 -3.33301 -30.334 -10 -47.001c-7.33301 -16 -20.333 -24 -39 -24h-294c-15.333 0 -26 3.83301 -32 11.5s-9 16.167 -9 25.5z" />
    <glyph glyph-name="threesuperior" unicode="&#xb3;" horiz-adv-x="489" 
d="M122 359l3.00488 11.0039c2 5.33301 4.16699 11.5 6.5 18.5s4.33301 12.167 6 15.5s3.16699 7 4.5 11s2.5 7 3.5 9l3 6c1 2 2.33301 3.33301 4 4s3 1.5 4 2.5s2.66699 1.66699 5 2s4.16602 0.666016 5.49902 0.999023s4 0.5 8 0.5
c37.333 2.66699 71.5 4.33398 102.5 5.00098s51.167 1 60.5 1s18 1 26 3s16.333 6 25 12c10 16 15 29.333 15 40c0 12 -5.16699 19.833 -15.5 23.5s-24.833 5.5 -43.5 5.5h-22c-16 0 -24 4.33301 -24 13c0 5.33301 2.33301 18.666 7 39.999c2.66699 10 6.16699 16 10.5 18
s11.666 3 21.999 3s19.833 1.66699 28.5 5c14 4.66699 25.333 12.167 34 22.5s13 21.5 13 33.5s-10 18 -30 18c-22.667 0 -43.834 -1.83301 -63.501 -5.5s-35 -7.16699 -46 -10.5s-17.833 -5 -20.5 -5c-6.66699 0 -12.334 5 -17.001 15c-14 30 -21 47.333 -21 52
c0 5.33301 4 10 12 14c51.333 19.333 107 29 167 29c104.667 0 157 -33 157 -99c0 -45.333 -24.333 -81.333 -73 -108c12.667 -4.66699 23 -9 31 -13s16 -10.833 24 -20.5s12 -20.834 12 -33.501c0 -18 -7.83301 -39.667 -23.5 -65s-39.834 -45 -72.501 -59
c-16.667 -7.33301 -34.5 -12.833 -53.5 -16.5s-36.5 -5.83398 -52.5 -6.50098s-45.167 -1.33398 -87.5 -2.00098s-81.5 -2 -117.5 -4c-5.33301 0 -10 2 -14 6l-2 4z" />
    <glyph glyph-name="acute" unicode="&#xb4;" 
d="M323 540c0 4.66699 9.99902 16.999 29.999 36.999c62.667 62.667 94.667 94.334 96 95.001c5.33301 4.66699 12 7 20 7h88c14 0 22.333 -3.33301 25 -10v-5c-0.666992 -3.33301 -4.16699 -7.33301 -10.5 -12s-29.166 -20 -68.499 -46l-98 -65
c-13.333 -8.66699 -24 -13 -32 -13h-29c-14 0 -21 4 -21 12z" />
    <glyph glyph-name="uni00B5" unicode="&#xb5;" horiz-adv-x="561" 
d="M25 -158c0 3.33301 0.670898 8.33496 2.00391 15.002l118 553c4 21.333 9.66699 34.666 17 39.999s17.666 8 30.999 8h45c30.667 0 46 -12.333 46 -37c0 -3.33301 -1.66699 -12.666 -5 -27.999l-59 -278c-3.33301 -14 -5 -26 -5 -36c0 -9.33301 3.33301 -16.333 10 -21
s20 -7 40 -7c34.667 0 63.167 11.167 85.5 33.5s37.5 46.166 45.5 71.499l54 255c2.66699 11.333 4.66699 19.333 6 24s5.5 9.66699 12.5 15s16.833 8 29.5 8h48c16.667 0 28 -4 34 -12s9 -16 9 -24s-1 -15.333 -3 -22l-75 -352c-2.66699 -12 -5 -20.667 -7 -26
s-6.5 -10.333 -13.5 -15s-16.5 -7 -28.5 -7h-46c-28.667 0 -42.334 14 -41.001 42c-46.667 -35.333 -96.334 -53 -149.001 -53c-4 0 -9.33301 0.166992 -16 0.5s-12 0.5 -16 0.5l-15 -74c-10 -50.667 -18 -81.834 -24 -93.501s-18.667 -17.5 -38 -17.5h-47
c-16.667 0 -28.334 4 -35.001 12s-10 16.333 -10 25z" />
    <glyph glyph-name="paragraph" unicode="&#xb6;" horiz-adv-x="672" 
d="M156 433c0 31.333 7.32812 63.3311 21.9951 95.998s35.334 63.667 62.001 93s62.167 53.333 106.5 72s93.166 28 146.499 28h242c19.333 0 32.5 -4.5 39.5 -13.5s10.5 -18.167 10.5 -27.5c0 -28 -17.333 -42 -52 -42h-47l-1 -1l-166 -784l-1 -4
c0 -2 -0.5 -4.33301 -1.5 -7l-3.5 -9c-1.33301 -3.33301 -3.16602 -6.66602 -5.49902 -9.99902s-5 -6.33301 -8 -9s-6.66699 -4.83398 -11 -6.50098s-9.16602 -2.5 -14.499 -2.5c-11.333 0 -21.166 4.33301 -29.499 13s-12.166 20 -11.499 34l167 786h-74l-1 -1l-168 -793
c-5.33301 -26 -19.333 -39 -42 -39c-10 0 -19.167 3.33301 -27.5 10s-13.166 15.334 -14.499 26.001c-0.666992 6 0.333008 14.333 3 25l76 359c-56.667 10 -103.5 33.333 -140.5 70s-55.5 82.334 -55.5 137.001z" />
    <glyph glyph-name="periodcentered" unicode="&#xb7;" horiz-adv-x="225" 
d="M82 193c0 3.33301 1.33301 10.999 4 22.999l10 49c5.33301 26.667 9.33301 42.667 12 48s9 8 19 8h98c14.667 0 22 -5 22 -15c0 -4.66699 -0.833008 -10.834 -2.5 -18.501l-8 -35.5c-3.66699 -16 -6.83398 -31 -9.50098 -45
c-0.666992 -1.33301 -1.33398 -3.66602 -2.00098 -6.99902s-1 -5.5 -1 -6.5s-0.5 -2.5 -1.5 -4.5l-2 -4c-0.333008 -0.666992 -1.16602 -1.5 -2.49902 -2.5s-2.66602 -1.66699 -3.99902 -2s-3 -0.666016 -5 -0.999023s-4.33301 -0.5 -7 -0.5h-99c-14 0 -21 4.66699 -21 14z
" />
    <glyph glyph-name="cedilla" unicode="&#xb8;" horiz-adv-x="489" 
d="M79 -179c0 4.66699 9 17.333 27 38l43 51c28 33.333 45 52.833 51 58.5s13 8.5 21 8.5h27c15.333 0 23 -4.33301 23 -13c0 -4 -4.33301 -13 -13 -27c-49.333 -78.667 -76 -120 -80 -124c-3.33301 -3.33301 -9.33301 -5 -18 -5h-62c-12.667 0 -19 4.33301 -19 13z" />
    <glyph glyph-name="onesuperior" unicode="&#xb9;" horiz-adv-x="489" 
d="M175 397c0 5.33301 0.831055 10.3301 2.49805 14.9971s6.16699 9.5 13.5 14.5s17.333 7.5 30 7.5h59v1l42 198c-24 -5.33301 -44.333 -8 -61 -8c-30 0 -45 12 -45 36c0 18.667 9.66699 30.334 29 35.001c0.666992 0 4.66699 0.166992 12 0.5s15.5 1.33301 24.5 3
s19.167 4 30.5 7s23.5 7.83301 36.5 14.5s25.167 14.667 36.5 24c2.66699 2 5.83398 4.83301 9.50098 8.5s6.5 6.33398 8.5 8.00098s4.33301 3.5 7 5.5s5.5 3.33301 8.5 4s6.5 1 10.5 1c0.666992 0 1.66699 -0.166992 3 -0.5s2.66602 -0.5 3.99902 -0.5
c0.666992 0 1.83398 0.166992 3.50098 0.5s2.83398 0.5 3.50098 0.5c20 0 32.333 -9 37 -27c1.33301 -6 0.666016 -14.667 -2.00098 -26l-60 -285h32c30 0 45 -12 45 -36c0 -24.667 -15.667 -37 -47 -37h-228c-12.667 0 -22.667 2.5 -30 7.5s-11.666 9.83301 -12.999 14.5
s-2 9.33398 -2 14.001z" />
    <glyph glyph-name="ordmasculine" unicode="&#xba;" horiz-adv-x="489" 
d="M0 255c0 8.66699 2.83301 16.5 8.5 23.5s13.5 11.167 23.5 12.5h360c31.333 0 47 -12 47 -36c0 -4.66699 -0.833008 -9.33398 -2.5 -14.001s-6.16699 -9.5 -13.5 -14.5s-17 -7.5 -29 -7.5h-337c-1.33301 0 -3.5 -0.166992 -6.5 -0.5s-5.16699 -0.5 -6.5 -0.5
c-12 0 -21.5 2.66699 -28.5 8s-11.333 10.333 -13 15s-2.5 9.33398 -2.5 14.001zM64 501c0 38 9.16602 79.833 27.499 125.5s47.833 80.5 88.5 104.5c38.667 23.333 88.667 35 150 35c116.667 0 175 -47.667 175 -143c0 -18.667 -1.66699 -38 -5 -58
s-10.333 -42.5 -21 -67.5s-24.667 -47 -42 -66s-41.666 -35 -72.999 -48s-67.333 -19.5 -108 -19.5h-11c-16 0 -30 0.5 -42 1.5s-27.5 4 -46.5 9s-34.5 12 -46.5 21s-22.667 22.5 -32 40.5s-14 39.667 -14 65zM197.999 496c0 -36 20.3311 -54.002 60.998 -54.002
c8.66699 0 16.5 0.833008 23.5 2.5s13.333 3.5 19 5.5s11 5.5 16 10.5s9 8.83301 12 11.5s6.33301 8 10 16s6.16699 13.667 7.5 17s3.33301 10 6 20s4.33398 16.5 5.00098 19.5s2.16699 10.5 4.5 22.5s3.83301 19 4.5 21c4.66699 24.667 7 42 7 52c0 36 -20.667 54 -62 54
c-18.667 0 -34.167 -3.16699 -46.5 -9.5s-22.166 -16.166 -29.499 -29.499s-13 -27 -17 -41s-8 -31.333 -12 -52c-1.33301 -7.33301 -2.33301 -12.666 -3 -15.999c-4 -20 -6 -36.667 -6 -50z" />
    <glyph glyph-name="guillemotright" unicode="&#xbb;" horiz-adv-x="733" 
d="M113 12c0 1.33301 0.167969 2.49902 0.500977 3.49902s0.833008 2 1.5 3s1.16699 1.83301 1.5 2.5s1.16602 1.66699 2.49902 3l3.5 3.5l5.5 5.5c2.66699 2.66699 5 5.33398 7 8.00098l205 211c-7.33301 14.667 -22 41.5 -44 80.5l-57.5 104
c-16.333 30.333 -24.5 47.5 -24.5 51.5c0 8 7 12 21 12h27c6.66699 0 12 -1 16 -3s6.83301 -3.83301 8.5 -5.5s7.16699 -8.5 16.5 -20.5l164 -201c7.33301 -9.33301 11 -16 11 -20s-6.33301 -11.667 -19 -23l-267 -214c-12 -8.66699 -23 -13 -33 -13h-23
c-13.333 0 -21 4 -23 12zM345.001 11.999c0 1.33301 0.167969 2.49902 0.500977 3.49902s0.833008 2 1.5 3s1.16699 1.83301 1.5 2.5s1.16602 1.66699 2.49902 3l3.5 3.5l5.5 5.5c2.66699 2.66699 5 5.33398 7 8.00098l205 211c-7.33301 14.667 -22 41.5 -44 80.5l-57.5 104
c-16.333 30.333 -24.5 47.5 -24.5 51.5c0 8 7 12 21 12h27c6.66699 0 12 -1 16 -3s6.83301 -3.83301 8.5 -5.5s7.16699 -8.5 16.5 -20.5l164 -201c7.33301 -9.33301 11 -16 11 -20s-6.33301 -11.667 -19 -23l-267 -214c-12 -8.66699 -23 -13 -33 -13h-23
c-13.333 0 -21 4 -23 12z" />
    <glyph glyph-name="onequarter" unicode="&#xbc;" horiz-adv-x="489" 
d="M4 -127c0 6 1.82812 16.666 5.49512 31.999s7.83398 26 12.501 32c1.33301 2.66699 33.333 36.167 96 100.5s97.334 98.833 104.001 103.5c10.667 7.33301 26 11 46 11h84c25.333 0 38 -9 38 -27c0 -6.66699 -13 -71 -39 -193h36c32 0 48 -12.667 48 -38
c0 -7.33301 -1.33301 -13.666 -4 -18.999c-3.33301 -16 -8.66602 -26.333 -15.999 -31s-17.666 -7 -30.999 -7h-53c-4.66699 -21.333 -19 -32 -43 -32h-35c-23.333 0 -37.666 10.667 -42.999 32h-163c-28.667 0 -43 12 -43 36zM46.9951 276.999
c0 10.667 3.33203 20.001 9.99902 28.001s15.667 12.667 27 14c5.33301 0.666992 14 1 26 1h379c13.333 0 23.333 -0.333008 30 -1c10.667 -0.666992 19.834 -5.33398 27.501 -14.001s11.5 -18 11.5 -28c0 -5.33301 -0.833008 -10.5 -2.5 -15.5s-6.66699 -10.5 -15 -16.5
s-19.5 -9 -33.5 -9h-411c-13.333 0 -24 3 -32 9s-12.833 11.5 -14.5 16.5s-2.5 10.167 -2.5 15.5zM130.994 -68h103l29 134zM184.994 439c0 4.66699 0.667969 9.33398 2.00098 14.001s5.66602 9.66699 12.999 15s17 8 29 8h60l41 192c-18 -2 -36.333 -3 -55 -3h-6
c-29.333 0 -44 12 -44 36c0 12 4.66699 21.667 14 29c6 4.66699 17 7.16699 33 7.5s35.833 1.83301 59.5 4.5s46.5 9.33398 68.5 20.001c13.333 6.66699 23 10 29 10c0.666992 0 2 -0.166992 4 -0.5s3.33301 -0.5 4 -0.5s1.66699 0.166992 3 0.5s2.66602 0.5 3.99902 0.5
c9.33301 0 17.833 -3.33301 25.5 -10s11.5 -15.667 11.5 -27c0 -0.666992 -0.166992 -1.83398 -0.5 -3.50098s-0.5 -2.83398 -0.5 -3.50098l-53 -252h33c29.333 0 44 -12 44 -36c0 -4.66699 -0.666992 -9.33398 -2 -14.001s-5.66602 -9.66699 -12.999 -15s-17 -8 -29 -8
h-232c-12 0 -21.5 2.5 -28.5 7.5s-11.167 9.83301 -12.5 14.5s-2 9.33398 -2 14.001z" />
    <glyph glyph-name="onehalf" unicode="&#xbd;" horiz-adv-x="489" 
d="M21 -158c0 4.66699 1.33105 10.999 3.99805 18.999l-1 -7c32 22 74.5 47 127.5 75s91.833 51.333 116.5 70s37 38.334 37 59.001c0 14 -6.66699 24.833 -20 32.5s-29.333 11.5 -48 11.5c-20.667 0 -39 -3 -55 -9s-28.667 -12.167 -38 -18.5s-15.666 -9.5 -18.999 -9.5
c-4.66699 0 -8.66699 2.83301 -12 8.5s-13.333 24.5 -30 56.5c-3.33301 5.33301 -5 10.333 -5 15c0 6 4.33301 10.333 13 13c58 11.333 113 17 165 17c38.667 0 71.334 -3.5 98.001 -10.5s46.167 -16.333 58.5 -28s20.833 -23 25.5 -34s7 -22.833 7 -35.5
c0 -10 -1.33301 -19.5 -4 -28.5s-5.5 -16.833 -8.5 -23.5s-8.66699 -13.334 -17 -20.001l-19 -15c-4.33301 -3.33301 -12.5 -7.83301 -24.5 -13.5s-20.333 -9.5 -25 -11.5s-14.5 -5.83301 -29.5 -11.5s-24.5 -9.16699 -28.5 -10.5c-11.333 -4.66699 -44 -20.667 -98 -48h132
c8.66699 0 16 0.166992 22 0.5s9.66699 0.5 11 0.5c29.333 0 44 -12.667 44 -38c0 -5.33301 -0.833008 -10.833 -2.5 -16.5s-6 -11.5 -13 -17.5s-16.5 -9 -28.5 -9h-291c-12 0 -21.5 2.66699 -28.5 8s-11.333 10.333 -13 15s-2.5 9.33398 -2.5 14.001zM47.998 276.999
c0 10.667 3.33301 20.001 10 28.001s15.667 12.667 27 14c5.33301 0.666992 13.666 1 24.999 1h380c12.667 0 22.334 -0.333008 29.001 -1c10.667 -0.666992 19.834 -5.33398 27.501 -14.001s11.5 -18 11.5 -28c0 -4.66699 -0.833008 -9.66699 -2.5 -15
s-6.66699 -11 -15 -17s-19.5 -9 -33.5 -9h-411c-13.333 0 -23.833 3 -31.5 9s-12.334 11.5 -14.001 16.5s-2.5 10.167 -2.5 15.5zM184.998 439c0 4.66699 0.669922 9.33203 2.00293 13.999s5.66602 9.66699 12.999 15s17 8 29 8h61l41 192c-18 -2 -36.333 -3 -55 -3h-8
c-14.667 0 -25.5 3.83301 -32.5 11.5s-10.5 15.834 -10.5 24.501c0 12 4.66699 21.667 14 29c6 4.66699 17 7.16699 33 7.5s36 1.83301 60 4.5s47 9.33398 69 20.001c13.333 6.66699 22.666 10 27.999 10c0.666992 0 2 -0.166992 4 -0.5s3.33301 -0.5 4 -0.5
s2 0.166992 4 0.5s3.33301 0.5 4 0.5c9.33301 0 17.666 -3.33301 24.999 -10s11 -15.667 11 -27c0 -0.666992 -0.166992 -1.83398 -0.5 -3.50098s-0.5 -2.83398 -0.5 -3.50098l-53 -252h34c29.333 0 44 -12 44 -36c0 -4.66699 -0.833008 -9.5 -2.5 -14.5
s-6.16699 -10 -13.5 -15s-17 -7.5 -29 -7.5h-232c-12 0 -21.5 2.5 -28.5 7.5s-11.167 9.83301 -12.5 14.5s-2 9.33398 -2 14.001z" />
    <glyph glyph-name="threequarters" unicode="&#xbe;" horiz-adv-x="489" 
d="M3 -127c0 6 1.99609 16.665 5.99609 31.998s8.33301 26 13 32c1.33301 2.66699 33.333 36.167 96 100.5s97.334 98.833 104.001 103.5c10.667 7.33301 26 11 46 11h84c25.333 0 38 -9 38 -27c0 -6.66699 -13 -71 -39 -193h36c32 0 48 -12.667 48 -38
c0 -7.33301 -1.33301 -13.666 -4 -18.999c-3.33301 -16 -8.66602 -26.333 -15.999 -31s-17.666 -7 -30.999 -7h-53c-4.66699 -21.333 -19 -32 -43 -32h-35c-23.333 0 -37.666 10.667 -42.999 32h-163c-16.667 0 -28.167 3.83301 -34.5 11.5s-9.5 15.834 -9.5 24.501z
M46.9961 276.998c0 10.667 3.33203 20.001 9.99902 28.001s15.667 12.667 27 14c5.33301 0.666992 14 1 26 1h379c13.333 0 23.333 -0.333008 30 -1c10.667 -0.666992 19.834 -5.33398 27.501 -14.001s11.5 -18 11.5 -28c0 -5.33301 -0.833008 -10.5 -2.5 -15.5
s-6.66699 -10.5 -15 -16.5s-19.5 -9 -33.5 -9h-411c-13.333 0 -24 3 -32 9s-12.833 11.5 -14.5 16.5s-2.5 10.167 -2.5 15.5zM124.995 366.999l-0.0078125 4.00488c0 2.66699 6.66699 21.667 20 57c4 10.667 7.5 17.167 10.5 19.5s10.833 5.16602 23.5 8.49902
c44 11.333 93 18 147 20h5c51.333 0 77 14.333 77 43c0 16.667 -19 25 -57 25h-11c-16 0 -25.833 0.5 -29.5 1.5s-6.5 4.5 -8.5 10.5v7c6 28.667 10.333 44.667 13 48s15 6 37 8c20.667 2 36.334 8 47.001 18s16 20 16 30c0 10.667 -10.333 16 -31 16h-12
c-22.667 0 -45 -0.333008 -67 -1s-34.333 -1 -37 -1c-7.33301 0 -12.666 0.666992 -15.999 2s-5.66602 3 -6.99902 5s-3.33301 6.33301 -6 13c-12 28.667 -18 44.667 -18 48c0 2.66699 0.666992 5 2 7s3.83301 3.5 7.5 4.5s6.66699 1.66699 9 2s6.5 0.833008 12.5 1.5
c46 5.33301 90.667 8 134 8c22.667 0 42.334 -1 59.001 -3s34 -6 52 -12s31.833 -15.833 41.5 -29.5s14.5 -30.834 14.5 -51.501c0 -7.33301 -0.666992 -14.5 -2 -21.5s-3.16602 -13 -5.49902 -18s-5.33301 -10 -9 -15l-9.5 -12.5
c-2.66699 -3.33301 -6.33398 -6.83301 -11.001 -10.5s-8.16699 -6.33398 -10.5 -8.00098l-9.5 -6.5c-4 -2.66699 -6.33301 -4.33398 -7 -5.00098c40.667 -12 61 -32.333 61 -61c0 -25.333 -12.333 -51.333 -37 -78c-5.33301 -6 -11.666 -11.5 -18.999 -16.5
s-14 -9.33301 -20 -13s-13.667 -7 -23 -10l-23 -7.5c-6 -2 -14.167 -3.66699 -24.5 -5s-17.833 -2.33301 -22.5 -3s-12.5 -1.33398 -23.5 -2.00098s-18 -1.16699 -21 -1.5s-9.83301 -0.5 -20.5 -0.5h-17c-28.667 -0.666992 -55.167 -3 -79.5 -7
s-43.166 -7.66699 -56.499 -11s-21.666 -5 -24.999 -5c-5.33301 0 -9.66602 3 -12.999 9zM130.987 -67.9961h103l29 134z" />
    <glyph glyph-name="questiondown" unicode="&#xbf;" horiz-adv-x="519" 
d="M45 -91c0 24 5.16602 51.165 15.499 81.498s26.833 55.5 49.5 75.5l36 30c12.667 11.333 24.167 23 34.5 35s19 24.5 26 37.5l18 34c5 9.66699 9.5 21.334 13.5 35.001l8.5 29c1.66699 5.66699 3.83398 14.834 6.50098 27.501s4 19.334 4 20.001
c2.66699 12 10.334 18 23.001 18h60c15.333 0 23 -5.33301 23 -16c0 -2.66699 -4.33301 -22.667 -13 -60c-8 -35.333 -21.833 -70 -41.5 -104s-41.334 -65.833 -65.001 -95.5s-35.5 -44.834 -35.5 -45.501c-7.33301 -11.333 -14.333 -29.833 -21 -55.5
s-10 -45.834 -10 -60.501c0 -18.667 12.667 -28 38 -28c56.667 0 114 22 172 66c9.33301 6.66699 16.333 9.33398 21 8.00098l4 -3l3 -4c7.33301 -34 11 -57.333 11 -70c0 -2.66699 -0.166992 -5 -0.5 -7s-1.16602 -3.66699 -2.49902 -5s-2.5 -2.33301 -3.5 -3
s-2.83301 -1.66699 -5.5 -3s-4.33398 -2.33301 -5.00098 -3c-68 -32 -141 -48 -219 -48c-96.667 0 -145 38 -145 114zM269.999 432.998c0 5.33301 2.16797 18 6.50098 38s7.5 32 9.5 36c1.33301 2.66699 3 5.16699 5 7.5s4.16699 4.16602 6.5 5.49902
s4.16602 2.5 5.49902 3.5s3.5 1.83301 6.5 2.5s5 1 6 1s3.16699 0.333008 6.5 1h5h43c12 0 21.5 -2.66699 28.5 -8s11.167 -10.333 12.5 -15s2 -9 2 -13c0 -5.33301 -2.16699 -18 -6.5 -38s-7.83301 -32.667 -10.5 -38c-6.66699 -11.333 -20 -17.666 -40 -18.999h-43
c-16.667 0 -28 4 -34 12s-9 16 -9 24z" />
    <glyph glyph-name="Agrave" unicode="&#xc0;" horiz-adv-x="733" 
d="M47 22c0 5.33301 7.33398 21.002 22.001 47.002l326 578c10 17.333 20.333 29.5 31 36.5s25 10.5 43 10.5h88c12 0 21.667 -1.33301 29 -4s12.666 -7.5 15.999 -14.5s5.5 -12.333 6.5 -16s2.16699 -10.834 3.5 -21.501l83 -592c0 -1.33301 0.166992 -3.33301 0.5 -6
s0.5 -4.66699 0.5 -6c0 -22.667 -13.333 -34 -40 -34h-56c-6 0 -11.167 0.333008 -15.5 1s-8.33301 1.5 -12 2.5s-6.83398 3 -9.50098 6l-7 8c-2 2.33301 -3.66699 6.16602 -5 11.499l-3.5 14.5c-1 4.33301 -2.16699 11 -3.5 20l-3.5 23.5
c-1 6.66699 -2.16699 16.334 -3.5 29.001s-2.66602 24 -3.99902 34h-286l-22.5 -41l-18.5 -34l-14.5 -25.5c-5.66699 -9.66699 -10.167 -16.5 -13.5 -20.5s-7.33301 -8.33301 -12 -13s-9.33398 -7.83398 -14.001 -9.50098s-9.66699 -3.16699 -15 -4.5s-11.666 -2 -18.999 -2
h-42c-19.333 -0 -29 7.33301 -29 22zM296.001 237.002h225l-38 282l-4 50zM385.001 867.002c0 2 0.333984 3.83203 1.00098 5.49902s2.16699 2.83398 4.5 3.50098s4.16602 1 5.49902 1s3.83301 0.166992 7.5 0.5s6.16699 0.5 7.5 0.5h137c6 0 11.5 -1.66699 16.5 -5
s19.5 -16.333 43.5 -39l46 -42l8 -9l2 -3v-5c-2.66699 -7.33301 -9 -11 -19 -11h-49c-9.33301 0 -21.333 3.33301 -36 10c-111.333 52 -168.333 79.667 -171 83l-3 4c-0.666992 2 -1 4 -1 6z" />
    <glyph glyph-name="Aacute" unicode="&#xc1;" horiz-adv-x="733" 
d="M47 22c0 5.33301 7.33398 21.002 22.001 47.002l326 578c10 17.333 20.333 29.5 31 36.5s25 10.5 43 10.5h88c12 0 21.667 -1.33301 29 -4s12.666 -7.5 15.999 -14.5s5.5 -12.333 6.5 -16s2.16699 -10.834 3.5 -21.501l83 -592c0 -1.33301 0.166992 -3.33301 0.5 -6
s0.5 -4.66699 0.5 -6c0 -22.667 -13.333 -34 -40 -34h-56c-6 0 -11.167 0.333008 -15.5 1s-8.33301 1.5 -12 2.5s-6.83398 3 -9.50098 6l-7 8c-2 2.33301 -3.66699 6.16602 -5 11.499l-3.5 14.5c-1 4.33301 -2.16699 11 -3.5 20l-3.5 23.5
c-1 6.66699 -2.16699 16.334 -3.5 29.001s-2.66602 24 -3.99902 34h-286l-22.5 -41l-18.5 -34l-14.5 -25.5c-5.66699 -9.66699 -10.167 -16.5 -13.5 -20.5s-7.33301 -8.33301 -12 -13s-9.33398 -7.83398 -14.001 -9.50098s-9.66699 -3.16699 -15 -4.5s-11.666 -2 -18.999 -2
h-42c-19.333 -0 -29 7.33301 -29 22zM296.001 237.002h225l-38 282l-4 50zM397.001 775.002l-0.00195312 1c0.666992 4.66699 6.33398 11 17.001 19l45 30l66 43c10 6.66699 19.333 10 28 10h141c13.333 0 20 -4.33301 20 -13c0 -4.66699 -3.66699 -9 -11 -13l-198 -78
c-17.333 -6.66699 -30.666 -10 -39.999 -10h-44c-14.667 0 -22.667 3.66699 -24 11z" />
    <glyph glyph-name="Acircumflex" unicode="&#xc2;" horiz-adv-x="733" 
d="M47 22c0 5.33301 7.33398 21.002 22.001 47.002l326 578c10 17.333 20.333 29.5 31 36.5s25 10.5 43 10.5h88c12 0 21.667 -1.33301 29 -4s12.666 -7.5 15.999 -14.5s5.5 -12.333 6.5 -16s2.16699 -10.834 3.5 -21.501l83 -592c0 -1.33301 0.166992 -3.33301 0.5 -6
s0.5 -4.66699 0.5 -6c0 -22.667 -13.333 -34 -40 -34h-56c-6 0 -11.167 0.333008 -15.5 1s-8.33301 1.5 -12 2.5s-6.83398 3 -9.50098 6l-7 8c-2 2.33301 -3.66699 6.16602 -5 11.499l-3.5 14.5c-1 4.33301 -2.16699 11 -3.5 20l-3.5 23.5
c-1 6.66699 -2.16699 16.334 -3.5 29.001s-2.66602 24 -3.99902 34h-286l-22.5 -41l-18.5 -34l-14.5 -25.5c-5.66699 -9.66699 -10.167 -16.5 -13.5 -20.5s-7.33301 -8.33301 -12 -13s-9.33398 -7.83398 -14.001 -9.50098s-9.66699 -3.16699 -15 -4.5s-11.666 -2 -18.999 -2
h-42c-19.333 -0 -29 7.33301 -29 22zM296.001 237.002h225l-38 282l-4 50zM327.001 747.002c0 4 2.5 8.66992 7.5 14.0029l55.5 58l75 77l4 4c9.33301 9.33301 19 14 29 14h121c8 -0.666992 13.167 -2.33398 15.5 -5.00098s4.5 -7.33398 6.5 -14.001
c20.667 -93.333 31 -142 31 -146c0 -6.66699 -1.5 -10.5 -4.5 -11.5s-10.167 -1.83301 -21.5 -2.5h-26c-6.66699 0 -12.5 2.33301 -17.5 7s-19.5 20.667 -43.5 48l-39 44l-70 -54c-28.667 -22.667 -46 -35.834 -52 -39.501s-13 -5.5 -21 -5.5h-32
c-12 0.666992 -18 4.66699 -18 12z" />
    <glyph glyph-name="Atilde" unicode="&#xc3;" horiz-adv-x="733" 
d="M47 22c0 5.33301 7.33398 21.002 22.001 47.002l326 578c10 17.333 20.333 29.5 31 36.5s25 10.5 43 10.5h88c12 0 21.667 -1.33301 29 -4s12.666 -7.5 15.999 -14.5s5.5 -12.333 6.5 -16s2.16699 -10.834 3.5 -21.501l83 -592c0 -1.33301 0.166992 -3.33301 0.5 -6
s0.5 -4.66699 0.5 -6c0 -22.667 -13.333 -34 -40 -34h-56c-6 0 -11.167 0.333008 -15.5 1s-8.33301 1.5 -12 2.5s-6.83398 3 -9.50098 6l-7 8c-2 2.33301 -3.66699 6.16602 -5 11.499l-3.5 14.5c-1 4.33301 -2.16699 11 -3.5 20l-3.5 23.5
c-1 6.66699 -2.16699 16.334 -3.5 29.001s-2.66602 24 -3.99902 34h-286l-22.5 -41l-18.5 -34l-14.5 -25.5c-5.66699 -9.66699 -10.167 -16.5 -13.5 -20.5s-7.33301 -8.33301 -12 -13s-9.33398 -7.83398 -14.001 -9.50098s-9.66699 -3.16699 -15 -4.5s-11.666 -2 -18.999 -2
h-42c-19.333 -0 -29 7.33301 -29 22zM296.001 237.002h225l-38 282l-4 50zM342.001 750.002c0 11.333 4.83203 28.3311 14.499 50.998s25.834 45.334 48.501 68.001s47.334 34 74.001 34c18.667 0 34.667 -5 48 -15s23.166 -20.833 29.499 -32.5s14 -22.5 23 -32.5
s18.833 -15 29.5 -15c14.667 2.66699 26 10.667 34 24s14 27.333 18 42s7.33301 23 10 25c3.33301 2.66699 8.33301 4 15 4h33c12 0 18 -5.33301 18 -16c0 -6.66699 -2.83301 -17.667 -8.5 -33s-13.667 -32.166 -24 -50.499s-25 -34.333 -44 -48s-39.5 -20.5 -61.5 -20.5
c-18 0 -33.833 5 -47.5 15s-23.834 20.833 -30.501 32.5s-14.167 22.5 -22.5 32.5s-17.166 15 -26.499 15c-7.33301 0 -16 -3.66699 -26 -11c-10 -14 -17.5 -27 -22.5 -39s-7.5 -20.5 -7.5 -25.5s-1.33301 -9.33301 -4 -13s-6.5 -5.66699 -11.5 -6s-14.833 -0.5 -29.5 -0.5
h-8c-14 0 -21 5 -21 15z" />
    <glyph glyph-name="Adieresis" unicode="&#xc4;" horiz-adv-x="733" 
d="M47 22c0 5.33301 7.33398 21.002 22.001 47.002l326 578c10 17.333 20.333 29.5 31 36.5s25 10.5 43 10.5h88c12 0 21.667 -1.33301 29 -4s12.666 -7.5 15.999 -14.5s5.5 -12.333 6.5 -16s2.16699 -10.834 3.5 -21.501l83 -592c0 -1.33301 0.166992 -3.33301 0.5 -6
s0.5 -4.66699 0.5 -6c0 -22.667 -13.333 -34 -40 -34h-56c-6 0 -11.167 0.333008 -15.5 1s-8.33301 1.5 -12 2.5s-6.83398 3 -9.50098 6l-7 8c-2 2.33301 -3.66699 6.16602 -5 11.499l-3.5 14.5c-1 4.33301 -2.16699 11 -3.5 20l-3.5 23.5
c-1 6.66699 -2.16699 16.334 -3.5 29.001s-2.66602 24 -3.99902 34h-286l-22.5 -41l-18.5 -34l-14.5 -25.5c-5.66699 -9.66699 -10.167 -16.5 -13.5 -20.5s-7.33301 -8.33301 -12 -13s-9.33398 -7.83398 -14.001 -9.50098s-9.66699 -3.16699 -15 -4.5s-11.666 -2 -18.999 -2
h-42c-19.333 -0 -29 7.33301 -29 22zM296.001 237.002h225l-38 282l-4 50zM357.001 796.002c0 4 2.33398 18.168 7.00098 42.501s8.66699 39.166 12 44.499c6.66699 11.333 20.334 17.666 41.001 18.999h52c29.333 0 44 -12.333 44 -37c0 -8 -3.66699 -28 -11 -60
c-2.66699 -10.667 -5.33398 -19.167 -8.00098 -25.5s-6.33398 -10.833 -11.001 -13.5s-8.5 -4.16699 -11.5 -4.5s-8.83301 -0.833008 -17.5 -1.5h-52c-12 0 -21.667 2.5 -29 7.5s-11.833 9.83301 -13.5 14.5s-2.5 9.33398 -2.5 14.001zM571.002 797.003
c0 1.33301 3.66797 20.334 11.001 57.001c4.66699 21.333 10.167 34.666 16.5 39.999s17.166 8 32.499 8h51c30 0 45 -12 45 -36c0 -4.66699 -2.5 -19.5 -7.5 -44.5s-9.5 -40.167 -13.5 -45.5c-7.33301 -10.667 -20 -16 -38 -16h-53c-29.333 0 -44 12.333 -44 37z" />
    <glyph glyph-name="Aring" unicode="&#xc5;" horiz-adv-x="733" 
d="M47 22c0 6.66699 3.00195 14.998 9.00195 24.998l340 601c-14.667 18.667 -22 40 -22 64c0 24.667 5.33301 53 16 85s27 57 49 75c25.333 20 56.666 30 93.999 30c65.333 0 98 -30 98 -90c0 -46 -12 -88.667 -36 -128c8.66699 -9.33301 14 -20.666 16 -33.999l84 -604
c0 -1.33301 0.166992 -3.33301 0.5 -6s0.5 -4.66699 0.5 -6c0 -22 -13.333 -33.333 -40 -34h-56c-6 0 -11.167 0.333008 -15.5 1s-8.33301 1.5 -12 2.5s-6.83398 2.83301 -9.50098 5.5s-5 5.16699 -7 7.5s-3.66699 6.33301 -5 12l-3.5 15
c-1 4.33301 -2.16699 10.833 -3.5 19.5l-3.5 23.5c-1 7 -2.16699 16.833 -3.5 29.5s-2.66602 24 -3.99902 34h-286l-22.5 -41l-18.5 -34c-4 -7.33301 -9 -15.833 -15 -25.5s-10.667 -16.5 -14 -20.5s-7.33301 -8.5 -12 -13.5s-9.33398 -8.16699 -14.001 -9.5
s-10 -2.66602 -16 -3.99902s-12.667 -2 -20 -2h-39c-19.333 -0 -29 7.33301 -29 22zM296.002 236.998h225l-38 282l-4 50zM437.002 730.998c0 -15.333 4.33398 -25.333 13.001 -30s20.667 -7 36 -7c27.333 0 46.666 6.33301 57.999 19c8.66699 10 14.834 23.833 18.501 41.5
s5.5 30.5 5.5 38.5c0 24.667 -16.333 37 -49 37c-16 0 -27.333 -1.16699 -34 -3.5s-14.334 -7.16602 -23.001 -14.499c-8.66699 -10 -15 -23.833 -19 -41.5s-6 -30.834 -6 -39.501z" />
    <glyph glyph-name="AE" unicode="&#xc6;" horiz-adv-x="947" 
d="M49 21c0 7.33301 11.333 28.666 34 63.999l346 552c0.666992 1.33301 2.33398 4.16602 5.00098 8.49902s4.5 7.16602 5.5 8.49902s2.83301 4 5.5 8s5 6.83301 7 8.5s4.66699 4.16699 8 7.5s6.66602 5.66602 9.99902 6.99902l11.5 4.5
c4.33301 1.66699 9 2.83398 14 3.50098s10.5 1 16.5 1h468c29.333 0 44 -12.333 44 -37c0 -14 -3 -28.667 -9 -44c-6.66699 -15.333 -20 -23 -40 -23l-246 3l-40 -186h189c12 0 21 -0.666992 27 -2c9.33301 -2 16.333 -6.5 21 -13.5s7 -13.5 7 -19.5
c0 -23.333 -5.33301 -40 -16 -50c-6.66699 -6.66699 -18 -10 -34 -10h-214v-1l-43 -204l247 4c16 0 27 -4 33 -12s9 -16 9 -24c0 -18 -3.33301 -35.333 -10 -52c-6.66699 -15.333 -20.667 -23 -42 -23h-351c-17.333 0 -29 4 -35 12s-9 16 -9 24c0 4 10.667 55.667 32 155
h-215l-30.5 -50l-25 -41l-20 -31.5l-17 -25.5c-3.66699 -5.33301 -8.16699 -11.166 -13.5 -17.499s-9.83301 -10.666 -13.5 -12.999s-8 -4.66602 -13 -6.99902s-10 -3.83301 -15 -4.5s-10.833 -1 -17.5 -1h-46c-16.667 0 -25 7 -25 21zM340 278h178l68 316h-48z" />
    <glyph glyph-name="Ccedilla" unicode="&#xc7;" horiz-adv-x="703" 
d="M121 235c0 44 7.83105 96.001 23.498 156.001s39.834 113.333 72.501 160c76 110 197 165 363 165c47.333 0 89.333 -4.66699 126 -14s59 -18 67 -26l3 -6c0 -6.66699 -13.667 -43.334 -41 -110.001c-3.33301 -6 -7 -9 -11 -9s-10 3.33301 -18 10l-26.5 22.5
c-9.66699 8.33301 -25 15.833 -46 22.5s-45.167 10 -72.5 10c-158 0 -254.333 -98 -289 -294c-5.33301 -28 -8 -53.667 -8 -77c0 -111.333 57.333 -167 172 -167c45.333 0 80.833 3.83301 106.5 11.5s57.167 23.167 94.5 46.5c7.33301 4 13.666 6 18.999 6
c6.66699 0 10 -5 10 -15c0 -4 -2.66699 -26.667 -8 -68c0 -0.666992 -0.166992 -2.5 -0.5 -5.5s-0.666016 -4.83301 -0.999023 -5.5s-0.666016 -2 -0.999023 -4s-0.833008 -3.33301 -1.5 -4s-1.5 -1.66699 -2.5 -3s-2.33301 -2.5 -4 -3.5s-3.5 -2.16699 -5.5 -3.5
c-40.667 -20 -75.167 -33.667 -103.5 -41s-63.166 -11 -104.499 -11h-40c-30 2 -56.833 5.5 -80.5 10.5s-48 13.333 -73 25s-45.833 26.5 -62.5 44.5s-30.334 42 -41.001 72s-16 65 -16 105zM261.998 -178.999c0 4.66699 9 17.332 27 37.999l49 58
c24 28.667 39 45.834 45 51.501s12.333 8.5 19 8.5h30c14.667 0 22 -4 22 -12c0 -4.66699 -12.667 -27 -38 -67l-47 -74c-4.66699 -7.33301 -8.5 -11.833 -11.5 -13.5s-7.83301 -2.5 -14.5 -2.5h-62c-12.667 0 -19 4.33301 -19 13z" />
    <glyph glyph-name="Egrave" unicode="&#xc8;" horiz-adv-x="642" 
d="M100 36c0 4.66699 0.664062 11.002 1.99707 19.002l125 589c2 8.66699 3.66699 15 5 19s3.66602 8.66699 6.99902 14s7.83301 9 13.5 11s12.834 3 21.501 3h400c12 0 21.5 -2.33301 28.5 -7s11.333 -9.33398 13 -14.001s2.5 -9.66699 2.5 -15
c0 -15.333 -3 -30.333 -9 -45c-6.66699 -15.333 -20.667 -23 -42 -23c-7.33301 0 -18.666 0.166992 -33.999 0.5s-47 0.666016 -95 0.999023s-107.333 0.833008 -178 1.5h-1l-38 -185h261c30 0 45 -12.333 45 -37c0 -4.66699 -0.666992 -9.66699 -2 -15
c-4 -17.333 -9.33301 -28.833 -16 -34.5s-17 -8.5 -31 -8.5h-278l-43 -203c30 0 70.167 0.333008 120.5 1s93.833 1.33398 130.5 2.00098s56.334 1 59.001 1c16 0 27.167 -3.83301 33.5 -11.5s9.5 -15.5 9.5 -23.5c0 -6 -1.66699 -16.333 -5 -31
s-6.66602 -24.334 -9.99902 -29.001c-8 -10.667 -20.667 -16 -38 -16h-414c-28.667 0 -43 12 -43 36zM324.997 866.002c2 8 7.66895 12 17.002 12h143c8 0 14.833 -2.16699 20.5 -6.5s23.5 -20.166 53.5 -47.499l34 -31c5.33301 -4.66699 8.66602 -9.33398 9.99902 -14.001
v-5c0 -6.66699 -6 -10 -18 -10h-51c-8.66699 0 -20.334 3.33301 -35.001 10l-85 40c-44 20.667 -69.667 33 -77 37s-11.333 8.66699 -12 14v1z" />
    <glyph glyph-name="Eacute" unicode="&#xc9;" horiz-adv-x="642" 
d="M100 36c0 4.66699 0.664062 11.002 1.99707 19.002l125 589c2 8.66699 3.66699 15 5 19s3.66602 8.66699 6.99902 14s7.83301 9 13.5 11s12.834 3 21.501 3h400c12 0 21.5 -2.33301 28.5 -7s11.333 -9.33398 13 -14.001s2.5 -9.66699 2.5 -15
c0 -15.333 -3 -30.333 -9 -45c-6.66699 -15.333 -20.667 -23 -42 -23c-7.33301 0 -18.666 0.166992 -33.999 0.5s-47 0.666016 -95 0.999023s-107.333 0.833008 -178 1.5h-1l-38 -185h261c30 0 45 -12.333 45 -37c0 -4.66699 -0.666992 -9.66699 -2 -15
c-4 -17.333 -9.33301 -28.833 -16 -34.5s-17 -8.5 -31 -8.5h-278l-43 -203c30 0 70.167 0.333008 120.5 1s93.833 1.33398 130.5 2.00098s56.334 1 59.001 1c16 0 27.167 -3.83301 33.5 -11.5s9.5 -15.5 9.5 -23.5c0 -6 -1.66699 -16.333 -5 -31
s-6.66602 -24.334 -9.99902 -29.001c-8 -10.667 -20.667 -16 -38 -16h-414c-28.667 0 -43 12 -43 36zM381.997 775.002c0.666992 6 4.66699 11.6689 12 17.002s45.666 30.666 114.999 75.999c10 6.66699 19.667 10 29 10h141c13.333 0 20 -4.33301 20 -13
c0 -4.66699 -4 -9 -12 -13c-2 -0.666992 -75 -29.334 -219 -86.001c-4 -1.33301 -10 -2 -18 -2h-43c-15.333 0 -23.666 3.66699 -24.999 11z" />
    <glyph glyph-name="Ecircumflex" unicode="&#xca;" horiz-adv-x="642" 
d="M100 36c0 4.66699 0.664062 11.002 1.99707 19.002l125 589c2 8.66699 3.66699 15 5 19s3.66602 8.66699 6.99902 14s7.83301 9 13.5 11s12.834 3 21.501 3h400c12 0 21.5 -2.33301 28.5 -7s11.333 -9.33398 13 -14.001s2.5 -9.66699 2.5 -15
c0 -15.333 -3 -30.333 -9 -45c-6.66699 -15.333 -20.667 -23 -42 -23c-7.33301 0 -18.666 0.166992 -33.999 0.5s-47 0.666016 -95 0.999023s-107.333 0.833008 -178 1.5h-1l-38 -185h261c30 0 45 -12.333 45 -37c0 -4.66699 -0.666992 -9.66699 -2 -15
c-4 -17.333 -9.33301 -28.833 -16 -34.5s-17 -8.5 -31 -8.5h-278l-43 -203c30 0 70.167 0.333008 120.5 1s93.833 1.33398 130.5 2.00098s56.334 1 59.001 1c16 0 27.167 -3.83301 33.5 -11.5s9.5 -15.5 9.5 -23.5c0 -6 -1.66699 -16.333 -5 -31
s-6.66602 -24.334 -9.99902 -29.001c-8 -10.667 -20.667 -16 -38 -16h-414c-28.667 0 -43 12 -43 36zM290.997 748.002c0 4 2.66699 8.83203 8 14.499l70 72.5l63 65c9.33301 9.33301 19 14 29 14h75c6.66699 0 12.834 -4.16699 18.501 -12.5s18.5 -31.166 38.5 -68.499
l36 -67c4.66699 -9.33301 7 -15.333 7 -18c0 -8.66699 -6 -13 -18 -13h-35c-6 0 -12.167 3 -18.5 9s-21.833 23 -46.5 51l-34 39c-80 -61.333 -122.333 -93.333 -127 -96c-4.66699 -2 -10.334 -3 -17.001 -3h-26c-15.333 0 -23 4.33301 -23 13z" />
    <glyph glyph-name="Edieresis" unicode="&#xcb;" horiz-adv-x="642" 
d="M100 36c0 4.66699 0.664062 11.002 1.99707 19.002l125 589c2 8.66699 3.66699 15 5 19s3.66602 8.66699 6.99902 14s7.83301 9 13.5 11s12.834 3 21.501 3h400c12 0 21.5 -2.33301 28.5 -7s11.333 -9.33398 13 -14.001s2.5 -9.66699 2.5 -15
c0 -15.333 -3 -30.333 -9 -45c-6.66699 -15.333 -20.667 -23 -42 -23c-7.33301 0 -18.666 0.166992 -33.999 0.5s-47 0.666016 -95 0.999023s-107.333 0.833008 -178 1.5h-1l-38 -185h261c30 0 45 -12.333 45 -37c0 -4.66699 -0.666992 -9.66699 -2 -15
c-4 -17.333 -9.33301 -28.833 -16 -34.5s-17 -8.5 -31 -8.5h-278l-43 -203c30 0 70.167 0.333008 120.5 1s93.833 1.33398 130.5 2.00098s56.334 1 59.001 1c16 0 27.167 -3.83301 33.5 -11.5s9.5 -15.5 9.5 -23.5c0 -6 -1.66699 -16.333 -5 -31
s-6.66602 -24.334 -9.99902 -29.001c-8 -10.667 -20.667 -16 -38 -16h-414c-28.667 0 -43 12 -43 36zM296.997 797.002c0 4.66699 2.49902 19.168 7.49902 43.501s8.83301 38.833 11.5 43.5c6.66699 11.333 20.334 17.666 41.001 18.999h51c18 0 30 -4 36 -12s9 -16 9 -24
c0 -4.66699 -2.5 -19.5 -7.5 -44.5s-9.5 -40.167 -13.5 -45.5c-8 -11.333 -21 -17 -39 -17h-52c-29.333 0 -44 12.333 -44 37zM509.996 796.003c0 2 3.99805 22.333 11.998 61c2.66699 10.667 5.33398 19.334 8.00098 26.001s6.33398 11.167 11.001 13.5
s8.66699 3.83301 12 4.5s8.33301 1 15 1h54c29.333 0 44 -12 44 -36c0 -4.66699 -2.5 -19.334 -7.5 -44.001s-9.16699 -39.667 -12.5 -45c-7.33301 -11.333 -20.333 -17 -39 -17h-53c-29.333 0 -44 12 -44 36z" />
    <glyph glyph-name="Igrave" unicode="&#xcc;" horiz-adv-x="325" 
d="M100 37c0 6.66699 1.33301 16.002 4 28.002l124 583c4.66699 21.333 10.167 34.333 16.5 39s17.166 7 32.499 7h50c30.667 0 46 -12.333 46 -37c0 -3.33301 -1.66699 -12.666 -5 -27.999l-124 -584c-3.33301 -14.667 -7.66602 -25.334 -12.999 -32.001
s-10 -10.334 -14 -11.001s-11.333 -1.33398 -22 -2.00098h-50c-30 -0 -45 12.333 -45 37zM167 866.002c2 8 7.66699 12.001 17 12.001h146c6 0 12.333 -2.33301 19 -7s20.334 -16.667 41.001 -36l45 -42c5.33301 -4.66699 8.66602 -9.33398 9.99902 -14.001v-5
c0 -6.66699 -6 -10 -18 -10h-50c-9.33301 0 -21.333 3.33301 -36 10l-85 40c-44 20.667 -69.667 33 -77 37s-11.333 8.66699 -12 14v1z" />
    <glyph glyph-name="Iacute" unicode="&#xcd;" horiz-adv-x="325" 
d="M100 37c0 6.66699 1.33301 16.002 4 28.002l124 583c4.66699 21.333 10.167 34.333 16.5 39s17.166 7 32.499 7h50c30.667 0 46 -12.333 46 -37c0 -3.33301 -1.66699 -12.666 -5 -27.999l-124 -584c-3.33301 -14.667 -7.66602 -25.334 -12.999 -32.001
s-10 -10.334 -14 -11.001s-11.333 -1.33398 -22 -2.00098h-50c-30 -0 -45 12.333 -45 37zM239 775.002c0.666992 6 4.66699 11.6689 12 17.002s45.666 30.666 114.999 75.999c10 6.66699 19.667 10 29 10h141c13.333 0 20 -4.33301 20 -13c0 -4.66699 -4 -9 -12 -13
c-2 -0.666992 -75 -29.334 -219 -86.001c-4 -1.33301 -10 -2 -18 -2h-43c-15.333 0 -23.666 3.66699 -24.999 11z" />
    <glyph glyph-name="Icircumflex" unicode="&#xce;" horiz-adv-x="325" 
d="M100 37c0 6.66699 1.33301 16.002 4 28.002l124 583c4.66699 21.333 10.167 34.333 16.5 39s17.166 7 32.499 7h50c30.667 0 46 -12.333 46 -37c0 -3.33301 -1.66699 -12.666 -5 -27.999l-124 -584c-3.33301 -14.667 -7.66602 -25.334 -12.999 -32.001
s-10 -10.334 -14 -11.001s-11.333 -1.33398 -22 -2.00098h-50c-30 -0 -45 12.333 -45 37zM149 748.002c0 4 2.66895 8.83301 8.00195 14.5l70 72.5l63 65c9.33301 9.33301 18.666 14 27.999 14h76c6 0 11 -3 15 -9s17 -29 39 -69l39 -70c4 -8 6 -14 6 -18
c0 -7.33301 -6 -11.666 -18 -12.999h-33h-1c-8 0.666992 -16.333 5.66699 -25 15c-4.66699 4.66699 -15.334 16.667 -32.001 36l-43 48l-70 -54c-28.667 -22.667 -46 -35.834 -52 -39.501s-13 -5.5 -21 -5.5h-25c-16 0 -24 4.33301 -24 13z" />
    <glyph glyph-name="Idieresis" unicode="&#xcf;" horiz-adv-x="325" 
d="M100 37c0 6.66699 1.33301 16.002 4 28.002l124 583c4.66699 21.333 10.167 34.333 16.5 39s17.166 7 32.499 7h50c30.667 0 46 -12.333 46 -37c0 -3.33301 -1.66699 -12.666 -5 -27.999l-124 -584c-3.33301 -14.667 -7.66602 -25.334 -12.999 -32.001
s-10 -10.334 -14 -11.001s-11.333 -1.33398 -22 -2.00098h-50c-30 -0 -45 12.333 -45 37zM155 797.002c0 4.66699 2.49902 19.168 7.49902 43.501s8.83301 38.833 11.5 43.5c6.66699 11.333 20.334 17.666 41.001 18.999h51c18 0 30 -4 36 -12s9 -16 9 -24
c0 -4.66699 -2.5 -19.5 -7.5 -44.5s-9.5 -40.167 -13.5 -45.5c-8 -11.333 -21 -17 -39 -17h-52c-29.333 0 -44 12.333 -44 37zM367.999 796.003c0 5.33301 2.49902 19.834 7.49902 43.501s8.83301 38.167 11.5 43.5c6.66699 11.333 20.334 17.666 41.001 18.999h51
c29.333 0 44 -12.333 44 -37c0 -3.33301 -3.66699 -23.333 -11 -60c-3.33301 -14.667 -7.33301 -25.167 -12 -31.5s-9.16699 -10 -13.5 -11s-11.833 -1.83301 -22.5 -2.5h-52c-29.333 0 -44 12 -44 36z" />
    <glyph glyph-name="Eth" unicode="&#xd0;" horiz-adv-x="794" 
d="M36 341c0 4.66699 0.831055 9.33496 2.49805 14.002s6 9.5 13 14.5s16.5 7.5 28.5 7.5h91l58 273c4 17.333 8.83301 29 14.5 35s17.167 9 34.5 9h266c183.333 0 275 -78.333 275 -235c0 -52 -9.5 -110.333 -28.5 -175s-48.5 -119.334 -88.5 -164.001
c-39.333 -44 -85.166 -75 -137.499 -93s-115.166 -27 -188.499 -27h-232c-16.667 0 -28.167 3.66699 -34.5 11s-9.5 15 -9.5 23c0 5.33301 18.667 95.666 56 270.999h-64c-1.33301 0 -3.33301 -0.166992 -6 -0.5s-4.66699 -0.5 -6 -0.5c-12 0 -21.5 2.5 -28.5 7.5
s-11.333 10 -13 15s-2.5 9.83301 -2.5 14.5zM249.998 86.001l110 0.00488281c2 0 4.5 0.166992 7.5 0.5s9.66699 0.666016 20 0.999023s23.166 0.833008 38.499 1.5c39.333 4 73.333 13 102 27s51.834 33 69.501 57s31.5 48.667 41.5 74s18.667 55.666 26 90.999
c10 45.333 15 83.666 15 114.999c0 28.667 -4.83301 53.167 -14.5 73.5s-20.834 35.666 -33.501 45.999s-29.5 18.333 -50.5 24s-38.667 9 -53 10s-32.166 1.5 -53.499 1.5h-114l-49 -231h141c10 0 17.333 -0.333008 22 -1c8 -2 15 -6 21 -12s9 -13.667 9 -23
c0 -4.66699 -0.833008 -9.33398 -2.5 -14.001s-6 -9.5 -13 -14.5s-16.5 -7.5 -28.5 -7.5h-165z" />
    <glyph glyph-name="Ntilde" unicode="&#xd1;" horiz-adv-x="794" 
d="M100 36c0 4.66699 0.670898 10.9941 2.00391 18.9941l128 601c3.33301 15.333 8.66602 25.5 15.999 30.5s17.333 7.5 30 7.5h100c12 0 22 -1.16699 30 -3.5s14.333 -6.83301 19 -13.5s7.83398 -12 9.50098 -16s4.16699 -11.333 7.5 -22l161 -519l112 525
c2 10 3.66699 16.833 5 20.5s3.66602 8.33398 6.99902 14.001s8 9.5 14 11.5s13.667 3 23 3h31c30.667 0 46 -12 46 -36c0 -2.66699 -0.666992 -6.66699 -2 -12s-2 -8.66602 -2 -9.99902l-125 -589c0 -1.33301 -0.5 -3.83301 -1.5 -7.5s-1.66699 -6.16699 -2 -7.5
s-1 -3.66602 -2 -6.99902s-2 -5.66602 -3 -6.99902l-4 -5.5c-1.66699 -2.33301 -3.5 -4 -5.5 -5s-4.5 -2.16699 -7.5 -3.5s-6.33301 -2.33301 -10 -3s-7.83398 -1 -12.501 -1h-102c-12 0 -21.833 1.33301 -29.5 4s-13.834 7.33398 -18.501 14.001s-7.5 11.167 -8.5 13.5
s-2.83301 7.5 -5.5 15.5l-163 528l-111 -523c0 -1.33301 -0.5 -4.16602 -1.5 -8.49902s-1.66699 -7 -2 -8s-1 -3.33301 -2 -7s-1.83301 -6 -2.5 -7s-1.66699 -3 -3 -6s-2.83301 -4.83301 -4.5 -5.5s-3.66699 -2 -6 -4s-4.83301 -3.16699 -7.5 -3.5
s-5.83398 -0.833008 -9.50098 -1.5s-7.5 -1 -11.5 -1h-32c-29.333 0 -44 12 -44 36zM373.004 749.994c0 10.667 4.50195 27.167 13.502 49.5s24.833 45 47.5 68s48.334 34.5 77.001 34.5c18 0 33.833 -4.83301 47.5 -14.5s23.667 -20.5 30 -32.5s13.833 -22.833 22.5 -32.5
s18 -14.5 28 -14.5c22.667 0 41 25.667 55 77c2.66699 12 10.334 18 23.001 18h29c9.33301 0 15.166 -1.33301 17.499 -4s3.83301 -6.66699 4.5 -12c0 -7.33301 -3 -18.5 -9 -33.5s-14.333 -31.667 -25 -50s-25.334 -34.333 -44.001 -48s-39 -20.5 -61 -20.5
c-17.333 0 -32.666 4.83301 -45.999 14.5s-23.333 20.5 -30 32.5s-14.334 22.833 -23.001 32.5s-18 14.5 -28 14.5c-9.33301 0 -18 -4.16699 -26 -12.5s-13.833 -17 -17.5 -26s-7.33398 -19.5 -11.001 -31.5s-5.83398 -18.667 -6.50098 -20
c-7.33301 -2.66699 -14.333 -4 -21 -4h-28c-12.667 0 -19 5 -19 15z" />
    <glyph glyph-name="Ograve" unicode="&#xd2;" horiz-adv-x="794" 
d="M118 217c0 52.667 9.66602 112.666 28.999 179.999c60.667 212.667 195 319 403 319c28.667 0 55.334 -2.16699 80.001 -6.5s49 -12.166 73 -23.499s44.333 -25.833 61 -43.5s30.167 -41 40.5 -70s15.5 -62.5 15.5 -100.5c0 -44 -7.5 -98 -22.5 -162
s-38.833 -120.333 -71.5 -169c-73.333 -108.667 -185.333 -163 -336 -163c-181.333 0 -272 79.667 -272 239zM259.999 220.999c0 -59.333 14.168 -101.166 42.501 -125.499s63.833 -36.5 106.5 -36.5c128.667 0 213 94 253 282c0.666992 4 1.33398 7 2.00098 9
c12.667 61.333 19 105.666 19 132.999c0 56.667 -14.333 96.667 -43 120s-64.667 35 -108 35c-128.667 0 -212.334 -88.333 -251.001 -265c0 -2 -0.333008 -4.66699 -1 -8s-1.33398 -6 -2.00098 -8c-12 -60 -18 -105.333 -18 -136zM415 866.999
c0 2 0.499023 3.83203 1.49902 5.49902s2.5 2.83398 4.5 3.50098s3.83301 1 5.5 1s4.33398 0.166992 8.00098 0.5s6.16699 0.5 7.5 0.5h137c6 0 11.5 -1.66699 16.5 -5s19.5 -16.333 43.5 -39l46 -42l8 -9l1 -3l1 -5c-2.66699 -7.33301 -9 -11 -19 -11h-50
c-9.33301 0 -21.333 3.33301 -36 10c-111.333 52 -168.333 79.667 -171 83l-3 4c-0.666992 2 -1 4 -1 6z" />
    <glyph glyph-name="Oacute" unicode="&#xd3;" horiz-adv-x="794" 
d="M118 217c0 52.667 9.66602 112.666 28.999 179.999c60.667 212.667 195 319 403 319c28.667 0 55.334 -2.16699 80.001 -6.5s49 -12.166 73 -23.499s44.333 -25.833 61 -43.5s30.167 -41 40.5 -70s15.5 -62.5 15.5 -100.5c0 -44 -7.5 -98 -22.5 -162
s-38.833 -120.333 -71.5 -169c-73.333 -108.667 -185.333 -163 -336 -163c-181.333 0 -272 79.667 -272 239zM259.999 220.999c0 -59.333 14.168 -101.166 42.501 -125.499s63.833 -36.5 106.5 -36.5c128.667 0 213 94 253 282c0.666992 4 1.33398 7 2.00098 9
c12.667 61.333 19 105.666 19 132.999c0 56.667 -14.333 96.667 -43 120s-64.667 35 -108 35c-128.667 0 -212.334 -88.333 -251.001 -265c0 -2 -0.333008 -4.66699 -1 -8s-1.33398 -6 -2.00098 -8c-12 -60 -18 -105.333 -18 -136zM428 774.999c0.666992 5.33301 5 11 13 17
l114 76c10 6.66699 19.667 10 29 10h141c13.333 0 20 -4.33301 20 -13c0 -4.66699 -4 -9 -12 -13c-1.33301 -0.666992 -67.333 -26.667 -198 -78c-17.333 -6.66699 -30.333 -10 -39 -10h-45c-14 0 -21.667 3.66699 -23 11z" />
    <glyph glyph-name="Ocircumflex" unicode="&#xd4;" horiz-adv-x="794" 
d="M118 217c0 52.667 9.66602 112.666 28.999 179.999c60.667 212.667 195 319 403 319c28.667 0 55.334 -2.16699 80.001 -6.5s49 -12.166 73 -23.499s44.333 -25.833 61 -43.5s30.167 -41 40.5 -70s15.5 -62.5 15.5 -100.5c0 -44 -7.5 -98 -22.5 -162
s-38.833 -120.333 -71.5 -169c-73.333 -108.667 -185.333 -163 -336 -163c-181.333 0 -272 79.667 -272 239zM259.999 220.999c0 -59.333 14.168 -101.166 42.501 -125.499s63.833 -36.5 106.5 -36.5c128.667 0 213 94 253 282c0.666992 4 1.33398 7 2.00098 9
c12.667 61.333 19 105.666 19 132.999c0 56.667 -14.333 96.667 -43 120s-64.667 35 -108 35c-128.667 0 -212.334 -88.333 -251.001 -265c0 -2 -0.333008 -4.66699 -1 -8s-1.33398 -6 -2.00098 -8c-12 -60 -18 -105.333 -18 -136zM383 746.999
c0 4.66699 9.33398 16.6689 28.001 36.002l48 50l63 64l4.5 4.5l3.5 3.5l3 3c1.33301 1.33301 2.33301 2.16602 3 2.49902s1.5 0.833008 2.5 1.5s2 1 3 1s2.16699 0.166992 3.5 0.5s2.66602 0.5 3.99902 0.5h5h69c10.667 0 18.667 -4.66699 24 -14
c54 -99.333 81 -150.333 81 -153c0 -7.33301 -7 -11.333 -21 -12h-5h-27c-6.66699 0 -12.5 2.33301 -17.5 7s-19.5 20.667 -43.5 48l-39 44l-70 -54c-28.667 -22.667 -46 -35.834 -52 -39.501s-13 -5.5 -21 -5.5h-31c-12 0.666992 -18 4.66699 -18 12z" />
    <glyph glyph-name="Otilde" unicode="&#xd5;" horiz-adv-x="794" 
d="M118 217c0 52.667 9.66602 112.666 28.999 179.999c60.667 212.667 195 319 403 319c28.667 0 55.334 -2.16699 80.001 -6.5s49 -12.166 73 -23.499s44.333 -25.833 61 -43.5s30.167 -41 40.5 -70s15.5 -62.5 15.5 -100.5c0 -44 -7.5 -98 -22.5 -162
s-38.833 -120.333 -71.5 -169c-73.333 -108.667 -185.333 -163 -336 -163c-181.333 0 -272 79.667 -272 239zM259.999 220.999c0 -59.333 14.168 -101.166 42.501 -125.499s63.833 -36.5 106.5 -36.5c128.667 0 213 94 253 282c0.666992 4 1.33398 7 2.00098 9
c12.667 61.333 19 105.666 19 132.999c0 56.667 -14.333 96.667 -43 120s-64.667 35 -108 35c-128.667 0 -212.334 -88.333 -251.001 -265c0 -2 -0.333008 -4.66699 -1 -8s-1.33398 -6 -2.00098 -8c-12 -60 -18 -105.333 -18 -136zM373 749.999
c0 11.333 4.83203 28.335 14.499 51.002s25.834 45.334 48.501 68.001s47.334 34 74.001 34c18.667 0 34.667 -5 48 -15s23.166 -20.833 29.499 -32.5s14 -22.5 23 -32.5s18.833 -15 29.5 -15c14.667 2.66699 26 10.667 34 24s14 27.333 18 42s7.33301 23 10 25
c3.33301 2.66699 8 4 14 4h34c12 0 18 -5.33301 18 -16c0 -6.66699 -2.83301 -17.5 -8.5 -32.5s-13.667 -31.833 -24 -50.5s-25 -34.834 -44 -48.501s-39.5 -20.5 -61.5 -20.5c-18 0 -33.833 5 -47.5 15s-23.834 20.833 -30.501 32.5s-14.167 22.5 -22.5 32.5
s-17.166 15 -26.499 15c-8 0 -17 -3.66699 -27 -11c-10 -14 -17.5 -27 -22.5 -39s-7.5 -20.333 -7.5 -25s-1.16699 -8.83398 -3.5 -12.501s-6 -5.83398 -11 -6.50098s-14.833 -1 -29.5 -1h-8c-14 0 -21 5 -21 15z" />
    <glyph glyph-name="Odieresis" unicode="&#xd6;" horiz-adv-x="794" 
d="M118 217c0 52.667 9.66602 112.666 28.999 179.999c60.667 212.667 195 319 403 319c28.667 0 55.334 -2.16699 80.001 -6.5s49 -12.166 73 -23.499s44.333 -25.833 61 -43.5s30.167 -41 40.5 -70s15.5 -62.5 15.5 -100.5c0 -44 -7.5 -98 -22.5 -162
s-38.833 -120.333 -71.5 -169c-73.333 -108.667 -185.333 -163 -336 -163c-181.333 0 -272 79.667 -272 239zM259.999 220.999c0 -59.333 14.168 -101.166 42.501 -125.499s63.833 -36.5 106.5 -36.5c128.667 0 213 94 253 282c0.666992 4 1.33398 7 2.00098 9
c12.667 61.333 19 105.666 19 132.999c0 56.667 -14.333 96.667 -43 120s-64.667 35 -108 35c-128.667 0 -212.334 -88.333 -251.001 -265c0 -2 -0.333008 -4.66699 -1 -8s-1.33398 -6 -2.00098 -8c-12 -60 -18 -105.333 -18 -136zM388 795.999
c0 4 2.33301 18.1709 7 42.5039s8.66699 39.166 12 44.499c6.66699 11.333 20.334 17.666 41.001 18.999h52c12.667 0 22.5 -2.5 29.5 -7.5s11.167 -9.66699 12.5 -14s2 -8.83301 2 -13.5c0 -8.66699 -3.66699 -29.334 -11 -62.001
c-2.66699 -10.667 -5.33398 -19.167 -8.00098 -25.5s-6.5 -10.833 -11.5 -13.5s-9 -4.16699 -12 -4.5s-8.83301 -0.833008 -17.5 -1.5h-52c-12.667 0 -22.5 2.66699 -29.5 8s-11.167 10.166 -12.5 14.499s-2 8.83301 -2 13.5zM602 797.003
c0 1.33301 3.66699 20.3311 11 56.998c4.66699 22 10.167 35.5 16.5 40.5s17.166 7.5 32.499 7.5h52c29.333 0 44 -12 44 -36c0 -4 -2.66699 -18.5 -8 -43.5s-9.66602 -40.167 -12.999 -45.5c-2 -3.33301 -4.33301 -6.16602 -7 -8.49902s-5.66699 -4 -9 -5
s-5.83301 -1.66699 -7.5 -2s-4.5 -0.666016 -8.5 -0.999023s-6.33301 -0.5 -7 -0.5h-52c-29.333 0 -44 12.333 -44 37z" />
    <glyph glyph-name="multiply" unicode="&#xd7;" horiz-adv-x="855" 
d="M160 20c0 14.667 8.33203 28.3311 24.999 40.998l236 195v1l-68 86c-47.333 60 -75 95.667 -83 107s-12 21 -12 29c0 10.667 3.33301 20.167 10 28.5s16 12.833 28 13.5c14.667 -0.666992 27.334 -7.16699 38.001 -19.5s61.334 -76.166 152.001 -191.499l234 193
c14.667 12 27.334 18 38.001 18c11.333 0 21 -4.16699 29 -12.5s12 -17.833 12 -28.5c0 -13.333 -8.66699 -27.666 -26 -42.999l-235 -193l101 -128c31.333 -40 49.666 -64 54.999 -72s8 -16 8 -24c0 -12 -4.16699 -21.833 -12.5 -29.5s-18.166 -11.5 -29.499 -11.5
c-10.667 0 -20.834 5 -30.501 15s-39.834 47.667 -90.501 113l-65 83l-233 -191c-16 -13.333 -29 -20 -39 -20c-12 0 -22 4.16699 -30 12.5s-12 17.833 -12 28.5z" />
    <glyph glyph-name="Oslash" unicode="&#xd8;" horiz-adv-x="855" 
d="M120 226c0 60.667 12.166 127.502 36.499 200.502s60.833 132.833 109.5 179.5c75.333 73.333 179.666 110 312.999 110c57.333 0 107.333 -7 150 -21l15.5 20l13.5 17c3.33301 4 6.83301 8.5 10.5 13.5s6.66699 8.66699 9 11s4.83301 5 7.5 8
s4.83398 5.16699 6.50098 6.5l5.5 4.5c2 1.66699 3.83301 2.66699 5.5 3s3.5 0.666016 5.5 0.999023s4 0.5 6 0.5c10 0 19.333 -4 28 -12s13 -17 13 -27c0 -2.66699 -0.166992 -5 -0.5 -7s-1.33301 -4.33301 -3 -7s-3.16699 -5.33398 -4.5 -8.00098
s-3.83301 -6.16699 -7.5 -10.5s-7 -8.5 -10 -12.5s-7.5 -9.66699 -13.5 -17l-17 -21c54.667 -41.333 82 -106 82 -194c0 -46 -7.66699 -98.333 -23 -157c-58 -219.333 -203.667 -329 -437 -329c-56.667 0 -106 7 -148 21c-19.333 -26.667 -34.833 -46.5 -46.5 -59.5
s-19.667 -20.5 -24 -22.5s-9.16602 -3 -14.499 -3c-10.667 0 -20 3.83301 -28 11.5s-12 16.834 -12 27.501c0 7.33301 2.5 14.666 7.5 21.999s20.5 27.333 46.5 60c-54.667 43.333 -82 107 -82 191zM241.999 220.002c0 -37.333 8.66797 -71.666 26.001 -102.999l405 508
c-31.333 12.667 -67 19 -107 19c-43.333 0 -81.833 -6.33301 -115.5 -19s-60.834 -28.167 -81.501 -46.5s-38.834 -42.333 -54.501 -72s-27.167 -56.834 -34.5 -81.501s-14.666 -54 -21.999 -88c-10.667 -50 -16 -89 -16 -117zM329 69.002
c34.667 -12.667 70.667 -19.002 108 -19.002c42.667 0 80.5 5.83301 113.5 17.5s60 26.334 81 44.001s39.333 40.5 55 68.5s27.5 55.167 35.5 81.5s15.667 57.5 23 93.5c9.33301 50.667 14 89.334 14 116.001c0 38 -8.66699 72.667 -26 104h-1z" />
    <glyph glyph-name="Ugrave" unicode="&#xd9;" horiz-adv-x="764" 
d="M134 172c0 18.667 6.33008 58.998 18.9971 120.998l77 362c2.66699 12.667 7.16699 22 13.5 28s11.166 9.16699 14.499 9.5s10 0.833008 20 1.5h50c30 0 45 -12.333 45 -37c0 -6 -1.33301 -15 -4 -27l-82 -385c-8.66699 -43.333 -13 -73.333 -13 -90
c0 -30 8.33301 -52.667 25 -68s46.667 -23 90 -23c31.333 0 58.666 4.5 81.999 13.5s41.5 19.333 54.5 31s24.5 28 34.5 49s16.833 38.667 20.5 53s8.16699 33.5 13.5 57.5c0.666992 4.66699 1.33398 8 2.00098 10l80 377c3.33301 16.667 8.5 27.334 15.5 32.001
s17.833 7 32.5 7h44c12 0 21.5 -2.66699 28.5 -8s11.167 -10.333 12.5 -15s2 -9 2 -13c0 -3.33301 -0.666992 -8.33301 -2 -15l-86 -403c-5.33301 -24 -11.166 -45.5 -17.499 -64.5s-17.666 -41.667 -33.999 -68s-35.666 -48.166 -57.999 -65.499
s-53.166 -32.333 -92.499 -45s-84 -19 -134 -19h-11c-16 0 -31.5 0.666992 -46.5 2s-35.333 5.66602 -61 12.999s-47.5 17.333 -65.5 30s-34 31.834 -48 57.501s-21 56.167 -21 91.5zM400.997 866.998c0 2 0.499023 3.83203 1.49902 5.49902s2.5 2.83398 4.5 3.50098
s3.83301 1 5.5 1s4.33398 0.166992 8.00098 0.5s6.16699 0.5 7.5 0.5h136c6 0 11.5 -1.66699 16.5 -5s19.5 -16.333 43.5 -39l46 -42l8 -9l2 -3v-5c-2.66699 -7.33301 -9 -11 -19 -11h-49c-9.33301 0 -21.333 3.33301 -36 10c-111.333 52 -168.333 79.667 -171 83l-3 4
c-0.666992 2 -1 4 -1 6z" />
    <glyph glyph-name="Uacute" unicode="&#xda;" horiz-adv-x="764" 
d="M134 172c0 18.667 6.33008 58.998 18.9971 120.998l77 362c2.66699 12.667 7.16699 22 13.5 28s11.166 9.16699 14.499 9.5s10 0.833008 20 1.5h50c30 0 45 -12.333 45 -37c0 -6 -1.33301 -15 -4 -27l-82 -385c-8.66699 -43.333 -13 -73.333 -13 -90
c0 -30 8.33301 -52.667 25 -68s46.667 -23 90 -23c31.333 0 58.666 4.5 81.999 13.5s41.5 19.333 54.5 31s24.5 28 34.5 49s16.833 38.667 20.5 53s8.16699 33.5 13.5 57.5c0.666992 4.66699 1.33398 8 2.00098 10l80 377c3.33301 16.667 8.5 27.334 15.5 32.001
s17.833 7 32.5 7h44c12 0 21.5 -2.66699 28.5 -8s11.167 -10.333 12.5 -15s2 -9 2 -13c0 -3.33301 -0.666992 -8.33301 -2 -15l-86 -403c-5.33301 -24 -11.166 -45.5 -17.499 -64.5s-17.666 -41.667 -33.999 -68s-35.666 -48.166 -57.999 -65.499
s-53.166 -32.333 -92.499 -45s-84 -19 -134 -19h-11c-16 0 -31.5 0.666992 -46.5 2s-35.333 5.66602 -61 12.999s-47.5 17.333 -65.5 30s-34 31.834 -48 57.501s-21 56.167 -21 91.5zM458.997 774.998c0.666992 5.33301 5 11 13 17l114 76c10 6.66699 19.667 10 29 10h141
c13.333 0 20 -4.33301 20 -13c0 -4.66699 -4 -9 -12 -13c-1.33301 -0.666992 -67.333 -26.667 -198 -78c-17.333 -6.66699 -30.333 -10 -39 -10h-45c-14 0 -21.667 3.66699 -23 11z" />
    <glyph glyph-name="Ucircumflex" unicode="&#xdb;" horiz-adv-x="764" 
d="M134 172c0 18.667 6.33008 58.998 18.9971 120.998l77 362c2.66699 12.667 7.16699 22 13.5 28s11.166 9.16699 14.499 9.5s10 0.833008 20 1.5h50c30 0 45 -12.333 45 -37c0 -6 -1.33301 -15 -4 -27l-82 -385c-8.66699 -43.333 -13 -73.333 -13 -90
c0 -30 8.33301 -52.667 25 -68s46.667 -23 90 -23c31.333 0 58.666 4.5 81.999 13.5s41.5 19.333 54.5 31s24.5 28 34.5 49s16.833 38.667 20.5 53s8.16699 33.5 13.5 57.5c0.666992 4.66699 1.33398 8 2.00098 10l80 377c3.33301 16.667 8.5 27.334 15.5 32.001
s17.833 7 32.5 7h44c12 0 21.5 -2.66699 28.5 -8s11.167 -10.333 12.5 -15s2 -9 2 -13c0 -3.33301 -0.666992 -8.33301 -2 -15l-86 -403c-5.33301 -24 -11.166 -45.5 -17.499 -64.5s-17.666 -41.667 -33.999 -68s-35.666 -48.166 -57.999 -65.499
s-53.166 -32.333 -92.499 -45s-84 -19 -134 -19h-11c-16 0 -31.5 0.666992 -46.5 2s-35.333 5.66602 -61 12.999s-47.5 17.333 -65.5 30s-34 31.834 -48 57.501s-21 56.167 -21 91.5zM370.997 746.998c0 4.66699 7.33398 14.6689 22.001 30.002
c2 2.66699 40.667 42.667 116 120c8 8 13.5 12.833 16.5 14.5s8.5 2.5 16.5 2.5h65c10.667 0 18.667 -4.66699 24 -14c43.333 -74 68.166 -116.833 74.499 -128.5s9.5 -19.834 9.5 -24.501c0 -7.33301 -7 -11.333 -21 -12h-5h-26c-6.66699 0 -12.5 2.33301 -17.5 7
s-19.5 20.667 -43.5 48l-39 44l-70 -54c-28.667 -22.667 -46 -35.834 -52 -39.501s-13 -5.5 -21 -5.5h-31c-12 0 -18 4 -18 12z" />
    <glyph glyph-name="Udieresis" unicode="&#xdc;" horiz-adv-x="764" 
d="M134 172c0 18.667 6.33008 58.998 18.9971 120.998l77 362c2.66699 12.667 7.16699 22 13.5 28s11.166 9.16699 14.499 9.5s10 0.833008 20 1.5h50c30 0 45 -12.333 45 -37c0 -6 -1.33301 -15 -4 -27l-82 -385c-8.66699 -43.333 -13 -73.333 -13 -90
c0 -30 8.33301 -52.667 25 -68s46.667 -23 90 -23c31.333 0 58.666 4.5 81.999 13.5s41.5 19.333 54.5 31s24.5 28 34.5 49s16.833 38.667 20.5 53s8.16699 33.5 13.5 57.5c0.666992 4.66699 1.33398 8 2.00098 10l80 377c3.33301 16.667 8.5 27.334 15.5 32.001
s17.833 7 32.5 7h44c12 0 21.5 -2.66699 28.5 -8s11.167 -10.333 12.5 -15s2 -9 2 -13c0 -3.33301 -0.666992 -8.33301 -2 -15l-86 -403c-5.33301 -24 -11.166 -45.5 -17.499 -64.5s-17.666 -41.667 -33.999 -68s-35.666 -48.166 -57.999 -65.499
s-53.166 -32.333 -92.499 -45s-84 -19 -134 -19h-11c-16 0 -31.5 0.666992 -46.5 2s-35.333 5.66602 -61 12.999s-47.5 17.333 -65.5 30s-34 31.834 -48 57.501s-21 56.167 -21 91.5zM372.997 795.998c0 4.66699 2.49902 19.167 7.49902 43.5s8.83301 38.833 11.5 43.5
c6.66699 11.333 20.667 17.666 42 18.999h51c17.333 0 29 -4 35 -12s9 -16 9 -24c0 -4.66699 -2.33301 -19.5 -7 -44.5s-9 -40.167 -13 -45.5c-7.33301 -10.667 -20.333 -16 -39 -16h-52c-17.333 0 -29.166 3.83301 -35.499 11.5s-9.5 15.834 -9.5 24.501zM586.996 796.998
c0 1.33301 3.66699 20.332 11 56.999c4.66699 22 10 35.5 16 40.5s17 7.5 33 7.5h52c29.333 0 44 -12 44 -36c0 -4 -2.5 -18.667 -7.5 -44s-9.5 -40.666 -13.5 -45.999c-7.33301 -10.667 -20 -16 -38 -16h-53c-29.333 0 -44 12.333 -44 37z" />
    <glyph glyph-name="Yacute" unicode="&#xdd;" horiz-adv-x="733" 
d="M167 667c0 3.33301 0.666016 6.66797 1.99902 10.001s5 7 11 11s14 6 24 6h67c29.333 0 50.666 -9.66699 63.999 -29c3.33301 -5.33301 22.833 -44.833 58.5 -118.5s57.5 -121.5 65.5 -143.5c12 17.333 82.333 96.333 211 237c20.667 22 37.834 36.5 51.501 43.5
s30.834 10.5 51.501 10.5h51c14 0 23 -6.33301 27 -19c-2 -8.66699 -7.33301 -17.667 -16 -27l-334 -365c-4 -5.33301 -8.16699 -16.833 -12.5 -34.5s-18.5 -84.167 -42.5 -199.5c-3.33301 -18 -9.16602 -30.667 -17.499 -38s-20.5 -11 -36.5 -11h-50
c-10.667 0 -17.834 1 -21.501 3s-8.16699 6.33301 -13.5 13c-2 4 -3 8.33301 -3 13c0 8.66699 17.333 91.667 52 249l-179 361c-6.66699 13.333 -10 22.666 -10 27.999zM442.999 775.002l-0.00195312 1c0.666992 4.66699 6.33398 11 17.001 19l45 30l66 43
c10 6.66699 19.333 10 28 10h141c13.333 0 20 -4.33301 20 -13c0 -4.66699 -3.66699 -9 -11 -13l-198 -78c-17.333 -6.66699 -30.666 -10 -39.999 -10h-44c-14.667 0 -22.667 3.66699 -24 11z" />
    <glyph glyph-name="Thorn" unicode="&#xde;" horiz-adv-x="642" 
d="M100 36c0 4 0.666992 9.99805 2 17.998l127 600c2 8 4 14.5 6 19.5s6.33301 9.66699 13 14s15.667 6.5 27 6.5h48c29.333 0 44 -11.667 44 -35c0 -5.33301 -4.33301 -28 -13 -68h138c117.333 -2.66699 176 -50.667 176 -144c0 -13.333 -2.33301 -34 -7 -62
c-8.66699 -38.667 -22.167 -71.667 -40.5 -99s-37 -47.666 -56 -60.999s-42.167 -23.666 -69.5 -30.999s-48.5 -11.5 -63.5 -12.5s-33.167 -1.5 -54.5 -1.5h-110c-19.333 -93.333 -30.333 -143 -33 -149c-6 -18 -15.333 -28 -28 -30c-4 -0.666992 -9 -1 -15 -1h-49
c-28 0 -42 12 -42 36zM286 266.998l87 -0.000976562c43.333 0 76.833 8.33301 100.5 25s41.167 46.334 52.5 89.001c3.33301 13.333 5 26 5 38c0 16 -3 29.667 -9 41s-13 19.833 -21 25.5s-18.5 10 -31.5 13s-23.5 4.83301 -31.5 5.5s-17.667 1 -29 1h-73z" />
    <glyph glyph-name="germandbls" unicode="&#xdf;" horiz-adv-x="565" 
d="M69 36c0 8 1.00195 15.3438 3.00195 22.0107l107 505c6 25.333 13 46.5 21 63.5s20.667 34.5 38 52.5s41.833 31.5 73.5 40.5s70.5 13.5 116.5 13.5c64.667 0 114.334 -8.33301 149.001 -25s52 -48.667 52 -96c0 -24 -5.83301 -53.833 -17.5 -89.5
s-28.834 -63.834 -51.501 -84.501c-12.667 -12 -27 -20.667 -43 -26s-30.167 -8.66602 -42.5 -9.99902s-19.5 -2.33301 -21.5 -3c-9.33301 -5.33301 -16.333 -17.5 -21 -36.5s-7 -33.833 -7 -44.5c0 -2 0.166992 -3.83301 0.5 -5.5s1 -3.16699 2 -4.5
s1.83301 -2.33301 2.5 -3s2 -1.5 4 -2.5s3.83301 -1.66699 5.5 -2s4 -0.833008 7 -1.5s5.66699 -1.33398 8 -2.00098s5.66602 -1.33398 9.99902 -2.00098s7.83301 -1.33398 10.5 -2.00098c25.333 -6.66699 46 -20.5 62 -41.5s24 -46.833 24 -77.5
c0 -23.333 -5.5 -49.666 -16.5 -78.999s-26.5 -52.333 -46.5 -69c-28.667 -24.667 -67.334 -37 -116.001 -37c-31.333 0 -58.5 7.16699 -81.5 21.5s-34.5 26.5 -34.5 36.5c0 4.66699 9.33301 31 28 79c6 12 11.667 18 17 18c4.66699 0 8.66699 -6.33301 12 -19
s10.333 -25.334 21 -38.001s26.667 -19 48 -19c16.667 0 30.167 5.16699 40.5 15.5s16.666 20.166 18.999 29.499s3.5 17.666 3.5 24.999c0 10 -2.5 18.167 -7.5 24.5s-10.333 10.5 -16 12.5s-13.5 4.16699 -23.5 6.5s-17.333 4.16602 -22 5.49902
c-43.333 15.333 -65 50.666 -65 105.999c0 24.667 5.33301 52 16 82s26.334 53.333 47.001 70c23.333 18 51.666 28 84.999 30c16.667 89.333 25 136.666 25 141.999c0 29.333 -22.667 44 -68 44c-22 0 -40.167 -2.33301 -54.5 -7s-25.166 -12.334 -32.499 -23.001
s-12.5 -20.334 -15.5 -29.001s-6.16699 -21.334 -9.5 -38.001c-0.666992 -4.66699 -1.33398 -8 -2.00098 -10l-107 -508c-4 -20 -9.5 -32.667 -16.5 -38s-17.833 -8 -32.5 -8h-39c-13.333 -0 -22.166 0.833008 -26.499 2.5s-9.83301 6.16699 -16.5 13.5
c-3.33301 6 -5 12.667 -5 20z" />
    <glyph glyph-name="agrave" unicode="&#xe0;" horiz-adv-x="525" 
d="M56 109c0 34.667 10.5068 64.502 31.5068 89.502s48.833 43.833 83.5 56.5s70 21.834 106 27.501s73.667 8.5 113 8.5c6.66699 35.333 10 57 10 65c0 32 -18 48 -54 48c-24.667 0 -48.5 -3.5 -71.5 -10.5s-40.833 -14.5 -53.5 -22.5s-24.334 -15.833 -35.001 -23.5
s-17.334 -11.834 -20.001 -12.501c-8.66699 0 -13 5.33301 -13 16c0 4.66699 2.33301 24 7 58c1.33301 10.667 3.33301 17.5 6 20.5s9 6.5 19 10.5c55.333 23.333 113.666 35 174.999 35h10c15.333 0 30.166 -1 44.499 -3s31.833 -6.5 52.5 -13.5s37.334 -19.5 50.001 -37.5
s19 -40.333 19 -67v-12c0 -0.666992 -0.333008 -4 -1 -10s-1.33398 -10.5 -2.00098 -13.5l-5 -23l-8.5 -38c-3 -13 -7.16699 -33 -12.5 -60l-18 -87.5l-5 -24.5c-2 -9.66699 -3.33301 -16.667 -4 -21s-1.83398 -9.83301 -3.50098 -16.5s-3 -11.5 -4 -14.5
s-2.33301 -6.66699 -4 -11s-3.33398 -7.33301 -5.00098 -9l-6 -6c-2.33301 -2.33301 -5 -3.83301 -8 -4.5s-6.33301 -1.33398 -10 -2.00098s-7.83398 -1 -12.501 -1h-48c-25.333 0 -39 13 -41 39c-54 -33.333 -108 -50 -162 -50c-38 0 -67.5 11.667 -88.5 35
s-31.5 51.666 -31.5 84.999zM188.007 118.002c0 -14 4 -26.833 12 -38.5s21.667 -17.5 41 -17.5c22 0 43.333 6 64 18s36 27.333 46 46c2.66699 5.33301 11 40.333 25 105c-67.333 -3.33301 -115.5 -16 -144.5 -38s-43.5 -47 -43.5 -75zM310.007 665.002
c0.666992 9.33301 7.33203 14.001 19.999 14.001h94c8.66699 -0.666992 15.334 -3.66699 20.001 -9c2.66699 -4 24.667 -42.333 66 -115l5 -10v-4c-2 -8.66699 -8 -13 -18 -13h-35c-4.66699 0 -9.5 1.83301 -14.5 5.5s-20.167 17.5 -45.5 41.5l-77 71
c-10 9.33301 -15 15.666 -15 18.999z" />
    <glyph glyph-name="aacute" unicode="&#xe1;" horiz-adv-x="525" 
d="M262 540c0 4.66699 9.99902 16.999 29.999 36.999c62.667 62.667 94.667 94.334 96 95.001c5.33301 4.66699 12 7 20 7h88c14 0 22.333 -3.33301 25 -10v-5c-0.666992 -3.33301 -4.16699 -7.33301 -10.5 -12s-29.166 -20 -68.499 -46l-98 -65
c-13.333 -8.66699 -24 -13 -32 -13h-29c-14 0 -21 4 -21 12zM55.999 108.999c0 34.667 10.5068 64.502 31.5068 89.502s48.833 43.833 83.5 56.5s70 21.834 106 27.501s73.667 8.5 113 8.5c6.66699 35.333 10 57 10 65c0 32 -18 48 -54 48c-24.667 0 -48.5 -3.5 -71.5 -10.5
s-40.833 -14.5 -53.5 -22.5s-24.334 -15.833 -35.001 -23.5s-17.334 -11.834 -20.001 -12.501c-8.66699 0 -13 5.33301 -13 16c0 4.66699 2.33301 24 7 58c1.33301 10.667 3.33301 17.5 6 20.5s9 6.5 19 10.5c55.333 23.333 113.666 35 174.999 35h10
c15.333 0 30.166 -1 44.499 -3s31.833 -6.5 52.5 -13.5s37.334 -19.5 50.001 -37.5s19 -40.333 19 -67v-12c0 -0.666992 -0.333008 -4 -1 -10s-1.33398 -10.5 -2.00098 -13.5l-5 -23l-8.5 -38c-3 -13 -7.16699 -33 -12.5 -60l-18 -87.5l-5 -24.5
c-2 -9.66699 -3.33301 -16.667 -4 -21s-1.83398 -9.83301 -3.50098 -16.5s-3 -11.5 -4 -14.5s-2.33301 -6.66699 -4 -11s-3.33398 -7.33301 -5.00098 -9l-6 -6c-2.33301 -2.33301 -5 -3.83301 -8 -4.5s-6.33301 -1.33398 -10 -2.00098s-7.83398 -1 -12.501 -1h-48
c-25.333 0 -39 13 -41 39c-54 -33.333 -108 -50 -162 -50c-38 0 -67.5 11.667 -88.5 35s-31.5 51.666 -31.5 84.999zM188.006 118.001c0 -14 4 -26.833 12 -38.5s21.667 -17.5 41 -17.5c22 0 43.333 6 64 18s36 27.333 46 46c2.66699 5.33301 11 40.333 25 105
c-67.333 -3.33301 -115.5 -16 -144.5 -38s-43.5 -47 -43.5 -75z" />
    <glyph glyph-name="acircumflex" unicode="&#xe2;" horiz-adv-x="525" 
d="M56 109c0 34.667 10.5068 64.502 31.5068 89.502s48.833 43.833 83.5 56.5s70 21.834 106 27.501s73.667 8.5 113 8.5c6.66699 35.333 10 57 10 65c0 32 -18 48 -54 48c-24.667 0 -48.5 -3.5 -71.5 -10.5s-40.833 -14.5 -53.5 -22.5s-24.334 -15.833 -35.001 -23.5
s-17.334 -11.834 -20.001 -12.501c-8.66699 0 -13 5.33301 -13 16c0 4.66699 2.33301 24 7 58c1.33301 10.667 3.33301 17.5 6 20.5s9 6.5 19 10.5c55.333 23.333 113.666 35 174.999 35h10c15.333 0 30.166 -1 44.499 -3s31.833 -6.5 52.5 -13.5s37.334 -19.5 50.001 -37.5
s19 -40.333 19 -67v-12c0 -0.666992 -0.333008 -4 -1 -10s-1.33398 -10.5 -2.00098 -13.5l-5 -23l-8.5 -38c-3 -13 -7.16699 -33 -12.5 -60l-18 -87.5l-5 -24.5c-2 -9.66699 -3.33301 -16.667 -4 -21s-1.83398 -9.83301 -3.50098 -16.5s-3 -11.5 -4 -14.5
s-2.33301 -6.66699 -4 -11s-3.33398 -7.33301 -5.00098 -9l-6 -6c-2.33301 -2.33301 -5 -3.83301 -8 -4.5s-6.33301 -1.33398 -10 -2.00098s-7.83398 -1 -12.501 -1h-48c-25.333 0 -39 13 -41 39c-54 -33.333 -108 -50 -162 -50c-38 0 -67.5 11.667 -88.5 35
s-31.5 51.666 -31.5 84.999zM188.007 118.002c0 -14 4 -26.833 12 -38.5s21.667 -17.5 41 -17.5c22 0 43.333 6 64 18s36 27.333 46 46c2.66699 5.33301 11 40.333 25 105c-67.333 -3.33301 -115.5 -16 -144.5 -38s-43.5 -47 -43.5 -75zM204.007 540.002
c0 4 2.66699 8.50195 8 13.502s27.666 24.5 66.999 58.5l62 54c8 7.33301 16.667 11 26 11h96c10.667 0 19 -5.33301 25 -16c40 -75.333 60.333 -115 61 -119c-0.666992 -9.33301 -7 -14 -19 -14h-31c-8.66699 0 -18.334 4.33301 -29.001 13l-77 67l-43.5 -27.5
c-14.333 -9 -25 -16 -32 -21s-14.333 -9.83301 -22 -14.5s-13 -7.83398 -16 -9.50098s-6.33301 -3.33398 -10 -5.00098s-6.66699 -2.66699 -9 -3s-5.16602 -0.5 -8.49902 -0.5c-1.33301 0 -3.66602 0.166992 -6.99902 0.5s-6.33301 0.5 -9 0.5h-2c-20 0 -30 4 -30 12z" />
    <glyph glyph-name="atilde" unicode="&#xe3;" horiz-adv-x="525" 
d="M209 557c0 18.667 12.6699 41.498 38.0029 68.498s56.666 40.5 93.999 40.5c28 0 55 -8.5 81 -25.5s43.667 -25.5 53 -25.5h1c21.333 0.666992 36.666 12.667 45.999 36c2.66699 6.66699 5.33398 10.834 8.00098 12.501s7.66699 2.5 15 2.5h30
c13.333 0 20 -4.33301 20 -13c0 -20 -12.5 -43.5 -37.5 -70.5s-56.5 -40.5 -94.5 -40.5c-28 0 -55 8.5 -81 25.5s-43.667 25.5 -53 25.5c-10.667 0 -19.834 -3.16699 -27.501 -9.5s-13.834 -14.166 -18.501 -23.499l-7 -13c-4 -3.33301 -9.66699 -5 -17 -5h-28
c-14.667 0 -22 5 -22 15zM56.0029 108.998c0 34.667 10.5068 64.502 31.5068 89.502s48.833 43.833 83.5 56.5s70 21.834 106 27.501s73.667 8.5 113 8.5c6.66699 35.333 10 57 10 65c0 32 -18 48 -54 48c-24.667 0 -48.5 -3.5 -71.5 -10.5s-40.833 -14.5 -53.5 -22.5
s-24.334 -15.833 -35.001 -23.5s-17.334 -11.834 -20.001 -12.501c-8.66699 0 -13 5.33301 -13 16c0 4.66699 2.33301 24 7 58c1.33301 10.667 3.33301 17.5 6 20.5s9 6.5 19 10.5c55.333 23.333 113.666 35 174.999 35h10c15.333 0 30.166 -1 44.499 -3
s31.833 -6.5 52.5 -13.5s37.334 -19.5 50.001 -37.5s19 -40.333 19 -67v-12c0 -0.666992 -0.333008 -4 -1 -10s-1.33398 -10.5 -2.00098 -13.5l-5 -23l-8.5 -38c-3 -13 -7.16699 -33 -12.5 -60l-18 -87.5l-5 -24.5c-2 -9.66699 -3.33301 -16.667 -4 -21
s-1.83398 -9.83301 -3.50098 -16.5s-3 -11.5 -4 -14.5s-2.33301 -6.66699 -4 -11s-3.33398 -7.33301 -5.00098 -9l-6 -6c-2.33301 -2.33301 -5 -3.83301 -8 -4.5s-6.33301 -1.33398 -10 -2.00098s-7.83398 -1 -12.501 -1h-48c-25.333 0 -39 13 -41 39
c-54 -33.333 -108 -50 -162 -50c-38 0 -67.5 11.667 -88.5 35s-31.5 51.666 -31.5 84.999zM188.01 118c0 -14 4 -26.833 12 -38.5s21.667 -17.5 41 -17.5c22 0 43.333 6 64 18s36 27.333 46 46c2.66699 5.33301 11 40.333 25 105c-67.333 -3.33301 -115.5 -16 -144.5 -38
s-43.5 -47 -43.5 -75z" />
    <glyph glyph-name="adieresis" unicode="&#xe4;" horiz-adv-x="525" 
d="M56 109c0 34.667 10.5068 64.502 31.5068 89.502s48.833 43.833 83.5 56.5s70 21.834 106 27.501s73.667 8.5 113 8.5c6.66699 35.333 10 57 10 65c0 32 -18 48 -54 48c-24.667 0 -48.5 -3.5 -71.5 -10.5s-40.833 -14.5 -53.5 -22.5s-24.334 -15.833 -35.001 -23.5
s-17.334 -11.834 -20.001 -12.501c-8.66699 0 -13 5.33301 -13 16c0 4.66699 2.33301 24 7 58c1.33301 10.667 3.33301 17.5 6 20.5s9 6.5 19 10.5c55.333 23.333 113.666 35 174.999 35h10c15.333 0 30.166 -1 44.499 -3s31.833 -6.5 52.5 -13.5s37.334 -19.5 50.001 -37.5
s19 -40.333 19 -67v-12c0 -0.666992 -0.333008 -4 -1 -10s-1.33398 -10.5 -2.00098 -13.5l-5 -23l-8.5 -38c-3 -13 -7.16699 -33 -12.5 -60l-18 -87.5l-5 -24.5c-2 -9.66699 -3.33301 -16.667 -4 -21s-1.83398 -9.83301 -3.50098 -16.5s-3 -11.5 -4 -14.5
s-2.33301 -6.66699 -4 -11s-3.33398 -7.33301 -5.00098 -9l-6 -6c-2.33301 -2.33301 -5 -3.83301 -8 -4.5s-6.33301 -1.33398 -10 -2.00098s-7.83398 -1 -12.501 -1h-48c-25.333 0 -39 13 -41 39c-54 -33.333 -108 -50 -162 -50c-38 0 -67.5 11.667 -88.5 35
s-31.5 51.666 -31.5 84.999zM188.007 118.002c0 -14 4 -26.833 12 -38.5s21.667 -17.5 41 -17.5c22 0 43.333 6 64 18s36 27.333 46 46c2.66699 5.33301 11 40.333 25 105c-67.333 -3.33301 -115.5 -16 -144.5 -38s-43.5 -47 -43.5 -75zM221.007 588.002
c0 4 2.66406 18.3301 7.99707 42.9971s9.33301 39.334 12 44.001c1.33301 2.66699 2.83301 5 4.5 7s3.66699 3.66699 6 5s4.33301 2.33301 6 3s3.83398 1.33398 6.50098 2.00098s4.5 1 5.5 1s3 0.166992 6 0.5s4.83301 0.5 5.5 0.5h52c18 0 30 -4 36 -12s9 -16 9 -24
c0 -4 -2.66699 -18.5 -8 -43.5s-9.66602 -40.167 -12.999 -45.5c-7.33301 -11.333 -20.333 -17 -39 -17h-52c-12.667 0 -22.667 2.5 -30 7.5s-11.666 9.83301 -12.999 14.5s-2 9.33398 -2 14.001zM435.004 587.999c0 2 3.99707 22.3311 11.9971 60.998
c2.66699 10.667 5.33398 19.334 8.00098 26.001s6.33398 11.167 11.001 13.5s8.5 3.83301 11.5 4.5s8.16699 1 15.5 1h54c29.333 0 44 -12.333 44 -37c0 -4 -2.5 -18.333 -7.5 -43s-9.16699 -39.667 -12.5 -45c-7.33301 -11.333 -20.333 -17 -39 -17h-52
c-17.333 0 -29.166 3.83301 -35.499 11.5s-9.5 15.834 -9.5 24.501z" />
    <glyph glyph-name="aring" unicode="&#xe5;" horiz-adv-x="525" 
d="M56 109c0 34.667 10.5068 64.502 31.5068 89.502s48.833 43.833 83.5 56.5s70 21.834 106 27.501s73.667 8.5 113 8.5c6.66699 35.333 10 57 10 65c0 32 -18 48 -54 48c-24.667 0 -48.5 -3.5 -71.5 -10.5s-40.833 -14.5 -53.5 -22.5s-24.334 -15.833 -35.001 -23.5
s-17.334 -11.834 -20.001 -12.501c-8.66699 0 -13 5.33301 -13 16c0 4.66699 2.33301 24 7 58c1.33301 10.667 3.33301 17.5 6 20.5s9 6.5 19 10.5c55.333 23.333 113.666 35 174.999 35h10c15.333 0 30.166 -1 44.499 -3s31.833 -6.5 52.5 -13.5s37.334 -19.5 50.001 -37.5
s19 -40.333 19 -67v-12c0 -0.666992 -0.333008 -4 -1 -10s-1.33398 -10.5 -2.00098 -13.5l-5 -23l-8.5 -38c-3 -13 -7.16699 -33 -12.5 -60l-18 -87.5l-5 -24.5c-2 -9.66699 -3.33301 -16.667 -4 -21s-1.83398 -9.83301 -3.50098 -16.5s-3 -11.5 -4 -14.5
s-2.33301 -6.66699 -4 -11s-3.33398 -7.33301 -5.00098 -9l-6 -6c-2.33301 -2.33301 -5 -3.83301 -8 -4.5s-6.33301 -1.33398 -10 -2.00098s-7.83398 -1 -12.501 -1h-48c-25.333 0 -39 13 -41 39c-54 -33.333 -108 -50 -162 -50c-38 0 -67.5 11.667 -88.5 35
s-31.5 51.666 -31.5 84.999zM188.007 118.002c0 -14 4 -26.833 12 -38.5s21.667 -17.5 41 -17.5c22 0 43.333 6 64 18s36 27.333 46 46c2.66699 5.33301 11 40.333 25 105c-67.333 -3.33301 -115.5 -16 -144.5 -38s-43.5 -47 -43.5 -75zM261.007 560.002
c0 28 10.668 52.667 32.001 74s58.666 32 111.999 32c69.333 0 104 -22.333 104 -67c0 -28 -10.667 -52.667 -32 -74s-59 -32 -113 -32c-68.667 0 -103 22.333 -103 67zM322.008 561.002c0 -10 3.00195 -17.4951 9.00195 -22.4951s11.833 -8 17.5 -9s13.5 -1.5 23.5 -1.5
c7.33301 0 13.166 0.166992 17.499 0.5s10.666 1.66602 18.999 3.99902s15 5.83301 20 10.5s9.5 11.667 13.5 21s6 20.666 6 33.999c0 22 -17 33 -51 33c-9.33301 0 -16.5 -0.333008 -21.5 -1s-12.5 -2.83398 -22.5 -6.50098s-17.667 -10.834 -23 -21.501
s-8 -24.334 -8 -41.001z" />
    <glyph glyph-name="ae" unicode="&#xe6;" horiz-adv-x="794" 
d="M54 101c0 30 9.50293 55.666 28.5029 76.999s45 37.5 78 48.5s67.667 19 104 24s75.833 7.5 118.5 7.5c11.333 54.667 17 87.334 17 98.001c0 32 -18.333 48 -55 48c-25.333 0 -49.166 -3.5 -71.499 -10.5s-39.666 -14.667 -51.999 -23l-35 -23.5
c-11 -7.33301 -18.5 -11.333 -22.5 -12c-7.33301 2 -11 7.33301 -11 16c0 4 2.33301 23.333 7 58c0.666992 5.33301 1.16699 9 1.5 11s1.33301 4.33301 3 7s3.83398 4.66699 6.50098 6s7 3.33301 13 6c59.333 24 117.333 36 174 36c64.667 0 113 -13 145 -39h1
c41.333 26 92.666 39 153.999 39c60 0 102.833 -14.167 128.5 -42.5s38.5 -64.5 38.5 -108.5c0 -37.333 -4 -66.666 -12 -87.999c-6.66699 -14.667 -22.334 -22 -47.001 -22h-255c-5.33301 -28 -8 -49.333 -8 -64c0 -28 6.5 -49.667 19.5 -65s35.5 -23 67.5 -23
c31.333 0 59.666 5.33301 84.999 16s45.5 21.667 60.5 33s24.5 17 28.5 17c6.66699 -2 10 -7 10 -15c0 -2.66699 -2 -20 -6 -52c-0.666992 -6.66699 -1.33398 -11.167 -2.00098 -13.5s-2.5 -4.83301 -5.5 -7.5s-8.5 -6 -16.5 -10c-52 -27.333 -106 -41 -162 -41
c-74 0 -130 19 -168 57c-34.667 -22.667 -70.334 -37.834 -107.001 -45.501s-79.667 -11.5 -129 -11.5c-24.667 0 -45.834 3.83301 -63.501 11.5s-30.5 17.834 -38.5 30.501s-13.667 24.667 -17 36s-5 22.666 -5 33.999zM186.003 111.999
c0 -12.667 4.33301 -24.166 13 -34.499s23 -15.5 43 -15.5c34.667 0 65 7.66699 91 23s39 30.666 39 45.999c0 1.33301 -0.333008 6 -1 14s-1 16 -1 24c0 10.667 0.333008 18.667 1 24c-123.333 -4.66699 -185 -31.667 -185 -81zM527.003 279h180.001c4.66699 22 7 41 7 57
c0 22 -4.16699 38.5 -12.5 49.5s-22.5 16.5 -42.5 16.5c-32 0 -59.333 -11.5 -82 -34.5s-39.334 -52.5 -50.001 -88.5z" />
    <glyph glyph-name="ccedilla" unicode="&#xe7;" horiz-adv-x="489" 
d="M76 155c0 18 3.99707 47.668 11.9971 89.001c36.667 154 132 231 286 231c36.667 0 65.834 -3 87.501 -9s44.834 -16.667 69.501 -32l5 -5l3 -5v-5c-0.666992 -6.66699 -10 -30.667 -28 -72c-3.33301 -5.33301 -6.66602 -8 -9.99902 -8c-4 0 -13.333 7 -28 21
s-28.667 23.333 -42 28c-14.667 5.33301 -38.667 8 -72 8c-60 0 -101.333 -37 -124 -111c-4 -12.667 -10 -38.334 -18 -77.001c-4.66699 -22 -7 -41.667 -7 -59c0 -54.667 26 -82 78 -82c30 0 57.667 4.83301 83 14.5s46 20.167 62 31.5s25.667 17.333 29 18h3
c6.66699 -2.66699 10 -7 10 -13c0 -4 -2 -23.667 -6 -59c-1.33301 -10 -3.5 -16.5 -6.5 -19.5s-10.167 -7.16699 -21.5 -12.5c-54 -25.333 -110 -38 -168 -38c-63.333 0 -112 13.833 -146 41.5s-51 69.167 -51 124.5zM107.997 -178.999c0 2.66699 9.33398 15.333 28.001 38
l50 59c24.667 29.333 39.667 46.5 45 51.5s11.666 7.5 18.999 7.5h28c15.333 0 23 -4.33301 23 -13c0 -4.66699 -12.667 -27 -38 -67l-47 -73c-4.66699 -7.33301 -8.5 -11.833 -11.5 -13.5s-7.83301 -2.5 -14.5 -2.5h-63c-12.667 0 -19 4.33301 -19 13z" />
    <glyph glyph-name="egrave" unicode="&#xe8;" horiz-adv-x="511" 
d="M72 169c0 19.333 1.83301 40.001 5.5 62.001s11.834 48.167 24.501 78.5s28.834 57.166 48.501 80.499s48 43.333 85 60s79.5 25 127.5 25c64 0 109.667 -14.5 137 -43.5s41 -66.167 41 -111.5c0 -12.667 -2.33301 -34.667 -7 -66
c-2.66699 -12 -6.66699 -21.167 -12 -27.5s-10.333 -10 -15 -11s-11 -1.5 -19 -1.5h-284c-4.66699 -31.333 -7 -52 -7 -62c0 -28 7.16699 -50 21.5 -66s39.166 -24 74.499 -24c32 0 61.667 5.16699 89 15.5s49.5 21.166 66.5 32.499s26.833 17.333 29.5 18
c8.66699 -2 13 -7 13 -15c0 -3.33301 -2 -21 -6 -53c-1.33301 -10.667 -3.83301 -17.5 -7.5 -20.5s-14.834 -8.5 -33.501 -16.5c-51.333 -22.667 -104 -34 -158 -34c-27.333 0 -52.666 2.83301 -75.999 8.5s-45.833 14.834 -67.5 27.501s-38.834 31.167 -51.501 55.5
s-19 53.833 -19 88.5zM221 279.001h205c4 22.667 6 40 6 52c0 22.667 -5 40.167 -15 52.5s-28.333 18.5 -55 18.5c-66.667 0 -113.667 -41 -141 -123zM322 665.001c0.666992 9.33301 7.33301 14 20 14h94c9.33301 -0.666992 16.5 -4.5 21.5 -11.5s26.5 -44.5 64.5 -112.5
l4 -10v-4c-2 -8.66699 -8 -13 -18 -13h-34c-7.33301 0 -16.333 5 -27 15l-77 72c-24 22 -38 35.167 -42 39.5s-6 7.83301 -6 10.5z" />
    <glyph glyph-name="eacute" unicode="&#xe9;" horiz-adv-x="511" 
d="M243 540c0 4.66699 9.99902 16.999 29.999 36.999c62.667 62.667 94.667 94.334 96 95.001c5.33301 4.66699 12 7 20 7h88c14 0 22.333 -3.33301 25 -10v-5c-0.666992 -3.33301 -4.16699 -7.33301 -10.5 -12s-29.166 -20 -68.499 -46l-98 -65
c-13.333 -8.66699 -24 -13 -32 -13h-29c-14 0 -21 4 -21 12zM71.999 168.999c0 19.333 1.83301 40.001 5.5 62.001s11.834 48.167 24.501 78.5s28.834 57.166 48.501 80.499s48 43.333 85 60s79.5 25 127.5 25c64 0 109.667 -14.5 137 -43.5s41 -66.167 41 -111.5
c0 -12.667 -2.33301 -34.667 -7 -66c-2.66699 -12 -6.66699 -21.167 -12 -27.5s-10.333 -10 -15 -11s-11 -1.5 -19 -1.5h-284c-4.66699 -31.333 -7 -52 -7 -62c0 -28 7.16699 -50 21.5 -66s39.166 -24 74.499 -24c32 0 61.667 5.16699 89 15.5s49.5 21.166 66.5 32.499
s26.833 17.333 29.5 18c8.66699 -2 13 -7 13 -15c0 -3.33301 -2 -21 -6 -53c-1.33301 -10.667 -3.83301 -17.5 -7.5 -20.5s-14.834 -8.5 -33.501 -16.5c-51.333 -22.667 -104 -34 -158 -34c-27.333 0 -52.666 2.83301 -75.999 8.5s-45.833 14.834 -67.5 27.501
s-38.834 31.167 -51.501 55.5s-19 53.833 -19 88.5zM220.999 279h205c4 22.667 6 40 6 52c0 22.667 -5 40.167 -15 52.5s-28.333 18.5 -55 18.5c-66.667 0 -113.667 -41 -141 -123z" />
    <glyph glyph-name="ecircumflex" unicode="&#xea;" horiz-adv-x="511" 
d="M72 169c0 19.333 1.83301 40.001 5.5 62.001s11.834 48.167 24.501 78.5s28.834 57.166 48.501 80.499s48 43.333 85 60s79.5 25 127.5 25c64 0 109.667 -14.5 137 -43.5s41 -66.167 41 -111.5c0 -12.667 -2.33301 -34.667 -7 -66
c-2.66699 -12 -6.66699 -21.167 -12 -27.5s-10.333 -10 -15 -11s-11 -1.5 -19 -1.5h-284c-4.66699 -31.333 -7 -52 -7 -62c0 -28 7.16699 -50 21.5 -66s39.166 -24 74.499 -24c32 0 61.667 5.16699 89 15.5s49.5 21.166 66.5 32.499s26.833 17.333 29.5 18
c8.66699 -2 13 -7 13 -15c0 -3.33301 -2 -21 -6 -53c-1.33301 -10.667 -3.83301 -17.5 -7.5 -20.5s-14.834 -8.5 -33.501 -16.5c-51.333 -22.667 -104 -34 -158 -34c-27.333 0 -52.666 2.83301 -75.999 8.5s-45.833 14.834 -67.5 27.501s-38.834 31.167 -51.501 55.5
s-19 53.833 -19 88.5zM197 541.001c0 4 5.33008 10.667 15.9971 20l72 63c30.667 26.667 49 42.167 55 46.5s13 6.5 21 6.5h73c6.66699 0 12.334 -2.5 17.001 -7.5s18.667 -23.833 42 -56.5l37 -51c8 -11.333 12 -18.666 12 -21.999c0 -2.66699 -0.5 -4.83398 -1.5 -6.50098
s-2.5 -2.83398 -4.5 -3.50098s-3.66699 -1 -5 -1s-3.66602 -0.166992 -6.99902 -0.5s-5.66602 -0.5 -6.99902 -0.5h-26c-7.33301 0 -14 2.16699 -20 6.5s-22.667 18.5 -50 42.5l-35 31c-80.667 -51.333 -123.667 -77.666 -129 -78.999c-2 -0.666992 -4 -1 -6 -1h-29
c-16.667 0 -25 4.33301 -25 13zM220.997 279.001h205c4 22.667 6 40 6 52c0 22.667 -5 40.167 -15 52.5s-28.333 18.5 -55 18.5c-66.667 0 -113.667 -41 -141 -123z" />
    <glyph glyph-name="edieresis" unicode="&#xeb;" horiz-adv-x="511" 
d="M72 169c0 19.333 1.83301 40.001 5.5 62.001s11.834 48.167 24.501 78.5s28.834 57.166 48.501 80.499s48 43.333 85 60s79.5 25 127.5 25c64 0 109.667 -14.5 137 -43.5s41 -66.167 41 -111.5c0 -12.667 -2.33301 -34.667 -7 -66
c-2.66699 -12 -6.66699 -21.167 -12 -27.5s-10.333 -10 -15 -11s-11 -1.5 -19 -1.5h-284c-4.66699 -31.333 -7 -52 -7 -62c0 -28 7.16699 -50 21.5 -66s39.166 -24 74.499 -24c32 0 61.667 5.16699 89 15.5s49.5 21.166 66.5 32.499s26.833 17.333 29.5 18
c8.66699 -2 13 -7 13 -15c0 -3.33301 -2 -21 -6 -53c-1.33301 -10.667 -3.83301 -17.5 -7.5 -20.5s-14.834 -8.5 -33.501 -16.5c-51.333 -22.667 -104 -34 -158 -34c-27.333 0 -52.666 2.83301 -75.999 8.5s-45.833 14.834 -67.5 27.501s-38.834 31.167 -51.501 55.5
s-19 53.833 -19 88.5zM202 588.001c0 4.66699 2.5 19.166 7.5 43.499s8.83301 38.833 11.5 43.5c6 10.667 19.667 17 41 19h52c12.667 0 22.5 -2.66699 29.5 -8s11.167 -10.166 12.5 -14.499s2 -8.83301 2 -13.5c0 -4 -2.5 -18.5 -7.5 -43.5s-9.16699 -40.167 -12.5 -45.5
c-7.33301 -11.333 -20.333 -17 -39 -17h-53c-29.333 0 -44 12 -44 36zM221 279h205c4 22.667 6 40 6 52c0 22.667 -5 40.167 -15 52.5s-28.333 18.5 -55 18.5c-66.667 0 -113.667 -41 -141 -123zM416 589c0 6 3.66406 25.333 10.9971 58
c4.66699 21.333 10.334 34.5 17.001 39.5s17.334 7.5 32.001 7.5h51c18 0 30 -4 36 -12s9 -16 9 -24c0 -4 -2.66699 -18.5 -8 -43.5s-9.66602 -40.167 -12.999 -45.5c-7.33301 -11.333 -20.333 -17 -39 -17h-52c-29.333 0 -44 12.333 -44 37z" />
    <glyph glyph-name="eth" unicode="&#xf0;" 
d="M70 155c0 34.667 6.33496 72.834 19.002 114.501s30.667 77.167 54 106.5c51.333 66 127.666 99 228.999 99c17.333 0 36.666 -1.66699 57.999 -5c-14 33.333 -34 65.333 -60 96c-33.333 -16.667 -52.333 -25 -57 -25c-6 0 -11.333 7 -16 21
c-13.333 37.333 -20 57.333 -20 60c0 2 1 5 3 9c-4.66699 2 -9.16699 3.83301 -13.5 5.5s-8 2.83398 -11 3.50098s-5.66699 1.5 -8 2.5s-4.16602 1.66699 -5.49902 2s-2.66602 0.833008 -3.99902 1.5s-2.16602 1 -2.49902 1s-0.833008 0.333008 -1.5 1l-1.5 1.5
c-0.333008 0.333008 -0.833008 1 -1.5 2s-1.33398 1.83301 -2.00098 2.5c-0.666992 4 -0.333984 8.66699 0.999023 14c48 34 74 51.333 78 52c1.33301 0.666992 3 1 5 1c8.66699 0 24.5 -4.5 47.5 -13.5s35.167 -13.5 36.5 -13.5c4.66699 0 15.5 4.5 32.5 13.5
s27.833 13.5 32.5 13.5c5.33301 0 10.666 -6.66699 15.999 -20c13.333 -36.667 20 -56.334 20 -59.001c0 -6 -4.33301 -11.333 -13 -16c68.667 -74.667 103 -161.667 103 -261c0 -22 -5.33301 -60.333 -16 -115l-9 -41c-2 -9.33301 -6.66699 -24.666 -14 -45.999
s-15.166 -38.333 -23.499 -51s-20.333 -27.834 -36 -45.501s-32.834 -31.334 -51.501 -41.001s-42.167 -18.167 -70.5 -25.5s-59.5 -11 -93.5 -11c-136 0 -204 55.333 -204 166zM204.002 147c0 -53.333 27.6699 -80.001 83.0029 -80.001c47.333 0 82.166 17.5 104.499 52.5
s39.166 91.833 50.499 170.5c1.33301 17.333 2 27.333 2 30c0 54.667 -27.667 82 -83 82c-12 0 -23.167 -1.33301 -33.5 -4s-19.333 -5.66699 -27 -9s-15.167 -8.66602 -22.5 -15.999s-13.333 -13.666 -18 -18.999s-9.33398 -13.5 -14.001 -24.5l-10.5 -24.5
c-2.33301 -5.33301 -5.16602 -14.5 -8.49902 -27.5s-5.5 -21.833 -6.5 -26.5s-2.83301 -13.834 -5.5 -27.501s-4.33398 -21.834 -5.00098 -24.501c-4 -21.333 -6 -38.666 -6 -51.999z" />
    <glyph glyph-name="ntilde" unicode="&#xf1;" horiz-adv-x="561" 
d="M67 36c0 3.33301 0.665039 8.33301 1.99805 15l80 377c5.33301 24 20.333 36 45 36h42c29.333 0 44 -12.333 44 -37c0 -3.33301 -1 -11 -3 -23c54.667 43.333 112 65 172 65c40 0 71.167 -7 93.5 -21s33.5 -38.333 33.5 -73c0 -18 -12.667 -85.667 -38 -203l-28 -132
c-3.33301 -14 -8.16602 -24.167 -14.499 -30.5s-17.166 -9.5 -32.499 -9.5h-46c-29.333 0 -44 12 -44 36c0 3.33301 0.666992 9 2 17l56 267c4.66699 18.667 7 31.667 7 39c0 24.667 -15 37 -45 37c-29.333 0 -56.833 -10.833 -82.5 -32.5s-43.167 -47.5 -52.5 -77.5
l-52 -242c-4 -20 -10 -32.667 -18 -38c-7.33301 -4 -17 -6 -29 -6h-46c-30.667 0 -46 12 -46 36zM215.998 557c0 18.667 12.499 41.498 37.499 68.498s56.167 40.5 93.5 40.5c28 0 55 -8.5 81 -25.5s43.667 -25.5 53 -25.5c10.667 0 19.834 3.33301 27.501 10
s13.834 14.334 18.501 23.001l7 14c3.33301 2.66699 9 4 17 4h30c13.333 0 20 -4.33301 20 -13c0 -20 -12.667 -43.5 -38 -70.5s-56.666 -40.5 -93.999 -40.5c-21.333 0 -40.5 4.33301 -57.5 13s-31.5 17.167 -43.5 25.5s-22.667 12.5 -32 12.5
c-10.667 0 -19.834 -3.16699 -27.501 -9.5s-13.834 -14.166 -18.501 -23.499l-7 -13c-4 -3.33301 -9.66699 -5 -17 -5h-29c-14 0 -21 5 -21 15z" />
    </font>
</defs>
</svg>
