<?xml version="1.0" standalone="no"?>
<!DOCTYPE svg PUBLIC "-//W3C//DTD SVG 1.1//EN" "http://www.w3.org/Graphics/SVG/1.1/DTD/svg11.dtd" >
<svg>
<metadata>
Created by FontForge 20090914 at Wed Nov  7 16:06:49 2012
 By www-data
Converted by Andrey V. Panov from TeX fonts
</metadata>
<defs>
<font id="CMUSansSerif-Bold" horiz-adv-x="550" >
  <font-face 
    font-family="CMU Sans Serif"
    font-weight="700"
    font-stretch="normal"
    units-per-em="1000"
    panose-1="2 0 8 3 0 0 0 0 0 0"
    ascent="800"
    descent="-200"
    x-height="457.998"
    cap-height="694.001"
    bbox="-1331 -440.002 1928.99 1170"
    underline-thickness="50"
    underline-position="-100"
    unicode-range="U+0020-U+10147"
  />
<missing-glyph horiz-adv-x="760" 
d="M10 10v755h740v-755h-740zM70 112l276 276l-276 275v-551zM105 70h550l-275 276zM105 705l275 -276l275 276h-550zM414 388l276 -276v551z" />
    <glyph glyph-name="igrave" unicode="i&#x300;" horiz-adv-x="255" 
d="M-38 664l-0.000976562 5.00098c2.66699 6.66699 9.33398 10 20.001 10h93c8.66699 0 15.5 -2.5 20.5 -7.5s20.833 -25.167 47.5 -60.5l43 -56l6 -10l1 -4c-0.666992 -8.66699 -7 -13 -19 -13h-28c-8.66699 0 -14.5 0.666992 -17.5 2s-9.16699 5.66602 -18.5 12.999
l-95 74c-26.667 20.667 -42.167 33 -46.5 37s-6.5 7.33301 -6.5 10zM59.999 50.001l-0.000976562 363.001c0 30 14.667 45 44 45h41c14.667 0 25.834 -2.66699 33.501 -8s12.167 -11 13.5 -17s2 -14.333 2 -25v-363c0 -30 -14.667 -45 -44 -45h-46
c-14 0 -24.5 3.33301 -31.5 10s-10.833 12.667 -11.5 18s-1 12.666 -1 21.999z" />
    <glyph glyph-name="iacute" unicode="i&#x301;" horiz-adv-x="255" 
d="M31 540c0 5.33301 30.667 47 92 125c7.33301 9.33301 16.333 14 27 14h86c8.66699 0 16.334 -1.66699 23.001 -5l3 -5v-4c-0.666992 -4.66699 -9.33398 -13.667 -26.001 -27c-5.33301 -3.33301 -9.33301 -6.33301 -12 -9l-63 -49c-33.333 -26 -53.333 -41.167 -60 -45.5
s-14 -6.5 -22 -6.5h-26c-14.667 0 -22 4 -22 12zM60 50l-0.000976562 363.001c0 30 14.667 45 44 45h41c14.667 0 25.834 -2.66699 33.501 -8s12.167 -11 13.5 -17s2 -14.333 2 -25v-363c0 -30 -14.667 -45 -44 -45h-46c-14 0 -24.5 3.33301 -31.5 10
s-10.833 12.667 -11.5 18s-1 12.666 -1 21.999z" />
    <glyph glyph-name="icircumflex" unicode="i&#x302;" horiz-adv-x="255" 
d="M-43 540c0 4 3.49805 9.99805 10.498 17.998s37.5 41 91.5 99c1.33301 1.33301 2.83301 3 4.5 5s3 3.5 4 4.5l4 4c1.66699 1.66699 3 2.83398 4 3.50098s2.5 1.33398 4.5 2.00098s4 1.16699 6 1.5s4.33301 0.5 7 0.5h71c7.33301 0 14 -2.66699 20 -8
s23.667 -23.666 53 -54.999l54 -58c6 -7.33301 9 -13 9 -17c0 -8.66699 -9 -13 -27 -13h-23c-6.66699 0 -13 1.83301 -19 5.5s-22 15.167 -48 34.5l-55 41c-33.333 -26.667 -59.166 -46.334 -77.499 -59.001s-29.166 -19.5 -32.499 -20.5s-7.33301 -1.5 -12 -1.5h-22
c-18 0 -27 4.33301 -27 13zM60.998 49.998l-0.000976562 363.001c0 30 14.667 45 44 45h41c14.667 0 25.834 -2.66699 33.501 -8s12.167 -11 13.5 -17s2 -14.333 2 -25v-363c0 -30 -14.667 -45 -44 -45h-46c-14 0 -24.5 3.33301 -31.5 10s-10.833 12.667 -11.5 18
s-1 12.666 -1 21.999z" />
    <glyph glyph-name="idieresis" unicode="i&#x308;" horiz-adv-x="317" 
d="M-20 599l-0.000976562 47.001c0 5.33301 0.333008 10.166 1 14.499s1.66699 8.16602 3 11.499s2.66602 6.16602 3.99902 8.49902s3.33301 4.33301 6 6s4.66699 2.83398 6 3.50098s3.66602 1.33398 6.99902 2.00098s5.5 1.16699 6.5 1.5s3.16699 0.5 6.5 0.5h6h50
c30.667 0 46 -15 46 -45v-54c0 -6 -0.666992 -11.5 -2 -16.5s-3.16602 -8.83301 -5.49902 -11.5s-4.66602 -5 -6.99902 -7s-5.16602 -3.5 -8.49902 -4.5s-6 -1.66699 -8 -2s-4.66699 -0.833008 -8 -1.5h-5h-53c-14 0 -25 3.16699 -33 9.5s-12 18.833 -12 37.5z
M90.999 50.001l-0.000976562 363.001c0 30 14.667 45 44 45h41c14.667 0 25.834 -2.66699 33.501 -8s12.167 -11 13.5 -17s2 -14.333 2 -25v-363c0 -30 -14.667 -45 -44 -45h-46c-14 0 -24.5 3.33301 -31.5 10s-10.833 12.667 -11.5 18s-1 12.666 -1 21.999z
M193.998 597.002l0.00195312 52c0 17.333 3.83301 29.166 11.5 35.499s19.5 9.5 35.5 9.5h49c15.333 0 26.833 -3.33301 34.5 -10s11.5 -19 11.5 -37v-50c0 -6 -0.5 -11.167 -1.5 -15.5s-2.33301 -8 -4 -11s-3.66699 -5.66699 -6 -8s-4.5 -4.16602 -6.5 -5.49902
s-4.66699 -2.33301 -8 -3s-5.83301 -1 -7.5 -1s-3.83398 -0.166992 -6.50098 -0.5s-4.33398 -0.5 -5.00098 -0.5h-51c-30.667 0 -46 15 -46 45z" />
    <glyph glyph-name="Aogonek" unicode="A&#x328;" horiz-adv-x="733" 
d="M42 27c0 2 1.66699 8.99707 5 20.9971l212 602c6.66699 18.667 15.167 30.667 25.5 36s23.833 8 40.5 8h89c30 0 50 -15.333 60 -46l210 -598c4 -9.33301 6 -16.666 6 -21.999c0 -18.667 -11.333 -28 -34 -28h-3c-32.667 0 -49 -25.333 -49 -76v-12
c0 -28 14.333 -42 43 -42c11.333 0 23.5 1.83301 36.5 5.5s21.167 5.5 24.5 5.5c7.33301 0 13.333 -4.16699 18 -12.5s7.33398 -16.5 8.00098 -24.5l2 -12c0 -14 -15.167 -25.667 -45.5 -35s-55.833 -14 -76.5 -14c-32.667 0 -58.5 9.66699 -77.5 29s-28.5 44.333 -28.5 75
c0 41.333 18 82.333 54 123c-9.33301 8 -15.833 16.333 -19.5 25s-17.5 47.334 -41.5 116.001h-285l-14.5 -42.5c-5.66699 -16.333 -9.66699 -28.166 -12 -35.499s-5.5 -16 -9.5 -26s-7.33301 -16.667 -10 -20s-5.83398 -7.5 -9.50098 -12.5s-7.66699 -8.16699 -12 -9.5
s-9.33301 -2.5 -15 -3.5s-12.5 -1.5 -20.5 -1.5h-31c-26.667 0 -40 9 -40 27zM246 236.997l225 -0.000976562c-68 194.667 -105.333 305.334 -112 332.001c-5.33301 -18 -43 -128.667 -113 -332z" />
    <glyph glyph-name="imacron" unicode="i&#x304;" horiz-adv-x="255" 
d="M-71 605v15.002c0 9.33301 1.33301 16.166 4 20.499s8.66699 6.5 18 6.5h353c10.667 0 17 -2.33301 19 -7s3 -14.667 3 -30v-26c0 -14.667 -6.33301 -22.334 -19 -23.001h-356c-11.333 0 -17.833 2 -19.5 6s-2.5 16.667 -2.5 38zM60 50.002l-0.000976562 363.001
c0 30 14.667 45 44 45h41c14.667 0 25.834 -2.66699 33.501 -8s12.167 -11 13.5 -17s2 -14.333 2 -25v-363c0 -30 -14.667 -45 -44 -45h-46c-14 0 -24.5 3.33301 -31.5 10s-10.833 12.667 -11.5 18s-1 12.666 -1 21.999z" />
    <glyph glyph-name="ibreve" unicode="i&#x306;" horiz-adv-x="255" 
d="M-62 628c0 10.667 3.33203 19.667 9.99902 27s15.334 11 26.001 11c6 0 10.833 -1 14.5 -3s7.16699 -4.16699 10.5 -6.5s13 -4.5 29 -6.5s38 -3 66 -3h42c24 0 43.333 0.166992 58 0.5s26.167 1.16602 34.5 2.49902s13.833 2.16602 16.5 2.49902s6 1.83301 10 4.5
s6.66699 4.33398 8 5.00098c4.66699 2.66699 10 4 16 4c9.33301 0 17.666 -3.5 24.999 -10.5s11 -16.167 11 -27.5c0 -50 -54.667 -75 -164 -75h-34c-18 0 -32.5 0.166992 -43.5 0.5s-26.167 1.83301 -45.5 4.5s-34.666 6.33398 -45.999 11.001s-21.5 12.167 -30.5 22.5
s-13.5 22.5 -13.5 36.5zM59.999 50l-0.000976562 363.001c0 30 14.667 45 44 45h41c14.667 0 25.834 -2.66699 33.501 -8s12.167 -11 13.5 -17s2 -14.333 2 -25v-363c0 -30 -14.667 -45 -44 -45h-46c-14 0 -24.5 3.33301 -31.5 10s-10.833 12.667 -11.5 18
s-1 12.666 -1 21.999z" />
    <glyph glyph-name="IJ" unicode="IJ" horiz-adv-x="814" 
d="M60 46v601.001c0 31.333 14 47 42 47h54c30.667 0 46 -15 46 -45v-601c0 -12.667 -1 -21.334 -3 -26.001c-1.33301 -3.33301 -3.33301 -6.5 -6 -9.5s-5 -5.16699 -7 -6.5s-4.66699 -2.5 -8 -3.5s-5.83301 -1.5 -7.5 -1.5s-4.16699 -0.166992 -7.5 -0.5
s-5.33301 -0.5 -6 -0.5h-51c-14.667 0 -26 3.16699 -34 9.5s-12 18.5 -12 36.5zM341 36.001c7.33301 62.667 15.002 96.3311 23.002 100.998c2.66699 1.33301 4.33398 2 5.00098 2c3.33301 0 8.16602 -3.16699 14.499 -9.5l21 -21c7.66699 -7.66699 19.167 -14.667 34.5 -21
s32.333 -9.5 51 -9.5c62 0 93 25.333 93 76c0 2 -0.166992 5 -0.5 9s-0.5 7 -0.5 9v476c0 4.66699 0.333008 8.83398 1 12.501s1.5 7 2.5 10s2.33301 5.66699 4 8s3.16699 4.16602 4.5 5.49902s3.16602 2.66602 5.49902 3.99902s4.16602 2.33301 5.49902 3
s3.5 1.16699 6.5 1.5s5 0.5 6 0.5s3.16699 0.333008 6.5 1h4h47c14 0 24.833 -3.16699 32.5 -9.5s11.834 -12 12.501 -17s1 -11.833 1 -20.5v-474c0 -2 0.166992 -5.16699 0.5 -9.5s0.5 -7.5 0.5 -9.5c0 -33.333 -5.83301 -62.166 -17.5 -86.499
s-27.5 -42.666 -47.5 -54.999s-40.5 -21.166 -61.5 -26.499s-43.167 -8 -66.5 -8c-32.667 0 -68.834 5 -108.501 15s-65.167 20.667 -76.5 32c-2 3.33301 -3 7 -3 11z" />
    <glyph glyph-name="ij" unicode="ij" horiz-adv-x="592" 
d="M64 626v49.9971c0 10.667 1.16699 19.334 3.5 26.001s6.5 11.334 12.5 14.001s10.5 4.16699 13.5 4.5s8.16699 0.833008 15.5 1.5h51c14 0 25.167 -3.16699 33.5 -9.5s12.5 -18.5 12.5 -36.5v-52c0 -5.33301 -0.5 -10.166 -1.5 -14.499s-2.33301 -8 -4 -11
s-3.66699 -5.66699 -6 -8s-4.66602 -4 -6.99902 -5s-5 -2 -8 -3s-5.33301 -1.5 -7 -1.5s-3.83398 -0.333008 -6.50098 -1h-4h-52c-14 0 -25.167 3.16699 -33.5 9.5s-12.5 18.5 -12.5 36.5zM68 49.9971l-0.000976562 363.001c0 30 14.667 45 44 45h41
c14.667 0 25.834 -2.66699 33.501 -8s12.167 -11 13.5 -17s2 -14.333 2 -25v-363c0 -30 -14.667 -45 -44 -45h-46c-14 0 -24.5 3.33301 -31.5 10s-10.833 12.667 -11.5 18s-1 12.666 -1 21.999zM250.999 -157.002c4 37.333 11.668 56 23.001 56
c1.33301 0 9.83301 -3.33301 25.5 -10s31.167 -10 46.5 -10c17.333 0 30.5 4 39.5 12s14.167 15.833 15.5 23.5s2.33301 17.5 3 29.5v5v465c0 5.33301 0.5 10.333 1.5 15s2.16699 8.5 3.5 11.5s3.33301 5.5 6 7.5s5 3.66699 7 5s4.66699 2.33301 8 3s5.66602 1 6.99902 1
s3.66602 0.166992 6.99902 0.5s5.33301 0.5 6 0.5h42c30.667 0 46 -15.333 46 -46v-427c0 -17.333 -0.5 -32.5 -1.5 -45.5s-4.16699 -29.5 -9.5 -49.5s-12.833 -36.167 -22.5 -48.5s-24.167 -23.333 -43.5 -33s-42.333 -14.5 -69 -14.5
c-27.333 0 -57.666 5.16699 -90.999 15.5s-50 21.5 -50 33.5zM396 625.998l0.000976562 49.9971c0 10.667 1.33301 19.167 4 25.5s6.66699 10.833 12 13.5s9.83301 4.33398 13.5 5.00098s8.83398 1.33398 15.501 2.00098h51c14 0 25.167 -3.16699 33.5 -9.5
s12.5 -18.5 12.5 -36.5v-52c0 -5.33301 -0.5 -10.166 -1.5 -14.499s-2.33301 -8 -4 -11s-3.83398 -5.66699 -6.50098 -8s-5 -4 -7 -5s-4.66699 -2 -8 -3s-5.83301 -1.5 -7.5 -1.5s-3.83398 -0.333008 -6.50098 -1h-4h-52c-14 0 -25 3.16699 -33 9.5s-12 18.5 -12 36.5z" />
    <glyph glyph-name="jcircumflex" unicode="j&#x302;" horiz-adv-x="286" 
d="M-13 540c0 4 4.16895 10.8301 12.502 20.4971s38.166 41.834 89.499 96.501c12.667 14 24.334 21 35.001 21h68h7c2 0 4 -0.5 6 -1.5s3.5 -1.66699 4.5 -2s2.66699 -1.5 5 -3.5s3.83301 -3.33301 4.5 -4s2.5 -2.66699 5.5 -6s5.16699 -5.66602 6.5 -6.99902l52 -56
c32 -34.667 48 -54 48 -58c0 -8.66699 -9 -13 -27 -13h-22h-5c-1.33301 0 -2.83301 0.166992 -4.5 0.5s-3.33398 1 -5.00098 2s-3.5 2 -5.5 3s-4.66699 2.66699 -8 5l-10.5 7c-3.66699 2.33301 -8.33398 5.83301 -14.001 10.5s-11.5 9.16699 -17.5 13.5l-24 17.5l-29 22
c-69.333 -51.333 -106 -77.666 -110 -78.999c-2.66699 -1.33301 -7 -2 -13 -2h-22c-18 0 -27 4.33301 -27 13zM-68.998 -158.003c7.33301 38 17 57 29 57c2.66699 0 11.167 -3.33301 25.5 -10s30.166 -10 47.499 -10c6.66699 0 12.834 0.5 18.501 1.5
s10.334 2.66699 14.001 5s7 4.33301 10 6s5.5 4.5 7.5 8.5l4.5 9c1 2 1.83301 5.5 2.5 10.5s1.16699 8.33301 1.5 10s0.5 5.16699 0.5 10.5v8v466c0 5.33301 0.5 10.333 1.5 15s2.16699 8.5 3.5 11.5s3.33301 5.5 6 7.5s5 3.66699 7 5s4.66699 2.33301 8 3
s5.66602 1 6.99902 1s3.5 0.166992 6.5 0.5s4.83301 0.5 5.5 0.5h43c30.667 0 46 -15.333 46 -46v-427c0 -79.333 -18 -133.333 -54 -162c-23.333 -19.333 -55.333 -29 -96 -29c-27.333 0 -58.333 5 -93 15s-52 21 -52 33z" />
    <glyph glyph-name="uni01D0" unicode="i&#x30c;" horiz-adv-x="255" 
d="M-45 654c1.33301 8 8.00195 12 20.002 12h26c9.33301 0 31.666 -2.5 66.999 -7.5s54.666 -7.5 57.999 -7.5c4 0 22.667 2.5 56 7.5s62.666 7.5 87.999 7.5h8c9.33301 0 15.666 -2.66699 18.999 -8l1 -4l-1 -5c-3.33301 -4 -10.666 -7.5 -21.999 -10.5
s-45 -9.83301 -101 -20.5l-20 -1h-54l-20 1c-76 16 -115.333 24.333 -118 25c-3.33301 2 -5.66602 5.66699 -6.99902 11zM60.002 50l-0.000976562 363.001c0 30 14.667 45 44 45h41c14.667 0 25.834 -2.66699 33.501 -8s12.167 -11 13.5 -17s2 -14.333 2 -25v-363
c0 -30 -14.667 -45 -44 -45h-46c-14 0 -24.5 3.33301 -31.5 10s-10.833 12.667 -11.5 18s-1 12.666 -1 21.999z" />
    <glyph glyph-name="uni01F0" unicode="j&#x30c;" horiz-adv-x="286" 
d="M-13 654c1.33301 8 8.00195 12 20.002 12h26c9.33301 0 31.666 -2.5 66.999 -7.5s54.666 -7.5 57.999 -7.5c4 0 22.667 2.5 56 7.5s62.666 7.5 87.999 7.5h8c9.33301 0 15.666 -2.66699 18.999 -8l1 -4l-1 -5c-3.33301 -4 -10.666 -7.5 -21.999 -10.5
s-45 -9.83301 -101 -20.5l-20 -1h-54l-20 1c-76 16 -115.333 24.333 -118 25c-3.33301 2 -5.66602 5.66699 -6.99902 11zM-68.998 -158c7.33301 38 17 57 29 57c2.66699 0 11.167 -3.33301 25.5 -10s30.166 -10 47.499 -10c6.66699 0 12.834 0.5 18.501 1.5
s10.334 2.66699 14.001 5s7 4.33301 10 6s5.5 4.5 7.5 8.5l4.5 9c1 2 1.83301 5.5 2.5 10.5s1.16699 8.33301 1.5 10s0.5 5.16699 0.5 10.5v8v466c0 5.33301 0.5 10.333 1.5 15s2.16699 8.5 3.5 11.5s3.33301 5.5 6 7.5s5 3.66699 7 5s4.66699 2.33301 8 3
s5.66602 1 6.99902 1s3.5 0.166992 6.5 0.5s4.83301 0.5 5.5 0.5h43c30.667 0 46 -15.333 46 -46v-427c0 -79.333 -18 -133.333 -54 -162c-23.333 -19.333 -55.333 -29 -96 -29c-27.333 0 -58.333 5 -93 15s-52 21 -52 33z" />
    <glyph glyph-name="uni0410_acutecomb" unicode="&#x410;&#x301;" horiz-adv-x="733" 
d="M42 27c0 4.66699 1.33496 10.998 4.00195 18.998l212 602c5.33301 15.333 12.333 26.833 21 34.5s22.667 11.5 42 11.5h90c12 0 22 -1.33301 30 -4s14.667 -8.16699 20 -16.5s8.66602 -14 9.99902 -17s4 -10.5 8 -22.5l207 -590c2.66699 -8 4 -13.667 4 -17
c0 -18 -12.333 -27 -37 -27h-53c-6 0 -11.333 0.166992 -16 0.5s-9.16699 1.66602 -13.5 3.99902s-7.83301 4.33301 -10.5 6s-5.66699 5.33398 -9 11.001l-8 14c-2 3.66699 -4.83301 10.334 -8.5 20.001s-6.66699 18 -9 25l-11 32l-13.5 38.5h-285
c-4.66699 -12 -9.5 -25.833 -14.5 -41.5s-8.83301 -27.167 -11.5 -34.5l-9.5 -25.5c-3.66699 -9.66699 -6.83398 -16.5 -9.50098 -20.5s-5.83398 -8.5 -9.50098 -13.5s-7.5 -8.16699 -11.5 -9.5s-8.66699 -2.66602 -14 -3.99902s-11.666 -2 -18.999 -2h-37
c-25.333 0 -38 9 -38 27zM232.002 776.998c0 3.33301 2.33301 7.33203 7 11.999c72 55.333 110.667 84 116 86c4 2 9.33301 3 16 3h139c13.333 0 20 -4.33301 20 -13c0 -2 -0.5 -3.83301 -1.5 -5.5s-2.16699 -3 -3.5 -4s-3 -2.16699 -5 -3.5l-3 -1l-112 -48
c-44.667 -19.333 -71.5 -30.666 -80.5 -33.999s-17.167 -5 -24.5 -5h-51c-10 0.666992 -15.667 5 -17 13zM246.002 236.997l225.001 -0.000976562c-68 194.667 -105.333 305.334 -112 332.001c-6.66699 -24 -44.334 -134.667 -113.001 -332z" />
    <glyph glyph-name="ff" unicode="ff" horiz-adv-x="642" 
d="M31 422c0 24 15.0029 36.001 45.0029 36.001h10v88c0 124 64.333 186.333 193 187h2c49.333 0 81 -5 95 -15l3 -4l2 -5v-61c0 -16.667 -4 -25 -12 -25c-3.33301 0 -8.33301 3.16699 -15 9.5s-16.167 12.5 -28.5 18.5s-26.5 9 -42.5 9s-28.833 -2.33301 -38.5 -7
s-16.334 -11.834 -20.001 -21.501s-6 -17.834 -7 -24.501s-1.5 -15.667 -1.5 -27v-122h55c14.667 0 25.5 -3.66699 32.5 -11s10.5 -15.666 10.5 -24.999c0 -5.33301 -0.833008 -10.333 -2.5 -15s-6.16699 -9.5 -13.5 -14.5s-17 -7.5 -29 -7.5h-50v-333
c0 -8.66699 -0.333008 -15.167 -1 -19.5s-2.33398 -9.5 -5.00098 -15.5s-7.33398 -10.333 -14.001 -13s-15.667 -4 -27 -4h-42c-14 0 -24.5 3.16699 -31.5 9.5s-10.833 12 -11.5 17s-1 11.5 -1 19.5v339h-12c-28.667 0 -43 12.333 -43 37zM391.003 45.001l0.00195312 502
c0 124 65 186 195 186h1c66.667 0 100 -10 100 -30v-60c0 -10.667 -3.66699 -17.334 -11 -20.001h-5c-3.33301 1.33301 -8.66602 5.33301 -15.999 12s-16.5 12.5 -27.5 17.5s-24.167 7.5 -39.5 7.5c-6.66699 0 -12.834 -0.5 -18.501 -1.5s-10.5 -2.16699 -14.5 -3.5
s-7.83301 -3.5 -11.5 -6.5s-6.5 -5.5 -8.5 -7.5s-3.83301 -5.33301 -5.5 -10s-2.83398 -7.83398 -3.50098 -9.50098s-1.33398 -5.16699 -2.00098 -10.5s-1.16699 -8.66602 -1.5 -9.99902s-0.5 -4.83301 -0.5 -10.5v-9.5v-123h54c14.667 0 25.667 -3.66699 33 -11
s11 -15.666 11 -24.999c0 -5.33301 -0.833008 -10.333 -2.5 -15s-6.16699 -9.5 -13.5 -14.5s-17 -7.5 -29 -7.5h-50v-337c0 -32 -14.667 -48 -44 -48h-44c-18.667 0 -31 4 -37 12s-9 19 -9 33z" />
    <glyph glyph-name="fi" unicode="fi" horiz-adv-x="586" 
d="M31 422c0 24 15.0049 36.001 45.0049 36.001h10v87c0 58 11.833 103.833 35.5 137.5s65.5 50.5 125.5 50.5c9.33301 0 17.666 -0.333008 24.999 -1s13.666 -1.66699 18.999 -3s9.83301 -2.5 13.5 -3.5s6.66699 -2.5 9 -4.5s4.16602 -3.66699 5.49902 -5
s2.33301 -3.16602 3 -5.49902s1 -4 1 -5v-3.5v-3v-56c0 -16.667 -4 -25 -12 -25c-4 0 -8.33301 3.5 -13 10.5s-10.667 14 -18 21s-17 10.5 -29 10.5c-23.333 0 -35 -24 -35 -72v-130h63c12 0 21.5 -2.5 28.5 -7.5s11.333 -9.83301 13 -14.5s2.5 -9.33398 2.5 -14.001
s-0.833008 -9.33398 -2.5 -14.001s-6.16699 -9.66699 -13.5 -15s-17 -8 -29 -8h-59v-333c0 -8.66699 -0.333008 -15.167 -1 -19.5s-2.33398 -9.5 -5.00098 -15.5s-7.33398 -10.333 -14.001 -13s-15.667 -4 -27 -4h-42c-14 0 -24.5 3.16699 -31.5 9.5s-10.833 12 -11.5 17
s-1 11.5 -1 19.5v339h-12c-28.667 0 -43 12.333 -43 37zM388.005 633.001c0 0.666992 0.166992 2.33203 0.5 4.99902s0.5 4.33398 0.5 5.00098v27c0 12 0.666992 20.833 2 26.5s5.33301 11.167 12 16.5s17 8.33301 31 9h43c9.33301 0 16.833 -0.5 22.5 -1.5
s11.5 -5.16699 17.5 -12.5s9 -18.333 9 -33v-36c0 -12 -0.5 -20.667 -1.5 -26s-5 -11 -12 -17s-17.5 -9.33301 -31.5 -10h-44c-9.33301 0 -16.833 0.5 -22.5 1.5s-11.5 5.33301 -17.5 13s-9 18.5 -9 32.5zM390.005 49.999l-0.00292969 363c0 8 0.5 14.5 1.5 19.5
s5.33301 10.5 13 16.5s18.834 9 33.501 9h37c14.667 0 25.834 -2.66699 33.501 -8s12.167 -11 13.5 -17s2 -14.333 2 -25v-363c0 -30 -14.667 -45 -44 -45h-42c-14.667 0 -25.667 2.83301 -33 8.5s-11.666 11.5 -12.999 17.5s-2 14 -2 24z" />
    <glyph glyph-name="fl" unicode="fl" horiz-adv-x="586" 
d="M31 422c0 24 15.002 36.002 45.002 36.002h10v87c0 58 11.833 103.833 35.5 137.5s65.5 50.5 125.5 50.5c50.667 0 76 -10.333 76 -31v-62c0 -11.333 -4 -17 -12 -17c-3.33301 0 -10.5 6.16699 -21.5 18.5s-23.833 18.5 -38.5 18.5c-23.333 0 -35 -22.667 -35 -68v-134
h63c12 0 21.5 -2.5 28.5 -7.5s11.333 -9.83301 13 -14.5s2.5 -9.33398 2.5 -14.001s-0.833008 -9.33398 -2.5 -14.001s-6.16699 -9.66699 -13.5 -15s-17 -8 -29 -8h-59v-333c0 -8.66699 -0.333008 -15.167 -1 -19.5s-2.33398 -9.5 -5.00098 -15.5
s-7.33398 -10.333 -14.001 -13s-15.667 -4 -27 -4h-42c-14 0 -24.5 3.16699 -31.5 9.5s-10.833 12 -11.5 17s-1 11.5 -1 19.5v339h-12c-28.667 0 -43 12.333 -43 37zM390.002 45.002l0.000976562 622.003c0 10.667 0.166992 17.667 0.5 21s1.66602 8.5 3.99902 15.5
s6.83301 11.667 13.5 14s16 3.83301 28 4.5h42c30.667 0 46 -15 46 -45v-628c0 -11.333 -0.666992 -19.833 -2 -25.5s-5.33301 -10.834 -12 -15.501s-17 -7.33398 -31 -8.00098h-45c-7.33301 0 -13.5 0.5 -18.5 1.5s-10.5 5.16699 -16.5 12.5s-9 17.666 -9 30.999z" />
    <glyph glyph-name="ffi" unicode="ffi" horiz-adv-x="891" 
d="M31 422c0 24 15.0029 36.001 45.0029 36.001h10v87c0 124.667 58.333 187.334 175 188.001h1c59.333 0 89 -10.333 89 -31v-55c0 -16.667 -3.33301 -25 -10 -25c-4.66699 0 -11.334 4.33301 -20.001 13c-16.667 16.667 -35 25 -55 25c-33.333 0 -50 -23.667 -50 -71v-131
h63c12 0 21.5 -2.5 28.5 -7.5s11.333 -9.83301 13 -14.5s2.5 -9.33398 2.5 -14.001s-0.833008 -9.33398 -2.5 -14.001s-6.16699 -9.66699 -13.5 -15s-17 -8 -29 -8h-59v-333c0 -8.66699 -0.333008 -15.167 -1 -19.5s-2.33398 -9.5 -5.00098 -15.5
s-7.33398 -10.333 -14.001 -13s-15.667 -4 -27 -4h-42c-14 0 -24.5 3.16699 -31.5 9.5s-10.833 12 -11.5 17s-1 11.5 -1 19.5v339h-12c-28.667 0 -43 12.333 -43 37zM391.003 47.001v498.005c0 26.667 2.16699 50.167 6.5 70.5s12.166 39.833 23.499 58.5
s28.166 33.167 50.499 43.5s49.833 15.5 82.5 15.5c14.667 0 27.167 -0.833008 37.5 -2.5s17.833 -3.33398 22.5 -5.00098s8.16699 -4.33398 10.5 -8.00098s3.5 -5.83398 3.5 -6.50098v-6v-67c-0.666992 -12 -5 -18 -13 -18c-4 0.666992 -11.667 9.33398 -23 26.001
c-14 9.33301 -25.667 14 -35 14c-23.333 0 -35 -23.333 -35 -70v-132h62c12 0 21.5 -2.5 28.5 -7.5s11.333 -9.83301 13 -14.5s2.5 -9.33398 2.5 -14.001s-0.666992 -9.33398 -2 -14.001s-5.66602 -9.66699 -12.999 -15s-17 -8 -29 -8h-59v-339
c0.666992 -18 -3.16602 -30.167 -11.499 -36.5s-19.5 -9.5 -33.5 -9.5h-43c-9.33301 0 -16.833 0.833008 -22.5 2.5s-11 6.16699 -16 13.5s-7.5 17.666 -7.5 30.999zM694.003 633.006v37.001c0 12 0.666992 20.833 2 26.5s5.33301 11.167 12 16.5s17 8.33301 31 9h43
c9.33301 0 16.833 -0.5 22.5 -1.5s11.5 -5.16699 17.5 -12.5s9 -18.333 9 -33v-36c0 -9.33301 -0.166992 -16 -0.5 -20s-1.83301 -9 -4.5 -15s-7.16699 -10.333 -13.5 -13s-14.833 -4.33398 -25.5 -5.00098h-43c-10 0 -17.833 0.5 -23.5 1.5s-11.5 5.16699 -17.5 12.5
s-9 18.333 -9 33zM696.003 50.0068l0.000976562 363c0 8 0.5 14.5 1.5 19.5s5.33301 10.5 13 16.5s18.834 9 33.501 9h44c28 0 42 -16.667 42 -50v-363c0 -30 -14.667 -45 -44 -45h-43c-11.333 0 -20.333 1.33301 -27 4s-11.334 7 -14.001 13s-4.33398 11 -5.00098 15
s-1 10 -1 18z" />
    <glyph glyph-name="ffl" unicode="ffl" horiz-adv-x="891" 
d="M31 422c0 24 15 36.001 45 36.001h10v87c0 124.667 58.333 187.334 175 188.001h1c59.333 0 89 -10.333 89 -31v-55c0 -16.667 -3.33301 -25 -10 -25c-4.66699 0 -11.334 4.33301 -20.001 13c-16.667 16.667 -35 25 -55 25c-33.333 0 -50 -23.667 -50 -71v-131h63
c12 0 21.5 -2.5 28.5 -7.5s11.333 -9.83301 13 -14.5s2.5 -9.33398 2.5 -14.001s-0.833008 -9.33398 -2.5 -14.001s-6.16699 -9.66699 -13.5 -15s-17 -8 -29 -8h-59v-333c0 -10 -0.333008 -17.5 -1 -22.5s-1.66699 -8.5 -3 -10.5s-4.33301 -5.33301 -9 -10
c-7.33301 -6 -18.666 -9 -33.999 -9h-43c-28.667 -0 -43 15.333 -43 46v339h-12c-28.667 0 -43 12.333 -43 37zM391 49.001l0.000976562 491c0 18 0.666992 33.833 2 47.5s5 30.334 11 50.001s14.333 35.834 25 48.501s26.667 23.667 48 33s46.666 14 75.999 14
c38 0 61.667 -5.33301 71 -16c3.33301 -4 5 -9.66699 5 -17v-58c0 -12 -4 -18.333 -12 -19c-4.66699 0.666992 -12.334 7 -23.001 19s-23 18 -37 18c-23.333 0 -35 -22.667 -35 -68v-134h62c12 0 21.5 -2.5 28.5 -7.5s11.333 -9.83301 13 -14.5s2.5 -9.33398 2.5 -14.001
s-0.666992 -9.33398 -2 -14.001s-5.66602 -9.66699 -12.999 -15s-17 -8 -29 -8h-59v-340c0 -30 -15 -45 -45 -45h-47c-28 0 -42 16.333 -42 49zM696.001 45.001l0.000976562 622.005v8v8.5c0 1 0.166992 3.5 0.5 7.5s0.833008 6.33301 1.5 7s1.5 2.66699 2.5 6
s2.16699 5.33301 3.5 6s3.16602 2 5.49902 4s5 3.33301 8 4s6.5 1.5 10.5 2.5s8.33301 1.5 13 1.5h43c30.667 0 46 -15 46 -45v-621c0 -0.666992 -0.166992 -1.83398 -0.5 -3.50098s-0.5 -2.83398 -0.5 -3.50098c0 -11.333 -0.666992 -19.833 -2 -25.5
s-5.33301 -10.834 -12 -15.501s-17 -7.33398 -31 -8.00098h-44c-7.33301 0 -13.5 0.5 -18.5 1.5s-10.5 5.16699 -16.5 12.5s-9 17.666 -9 30.999z" />
    <glyph glyph-name=".notdef" horiz-adv-x="760" 
d="M10 10v755h740v-755h-740zM70 112l276 276l-276 275v-551zM105 70h550l-275 276zM105 705l275 -276l275 276h-550zM414 388l276 -276v551z" />
    <glyph glyph-name="space" unicode=" " horiz-adv-x="367" 
 />
    <glyph glyph-name="exclam" unicode="!" horiz-adv-x="367" 
d="M117 46l0.000976562 37.998c0 8.66699 0.666992 15.834 2 21.501s5.66602 11.334 12.999 17.001s18 8.5 32 8.5h43c27.333 0 41 -15.333 41 -46v-38c0 -8.66699 -0.333008 -15.5 -1 -20.5s-4.66699 -10.667 -12 -17s-18.333 -9.5 -33 -9.5h-38
c-9.33301 -0 -17 0.833008 -23 2.5s-11.5 6 -16.5 13s-7.5 17.167 -7.5 30.5zM117.001 693.998c0.666992 14.667 2.99902 23 6.99902 25c2.66699 2 7.66699 3 15 3h87c14.667 0 22 -6.66699 22 -20l-12 -475c0 -12 -2.66699 -21.333 -8 -28
c-3.33301 -2 -7.66602 -3 -12.999 -3h-61c-15.333 0 -23.333 6.33301 -24 19z" />
    <glyph glyph-name="quotedbl" unicode="&#x22;" 
d="M114 696l-0.00195312 13.999c2.66699 8 10 12 22 12h91c14.667 0 22 -5.66699 22 -17c0 -0.666992 -0.166992 -2.33398 -0.5 -5.00098s-0.5 -4.33398 -0.5 -5.00098l-29 -292c-1.33301 -11.333 -3.66602 -18.666 -6.99902 -21.999c-4 -2 -9 -3 -15 -3h-32
c-6.66699 0 -11.667 1.83301 -15 5.5s-5.16602 6.83398 -5.49902 9.50098s-0.833008 7.33398 -1.5 14.001zM298.998 709.999c2.66699 8 10 11.998 22 11.998h91c14.667 0 22 -5.66699 22 -17v-10l-30 -292c-1.33301 -11.333 -3.66602 -18.666 -6.99902 -21.999
c-4 -2 -9 -3 -15 -3h-31c-6.66699 0 -11.834 1.83301 -15.501 5.5s-5.66699 6.83398 -6 9.50098s-0.833008 7.66699 -1.5 15l-28 288z" />
    <glyph glyph-name="numbersign" unicode="#" horiz-adv-x="916" 
d="M60 365c0 8.66699 2.66699 15.9961 8 21.9961s10.333 9.66699 15 11c5.33301 2 14 3 26 3h233l76 281l1 4c0.666992 2.66699 1.33398 4.83398 2.00098 6.50098s1.66699 4 3 7s3 5.66699 5 8s4.33301 4.66602 7 6.99902s5.83398 4 9.50098 5s7.5 1.5 11.5 1.5
c10.667 0 19.167 -3.33301 25.5 -10s9.83301 -14.334 10.5 -23.001c0 -3.33301 -1.66699 -11.666 -5 -24.999l-71 -262h163l77 281l1 4c0.666992 2.66699 1.33398 4.83398 2.00098 6.50098s1.66699 4 3 7s3 5.66699 5 8s4.16699 4.5 6.5 6.5s5.33301 3.66699 9 5
s7.5 2 11.5 2c10.667 0 19.167 -3.33301 25.5 -10s9.83301 -14.334 10.5 -23.001c0 -6 -1.33301 -14.333 -4 -25l-71 -262h145c10 0 17.333 -0.333008 22 -1c8.66699 -1.33301 16 -5.16602 22 -11.499s9 -14.166 9 -23.499c0 -5.33301 -0.833008 -10.333 -2.5 -15
s-6.16699 -9.5 -13.5 -14.5s-17 -7.5 -29 -7.5h-174l-42 -156h213c11.333 0 19.666 -1 24.999 -3c15.333 -5.33301 23 -16.666 23 -33.999c0 -24 -15 -36 -45 -36h-237l-76 -281c-5.33301 -26 -18.333 -39 -39 -39c-10 0 -18.333 3.33301 -25 10
s-10.334 14.334 -11.001 23.001c0 3.33301 1.66699 11.666 5 24.999l71 262h-163l-77 -281c-5.33301 -26 -18 -39 -38 -39c-10 0 -18.333 3.33301 -25 10s-10.334 14.334 -11.001 23.001c0 6 1.33301 14.333 4 25l72 262h-146c-10 0 -17.333 0.333008 -22 1
c-20 4 -30 15.667 -30 35c0 4.66699 0.666992 9.33398 2 14.001s5.66602 9.66699 12.999 15s17 8 29 8h174l42 156h-213c-11.333 0 -19.666 1 -24.999 3c-15.333 5.33301 -23 16.666 -23 33.999zM354 171.996h164l42 156h-163z" />
    <glyph glyph-name="dollar" unicode="$" 
d="M49 77c0 2 4 24.998 12 68.998c2.66699 16 7.33398 24 14.001 24c4 0 12 -5.16699 24 -15.5s30.167 -22.166 54.5 -35.499s52.5 -22.333 84.5 -27v219c-58.667 12 -103 38.333 -133 79s-45 85.334 -45 134.001c0 59.333 15.167 107.833 45.5 145.5
s76.166 58.5 137.499 62.5c7.33301 11.333 17.666 17 30.999 17s23.666 -5.66699 30.999 -17c32.667 -2.66699 58.5 -7.66699 77.5 -15s41.5 -19 67.5 -35c0.666992 -0.666992 2.33398 -1.83398 5.00098 -3.50098s4.33398 -2.66699 5.00098 -3
s1.83398 -1.16602 3.50098 -2.49902s2.66699 -2.5 3 -3.5s0.666016 -2.33301 0.999023 -4s0.5 -3.5 0.5 -5.5c0 -4.66699 -3.66699 -27 -11 -67c-2.66699 -14.667 -7 -22 -13 -22c-4.66699 0 -11.834 3.83301 -21.501 11.5s-24.167 16.5 -43.5 26.5s-42.333 17.333 -69 22
v-191c54 -11.333 97.167 -38 129.5 -80s48.5 -91.667 48.5 -149c0 -135.333 -60.667 -209 -182 -221c-7.33301 -11.333 -18 -17 -32 -17c-13.333 0 -23.666 5.66699 -30.999 17c-38.667 3.33301 -80.667 14.833 -126 34.5s-68 37.167 -68 52.5zM176 544.998
c0 -14 2 -26.168 6 -36.501s10.667 -19.333 20 -27s15.333 -12.167 18 -13.5s8.66699 -4.66602 18 -9.99902v171h-1c-31.333 -9.33301 -50.333 -27.333 -57 -54c-2.66699 -9.33301 -4 -19.333 -4 -30zM310 93.9971c41.333 12.667 62 45 62 97c0 48 -20.333 81.667 -61 101
l-1 -31v-167z" />
    <glyph glyph-name="percent" unicode="%" horiz-adv-x="1029" 
d="M60 555c0 130 60.667 194.999 182 194.999c24 0 46 -3 66 -9s38.833 -15.833 56.5 -29.5s31.5 -33.667 41.5 -60s15 -58.166 15 -95.499c0 -130 -60 -195 -180 -195c-52 0 -95.167 14.667 -129.5 44s-51.5 79.333 -51.5 150zM180 540.999
c0.666992 -16.667 1.33105 -29.165 1.99805 -37.498s2.83398 -19 6.50098 -32s9.83398 -22.5 18.501 -28.5s20.334 -9 35.001 -9c26 0 44.667 15.667 56 47c6 18 9 43 9 75c0 80.667 -22 121 -66 121c-14 0 -25.333 -3.16699 -34 -9.5s-14.834 -15.333 -18.501 -27
s-6 -22.334 -7 -32.001s-1.5 -21.834 -1.5 -36.501v-8v-23zM200.997 14.001c0 10.667 4.99902 22.334 14.999 35.001l530 675c12.667 16.667 26.334 25 41.001 25c13.333 0 23.5 -4.5 30.5 -13.5s10.5 -18.167 10.5 -27.5s-4.33301 -20 -13 -32l-523 -667
c-12.667 -16 -21.5 -25.833 -26.5 -29.5s-13.167 -5.83398 -24.5 -6.50098c-11.333 0.666992 -20.833 5 -28.5 13s-11.5 17.333 -11.5 28zM604.996 166.001c0 130 60.666 195 181.999 195c118.667 0 178.334 -64.667 179.001 -194c0 -130 -60 -195 -180 -195
c-52 0 -95.167 14.667 -129.5 44s-51.5 79.333 -51.5 150zM724.995 152.001c0.666992 -16.667 1.33105 -29.165 1.99805 -37.498s2.83398 -19 6.50098 -32s9.83398 -22.5 18.501 -28.5s20.334 -9 35.001 -9c26 0 44.667 15.667 56 47c6 18 9 43 9 75
c0 80.667 -22 121 -66 121c-14 0 -25.333 -3.16699 -34 -9.5s-14.834 -15.333 -18.501 -27s-6 -22.334 -7 -32.001s-1.5 -21.834 -1.5 -36.501v-8v-23z" />
    <glyph glyph-name="ampersand" unicode="&#x26;" horiz-adv-x="830" 
d="M45 152c0 57.333 30.3359 107 91.0029 149c2 1.33301 3.33301 2.33301 4 3l60 44c-29.333 67.333 -44 133.666 -44 198.999c0 58.667 18.667 106.167 56 142.5s80.666 54.5 129.999 54.5c48 0 88 -16.833 120 -50.5s48 -72.5 48 -116.5c0 -62.667 -60 -136.667 -180 -222
c30 -54.667 78 -117 144 -187c37.333 36.667 65.333 68.667 84 96c28.667 44 53 97.667 73 161c2.66699 8 7.33398 12 14.001 12c4.66699 0 26.667 -5.33301 66 -16c13.333 -4 20 -9.66699 20 -17c0 -6 -4.5 -22 -13.5 -48s-26.167 -61.667 -51.5 -107
s-55 -85.666 -89 -120.999l-24 -25c32.667 -16.667 63 -25 91 -25c24 0 48.333 3.66699 73 11s37.334 11 38.001 11c8.66699 0 13 -6.66699 13 -20v-63c0 -2.66699 -0.166992 -5.16699 -0.5 -7.5s-1 -4.33301 -2 -6s-1.66699 -3 -2 -4s-1.5 -2 -3.5 -3
s-3.33301 -1.5 -4 -1.5s-2.33398 -0.5 -5.00098 -1.5s-4.33398 -1.5 -5.00098 -1.5c-34.667 -9.33301 -69.334 -14 -104.001 -14c-64.667 0 -125.334 19 -182.001 57c-56 -27.333 -103.667 -44.333 -143 -51c-22.667 -4 -45.667 -6 -69 -6c-62 0 -111.333 17.5 -148 52.5
s-55 75.5 -55 121.5zM182.003 180c0 -24.667 5.16699 -47.833 15.5 -69.5s27.5 -32.5 51.5 -32.5c40.667 0 82 8.66699 124 26c-64.667 68.667 -111 128 -139 178h-1c-10.667 -8 -18.5 -14.333 -23.5 -19s-10.833 -14.5 -17.5 -29.5s-10 -32.833 -10 -53.5zM270.003 570.001
c0 -42 9.33301 -91 28 -147c65.333 47.333 98 98.333 98 153c0 21.333 -4.5 42.5 -13.5 63.5s-22.833 31.5 -41.5 31.5c-16 0 -31.833 -8.16699 -47.5 -24.5s-23.5 -41.833 -23.5 -76.5z" />
    <glyph glyph-name="quotesingle" unicode="'" horiz-adv-x="305" 
d="M84 696l-0.00195312 13.999c2.66699 8 10 12 22 12h91c14.667 0 22 -5.66699 22 -17c0 -0.666992 -0.166992 -2.33398 -0.5 -5.00098s-0.5 -4.33398 -0.5 -5.00098l-29 -292c-1.33301 -11.333 -3.66602 -18.666 -6.99902 -21.999c-4 -2 -9 -3 -15 -3h-32
c-6.66699 0 -11.667 1.83301 -15 5.5s-5.16602 6.83398 -5.49902 9.50098s-0.833008 7.33398 -1.5 14.001z" />
    <glyph glyph-name="parenleft" unicode="(" horiz-adv-x="428" 
d="M85 249c0 206.667 64.667 367.335 194 482.002l5 5c10.667 9.33301 20.334 14 29.001 14h30c14 0 21 -4.33301 21 -13c0 -3.33301 -4.83301 -11 -14.5 -23s-21.5 -29.333 -35.5 -52s-28 -50.667 -42 -84s-25.833 -78.833 -35.5 -136.5s-14.5 -121.834 -14.5 -192.501
s4.83301 -134.667 14.5 -192s21.5 -102.5 35.5 -135.5s28 -60.667 42 -83s25.833 -39.5 35.5 -51.5s14.5 -20.333 14.5 -25c0 -8 -6 -12 -18 -12h-30c-9.33301 0 -16.5 1.66699 -21.5 5s-16.833 13.666 -35.5 30.999c-54.667 52 -97.334 118 -128.001 198
s-46 168.333 -46 265z" />
    <glyph glyph-name="parenright" unicode=")" horiz-adv-x="428" 
d="M62 -237c0 4 4.83105 11.832 14.498 23.499s21.5 28.834 35.5 51.501s28 50.667 42 84s25.833 78.833 35.5 136.5s14.5 122.167 14.5 193.5c0 67.333 -4.16699 128.166 -12.5 182.499s-20.333 99.833 -36 136.5s-29 64.334 -40 83.001s-24.5 38.667 -40.5 60
c-9.33301 11.333 -13.666 20 -12.999 26c2 6.66699 8 10 18 10h31c8 0 14.333 -1.5 19 -4.5s16.334 -13.167 35.001 -30.5c16.667 -15.333 33 -33.5 49 -54.5s34.5 -50.333 55.5 -88s38 -84.5 51 -140.5s19.5 -116.667 19.5 -182c0 -100 -15.5 -189.5 -46.5 -268.5
s-73.5 -144.167 -127.5 -195.5c-20 -18.667 -32 -29.167 -36 -31.5s-11 -3.83301 -21 -4.5h-26c-14 0 -21 4.33301 -21 13z" />
    <glyph glyph-name="asterisk" unicode="*" 
d="M67 437c0 4.66699 0.331055 8.83398 0.998047 12.501s2 7.16699 4 10.5s4 6.16602 6 8.49902s5.33301 5 10 8s9 5.33301 13 7l18 7.5l21 8.5l27 10l32 11.5c-59.333 19.333 -96.166 33.666 -110.499 42.999s-21.5 22.666 -21.5 39.999c0 15.333 5.5 29.333 16.5 42
s24.5 19 40.5 19c2.66699 0 5.33398 -0.333008 8.00098 -1s5.16699 -1.33398 7.5 -2.00098s5.16602 -2.16699 8.49902 -4.5l10 -7c3.33301 -2.33301 7.83301 -5.83301 13.5 -10.5l16 -13.5l21.5 -18.5c9.33301 -8 18.333 -15.333 27 -22c-12 68 -18 106 -18 114
c0 14.667 5.66699 26.5 17 35.5s24.333 13.5 39 13.5s27.667 -4.5 39 -13.5s17 -20.833 17 -35.5c0 -4 -6.33301 -42 -19 -114l26.5 22.5l22.5 19l17 14c6 5 10.833 8.66699 14.5 11l11.5 7c4 2.33301 7.5 3.83301 10.5 4.5s6.16699 1 9.5 1
c15.333 0 28.666 -6.16699 39.999 -18.5s17 -26.5 17 -42.5c0 -16.667 -5.66699 -29 -17 -37s-37.333 -19.333 -78 -34c-15.333 -5.33301 -27.333 -9.66602 -36 -12.999c59.333 -19.333 96 -33.666 110 -42.999s21 -22.666 21 -39.999c0 -15.333 -5.5 -29.333 -16.5 -42
s-24.5 -19 -40.5 -19h-6c-1.33301 0 -3.16602 0.5 -5.49902 1.5l-6 2.5c-1.66699 0.666992 -4.33398 2.33398 -8.00098 5.00098l-9.5 7c-2.66699 2 -6.83398 5.33301 -12.501 10l-16 13.5l-21.5 18l-27 22.5c12.667 -72.667 19 -111.667 19 -117
c0 -13.333 -5.66699 -24.5 -17 -33.5s-24.333 -13.5 -39 -13.5s-27.667 4.5 -39 13.5s-17 20.833 -17 35.5c0 8.66699 6 47 18 115l-32 -26.5l-24 -20.5c-5.33301 -4.66699 -11 -9.33398 -17 -14.001l-13 -10c-2.66699 -2 -5.66699 -3.83301 -9 -5.5
s-6.16602 -2.66699 -8.49902 -3s-5.16602 -0.5 -8.49902 -0.5c-15.333 0 -28.666 6.33301 -39.999 19s-17 26.667 -17 42z" />
    <glyph glyph-name="plus" unicode="+" horiz-adv-x="855" 
d="M60 250c0 24 15.333 35.999 46 35.999h284v290c0 13.333 3.83301 23.333 11.5 30s15.834 10 24.501 10c24.667 0 37 -15 37 -45v-285h281c32 0 48 -12 48 -36s-15.667 -36 -47 -36h-282v-289c0 -12 -3.5 -21.833 -10.5 -29.5s-15.833 -11.5 -26.5 -11.5
c-24 0 -36 15 -36 45v285h-288c-12.667 0 -22.834 3.33301 -30.501 10s-11.5 15.334 -11.5 26.001z" />
    <glyph glyph-name="comma" unicode="," horiz-adv-x="305" 
d="M86 22l0.000976562 76c0 13.333 1.16699 22.166 3.5 26.499s8.16602 6.5 17.499 6.5h88c9.33301 0 15.333 -1.5 18 -4.5s4 -8.83301 4 -17.5v-86c0 -8.66699 -2.16699 -17 -6.5 -25s-21.166 -35.333 -50.499 -82c-3.33301 -5.33301 -5.66602 -8.83301 -6.99902 -10.5
s-3.33301 -3.66699 -6 -6s-5.33398 -3.66602 -8.00098 -3.99902s-6.33398 -0.5 -11.001 -0.5h-20c-13.333 0 -20 4.33301 -20 13c0 3.33301 10.667 34 32 92h-12c-7.33301 -0 -12.833 1.33301 -16.5 4s-5.5 8.66699 -5.5 18z" />
    <glyph glyph-name="hyphen" unicode="-" horiz-adv-x="367" 
d="M12 229c0 24 14.999 36.001 44.999 36.001h203c29.333 0 44 -12 44 -36c0 -4.66699 -0.666992 -9.33398 -2 -14.001s-5.66602 -9.5 -12.999 -14.5s-17 -7.5 -29 -7.5h-204c-17.333 0 -29 4 -35 12s-9 16 -9 24z" />
    <glyph glyph-name="period" unicode="." horiz-adv-x="305" 
d="M86 23v79.9961c0.666992 6.66699 1 10.834 1 12.501s0.666992 4.33398 2 8.00098s3.5 5.83398 6.5 6.50098s7.16699 1 12.5 1h87c9.33301 0 15.333 -1.66699 18 -5s4 -8.66602 4 -15.999v-82v-12c0 -2 -0.666992 -4.66699 -2 -8s-3.5 -5.5 -6.5 -6.5
s-7.16699 -1.5 -12.5 -1.5h-87c-15.333 0 -23 7.66699 -23 23z" />
    <glyph glyph-name="slash" unicode="/" 
d="M61 -213c0 1.33301 3.00488 11.999 9.00488 31.999l338 883c0 0.666992 0.666992 2.66699 2 6l3 7.5l3 7.5c1.33301 3.33301 2.66602 6 3.99902 8s3.16602 4.33301 5.49902 7s4.66602 4.66699 6.99902 6s5.16602 2.5 8.49902 3.5s6.66602 1.5 9.99902 1.5
c9.33301 0 17.666 -3.33301 24.999 -10s11 -15 11 -25c0 -6 -2.33301 -15.333 -7 -28l-346 -902c-8.66699 -22 -21 -33 -37 -33c-9.33301 0 -17.666 3.33301 -24.999 10s-11 15.334 -11 26.001z" />
    <glyph glyph-name="zero" unicode="0" 
d="M42 324l0.00195312 34.001c0 149.333 25 249.333 75 300c38.667 39.333 91 59 157 59c42 0 78 -8.16699 108 -24.5s52.667 -35.833 68 -58.5s27.5 -51.5 36.5 -86.5s14.333 -65.167 16 -90.5s2.5 -55.333 2.5 -90v-6c0 -3.33301 0.166992 -9.5 0.5 -18.5
s0.5 -16.5 0.5 -22.5c0 -37.333 -1.33301 -70.5 -4 -99.5s-8.83398 -59.5 -18.501 -91.5s-22.667 -58.333 -39 -79s-39 -37.834 -68 -51.501s-63.5 -20.5 -103.5 -20.5c-70.667 0 -124.334 20.667 -161.001 62c-46.667 51.333 -70 146 -70 284zM179.002 350.001
c0 -126 6.00293 -205 18.0029 -237c5.33301 -14.667 14.5 -28.834 27.5 -42.501s29.5 -20.5 49.5 -20.5s36.333 6.66699 49 20s21.667 27.333 27 42c12.667 34 19 112.667 19 236v7c0 75.333 -1.33301 129.5 -4 162.5s-8.33398 58.5 -17.001 76.5
c-16.667 33.333 -41.334 50 -74.001 50c-24 0 -43.667 -9 -59 -27c-16.667 -18 -26.834 -44.167 -30.501 -78.5s-5.5 -97.166 -5.5 -188.499z" />
    <glyph glyph-name="one" unicode="1" 
d="M77 611c0 14.667 6.00293 24.667 18.0029 30s26.5 7.83301 43.5 7.5s37.833 3.16699 62.5 10.5s46.667 19.666 66 36.999c11.333 10 19.166 16 23.499 18s12.5 3 24.5 3c27.333 0 41 -14.667 41 -44v-600h73c28.667 0 43 -12.333 43 -37c0 -24 -14.333 -36 -43 -36h-294
c-12 0 -21.5 2.5 -28.5 7.5s-11.167 9.83301 -12.5 14.5s-2 9.33398 -2 14.001s0.666992 9.33398 2 14.001s5.66602 9.66699 12.999 15s17 8 29 8h84v516c-42.667 -8.66699 -75.334 -13.334 -98.001 -14.001c-30 0 -45 12 -45 36z" />
    <glyph glyph-name="two" unicode="2" 
d="M46 568c0 2.66699 1.83203 8.66895 5.49902 18.002s10.5 21.666 20.5 36.999s22.333 29.833 37 43.5s35 25.5 61 35.5s55 15 87 15c70 0 126.833 -22.333 170.5 -67s65.5 -99.334 65.5 -164.001c0 -18.667 -2.83301 -36.834 -8.5 -54.501s-11.667 -32.667 -18 -45
s-18.166 -28 -35.499 -47s-31.5 -33.5 -42.5 -43.5l-59 -53l-64.5 -59l-82 -78h34l208 2h23c30 0 45 -15 45 -45v-18c0 -30 -15 -45 -45 -45h-348c-10.667 0 -19.334 1.33301 -26.001 4s-11.334 7 -14.001 13s-4.16699 10.333 -4.5 13s-0.833008 7.33398 -1.5 14.001v16
c0 8.66699 3 16.667 9 24c4 4.66699 49.333 53.334 136 146.001l23.5 24.5l25 26.5l23 25.5c11 12.333 18.667 21.666 23 27.999l19 26.5c8.33301 11.333 14.166 21.166 17.499 29.499l12 29c4.66699 11 7.83398 21.833 9.50098 32.5s2.5 21.667 2.5 33
c0 36 -9.66699 66.833 -29 92.5s-47 38.5 -83 38.5c-25.333 0 -46.5 -6.66699 -63.5 -20s-28.667 -28.166 -35 -44.499l-17.5 -44.5c-5.33301 -13.333 -10 -20 -14 -20c-2.66699 0 -5.5 1.16699 -8.5 3.5s-5.66699 4.83301 -8 7.5s-5.16602 6.33398 -8.49902 11.001
s-5.66602 7.66699 -6.99902 9c-4 4.66699 -8.33301 10 -13 16s-8 10.167 -10 12.5s-4 5.16602 -6 8.49902s-3.33301 5.83301 -4 7.5s-1 3.5 -1 5.5z" />
    <glyph glyph-name="three" unicode="3" 
d="M46 73l9.99805 58.999c1.33301 7.33301 4 12.666 8 15.999l5 1c4 0 13.833 -6.5 29.5 -19.5s37.667 -25.667 66 -38s60.166 -18.5 95.499 -18.5c18.667 0 34.667 3 48 9s23.333 13 30 21s11.834 18.667 15.501 32s5.83398 24.333 6.50098 33s1 19.667 1 33v7
c0 46.667 -8 80.167 -24 100.5s-45.333 30.5 -88 30.5h-42c-10 0 -16.667 1.33301 -20 4s-5 10 -5 22v27c0 3.33301 0.333008 6 1 8s1.83398 3.83301 3.50098 5.5s3.33398 2.83398 5.00098 3.50098s4.5 1.33398 8.5 2.00098s7.66699 1.16699 11 1.5
s8.33301 0.666016 15 0.999023s13 0.833008 19 1.5c27.333 2.66699 49.166 16.334 65.499 41.001s24.5 54.334 24.5 89.001c0 28 -5.16699 48.667 -15.5 62s-29.833 20 -58.5 20c-22.667 0 -43.667 -4.33301 -63 -13s-34 -18.167 -44 -28.5l-27 -28.5
c-8 -8.66699 -13.333 -13 -16 -13c-5.33301 0 -15 9.83301 -29 29.5s-21 32.167 -21 37.5c0 6 7.16699 16.833 21.5 32.5s38.333 31.834 72 48.501s70.834 25 111.501 25c34.667 0 65.167 -4.16699 91.5 -12.5s46.5 -18.5 60.5 -30.5s25.333 -26.333 34 -43
s14.167 -31.667 16.5 -45s3.5 -27.333 3.5 -42c0 -68.667 -35.667 -124.334 -107 -167.001c92 -26 138 -84.333 138 -175c0 -78 -21.833 -135 -65.5 -171s-100.834 -54 -171.501 -54c-72 0 -136.333 21 -193 63c-1.33301 1.33301 -3.5 3.16602 -6.5 5.49902l-6.5 5
c-1.33301 1 -3 2.33301 -5 4s-3.33301 3.16699 -4 4.5s-1.5 2.83301 -2.5 4.5s-1.66699 3.16699 -2 4.5s-0.5 3 -0.5 5z" />
    <glyph glyph-name="four" unicode="4" 
d="M30 196l0.00195312 32c0 13.333 4 27.333 12 42l214 394c5.33301 9.33301 11.666 17.333 18.999 24c8 4 17.333 6 28 6h80c29.333 0 44 -15.333 44 -46v-400h45c8.66699 0 15.667 -0.5 21 -1.5s10.833 -5.16699 16.5 -12.5s8.5 -18 8.5 -32
c0 -3.33301 -0.333008 -7.83301 -1 -13.5s-5 -13 -13 -22s-19 -13.5 -33 -13.5h-44v-109c0 -29.333 -15.333 -44 -46 -44h-33c-28.667 0 -43 14.667 -43 44v109h-226c-8.66699 0 -15.834 0.5 -21.501 1.5s-11.667 4.83301 -18 11.5s-9.5 16.667 -9.5 30zM134.002 248h176
v344c-9.33301 -27.333 -68 -142 -176 -344z" />
    <glyph glyph-name="five" unicode="5" 
d="M37 94c0 4 12.3311 25.3291 36.998 63.9961c6 8.66699 11 13 15 13s10.667 -7.66699 20 -23c4 -6.66699 9.16699 -13.5 15.5 -20.5s14.833 -15 25.5 -24s24.167 -16.333 40.5 -22s33.833 -8.5 52.5 -8.5c24.667 0 44.834 3.83301 60.501 11.5s26.667 19 33 34
s10.5 29.333 12.5 43s3 30.834 3 51.501v13c0 24 -0.5 42.5 -1.5 55.5s-3.5 28.333 -7.5 46s-11.167 30.5 -21.5 38.5s-23.833 12 -40.5 12c-40 0 -72 -18 -96 -54c-9.33301 -13.333 -16.666 -21.5 -21.999 -24.5s-15.333 -4.5 -30 -4.5c-14 0 -23.333 1 -28 3
s-10 6.33301 -16 13c-4.66699 7.33301 -7 19.333 -7 36v295c0 10 0.333008 17.833 1 23.5s4.5 11.834 11.5 18.501s17.5 10 31.5 10h287c29.333 0 44 -16.333 44 -49c0 -16 -2.66699 -28 -8 -36s-10.833 -12.5 -16.5 -13.5s-14.5 -1.5 -26.5 -1.5h-196v-156
c26 8.66699 51.333 13 76 13c27.333 0 52.5 -3.5 75.5 -10.5s45 -18.667 66 -35s37.333 -40.166 49 -71.499s17.5 -69 17.5 -113c0 -46.667 -7 -86.5 -21 -119.5s-33.333 -58.167 -58 -75.5s-50.667 -29.666 -78 -36.999s-57.666 -11 -90.999 -11
c-26 0 -50.667 3.5 -74 10.5s-43 15.5 -59 25.5s-29.833 20.667 -41.5 32s-20.334 21.333 -26.001 30s-8.5 14.667 -8.5 18z" />
    <glyph glyph-name="six" unicode="6" 
d="M45 336c0 66 5.99805 124.833 17.998 176.5s35.667 95.167 71 130.5c49.333 49.333 115.333 74 198 74c22 0 42.833 -3 62.5 -9s31.5 -12.333 35.5 -19c2 -3.33301 3 -9 3 -17v-46c0 -7.33301 -1.66699 -13 -5 -17l-4 -3l-5 -1c-3.33301 0.666992 -8.66602 3 -15.999 7
s-16.5 7.5 -27.5 10.5s-23.833 4.5 -38.5 4.5c-87.333 0 -137 -53.333 -149 -160c-2 -16 -3 -32.333 -3 -49c32.667 41.333 75 62 127 62c66.667 0 117.334 -25.333 152.001 -76c26 -38 39 -91.333 39 -160c0 -49.333 -4 -89.166 -12 -119.499s-24.667 -59.166 -50 -86.499
c-37.333 -40 -92 -60 -164 -60c-32 0 -60.5 5 -85.5 15s-45.5 22.333 -61.5 37s-29.667 33.667 -41 57s-19.833 44.5 -25.5 63.5s-10 42.167 -13 69.5s-4.66699 48.166 -5 62.499s-0.5 32.166 -0.5 53.499zM184.998 251c0 -24 1 -44.667 3 -62s5.83301 -35.666 11.5 -54.999
s15.167 -34.333 28.5 -45s30.333 -16 51 -16c10 0 19 0.833008 27 2.5s14.833 4.83398 20.5 9.50098l15 12.5c4.33301 3.66699 7.83301 9.83398 10.5 18.501s4.83398 15 6.50098 19s2.83398 12 3.50098 24s1.16699 19.833 1.5 23.5s0.5 12.334 0.5 26.001v24.5v31
c-0.666992 17.333 -1.16699 29.333 -1.5 36s-1.33301 17.167 -3 31.5s-4.16699 24.666 -7.5 30.999s-7.83301 13.666 -13.5 21.999s-13.334 14.166 -23.001 17.499s-20.834 5 -33.501 5c-34.667 0 -59.5 -15.833 -74.5 -47.5s-22.5 -67.834 -22.5 -108.501z" />
    <glyph glyph-name="seven" unicode="7" 
d="M45 632v19.002c0 29.333 15 44 45 44h76l221 -1h71c30 0 45 -15.333 45 -46c-0.666992 -18.667 -2.33398 -30.667 -5.00098 -36c-0.666992 -0.666992 -10.667 -13.334 -30 -38.001c-37.333 -48.667 -69.166 -100.167 -95.499 -154.5s-45 -104 -56 -149
s-19.167 -85 -24.5 -120s-8.5 -65.5 -9.5 -91.5s-1.5 -39.667 -1.5 -41c-4.66699 -19.333 -18.667 -29 -42 -29h-50c-30.667 0 -46 14.333 -46 43c2 211.333 73.667 396.666 215 555.999l-46 -1h-154l-57 -1h-12c-29.333 0 -44 15.333 -44 46z" />
    <glyph glyph-name="eight" unicode="8" 
d="M45 203c0 87.333 39.668 143.997 119.001 169.997c2.66699 1.33301 4.33398 2 5.00098 2c-72.667 21.333 -109 70 -109 146c0 70.667 19.167 120.834 57.5 150.501s85.166 44.5 140.499 44.5c14 0 25.5 -0.166992 34.5 -0.5s22.333 -1.66602 40 -3.99902
s32.5 -5.83301 44.5 -10.5s25.5 -11.667 40.5 -21s27.167 -20.666 36.5 -33.999s17.166 -30.5 23.499 -51.5s9.5 -44.833 9.5 -71.5c0 -74.667 -35 -123.667 -105 -147c-2 -0.666992 -3.33301 -1 -4 -1c83.333 -23.333 125 -80.333 125 -171
c0 -150.667 -76.333 -226 -229 -226s-229 75 -229 225zM182.001 188.997c0.666992 -39.333 6.66797 -68.5 18.001 -87.5s35.666 -28.5 72.999 -28.5c18 0 33.167 2.66699 45.5 8s21.5 11 27.5 17s10.5 15.833 13.5 29.5s4.83301 24.167 5.5 31.5s1 19.666 1 36.999v23
c0 38 -6 67.333 -18 88s-36.667 31 -74 31c-18 0 -33.167 -3 -45.5 -9s-21.5 -12.167 -27.5 -18.5s-10.5 -17 -13.5 -32s-4.66699 -25.167 -5 -30.5s-0.5 -16.666 -0.5 -33.999v-25zM188.002 510.997c0 -32.667 5.49902 -57.5 16.499 -74.5s33.833 -25.5 68.5 -25.5
c20 0 36.167 2.66699 48.5 8s21 13.5 26 24.5s8.16699 21.167 9.5 30.5s2 22 2 38v18c0 35.333 -5.83301 60.333 -17.5 75s-34.167 22 -67.5 22c-20 0 -36 -2.16699 -48 -6.5s-20.667 -11.833 -26 -22.5s-8.66602 -20.5 -9.99902 -29.5s-2 -22.167 -2 -39.5v-18z" />
    <glyph glyph-name="nine" unicode="9" 
d="M45 456c0 49.333 4.66406 89.501 13.9971 120.501s28 59.833 56 86.5c37.333 36 91 54 161 54c85.333 0 146.333 -35.667 183 -107c13.333 -25.333 23.333 -54.333 30 -87s10.667 -60.834 12 -84.501s2 -53.834 2 -90.501c0 -151.333 -34.333 -255.666 -103 -312.999
c-45.333 -38 -102.666 -57 -171.999 -57c-51.333 0 -97.333 15 -138 45c-6 5.33301 -9 10.666 -9 15.999c0 4.66699 9.66699 23.667 29 57c6.66699 10 12.334 15 17.001 15c2 0 12.833 -6.33301 32.5 -19s42.167 -19 67.5 -19c29.333 0 53.833 6.83301 73.5 20.5
s33.334 32 41.001 55s13 43.5 16 61.5s4.83301 37.333 5.5 58v8c-36 -41.333 -77.667 -62 -125 -62c-71.333 0 -124.333 28 -159 84c-22.667 36.667 -34 89.334 -34 158.001zM183.997 457.001c0 -50 1.33301 -83.833 4 -101.5s10.334 -34.5 23.001 -50.5
c15.333 -12 33.666 -18 54.999 -18c34.667 0 59.5 16.167 74.5 48.5s22.5 69.833 22.5 112.5c0 119.333 -29 179 -87 179c-17.333 0 -32 -2.83301 -44 -8.5s-21.167 -12.334 -27.5 -20.001s-11 -19.167 -14 -34.5s-4.83301 -28.666 -5.5 -39.999s-1 -27.333 -1 -48v-19z" />
    <glyph glyph-name="colon" unicode=":" horiz-adv-x="305" 
d="M86 23v79.9961c0.666992 6.66699 1 10.834 1 12.501s0.666992 4.33398 2 8.00098s3.5 5.83398 6.5 6.50098s7.16699 1 12.5 1h87c9.33301 0 15.333 -1.66699 18 -5s4 -8.66602 4 -15.999v-82v-12c0 -2 -0.666992 -4.66699 -2 -8s-3.5 -5.5 -6.5 -6.5
s-7.16699 -1.5 -12.5 -1.5h-87c-15.333 0 -23 7.66699 -23 23zM86 361.996v68c0.666992 14.667 3 23 7 25c2.66699 2 7.66699 3 15 3h87c9.33301 0 15.333 -1.83301 18 -5.5s4 -9.16699 4 -16.5v-81v-12c0 -2 -0.666992 -4.66699 -2 -8s-3.5 -5.5 -6.5 -6.5
s-7.16699 -1.5 -12.5 -1.5h-85c-12.667 0 -20 1.83301 -22 5.5s-3 13.5 -3 29.5z" />
    <glyph glyph-name="semicolon" unicode=";" horiz-adv-x="305" 
d="M86 22l0.000976562 76c0 13.333 1.16699 22.166 3.5 26.499s8.16602 6.5 17.499 6.5h88c9.33301 0 15.333 -1.5 18 -4.5s4 -8.83301 4 -17.5v-86c0 -8.66699 -2.16699 -17 -6.5 -25s-21.166 -35.333 -50.499 -82c-3.33301 -5.33301 -5.66602 -8.83301 -6.99902 -10.5
s-3.33301 -3.66699 -6 -6s-5.33398 -3.66602 -8.00098 -3.99902s-6.33398 -0.5 -11.001 -0.5h-20c-13.333 0 -20 4.33301 -20 13c0 3.33301 10.667 34 32 92h-12c-7.33301 -0 -12.833 1.33301 -16.5 4s-5.5 8.66699 -5.5 18zM86.001 362v68c0.666992 14.667 3 23 7 25
c2.66699 2 7.66699 3 15 3h87c9.33301 0 15.333 -1.83301 18 -5.5s4 -9.16699 4 -16.5v-81v-12c0 -2 -0.666992 -4.66699 -2 -8s-3.5 -5.5 -6.5 -6.5s-7.16699 -1.5 -12.5 -1.5h-85c-12.667 0 -20 1.83301 -22 5.5s-3 13.5 -3 29.5z" />
    <glyph glyph-name="less" unicode="&#x3c;" horiz-adv-x="855" 
d="M91 249c1.33301 9.33301 3.99707 16.665 7.99707 21.998s13.667 12 29 20l572 302c10.667 5.33301 19.334 8 26.001 8c10 0 18.5 -3.66699 25.5 -11s10.5 -15.666 10.5 -24.999c0 -3.33301 -0.333008 -6.5 -1 -9.5s-2 -5.66699 -4 -8s-3.66699 -4.5 -5 -6.5
s-3.5 -4 -6.5 -6s-5.16699 -3.33301 -6.5 -4s-3.5 -2 -6.5 -4s-4.83301 -3 -5.5 -3l-522 -274l521 -274c0.666992 0 2.66699 -0.833008 6 -2.5s5.83301 -3.16699 7.5 -4.5s4.16699 -3.16602 7.5 -5.49902s6 -4.83301 8 -7.5s3.66699 -5.83398 5 -9.50098s2 -7.5 2 -11.5
c0 -9.33301 -3.66699 -17.666 -11 -24.999s-15.666 -11 -24.999 -11c-6.66699 0 -15.334 2.66699 -26.001 8l-571 301c-15.333 8 -25.166 14.333 -29.499 19s-7.16602 12 -8.49902 22z" />
    <glyph glyph-name="equal" unicode="=" horiz-adv-x="855" 
d="M61 135c0 24.667 14.666 37.001 43.999 37.001h643c29.333 0 44 -12.333 44 -37c0 -4.66699 -0.666992 -9.33398 -2 -14.001s-5.66602 -9.5 -12.999 -14.5s-17 -7.5 -29 -7.5h-643c-29.333 0 -44 12 -44 36zM60.999 364.001c0 4.66699 0.667969 9.33301 2.00098 14
s5.66602 9.66699 12.999 15s17 8 29 8h643c17.333 0 29 -4 35 -12s9 -16 9 -24c0 -24.667 -15.333 -37 -46 -37h-640c-30 0 -45 12 -45 36z" />
    <glyph glyph-name="greater" unicode="&#x3e;" horiz-adv-x="855" 
d="M91 565c0 9.33301 3.50293 17.668 10.5029 25.001s15.5 11 25.5 11h1c6 0 14.333 -2.66699 25 -8l571 -301c15.333 -8 25.166 -14.333 29.499 -19s7.16602 -12 8.49902 -22c-1.33301 -10 -3.83301 -17.5 -7.5 -22.5s-13.167 -11.5 -28.5 -19.5l-573 -302
c-10.667 -5.33301 -19.334 -8 -26.001 -8c-10 0 -18.333 3.66699 -25 11s-10 15.666 -10 24.999c0 3.33301 0.333008 6.5 1 9.5s2 5.66699 4 8s3.66699 4.5 5 6.5s3.5 4 6.5 6s5.16699 3.33301 6.5 4s3.5 2 6.5 4s4.83301 3 5.5 3l521 274l-521 274
c-0.666992 0 -2.66699 0.833008 -6 2.5s-5.83301 3.16699 -7.5 4.5s-4.16699 3.16602 -7.5 5.49902s-6 4.83301 -8 7.5s-3.66699 5.83398 -5 9.50098s-2 7.5 -2 11.5z" />
    <glyph glyph-name="question" unicode="?" horiz-adv-x="519" 
d="M61 668l2 4.99902c10 12.667 32.333 25.834 67 39.501s73.667 20.5 117 20.5c64.667 0 115.834 -11.5 153.501 -34.5s56.5 -63.833 56.5 -122.5c0 -47.333 -13.667 -84.666 -41 -111.999l-12 -10c-8.66699 -6.66699 -14.334 -11.167 -17.001 -13.5l-16.5 -15
c-8.33301 -7.66699 -14.5 -14.334 -18.5 -20.001l-16.5 -22.5c-7 -9.33301 -12.333 -18.333 -16 -27s-7.66699 -18.667 -12 -30s-7.33301 -23.333 -9 -36s-2.5 -26 -2.5 -40v-25c0 -11.333 -1.5 -19 -4.5 -23s-8.83301 -6 -17.5 -6h-46
c-20 0.666992 -31 2.33398 -33 5.00098c-2.66699 3.33301 -4 12 -4 26v20c0 86 32.333 167.667 97 245c1.33301 1.33301 3.83301 4.16602 7.5 8.49902s6 7 7 8s2.83301 3.5 5.5 7.5s4.33398 7 5.00098 9l3 9c1.33301 4 2.33301 8 3 12s1.16699 8.66699 1.5 14
s0.5 11.333 0.5 18c0 30.667 -4.83301 52 -14.5 64s-29.834 18 -60.501 18c-22.667 0 -43.5 -3.83301 -62.5 -11.5s-33.333 -16.167 -43 -25.5l-26 -25.5c-7.66699 -7.66699 -13.167 -11.5 -16.5 -11.5c-6.66699 0 -14.5 12.5 -23.5 37.5s-13.5 39.833 -13.5 44.5z
M177 45.999c0 1.33301 0.168945 3.00098 0.501953 5.00098s0.5 3.66699 0.5 5v28c0 9.33301 0.5 16.666 1.5 21.999s5.16699 10.833 12.5 16.5s18 8.5 32 8.5h44c27.333 0 41 -15.333 41 -46v-38c0 -6 -0.333008 -11 -1 -15s-2.33398 -8.83301 -5.00098 -14.5
s-7.33398 -10 -14.001 -13s-15.667 -4.5 -27 -4.5h-37c-9.33301 0 -17 0.833008 -23 2.5s-11.667 6 -17 13s-8 17.167 -8 30.5z" />
    <glyph glyph-name="at" unicode="@" horiz-adv-x="733" 
d="M60 356c0 138 36.6709 238.006 110.004 300.006c60 51.333 144.333 77 253 77c85.333 0 147.333 -24.333 186 -73c41.333 -52.667 62 -141.334 62 -266.001v-21c0 -22.667 -0.833008 -42.834 -2.5 -60.501s-6.5 -39.167 -14.5 -64.5s-19.167 -46.333 -33.5 -63
s-35.5 -31.167 -63.5 -43.5s-61.333 -18.5 -100 -18.5c-28.667 0 -54.834 3.66699 -78.501 11s-46 19.333 -67 36s-37.5 41.167 -49.5 73.5s-18 71.166 -18 116.499c0 159.333 71.333 239 214 239c21.333 0 43.666 -2.66699 66.999 -8c-19.333 46.667 -54 70 -104 70
c-22 0 -42.833 -2 -62.5 -6s-40.834 -12.167 -63.501 -24.5s-42.167 -28.833 -58.5 -49.5s-29.833 -49.5 -40.5 -86.5s-16 -80.167 -16 -129.5c0 -20.667 0.333008 -36.334 1 -47.001c1.33301 -24.667 4.16602 -48 8.49902 -70s12.333 -44.833 24 -68.5
s26.167 -43.834 43.5 -60.501s40.5 -30.334 69.5 -41.001s62.167 -16 99.5 -16c29.333 0 55.5 3 78.5 9s42.5 12.667 58.5 20s27.667 11.666 35 12.999h53c12 0 18 -3.66699 18 -11c0 -5.33301 -4.33301 -12 -13 -20c-65.333 -56 -143.333 -84 -234 -84
c-37.333 0 -72.5 3.16699 -105.5 9.5s-65.5 18 -97.5 35s-59.5 39 -82.5 66s-41.5 62.333 -55.5 106s-21 93.834 -21 150.501zM364.004 352.006c0 -104 31 -156 93 -156c62.667 0 94 58 94 174c-2.66699 104 -33.667 156 -93 156c-62.667 0 -94 -54.333 -94 -163v-11z" />
    <glyph glyph-name="A" unicode="A" horiz-adv-x="733" 
d="M42 27c0 4.66699 1.33496 10.998 4.00195 18.998l212 602c5.33301 15.333 12.333 26.833 21 34.5s22.667 11.5 42 11.5h90c12 0 22 -1.33301 30 -4s14.667 -8.16699 20 -16.5s8.66602 -14 9.99902 -17s4 -10.5 8 -22.5l207 -590c2.66699 -8 4 -13.667 4 -17
c0 -18 -12.333 -27 -37 -27h-53c-6 0 -11.333 0.166992 -16 0.5s-9.16699 1.66602 -13.5 3.99902s-7.83301 4.33301 -10.5 6s-5.66699 5.33398 -9 11.001l-8 14c-2 3.66699 -4.83301 10.334 -8.5 20.001s-6.66699 18 -9 25l-11 32l-13.5 38.5h-285
c-4.66699 -12 -9.5 -25.833 -14.5 -41.5s-8.83301 -27.167 -11.5 -34.5l-9.5 -25.5c-3.66699 -9.66699 -6.83398 -16.5 -9.50098 -20.5s-5.83398 -8.5 -9.50098 -13.5s-7.5 -8.16699 -11.5 -9.5s-8.66699 -2.66602 -14 -3.99902s-11.666 -2 -18.999 -2h-37
c-25.333 0 -38 9 -38 27zM246.002 236.998l225.001 -0.000976562c-68 194.667 -105.333 305.334 -112 332.001c-6.66699 -24 -44.334 -134.667 -113.001 -332z" />
    <glyph glyph-name="B" unicode="B" horiz-adv-x="733" 
d="M91 46l0.00195312 602.002c0 9.33301 0.833008 16.833 2.5 22.5s6.16699 11 13.5 16s17.666 7.5 30.999 7.5h213c33.333 0 60.333 -0.666992 81 -2s47.167 -6.5 79.5 -15.5s58.166 -22.5 77.499 -40.5c34.667 -32 52 -72.667 52 -122
c0 -12.667 -1.33301 -24.834 -4 -36.501s-6.66699 -21.834 -12 -30.501s-10.833 -16.667 -16.5 -24s-12.834 -13.833 -21.501 -19.5l-22.5 -14.5c-6.33301 -4 -14 -7.66699 -23 -11s-15.667 -5.66602 -20 -6.99902s-10.166 -3 -17.499 -5l-11 -3
c54 -6.66699 97.167 -24.5 129.5 -53.5s48.5 -68.167 48.5 -117.5c0 -74.667 -32 -128.334 -96 -161.001c-40.667 -20.667 -104.667 -31 -192 -31h-245c-18 -0 -30.333 3.83301 -37 11.5s-10 19.167 -10 34.5zM228.002 86.002l135 0.000976562c75.333 0 126 15 152 45
c15.333 18 23 40 23 66c0 14.667 -2.16699 28.334 -6.5 41.001s-11.833 25.667 -22.5 39s-27.167 24.166 -49.5 32.499s-49.5 13.166 -81.5 14.499h-150v-238zM228.002 397.003h94.001c40.667 0 72 2.33301 94 7s43.667 15.667 65 33c19.333 23.333 29 48 29 74
c0 38.667 -20.333 66 -61 82c-26.667 10 -65.334 15 -116.001 15h-105v-211z" />
    <glyph glyph-name="C" unicode="C" horiz-adv-x="703" 
d="M60 347c0 246.667 123.002 370.002 369.002 370.002c54 0 113.333 -9.66699 178 -29c11.333 -4 19 -8 23 -12c2 -4 3 -7.33301 3 -10s-5 -31.334 -15 -86.001c-4 -19.333 -9 -29 -15 -29c-3.33301 0 -9.83301 3.33301 -19.5 10l-32 22.5
c-11.667 8.33301 -28.667 15.833 -51 22.5s-46.5 10 -72.5 10c-150.667 0 -226 -89.333 -226 -268c0 -39.333 3.5 -74.333 10.5 -105s18.667 -58.834 35 -84.501s40 -45.5 71 -59.5s68.833 -21 113.5 -21c32.667 0 61.5 3.33301 86.5 10s43 14 54 22l30.5 22
c9.33301 6.66699 17 10 23 10c1.33301 0 2.5 -0.166992 3.5 -0.5s2 -1 3 -2s1.66699 -2 2 -3l1.5 -4.5c0.666992 -2 1.16699 -3.83301 1.5 -5.5s0.666016 -3.83398 0.999023 -6.50098s0.666016 -5 0.999023 -7s0.666016 -4.83301 0.999023 -8.5s0.5 -6.5 0.5 -8.5
c0.666992 -8 1.33398 -15.167 2.00098 -21.5s1.16699 -10.666 1.5 -12.999s0.5 -4.33301 0.5 -6v-4.5c0 -3.33301 -0.333008 -6 -1 -8s-2.16699 -4.16699 -4.5 -6.5l-4.5 -4.5c-0.666992 -0.666992 -3 -2 -7 -4l-7 -4c-32.667 -18.667 -62.5 -31.167 -89.5 -37.5
s-61.833 -9.5 -104.5 -9.5c-244.667 0 -367 123.333 -367 370z" />
    <glyph glyph-name="D" unicode="D" horiz-adv-x="794" 
d="M91 45l0.000976562 601.002c0 32 14 48 42 48h240c39.333 0 74.5 -2.33301 105.5 -7s63 -14.334 96 -29.001s60.5 -34.5 82.5 -59.5s40 -59.333 54 -103s21 -95.167 21 -154.5c0 -62 -8.66699 -115.333 -26 -160s-37.833 -78.334 -61.5 -101.001
s-53.334 -40.5 -89.001 -53.5s-65.5 -20.667 -89.5 -23s-51.333 -3.5 -82 -3.5h-247c-14.667 0 -26 3 -34 9s-12 18 -12 36zM230.001 86.002h111.003c32.667 0 59.667 1.16699 81 3.5s45.166 9.83301 71.499 22.5s47.5 30.667 63.5 54
c22.667 34.667 34.667 86.334 36 155.001v11c0 32 -0.833008 58 -2.5 78s-6.33398 43.5 -14.001 70.5s-18.834 48.5 -33.501 64.5s-36.167 30.167 -64.5 42.5s-62.5 19.166 -102.5 20.499h-145l-1 -29v-493z" />
    <glyph glyph-name="E" unicode="E" horiz-adv-x="642" 
d="M91 47l-0.000976562 596.999c0 18 3.83301 30.333 11.5 37s19.167 10 34.5 10h398c13.333 0 23.5 -2.66699 30.5 -8s11.167 -10.666 12.5 -15.999s2 -12.333 2 -21v-16c0 -29.333 -14 -44 -42 -44c-8.66699 0 -20 0.166992 -34 0.5s-45.667 0.833008 -95 1.5
s-108 1.33398 -176 2.00098v-185h265c8 0 14.333 -0.333008 19 -1s9.83398 -2.33398 15.501 -5.00098s10 -7.5 13 -14.5s4.5 -16.167 4.5 -27.5c0 -31.333 -15 -47 -45 -47h-272v-203l320 4c28 -0.666992 42 -16 42 -46v-21c0 -29.333 -15 -44 -45 -44h-413
c-14 0 -24.667 3 -32 9s-11.5 11.667 -12.5 17s-1.5 12.333 -1.5 21z" />
    <glyph glyph-name="F" unicode="F" horiz-adv-x="611" 
d="M91 46l-0.00195312 603.001c0 28 15 42 45 42h383c18 0 30 -3.83301 36 -11.5s9 -18.834 9 -33.501v-15c0 -30 -15 -45 -45 -45c-2 0 -20 0.333008 -54 1s-74.333 1.33398 -121 2.00098s-83.667 1 -111 1v-197h241c29.333 0 44 -15.333 44 -46
c0 -14.667 -2.66699 -25.834 -8 -33.501s-10.666 -12.167 -15.999 -13.5s-12.666 -2 -21.999 -2h-239v-254c0 -29.333 -14.667 -44 -44 -44h-52c-18.667 0 -31 4.16699 -37 12.5s-9 19.5 -9 33.5z" />
    <glyph glyph-name="G" unicode="G" horiz-adv-x="733" 
d="M60 348c0 246 121.997 369.001 365.997 369.001c72.667 0 139 -14 199 -42c15.333 -6.66699 23 -13.667 23 -21c0 -4 -4.66699 -33 -14 -87c-3.33301 -15.333 -7.33301 -25 -12 -29l-5 -1c-4.66699 1.33301 -12.167 6.33301 -22.5 15l-33 27
c-11.667 9.33301 -29.667 17.833 -54 25.5s-51.5 11.5 -81.5 11.5c-37.333 0 -70 -5.66699 -98 -17s-49.833 -25.5 -65.5 -42.5s-28.167 -38.167 -37.5 -63.5s-15.5 -49.5 -18.5 -72.5s-4.5 -48.5 -4.5 -76.5c0 -177.333 75.333 -266 226 -266
c21.333 0 52.666 3.66699 93.999 11v139h-74c-7.33301 0 -12.666 1.33301 -15.999 4s-5.33301 8.66699 -6 18v50c0 7.33301 1.16699 12.666 3.5 15.999s5 5.33301 8 6s7.5 1 13.5 1h188c7.33301 -0.666992 12.5 -2.33398 15.5 -5.00098s4.5 -8 4.5 -16v-253
c0 -11.333 -5 -19.666 -15 -24.999c-68 -30.667 -141.333 -46 -220 -46c-39.333 0 -75.666 3.33301 -108.999 10s-66.166 18.5 -98.499 35.5s-59.666 39 -81.999 66s-40.333 62.5 -54 106.5s-20.5 94.667 -20.5 152z" />
    <glyph glyph-name="H" unicode="H" horiz-adv-x="794" 
d="M91 39.5l-0.000976562 14.498v593c0 31.333 15.667 47 47 47h51c29.333 0 44 -15 44 -45v-241h327v242c0 29.333 14.667 44 44 44h52c10.667 0 19.5 -1.5 26.5 -4.5s11.667 -7.66699 14 -14s3.83301 -11.166 4.5 -14.499s1 -8 1 -14v-593v-3
c0 -7.33301 -0.333008 -13.166 -1 -17.499s-2.16699 -9.5 -4.5 -15.5s-6.66602 -10.5 -12.999 -13.5s-14.833 -4.5 -25.5 -4.5h-51c-31.333 0 -47 14.667 -47 44v269h-327v-269c0 -29.333 -15.333 -44 -46 -44h-51c-9.33301 0 -17 1.5 -23 4.5s-10.5 5.66699 -13.5 8
s-5.16699 7 -6.5 14s-2 11.333 -2 13z" />
    <glyph glyph-name="I" unicode="I" horiz-adv-x="325" 
d="M91 46v601.001c0 31.333 14 47 42 47h54c30.667 0 46 -15 46 -45v-601c0 -12.667 -1 -21.334 -3 -26.001c-1.33301 -3.33301 -3.33301 -6.5 -6 -9.5s-5 -5.16699 -7 -6.5s-4.66699 -2.5 -8 -3.5s-5.83301 -1.5 -7.5 -1.5s-4.16699 -0.166992 -7.5 -0.5
s-5.33301 -0.5 -6 -0.5h-51c-14.667 0 -26 3.16699 -34 9.5s-12 18.5 -12 36.5z" />
    <glyph glyph-name="J" unicode="J" horiz-adv-x="519" 
d="M47 36c0 14.667 5.00391 45.3301 15.0039 91.9971c2.66699 7.33301 6.33398 11 11.001 11c4 0 9.16699 -3.16699 15.5 -9.5l21 -21c7.66699 -7.66699 19.167 -14.667 34.5 -21s32.666 -9.5 51.999 -9.5c61.333 0 92 25.333 92 76v494
c0 4.66699 0.333008 8.83398 1 12.501s1.5 7 2.5 10s2.33301 5.66699 4 8s3.16699 4.16602 4.5 5.49902s3.16602 2.66602 5.49902 3.99902s4.16602 2.33301 5.49902 3s3.5 1.16699 6.5 1.5s5 0.5 6 0.5s3.16699 0.333008 6.5 1h4h46c18 0 30.333 -3.66699 37 -11
s10 -19.333 10 -36v-493c0 -33.333 -5.83301 -62.166 -17.5 -86.499s-27.334 -42.666 -47.001 -54.999s-40 -21.166 -61 -26.499s-43.167 -8 -66.5 -8c-36 0 -73.333 5.16699 -112 15.5s-63.334 20.833 -74.001 31.5c-1.33301 2.66699 -2 6.33398 -2 11.001z" />
    <glyph glyph-name="K" unicode="K" horiz-adv-x="764" 
d="M91 49l-0.00195312 597.001c0 32 15 48 45 48h35c29.333 0 44.333 -14 45 -42v-285l332 311c13.333 10.667 30.333 16 51 16h67c19.333 0 29 -6.66699 29 -20c0 -2.66699 -0.333008 -5.16699 -1 -7.5s-2.16699 -4.83301 -4.5 -7.5s-4.16602 -4.66699 -5.49902 -6
s-4 -3.83301 -8 -7.5s-6.33301 -5.83398 -7 -6.50098l-250 -235v-1l271 -357c6.66699 -9.33301 10.334 -16.333 11.001 -21c-1.33301 -16.667 -12.333 -25 -33 -25h-59c-14 0 -24.167 2 -30.5 6s-13.833 11.333 -22.5 22l-223 295l-117 -109v-167
c0 -8.66699 -0.333008 -15.5 -1 -20.5s-4.66699 -10.667 -12 -17s-18 -9.5 -32 -9.5h-36c-10.667 0 -19.334 1.66699 -26.001 5s-11.167 8.33301 -13.5 15s-3.66602 11.5 -3.99902 14.5s-0.5 7.83301 -0.5 14.5z" />
    <glyph glyph-name="L" unicode="L" horiz-adv-x="580" 
d="M91 47l-0.00195312 599.999c0 16 3.33301 27.833 10 35.5s18.667 11.5 36 11.5h52c29.333 0 44 -14.333 44 -43v-550c25.333 0 58.833 0.5 100.5 1.5s77.834 1.83301 108.501 2.5s46.667 1 48 1c29.333 0 44 -15.333 44 -46v-11c0 -9.33301 -0.666992 -17.166 -2 -23.499
s-5.66602 -12.166 -12.999 -17.499s-18 -8 -32 -8h-350c-9.33301 0 -16.833 0.833008 -22.5 2.5s-11 6.16699 -16 13.5s-7.5 17.666 -7.5 30.999z" />
    <glyph glyph-name="M" unicode="M" horiz-adv-x="978" 
d="M91 55l-0.00390625 594.997c0 29.333 15 44 45 44h82c27.333 0 47 -9.33301 59 -28c5.33301 -8.66699 39.333 -90.167 102 -244.5s98.334 -245.5 107.001 -273.5c6.66699 24 72.334 188.667 197.001 494c5.33301 12 9.5 20.667 12.5 26s9.33301 11 19 17s22.167 9 37.5 9
h89c30 0 45 -15.333 45 -46v-600c0 -15.333 -3 -27.166 -9 -35.499s-18.333 -12.5 -37 -12.5h-32c-11.333 0 -20.333 1.5 -27 4.5s-11.167 7.83301 -13.5 14.5s-3.66602 11.834 -3.99902 15.501s-0.5 9.5 -0.5 17.5v489c0 3.33301 -0.166992 8 -0.5 14s-0.5 10.667 -0.5 14
c-6.66699 -30.667 -71.667 -195.334 -195 -494.001c-9.33301 -22.667 -19 -37.167 -29 -43.5s-23.667 -9.5 -41 -9.5h-20c-8.66699 0 -16 0.5 -22 1.5s-11.667 3.33301 -17 7s-9.5 6.83398 -12.5 9.50098s-6.66699 8.66699 -11 18l-10.5 23c-2.66699 6 -7 16.833 -13 32.5
s-11.333 28.834 -16 39.501l-104 257c-33.333 87.333 -52.333 140.333 -57 159v-523c0 -30.667 -15 -46 -45 -46h-33c-11.333 0 -20.333 1.5 -27 4.5s-11.167 7.83301 -13.5 14.5s-3.66602 12 -3.99902 16s-0.5 10.667 -0.5 20z" />
    <glyph glyph-name="N" unicode="N" horiz-adv-x="794" 
d="M91 46l-0.00195312 603.001c0 30 15.333 45 46 45h92c21.333 0 37 -4 47 -12s19.667 -21 29 -39l274 -525v530c0 8.66699 0.5 15.667 1.5 21s5.16699 10.833 12.5 16.5s18 8.5 32 8.5h33c29.333 0 44 -15 44 -45v-604c0 -30 -15.333 -45 -46 -45h-91
c-21.333 0 -37.166 4.16699 -47.499 12.5s-20.166 21.166 -29.499 38.499l-274 525v-530c0 -30.667 -15.333 -46 -46 -46h-33c-29.333 -0 -44 15.333 -44 46z" />
    <glyph glyph-name="O" unicode="O" horiz-adv-x="794" 
d="M60 343c0 249.333 111.667 374 335 374c224.667 0 337 -124.667 337 -374c0 -243.333 -111.667 -365 -335 -365c-224.667 0 -337 121.667 -337 365zM202 345c0 -16.667 0.166992 -30.9961 0.5 -42.9961s1.83301 -28.667 4.5 -50s6.33398 -39.833 11.001 -55.5
s11.834 -32.667 21.501 -51s21.167 -33.333 34.5 -45s30.5 -21.5 51.5 -29.5s44.833 -12 71.5 -12c52.667 0 95.334 16.333 128.001 49c15.333 15.333 27.666 33.666 36.999 54.999s15.833 45.166 19.5 71.499s6 48.166 7 65.499s1.5 39.333 1.5 66v7
c0 16 -0.166992 29.667 -0.5 41s-1.83301 27.166 -4.5 47.499s-6.33398 37.5 -11.001 51.5s-11.834 29.5 -21.501 46.5s-21.167 30.833 -34.5 41.5s-30.5 19.667 -51.5 27s-44.5 11 -70.5 11c-54 0 -97.667 -16 -131 -48c-19.333 -18.667 -34 -43.667 -44 -75
s-15.667 -57.5 -17 -78.5s-2 -49.167 -2 -84.5v-8z" />
    <glyph glyph-name="P" unicode="P" horiz-adv-x="703" 
d="M91 46l0.00390625 597.001c0 10 0.5 17.833 1.5 23.5s5.16699 11.667 12.5 18s18 9.5 32 9.5h208c28 0 49.5 -0.333008 64.5 -1s34.833 -2.66699 59.5 -6s46.334 -9.66602 65.001 -18.999s35.667 -21.333 51 -36c37.333 -36.667 56 -87.667 56 -153
c0 -28.667 -3.83301 -54.5 -11.5 -77.5s-16.834 -41.833 -27.501 -56.5s-25 -27.167 -43 -37.5s-34.333 -18 -49 -23s-32.834 -8.83301 -54.501 -11.5s-38.334 -4.16699 -50.001 -4.5s-26.834 -0.5 -45.501 -0.5h-127v-222c0 -30.667 -15 -46 -45 -46h-51
c-8.66699 0 -15.834 0.666992 -21.501 2s-11.167 5.66602 -16.5 12.999s-8 17.666 -8 30.999zM230.004 347.001l134.002 -0.00195312c26.667 0 49.5 3.16699 68.5 9.5s33.333 13.5 43 21.5s17 19.167 22 33.5s7.83301 26 8.5 35s1 21.167 1 36.5
c-0.666992 27.333 -4.83398 49.833 -12.501 67.5s-19.334 30.334 -35.001 38.001s-31.5 12.834 -47.5 15.501s-36.333 4 -61 4h-120l-1 -37v-224z" />
    <glyph glyph-name="Q" unicode="Q" horiz-adv-x="794" 
d="M60 342c0 250 113.335 374.999 340.002 374.999c31.333 0 60.833 -2.5 88.5 -7.5s56.167 -15 85.5 -30s54.833 -34.5 76.5 -58.5s39.834 -56.5 54.501 -97.5s23.334 -88.5 26.001 -142.5l1 -45v-12.5c0 -7.66699 -0.166992 -14.834 -0.5 -21.501s-1 -16 -2 -28
s-2.33301 -23.167 -4 -33.5s-4.33398 -22.5 -8.00098 -36.5s-7.66699 -27 -12 -39s-9.83301 -24.833 -16.5 -38.5s-14.334 -26 -23.001 -37s-18.834 -22.167 -30.501 -33.5s-24.167 -21 -37.5 -29l30.5 -40.5c9.66699 -13 17.167 -22.5 22.5 -28.5l14.5 -17
c4.33301 -5.33301 7.16602 -9.66602 8.49902 -12.999s2 -6.66602 2 -9.99902c0 -15.333 -10.333 -23 -31 -23h-80h-11c-2.66699 0 -5.66699 0.666992 -9 2s-6 2.33301 -8 3s-4.5 2.5 -7.5 5.5s-5.33301 5.5 -7 7.5s-4.66699 5.83301 -9 11.5s-7.83301 10.667 -10.5 15
s-7.16699 10.833 -13.5 19.5s-11.833 16.667 -16.5 24c-31.333 -3.33301 -57 -5 -77 -5c-224 0 -336 121.333 -336 364zM199.002 337.999c0 -121.333 24.667 -202.333 74 -243c30 -26 70.667 -39 122 -39c11.333 0 20 0.333008 26 1l-61 88l-11 17l-3 9
c3.33301 10 7.5 16.333 12.5 19s12.833 4 23.5 4h63c10.667 0 19 -2.5 25 -7.5s20 -21.833 42 -50.5l21 -27c40 44.667 60 117.334 60 218.001v13c0 25.333 -0.5 46.833 -1.5 64.5s-3.83301 40.5 -8.5 68.5s-13.167 53.167 -25.5 75.5s-27.833 40.5 -46.5 54.5
c-32.667 24 -71 36 -115 36c-50 0 -92 -15 -126 -45c-16.667 -14.667 -30.167 -32.667 -40.5 -54s-17.5 -45 -21.5 -71s-6.5 -47.333 -7.5 -64s-1.5 -37.334 -1.5 -62.001v-5z" />
    <glyph glyph-name="R" unicode="R" horiz-adv-x="703" 
d="M91 47l-0.000976562 601c0 30.667 15.333 46 46 46h243c89.333 -1.33301 155.333 -19.333 198 -54c42 -34 63 -81.667 63 -143c0 -91.333 -51.667 -150 -155 -176c-2 -0.666992 -3.66699 -1 -5 -1l164 -277c4 -8 6.33301 -14.333 7 -19c-2 -16 -13.333 -24 -34 -24h-57
c-14 -0 -24 1.83301 -30 5.5s-12 11.167 -18 22.5c-102.667 177.333 -157 271.666 -163 282.999h-120v-267c0 -5.33301 -0.333008 -9.66602 -1 -12.999s-2.16699 -7.83301 -4.5 -13.5s-7.16602 -10 -14.499 -13s-16.333 -4.5 -27 -4.5h-48c-29.333 0 -44 15.667 -44 47z
M229.999 383h126.001c50.667 0 88.5 7.33301 113.5 22s37.5 44.667 37.5 90s-12.333 75.5 -37 90.5s-62.334 22.5 -113.001 22.5h-126l-1 -34v-191z" />
    <glyph glyph-name="S" unicode="S" horiz-adv-x="611" 
d="M49 63c0 5.33301 4.66895 33.3301 14.002 83.9971c3.33301 20 8.66602 30 15.999 30c4 0 12 -4.66699 24 -14l40 -31.5c14.667 -11.667 37 -22.167 67 -31.5s63 -14 99 -14c76 0 114 32.667 114 98c0 39.333 -20 68.333 -60 87c-7.33301 3.33301 -14.666 6 -21.999 8
s-21.666 5.33301 -42.999 10s-43.666 10 -66.999 16c-42.667 10.667 -81.834 33.5 -117.501 68.5s-53.5 80.167 -53.5 135.5c0 24 2.83301 46.333 8.5 67s16.334 42.5 32.001 65.5s41 41.333 76 55s78.167 20.5 129.5 20.5c34 0 67.5 -4.16699 100.5 -12.5
s58.167 -16.666 75.5 -24.999s26.666 -14.833 27.999 -19.5c0.666992 -1.33301 1 -3.66602 1 -6.99902c0 -10.667 -6 -45.667 -18 -105c-2.66699 -7.33301 -6 -11 -10 -11c-5.33301 0 -12.333 4 -21 12l-28.5 26c-10.333 9.33301 -27.833 18 -52.5 26s-53.334 12 -86.001 12
c-40.667 0 -69 -8.5 -85 -25.5s-24 -36.833 -24 -59.5c0 -17.333 4.16699 -32 12.5 -44s20.5 -21.5 36.5 -28.5s31.667 -12.5 47 -16.5s33.666 -8.16699 54.999 -12.5s37.666 -8.5 48.999 -12.5c44 -14 82.167 -39.667 114.5 -77s48.5 -83.333 48.5 -138
c0 -29.333 -3.66699 -56.333 -11 -81s-19.666 -48 -36.999 -70s-42.666 -39.167 -75.999 -51.5s-73.333 -18.5 -120 -18.5c-40 0 -80.333 5.33301 -121 16s-72.334 21.834 -95.001 33.501s-35.334 20.5 -38.001 26.5c-1.33301 5.33301 -2 8.33301 -2 9z" />
    <glyph glyph-name="T" unicode="T" horiz-adv-x="733" 
d="M39 632l0.00292969 7.99707c0 18 3.66699 30.5 11 37.5s20 10.5 38 10.5h556c19.333 0 32.333 -3.66699 39 -11s10 -19.666 10 -36.999v-8c0 -15.333 -2.83301 -26.666 -8.5 -33.999s-11.5 -11.5 -17.5 -12.5s-15 -1.5 -27 -1.5c-14.667 0 -48.334 0.5 -101.001 1.5
s-86.334 1.5 -101.001 1.5v-539c0 -18 -3.33301 -30.5 -10 -37.5s-19.334 -10.5 -38.001 -10.5h-47c-18.667 0 -31.334 3.5 -38.001 10.5s-10 19.5 -10 37.5v539c-106 -2 -173.667 -3 -203 -3c-9.33301 0 -16.166 0.333008 -20.499 1s-9.5 2.33398 -15.5 5.00098
s-10.333 7.5 -13 14.5s-4 16.167 -4 27.5z" />
    <glyph glyph-name="U" unicode="U" horiz-adv-x="764" 
d="M91 240l0.000976562 404.004c0 10 0.5 17.833 1.5 23.5s5.16699 11.5 12.5 17.5s18 9 32 9h50c8.66699 0 15.667 -0.666992 21 -2s10.833 -5.66602 16.5 -12.999s8.5 -18 8.5 -32v-405c0 -26.667 1.33301 -48.667 4 -66s8.16699 -34.833 16.5 -52.5
s21.5 -31.334 39.5 -41.001s41 -15.5 69 -17.5l25 -1c28 0.666992 51.667 4.66699 71 12s34 16.166 44 26.499s17.833 24.333 23.5 42s9 33.167 10 46.5s1.5 30.666 1.5 51.999v406c0 14 3.16699 24.5 9.5 31.5s12.166 11 17.499 12s12.333 1.5 21 1.5h44
c28 0 42 -15.333 42 -46v-405c0 -84.667 -22.5 -149.834 -67.5 -195.501s-118.5 -68.834 -220.5 -69.501c-194.667 0 -292 87.333 -292 262z" />
    <glyph glyph-name="V" unicode="V" horiz-adv-x="733" 
d="M27 667c0 18 11.666 27.0059 34.999 27.0059h55c4.66699 0 9.16699 -0.333008 13.5 -1s8.16602 -1.33398 11.499 -2.00098s6.5 -2.16699 9.5 -4.5s5.5 -4 7.5 -5s4.16699 -3.16699 6.5 -6.5s4 -5.5 5 -6.5s2.5 -3.83301 4.5 -8.5s3.16699 -7.33398 3.5 -8.00098
s1.5 -3.66699 3.5 -9s3 -8.33301 3 -9l187 -509c6.66699 24.667 68.334 193.667 185.001 507c4.66699 13.333 8.16699 22.5 10.5 27.5s6.16602 10.833 11.499 17.5s11.833 11.167 19.5 13.5s17.5 3.5 29.5 3.5h42c22.667 0 34 -9 34 -27c0 -4 -1.33301 -10 -4 -18l-220 -591
c-4 -10.667 -7 -18.334 -9 -23.001s-5.5 -10.334 -10.5 -17.001s-11.333 -11.334 -19 -14.001s-17.5 -4 -29.5 -4h-91c-7.33301 0 -14.166 0.5 -20.499 1.5s-11.666 3 -15.999 6s-7.83301 5.16699 -10.5 6.5s-5.5 4.83301 -8.5 10.5s-5 9.16699 -6 10.5
s-2.83301 5.66602 -5.5 12.999s-4 11.333 -4 12l-219 589c-2.66699 8 -4 14 -4 18z" />
    <glyph glyph-name="W" unicode="W" horiz-adv-x="1039" 
d="M24 665c0 19.333 12.6631 29 37.9961 29h33c31.333 0 50.333 -13 57 -39l105 -395c12 -45.333 23 -90.333 33 -135c2.66699 16 14 63 34 141l65 246c23.333 86 35.333 130.667 36 134c2 6.66699 3.66699 12 5 16s4.16602 9 8.49902 15s10.166 10.333 17.499 13
s16.666 4 27.999 4h69c12 0 22 -1.33301 30 -4s14.167 -7.5 18.5 -14.5s7.33301 -12.5 9 -16.5s3.83398 -11.333 6.50098 -22l95 -355c18.667 -69.333 32 -121.666 40 -156.999l139 524c4.66699 16 11.334 27.5 20.001 34.5s21.334 10.5 38.001 10.5h25
c25.333 0 38 -10 38 -30c0 -2.66699 -1 -8.66699 -3 -18l-157 -584c-6.66699 -26 -14 -42.667 -22 -50c-9.33301 -8 -22.666 -12 -39.999 -12h-77c-14.667 0 -26.667 3.33301 -36 10s-15.166 12.834 -17.499 18.501s-4.83301 14.167 -7.5 25.5l-92 342
c-2 6.66699 -8.66699 31.5 -20 74.5s-19.666 75.833 -24.999 98.5l-137 -515c0 -0.666992 -0.5 -3 -1.5 -7s-1.83301 -6.83301 -2.5 -8.5s-1.66699 -4.33398 -3 -8.00098s-2.66602 -6.33398 -3.99902 -8.00098l-5.5 -7c-2.33301 -3 -4.83301 -5.16699 -7.5 -6.5l-9 -4.5
c-3.33301 -1.66699 -7.33301 -2.83398 -12 -3.50098s-9.66699 -1 -15 -1h-72c-8.66699 0 -16.167 1.16699 -22.5 3.5s-11.333 4.66602 -15 6.99902s-7 6.33301 -10 12s-5 9.83398 -6 12.501s-2.5 7.83398 -4.5 15.501s-3.33301 12.167 -4 13.5l-157 583c-2 6 -3 12 -3 18z
" />
    <glyph glyph-name="X" unicode="X" horiz-adv-x="733" 
d="M38 23c0 5.33301 4.00098 13.666 12.001 24.999l234 319v2l-217 278c-8 11.333 -12 19.666 -12 24.999c0 14.667 12.333 22 37 22h77c13.333 0 23.5 -2.16699 30.5 -6.5s15.167 -12.833 24.5 -25.5l134 -179l128 180c9.33301 13.333 17.166 21.833 23.499 25.5
s15.833 5.5 28.5 5.5h60c0.666992 0 2.66699 0.166992 6 0.5s6 0.5 8 0.5c24.667 0 37 -7.66699 37 -23c0 -5.33301 -4 -13.666 -12 -24.999l-205 -278l247 -319c9.33301 -12.667 14 -22 14 -28c0 -14 -9 -21.333 -27 -22h-88c-10.667 0 -19.5 1.66699 -26.5 5
s-11.667 6.5 -14 9.5s-6.83301 9.16699 -13.5 18.5l-166 231l-156 -230c-9.33301 -14 -17.333 -23.167 -24 -27.5s-16.667 -6.5 -30 -6.5h-83c-18 0.666992 -27 8.33398 -27 23.001z" />
    <glyph glyph-name="Y" unicode="Y" horiz-adv-x="733" 
d="M25 671c0 15.333 11.332 23.001 33.999 23.001h62c7.33301 0 13.833 -0.333008 19.5 -1s11.5 -2.33398 17.5 -5.00098s11 -5.16699 15 -7.5s9.33301 -7 16 -14s12.167 -13.333 16.5 -19l21 -28.5l25 -35.5l32 -46.5l39.5 -57
c28.667 -42.667 45.334 -68.334 50.001 -77.001c7.33301 15.333 61.333 94.666 162 237.999c14 20 26.667 33.833 38 41.5s28.333 11.5 51 11.5h49c22.667 0 34 -7.66699 34 -23c0 -5.33301 -6 -16.666 -18 -33.999l-249 -354c-3.33301 -8.66699 -5 -17.667 -5 -27v-209
c0 -18.667 -3.83301 -31.167 -11.5 -37.5s-19.167 -9.5 -34.5 -9.5h-49c-29.333 0 -44 15 -44 45v233l-257 364c-9.33301 12.667 -14 22.334 -14 29.001z" />
    <glyph glyph-name="Z" unicode="Z" horiz-adv-x="672" 
d="M60 49l-0.000976562 9c0 14 5 28 15 42l361 498l-315 -3c-19.333 0 -31.833 4.16699 -37.5 12.5s-8.5 20.5 -8.5 36.5c0 6.66699 0.333008 12 1 16s2.16699 9 4.5 15s6.83301 10.667 13.5 14s15 5 25 5h447c10 0 18.167 -1.33301 24.5 -4s10.833 -6.83398 13.5 -12.501
s4.33398 -10.667 5.00098 -15s1 -9.83301 1 -16.5v-5c0 -14 -5 -28 -15 -42l-360 -498l239 3h29c36 0.666992 58.667 1 68 1c18 0 30 -4 36 -12s9 -19 9 -33v-14c0 -14 -2.83301 -25 -8.5 -33s-17.5 -12.333 -35.5 -13h-469c-14 0 -24.5 3.66699 -31.5 11
s-10.667 13.333 -11 18s-0.5 11.334 -0.5 20.001z" />
    <glyph glyph-name="bracketleft" unicode="[" horiz-adv-x="343" 
d="M84 -202v903.001c0 10 0.833008 18 2.5 24s6 11.667 13 17s17.167 8 30.5 8h141c17.333 0 29.333 -4 36 -12s10 -16.333 10 -25c0 -14 -7 -24.667 -21 -32c-6 -2.66699 -16.333 -4 -31 -4h-47v-854h55c29.333 0 44 -12 44 -36c0 -24.667 -15.333 -37 -46 -37h-142
c-14 0 -24.5 3.16699 -31.5 9.5s-11 12.166 -12 17.499s-1.5 12.333 -1.5 21z" />
    <glyph glyph-name="backslash" unicode="\" 
d="M61 713c0 10.667 3.50098 19.332 10.501 25.999s15.167 10 24.5 10c17.333 0 30.666 -12.333 39.999 -37l349 -913c1.33301 -5.33301 2 -9.66602 2 -12.999c0 -8.66699 -3.5 -16.667 -10.5 -24s-15.5 -11 -25.5 -11c-8 0 -15 2.66699 -21 8s-10 10 -12 14s-5 11 -9 21
l-340 890c-5.33301 16 -8 25.667 -8 29z" />
    <glyph glyph-name="bracketright" unicode="]" horiz-adv-x="343" 
d="M25 -213c0 24 15 35.999 45 35.999h54v854h-53c-30.667 0 -46 12 -46 36c0 24.667 15 37 45 37h141c10.667 0 19.5 -1.5 26.5 -4.5s11.667 -7.5 14 -13.5s3.83301 -11 4.5 -15s1 -9.33301 1 -16v-903c0 -8.66699 -0.333008 -15.667 -1 -21s-4.66699 -11.166 -12 -17.499
s-18 -9.5 -32 -9.5h-142c-30 0 -45 12.333 -45 37z" />
    <glyph glyph-name="asciicircum" unicode="^" horiz-adv-x="672" 
d="M171 471c0 4.66699 11.332 22.665 33.999 53.998l34 46l35 49c7.33301 9.33301 16.333 14 27 14h72c7.33301 0 13.833 -3.16699 19.5 -9.5s21.834 -28.166 48.501 -65.499l50 -69c6 -9.33301 9 -15.666 9 -18.999c0 -8.66699 -5.66699 -13 -17 -13h-32
c-7.33301 0 -14 2.16699 -20 6.5s-22.667 19.5 -50 45.5l-46 43c-52.667 -50 -83 -78.333 -91 -85s-16.333 -10 -25 -10h-21c-18 0 -27 4.33301 -27 13z" />
    <glyph glyph-name="underscore" unicode="_" horiz-adv-x="855" 
d="M92 -295c0 5.33301 0.833984 10.667 2.50098 16s6.5 11 14.5 17s18.667 9 32 9h571c19.333 0 32.5 -4.5 39.5 -13.5s10.5 -18.167 10.5 -27.5c0 -6 -0.833008 -11.667 -2.5 -17s-6.83398 -10.833 -15.501 -16.5s-20 -8.5 -34 -8.5h-568c-33.333 0 -50 13.667 -50 41z" />
    <glyph glyph-name="grave" unicode="`" 
d="M108 664l-0.00292969 5.00098c2.66699 6.66699 9.33398 10 20.001 10h93c9.33301 0 17 -3.33301 23 -10c2.66699 -2.66699 32.334 -40.667 89.001 -114l5 -10l1 -4c-0.666992 -8.66699 -7 -13 -19 -13h-27c-4 0 -7.5 0.166992 -10.5 0.5s-5.66699 1.16602 -8 2.49902
s-4.16602 2.33301 -5.49902 3s-3.33301 2.16699 -6 4.5s-4.66699 3.83301 -6 4.5c-96.667 75.333 -145.667 113.833 -147 115.5s-2 3.5 -2 5.5z" />
    <glyph glyph-name="a" unicode="a" horiz-adv-x="525" 
d="M30 137c0 26 7.66406 48.666 22.9971 67.999s33.833 34.333 55.5 45s47.334 19.167 77.001 25.5s55.334 10.5 77.001 12.5s43.5 3 65.5 3v21c0 28.667 -4.66699 51.334 -14 68.001s-28.333 25 -57 25c-26 0 -49.667 -3.5 -71 -10.5s-37.166 -14.833 -47.499 -23.5
l-29 -24c-9 -7.33301 -15.5 -11 -19.5 -11l-4 1l-4 3c-2 3.33301 -3.83301 11.5 -5.5 24.5s-2.83398 24.833 -3.50098 35.5l-1 17c0 3.33301 0.166992 5.83301 0.5 7.5s1.5 3.5 3.5 5.5s3.5 3.33301 4.5 4s3.83301 2 8.5 4s8.33398 3.66699 11.001 5
c48 21.333 100.333 32 157 32c76 0 129.5 -14.333 160.5 -43s46.5 -70 46.5 -124v-263c0 -30 -15 -45 -45 -45h-48c-14.667 0 -25.167 4 -31.5 12s-9.5 17.333 -9.5 28c-44 -34 -95.333 -51 -154 -51c-44.667 0 -80.167 15.333 -106.5 46s-39.5 64.667 -39.5 102z
M160.997 136.999c0 -19.333 6.33301 -36.668 19 -52.001s29.334 -23 50.001 -23c22.667 0 44.667 7.16699 66 21.5s32 37.833 32 70.5v78c-20.667 -2 -38.334 -4.16699 -53.001 -6.5s-32 -6.66602 -52 -12.999s-35.333 -16 -46 -29s-16 -28.5 -16 -46.5z" />
    <glyph glyph-name="b" unicode="b" horiz-adv-x="561" 
d="M60 46l0.000976562 630.001c0 14.667 3.16699 26 9.5 34s18.5 12 36.5 12h44c29.333 0 44 -14.667 44 -44v-249c42 26.667 88.333 40 139 40c95.333 0 155 -45 179 -135c7.33301 -28 11 -64.667 11 -110s-6.16699 -84 -18.5 -116s-29.333 -56.333 -51 -73
s-44.167 -28.5 -67.5 -35.5s-49 -10.5 -77 -10.5c-42 0 -79.667 12.667 -113 38c-5.33301 -10.667 -10.833 -17.834 -16.5 -21.501s-14.834 -5.5 -27.501 -5.5h-46c-30.667 -0 -46 15.333 -46 46zM197.001 101.001l3 -4l5.5 -5.5c1 -1 3 -2.83301 6 -5.5
s5.5 -4.66699 7.5 -6l8 -5.5c3.33301 -2.33301 6.5 -4 9.5 -5l10.5 -3.5c4 -1.33301 8.33301 -2.33301 13 -3s9.66699 -1 15 -1c21.333 0 39.5 3.83301 54.5 11.5s26 16.167 33 25.5s12.5 22.833 16.5 40.5s6.16699 31.667 6.5 42s0.5 25.166 0.5 44.499v8
c0 20 -0.333008 35.833 -1 47.5s-2.66699 25.834 -6 42.501s-8.33301 29.5 -15 38.5s-16.667 17 -30 24s-29.333 10.5 -48 10.5c-31.333 0 -61 -11.667 -89 -35v-261z" />
    <glyph glyph-name="c" unicode="c" horiz-adv-x="489" 
d="M36 228c0 164.667 81.3311 247.002 243.998 247.002c58 0 112 -13.667 162 -41c5.33301 -3.33301 8 -8.66602 8 -15.999c-3.33301 -52 -11.333 -78 -24 -78c-4.66699 0 -15.167 6.66699 -31.5 20s-32.166 22.666 -47.499 27.999c-17.333 6 -43 9 -77 9
c-18 -0.666992 -33.5 -5 -46.5 -13s-22.667 -17 -29 -27s-11.333 -23 -15 -39s-5.66699 -28.833 -6 -38.5s-0.5 -22.167 -0.5 -37.5v-19c0 -16.667 0.333008 -30.334 1 -41.001s2.83398 -24 6.50098 -40s9 -28.833 16 -38.5s17.333 -18.167 31 -25.5s30.167 -11 49.5 -11
c24 0 46 3.16699 66 9.5s35.333 13.333 46 21l29.5 22c9 7 15.5 10.833 19.5 11.5l5 -1c4 -2.66699 6.33301 -6.33398 7 -11.001s2.66699 -24.334 6 -59.001v-8c0 -9.33301 -6.66699 -17.666 -20 -24.999c-48.667 -25.333 -102.667 -38 -162 -38
c-158.667 0 -238 79.667 -238 239z" />
    <glyph glyph-name="d" unicode="d" horiz-adv-x="561" 
d="M36 239c1.33301 82.667 20.832 141.668 58.499 177.001s86.167 53 145.5 53c46 0 87.667 -12 125 -36v245c0 29.333 14.667 44 44 44h40c14.667 0 25.834 -2.5 33.501 -7.5s12.334 -10.333 14.001 -16s2.5 -12.834 2.5 -21.501v-631c0 -30.667 -15 -46 -45 -46h-46
c-24.667 0 -40 10.667 -46 32c-40 -28.667 -82.333 -43 -127 -43c-100.667 0 -163.334 47 -188.001 141c-7.33301 28 -11 64.333 -11 109zM172.999 221.001c0 -18.667 0.334961 -33.5039 1.00195 -44.5039s2.83398 -24.667 6.50098 -41s8.83398 -29.166 15.501 -38.499
s16.667 -17.5 30 -24.5s29.333 -10.5 48 -10.5c22 0 42.167 6.16699 60.5 18.5s27.5 25.833 27.5 40.5v245c-0.666992 0 -2.33398 1.16699 -5.00098 3.5s-5.33398 4.5 -8.00098 6.5s-6.33398 4.33301 -11.001 7s-9.5 4.83398 -14.5 6.50098s-11 3.16699 -18 4.5
s-14.167 2 -21.5 2c-20.667 0 -38.5 -3.66699 -53.5 -11s-26.167 -15.666 -33.5 -24.999s-12.833 -22.166 -16.5 -38.499s-5.83398 -29.5 -6.50098 -39.5s-1 -23.333 -1 -40v-21z" />
    <glyph glyph-name="e" unicode="e" horiz-adv-x="511" 
d="M30 233c0 81.333 21.334 141.998 64.001 181.998s101.334 60 176.001 60c40 0 74.167 -6.16699 102.5 -18.5s50 -29.333 65 -51s25.667 -44.5 32 -68.5s9.5 -50.667 9.5 -80c0 -28.667 -14.667 -43 -44 -43h-276c2.66699 -101.333 45 -152 127 -152
c29.333 0 56.166 4.83301 80.499 14.5s44.166 20.334 59.499 32.001s24.333 17.834 27 18.501h4l5 -2c3.33301 -3.33301 5.83301 -10.833 7.5 -22.5s2.5 -22.5 2.5 -32.5l1 -15c0 -8.66699 -5.33301 -16 -16 -22c-51.333 -29.333 -109 -44 -173 -44
c-83.333 0 -146.5 20.667 -189.5 62s-64.5 102 -64.5 182zM160.001 278.998l207 -0.000976562c-2 38.667 -9.66699 68.834 -23 90.501s-38 32.5 -74 32.5c-65.333 0 -102 -41 -110 -123z" />
    <glyph glyph-name="f" unicode="f" horiz-adv-x="336" 
d="M31 422c0 24 15.0029 36.001 45.0029 36.001h10v88c0 124 64.333 186.333 193 187h2c49.333 0 81 -5 95 -15l3 -4l2 -5v-61c0 -16.667 -4 -25 -12 -25c-3.33301 0 -8.33301 3.16699 -15 9.5s-16.167 12.5 -28.5 18.5s-26.5 9 -42.5 9s-28.833 -2.33301 -38.5 -7
s-16.334 -11.834 -20.001 -21.501s-6 -17.834 -7 -24.501s-1.5 -15.667 -1.5 -27v-122h55c14.667 0 25.5 -3.66699 32.5 -11s10.5 -15.666 10.5 -24.999c0 -5.33301 -0.833008 -10.333 -2.5 -15s-6.16699 -9.5 -13.5 -14.5s-17 -7.5 -29 -7.5h-50v-333
c0 -8.66699 -0.333008 -15.167 -1 -19.5s-2.33398 -9.5 -5.00098 -15.5s-7.33398 -10.333 -14.001 -13s-15.667 -4 -27 -4h-42c-14 0 -24.5 3.16699 -31.5 9.5s-10.833 12 -11.5 17s-1 11.5 -1 19.5v339h-12c-28.667 0 -43 12.333 -43 37z" />
    <glyph glyph-name="g" unicode="g" 
d="M24 -65c0 42 18.665 73.332 55.998 93.999c-17.333 26 -26 52.333 -26 79c0 28 9 55.333 27 82v2c-26.667 30.667 -40 67.667 -40 111c0 19.333 2.5 37.5 7.5 54.5s14 34.5 27 52.5s33.833 32.333 62.5 43s63.667 16 105 16h3c26.667 0 49.5 -2.16699 68.5 -6.5
s33 -8.5 42 -12.5s14.833 -6 17.5 -6c2 0 9.33301 2 22 6s29 8.16699 49 12.5s39.333 6.5 58 6.5c9.33301 0 15.333 -2.5 18 -7.5s5.66699 -17.167 9 -36.5c0.666992 -5.33301 1.33398 -9.66602 2.00098 -12.999c0.666992 -12.667 -5 -19 -17 -19c-1.33301 0 -5 0.5 -11 1.5
s-14.167 1.83301 -24.5 2.5s-21.5 1 -33.5 1l-26 -1c16 -32 24 -63 24 -93c0 -110 -67.333 -165 -202 -165c-42.667 0 -81 6.66699 -115 20c-2 -7.33301 -3 -13.666 -3 -18.999c0 -32 19.667 -48 59 -48h86c25.333 0 45.833 -0.333008 61.5 -1s34.834 -2.5 57.501 -5.5
s40.834 -7.83301 54.501 -14.5s27.334 -15.5 41.001 -26.5s23.667 -25.5 30 -43.5s9.5 -39.333 9.5 -64c0 -58 -30.667 -98.667 -92 -122c-36.667 -14 -89 -21 -157 -21c-14.667 0 -26.834 0.166992 -36.501 0.5s-23.667 1.16602 -42 2.49902s-34.333 4 -48 8
s-28.167 9 -43.5 15s-28.833 14.5 -40.5 25.5s-20.834 23.5 -27.501 37.5c-8 16 -12 33.333 -12 52zM126.998 -63.001c0 -47.333 49.334 -71 148.001 -71h4c36.667 0 66.167 4 88.5 12s36.666 16.5 42.999 25.5s9.5 18.833 9.5 29.5c0 19.333 -11 32.5 -33 39.5
s-57 10.5 -105 10.5h-98c-28 0 -45.333 -7 -52 -21c-3.33301 -6.66699 -5 -15 -5 -25zM169.999 295.999c0 -28 4.49902 -49.167 13.499 -63.5s28.167 -21.5 57.5 -21.5c30 0 50 6.33301 60 19s15 34.667 15 66v16c0 28.667 -4.66699 50 -14 64s-28.333 21 -57 21
c-29.333 0 -49.166 -6.33301 -59.499 -19s-15.5 -34.667 -15.5 -66v-16z" />
    <glyph glyph-name="h" unicode="h" horiz-adv-x="561" 
d="M59 44l0.00292969 630.001c0 32 14.667 48 44 48h40c10 0 18 -0.666992 24 -2s11.833 -5.5 17.5 -12.5s8.5 -17.167 8.5 -30.5v-274c44 44 97 66 159 66c24 0 44.833 -2.16699 62.5 -6.5s31.667 -11 42 -20s18.666 -17.667 24.999 -26s10.666 -20 12.999 -35
s3.83301 -27 4.5 -36s1 -21.5 1 -37.5v-264c0 -29.333 -14.333 -44 -43 -44h-47c-18 0 -30.167 3.83301 -36.5 11.5s-9.5 18.5 -9.5 32.5v280c0 24 -3.66699 42 -11 54s-23 18 -47 18c-30 0 -54.667 -10.167 -74 -30.5s-31 -43.833 -35 -70.5
c-0.666992 -3.33301 -1 -15 -1 -35v-210c0 -8 -0.333008 -14.167 -1 -18.5s-2.33398 -9.33301 -5.00098 -15s-7.5 -9.83398 -14.5 -12.501s-15.833 -4 -26.5 -4h-44c-30.667 0 -46 14.667 -46 44z" />
    <glyph glyph-name="i" unicode="i" horiz-adv-x="255" 
d="M56 626v49.9971c0 10.667 1.16699 19.334 3.5 26.001s6.5 11.334 12.5 14.001s10.5 4.16699 13.5 4.5s8.16699 0.833008 15.5 1.5h51c14 0 25.167 -3.16699 33.5 -9.5s12.5 -18.5 12.5 -36.5v-52c0 -5.33301 -0.5 -10.166 -1.5 -14.499s-2.33301 -8 -4 -11
s-3.66699 -5.66699 -6 -8s-4.66602 -4 -6.99902 -5s-5 -2 -8 -3s-5.33301 -1.5 -7 -1.5s-3.83398 -0.333008 -6.50098 -1h-4h-52c-14 0 -25.167 3.16699 -33.5 9.5s-12.5 18.5 -12.5 36.5zM60 49.9971l-0.000976562 363.001c0 30 14.667 45 44 45h41
c14.667 0 25.834 -2.66699 33.501 -8s12.167 -11 13.5 -17s2 -14.333 2 -25v-363c0 -30 -14.667 -45 -44 -45h-46c-14 0 -24.5 3.33301 -31.5 10s-10.833 12.667 -11.5 18s-1 12.666 -1 21.999z" />
    <glyph glyph-name="j" unicode="j" horiz-adv-x="286" 
d="M-69 -157c4.66699 37.333 12.668 56 24.001 56c2 0 11 -3.33301 27 -10s32 -10 48 -10c41.333 0 62 19.667 62 59v476c0 5.33301 0.5 10.333 1.5 15s2.16699 8.5 3.5 11.5s3.33301 5.5 6 7.5s5 3.66699 7 5s4.66699 2.33301 8 3s5.66602 1 6.99902 1
s3.5 0.166992 6.5 0.5s4.83301 0.5 5.5 0.5h43c30.667 0 46 -15.333 46 -46v-427c0 -17.333 -0.5 -32.666 -1.5 -45.999s-4.33301 -29.833 -10 -49.5s-13.5 -35.834 -23.5 -48.501s-24.833 -23.667 -44.5 -33s-43.167 -14 -70.5 -14c-26.667 0 -57.5 5 -92.5 15
s-52.5 21.333 -52.5 34zM84.001 626l0.000976562 49.9971c0 10.667 1.33301 19.167 4 25.5s6.66699 10.833 12 13.5s9.83301 4.33398 13.5 5.00098s8.83398 1.33398 15.501 2.00098h51c14 0 25.167 -3.16699 33.5 -9.5s12.5 -18.5 12.5 -36.5v-52
c0 -5.33301 -0.5 -10.166 -1.5 -14.499s-2.33301 -8 -4 -11s-3.83398 -5.66699 -6.50098 -8s-5 -4 -7 -5s-4.66699 -2 -8 -3s-5.83301 -1.5 -7.5 -1.5s-3.83398 -0.333008 -6.50098 -1h-4h-52c-14 0 -25 3.16699 -33 9.5s-12 18.5 -12 36.5z" />
    <glyph glyph-name="k" unicode="k" horiz-adv-x="530" 
d="M69 47l0.00195312 630.999c0 29.333 15 44 45 44h27c10.667 0 19.5 -1.66699 26.5 -5s11.667 -8.16602 14 -14.499s3.66602 -11.166 3.99902 -14.499s0.5 -8 0.5 -14v-371l73 68c46 43.333 74.5 68.666 85.5 75.999s26.167 11 45.5 11h66
c14.667 -0.666992 23 -6.66699 25 -18c-0.666992 -8 -6.83398 -17.667 -18.501 -29s-61.834 -57.666 -150.501 -138.999c0.666992 -0.666992 58.334 -76.334 173.001 -227.001c6.66699 -9.33301 10 -17 10 -23c0 -14.667 -10 -22 -30 -22h-53
c-13.333 0 -23.5 1.66699 -30.5 5s-15.5 11.333 -25.5 24l-126 166l-46 -42v-109c0 -29.333 -15 -44 -45 -44h-24c-10.667 0 -19.5 1.5 -26.5 4.5s-11.667 7.33301 -14 13s-3.83301 10.5 -4.5 14.5s-1 9 -1 15z" />
    <glyph glyph-name="l" unicode="l" horiz-adv-x="255" 
d="M60 45v630c0 31.333 14 47 42 47h46c30.667 0 46 -15 46 -45v-628c0 -8 -0.333008 -14.333 -1 -19s-2.33398 -9.5 -5.00098 -14.5s-7.16699 -8.66699 -13.5 -11s-14.833 -3.83301 -25.5 -4.5h-41c-15.333 0 -27.166 3 -35.499 9s-12.5 18 -12.5 36z" />
    <glyph glyph-name="m" unicode="m" horiz-adv-x="866" 
d="M59 45l-0.00390625 373.995c0 29.333 15 44 45 44h40c6.66699 0 11.834 -0.333008 15.501 -1s8.33398 -2.16699 14.001 -4.5s9.83398 -6.66602 12.501 -12.999s4 -14.5 4 -24.5v-20c12.667 12 22.667 21.167 30 27.5s24 14.833 50 25.5s53.667 16 83 16
c39.333 0 69.833 -5.83301 91.5 -17.5s37.5 -30.5 47.5 -56.5c41.333 49.333 96.666 74 165.999 74c28.667 0 52.834 -3.5 72.501 -10.5s34.334 -15 44.001 -24s17 -22 22 -39s7.83301 -31 8.5 -42s1 -26.5 1 -46.5v-262c0 -14.667 -3.16699 -25.834 -9.5 -33.501
s-18.5 -11.5 -36.5 -11.5h-44c-5.33301 0 -10.166 0.333008 -14.499 1s-8 1.66699 -11 3s-5.5 2.83301 -7.5 4.5s-3.83301 3.66699 -5.5 6s-3 4.33301 -4 6s-1.66699 4.16699 -2 7.5s-0.666016 5.5 -0.999023 6.5s-0.5 3.16699 -0.5 6.5v6v272
c0 12.667 -0.333008 22.334 -1 29.001s-2.83398 14.334 -6.50098 23.001s-9.66699 15 -18 19s-19.5 6 -33.5 6c-27.333 0 -50 -8.5 -68 -25.5s-30.333 -36.167 -37 -57.5c-3.33301 -11.333 -5 -28.666 -5 -51.999v-207v-5.5c0 -2.33301 -0.833008 -6.66602 -2.5 -12.999
s-3.83398 -11.833 -6.50098 -16.5s-7 -9 -13 -13s-13.333 -6 -22 -6h-46c-18.667 0 -31.167 3.83301 -37.5 11.5s-9.5 18.834 -9.5 33.501v278c0 26 -4 44.667 -12 56s-23.333 17 -46 17c-29.333 0 -55 -11.167 -77 -33.5s-33 -53.5 -33 -93.5v-224c0 -30 -15 -45 -45 -45
h-45c-31.333 0 -47 15 -47 45z" />
    <glyph glyph-name="n" unicode="n" horiz-adv-x="561" 
d="M59 45v373c0 12.667 2.66699 22.667 8 30s10.833 11.666 16.5 12.999s12.5 2 20.5 2h40c6.66699 0 11.834 -0.333008 15.501 -1s8.33398 -2.16699 14.001 -4.5s9.83398 -6.66602 12.501 -12.999s4 -14.5 4 -24.5v-20c46 46 100 69 162 69c24 0 44.833 -2.16699 62.5 -6.5
s31.667 -11 42 -20s18.666 -17.667 24.999 -26s10.666 -20 12.999 -35s3.83301 -27 4.5 -36s1 -21.5 1 -37.5v-264c0 -29.333 -14.333 -44 -43 -44h-47c-18 -0 -30.167 3.83301 -36.5 11.5s-9.5 18.5 -9.5 32.5v274c0 10 -0.166992 17.667 -0.5 23s-1.5 12 -3.5 20
s-5 14.167 -9 18.5s-9.83301 8.16602 -17.5 11.499s-17.167 5 -28.5 5c-28 0 -50.667 -8.5 -68 -25.5s-29 -35.5 -35 -55.5c-4 -14.667 -6 -32.667 -6 -54v-208c0 -1.33301 -0.166992 -3.16602 -0.5 -5.49902s-1.33301 -6.66602 -3 -12.999s-3.83398 -11.833 -6.50098 -16.5
s-7.16699 -8.83398 -13.5 -12.501s-13.833 -5.5 -22.5 -5.5h-44c-31.333 0 -47 15 -47 45z" />
    <glyph glyph-name="o" unicode="o" 
d="M30 224c0 48 6.5 89.0029 19.5 123.003s30.833 60 53.5 78s46.667 30.833 72 38.5s53.333 11.5 84 11.5c17.333 0 32.5 -0.333008 45.5 -1s29 -2.83398 48 -6.50098s35.5 -8.83398 49.5 -15.501s28.667 -16.334 44 -29.001s28 -27.667 38 -45s18.167 -39.5 24.5 -66.5
s9.5 -57.5 9.5 -91.5c0 -154 -81 -231 -243 -231c-163.333 0 -245 78.333 -245 235zM167 214.003c0.666992 -17.333 1.33789 -30.333 2.00488 -39s3 -21.167 7 -37.5s9.33301 -28.666 16 -36.999s17 -16 31 -23s31 -10.5 51 -10.5s37 3.5 51 10.5s24.5 15 31.5 24
s12.5 21.333 16.5 37s6.33301 29 7 40s1 24.833 1 41.5v8v27c0 14 -0.333008 24.5 -1 31.5s-1.83398 17.5 -3.50098 31.5s-4.83398 25 -9.50098 33s-10.834 16.5 -18.501 25.5s-17.834 15.5 -30.501 19.5s-27.667 6 -45 6c-20.667 0 -38.167 -3.66699 -52.5 -11
s-24.833 -15.5 -31.5 -24.5s-11.834 -22.333 -15.501 -40s-5.66699 -31.334 -6 -41.001s-0.5 -24.5 -0.5 -44.5v-27z" />
    <glyph glyph-name="p" unicode="p" horiz-adv-x="561" 
d="M60 -149l0.00195312 561.001c0 30.667 15 46 45 46h42c25.333 0 40.666 -10.333 45.999 -31c45.333 28 94.333 42 147 42c91.333 0 148.666 -44.667 171.999 -134c7.33301 -29.333 11 -66.333 11 -111c0 -45.333 -6.16699 -84 -18.5 -116s-29.333 -56.333 -51 -73
s-44.167 -28.5 -67.5 -35.5s-49 -10.5 -77 -10.5c-40.667 0 -78 12.333 -112 37v-173c0 -18.667 -3.83301 -31.334 -11.5 -38.001s-19.5 -10 -35.5 -10h-46c-29.333 0 -44 15.333 -44 46zM197.002 100.001l4.99707 -5.99609c4 -3.33301 7 -6 9 -8s5.33301 -4.83301 10 -8.5
s9.33398 -6.33398 14.001 -8.00098s10.334 -3.33398 17.001 -5.00098s13.667 -2.5 21 -2.5c39.333 0 68.333 14.667 87 44c17.333 27.333 26 68.666 26 123.999v12c0 99.333 -34 149 -102 149c-6.66699 0 -12.834 -0.333008 -18.501 -1s-11.167 -1.83398 -16.5 -3.50098
s-9.66602 -3.16699 -12.999 -4.5s-7.5 -3.5 -12.5 -6.5s-8.16699 -4.83301 -9.5 -5.5s-4.66602 -2.66699 -9.99902 -6l-7 -6v-258z" />
    <glyph glyph-name="q" unicode="q" horiz-adv-x="561" 
d="M36 229c0 86.667 19.667 148.337 59 185.004s89.666 55 150.999 55c8 0 15.5 -0.333008 22.5 -1s13.667 -1.83398 20 -3.50098s12 -3.33398 17 -5.00098s10 -3.83398 15 -6.50098l12.5 -6.5c3.33301 -1.66699 7 -4 11 -7l8.5 -6.5c1.66699 -1.33301 4 -3.33301 7 -6
s4.83301 -4.33398 5.5 -5.00098c0 31.333 14 47 42 47h50c28 0 42 -14.667 42 -44v-571c0 -9.33301 -0.5 -16.833 -1.5 -22.5s-5.16699 -11.5 -12.5 -17.5s-17.666 -9 -30.999 -9h-47c-30 0 -45 16 -45 48v181c-38.667 -30 -80 -45 -124 -45
c-18.667 0 -36.167 1.5 -52.5 4.5s-34 9.66699 -53 20s-35.333 23.833 -49 40.5s-25 40 -34 70s-13.5 65 -13.5 105zM173 228.003c0 -110.667 33.665 -166.001 100.998 -166.001c16.667 0 32.334 4.33301 47.001 13s23.834 15.334 27.501 20.001l16.5 21v199
c0 20.667 -8 38.5 -24 53.5s-35 22.5 -57 22.5c-74 0 -111 -54.333 -111 -163z" />
    <glyph glyph-name="r" unicode="r" horiz-adv-x="372" 
d="M60 43l0.000976562 375c0 19.333 4.16699 31.666 12.5 36.999s19.5 8 33.5 8h33c18 0 31.333 -4.33301 40 -13c4.66699 -5.33301 7.33398 -10.666 8.00098 -15.999s1.33398 -20.666 2.00098 -45.999c16 22 35.333 39.667 58 53s40.5 21.333 53.5 24s24.5 4 34.5 4h1
c8.66699 0 14.167 -1.66699 16.5 -5s3.5 -9 3.5 -17v-56c0 -7.33301 -1.66699 -13.333 -5 -18c-4 -3.33301 -12.833 -5.83301 -26.5 -7.5s-25.834 -4.16699 -36.501 -7.5c-22.667 -8 -42.334 -20.333 -59.001 -37s-27.334 -36 -32.001 -58
c-2 -8.66699 -3 -21.334 -3 -38.001v-175c0 -14 -1 -23.167 -3 -27.5s-7 -9.83301 -15 -16.5c-8 -4 -17.333 -6 -28 -6h-43c-18 0 -30 4 -36 12s-9 18.333 -9 31z" />
    <glyph glyph-name="s" unicode="s" horiz-adv-x="422" 
d="M31 50c0 2.66699 4 25.999 12 69.999c2 15.333 6.66699 23 14 23c3.33301 0 11.166 -6.16699 23.499 -18.5s30.5 -24.833 54.5 -37.5s51.667 -19 83 -19c52 0 78 17.667 78 53c0 18.667 -8 32.334 -24 41.001s-39.333 15.5 -70 20.5s-51.334 9.5 -62.001 13.5
c-26 10 -49.833 26 -71.5 48s-32.5 51 -32.5 87c0 93.333 56 141.333 168 144h26c42.667 -0.666992 83.334 -9 122.001 -25c10 -4 16.5 -7.33301 19.5 -10s4.5 -7.33398 4.5 -14.001c0 -4 -3.33301 -25 -10 -63c-2.66699 -10 -6.66699 -15 -12 -15
c-4.66699 0 -12.5 4.5 -23.5 13.5s-26.833 18 -47.5 27s-45.334 13.5 -74.001 13.5c-49.333 0 -74 -16 -74 -48c0 -17.333 9.33301 -30 28 -38s43.834 -14.833 75.501 -20.5s54.834 -12.5 69.501 -20.5c12.667 -6 24.667 -13.667 36 -23s22.833 -24.166 34.5 -44.499
s17.5 -42.833 17.5 -67.5c0 -56 -16 -95.167 -48 -117.5s-76 -33.5 -132 -33.5c-69.333 0 -129 16 -179 48l-4 5c-1.33301 4 -2 6.66699 -2 8z" />
    <glyph glyph-name="t" unicode="t" horiz-adv-x="404" 
d="M21 422c0 24 14.666 35.999 43.999 35.999h24v86c0 30 16 45 48 45h36c30 0 45 -15 45 -45v-86h91c12 0 21.667 -2.66699 29 -8s11.833 -10.333 13.5 -15s2.5 -9.33398 2.5 -14.001s-0.833008 -9.33398 -2.5 -14.001s-6 -9.5 -13 -14.5s-16.167 -7.5 -27.5 -7.5h-93v-200
c0 -3.33301 -0.166992 -7.66602 -0.5 -12.999s-0.5 -9.66602 -0.5 -12.999c0 -35.333 3.33301 -59.5 10 -72.5s17.334 -19.5 32.001 -19.5c18.667 0 38 5.83301 58 17.5s30.667 17.5 32 17.5c4.66699 0 8.83398 -4.66699 12.501 -14s6.5 -18.666 8.5 -27.999l2 -13
c0 -12.667 -20.833 -25.5 -62.5 -38.5s-81.5 -19.5 -119.5 -19.5c-48.667 0 -80.334 24 -95.001 72c-6 20 -9 50.333 -9 91v233h-21c-29.333 0 -44 12.333 -44 37z" />
    <glyph glyph-name="u" unicode="u" horiz-adv-x="561" 
d="M59 139l0.000976562 274.999c0 29.333 14.667 44 44 44h46c14.667 0 25.667 -3 33 -9s11.333 -11.167 12 -15.5s1.33398 -11.166 2.00098 -20.499v-266c0 -2.66699 -0.166992 -6.66699 -0.5 -12s-0.5 -9.33301 -0.5 -12c0 -29.333 3.66699 -48.833 11 -58.5
s25 -14.5 53 -14.5c26.667 0 50.834 9.83301 72.501 29.5s32.5 53.5 32.5 101.5v225c0 10 0.333008 17.5 1 22.5s1.66699 8.5 3 10.5s4.33301 5.33301 9 10c7.33301 6 18.666 9 33.999 9h44c29.333 0 44.333 -14 45 -42v-373c0 -28.667 -15 -43 -45 -43h-47
c-27.333 0 -41 14.667 -41 44c-22.667 -22 -45.334 -36.667 -68.001 -44s-49.334 -11 -80.001 -11c-29.333 0 -54.5 3.16699 -75.5 9.5s-36.833 13.833 -47.5 22.5s-19 20.5 -25 35.5s-9.5 28 -10.5 39s-1.5 25.5 -1.5 43.5z" />
    <glyph glyph-name="v" unicode="v" horiz-adv-x="500" 
d="M25 430c0 18.667 12 27.999 36 27.999h33c11.333 0 20.833 -1.66699 28.5 -5s13.834 -8.83301 18.501 -16.5s7.5 -12.667 8.5 -15s2.5 -7.16602 4.5 -14.499l96 -294l98 300c9.33301 30 30 45 62 45h27c10 0 17.667 -1.83301 23 -5.5s8.33301 -6.66699 9 -9
s1.66699 -6.16602 3 -11.499c0 -6 -2 -15 -6 -27l-115 -354c-6 -18.667 -13.5 -31.834 -22.5 -39.501s-22.5 -11.5 -40.5 -11.5h-78c-11.333 -0 -21 1.33301 -29 4s-14.333 7.5 -19 14.5s-7.83398 12.5 -9.50098 16.5s-4.16699 11 -7.5 21l-112 346
c-5.33301 16 -8 25.333 -8 28z" />
    <glyph glyph-name="w" unicode="w" horiz-adv-x="744" 
d="M25 429c0 19.333 12.333 29 37 29h28c16.667 0 29.5 -3.33301 38.5 -10s16.167 -19.334 21.5 -38.001c48 -172 74.333 -265.667 79 -281l80 285c8 29.333 27 44 57 44h4c16 0 30.667 -4.66699 44 -14l9 -15l89 -315h1l84 300c8 29.333 27.333 44 58 44h28
c24 0 36 -9.66699 36 -29c0 -2 -0.5 -4.66699 -1.5 -8s-1.5 -5.33301 -1.5 -6l-100 -358c-2.66699 -10 -4.66699 -16.833 -6 -20.5s-4.16602 -9.16699 -8.49902 -16.5s-10.333 -12.5 -18 -15.5s-17.167 -4.5 -28.5 -4.5h-79c-6.66699 0 -12.5 0.5 -17.5 1.5
s-9.33301 2.16699 -13 3.5s-7 4 -10 8s-5.5 7.16699 -7.5 9.5s-4.16699 7 -6.5 14s-4 12.167 -5 15.5s-2.83301 10 -5.5 20l-6 22c-29.333 106 -47 181.667 -53 227c-2 -30 -24 -121.333 -66 -274c-4.66699 -16.667 -11.334 -28.667 -20.001 -36s-21.334 -11 -38.001 -11
h-39c-4.66699 0 -9.33398 0.333008 -14.001 1s-8.5 1.5 -11.5 2.5s-6 2.66699 -9 5s-5.5 4 -7.5 5s-4 3.33301 -6 7s-3.5 6 -4.5 7s-2.16699 3.66699 -3.5 8s-2.16602 7 -2.49902 8s-1.16602 3.83301 -2.49902 8.5s-2 7.33398 -2 8.00098l-98 351c-2 6 -3 12 -3 18z" />
    <glyph glyph-name="x" unicode="x" horiz-adv-x="500" 
d="M25 22c0 4.66699 2.33008 10.334 6.99707 17.001s23.334 30 56.001 70l55 68c26.667 34 42.667 53.667 48 59c-6.66699 8.66699 -56 67.667 -148 177c-7.33301 9.33301 -11 17.666 -11 24.999c0 13.333 9.66699 20 29 20h49c4.66699 0 8.33398 -0.166992 11.001 -0.5
s5.66699 -0.666016 9 -0.999023s6.33301 -1.33301 9 -3l8 -5c2.66699 -1.66699 5.83398 -4.5 9.50098 -8.5l10.5 -11.5c3.33301 -3.66699 7.83301 -9.33398 13.5 -17.001l16.5 -21.5l22 -28.5l27 -34.5c53.333 72 83.333 111 90 117c11.333 9.33301 25 14 41 14h49
c19.333 0 29 -6.66699 29 -20c0 -7.33301 -3.66699 -15.666 -11 -24.999c-88 -108 -135.667 -167 -143 -177c30.667 -34 85 -98.667 163 -194c6 -7.33301 9 -14 9 -20c0 -14.667 -10 -22 -30 -22h-51c-16 0 -28.333 4.16699 -37 12.5s-29.334 36.166 -62.001 83.499l-47 68
c-61.333 -91.333 -94.666 -140 -99.999 -146c-14 -12 -27.667 -18 -41 -18h-49c-20.667 -0 -31 7.33301 -31 22z" />
    <glyph glyph-name="y" unicode="y" horiz-adv-x="500" 
d="M30 433c0 16.667 11.335 24.9941 34.002 24.9941h34c24 0 42 -8 54 -24c3.33301 -3.33301 13.166 -22.166 29.499 -56.499s33.833 -75.666 52.5 -123.999s30.334 -87.166 35.001 -116.499c2.66699 34.667 27.667 122.334 75 263.001c9.33301 25.333 17.666 41 24.999 47
c9.33301 7.33301 22.666 11 39.999 11h28c23.333 0 35 -9 35 -27c0 -4.66699 -1.33301 -11 -4 -19l-155 -451c-8.66699 -24.667 -15.334 -41.667 -20.001 -51c-38.667 -77.333 -95.334 -116 -170.001 -116c-42 0 -67.333 4.33301 -76 13
c-3.33301 3.33301 -6.66602 26.333 -9.99902 69c-0.666992 12.667 1 21 5 25l5 2h4c2.66699 -0.666992 7.83398 -3.16699 15.501 -7.5s16.5 -8 26.5 -11s21 -4.5 33 -4.5c14 0 26.167 3 36.5 9s18.666 14.333 24.999 25s11.833 21.834 16.5 33.501s9 23.834 13 36.501
c1.33301 4.66699 2.33301 8.33398 3 11.001c0.666992 6 -0.666016 12.333 -3.99902 19l-177 391c-6 13.333 -9 22.666 -9 27.999z" />
    <glyph glyph-name="z" unicode="z" horiz-adv-x="476" 
d="M30 41c0 14.667 8.00098 31.6689 24.001 51.002l233 293l-198 -2c-12 0 -21.5 2.66699 -28.5 8s-11.333 10.333 -13 15s-2.5 9.66699 -2.5 15s0.833008 10.333 2.5 15s6 9.5 13 14.5s16.5 7.5 28.5 7.5h309c12.667 0 22.667 -3.66699 30 -11s11 -17.333 11 -30
c0 -7.33301 -1.5 -14.333 -4.5 -21s-5 -10.834 -6 -12.501s-5.5 -7.16699 -13.5 -16.5l-233 -293l217 2c28 -0.666992 42 -13.334 42 -38.001c0 -25.333 -14.333 -38 -43 -38h-324c-28.667 0 -43.334 13.667 -44.001 41z" />
    <glyph glyph-name="braceleft" unicode="{" 
d="M55 236l0.000976562 29.9961c0 6.66699 1.33301 11.5 4 14.5s5.66699 4.83301 9 5.5s9.16602 1.33398 17.499 2.00098s16.166 1.66699 23.499 3c26.667 6 48.5 16.5 65.5 31.5s27.167 32.167 30.5 51.5c0.666992 2.66699 1 12 1 28v216c0 26 7.16699 48.333 21.5 67
s33.5 32.334 57.5 41.001s47.667 14.834 71 18.501s48.333 5.5 75 5.5h39c12 0 19 -2.16699 21 -6.5s3 -18.166 3 -41.499c0 -10.667 -2.33301 -18 -7 -22l-4 -2c-5.33301 -0.666992 -14.833 -1.33398 -28.5 -2.00098s-25.334 -1.66699 -35.001 -3
s-20.167 -3.33301 -31.5 -6s-20.666 -7 -27.999 -13s-12.333 -13.333 -15 -22c-1.33301 -5.33301 -2 -14 -2 -26v-202c0 -15.333 -1 -28.166 -3 -38.499s-6.83301 -23.333 -14.5 -39s-21.167 -30 -40.5 -43s-44 -24.167 -74 -33.5c34.667 -9.33301 63.5 -24 86.5 -44
s37.167 -43.333 42.5 -70c2 -8.66699 3 -22 3 -40v-209c0 -13.333 2.16699 -24 6.5 -32s13.833 -14.667 28.5 -20c20.667 -8 44.667 -12 72 -12c2 0 4.33301 0.166992 7 0.5s4.66699 0.5 6 0.5c15.333 0 24.333 -2 27 -6s4 -15 4 -33v-10c0 -10 -1.66699 -16.667 -5 -20
s-8.66602 -5 -15.999 -5h-38c-20 0 -39.5 1.16699 -58.5 3.5s-41.667 6.66602 -68 12.999s-48.5 17.5 -66.5 33.5s-29.333 35.667 -34 59c-1.33301 6.66699 -2 16.667 -2 30v206c0 18.667 -0.666992 30.334 -2 35.001c-5.33301 22 -19 40.667 -41 56s-49.333 24.333 -82 27
l-16 2l-4 2l-4 5c-1.33301 5.33301 -2 10 -2 14z" />
    <glyph glyph-name="bar" unicode="|" horiz-adv-x="305" 
d="M110 -200l-0.000976562 900.001c0 18.667 4.83301 31.5 14.5 38.5s18.834 10.5 27.501 10.5c5.33301 0 10.666 -0.833008 15.999 -2.5s10.833 -6.5 16.5 -14.5s8.5 -18.667 8.5 -32v-901c0 -13.333 -3 -23.833 -9 -31.5s-11.5 -12.334 -16.5 -14.001
s-10.167 -2.5 -15.5 -2.5s-10.666 1 -15.999 3s-11 6.83301 -17 14.5s-9 18.167 -9 31.5z" />
    <glyph glyph-name="braceright" unicode="}" 
d="M55 -202c0 10 2.33203 17.335 6.99902 22.002l4 2c5.33301 0.666992 15 1.33398 29 2.00098s25.833 1.66699 35.5 3s20.334 3.33301 32.001 6s21.167 7 28.5 13s12 13.333 14 22c0.666992 2.66699 1 11.334 1 26.001v213c0 67.333 44 115 132 143
c-34.667 9.33301 -63.5 24 -86.5 44s-37.167 43.333 -42.5 70c-2 8.66699 -3 22 -3 40v209c0 12.667 -2.33301 23.167 -7 31.5s-14 15.166 -28 20.499c-20.667 8 -43 12 -67 12c-3.33301 0 -7.83301 -0.166992 -13.5 -0.5s-9.5 -0.5 -11.5 -0.5
c-8.66699 0 -14.834 1.83301 -18.501 5.5s-5.5 11.167 -5.5 22.5v13v8c0 4 0.166992 6.66699 0.5 8s0.666016 3.33301 0.999023 6s1 4.33398 2 5.00098s2.33301 1.66699 4 3s3.66699 2.16602 6 2.49902s5.16602 0.5 8.49902 0.5h19l66 -2
c34 -2.66699 63.167 -8.5 87.5 -17.5s42.333 -18.167 54 -27.5s20.667 -20.833 27 -34.5s10 -24.167 11 -31.5s1.5 -16 1.5 -26v-206c0 -18.667 0.666992 -30.334 2 -35.001c5.33301 -22 19 -40.667 41 -56s49.333 -24.333 82 -27l16 -2l4 -2l4 -5
c1.33301 -5.33301 2 -10 2 -14v-30c0 -6.66699 -1.16699 -11.5 -3.5 -14.5s-5.16602 -4.66699 -8.49902 -5s-9.33301 -0.833008 -18 -1.5s-16.667 -2 -24 -4c-22.667 -5.33301 -43.167 -15 -61.5 -29s-29.5 -32 -33.5 -54c-1.33301 -6 -2 -15.333 -2 -28v-216
c0 -26 -7.16699 -48.333 -21.5 -67s-33.666 -32.334 -57.999 -41.001s-48.166 -14.834 -71.499 -18.501s-48.333 -5.5 -75 -5.5h-40c-10 0 -16.167 2.33301 -18.5 7s-3.5 14 -3.5 28v13z" />
    <glyph glyph-name="asciitilde" unicode="~" horiz-adv-x="672" 
d="M91 601c0 28.667 13.001 55.668 39.001 81.001s60.333 38 103 38c36 0 75.333 -10.833 118 -32.5s72 -32.5 88 -32.5c15.333 0 29.666 4 42.999 12s21.333 19 24 33c2.66699 10.667 6 16.667 10 18c2.66699 1.33301 6 2 10 2h33c13.333 0 20 -6 20 -18
c0 -28.667 -12.833 -55.834 -38.5 -81.501s-60.167 -38.5 -103.5 -38.5c-36 0 -75.333 10.833 -118 32.5s-72 32.5 -88 32.5c-15.333 0 -29.5 -4.16699 -42.5 -12.5s-20.833 -19.5 -23.5 -33.5c-2 -8.66699 -4.66699 -14 -8 -16s-11 -3 -23 -3h-21
c-14.667 0 -22 6.33301 -22 19z" />
    <glyph glyph-name="uni00A0" unicode="&#xa0;" horiz-adv-x="367" 
 />
    <glyph glyph-name="exclamdown" unicode="&#xa1;" horiz-adv-x="367" 
d="M117 -174l13 474.999c0 12.667 2.33301 22 7 28c4 2 8.66699 3 14 3h59c16 0 24.333 -6.33301 25 -19l13 -470v-9v-6c0 -2.66699 -0.166992 -4.5 -0.5 -5.5s-0.5 -2.5 -0.5 -4.5s-0.166992 -3.16699 -0.5 -3.5s-0.666016 -1.16602 -0.999023 -2.49902
s-1 -2.16602 -2 -2.49902s-2 -1 -3 -2s-2.16699 -1.5 -3.5 -1.5s-2.83301 -0.166992 -4.5 -0.5s-3.83398 -0.5 -6.50098 -0.5h-86c-9.33301 0 -15.5 1.66699 -18.5 5s-4.5 8.66602 -4.5 15.999zM117 441.999v38.001c0 15.333 3 27.166 9 35.499s18.667 12.5 38 12.5h43
c27.333 0 41 -15.333 41 -46v-39c0 -8.66699 -0.333008 -15.5 -1 -20.5s-4.66699 -10.667 -12 -17s-18.333 -9.5 -33 -9.5c-2 0 -4.5 0.166992 -7.5 0.5s-5.16699 0.5 -6.5 0.5h-24c-14.667 0 -26.167 3 -34.5 9s-12.5 18 -12.5 36z" />
    <glyph glyph-name="cent" unicode="&#xa2;" 
d="M36 231c0 40 5.82715 75.0029 17.4941 105.003s25.334 53.167 41.001 69.5s35.334 29.833 59.001 40.5s43.667 17.5 60 20.5s34.5 5.5 54.5 7.5v38c0 12.667 1.33301 21.667 4 27c6.66699 14 17.334 21 32.001 21c14 0 24.667 -6 32 -18c3.33301 -6 5 -15.667 5 -29v-38
c32.667 -2 62.834 -6.83301 90.501 -14.5s46.834 -14.334 57.501 -20.001s17.334 -9.83398 20.001 -12.501c1.33301 -2.66699 2 -6 2 -10c0 -2 -0.333008 -5 -1 -9s-2 -10.667 -4 -20s-3.66699 -19 -5 -29c-2.66699 -13.333 -7 -20 -13 -20c-5.33301 0 -13.333 4 -24 12
s-26.5 16.667 -47.5 26s-46.167 15.333 -75.5 18v-327c31.333 3.33301 58.5 10.166 81.5 20.499s40.333 19.833 52 28.5s20.167 13 25.5 13c6.66699 0 11 -7 13 -21c2.66699 -30.667 4 -50 4 -58c0 -10 -6.33301 -17.667 -19 -23
c-0.666992 -0.666992 -10.667 -4.66699 -30 -12c-32 -12.667 -74.333 -21.667 -127 -27v-38c0 -32.667 -12 -49 -36 -49c-13.333 0 -23.666 6 -30.999 18c-4 6 -6 16.333 -6 31v38c-22 2 -41.833 4.83301 -59.5 8.5s-37.834 10.834 -60.501 21.501s-41.667 24.167 -57 40.5
s-28.333 39.166 -39 68.499s-16 63.333 -16 102zM172.994 232.003c0 -59.333 9.66797 -101 29.001 -125c0.666992 -0.666992 2.16699 -2.33398 4.5 -5.00098s4.16602 -4.5 5.49902 -5.5s3.5 -2.83301 6.5 -5.5s6 -4.83398 9 -6.50098s6.5 -3.5 10.5 -5.5
s8.5 -3.66699 13.5 -5s10.5 -2.66602 16.5 -3.99902v324c-22.667 -4 -41 -12 -55 -24s-23.667 -27.5 -29 -46.5s-8.5 -34.167 -9.5 -45.5s-1.5 -26.666 -1.5 -45.999z" />
    <glyph glyph-name="sterling" unicode="&#xa3;" horiz-adv-x="703" 
d="M60 55c0 27.333 12.9971 48.9961 38.9971 64.9961s60.667 24 104 24c14 0 24.667 -0.333008 32 -1l1 74v108h-45c-10 0 -16 1.83301 -18 5.5s-3 11.834 -3 24.501v7v18.5c0 2.33301 0.833008 5.5 2.5 9.5s4.33398 6.33301 8.00098 7s9.16699 1 16.5 1h39v135
c0 149.333 72.667 224 218 224c40 0 74.667 -11.667 104 -35s50.333 -50.666 63 -81.999s19 -63 19 -95c0 -21.333 -6 -36.5 -18 -45.5s-24.667 -13.5 -38 -13.5c-6 0 -11.667 0.833008 -17 2.5s-9.83301 3.66699 -13.5 6s-7 5 -10 8s-5.33301 6 -7 9s-3 5.83301 -4 8.5
s-1.83301 4.66699 -2.5 6l-1 3h-3c-14 0 -21.333 6 -22 18v16.5c0 8.33301 -0.166992 15 -0.5 20s-0.666016 11.667 -0.999023 20s-1 15.166 -2 20.499s-2.33301 11.5 -4 18.5s-3.66699 12.667 -6 17s-5.16602 8.5 -8.49902 12.5s-7.33301 7 -12 9s-10 3 -16 3
c-16 0 -29.5 -3.33301 -40.5 -10s-19 -14 -24 -22s-8.83301 -20.167 -11.5 -36.5s-4.16699 -28.666 -4.5 -36.999s-0.5 -22.166 -0.5 -41.499v-139h77c9.33301 -0.666992 14.833 -3.16699 16.5 -7.5s2.5 -13.833 2.5 -28.5c0 -19.333 -1.66699 -30.333 -5 -33
c-2.66699 -2.66699 -7.33398 -4 -14.001 -4h-77v-102c0 -47.333 -2.66699 -82.666 -8 -105.999v-1c78.667 -20 134.334 -30.333 167.001 -31c1.33301 11.333 2 22.5 2 33.5s0.166992 18.667 0.5 23s1.83301 7.83301 4.5 10.5c2 2 11.667 3.66699 29 5h80
c14.667 0 22 -6.33301 22 -19c0 -36 -15.833 -69.833 -47.5 -101.5s-74.167 -47.5 -127.5 -47.5c-16 0 -34.5 1.66699 -55.5 5s-38.667 6.66602 -53 9.99902l-51.5 12.5l-34 8.5c-34.667 -24 -82.667 -36 -144 -36c-34.667 0 -59.5 6.83301 -74.5 20.5
s-22.5 28.834 -22.5 45.501z" />
    <glyph glyph-name="currency" unicode="&#xa4;" horiz-adv-x="788" 
d="M35 -22c0 2.66699 0.166992 5.16699 0.5 7.5s1.16602 4.83301 2.49902 7.5s2.5 4.83398 3.5 6.50098s2.83301 4 5.5 7s4.5 5.16699 5.5 6.5s3.5 3.83301 7.5 7.5s6.66699 6.16699 8 7.5l71 71c-34 51.333 -51 116.666 -51 195.999c0 78 17 143.333 51 196l-86 86
c-12 12 -18 23.667 -18 35c0 10.667 4 20.167 12 28.5s18 12.5 30 12.5c9.33301 0 17.666 -2.83301 24.999 -8.5s25.333 -23.167 54 -52.5l42 -42h1c48.667 34 113.667 51 195 51c36 0 69.167 -3.83301 99.5 -11.5s50.166 -13.834 59.499 -18.501s21.666 -11.667 36.999 -21
l85 86c11.333 11.333 23.333 17 36 17c10.667 0 20.167 -3.83301 28.5 -11.5s12.5 -17.5 12.5 -29.5c0 -9.33301 -2.83301 -17.666 -8.5 -24.999s-23.167 -25.333 -52.5 -54l-42 -42v-1c34 -50 51 -114.667 51 -194c0 -84 -17 -149.333 -51 -196v-1
c58.667 -58.667 90 -90.667 94 -96c6 -8 9 -16.333 9 -25c0 -12 -4.16699 -22 -12.5 -30s-17.833 -12 -28.5 -12c-4 0 -7.83301 0.5 -11.5 1.5s-7.66699 3.16699 -12 6.5s-7.16602 5.66602 -8.49902 6.99902l-10 10l-8 8l-71 71
c-15.333 -9.33301 -27.666 -16.333 -36.999 -21s-29.166 -10.834 -59.499 -18.501s-63.5 -11.5 -99.5 -11.5c-81.333 0 -146.333 17 -195 51h-1l-25.5 -25.5l-21.5 -21.5l-16.5 -17c-5.66699 -6 -10.167 -10.5 -13.5 -13.5s-6.66602 -6.16699 -9.99902 -9.5
s-6.16602 -5.83301 -8.49902 -7.5l-7 -5c-2.33301 -1.66699 -4.5 -2.66699 -6.5 -3s-3.83301 -0.666016 -5.5 -0.999023s-3.83398 -0.5 -6.50098 -0.5c-12 0 -22 4.33301 -30 13s-12 18.334 -12 29.001zM171 294c0 -40.667 5.66797 -75.667 17.001 -105
s24.5 -51.333 39.5 -66s34 -26.167 57 -34.5s41.833 -13.166 56.5 -14.499s31.667 -2 51 -2h15c30 0 56.833 3.33301 80.5 10s45.5 18 65.5 34s35.5 39.167 46.5 69.5s16.5 66.833 16.5 109.5c0 40.667 -5.66699 75.667 -17 105s-24.333 51.333 -39 66
s-33.334 26.167 -56.001 34.5s-41.5 13.166 -56.5 14.499s-32.167 2 -51.5 2h-16c-30 0 -56.833 -3.33301 -80.5 -10s-45.5 -18 -65.5 -34s-35.5 -39.167 -46.5 -69.5s-16.5 -66.833 -16.5 -109.5z" />
    <glyph glyph-name="yen" unicode="&#xa5;" horiz-adv-x="733" 
d="M-33 214c0 24 15.333 36.001 46 36.001h284v28l-91 128h-189c-12 0 -22.667 2 -32 6c-12 9.33301 -18 19.666 -18 30.999c0 8 2.66699 15.333 8 22s12 11 20 13c2 0.666992 9.33301 1 22 1h138l-72 102c-28 40 -44.5 63.833 -49.5 71.5s-7.5 14.167 -7.5 19.5
c0 14.667 12.667 22 38 22h61c26.667 0 48.667 -9 66 -27c4.66699 -4.66699 49 -67.334 133 -188.001h99l70.5 102c36.333 52 57.833 81.333 64.5 88c18 16.667 41 25 69 25h48c22 0 33 -7.33301 33 -22c0 -4.66699 -3.66699 -12.667 -11 -24s-25 -36.666 -53 -75.999
l-66 -93h138c12 0 19.333 -0.333008 22 -1c8 -2 14.667 -6.33301 20 -13s8 -14 8 -22c0 -11.333 -6 -21.666 -18 -30.999c-9.33301 -4 -20 -6 -32 -6h-189l-29.5 -42.5l-23 -32l-16 -22c-5 -7 -8.66699 -12.333 -11 -16l-6.5 -10.5c-2 -3.33301 -3.16699 -6 -3.5 -8
s-0.666016 -3.83301 -0.999023 -5.5s-0.5 -3.83398 -0.5 -6.50098v-13h284c30.667 0 46 -12 46 -36c-0.666992 -24.667 -16.334 -37 -47.001 -37h-283v-132c0 -30 -14.667 -45 -44 -45h-49c-18.667 0 -31 4 -37 12s-9 19.333 -9 34v131h-279c-34 0 -51 12.333 -51 37z
M372 406.001l1 -3l2 3h-3z" />
    <glyph glyph-name="brokenbar" unicode="&#xa6;" horiz-adv-x="183" 
d="M49 131c0 14.667 4.50098 26 13.501 34s18.5 12 28.5 12c5.33301 0 10.666 -1 15.999 -3s10.833 -7.16699 16.5 -15.5s8.5 -19.5 8.5 -33.5v-322c0 -34.667 -13.667 -52 -41 -52c-6 0 -11.667 0.833008 -17 2.5s-10.833 6.66699 -16.5 15s-8.5 19.5 -8.5 33.5v329z
M49.001 375l0.000976562 328.999c0 14.667 4.5 25.834 13.5 33.501s18.5 11.5 28.5 11.5c6 0 11.5 -0.833008 16.5 -2.5s10.333 -6.66699 16 -15s8.5 -19.5 8.5 -33.5v-322c0 -35.333 -13.667 -53 -41 -53c-5.33301 0 -10.833 1 -16.5 3s-11.334 7.16699 -17.001 15.5
s-8.5 19.5 -8.5 33.5z" />
    <glyph glyph-name="section" unicode="&#xa7;" horiz-adv-x="533" 
d="M49 -118c0 6 4.33301 31.6709 13 77.0039c1.33301 6 4 11 8 15l5 1c4.66699 -0.666992 8.5 -2.66699 11.5 -6s7.16699 -9.5 12.5 -18.5s12 -17.5 20 -25.5c36 -38.667 83.333 -58 142 -58c30.667 0 54 10.833 70 32.5s24 44.167 24 67.5
c0 18.667 -6.83301 33.667 -20.5 45s-35.5 22.833 -65.5 34.5s-50.333 20.5 -61 26.5c-88.667 49.333 -133 114.666 -133 195.999c0 55.333 24 101 72 137c-48 45.333 -72 95.666 -72 150.999c0 49.333 18.667 91 56 125s83.333 51 138 51c64 0 120.667 -18 170 -54
c8 -6 12 -12.333 12 -19c0 -5.33301 -4 -29.666 -12 -72.999c-0.666992 -4.66699 -3.33398 -9.33398 -8.00098 -14.001l-5 -2c-4 0.666992 -6.66699 1.66699 -8 3s-4.66602 5.66602 -9.99902 12.999c-34.667 48.667 -80.667 73 -138 73c-30.667 0 -54 -10.667 -70 -32
s-24 -43.666 -24 -66.999c0 -18.667 6.83301 -33.834 20.5 -45.501s36 -23.5 67 -35.5s52.167 -21.333 63.5 -28c34 -18.667 64 -44.334 90 -77.001s39 -71.667 39 -117c0 -56.667 -23.667 -102.334 -71 -137.001c47.333 -45.333 71 -95.666 71 -150.999
c0 -48 -18.167 -89.333 -54.5 -124s-82.833 -52 -139.5 -52c-66 0 -125.333 17.333 -178 52c-23.333 15.333 -35 27.333 -35 36zM176 272.004c0 -14 4.67188 -26.334 14.0049 -37.001s19.166 -18.667 29.499 -24s26.166 -12.166 47.499 -20.499s36.666 -14.833 45.999 -19.5
c28 24 42 51.667 42 83c0 14.667 -4.83301 27.5 -14.5 38.5s-19.834 19.167 -30.501 24.5s-26.334 12.166 -47.001 20.499s-35.667 14.833 -45 19.5c-28 -23.333 -42 -51.666 -42 -84.999z" />
    <glyph glyph-name="dieresis" unicode="&#xa8;" 
d="M97 597l0.00195312 52.999c0 29.333 15.667 44 47 44h49c15.333 0 26.833 -3.33301 34.5 -10s11.5 -19 11.5 -37v-49c0 -5.33301 -0.333008 -10 -1 -14s-1.83398 -7.5 -3.50098 -10.5l-4.5 -8c-1.33301 -2.33301 -3.33301 -4.16602 -6 -5.49902
s-4.83398 -2.5 -6.50098 -3.5s-4 -1.83301 -7 -2.5s-5.16699 -1 -6.5 -1s-3.33301 -0.333008 -6 -1h-4h-51c-30.667 0 -46 15 -46 45zM310.002 598.999l-0.00292969 47c0 14 2.66699 24.833 8 32.5s10.5 12 15.5 13s12.5 1.83301 22.5 2.5h50c30.667 0 46 -15 46 -45v-54
c0 -6 -0.666992 -11.5 -2 -16.5s-3.16602 -8.83301 -5.49902 -11.5s-4.66602 -5 -6.99902 -7s-5.16602 -3.5 -8.49902 -4.5s-6 -1.66699 -8 -2s-4.66699 -0.833008 -8 -1.5h-5h-52c-14.667 0 -26 3.16699 -34 9.5s-12 18.833 -12 37.5z" />
    <glyph glyph-name="copyright" unicode="&#xa9;" horiz-adv-x="1222" 
d="M60 251c0 55.333 4.82715 106.668 14.4941 154.001s27.334 94.166 53.001 140.499s58.5 85.666 98.5 117.999s92.667 58.5 158 78.5s140.333 30 225 30c85.333 0 160.666 -9.83301 225.999 -29.5s118 -45.667 158 -78s72.833 -71.666 98.5 -117.999
s43.334 -93.5 53.001 -141.5s14.5 -100 14.5 -156c0 -46 -3.5 -89.167 -10.5 -129.5s-18.333 -80.666 -34 -120.999s-37.667 -76.333 -66 -108s-62.166 -60 -101.499 -85s-87.666 -44.167 -144.999 -57.5s-121.666 -20 -192.999 -20c-84.667 0 -159.667 10 -225 30
s-118.166 46.167 -158.499 78.5s-73.166 71.666 -98.499 117.999s-42.833 93.333 -52.5 141s-14.5 99.5 -14.5 155.5zM142.994 250.002c0 -68 8.33691 -128.001 25.0039 -180.001s38.834 -94.167 66.501 -126.5s62 -58.666 103 -78.999s83.167 -34.333 126.5 -42
s91.666 -11.5 144.999 -11.5c54 0 103 3.83301 147 11.5s86.333 21.667 127 42s74.667 46.833 102 79.5s49.166 75 65.499 127s24.5 112.333 24.5 181c0 68 -8.33301 127.833 -25 179.5s-38.834 93.5 -66.501 125.5s-61.834 58.167 -102.501 78.5
s-82.834 34.333 -126.501 42s-91.834 11.5 -144.501 11.5c-73.333 0 -137.666 -7.66699 -192.999 -23s-104 -39.833 -146 -73.5s-73.833 -79.167 -95.5 -136.5s-32.5 -126 -32.5 -206zM303.998 243.001c0 34 5.83301 65.666 17.5 94.999s22.5 49.833 32.5 61.5
s20 21.834 30 30.501c60.667 52 159.667 78 297 78c49.333 0 97.333 -6.66699 144 -20c14.667 -4 22 -10.667 22 -20c-8 -72 -16.667 -110 -26 -114c-0.666992 -0.666992 -2.33398 -1 -5.00098 -1c-4 0 -9.33301 2.83301 -16 8.5l-21.5 19
c-7.66699 7 -20.167 13.333 -37.5 19s-37.333 8.5 -60 8.5c-156.667 0 -235 -55 -235 -165s81 -165 243 -165c32 0 58.833 4 80.5 12s37.667 16 48 24s17.5 12 21.5 12c8 0 13 -8 15 -24c0.666992 -4.66699 1.33398 -14 2.00098 -28c1.33301 -12 2.33301 -22 3 -30v-10
c0 -2.66699 -0.5 -5.16699 -1.5 -7.5s-2 -4.16602 -3 -5.49902s-2.83301 -2.83301 -5.5 -4.5s-5 -3 -7 -4s-5.16699 -2.5 -9.5 -4.5l-10.5 -5c-38 -16.667 -85 -25 -141 -25c-146 0 -249 30 -309 90c-45.333 45.333 -68 103.666 -68 174.999z" />
    <glyph glyph-name="ordfeminine" unicode="&#xaa;" horiz-adv-x="489" 
d="M24 255c0 8 2.66895 15.332 8.00195 21.999s11.666 11 18.999 13c5.33301 1.33301 13.666 2 24.999 2h343c28.667 0 43 -12.333 43 -37c0 -23.333 -14.333 -35.333 -43 -36h-351c-12 0 -21.5 2.5 -28.5 7.5s-11.333 9.83301 -13 14.5s-2.5 9.33398 -2.5 14.001z
M30.002 468.999c0 17.333 6.16895 29.999 18.502 37.999s29.166 14.333 50.499 19c46 10 101.667 15 167 15v10v35c0 8 -0.333008 18.5 -1 31.5s-1.83398 23 -3.50098 30s-3.66699 14.5 -6 22.5s-5.5 14 -9.5 18s-9 6.66699 -15 8
c-4 0.666992 -13.667 0.333984 -29 -0.999023c-21.333 -3.33301 -39.5 -10.5 -54.5 -21.5s-26.833 -22.167 -35.5 -33.5s-14.667 -17.666 -18 -18.999l-5 -1l-5 3c-3.33301 3.33301 -6 11.666 -8 24.999s-3.33301 25.666 -4 36.999v17c0 14 16.667 28.333 50 43
s69.333 22 108 22c64 0 108.833 -17.167 134.5 -51.5s38.5 -81.166 38.5 -140.499v-149c0 -7.33301 -0.166992 -13 -0.5 -17s-1.83301 -9.16699 -4.5 -15.5s-7.33398 -11 -14.001 -14s-15.334 -4.5 -26.001 -4.5h-42c-25.333 0 -40.666 10.667 -45.999 32
c-37.333 -28.667 -74.666 -43 -111.999 -43c-38 0 -68.833 11 -92.5 33s-35.5 46 -35.5 72zM161.004 469.998c4.66699 -22 17.334 -33 38.001 -33c23.333 0 43.333 15 60 45c-44.667 -1.33301 -77.334 -5.33301 -98.001 -12z" />
    <glyph glyph-name="guillemotleft" unicode="&#xab;" horiz-adv-x="733" 
d="M75 250c0 4.66699 4.99805 11.9971 14.998 21.9971l221 214c0.666992 0.666992 1.83398 1.66699 3.50098 3s2.66699 2.33301 3 3s1.16602 1.5 2.49902 2.5s2.5 1.66699 3.5 2s2.16699 0.833008 3.5 1.5s2.83301 1 4.5 1s3.33398 0.166992 5.00098 0.5
s3.83398 0.5 6.50098 0.5h22c12.667 0 20.667 -3.66699 24 -11v-4c-2 -7.33301 -60.667 -85.333 -176 -234v-2l171 -224c2.66699 -4 4.33398 -7.33301 5.00098 -10v-4c-2.66699 -7.33301 -10.334 -11 -23.001 -11h-23c-6 0 -11.167 0.833008 -15.5 2.5
s-6.83301 2.83398 -7.5 3.50098s-3.66699 3.33398 -9 8.00098l-220 213c-10.667 10.667 -16 18.334 -16 23.001zM305.998 250.997c0 4 5.33105 10.998 15.998 20.998l221 214c0.666992 0.666992 1.83398 1.66699 3.50098 3s2.66699 2.33301 3 3s1.16602 1.5 2.49902 2.5
s2.5 1.66699 3.5 2s2.16699 0.833008 3.5 1.5s2.83301 1 4.5 1s3.33398 0.166992 5.00098 0.5s3.83398 0.5 6.50098 0.5h23c6 0 10.667 -0.5 14 -1.5s5.33301 -2 6 -3s1.66699 -3.16699 3 -6.5v-4c-2 -7.33301 -60.667 -85.333 -176 -234v-2l171 -224
c2.66699 -4 4.33398 -7.33301 5.00098 -10v-4c-2.66699 -7.33301 -10.334 -11 -23.001 -11h-23c-6 0 -11.167 0.833008 -15.5 2.5s-6.83301 2.83398 -7.5 3.50098s-3.66699 3.33398 -9 8.00098l-220 213c-11.333 11.333 -17 19.333 -17 24z" />
    <glyph glyph-name="logicalnot" unicode="&#xac;" horiz-adv-x="733" 
d="M60 354c0 5.33301 1.00098 10.668 3.00098 16.001s7 11 15 17s18.667 9 32 9h510c34 0 51 -16.333 51 -49v-232c0 -34.667 -14 -52 -42 -52c-10.667 0 -19.834 3.66699 -27.501 11s-12.167 15.666 -13.5 24.999c-0.666992 6 -1 15 -1 27v186h-473c-36 0 -54 14 -54 42z
" />
    <glyph glyph-name="uni00AD" unicode="&#xad;" horiz-adv-x="183" 
d="M12 229c0 24 14.999 36.001 44.999 36.001h203c29.333 0 44 -12 44 -36c0 -4.66699 -0.666992 -9.33398 -2 -14.001s-5.66602 -9.5 -12.999 -14.5s-17 -7.5 -29 -7.5h-204c-17.333 0 -29 4 -35 12s-9 16 -9 24z" />
    <glyph glyph-name="registered" unicode="&#xae;" horiz-adv-x="1222" 
d="M60 251c0 55.333 4.82715 106.668 14.4941 154.001s27.334 94.166 53.001 140.499s58.5 85.666 98.5 117.999s92.667 58.5 158 78.5s140.333 30 225 30c85.333 0 160.666 -9.83301 225.999 -29.5s118 -45.667 158 -78s72.833 -71.666 98.5 -117.999
s43.334 -93.5 53.001 -141.5s14.5 -100 14.5 -156c0 -46 -3.5 -89.167 -10.5 -129.5s-18.333 -80.666 -34 -120.999s-37.667 -76.333 -66 -108s-62.166 -60 -101.499 -85s-87.666 -44.167 -144.999 -57.5s-121.666 -20 -192.999 -20c-84.667 0 -159.667 10 -225 30
s-118.166 46.167 -158.499 78.5s-73.166 71.666 -98.499 117.999s-42.833 93.333 -52.5 141s-14.5 99.5 -14.5 155.5zM142.994 250.002c0 -68 8.33691 -128.001 25.0039 -180.001s38.834 -94.167 66.501 -126.5s62 -58.666 103 -78.999s83.167 -34.333 126.5 -42
s91.666 -11.5 144.999 -11.5c54 0 103 3.83301 147 11.5s86.333 21.667 127 42s74.667 46.833 102 79.5s49.166 75 65.499 127s24.5 112.333 24.5 181c0 68 -8.33301 127.833 -25 179.5s-38.834 93.5 -66.501 125.5s-61.834 58.167 -102.501 78.5
s-82.834 34.333 -126.501 42s-91.834 11.5 -144.501 11.5c-73.333 0 -137.666 -7.66699 -192.999 -23s-104 -39.833 -146 -73.5s-73.833 -79.167 -95.5 -136.5s-32.5 -126 -32.5 -206zM364.998 46.001l-0.00292969 390.998c0 10 0.666992 18 2 24s5.5 11.667 12.5 17
s17.167 8 30.5 8h238c105.333 0 179 -17.333 221 -52c30.667 -26 46 -57.333 46 -94c0 -18.667 -4.83301 -35.667 -14.5 -51s-20.167 -27.166 -31.5 -35.499s-25.666 -15.666 -42.999 -21.999s-29.666 -10.333 -36.999 -12s-16 -3.16699 -26 -4.5l78 -92
c38.667 -45.333 61.334 -72.333 68.001 -81s10 -15.334 10 -20.001c0 -7.33301 -2.5 -12.666 -7.5 -15.999s-9.5 -5.16602 -13.5 -5.49902s-10 -0.5 -18 -0.5h-44c-15.333 0 -26.5 2.16699 -33.5 6.5s-15.167 12.166 -24.5 23.499l-145 177h-129v-159
c0 -32 -14.667 -48 -44 -48h-49c-17.333 0 -29.333 3.83301 -36 11.5s-10 19.167 -10 34.5zM503.995 279.999l116.001 -0.000976562c1.33301 0 3.66602 -0.166992 6.99902 -0.5s6 -0.5 8 -0.5c50.667 0 87.667 4.33301 111 13s35 24.667 35 48
c0 24.667 -12.333 40.834 -37 48.501s-62 11.5 -112 11.5h-128v-120z" />
    <glyph glyph-name="macron" unicode="&#xaf;" 
d="M76 675v15.002c0 9.33301 1.33301 16.166 4 20.499s8.66699 6.5 18 6.5h353c10.667 0 17 -2.33301 19 -7s3 -14.667 3 -30v-26c0 -14.667 -6.33301 -22.334 -19 -23.001h-356c-11.333 0 -17.833 2 -19.5 6s-2.5 16.667 -2.5 38z" />
    <glyph glyph-name="degree" unicode="&#xb0;" horiz-adv-x="367" 
d="M60 571c0 40 11 70.5 33 91.5s51.667 31.5 89 31.5s67 -10.667 89 -32s33 -51.333 33 -90c0 -39.333 -11 -69.5 -33 -90.5s-51.667 -31.5 -89 -31.5c-39.333 0 -69.5 11 -90.5 33s-31.5 51.333 -31.5 88zM144 572c0 -15.333 3 -25.501 9 -30.501s15.333 -7.83301 28 -8.5
c8.66699 0.666992 15 1.33398 19 2.00098s8.5 4 13.5 10s7.5 15 7.5 27c0 26 -12.333 39 -37 39c-14 0 -24.167 -2.5 -30.5 -7.5s-9.5 -15.5 -9.5 -31.5z" />
    <glyph glyph-name="plusminus" unicode="&#xb1;" horiz-adv-x="855" 
d="M60 342c0 5.33301 1 10.666 3 15.999s7.16699 10.833 15.5 16.5s19.166 8.5 32.499 8.5h274v275c0 33.333 13.667 50 41 50c28 0 42 -17.667 42 -53v-272h272c34.667 0 52 -14 52 -42c0 -5.33301 -0.833008 -10.666 -2.5 -15.999s-6.66699 -10.833 -15 -16.5
s-19.166 -8.5 -32.499 -8.5h-274v-241h272c34.667 0 52 -14.333 52 -43c0 -27.333 -17.667 -41 -53 -41h-629c-10.667 0 -19.5 1.5 -26.5 4.5s-12 7.16699 -15 12.5s-5 9.83301 -6 13.5s-1.5 7.16699 -1.5 10.5c0 28.667 16.667 43 50 43h274v241h-273
c-34.667 0 -52 14 -52 42z" />
    <glyph glyph-name="twosuperior" unicode="&#xb2;" horiz-adv-x="489" 
d="M47 722c0 4.66699 4.00098 9.66309 12.001 14.9961c51.333 23.333 106.666 35 165.999 35c72 0 124.5 -15.333 157.5 -46s49.5 -64.667 49.5 -102c0 -23.333 -7 -40.833 -21 -52.5s-42.167 -26.5 -84.5 -44.5s-80.5 -37.667 -114.5 -59h57l111 1h7
c8 0 14.833 -0.666992 20.5 -2s11.167 -5.66602 16.5 -12.999s8 -17.333 8 -30v-18c0 -30 -14.667 -45 -44 -45h-293c-27.333 0 -41 15.667 -41 47v15c0 6.66699 3.33301 12.834 10 18.501s27 19.167 61 40.5l112 72c34 22 52.667 43 56 63v10
c-0.666992 5.33301 -2.66699 10.833 -6 16.5s-11.5 11.834 -24.5 18.501s-29.833 10 -50.5 10c-20 0 -37.333 -2.5 -52 -7.5s-26 -10 -34 -15s-13.667 -7.5 -17 -7.5c-6 0 -13.333 6 -22 18c-26.667 36.667 -40 57.334 -40 62.001z" />
    <glyph glyph-name="threesuperior" unicode="&#xb3;" horiz-adv-x="489" 
d="M46 360c0 0.666992 0.665039 5.99805 1.99805 15.998s3.16602 21 5.49902 33s4.5 19.667 6.5 23l4 4l6 2c49.333 4.66699 96.333 7 141 7h23c22 0 38.333 2.83301 49 8.5s16 16.5 16 32.5c0 18 -6 29.667 -18 35s-28.667 8 -50 8h-23c-10 0 -16.667 1.5 -20 4.5
s-5.33301 8.83301 -6 17.5v26c0 12.667 1.83301 20 5.5 22s17.167 4 40.5 6c12 2 22.667 7.16699 32 15.5s14 19.166 14 32.499c0 12.667 -3.66699 20.834 -11 24.501s-18.333 5.5 -33 5.5c-20.667 0 -39.834 -1.83301 -57.501 -5.5s-31.667 -7.16699 -42 -10.5
s-16.833 -5 -19.5 -5c-5.33301 0 -12.166 5.5 -20.499 16.5s-15.166 22.167 -20.499 33.5l-8 16v4l1 4c6.66699 8 28 16 64 24s71.667 12 107 12c67.333 0 113.666 -11.833 138.999 -35.5s38 -51.5 38 -83.5c0 -16 -3.66699 -30.5 -11 -43.5s-13.5 -21.667 -18.5 -26
s-12.833 -10.166 -23.5 -17.499c55.333 -16.667 83 -43.667 83 -81c0 -40.667 -15.667 -72.667 -47 -96c-11.333 -8.66699 -23 -15.667 -35 -21s-27.833 -9.16602 -47.5 -11.499s-34.667 -4 -45 -5s-31.166 -1.66699 -62.499 -2s-52.666 -0.833008 -63.999 -1.5
c-45.333 -1.33301 -68.666 -2 -69.999 -2c-10 0 -16.5 0.833008 -19.5 2.5s-4.5 5.5 -4.5 11.5z" />
    <glyph glyph-name="acute" unicode="&#xb4;" 
d="M209 540c0 1.33301 0.333984 2.66602 1.00098 3.99902s1.66699 3.16602 3 5.49902l4.5 7.5c1.66699 2.66699 4.16699 6 7.5 10l10 12.5l12.5 16.5c5 6.66699 10 13 15 19s11.167 13.833 18.5 23.5l21 27.5c7.33301 8.66699 16 13 26 13h87c8 0 15.333 -1.66699 22 -5
l3 -5v-4c-0.666992 -4.66699 -9.33398 -13.667 -26.001 -27c-5.33301 -3.33301 -9.33301 -6.33301 -12 -9l-63 -49c-33.333 -26 -53.333 -41.167 -60 -45.5s-14 -6.5 -22 -6.5h-26c-0.666992 0 -2.5 0.166992 -5.5 0.5s-5.16699 0.5 -6.5 0.5s-2.83301 0.333008 -4.5 1
s-3 1.83398 -4 3.50098s-1.5 3.83398 -1.5 6.50098z" />
    <glyph glyph-name="uni00B5" unicode="&#xb5;" horiz-adv-x="561" 
d="M59 -150l-0.00195312 562.001c0 30.667 14.667 46 44 46h46c14.667 0 25.667 -3 33 -9s11.333 -11.167 12 -15.5s1.33398 -11.166 2.00098 -20.499v-267c0 -2.66699 -0.166992 -6.33398 -0.5 -11.001s-0.5 -8.33398 -0.5 -11.001c0 -29.333 3.83301 -49 11.5 -59
s25.167 -15 52.5 -15c26.667 0 50.834 9.66699 72.501 29s32.5 53.333 32.5 102v225c0 8 0.333008 14 1 18s2.16699 9.16699 4.5 15.5s7 11 14 14s16.167 4.5 27.5 4.5h44c29.333 0 44.333 -14 45 -42v-373c0 -28.667 -15 -43 -45 -43h-47c-27.333 0 -41 14.667 -41 44
c-38.667 -36.667 -85.667 -55 -141 -55h-30v-138c0 -17.333 -3.83301 -29.333 -11.5 -36s-19.5 -10 -35.5 -10h-46c-29.333 0 -44 15 -44 45z" />
    <glyph glyph-name="paragraph" unicode="&#xb6;" horiz-adv-x="672" 
d="M60 473c0 29.333 6 58.168 18 86.501s29.167 54.833 51.5 79.5s52.5 44.667 90.5 60s80.667 23 128 23h242c13.333 0 24.166 -3 32.499 -9s13.333 -11.5 15 -16.5s2.5 -10.167 2.5 -15.5c0 -28 -17.667 -42 -53 -42h-39v-777c0 -10 -0.333008 -17.333 -1 -22
c-2 -10 -6.66699 -18.167 -14 -24.5s-16 -9.5 -26 -9.5s-19 3.16699 -27 9.5s-12.667 14.5 -14 24.5c-0.666992 4.66699 -1 12 -1 22v777h-77v-783c0 -13.333 -3 -24.166 -9 -32.499s-11.667 -13.333 -17 -15s-10.666 -2.5 -15.999 -2.5c-3.33301 0 -6.83301 0.5 -10.5 1.5
s-8.16699 3 -13.5 6s-9.5 8 -12.5 15s-4.5 15.833 -4.5 26.5v369l-1 1c-63.333 7.33301 -119.833 33.166 -169.5 77.499s-74.5 101.166 -74.5 170.499z" />
    <glyph glyph-name="periodcentered" unicode="&#xb7;" horiz-adv-x="225" 
d="M41 216v79.999c0 10.667 1.66699 17.5 5 20.5s9.33301 4.5 18 4.5h96c11.333 0 18 -2.16699 20 -6.5s3 -14.166 3 -29.499v-83c0 -10 -1.66699 -16.333 -5 -19s-9 -4 -17 -4h-97c-11.333 0 -18 2 -20 6s-3 14.333 -3 31z" />
    <glyph glyph-name="cedilla" unicode="&#xb8;" horiz-adv-x="489" 
d="M117 -179.5c0 1.66699 0.5 3.66895 1.5 6.00195s2.16699 4.66602 3.5 6.99902l6 10.5l8 13.5c2.66699 4.33301 6.5 10.166 11.5 17.499s9.66699 14.5 14 21.5l17.5 27.5l21 33c8.66699 13.333 17.334 20 26.001 20h27c16.667 0 25 -4.66699 25 -14
c0 -3.33301 -18.333 -49.333 -55 -138c-2.66699 -7.33301 -5.5 -12 -8.5 -14s-8.5 -3.33301 -16.5 -4h-62c-6.66699 0 -12.334 1.66699 -17.001 5l-2 4v4.5z" />
    <glyph glyph-name="onesuperior" unicode="&#xb9;" horiz-adv-x="489" 
d="M77 661c0 16 7.66699 27.3311 23 33.998c1.33301 0.666992 11 1.5 29 2.5s36.333 5.33301 55 13s36 20.167 52 37.5c9.33301 10.667 16.333 17.334 21 20.001s12.667 4 24 4h3c27.333 0 41 -15 41 -45v-293h38c14 0 24 -1.66699 30 -5c12 -7.33301 18 -18 18 -32
c0 -24 -14.667 -36 -44 -36h-231c-12 0 -21.5 2.5 -28.5 7.5s-11.333 9.83301 -13 14.5s-2.5 9.33398 -2.5 14.001c0 24.667 15 37 45 37h53v202c-26 -7.33301 -49.667 -11 -71 -11c-16 0 -27 4 -33 12s-9 16 -9 24z" />
    <glyph glyph-name="ordmasculine" unicode="&#xba;" horiz-adv-x="489" 
d="M24 255c0 8 2.66895 15.332 8.00195 21.999s11.666 11 18.999 13c5.33301 1.33301 13.666 2 24.999 2h343c28.667 0 43 -12.333 43 -37c0 -23.333 -14.333 -35.333 -43 -36h-351c-12 0 -21.5 2.5 -28.5 7.5s-11.333 9.83301 -13 14.5s-2.5 9.33398 -2.5 14.001z
M30.002 557.999c0 139.333 71.667 209 215 209c141.333 0 212 -70.667 212 -212c0 -122 -65.667 -185.667 -197 -191h-33c-131.333 5.33301 -197 70 -197 194zM166.002 559.999c0 -41.333 5 -71.333 15 -90s30.667 -28 62 -28c34 0 55.333 10.167 64 30.5
s13 56.166 13 107.499c0 38.667 -4.66699 67.334 -14 86.001s-30.333 28 -63 28c-17.333 0 -31.333 -2.66699 -42 -8s-18.5 -13.666 -23.5 -24.999s-8.16699 -22.833 -9.5 -34.5s-2 -26.834 -2 -45.501v-21z" />
    <glyph glyph-name="guillemotright" unicode="&#xbb;" horiz-adv-x="733" 
d="M111 11l0.00683594 4.00293c2 7.33301 60.667 85.333 176 234v2l-171 224c-2.66699 4 -4.33398 7.33301 -5.00098 10v4c1.33301 3.33301 2.33301 5.5 3 6.5s2.66699 2 6 3s8 1.5 14 1.5h23c3.33301 0 6.16602 -0.166992 8.49902 -0.5s4.5 -0.833008 6.5 -1.5
s3.66699 -1.33398 5 -2.00098s3.16602 -1.83398 5.49902 -3.50098s4.16602 -3.16699 5.49902 -4.5l6.5 -6.5l7.5 -7.5l207 -201c10.667 -10.667 16 -18.334 16 -23.001c0 -4 -5.33301 -11.333 -16 -22l-220 -214c-0.666992 -0.666992 -1.83398 -1.66699 -3.50098 -3
s-2.66699 -2.33301 -3 -3s-1.16602 -1.5 -2.49902 -2.5s-2.5 -1.66699 -3.5 -2s-2.16699 -0.833008 -3.5 -1.5s-2.83301 -1 -4.5 -1s-3.33398 -0.166992 -5.00098 -0.5s-3.83398 -0.5 -6.50098 -0.5h-23c-12.667 0 -20.334 3.66699 -23.001 11zM343.007 11.0029
l0.00683594 4.00293c1.33301 6.66699 60 84.667 176 234v2l-171 224c-2.66699 4 -4.33398 7.33301 -5.00098 10v4c1.33301 3.33301 2.33301 5.5 3 6.5s2.66699 2 6 3s8 1.5 14 1.5h23c3.33301 0 6.16602 -0.166992 8.49902 -0.5s4.5 -0.833008 6.5 -1.5
s3.66699 -1.33398 5 -2.00098s3.16602 -1.83398 5.49902 -3.50098s4.16602 -3.16699 5.49902 -4.5l6.5 -6.5l7.5 -7.5l207 -201c10.667 -10.667 16 -18.334 16 -23.001s-5 -12 -15 -22l-221 -214c-0.666992 -0.666992 -1.83398 -1.66699 -3.50098 -3
s-2.66699 -2.33301 -3 -3s-1.16602 -1.5 -2.49902 -2.5s-2.5 -1.66699 -3.5 -2s-2.16699 -0.833008 -3.5 -1.5s-2.83301 -1 -4.5 -1s-3.33398 -0.166992 -5.00098 -0.5s-3.83398 -0.5 -6.50098 -0.5h-23c-12.667 0 -20.334 3.66699 -23.001 11z" />
    <glyph glyph-name="onequarter" unicode="&#xbc;" horiz-adv-x="489" 
d="M-10 278c0 11.333 3.83301 20.666 11.5 27.999s17.167 11.666 28.5 12.999l26 1h374c0.666992 0 1.5 -0.166992 2.5 -0.5s1.83301 -0.5 2.5 -0.5h7c38 0 57 -13.667 57 -41c0 -5.33301 -0.833008 -10.666 -2.5 -15.999s-6.5 -11 -14.5 -17s-18.667 -9 -32 -9h-411
c-12.667 0 -23 2.83301 -31 8.5s-13 11.334 -15 17.001s-3 11.167 -3 16.5zM31 -86c0 8.66699 2.83105 17.5 8.49805 26.5s23.834 33.167 54.501 72.5l80 104c8 10.667 13.667 17.667 17 21s8.83301 6.66602 16.5 9.99902s17.5 5 29.5 5h79c14.667 0 26 -2.5 34 -7.5
s12.833 -10.5 14.5 -16.5s2.5 -14 2.5 -24v-173h45c11.333 0 20.5 -1.5 27.5 -4.5s11.667 -7.66699 14 -14s3.66602 -11.166 3.99902 -14.499s0.5 -8.33301 0.5 -15c0 -14.667 -2.66699 -25.667 -8 -33s-10.666 -11.5 -15.999 -12.5s-12.666 -1.5 -21.999 -1.5h-45
c-6 -21.333 -20.667 -32 -44 -32h-34c-22.667 0 -37 10.667 -43 32h-174c-27.333 0 -41 15.667 -41 47v30zM76.998 701c0 9.33301 2.99902 17.167 8.99902 23.5s13 10.5 21 12.5c2 0.666992 11.167 1 27.5 1s34 1.5 53 4.5s36.167 8.16699 51.5 15.5
c2.66699 1.33301 5.83398 3 9.50098 5s6.16699 3.33301 7.5 4s3.33301 1.5 6 2.5s5.5 1.66699 8.5 2s7.16699 0.5 12.5 0.5h2c27.333 0 41 -16.333 41 -49v-247h40c30.667 0 46 -12.333 46 -37c0 -5.33301 -0.833008 -10.333 -2.5 -15s-6.16699 -9.5 -13.5 -14.5
s-17.333 -7.5 -30 -7.5h-228c-18 0 -30 4 -36 12s-9 16.333 -9 25c0 24.667 16 37 48 37h49v193c-16 -2.66699 -37.333 -4 -64 -4c-8 0 -15.333 0.666992 -22 2c-18 6 -27 17.333 -27 34zM146.997 -67.999h103v133z" />
    <glyph glyph-name="onehalf" unicode="&#xbd;" horiz-adv-x="489" 
d="M-10 278c0 11.333 3.83301 20.666 11.5 27.999s17.167 11.666 28.5 12.999l26 1h374c0.666992 0 1.5 -0.166992 2.5 -0.5s1.83301 -0.5 2.5 -0.5h7c38 0 57 -13.667 57 -41c0 -5.33301 -0.833008 -10.666 -2.5 -15.999s-6.5 -11 -14.5 -17s-18.667 -9 -32 -9h-411
c-12.667 0 -23 2.83301 -31 8.5s-13 11.334 -15 17.001s-3 11.167 -3 16.5zM48 147c0 6.66699 4.66309 11.002 13.9961 13.002c48 10 99.667 15 155 15h8c42 0 77.667 -4.16699 107 -12.5s50.833 -19.333 64.5 -33s23.334 -27.167 29.001 -40.5s8.5 -27.333 8.5 -42
c0 -11.333 -2 -21.666 -6 -30.999s-8.16699 -16.833 -12.5 -22.5s-12.166 -12 -23.499 -19s-19.5 -11.667 -24.5 -14s-15.333 -6.66602 -31 -12.999s-25.5 -10.5 -29.5 -12.5c-11.333 -4.66699 -42.666 -21.667 -93.999 -51h57l119 1c30 0 45 -13 45 -39
c0 -27.333 -14.667 -41 -44 -41h-293c-12 0 -21.833 3.66699 -29.5 11s-11.5 16 -11.5 26c0 6 3.5 12 10.5 18s25.5 19 55.5 39l40 26c10.667 7.33301 25.167 16.666 43.5 27.999s31.333 19.666 39 24.999s16.334 12 26.001 20s16.167 15.667 19.5 23s5 15.666 5 24.999
c0 14 -6.5 26.833 -19.5 38.5s-33.833 17.5 -62.5 17.5c-20 0 -37.333 -3 -52 -9s-26 -12 -34 -18s-13.667 -9 -17 -9c-6.66699 0 -18.667 12.167 -36 36.5s-26 39.166 -26 44.499zM76.9961 701.002c0 9.33301 2.99902 17.167 8.99902 23.5s13 10.5 21 12.5
c2 0.666992 11.167 1 27.5 1s34 1.5 53 4.5s36.167 8.16699 51.5 15.5c2.66699 1.33301 5.83398 3 9.50098 5s6.16699 3.33301 7.5 4s3.33301 1.5 6 2.5s5.5 1.66699 8.5 2s7.16699 0.5 12.5 0.5h2c27.333 0 41 -16.333 41 -49v-247h40c30.667 0 46 -12.333 46 -37
c0 -5.33301 -0.833008 -10.333 -2.5 -15s-6.16699 -9.5 -13.5 -14.5s-17.333 -7.5 -30 -7.5h-228c-18 0 -30 4 -36 12s-9 16.333 -9 25c0 24.667 16 37 48 37h49v193c-16 -2.66699 -37.333 -4 -64 -4c-8 0 -15.333 0.666992 -22 2c-18 6 -27 17.333 -27 34z" />
    <glyph glyph-name="threequarters" unicode="&#xbe;" horiz-adv-x="489" 
d="M-10 278c0 11.333 3.83301 20.666 11.5 27.999s17.167 11.666 28.5 12.999l26 1h374c0.666992 0 1.5 -0.166992 2.5 -0.5s1.83301 -0.5 2.5 -0.5h7c38 0 57 -13.667 57 -41c0 -5.33301 -0.833008 -10.666 -2.5 -15.999s-6.5 -11 -14.5 -17s-18.667 -9 -32 -9h-411
c-12.667 0 -23 2.83301 -31 8.5s-13 11.334 -15 17.001s-3 11.167 -3 16.5zM31 -86c0 8.66699 2.83105 17.5 8.49805 26.5s23.834 33.167 54.501 72.5l80 104c8 10.667 13.667 17.667 17 21s8.83301 6.66602 16.5 9.99902s17.5 5 29.5 5h79c8 0 14.5 -0.5 19.5 -1.5
s10.167 -2.83301 15.5 -5.5s9.33301 -7.5 12 -14.5s4 -15.833 4 -26.5v-173h45c11.333 0 20.5 -1.5 27.5 -4.5s11.667 -7.66699 14 -14s3.66602 -11.166 3.99902 -14.499s0.5 -8.33301 0.5 -15c0 -14.667 -2.66699 -25.667 -8 -33s-10.666 -11.5 -15.999 -12.5
s-12.666 -1.5 -21.999 -1.5h-45c-6 -21.333 -20.667 -32 -44 -32h-34c-22.667 0 -37 10.667 -43 32h-174c-27.333 0 -41 15.667 -41 47v30zM47.998 372c0 3.33301 2.66992 21.002 8.00293 53.002c1.33301 7.33301 2.33301 12 3 14s2.5 4.33301 5.5 7s7.5 5 13.5 7
c24 7.33301 48.833 12.666 74.5 15.999s46.667 5.16602 63 5.49902s31.5 1.16602 45.5 2.49902s24.167 4.33301 30.5 9s9.5 12.334 9.5 23.001c0 22.667 -22 34 -66 34h-12c-2.66699 0 -4.5 0.166992 -5.5 0.5s-2.16699 0.5 -3.5 0.5s-2.66602 -0.166992 -3.99902 -0.5
s-2.66602 -0.5 -3.99902 -0.5c-9.33301 0 -15.333 1.83301 -18 5.5s-4 9.5 -4 17.5v30c0.666992 9.33301 3.33398 15.333 8.00098 18s10.5 3.66699 17.5 3s16 0.5 27 3.5s21.167 8.83301 30.5 17.5c6 10 9 16.667 9 20c0 16.667 -13 25 -39 25h-8
c-24.667 0 -48.667 -0.333008 -72 -1s-35.333 -1 -36 -1c-10.667 0 -17.834 2.16699 -21.501 6.5s-14.5 20.833 -32.5 49.5l-4 9v4l2 4c3.33301 4 7.66602 6.5 12.999 7.5s19.666 2.83301 42.999 5.5c8.66699 0.666992 15.667 1.33398 21 2.00098c28 2 56.333 3 85 3
c86.667 0 142.667 -19 168 -57c12 -18.667 18 -37.667 18 -57c0 -32 -15.667 -58 -47 -78c51.333 -15.333 77 -40 77 -74c0 -36 -15.333 -65.667 -46 -89c-7.33301 -5.33301 -15.5 -10.166 -24.5 -14.499s-18.667 -7.83301 -29 -10.5s-19.5 -4.83398 -27.5 -6.50098
s-18 -2.83398 -30 -3.50098l-26.5 -1.5c-5.66699 -0.333008 -14.334 -0.5 -26.001 -0.5h-21.5c-24.667 -0.666992 -48.834 -3 -72.501 -7s-42.334 -7.66699 -56.001 -11s-21.167 -5 -22.5 -5c-8.66699 0 -13 5 -13 15zM147.001 -67.998h103v133z" />
    <glyph glyph-name="questiondown" unicode="&#xbf;" horiz-adv-x="519" 
d="M60 -47c0 12 0.501953 23.0029 1.50195 33.0029s3.16699 19.167 6.5 27.5s5.83301 15.166 7.5 20.499s5.5 11.666 11.5 18.999l11.5 14c1.66699 2 6.33398 6.66699 14.001 14l12.5 12c44 48.667 66 110.667 66 186v32c1.33301 11.333 5 18 11 20
c2.66699 0.666992 5.66699 1 9 1h60c16 0 24.333 -6.33301 25 -19v-42c0 -58.667 -17.667 -122 -53 -190l-18 -33c-6.66699 -12 -11 -20.167 -13 -24.5l-7.5 -15.5c-3 -6 -4.66699 -11.667 -5 -17s-0.833008 -11.333 -1.5 -18s-1 -16 -1 -28c0 -30.667 3 -51.334 9 -62.001
s19 -16 39 -16c32 0 61.167 6.16699 87.5 18.5s46.666 24.666 60.999 36.999s22.833 18.5 25.5 18.5c5.33301 0 11.166 -6.66699 17.499 -20s11.166 -26.666 14.499 -39.999l5 -20l-1 -4l-2 -5c-4.66699 -4.66699 -13.167 -10.667 -25.5 -18s-36 -15.833 -71 -25.5
s-73.5 -14.5 -115.5 -14.5c-56 0 -100.167 11.5 -132.5 34.5s-48.5 64.5 -48.5 124.5zM177.002 442.003c0 1.33301 0.169922 3.16797 0.50293 5.50098s0.5 4.16602 0.5 5.49902v27c0 9.33301 0.666992 17 2 23s5.66602 11.667 12.999 17s17.666 8 30.999 8h44
c27.333 0 41 -15.333 41 -46v-39c0 -6 -0.333008 -11 -1 -15s-2.33398 -8.83301 -5.00098 -14.5s-7.33398 -10 -14.001 -13s-15.667 -4.5 -27 -4.5c-2 0 -4.5 0.166992 -7.5 0.5s-5.16699 0.5 -6.5 0.5h-23c-8.66699 0 -15.667 0.5 -21 1.5s-11.166 5 -17.499 12
s-9.5 17.5 -9.5 31.5z" />
    <glyph glyph-name="Agrave" unicode="&#xc0;" horiz-adv-x="733" 
d="M202 866c1.33301 8 8.00195 12 20.002 12h139c8.66699 0 17.167 -2.66699 25.5 -8s28.5 -20.333 60.5 -45l42 -33c4.66699 -4 8 -8.66699 10 -14v-4c-2.66699 -6.66699 -9 -10 -19 -10h-52c-8.66699 0 -53.334 17.333 -134.001 52l-73 32c-6 2.66699 -10.167 5 -12.5 7
s-3.83301 3.5 -4.5 4.5s-1.33398 3.16699 -2.00098 6.5zM42.002 27c0 4.66699 1.33496 10.998 4.00195 18.998l212 602c5.33301 15.333 12.333 26.833 21 34.5s22.667 11.5 42 11.5h90c12 0 22 -1.33301 30 -4s14.667 -8.16699 20 -16.5s8.66602 -14 9.99902 -17
s4 -10.5 8 -22.5l207 -590c2.66699 -8 4 -13.667 4 -17c0 -18 -12.333 -27 -37 -27h-53c-6 0 -11.333 0.166992 -16 0.5s-9.16699 1.66602 -13.5 3.99902s-7.83301 4.33301 -10.5 6s-5.66699 5.33398 -9 11.001l-8 14c-2 3.66699 -4.83301 10.334 -8.5 20.001
s-6.66699 18 -9 25l-11 32l-13.5 38.5h-285c-4.66699 -12 -9.5 -25.833 -14.5 -41.5s-8.83301 -27.167 -11.5 -34.5l-9.5 -25.5c-3.66699 -9.66699 -6.83398 -16.5 -9.50098 -20.5s-5.83398 -8.5 -9.50098 -13.5s-7.5 -8.16699 -11.5 -9.5s-8.66699 -2.66602 -14 -3.99902
s-11.666 -2 -18.999 -2h-37c-25.333 0 -38 9 -38 27zM246.004 236.998l225.001 -0.000976562c-68 194.667 -105.333 305.334 -112 332.001c-6.66699 -24 -44.334 -134.667 -113.001 -332z" />
    <glyph glyph-name="Aacute" unicode="&#xc1;" horiz-adv-x="733" 
d="M42 27c0 4.66699 1.33496 10.998 4.00195 18.998l212 602c5.33301 15.333 12.333 26.833 21 34.5s22.667 11.5 42 11.5h90c12 0 22 -1.33301 30 -4s14.667 -8.16699 20 -16.5s8.66602 -14 9.99902 -17s4 -10.5 8 -22.5l207 -590c2.66699 -8 4 -13.667 4 -17
c0 -18 -12.333 -27 -37 -27h-53c-6 0 -11.333 0.166992 -16 0.5s-9.16699 1.66602 -13.5 3.99902s-7.83301 4.33301 -10.5 6s-5.66699 5.33398 -9 11.001l-8 14c-2 3.66699 -4.83301 10.334 -8.5 20.001s-6.66699 18 -9 25l-11 32l-13.5 38.5h-285
c-4.66699 -12 -9.5 -25.833 -14.5 -41.5s-8.83301 -27.167 -11.5 -34.5l-9.5 -25.5c-3.66699 -9.66699 -6.83398 -16.5 -9.50098 -20.5s-5.83398 -8.5 -9.50098 -13.5s-7.5 -8.16699 -11.5 -9.5s-8.66699 -2.66602 -14 -3.99902s-11.666 -2 -18.999 -2h-37
c-25.333 0 -38 9 -38 27zM232.002 776.998c0 3.33301 2.33301 7.33203 7 11.999c72 55.333 110.667 84 116 86c4 2 9.33301 3 16 3h139c13.333 0 20 -4.33301 20 -13c0 -2 -0.5 -3.83301 -1.5 -5.5s-2.16699 -3 -3.5 -4s-3 -2.16699 -5 -3.5l-3 -1l-112 -48
c-44.667 -19.333 -71.5 -30.666 -80.5 -33.999s-17.167 -5 -24.5 -5h-51c-10 0.666992 -15.667 5 -17 13zM246.002 236.997l225.001 -0.000976562c-68 194.667 -105.333 305.334 -112 332.001c-6.66699 -24 -44.334 -134.667 -113.001 -332z" />
    <glyph glyph-name="Acircumflex" unicode="&#xc2;" horiz-adv-x="733" 
d="M42 27c0 4.66699 1.33496 10.998 4.00195 18.998l212 602c5.33301 15.333 12.333 26.833 21 34.5s22.667 11.5 42 11.5h90c12 0 22 -1.33301 30 -4s14.667 -8.16699 20 -16.5s8.66602 -14 9.99902 -17s4 -10.5 8 -22.5l207 -590c2.66699 -8 4 -13.667 4 -17
c0 -18 -12.333 -27 -37 -27h-53c-6 0 -11.333 0.166992 -16 0.5s-9.16699 1.66602 -13.5 3.99902s-7.83301 4.33301 -10.5 6s-5.66699 5.33398 -9 11.001l-8 14c-2 3.66699 -4.83301 10.334 -8.5 20.001s-6.66699 18 -9 25l-11 32l-13.5 38.5h-285
c-4.66699 -12 -9.5 -25.833 -14.5 -41.5s-8.83301 -27.167 -11.5 -34.5l-9.5 -25.5c-3.66699 -9.66699 -6.83398 -16.5 -9.50098 -20.5s-5.83398 -8.5 -9.50098 -13.5s-7.5 -8.16699 -11.5 -9.5s-8.66699 -2.66602 -14 -3.99902s-11.666 -2 -18.999 -2h-37
c-25.333 0 -38 9 -38 27zM169.002 747.998c0 4 3.33301 10.3311 10 18.998l65 86c22.667 30.667 36.5 48.5 41.5 53.5s10.5 7.5 16.5 7.5h3h122c7.33301 0 12.5 -1.16699 15.5 -3.5s5.83301 -6.83301 8.5 -13.5c40.667 -94.667 61.334 -144 62.001 -148
c-0.666992 -9.33301 -7.33398 -14 -20.001 -14h-33c-5.33301 0 -11 2.33301 -17 7s-19 16 -39 34l-63 58l-27 -25l-22.5 -21l-17.5 -16c-6 -5.33301 -10.833 -9.5 -14.5 -12.5s-7.16699 -6.16699 -10.5 -9.5s-6.16602 -5.66602 -8.49902 -6.99902l-7 -4
c-2.33301 -1.33301 -4.33301 -2.16602 -6 -2.49902l-5 -1c-1.66699 -0.333008 -3.83398 -0.5 -6.50098 -0.5h-24c-15.333 0 -23 4.33301 -23 13zM246.002 236.996l225.001 -0.000976562c-68 194.667 -105.333 305.334 -112 332.001
c-6.66699 -24 -44.334 -134.667 -113.001 -332z" />
    <glyph glyph-name="Atilde" unicode="&#xc3;" horiz-adv-x="733" 
d="M42 27c0 4.66699 1.33496 10.998 4.00195 18.998l212 602c5.33301 15.333 12.333 26.833 21 34.5s22.667 11.5 42 11.5h90c12 0 22 -1.33301 30 -4s14.667 -8.16699 20 -16.5s8.66602 -14 9.99902 -17s4 -10.5 8 -22.5l207 -590c2.66699 -8 4 -13.667 4 -17
c0 -18 -12.333 -27 -37 -27h-53c-6 0 -11.333 0.166992 -16 0.5s-9.16699 1.66602 -13.5 3.99902s-7.83301 4.33301 -10.5 6s-5.66699 5.33398 -9 11.001l-8 14c-2 3.66699 -4.83301 10.334 -8.5 20.001s-6.66699 18 -9 25l-11 32l-13.5 38.5h-285
c-4.66699 -12 -9.5 -25.833 -14.5 -41.5s-8.83301 -27.167 -11.5 -34.5l-9.5 -25.5c-3.66699 -9.66699 -6.83398 -16.5 -9.50098 -20.5s-5.83398 -8.5 -9.50098 -13.5s-7.5 -8.16699 -11.5 -9.5s-8.66699 -2.66602 -14 -3.99902s-11.666 -2 -18.999 -2h-37
c-25.333 0 -38 9 -38 27zM183.002 755.998c0 34 9.33105 66.832 27.998 98.499s45.667 47.5 81 47.5c17.333 0 33.5 -4.83301 48.5 -14.5s27 -20.334 36 -32.001s18.833 -22.334 29.5 -32.001s21 -14.834 31 -15.501l8 1l8 3c12 10.667 19.333 27 22 49
s4.33398 33.667 5.00098 35c3.33301 4.66699 10.666 7 21.999 7c1.33301 0 3.66602 -0.166992 6.99902 -0.5s5.66602 -0.5 6.99902 -0.5h11c7.33301 0 12.833 -1.16699 16.5 -3.5s5.5 -8.16602 5.5 -17.499c0 -19.333 -3.16699 -39.333 -9.5 -60
s-18.166 -40.167 -35.499 -58.5s-38.666 -27.5 -63.999 -27.5c-17.333 0 -33.5 4.83301 -48.5 14.5s-27 20.334 -36 32.001s-18.833 22.334 -29.5 32.001s-21 14.834 -31 15.501l-8 -1c-5.33301 -2 -9.33301 -3.83301 -12 -5.5s-6.16699 -7.33398 -10.5 -17.001
s-7.16602 -22.834 -8.49902 -39.501v-8c0 -3.33301 -0.166992 -5.66602 -0.5 -6.99902l-1.5 -6c-0.666992 -2.66699 -1.5 -4.5 -2.5 -5.5s-2.83301 -2 -5.5 -3s-5.66699 -1.5 -9 -1.5h-33c-7.33301 0 -12.666 1.33301 -15.999 4s-5 8.33398 -5 17.001zM246 236.997
l225.001 -0.000976562c-68 194.667 -105.333 305.334 -112 332.001c-6.66699 -24 -44.334 -134.667 -113.001 -332z" />
    <glyph glyph-name="Adieresis" unicode="&#xc4;" horiz-adv-x="733" 
d="M42 27c0 4.66699 1.33496 10.998 4.00195 18.998l212 602c5.33301 15.333 12.333 26.833 21 34.5s22.667 11.5 42 11.5h90c12 0 22 -1.33301 30 -4s14.667 -8.16699 20 -16.5s8.66602 -14 9.99902 -17s4 -10.5 8 -22.5l207 -590c2.66699 -8 4 -13.667 4 -17
c0 -18 -12.333 -27 -37 -27h-53c-6 0 -11.333 0.166992 -16 0.5s-9.16699 1.66602 -13.5 3.99902s-7.83301 4.33301 -10.5 6s-5.66699 5.33398 -9 11.001l-8 14c-2 3.66699 -4.83301 10.334 -8.5 20.001s-6.66699 18 -9 25l-11 32l-13.5 38.5h-285
c-4.66699 -12 -9.5 -25.833 -14.5 -41.5s-8.83301 -27.167 -11.5 -34.5l-9.5 -25.5c-3.66699 -9.66699 -6.83398 -16.5 -9.50098 -20.5s-5.83398 -8.5 -9.50098 -13.5s-7.5 -8.16699 -11.5 -9.5s-8.66699 -2.66602 -14 -3.99902s-11.666 -2 -18.999 -2h-37
c-25.333 0 -38 9 -38 27zM188.002 806.998l-0.000976562 48.001c0 11.333 1.16699 20.5 3.5 27.5s7 11.833 14 14.5s11.167 4 12.5 4s6.66602 0.333008 15.999 1h50c15.333 0 26.833 -3.33301 34.5 -10s11.5 -18.334 11.5 -35.001v-54c0 -6 -0.666992 -11.5 -2 -16.5
s-3.16602 -8.83301 -5.49902 -11.5s-4.66602 -5 -6.99902 -7s-5.33301 -3.5 -9 -4.5s-6.5 -1.66699 -8.5 -2s-4.66699 -0.833008 -8 -1.5h-5h-52c-14 0 -25 3.33301 -33 10s-12 19 -12 37zM246.001 236.999l225.001 -0.000976562c-68 194.667 -105.333 305.334 -112 332.001
c-6.66699 -24 -44.334 -134.667 -113.001 -332zM402.002 804.998v53.002c0 30 15.667 45 47 45c2 0 4.66699 -0.166992 8 -0.5s5.66602 -0.5 6.99902 -0.5h34c15.333 0 26.833 -3.33301 34.5 -10s11.5 -19 11.5 -37v-49c0 -10.667 -1.5 -19.334 -4.5 -26.001
s-7.66699 -11.334 -14 -14.001s-10.666 -4.16699 -12.999 -4.5s-6.83301 -0.833008 -13.5 -1.5h-51c-30.667 0 -46 15 -46 45z" />
    <glyph glyph-name="Aring" unicode="&#xc5;" horiz-adv-x="733" 
d="M42 28c0 6 2.00098 13.6641 6.00098 22.9971l210 597c-26 23.333 -39 60.666 -39 111.999c0 94.667 41 142 123 142c80.667 0 121 -47 121 -141c0 -31.333 -4.33301 -57 -13 -77c10.667 -10 18.334 -21.667 23.001 -35l213 -604c2.66699 -8 4 -14 4 -18
c0 -18 -12.333 -27 -37 -27h-53c-6 0 -11.333 0.166992 -16 0.5s-9.16699 1.66602 -13.5 3.99902s-7.83301 4.33301 -10.5 6s-5.66699 5.33398 -9 11.001l-8 14c-2 3.66699 -4.83301 10.334 -8.5 20.001s-6.66699 18 -9 25l-11 32l-13.5 38.5h-285l-15 -42
c-5.33301 -15.333 -9.16602 -26.666 -11.499 -33.999s-5.33301 -15.666 -9 -24.999s-6.33398 -15.666 -8.00098 -18.999s-4.33398 -7.5 -8.00098 -12.5s-6.66699 -8.16699 -9 -9.5s-5.83301 -2.83301 -10.5 -4.5s-9.33398 -2.66699 -14.001 -3s-10.667 -0.833008 -18 -1.5
h-38c-22 0.666992 -33 10 -33 28zM246.001 236.997l225.001 -0.000976562c-68 194.667 -105.333 305.334 -112 332.001c-6.66699 -24 -44.334 -134.667 -113.001 -332zM280.002 764.996c0 -12.667 0.332031 -22.168 0.999023 -28.501s2.66699 -13.333 6 -21
s9.16602 -13.167 17.499 -16.5s19.166 -5 32.499 -5h3c10 0 17.833 0.5 23.5 1.5s11.834 3.33301 18.501 7s11.667 10 15 19s5 21.167 5 36.5c0 12 -0.5 21.5 -1.5 28.5s-3.16699 14.333 -6.5 22s-9.16602 13.167 -17.499 16.5s-19.166 5 -32.499 5h-2
c-10 0 -17.833 -0.5 -23.5 -1.5s-12 -3.33301 -19 -7s-12 -10.167 -15 -19.5s-4.5 -21.666 -4.5 -36.999z" />
    <glyph glyph-name="AE" unicode="&#xc6;" horiz-adv-x="947" 
d="M44 26c0 2.66699 1.66602 8.99707 4.99902 18.9971l246 594c8 20 16.5 34.167 25.5 42.5s23.833 12.5 44.5 12.5h476c29.333 0 44 -15.667 44 -47v-12c0 -30.667 -13.667 -46 -41 -46h-1l-241 4v-186h206c9.33301 0 16.833 -0.666992 22.5 -2s11 -5.5 16 -12.5
s7.5 -17.5 7.5 -31.5s-2.66699 -25 -8 -33s-10.666 -12.667 -15.999 -14s-12 -2 -20 -2h-208v-205c133.333 2.66699 217 4 251 4c31.333 0 47 -15.333 47 -46v-15c0 -10 -0.333008 -17.667 -1 -23s-4.66699 -11.166 -12 -17.499s-18 -9.5 -32 -9.5h-351
c-10.667 0 -19.167 1.5 -25.5 4.5s-10.666 7.83301 -12.999 14.5s-3.66602 11.5 -3.99902 14.5s-0.5 7.5 -0.5 13.5v144h-216l-19.5 -47.5l-16 -39.5l-12.5 -31c-4.66699 -11.333 -8.33398 -19.666 -11.001 -24.999s-5.83398 -11.166 -9.50098 -17.499
s-6.83398 -10.833 -9.50098 -13.5s-5.66699 -5.5 -9 -8.5s-7.16602 -4.83301 -11.499 -5.5l-13 -2c-4.33301 -0.666992 -9.83301 -1 -16.5 -1h-37c-24 0 -36 8.66699 -36 26zM280.999 277.997h180v316h-49z" />
    <glyph glyph-name="Ccedilla" unicode="&#xc7;" horiz-adv-x="703" 
d="M60 347c0 246.667 122.998 369.999 368.998 369.999c54 0 113.333 -9.66699 178 -29c11.333 -4 19 -8 23 -12c2 -4 3 -7.33301 3 -10s-5 -31.334 -15 -86.001c-4 -19.333 -9 -29 -15 -29c-3.33301 0 -9.83301 3.33301 -19.5 10l-32 22.5
c-11.667 8.33301 -28.667 15.833 -51 22.5s-46.5 10 -72.5 10c-150.667 0 -226 -89.333 -226 -268c0 -31.333 2 -59.666 6 -84.999s11.333 -49.833 22 -73.5s24.5 -43.5 41.5 -59.5s39 -28.667 66 -38s58.5 -14 94.5 -14c32.667 0 61.334 3.33301 86.001 10s42.667 14 54 22
l31.5 22c9.66699 6.66699 17.167 10 22.5 10c1.33301 0 2.5 -0.166992 3.5 -0.5s2 -1 3 -2s1.66699 -2 2 -3l1.5 -4.5c0.666992 -2 1.16699 -3.83301 1.5 -5.5s0.666016 -3.83398 0.999023 -6.50098s0.666016 -5 0.999023 -7s0.666016 -4.83301 0.999023 -8.5
s0.5 -6.5 0.5 -8.5c0.666992 -8 1.33398 -15.167 2.00098 -21.5s1.16699 -10.666 1.5 -12.999s0.5 -4.33301 0.5 -6v-4.5c0 -3.33301 -0.333008 -6 -1 -8s-2.16699 -4.16699 -4.5 -6.5l-4.5 -4.5c-0.666992 -0.666992 -3 -2 -7 -4l-7 -4c-32 -18 -61 -30.167 -87 -36.5
s-58.667 -9.83301 -98 -10.5c16.667 0 25 -4.66699 25 -14c0 -4.66699 -18.333 -50.667 -55 -138c-5.33301 -12 -13.666 -18 -24.999 -18h-64c-7.33301 0.666992 -12.333 2.33398 -15 5.00098l-2 4c-1.33301 6 13.334 32.667 44.001 80l39 61
c8.66699 13.333 17.334 20 26.001 20h18c-244.667 0 -367 123.333 -367 370z" />
    <glyph glyph-name="Egrave" unicode="&#xc8;" horiz-adv-x="642" 
d="M141 866c1.33301 8 8.00195 12 20.002 12h139c8.66699 0 17.167 -2.66699 25.5 -8s28.5 -20.333 60.5 -45l42 -33c4.66699 -4 8 -8.66699 10 -14v-4c-2.66699 -6.66699 -9 -10 -19 -10h-52c-8.66699 0 -53.334 17.333 -134.001 52l-73 32c-6 2.66699 -10.167 5 -12.5 7
s-3.83301 3.5 -4.5 4.5s-1.33398 3.16699 -2.00098 6.5zM91.002 47l-0.000976562 596.999c0 18 3.83301 30.333 11.5 37s19.167 10 34.5 10h398c13.333 0 23.5 -2.66699 30.5 -8s11.167 -10.666 12.5 -15.999s2 -12.333 2 -21v-16c0 -29.333 -14 -44 -42 -44
c-8.66699 0 -20 0.166992 -34 0.5s-45.667 0.833008 -95 1.5s-108 1.33398 -176 2.00098v-185h265c8 0 14.333 -0.333008 19 -1s9.83398 -2.33398 15.501 -5.00098s10 -7.5 13 -14.5s4.5 -16.167 4.5 -27.5c0 -31.333 -15 -47 -45 -47h-272v-203l320 4
c28 -0.666992 42 -16 42 -46v-21c0 -29.333 -15 -44 -45 -44h-413c-14 0 -24.667 3 -32 9s-11.5 11.667 -12.5 17s-1.5 12.333 -1.5 21z" />
    <glyph glyph-name="Eacute" unicode="&#xc9;" horiz-adv-x="642" 
d="M91 47l-0.000976562 596.999c0 18 3.83301 30.333 11.5 37s19.167 10 34.5 10h398c13.333 0 23.5 -2.66699 30.5 -8s11.167 -10.666 12.5 -15.999s2 -12.333 2 -21v-16c0 -29.333 -14 -44 -42 -44c-8.66699 0 -20 0.166992 -34 0.5s-45.667 0.833008 -95 1.5
s-108 1.33398 -176 2.00098v-185h265c8 0 14.333 -0.333008 19 -1s9.83398 -2.33398 15.501 -5.00098s10 -7.5 13 -14.5s4.5 -16.167 4.5 -27.5c0 -31.333 -15 -47 -45 -47h-272v-203l320 4c28 -0.666992 42 -16 42 -46v-21c0 -29.333 -15 -44 -45 -44h-413
c-14 0 -24.667 3 -32 9s-11.5 11.667 -12.5 17s-1.5 12.333 -1.5 21zM217.999 776.999c0 3.33301 2.33301 7.33203 7 11.999l56 43c29.333 23.333 47.166 36.833 53.499 40.5s13.5 5.5 21.5 5.5h139c13.333 0 20 -4.33301 20 -13c0 -2 -0.5 -3.83301 -1.5 -5.5
s-2.16699 -3 -3.5 -4s-3 -2.16699 -5 -3.5l-3 -1l-112 -48c-44.667 -19.333 -71.5 -30.666 -80.5 -33.999s-17.167 -5 -24.5 -5h-51c-9.33301 0.666992 -14.666 5 -15.999 13z" />
    <glyph glyph-name="Ecircumflex" unicode="&#xca;" horiz-adv-x="642" 
d="M91 47l-0.000976562 596.999c0 18 3.83301 30.333 11.5 37s19.167 10 34.5 10h398c13.333 0 23.5 -2.66699 30.5 -8s11.167 -10.666 12.5 -15.999s2 -12.333 2 -21v-16c0 -29.333 -14 -44 -42 -44c-8.66699 0 -20 0.166992 -34 0.5s-45.667 0.833008 -95 1.5
s-108 1.33398 -176 2.00098v-185h265c8 0 14.333 -0.333008 19 -1s9.83398 -2.33398 15.501 -5.00098s10 -7.5 13 -14.5s4.5 -16.167 4.5 -27.5c0 -31.333 -15 -47 -45 -47h-272v-203l320 4c28 -0.666992 42 -16 42 -46v-21c0 -29.333 -15 -44 -45 -44h-413
c-14 0 -24.667 3 -32 9s-11.5 11.667 -12.5 17s-1.5 12.333 -1.5 21zM132.999 747.999c0 4.66699 3.00391 10.667 9.00391 18l62 83c24 32.667 38.667 51.667 44 57s12.333 8 21 8h76c5.33301 0 11.166 -3.5 17.499 -10.5s25.5 -31.833 57.5 -74.5l47 -62
c6.66699 -10 10 -16.333 10 -19c0 -8.66699 -6.33301 -13 -19 -13h-29c-8 0 -15.333 2.33301 -22 7s-25 21 -55 49l-47 43c-5.33301 -5.33301 -36.666 -34 -93.999 -86c-0.666992 -0.666992 -1.83398 -1.66699 -3.50098 -3s-2.83398 -2.33301 -3.50098 -3
s-1.66699 -1.5 -3 -2.5s-2.33301 -1.5 -3 -1.5s-1.83398 -0.333008 -3.50098 -1s-3.33398 -1 -5.00098 -1s-3.66699 -0.166992 -6 -0.5s-5 -0.5 -8 -0.5h-10.5h-7c-16.667 0 -25 4.33301 -25 13z" />
    <glyph glyph-name="Edieresis" unicode="&#xcb;" horiz-adv-x="642" 
d="M91 47l-0.000976562 596.999c0 18 3.83301 30.333 11.5 37s19.167 10 34.5 10h398c13.333 0 23.5 -2.66699 30.5 -8s11.167 -10.666 12.5 -15.999s2 -12.333 2 -21v-16c0 -29.333 -14 -44 -42 -44c-8.66699 0 -20 0.166992 -34 0.5s-45.667 0.833008 -95 1.5
s-108 1.33398 -176 2.00098v-185h265c8 0 14.333 -0.333008 19 -1s9.83398 -2.33398 15.501 -5.00098s10 -7.5 13 -14.5s4.5 -16.167 4.5 -27.5c0 -31.333 -15 -47 -45 -47h-272v-203l320 4c28 -0.666992 42 -16 42 -46v-21c0 -29.333 -15 -44 -45 -44h-413
c-14 0 -24.667 3 -32 9s-11.5 11.667 -12.5 17s-1.5 12.333 -1.5 21zM126.999 805.999l-0.000976562 49.998c0 10.667 1.33301 19.167 4 25.5s6.66699 10.833 12 13.5s9.83301 4.33398 13.5 5.00098s8.83398 1.33398 15.501 2.00098h51c14.667 0 26 -3.16699 34 -9.5
s12 -18.5 12 -36.5v-51c0 -10.667 -1.5 -19.167 -4.5 -25.5s-7.83301 -10.833 -14.5 -13.5s-11 -4.16699 -13 -4.5s-6.33301 -0.833008 -13 -1.5h-51c-14 0 -25.167 3.16699 -33.5 9.5s-12.5 18.5 -12.5 36.5zM340.998 805.997l-0.00195312 49.998
c0 10.667 1.16699 19.334 3.5 26.001s6.5 11.334 12.5 14.001s10.5 4.16699 13.5 4.5s8.16699 0.833008 15.5 1.5h51c14 0 25.167 -3.16699 33.5 -9.5s12.5 -18.5 12.5 -36.5v-52c0 -6 -0.666992 -11.5 -2 -16.5s-3.16602 -9 -5.49902 -12s-4.66602 -5.5 -6.99902 -7.5
s-5.33301 -3.5 -9 -4.5s-6.5 -1.66699 -8.5 -2s-4.66699 -0.833008 -8 -1.5h-5h-52c-30 0 -45 15.333 -45 46z" />
    <glyph glyph-name="Igrave" unicode="&#xcc;" horiz-adv-x="325" 
d="M-17 866c1.33301 8 8.00195 12 20.002 12h139c8.66699 0 17.167 -2.66699 25.5 -8s28.5 -20.333 60.5 -45l42 -33c4.66699 -4 8 -8.66699 10 -14v-4c-2.66699 -6.66699 -9 -10 -19 -10h-52c-8.66699 0 -53.334 17.333 -134.001 52l-73 32c-6 2.66699 -10.167 5 -12.5 7
s-3.83301 3.5 -4.5 4.5s-1.33398 3.16699 -2.00098 6.5zM91.002 46v601.001c0 31.333 14 47 42 47h54c30.667 0 46 -15 46 -45v-601c0 -12.667 -1 -21.334 -3 -26.001c-1.33301 -3.33301 -3.33301 -6.5 -6 -9.5s-5 -5.16699 -7 -6.5s-4.66699 -2.5 -8 -3.5
s-5.83301 -1.5 -7.5 -1.5s-4.16699 -0.166992 -7.5 -0.5s-5.33301 -0.5 -6 -0.5h-51c-14.667 0 -26 3.16699 -34 9.5s-12 18.5 -12 36.5z" />
    <glyph glyph-name="Iacute" unicode="&#xcd;" horiz-adv-x="325" 
d="M75 776c0 4 2.33496 8.33301 7.00195 13l56 43c29.333 23.333 47.166 36.833 53.499 40.5s13.5 5.5 21.5 5.5h139c13.333 0 20 -4.33301 20 -13c0 -2 -0.5 -3.83301 -1.5 -5.5s-2.16699 -3 -3.5 -4s-3 -2.16699 -5 -3.5l-3 -1c-129.333 -56 -198 -84.667 -206 -86
c-2.66699 -0.666992 -6.33398 -1 -11.001 -1h-50c-10 0.666992 -15.667 4.66699 -17 12zM91.002 46v601.001c0 31.333 14 47 42 47h54c30.667 0 46 -15 46 -45v-601c0 -12.667 -1 -21.334 -3 -26.001c-1.33301 -3.33301 -3.33301 -6.5 -6 -9.5s-5 -5.16699 -7 -6.5
s-4.66699 -2.5 -8 -3.5s-5.83301 -1.5 -7.5 -1.5s-4.16699 -0.166992 -7.5 -0.5s-5.33301 -0.5 -6 -0.5h-51c-14.667 0 -26 3.16699 -34 9.5s-12 18.5 -12 36.5z" />
    <glyph glyph-name="Icircumflex" unicode="&#xce;" horiz-adv-x="325" 
d="M-9 748c0 4.66699 2.99707 10.666 8.99707 17.999l57 76c26.667 36 43 57 49 63s13.333 9 22 9h75c5.33301 0 10.833 -3.16699 16.5 -9.5s21.834 -27.166 48.501 -62.499l57 -75c6.66699 -10 10 -16.333 10 -19c0 -8.66699 -6.33301 -13 -19 -13h-29
c-8 0 -15.333 2.33301 -22 7s-25 21 -55 49l-47 43l-34 -31l-26 -24.5l-18.5 -17.5c-6.33301 -6 -11.166 -10.167 -14.499 -12.5l-10 -7c-3.33301 -2.33301 -6.16602 -3.83301 -8.49902 -4.5s-4.83301 -1.16699 -7.5 -1.5s-6 -0.5 -10 -0.5h-18
c-16.667 0 -25 4.33301 -25 13zM91.9971 45.999v601.001c0 31.333 14 47 42 47h54c30.667 0 46 -15 46 -45v-601c0 -12.667 -1 -21.334 -3 -26.001c-1.33301 -3.33301 -3.33301 -6.5 -6 -9.5s-5 -5.16699 -7 -6.5s-4.66699 -2.5 -8 -3.5s-5.83301 -1.5 -7.5 -1.5
s-4.16699 -0.166992 -7.5 -0.5s-5.33301 -0.5 -6 -0.5h-51c-14.667 0 -26 3.16699 -34 9.5s-12 18.5 -12 36.5z" />
    <glyph glyph-name="Idieresis" unicode="&#xcf;" horiz-adv-x="325" 
d="M-15 806l0.00390625 49.9971c0 10.667 1.33301 19.334 4 26.001s7.16699 11.334 13.5 14.001s10.666 4.16699 12.999 4.5s7.16602 0.833008 14.499 1.5h51c14 0 25.167 -3 33.5 -9s12.5 -18.333 12.5 -37v-51c0 -6 -0.5 -11.167 -1.5 -15.5s-2.33301 -8 -4 -11
s-3.66699 -5.66699 -6 -8s-4.5 -4.16602 -6.5 -5.49902s-4.66699 -2.33301 -8 -3s-5.83301 -1 -7.5 -1s-3.83398 -0.166992 -6.50098 -0.5s-4.33398 -0.5 -5.00098 -0.5h-51c-14 0 -25.167 3.16699 -33.5 9.5s-12.5 18.5 -12.5 36.5zM92.0039 45.9971v601.001
c0 31.333 14 47 42 47h54c30.667 0 46 -15 46 -45v-601c0 -12.667 -1 -21.334 -3 -26.001c-1.33301 -3.33301 -3.33301 -6.5 -6 -9.5s-5 -5.16699 -7 -6.5s-4.66699 -2.5 -8 -3.5s-5.83301 -1.5 -7.5 -1.5s-4.16699 -0.166992 -7.5 -0.5s-5.33301 -0.5 -6 -0.5h-51
c-14.667 0 -26 3.16699 -34 9.5s-12 18.5 -12 36.5zM199.004 805.998l-0.00195312 49.998c0 10.667 1.16699 19.334 3.5 26.001s6.5 11.334 12.5 14.001s10.5 4.16699 13.5 4.5s8.16699 0.833008 15.5 1.5h51c14 0 25.167 -3 33.5 -9s12.5 -18.333 12.5 -37v-52
c0 -6 -0.666992 -11.5 -2 -16.5s-3.16602 -9 -5.49902 -12s-4.66602 -5.5 -6.99902 -7.5s-5.33301 -3.5 -9 -4.5s-6.5 -1.66699 -8.5 -2s-4.66699 -0.833008 -8 -1.5h-5h-51c-14.667 0 -26 3.16699 -34 9.5s-12 18.5 -12 36.5z" />
    <glyph glyph-name="Eth" unicode="&#xd0;" horiz-adv-x="794" 
d="M-36 341c0 5.33301 0.833984 10.334 2.50098 15.001s6.16699 9.5 13.5 14.5s17.333 7.5 30 7.5h81v271c0 30 14 45 42 45h248c20 0 37.333 -0.333008 52 -1s35.167 -3.33398 61.5 -8.00098s49 -11.334 68 -20.001s40 -21.667 63 -39s41.667 -38.166 56 -62.499
s26.5 -55.5 36.5 -93.5s15 -81 15 -129c0 -58 -7.33301 -108.333 -22 -151s-32.834 -75.834 -54.501 -99.501s-49 -42.667 -82 -57s-64.167 -23.5 -93.5 -27.5s-62.333 -6 -99 -6h-247c-29.333 0 -44 15 -44 45v260h-83c-12 0 -21.5 2.5 -28.5 7.5s-11.333 9.83301 -13 14.5
s-2.5 9.33398 -2.5 14.001zM230.001 86.001l111.001 -0.000976562c24 0 44 0.666992 60 2s34.667 4.33301 56 9s40.333 12.834 57 24.501s31 26.5 43 44.5c22.667 34.667 34.667 86.334 36 155.001v11c0 32 -0.833008 58 -2.5 78s-6.33398 43.5 -14.001 70.5
s-18.834 48.5 -33.501 64.5s-36.167 30.167 -64.5 42.5s-62.5 19.166 -102.5 20.499h-145l-1 -34v-196h144c18.667 0 31.334 -1.66699 38.001 -5c13.333 -6.66699 20 -17.334 20 -32.001c0 -9.33301 -3.5 -17.666 -10.5 -24.999s-15.5 -11 -25.5 -11h-166v-219z" />
    <glyph glyph-name="Ntilde" unicode="&#xd1;" horiz-adv-x="794" 
d="M91 46l-0.00195312 603.001c0 30 15.333 45 46 45h92c21.333 0 37 -4 47 -12s19.667 -21 29 -39l274 -525v530c0 8.66699 0.5 15.667 1.5 21s5.16699 10.833 12.5 16.5s18 8.5 32 8.5h33c29.333 0 44 -15 44 -45v-604c0 -30 -15.333 -45 -46 -45h-91
c-21.333 0 -37.166 4.16699 -47.499 12.5s-20.166 21.166 -29.499 38.499l-274 525v-530c0 -30.667 -15.333 -46 -46 -46h-33c-29.333 -0 -44 15.333 -44 46zM213.998 756.001c0 18.667 3.16797 38.5 9.50098 59.5s18.166 40.667 35.499 59s38.666 27.5 63.999 27.5
c17.333 0 33.5 -4.83301 48.5 -14.5s27 -20.334 36 -32.001s18.833 -22.334 29.5 -32.001s21 -14.834 31 -15.501l7 1l8 3c12.667 10 20.334 26.167 23.001 48.5s4.33398 34.166 5.00098 35.499c3.33301 4.66699 10.333 7 21 7c1.33301 0 3.66602 -0.166992 6.99902 -0.5
s6 -0.5 8 -0.5h11c7.33301 0 12.833 -1.16699 16.5 -3.5s5.5 -8.16602 5.5 -17.499c0 -18 -3.16699 -37.5 -9.5 -58.5s-18.333 -40.833 -36 -59.5s-39.167 -28 -64.5 -28c-17.333 0 -33.5 4.83301 -48.5 14.5s-26.833 20.334 -35.5 32.001s-18.334 22.334 -29.001 32.001
s-21 14.834 -31 15.501h-8l-7 -4c-12 -10 -19.5 -26.167 -22.5 -48.5s-4.83301 -34.166 -5.5 -35.499c-2.66699 -4 -10.667 -6 -24 -6h-24c-7.33301 0 -12.666 1.16699 -15.999 3.5s-5 8.16602 -5 17.499z" />
    <glyph glyph-name="Ograve" unicode="&#xd2;" horiz-adv-x="794" 
d="M232 866c1.33301 8 8.00195 12 20.002 12h139c8.66699 0 17.167 -2.66699 25.5 -8s28.5 -20.333 60.5 -45l42 -33c4.66699 -4 8 -8.66699 10 -14v-4c-2.66699 -6.66699 -9 -10 -19 -10h-52c-8.66699 0 -53.334 17.333 -134.001 52l-73 32c-6 2.66699 -10.167 5 -12.5 7
s-3.83301 3.5 -4.5 4.5s-1.33398 3.16699 -2.00098 6.5zM60.002 343c0 249.333 111.667 374 335 374c224.667 0 337 -124.667 337 -374c0 -243.333 -111.667 -365 -335 -365c-224.667 0 -337 121.667 -337 365zM202.002 345c0 -16.667 0.166992 -30.9961 0.5 -42.9961
s1.83301 -28.667 4.5 -50s6.33398 -39.833 11.001 -55.5s11.834 -32.667 21.501 -51s21.167 -33.333 34.5 -45s30.5 -21.5 51.5 -29.5s44.833 -12 71.5 -12c52.667 0 95.334 16.333 128.001 49c15.333 15.333 27.666 33.666 36.999 54.999s15.833 45.166 19.5 71.499
s6 48.166 7 65.499s1.5 39.333 1.5 66v7c0 16 -0.166992 29.667 -0.5 41s-1.83301 27.166 -4.5 47.499s-6.33398 37.5 -11.001 51.5s-11.834 29.5 -21.501 46.5s-21.167 30.833 -34.5 41.5s-30.5 19.667 -51.5 27s-44.5 11 -70.5 11c-54 0 -97.667 -16 -131 -48
c-19.333 -18.667 -34 -43.667 -44 -75s-15.667 -57.5 -17 -78.5s-2 -49.167 -2 -84.5v-8z" />
    <glyph glyph-name="Oacute" unicode="&#xd3;" horiz-adv-x="794" 
d="M263 776c0 4 2.33496 8.33301 7.00195 13l56 43c29.333 23.333 47.166 36.833 53.499 40.5s13.5 5.5 21.5 5.5h139c13.333 0 20 -4.33301 20 -13c0 -2 -0.5 -3.83301 -1.5 -5.5s-2.16699 -3 -3.5 -4s-3 -2.16699 -5 -3.5l-3 -1c-129.333 -56 -198 -84.667 -206 -86
c-2.66699 -0.666992 -6.33398 -1 -11.001 -1h-50c-10 0.666992 -15.667 4.66699 -17 12zM60.002 343c0 249.333 111.667 374 335 374c224.667 0 337 -124.667 337 -374c0 -243.333 -111.667 -365 -335 -365c-224.667 0 -337 121.667 -337 365zM202.002 345
c0 -16.667 0.166992 -30.9961 0.5 -42.9961s1.83301 -28.667 4.5 -50s6.33398 -39.833 11.001 -55.5s11.834 -32.667 21.501 -51s21.167 -33.333 34.5 -45s30.5 -21.5 51.5 -29.5s44.833 -12 71.5 -12c52.667 0 95.334 16.333 128.001 49
c15.333 15.333 27.666 33.666 36.999 54.999s15.833 45.166 19.5 71.499s6 48.166 7 65.499s1.5 39.333 1.5 66v7c0 16 -0.166992 29.667 -0.5 41s-1.83301 27.166 -4.5 47.499s-6.33398 37.5 -11.001 51.5s-11.834 29.5 -21.501 46.5s-21.167 30.833 -34.5 41.5
s-30.5 19.667 -51.5 27s-44.5 11 -70.5 11c-54 0 -97.667 -16 -131 -48c-19.333 -18.667 -34 -43.667 -44 -75s-15.667 -57.5 -17 -78.5s-2 -49.167 -2 -84.5v-8z" />
    <glyph glyph-name="Ocircumflex" unicode="&#xd4;" horiz-adv-x="794" 
d="M60 343c0 249.333 111.667 374 335 374c224.667 0 337 -124.667 337 -374c0 -243.333 -111.667 -365 -335 -365c-224.667 0 -337 121.667 -337 365zM202 345c0 -16.667 0.166992 -30.9961 0.5 -42.9961s1.83301 -28.667 4.5 -50s6.33398 -39.833 11.001 -55.5
s11.834 -32.667 21.501 -51s21.167 -33.333 34.5 -45s30.5 -21.5 51.5 -29.5s44.833 -12 71.5 -12c52.667 0 95.334 16.333 128.001 49c15.333 15.333 27.666 33.666 36.999 54.999s15.833 45.166 19.5 71.499s6 48.166 7 65.499s1.5 39.333 1.5 66v7
c0 16 -0.166992 29.667 -0.5 41s-1.83301 27.166 -4.5 47.499s-6.33398 37.5 -11.001 51.5s-11.834 29.5 -21.501 46.5s-21.167 30.833 -34.5 41.5s-30.5 19.667 -51.5 27s-44.5 11 -70.5 11c-54 0 -97.667 -16 -131 -48c-19.333 -18.667 -34 -43.667 -44 -75
s-15.667 -57.5 -17 -78.5s-2 -49.167 -2 -84.5v-8zM224 748.004c0 4.66699 3.00098 10.666 9.00098 17.999l62 83c24 32.667 38.667 51.667 44 57s12.333 8 21 8h76c5.33301 0 11.166 -3.5 17.499 -10.5s25.5 -31.833 57.5 -74.5l47 -62c6.66699 -10 10 -16.333 10 -19
c0 -8.66699 -6.33301 -13 -19 -13h-31c-7.33301 0 -14 2.16699 -20 6.5s-23.667 20.166 -53 47.499l-49 45l-27 -25l-22.5 -21l-17.5 -16c-6 -5.33301 -10.833 -9.5 -14.5 -12.5s-7.16699 -6.16699 -10.5 -9.5s-6.16602 -5.66602 -8.49902 -6.99902l-7 -4
c-2.33301 -1.33301 -4.33301 -2.16602 -6 -2.49902l-5 -1c-1.66699 -0.333008 -3.83398 -0.5 -6.50098 -0.5h-22c-16.667 0 -25 4.33301 -25 13z" />
    <glyph glyph-name="Otilde" unicode="&#xd5;" horiz-adv-x="794" 
d="M60 343c0 249.333 111.667 374 335 374c224.667 0 337 -124.667 337 -374c0 -243.333 -111.667 -365 -335 -365c-224.667 0 -337 121.667 -337 365zM202 345c0 -16.667 0.166992 -30.9961 0.5 -42.9961s1.83301 -28.667 4.5 -50s6.33398 -39.833 11.001 -55.5
s11.834 -32.667 21.501 -51s21.167 -33.333 34.5 -45s30.5 -21.5 51.5 -29.5s44.833 -12 71.5 -12c52.667 0 95.334 16.333 128.001 49c15.333 15.333 27.666 33.666 36.999 54.999s15.833 45.166 19.5 71.499s6 48.166 7 65.499s1.5 39.333 1.5 66v7
c0 16 -0.166992 29.667 -0.5 41s-1.83301 27.166 -4.5 47.499s-6.33398 37.5 -11.001 51.5s-11.834 29.5 -21.501 46.5s-21.167 30.833 -34.5 41.5s-30.5 19.667 -51.5 27s-44.5 11 -70.5 11c-54 0 -97.667 -16 -131 -48c-19.333 -18.667 -34 -43.667 -44 -75
s-15.667 -57.5 -17 -78.5s-2 -49.167 -2 -84.5v-8zM213 756.004c0 37.333 9.99902 70.998 29.999 100.998s46.333 45 79 45c17.333 0 33.666 -4.83301 48.999 -14.5s27.333 -20.334 36 -32.001s18.5 -22.334 29.5 -32.001s21.167 -14.834 30.5 -15.501l8 1l7 3
c9.33301 8 15.666 17.5 18.999 28.5s4.66602 20.667 3.99902 29s0.333008 15.666 3 21.999s8 9.83301 16 10.5h33c7.33301 0 12.833 -1.16699 16.5 -3.5s5.5 -8.16602 5.5 -17.499c0 -18.667 -3.16699 -38.5 -9.5 -59.5s-18.166 -40.667 -35.499 -59
s-38.666 -27.5 -63.999 -27.5c-17.333 0 -33.5 4.83301 -48.5 14.5s-27 20.334 -36 32.001s-18.833 22.334 -29.5 32.001s-21 14.834 -31 15.501l-7 -1l-8 -3c-12 -10 -19.5 -26.167 -22.5 -48.5s-4.83301 -34.166 -5.5 -35.499c-3.33301 -4 -10.666 -6 -21.999 -6h-26
c-7.33301 0 -12.666 1.33301 -15.999 4s-5 8.33398 -5 17.001z" />
    <glyph glyph-name="Odieresis" unicode="&#xd6;" horiz-adv-x="794" 
d="M60 343c0 249.333 111.667 374 335 374c224.667 0 337 -124.667 337 -374c0 -243.333 -111.667 -365 -335 -365c-224.667 0 -337 121.667 -337 365zM202 345c0 -16.667 0.166992 -30.9961 0.5 -42.9961s1.83301 -28.667 4.5 -50s6.33398 -39.833 11.001 -55.5
s11.834 -32.667 21.501 -51s21.167 -33.333 34.5 -45s30.5 -21.5 51.5 -29.5s44.833 -12 71.5 -12c52.667 0 95.334 16.333 128.001 49c15.333 15.333 27.666 33.666 36.999 54.999s15.833 45.166 19.5 71.499s6 48.166 7 65.499s1.5 39.333 1.5 66v7
c0 16 -0.166992 29.667 -0.5 41s-1.83301 27.166 -4.5 47.499s-6.33398 37.5 -11.001 51.5s-11.834 29.5 -21.501 46.5s-21.167 30.833 -34.5 41.5s-30.5 19.667 -51.5 27s-44.5 11 -70.5 11c-54 0 -97.667 -16 -131 -48c-19.333 -18.667 -34 -43.667 -44 -75
s-15.667 -57.5 -17 -78.5s-2 -49.167 -2 -84.5v-8zM218 806.004l0.000976562 50c0 10.667 1.33301 19.167 4 25.5s6.66699 10.833 12 13.5s9.83301 4.33398 13.5 5.00098s8.83398 1.33398 15.501 2.00098h51c14 0 25.167 -3 33.5 -9s12.5 -18.333 12.5 -37v-52
c0 -4.66699 -0.333008 -9 -1 -13s-1.83398 -7.5 -3.50098 -10.5s-3.16699 -5.5 -4.5 -7.5s-3.33301 -3.83301 -6 -5.5s-4.83398 -2.83398 -6.50098 -3.50098s-4 -1.33398 -7 -2.00098s-5 -1 -6 -1s-2.83301 -0.333008 -5.5 -1h-5h-51c-14 0 -25.167 3.16699 -33.5 9.5
s-12.5 18.5 -12.5 36.5zM432.001 806.004l-0.00195312 49.998c0 10.667 1.16699 19.334 3.5 26.001s6.5 11.334 12.5 14.001s10.5 4.16699 13.5 4.5s8.16699 0.833008 15.5 1.5h51c14 0 25.167 -3 33.5 -9s12.5 -18.333 12.5 -37v-52c0 -6 -0.666992 -11.5 -2 -16.5
s-3.16602 -9 -5.49902 -12s-4.66602 -5.5 -6.99902 -7.5s-5.33301 -3.5 -9 -4.5s-6.5 -1.66699 -8.5 -2s-4.66699 -0.833008 -8 -1.5h-5h-52c-30 0 -45 15.333 -45 46z" />
    <glyph glyph-name="multiply" unicode="&#xd7;" horiz-adv-x="855" 
d="M156 20c0 12 7.33301 25.332 22 39.999l190 190l-192 191c-13.333 13.333 -20 26.333 -20 39c0 10.667 4 20.167 12 28.5s18 12.5 30 12.5s24.667 -6.66699 38 -20l191 -192h1l181 182c8.66699 8.66699 14.5 14.334 17.5 17.001s7.33301 5.5 13 8.5s11.5 4.5 17.5 4.5
c24.667 0 38.334 -13.667 41.001 -41c0 -12 -7.33301 -25.333 -22 -40l-190 -190l192 -191c13.333 -13.333 20 -26.333 20 -39c0 -12 -4.16699 -21.833 -12.5 -29.5s-17.833 -11.5 -28.5 -11.5c-12 0 -24.667 6.66699 -38 20l-191 192h-1l-194 -195
c-12.667 -11.333 -24.334 -17 -35.001 -17c-24 0 -38 13.667 -42 41z" />
    <glyph glyph-name="Oslash" unicode="&#xd8;" horiz-adv-x="855" 
d="M60 338c0 252.667 121.335 378.998 364.002 378.998c57.333 0 110.666 -7.66699 159.999 -23l11 18.5c4 7 7 12.5 9 16.5s4.5 8.5 7.5 13.5l7 11.5c1.66699 2.66699 3.66699 5.5 6 8.5l5.5 7c1.33301 1.66699 3.16602 3.33398 5.49902 5.00098s4.33301 2.83398 6 3.50098
s3.66699 1.16699 6 1.5s4.83301 0.5 7.5 0.5c10.667 0 20 -3.83301 28 -11.5s12 -16.834 12 -27.501c0 -8 -13.333 -35 -40 -81c92 -58.667 138 -165.334 138 -320.001c0 -241.333 -122.333 -362 -367 -362c-60.667 0 -113 7.33301 -157 22
c-2.66699 -5.33301 -6.66699 -12.333 -12 -21c-16 -28 -27.167 -45.833 -33.5 -53.5s-14.833 -11.5 -25.5 -11.5s-20.167 3.83301 -28.5 11.5s-12.5 16.834 -12.5 27.501c0 2.66699 0.333008 5.16699 1 7.5s2.16699 5.83301 4.5 10.5l6.5 13c2 4 5.83301 11 11.5 21l16.5 28
c-91.333 56.667 -137 158.334 -137 305.001zM185.002 338.998c0 -107.333 20.334 -181.998 61.001 -223.998l296 508c-37.333 14 -76 21 -116 21c-32.667 0 -62 -4 -88 -12s-47.333 -17.667 -64 -29s-30.834 -26.333 -42.501 -45s-20.5 -35.834 -26.5 -51.501
s-10.5 -34.834 -13.5 -57.501s-4.83301 -40.5 -5.5 -53.5s-1 -29.167 -1 -48.5v-8zM310.003 70c38.667 -13.333 77.002 -19.998 115.002 -19.998c32.667 0 61.667 3.5 87 10.5s46.333 15.667 63 26s31 24.166 43 41.499s21.167 33.666 27.5 48.999
s11.166 34.166 14.499 56.499s5.33301 41.166 6 56.499s1 34 1 56c0 52.667 -3.83301 96.834 -11.5 132.501s-23.834 68.834 -48.501 99.501z" />
    <glyph glyph-name="Ugrave" unicode="&#xd9;" horiz-adv-x="764" 
d="M217 866c1.33301 8 8.00195 12 20.002 12h139c8.66699 0 17.167 -2.66699 25.5 -8s28.5 -20.333 60.5 -45l42 -33c4.66699 -4 8 -8.66699 10 -14v-4c-2.66699 -6.66699 -9 -10 -19 -10h-52c-8.66699 0 -53.334 17.333 -134.001 52l-73 32c-6 2.66699 -10.167 5 -12.5 7
s-3.83301 3.5 -4.5 4.5s-1.33398 3.16699 -2.00098 6.5zM91.002 240l0.000976562 404.004c0 10 0.5 17.833 1.5 23.5s5.16699 11.5 12.5 17.5s18 9 32 9h50c8.66699 0 15.667 -0.666992 21 -2s10.833 -5.66602 16.5 -12.999s8.5 -18 8.5 -32v-405
c0 -26.667 1.33301 -48.667 4 -66s8.16699 -34.833 16.5 -52.5s21.5 -31.334 39.5 -41.001s41 -15.5 69 -17.5l25 -1c28 0.666992 51.667 4.66699 71 12s34 16.166 44 26.499s17.833 24.333 23.5 42s9 33.167 10 46.5s1.5 30.666 1.5 51.999v406c0 14 3.16699 24.5 9.5 31.5
s12.166 11 17.499 12s12.333 1.5 21 1.5h44c28 0 42 -15.333 42 -46v-405c0 -84.667 -22.5 -149.834 -67.5 -195.501s-118.5 -68.834 -220.5 -69.501c-194.667 0 -292 87.333 -292 262z" />
    <glyph glyph-name="Uacute" unicode="&#xda;" horiz-adv-x="764" 
d="M294 776c0 4 2.33496 8.33301 7.00195 13l56 43c29.333 23.333 47.166 36.833 53.499 40.5s13.5 5.5 21.5 5.5h139c13.333 0 20 -4.33301 20 -13c0 -2 -0.5 -3.83301 -1.5 -5.5s-2.16699 -3 -3.5 -4s-3 -2.16699 -5 -3.5l-3 -1c-129.333 -56 -198 -84.667 -206 -86
c-2.66699 -0.666992 -6.33398 -1 -11.001 -1h-50c-10 0.666992 -15.667 4.66699 -17 12zM91.002 240l0.000976562 404.004c0 10 0.5 17.833 1.5 23.5s5.16699 11.5 12.5 17.5s18 9 32 9h50c8.66699 0 15.667 -0.666992 21 -2s10.833 -5.66602 16.5 -12.999s8.5 -18 8.5 -32
v-405c0 -26.667 1.33301 -48.667 4 -66s8.16699 -34.833 16.5 -52.5s21.5 -31.334 39.5 -41.001s41 -15.5 69 -17.5l25 -1c28 0.666992 51.667 4.66699 71 12s34 16.166 44 26.499s17.833 24.333 23.5 42s9 33.167 10 46.5s1.5 30.666 1.5 51.999v406
c0 14 3.16699 24.5 9.5 31.5s12.166 11 17.499 12s12.333 1.5 21 1.5h44c28 0 42 -15.333 42 -46v-405c0 -84.667 -22.5 -149.834 -67.5 -195.501s-118.5 -68.834 -220.5 -69.501c-194.667 0 -292 87.333 -292 262z" />
    <glyph glyph-name="Ucircumflex" unicode="&#xdb;" horiz-adv-x="764" 
d="M91 240l0.000976562 404.004c0 10 0.5 17.833 1.5 23.5s5.16699 11.5 12.5 17.5s18 9 32 9h50c8.66699 0 15.667 -0.666992 21 -2s10.833 -5.66602 16.5 -12.999s8.5 -18 8.5 -32v-405c0 -26.667 1.33301 -48.667 4 -66s8.16699 -34.833 16.5 -52.5
s21.5 -31.334 39.5 -41.001s41 -15.5 69 -17.5l25 -1c28 0.666992 51.667 4.66699 71 12s34 16.166 44 26.499s17.833 24.333 23.5 42s9 33.167 10 46.5s1.5 30.666 1.5 51.999v406c0 14 3.16699 24.5 9.5 31.5s12.166 11 17.499 12s12.333 1.5 21 1.5h44
c28 0 42 -15.333 42 -46v-405c0 -84.667 -22.5 -149.834 -67.5 -195.501s-118.5 -68.834 -220.5 -69.501c-194.667 0 -292 87.333 -292 262zM211.001 748.004c0 4.66699 2.66797 10.335 8.00098 17.002l60 80c25.333 34 41 54 47 60s13.333 9 22 9h71
c6 0 12 -3.16699 18 -9.5s25 -30.5 57 -72.5l50 -64c7.33301 -10.667 11 -17.334 11 -20.001c0 -8.66699 -6 -13 -18 -13h-32c-6.66699 0 -13.334 2.5 -20.001 7.5s-25.667 21.833 -57 50.5l-45 41c-10 -8.66699 -20 -17.834 -30 -27.501s-18 -17.167 -24 -22.5l-18 -16.5
l-14 -13c-3.33301 -3 -6.83301 -5.83301 -10.5 -8.5s-6.5 -4.66699 -8.5 -6s-4.16699 -2.33301 -6.5 -3s-4.5 -1.16699 -6.5 -1.5s-4.33301 -0.5 -7 -0.5h-24c-15.333 0 -23 4.33301 -23 13z" />
    <glyph glyph-name="Udieresis" unicode="&#xdc;" horiz-adv-x="764" 
d="M91 240l0.000976562 404.004c0 10 0.5 17.833 1.5 23.5s5.16699 11.5 12.5 17.5s18 9 32 9h50c8.66699 0 15.667 -0.666992 21 -2s10.833 -5.66602 16.5 -12.999s8.5 -18 8.5 -32v-405c0 -26.667 1.33301 -48.667 4 -66s8.16699 -34.833 16.5 -52.5
s21.5 -31.334 39.5 -41.001s41 -15.5 69 -17.5l25 -1c28 0.666992 51.667 4.66699 71 12s34 16.166 44 26.499s17.833 24.333 23.5 42s9 33.167 10 46.5s1.5 30.666 1.5 51.999v406c0 14 3.16699 24.5 9.5 31.5s12.166 11 17.499 12s12.333 1.5 21 1.5h44
c28 0 42 -15.333 42 -46v-405c0 -84.667 -22.5 -149.834 -67.5 -195.501s-118.5 -68.834 -220.5 -69.501c-194.667 0 -292 87.333 -292 262zM203.001 806.004l0.00195312 51.001c0 6 0.5 11.167 1.5 15.5s2.16699 8 3.5 11s3.33301 5.66699 6 8s5 4.16602 7 5.49902
s4.66699 2.33301 8 3s5.66602 1 6.99902 1s4 0.333008 8 1h5h50c15.333 0 26.833 -3.33301 34.5 -10s11.5 -18.667 11.5 -36v-51c0 -5.33301 -0.5 -10.333 -1.5 -15s-2.33301 -8.5 -4 -11.5s-3.83398 -5.66699 -6.50098 -8s-5 -4 -7 -5s-4.5 -2 -7.5 -3
s-5.33301 -1.5 -7 -1.5s-4.16699 -0.333008 -7.5 -1h-4h-51c-30.667 0 -46 15.333 -46 46zM417.003 807.005l0.00292969 48.002c0 5.33301 0.333008 10.166 1 14.499s1.66699 8 3 11s2.66602 5.66699 3.99902 8s3.16602 4.33301 5.49902 6s4.33301 3 6 4s4 1.66699 7 2
s5 0.666016 6 0.999023s3.16699 0.5 6.5 0.5h6h51c30.667 0 46 -15 46 -45v-53c0 -6 -0.666992 -11.5 -2 -16.5s-3.16602 -9 -5.49902 -12s-4.83301 -5.5 -7.5 -7.5s-5.83398 -3.5 -9.50098 -4.5s-6.33398 -1.66699 -8.00098 -2l-7.5 -1.5h-5h-52c-30 0 -45 15.667 -45 47z
" />
    <glyph glyph-name="Yacute" unicode="&#xdd;" horiz-adv-x="733" 
d="M25 671c0 15.333 11.332 23.001 33.999 23.001h62c7.33301 0 13.833 -0.333008 19.5 -1s11.5 -2.33398 17.5 -5.00098s11 -5.16699 15 -7.5s9.33301 -7 16 -14s12.167 -13.333 16.5 -19l21 -28.5l25 -35.5l32 -46.5l39.5 -57
c28.667 -42.667 45.334 -68.334 50.001 -77.001c7.33301 15.333 61.333 94.666 162 237.999c14 20 26.667 33.833 38 41.5s28.333 11.5 51 11.5h49c22.667 0 34 -7.66699 34 -23c0 -5.33301 -6 -16.666 -18 -33.999l-249 -354c-3.33301 -8.66699 -5 -17.667 -5 -27v-209
c0 -18.667 -3.83301 -31.167 -11.5 -37.5s-19.167 -9.5 -34.5 -9.5h-49c-29.333 0 -44 15 -44 45v233l-257 364c-9.33301 12.667 -14 22.334 -14 29.001zM277.999 777.001c0 3.33301 2.33398 7.33203 7.00098 11.999l56 43c29.333 23.333 47.166 36.833 53.499 40.5
s13.5 5.5 21.5 5.5h140c13.333 0 20 -4.33301 20 -13c0 -2 -0.5 -3.83301 -1.5 -5.5s-2.16699 -3 -3.5 -4s-3 -2.16699 -5 -3.5l-3 -1l-112 -48c-44.667 -19.333 -71.5 -30.666 -80.5 -33.999s-17.167 -5 -24.5 -5h-51c-10 0.666992 -15.667 5 -17 13z" />
    <glyph glyph-name="Thorn" unicode="&#xde;" horiz-adv-x="642" 
d="M91 47l0.000976562 601c0 8.66699 0.666992 15.834 2 21.501s5.66602 11.167 12.999 16.5s17.666 8 30.999 8h48c28.667 0 43 -15.333 43 -46v-57h107c18 0 31 -0.166992 39 -0.5s22.333 -1.83301 43 -4.5s36.667 -6.33398 48 -11.001s25.333 -12 42 -22
s29.5 -21.833 38.5 -35.5s17 -31.667 24 -54s10.5 -47.5 10.5 -75.5c0 -30.667 -3.5 -58 -10.5 -82s-17.167 -43.333 -30.5 -58s-27.166 -26.834 -41.499 -36.501s-31.5 -16.667 -51.5 -21s-37.5 -7.16602 -52.5 -8.49902s-32.167 -2 -51.5 -2h-114v-134
c0 -30.667 -15.333 -46 -46 -46h-47c-29.333 0 -44 15.667 -44 47zM228.001 267h81.001c13.333 0 24.166 0.333008 32.499 1s19.833 3 34.5 7s26.5 10 35.5 18s17 19.833 24 35.5s10.5 34.834 10.5 57.501c0 20 -2.5 37.333 -7.5 52s-13 26.167 -24 34.5s-20.5 15 -28.5 20
s-19.833 8.16699 -35.5 9.5s-25.167 2.16602 -28.5 2.49902s-11.333 0.5 -24 0.5h-70v-238z" />
    <glyph glyph-name="germandbls" unicode="&#xdf;" horiz-adv-x="565" 
d="M60 47l-0.00195312 523.998c0 20 2 38.167 6 54.5s10.667 30 20 41s18.166 20.5 26.499 28.5s20 14.333 35 19l36 11.5c9 3 22.167 5 39.5 6s28.833 1.5 34.5 1.5h31.5c68.667 0 121.5 -11.833 158.5 -35.5s55.5 -66.167 55.5 -127.5
c0 -21.333 -1.83301 -40.5 -5.5 -57.5s-7.66699 -31 -12 -42s-10.833 -20.833 -19.5 -29.5s-15.834 -15 -21.501 -19s-13.667 -7.5 -24 -10.5s-17.166 -4.83301 -20.499 -5.5s-9.33301 -1.66699 -18 -3c-11.333 -1.33301 -18.833 -5 -22.5 -11s-5.5 -20 -5.5 -42
c0 -20 2.16699 -32.833 6.5 -38.5s12.5 -9.5 24.5 -11.5c34.667 -6.66699 60 -15.667 76 -27c8 -5.33301 15.667 -12 23 -20c28.667 -29.333 43 -67 43 -113c0 -100.667 -48 -151 -144 -151c-33.333 0 -63 7.33301 -89 22s-39 27.334 -39 38.001
c7.33301 53.333 14 83.666 20 90.999l4 3h4c3.33301 0 8.33301 -6.33301 15 -19s16.834 -25.167 30.501 -37.5s30.834 -18.5 51.501 -18.5c32 0 48 17.333 48 52c0 6.66699 -0.833008 12.834 -2.5 18.501s-3.33398 10.334 -5.00098 14.001s-4.66699 7.16699 -9 10.5l-10 7.5
c-2.33301 1.66699 -6.66602 3.5 -12.999 5.5s-10.5 3.16699 -12.5 3.5s-6.66699 1.33301 -14 3s-11.666 2.5 -12.999 2.5c-27.333 7.33301 -50 24 -68 50s-27 58.667 -27 98c0 90 38 137.333 114 142c0 2 0.166992 4.66699 0.5 8s0.5 6 0.5 8c0 10 -0.5 24.333 -1.5 43
s-1.5 31 -1.5 37c0 15.333 -0.5 26.5 -1.5 33.5s-3.83301 15.833 -8.5 26.5s-13 18.167 -25 22.5s-28 6.5 -48 6.5h-4c-36 0 -59.167 -7 -69.5 -21s-15.5 -35.667 -15.5 -65v-528c0 -30.667 -16 -46 -48 -46h-42c-29.333 0 -44 15.667 -44 47z" />
    <glyph glyph-name="agrave" unicode="&#xe0;" horiz-adv-x="525" 
d="M30 137c0 26 7.66406 48.666 22.9971 67.999s33.833 34.333 55.5 45s47.334 19.167 77.001 25.5s55.334 10.5 77.001 12.5s43.5 3 65.5 3v21c0 28.667 -4.66699 51.334 -14 68.001s-28.333 25 -57 25c-26 0 -49.667 -3.5 -71 -10.5s-37.166 -14.833 -47.499 -23.5
l-29 -24c-9 -7.33301 -15.5 -11 -19.5 -11l-4 1l-4 3c-2 3.33301 -3.83301 11.5 -5.5 24.5s-2.83398 24.833 -3.50098 35.5l-1 17c0 3.33301 0.166992 5.83301 0.5 7.5s1.5 3.5 3.5 5.5s3.5 3.33301 4.5 4s3.83301 2 8.5 4s8.33398 3.66699 11.001 5
c48 21.333 100.333 32 157 32c76 0 129.5 -14.333 160.5 -43s46.5 -70 46.5 -124v-263c0 -30 -15 -45 -45 -45h-48c-14.667 0 -25.167 4 -31.5 12s-9.5 17.333 -9.5 28c-44 -34 -95.333 -51 -154 -51c-44.667 0 -80.167 15.333 -106.5 46s-39.5 64.667 -39.5 102z
M160.997 136.999c0 -19.333 6.33301 -36.668 19 -52.001s29.334 -23 50.001 -23c22.667 0 44.667 7.16699 66 21.5s32 37.833 32 70.5v78c-20.667 -2 -38.334 -4.16699 -53.001 -6.5s-32 -6.66602 -52 -12.999s-35.333 -16 -46 -29s-16 -28.5 -16 -46.5zM168.997 663.997
v5.00098c2.66699 6.66699 9.66699 10 21 10h92c8.66699 0 16 -3 22 -9s23 -27.333 51 -64l39 -51l5 -10l1 -4c-0.666992 -8.66699 -7 -13 -19 -13h-27c-8.66699 0 -14.5 0.666992 -17.5 2s-9.16699 5.66602 -18.5 12.999c-96.667 75.333 -145.667 113.833 -147 115.5
s-2 3.5 -2 5.5z" />
    <glyph glyph-name="aacute" unicode="&#xe1;" horiz-adv-x="525" 
d="M30 137c0 26 7.66406 48.666 22.9971 67.999s33.833 34.333 55.5 45s47.334 19.167 77.001 25.5s55.334 10.5 77.001 12.5s43.5 3 65.5 3v21c0 28.667 -4.66699 51.334 -14 68.001s-28.333 25 -57 25c-26 0 -49.667 -3.5 -71 -10.5s-37.166 -14.833 -47.499 -23.5
l-29 -24c-9 -7.33301 -15.5 -11 -19.5 -11l-4 1l-4 3c-2 3.33301 -3.83301 11.5 -5.5 24.5s-2.83398 24.833 -3.50098 35.5l-1 17c0 3.33301 0.166992 5.83301 0.5 7.5s1.5 3.5 3.5 5.5s3.5 3.33301 4.5 4s3.83301 2 8.5 4s8.33398 3.66699 11.001 5
c48 21.333 100.333 32 157 32c76 0 129.5 -14.333 160.5 -43s46.5 -70 46.5 -124v-263c0 -30 -15 -45 -45 -45h-48c-14.667 0 -25.167 4 -31.5 12s-9.5 17.333 -9.5 28c-44 -34 -95.333 -51 -154 -51c-44.667 0 -80.167 15.333 -106.5 46s-39.5 64.667 -39.5 102z
M146.997 539.999c0 1.33301 0.333008 2.66504 1 3.99805s1.66699 3.16602 3 5.49902l4.5 7.5c1.66699 2.66699 4.16699 6 7.5 10l10 12.5l12.5 16.5c5 6.66699 10 13 15 19s11.167 13.833 18.5 23.5l21 27.5c6.66699 8.66699 16 13 28 13h85
c8.66699 0 16.334 -1.66699 23.001 -5l3 -5v-4c-0.666992 -4 -8 -11.667 -22 -23c-6.66699 -5.33301 -12.334 -9.66602 -17.001 -12.999l-70 -55c-29.333 -23.333 -47 -36.833 -53 -40.5s-13 -5.5 -21 -5.5h-26c-0.666992 0 -2.5 0.166992 -5.5 0.5s-5.16699 0.5 -6.5 0.5
s-3 0.333008 -5 1s-3.5 1.83398 -4.5 3.50098s-1.5 3.83398 -1.5 6.50098zM160.997 136.998c0 -19.333 6.33301 -36.668 19 -52.001s29.334 -23 50.001 -23c22.667 0 44.667 7.16699 66 21.5s32 37.833 32 70.5v78c-20.667 -2 -38.334 -4.16699 -53.001 -6.5
s-32 -6.66602 -52 -12.999s-35.333 -16 -46 -29s-16 -28.5 -16 -46.5z" />
    <glyph glyph-name="acircumflex" unicode="&#xe2;" horiz-adv-x="525" 
d="M30 137c0 26 7.66406 48.666 22.9971 67.999s33.833 34.333 55.5 45s47.334 19.167 77.001 25.5s55.334 10.5 77.001 12.5s43.5 3 65.5 3v21c0 28.667 -4.66699 51.334 -14 68.001s-28.333 25 -57 25c-26 0 -49.667 -3.5 -71 -10.5s-37.166 -14.833 -47.499 -23.5
l-29 -24c-9 -7.33301 -15.5 -11 -19.5 -11l-4 1l-4 3c-2 3.33301 -3.83301 11.5 -5.5 24.5s-2.83398 24.833 -3.50098 35.5l-1 17c0 3.33301 0.166992 5.83301 0.5 7.5s1.5 3.5 3.5 5.5s3.5 3.33301 4.5 4s3.83301 2 8.5 4s8.33398 3.66699 11.001 5
c48 21.333 100.333 32 157 32c76 0 129.5 -14.333 160.5 -43s46.5 -70 46.5 -124v-263c0 -30 -15 -45 -45 -45h-48c-14.667 0 -25.167 4 -31.5 12s-9.5 17.333 -9.5 28c-44 -34 -95.333 -51 -154 -51c-44.667 0 -80.167 15.333 -106.5 46s-39.5 64.667 -39.5 102z
M88.9971 539.999c0 4 3.49902 10 10.499 18s37.167 40.667 90.5 98c1.33301 1.33301 3 3.16602 5 5.49902s3.5 3.83301 4.5 4.5s2.16699 1.83398 3.5 3.50098s2.33301 2.66699 3 3s1.66699 1 3 2s2.5 1.66699 3.5 2s2.33301 0.666016 4 0.999023s3.33398 0.5 5.00098 0.5
h5.5h95c4 0 7.16699 -0.166992 9.5 -0.5s4.5 -1.33301 6.5 -3s3.5 -3 4.5 -4s2.66699 -3.33301 5 -7s4.16602 -6.16699 5.49902 -7.5c52.667 -72 79.334 -109.333 80.001 -112c0.666992 -1.33301 1 -2.66602 1 -3.99902c0 -8.66699 -9.33301 -13 -28 -13h-21
c-8 0 -14.833 1.66699 -20.5 5s-23.5 16.333 -53.5 39l-50 37c-69.333 -51.333 -106 -78 -110 -80c-2.66699 -0.666992 -7 -1 -13 -1h-22c-18 0 -27 4.33301 -27 13zM160.996 136.999c0 -19.333 6.33301 -36.668 19 -52.001s29.334 -23 50.001 -23
c22.667 0 44.667 7.16699 66 21.5s32 37.833 32 70.5v78c-20.667 -2 -38.334 -4.16699 -53.001 -6.5s-32 -6.66602 -52 -12.999s-35.333 -16 -46 -29s-16 -28.5 -16 -46.5z" />
    <glyph glyph-name="atilde" unicode="&#xe3;" horiz-adv-x="525" 
d="M91 560c0 24.667 10.333 48.5 31 71.5s47.667 34.5 81 34.5c28 0 56.667 -8.5 86 -25.5s48.333 -25.5 57 -25.5h1c16.667 0 28 8.33301 34 25l2 10c1.33301 6.66699 3.5 11 6.5 13s7.83301 3 14.5 3h32c13.333 0 20 -6.33301 20 -19
c0 -23.333 -9.66699 -46.833 -29 -70.5s-46.666 -35.5 -81.999 -35.5c-27.333 0 -55.833 8.66699 -85.5 26s-48.834 26 -57.501 26h-1c-16.667 0 -28 -8.33301 -34 -25c-0.666992 -1.33301 -1.5 -5 -2.5 -11s-3 -10.167 -6 -12.5s-7.83301 -3.5 -14.5 -3.5h-30
c-15.333 0 -23 6.33301 -23 19zM30 137c0 26 7.66406 48.666 22.9971 67.999s33.833 34.333 55.5 45s47.334 19.167 77.001 25.5s55.334 10.5 77.001 12.5s43.5 3 65.5 3v21c0 28.667 -4.66699 51.334 -14 68.001s-28.333 25 -57 25c-26 0 -49.667 -3.5 -71 -10.5
s-37.166 -14.833 -47.499 -23.5l-29 -24c-9 -7.33301 -15.5 -11 -19.5 -11l-4 1l-4 3c-2 3.33301 -3.83301 11.5 -5.5 24.5s-2.83398 24.833 -3.50098 35.5l-1 17c0 3.33301 0.166992 5.83301 0.5 7.5s1.5 3.5 3.5 5.5s3.5 3.33301 4.5 4s3.83301 2 8.5 4
s8.33398 3.66699 11.001 5c48 21.333 100.333 32 157 32c76 0 129.5 -14.333 160.5 -43s46.5 -70 46.5 -124v-263c0 -30 -15 -45 -45 -45h-48c-14.667 0 -25.167 4 -31.5 12s-9.5 17.333 -9.5 28c-44 -34 -95.333 -51 -154 -51c-44.667 0 -80.167 15.333 -106.5 46
s-39.5 64.667 -39.5 102zM160.997 136.999c0 -19.333 6.33301 -36.668 19 -52.001s29.334 -23 50.001 -23c22.667 0 44.667 7.16699 66 21.5s32 37.833 32 70.5v78c-20.667 -2 -38.334 -4.16699 -53.001 -6.5s-32 -6.66602 -52 -12.999s-35.333 -16 -46 -29
s-16 -28.5 -16 -46.5z" />
    <glyph glyph-name="adieresis" unicode="&#xe4;" horiz-adv-x="525" 
d="M30 137c0 26 7.66406 48.666 22.9971 67.999s33.833 34.333 55.5 45s47.334 19.167 77.001 25.5s55.334 10.5 77.001 12.5s43.5 3 65.5 3v21c0 28.667 -4.66699 51.334 -14 68.001s-28.333 25 -57 25c-26 0 -49.667 -3.5 -71 -10.5s-37.166 -14.833 -47.499 -23.5
l-29 -24c-9 -7.33301 -15.5 -11 -19.5 -11l-4 1l-4 3c-2 3.33301 -3.83301 11.5 -5.5 24.5s-2.83398 24.833 -3.50098 35.5l-1 17c0 3.33301 0.166992 5.83301 0.5 7.5s1.5 3.5 3.5 5.5s3.5 3.33301 4.5 4s3.83301 2 8.5 4s8.33398 3.66699 11.001 5
c48 21.333 100.333 32 157 32c76 0 129.5 -14.333 160.5 -43s46.5 -70 46.5 -124v-263c0 -30 -15 -45 -45 -45h-48c-14.667 0 -25.167 4 -31.5 12s-9.5 17.333 -9.5 28c-44 -34 -95.333 -51 -154 -51c-44.667 0 -80.167 15.333 -106.5 46s-39.5 64.667 -39.5 102z
M95.9971 596.999l0.00195312 52.999c0 29.333 15.667 44 47 44h49c15.333 0 26.833 -3.33301 34.5 -10s11.5 -19 11.5 -37v-49c0 -5.33301 -0.333008 -10 -1 -14s-1.83398 -7.5 -3.50098 -10.5l-4.5 -8c-1.33301 -2.33301 -3.33301 -4.16602 -6 -5.49902
s-4.83398 -2.5 -6.50098 -3.5s-4 -1.83301 -7 -2.5s-5.16699 -1 -6.5 -1s-3.33301 -0.333008 -6 -1h-4h-51c-30.667 0 -46 15 -46 45zM160.999 136.998c0 -19.333 6.33301 -36.668 19 -52.001s29.334 -23 50.001 -23c22.667 0 44.667 7.16699 66 21.5s32 37.833 32 70.5v78
c-20.667 -2 -38.334 -4.16699 -53.001 -6.5s-32 -6.66602 -52 -12.999s-35.333 -16 -46 -29s-16 -28.5 -16 -46.5zM308.999 598.996c0 1.33301 0.164062 3.16504 0.49707 5.49805s0.5 4.16602 0.5 5.49902v30c0 0.666992 -0.166992 1.66699 -0.5 3s-0.5 2.33301 -0.5 3
c0 11.333 1.16699 20.333 3.5 27s6.33301 11.5 12 14.5s10.334 4.66699 14.001 5l16.5 1.5h51c30.667 0 46 -15 46 -45c0 -1.33301 -0.166992 -3.16602 -0.5 -5.49902s-0.5 -4.16602 -0.5 -5.49902v-36c0 -0.666992 0.166992 -1.66699 0.5 -3s0.5 -2.66602 0.5 -3.99902
c0 -6 -0.666992 -11.5 -2 -16.5s-3.16602 -8.83301 -5.49902 -11.5s-4.66602 -5 -6.99902 -7s-5.33301 -3.5 -9 -4.5s-6.5 -1.66699 -8.5 -2s-4.66699 -0.833008 -8 -1.5h-5h-52c-30.667 0 -46 15.667 -46 47z" />
    <glyph glyph-name="aring" unicode="&#xe5;" horiz-adv-x="525" 
d="M30 137c0 26 7.66406 48.666 22.9971 67.999s33.833 34.333 55.5 45s47.334 19.167 77.001 25.5s55.334 10.5 77.001 12.5s43.5 3 65.5 3v21c0 28.667 -4.66699 51.334 -14 68.001s-28.333 25 -57 25c-26 0 -49.667 -3.5 -71 -10.5s-37.166 -14.833 -47.499 -23.5
l-29 -24c-9 -7.33301 -15.5 -11 -19.5 -11l-4 1l-4 3c-2 3.33301 -3.83301 11.5 -5.5 24.5s-2.83398 24.833 -3.50098 35.5l-1 17c0 3.33301 0.166992 5.83301 0.5 7.5s1.5 3.5 3.5 5.5s3.5 3.33301 4.5 4s3.83301 2 8.5 4s8.33398 3.66699 11.001 5
c48 21.333 100.333 32 157 32c76 0 129.5 -14.333 160.5 -43s46.5 -70 46.5 -124v-263c0 -30 -15 -45 -45 -45h-48c-14.667 0 -25.167 4 -31.5 12s-9.5 17.333 -9.5 28c-44 -34 -95.333 -51 -154 -51c-44.667 0 -80.167 15.333 -106.5 46s-39.5 64.667 -39.5 102z
M138.997 578.999c0 54.667 36 83.667 108 87h21c77.333 -0.666992 116 -29.667 116 -87c0 -54.667 -35.667 -83.667 -107 -87h-22c-77.333 1.33301 -116 30.333 -116 87zM160.997 136.999c0 -19.333 6.33301 -36.668 19 -52.001s29.334 -23 50.001 -23
c22.667 0 44.667 7.16699 66 21.5s32 37.833 32 70.5v78c-20.667 -2 -38.334 -4.16699 -53.001 -6.5s-32 -6.66602 -52 -12.999s-35.333 -16 -46 -29s-16 -28.5 -16 -46.5zM200.997 579.997c0 -20 4.66602 -33.834 13.999 -41.501s24.333 -11.5 45 -11.5
c26.667 0.666992 43.667 5 51 13c8 8 12 21 12 39c0 20 -4.66699 33.667 -14 41s-24.333 11 -45 11h-8c-5.33301 0 -8.5 -0.166992 -9.5 -0.5s-3.83301 -0.666016 -8.5 -0.999023s-7.5 -0.833008 -8.5 -1.5s-3.33301 -1.66699 -7 -3s-6.16699 -2.83301 -7.5 -4.5
s-3.16602 -3.83398 -5.49902 -6.50098s-4 -5.5 -5 -8.5s-1.83301 -6.66699 -2.5 -11s-1 -9.16602 -1 -14.499z" />
    <glyph glyph-name="ae" unicode="&#xe6;" horiz-adv-x="794" 
d="M30 125c0 25.333 8.83594 47.1689 26.5029 65.502s41.834 32 72.501 41s62 15.667 94 20s67 6.5 105 6.5v56c0 17.333 -1 31.666 -3 42.999s-8.66699 22.166 -20 32.499s-27.333 15.5 -48 15.5c-25.333 0 -48.5 -3.5 -69.5 -10.5s-36.833 -14.5 -47.5 -22.5
s-20.5 -15.833 -29.5 -23.5s-15.5 -11.834 -19.5 -12.501l-4 1l-4 2c-2.66699 3.33301 -4.83398 11.5 -6.50098 24.5s-2.83398 25.167 -3.50098 36.5l-1 17c0 6.66699 1.66699 11.5 5 14.5s10.333 6.83301 21 11.5c48 21.333 103.667 32 167 32
c65.333 0 115 -13.333 149 -40h1c37.333 26.667 87.333 40 150 40c131.333 0 197 -72.333 197 -217c0 -13.333 -2.83301 -23.5 -8.5 -30.5s-11.5 -11 -17.5 -12s-14 -1.5 -24 -1.5h-247c1.33301 -101.333 40.666 -152 117.999 -152c22 0 42.667 3.33301 62 10
s34.166 14 44.499 22l29.5 22.5c9.33301 7 15.666 10.833 18.999 11.5l4 -1l4 -3c2.66699 -4 4.83398 -11.667 6.50098 -23s2.83398 -21.666 3.50098 -30.999v-15c0 -6 -1.5 -10.5 -4.5 -13.5s-9.16699 -7.16699 -18.5 -12.5c-46.667 -26.667 -98.667 -40 -156 -40
c-74.667 0 -133.334 18.333 -176.001 55h-1c-45.333 -36.667 -121 -55 -227 -55c-45.333 0 -80.5 14.333 -105.5 43s-37.5 59.667 -37.5 93zM162.003 124.003c0 -14 5.66699 -27.999 17 -41.999s30 -21 56 -21s50.667 6.5 74 19.5s35 26.833 35 41.5
c0 2.66699 -0.666992 6.66699 -2 12s-3.16602 13.166 -5.49902 23.499s-4.5 22.166 -6.5 35.499c-10.667 0 -22.667 -0.666992 -36 -2s-31.333 -3.83301 -54 -7.5s-41.334 -10.667 -56.001 -21s-22 -23.166 -22 -38.499zM467.003 279.004h181c-1.33301 38 -8 68 -20 90
s-33 33 -63 33c-59.333 0 -92 -41 -98 -123z" />
    <glyph glyph-name="ccedilla" unicode="&#xe7;" horiz-adv-x="489" 
d="M36 228c0 38.667 4.3291 72.5029 12.9961 101.503s20.334 52.667 35.001 71s32.667 33.166 54 44.499s43.5 19.166 66.5 23.499s48.167 6.5 75.5 6.5c33.333 0 61.333 -2.83301 84 -8.5s48.667 -16.5 78 -32.5c5.33301 -3.33301 8 -8.66602 8 -15.999
c-3.33301 -52 -11.333 -78 -24 -78c-4.66699 0 -15.167 6.66699 -31.5 20s-32.166 22.666 -47.499 27.999c-17.333 6 -43 9 -77 9c-18 -0.666992 -33.5 -5 -46.5 -13s-22.667 -17 -29 -27s-11.333 -23 -15 -39s-5.66699 -28.833 -6 -38.5s-0.5 -22.167 -0.5 -37.5v-18
c0 -16.667 0.333008 -30.334 1 -41.001s2.83398 -24.167 6.50098 -40.5s8.83398 -29.333 15.501 -39s17 -18.167 31 -25.5s30.667 -11 50 -11c24 0 46 3.16699 66 9.5s35.333 13.333 46 21l29.5 22c9 7 15.5 10.833 19.5 11.5l5 -1c4 -2.66699 6.33301 -6.33398 7 -11.001
s2.66699 -24.334 6 -59.001v-8c0 -9.33301 -6.66699 -17.666 -20 -24.999c-48.667 -25.333 -102.667 -38 -162 -38c-46 0 -85.167 6.66699 -117.5 20s-56.833 31.833 -73.5 55.5s-28.667 48.834 -36 75.501s-11 56 -11 88zM146.996 -178.997c0 4.66699 27.666 50 82.999 136
c8.66699 13.333 17.667 20 27 20h29c15.333 0 23 -4.66699 23 -14c0 -3.33301 -18.333 -49.333 -55 -138c-5.33301 -12 -13.666 -18 -24.999 -18h-64c-12 0 -18 4.66699 -18 14z" />
    <glyph glyph-name="egrave" unicode="&#xe8;" horiz-adv-x="511" 
d="M30 233c0 81.333 21.334 141.998 64.001 181.998s101.334 60 176.001 60c40 0 74.167 -6.16699 102.5 -18.5s50 -29.333 65 -51s25.667 -44.5 32 -68.5s9.5 -50.667 9.5 -80c0 -28.667 -14.667 -43 -44 -43h-276c2.66699 -101.333 45 -152 127 -152
c29.333 0 56.166 4.83301 80.499 14.5s44.166 20.334 59.499 32.001s24.333 17.834 27 18.501h4l5 -2c3.33301 -3.33301 5.83301 -10.833 7.5 -22.5s2.5 -22.5 2.5 -32.5l1 -15c0 -8.66699 -5.33301 -16 -16 -22c-51.333 -29.333 -109 -44 -173 -44
c-83.333 0 -146.5 20.667 -189.5 62s-64.5 102 -64.5 182zM160.001 278.998l207 -0.000976562c-2 38.667 -9.66699 68.834 -23 90.501s-38 32.5 -74 32.5c-65.333 0 -102 -41 -110 -123zM180.001 667.997c2 7.33301 9 11.001 21 11.001h92c8.66699 0 16 -3 22 -9
s23 -27.333 51 -64l39 -51l6 -10l1 -4c-0.666992 -8.66699 -7 -13 -19 -13h-28c-8.66699 0 -14.5 0.666992 -17.5 2s-9.16699 5.66602 -18.5 12.999l-85 66c-31.333 24 -49.833 38.5 -55.5 43.5s-8.5 9.83301 -8.5 14.5v1z" />
    <glyph glyph-name="eacute" unicode="&#xe9;" horiz-adv-x="511" 
d="M129 540c0 1.33301 0.333984 2.66602 1.00098 3.99902s1.66699 3.16602 3 5.49902l4.5 7.5c1.66699 2.66699 4.16699 6 7.5 10l10 12.5l12.5 16.5c5 6.66699 10 13 15 19s11.167 13.833 18.5 23.5l21 27.5c7.33301 8.66699 16 13 26 13h87c8 0 15.333 -1.66699 22 -5
l3 -5v-4c-0.666992 -4.66699 -9.33398 -13.667 -26.001 -27c-5.33301 -3.33301 -9.33301 -6.33301 -12 -9l-63 -49c-33.333 -26 -53.333 -41.167 -60 -45.5s-14 -6.5 -22 -6.5h-26c-0.666992 0 -2.5 0.166992 -5.5 0.5s-5.16699 0.5 -6.5 0.5s-2.83301 0.333008 -4.5 1
s-3 1.83398 -4 3.50098s-1.5 3.83398 -1.5 6.50098zM30.001 233c0 81.333 21.334 141.998 64.001 181.998s101.334 60 176.001 60c40 0 74.167 -6.16699 102.5 -18.5s50 -29.333 65 -51s25.667 -44.5 32 -68.5s9.5 -50.667 9.5 -80c0 -28.667 -14.667 -43 -44 -43h-276
c2.66699 -101.333 45 -152 127 -152c29.333 0 56.166 4.83301 80.499 14.5s44.166 20.334 59.499 32.001s24.333 17.834 27 18.501h4l5 -2c3.33301 -3.33301 5.83301 -10.833 7.5 -22.5s2.5 -22.5 2.5 -32.5l1 -15c0 -8.66699 -5.33301 -16 -16 -22
c-51.333 -29.333 -109 -44 -173 -44c-83.333 0 -146.5 20.667 -189.5 62s-64.5 102 -64.5 182zM160.002 278.998l207 -0.000976562c-2 38.667 -9.66699 68.834 -23 90.501s-38 32.5 -74 32.5c-65.333 0 -102 -41 -110 -123z" />
    <glyph glyph-name="ecircumflex" unicode="&#xea;" horiz-adv-x="511" 
d="M30 233c0 81.333 21.334 141.998 64.001 181.998s101.334 60 176.001 60c40 0 74.167 -6.16699 102.5 -18.5s50 -29.333 65 -51s25.667 -44.5 32 -68.5s9.5 -50.667 9.5 -80c0 -28.667 -14.667 -43 -44 -43h-276c2.66699 -101.333 45 -152 127 -152
c29.333 0 56.166 4.83301 80.499 14.5s44.166 20.334 59.499 32.001s24.333 17.834 27 18.501h4l5 -2c3.33301 -3.33301 5.83301 -10.833 7.5 -22.5s2.5 -22.5 2.5 -32.5l1 -15c0 -8.66699 -5.33301 -16 -16 -22c-51.333 -29.333 -109 -44 -173 -44
c-83.333 0 -146.5 20.667 -189.5 62s-64.5 102 -64.5 182zM83.001 539.998c0 4 4.16699 10.832 12.5 20.499s38.166 41.834 89.499 96.501c12.667 14 24.334 21 35.001 21h71c7.33301 0 13.833 -2.5 19.5 -7.5s21.167 -21.167 46.5 -48.5l60 -65
c6.66699 -8.66699 10 -14.334 10 -17.001c0 -8.66699 -9 -13 -27 -13h-23c-8.66699 0 -21 6 -37 18c-6.66699 4 -19.5 13.167 -38.5 27.5l-47.5 35.5c-69.333 -51.333 -106 -77.666 -110 -78.999c-2.66699 -1.33301 -7 -2 -13 -2h-21c-18 0 -27 4.33301 -27 13z
M160.001 278.997l207 -0.000976562c-2 38.667 -9.66699 68.834 -23 90.501s-38 32.5 -74 32.5c-65.333 0 -102 -41 -110 -123z" />
    <glyph glyph-name="edieresis" unicode="&#xeb;" horiz-adv-x="511" 
d="M30 233c0 81.333 21.334 141.998 64.001 181.998s101.334 60 176.001 60c40 0 74.167 -6.16699 102.5 -18.5s50 -29.333 65 -51s25.667 -44.5 32 -68.5s9.5 -50.667 9.5 -80c0 -28.667 -14.667 -43 -44 -43h-276c2.66699 -101.333 45 -152 127 -152
c29.333 0 56.166 4.83301 80.499 14.5s44.166 20.334 59.499 32.001s24.333 17.834 27 18.501h4l5 -2c3.33301 -3.33301 5.83301 -10.833 7.5 -22.5s2.5 -22.5 2.5 -32.5l1 -15c0 -8.66699 -5.33301 -16 -16 -22c-51.333 -29.333 -109 -44 -173 -44
c-83.333 0 -146.5 20.667 -189.5 62s-64.5 102 -64.5 182zM77.001 597.998l0.00390625 49.9971c0 10.667 1.33301 19.334 4 26.001s7.16699 11.334 13.5 14.001s10.666 4.16699 12.999 4.5s7.16602 0.833008 14.499 1.5h51c14 0 25.167 -3 33.5 -9s12.5 -18.333 12.5 -37
v-51c0 -6 -0.5 -11.167 -1.5 -15.5s-2.33301 -8 -4 -11s-3.66699 -5.66699 -6 -8s-4.5 -4.16602 -6.5 -5.49902s-4.66699 -2.33301 -8 -3s-5.83301 -1 -7.5 -1s-3.83398 -0.166992 -6.50098 -0.5s-4.33398 -0.5 -5.00098 -0.5h-51c-14 0 -25.167 3.16699 -33.5 9.5
s-12.5 18.5 -12.5 36.5zM160.005 278.995l207 -0.000976562c-2 38.667 -9.66699 68.834 -23 90.501s-38 32.5 -74 32.5c-65.333 0 -102 -41 -110 -123zM290.005 597.994l-0.00292969 48.999c0 10.667 1.33301 19.5 4 26.5s6.83398 11.833 12.501 14.5
s10.167 4.16699 13.5 4.5s8.66602 0.833008 15.999 1.5h50c31.333 0 47 -15.333 47 -46c0 -1.33301 -0.166992 -3.16602 -0.5 -5.49902s-0.5 -3.83301 -0.5 -4.5v-42c0 -6 -0.666992 -11.5 -2 -16.5s-3.16602 -9 -5.49902 -12s-4.66602 -5.5 -6.99902 -7.5
s-5.16602 -3.5 -8.49902 -4.5s-6 -1.66699 -8 -2s-4.66699 -0.833008 -8 -1.5h-5h-52c-14 0 -25.167 3.16699 -33.5 9.5s-12.5 18.5 -12.5 36.5z" />
    <glyph glyph-name="eth" unicode="&#xf0;" 
d="M30 225c0 26.667 2.16504 51.3359 6.49805 74.0029s12.166 45.167 23.499 67.5s26 41.166 44 56.499s41.5 27.833 70.5 37.5s62.5 14.5 100.5 14.5h2c16.667 0 33 -1 49 -3c-13.333 20 -24.333 35.167 -33 45.5s-24.334 26.5 -47.001 48.5h-1
c-29.333 -16.667 -45.666 -25 -48.999 -25c-5.33301 0 -12 6.33301 -20 19c-21.333 36.667 -32 57 -32 61l2 8c-35.333 12.667 -54.333 20.667 -57 24c-1.33301 1.33301 -2 3 -2 5c0 1.33301 0.333008 2.66602 1 3.99902s1.83398 3 3.50098 5s3.33398 3.83301 5.00098 5.5
s4 3.83398 7 6.50098s5.83301 5 8.5 7l11.5 9c5 4 9.16699 7.66699 12.5 11c12 10 20.667 15 26 15c19.333 0 49 -10 89 -30h1c32.667 19.333 52 29 58 29c4.66699 0 11.667 -7.66699 21 -23c19.333 -33.333 29 -52 29 -56c0 -4.66699 -3 -9.33398 -9 -14.001
c24.667 -24 44.334 -44.333 59.001 -61s31.667 -40.167 51 -70.5s33.666 -65.166 42.999 -104.499s14 -83 14 -131v-20c0 -19.333 -0.666992 -36.333 -2 -51s-4.5 -32.667 -9.5 -54s-13 -39.833 -24 -55.5s-25 -30.834 -42 -45.501s-39.667 -25.834 -68 -33.501
s-61.166 -11.5 -98.499 -11.5c-162.667 0 -244 78.667 -244 236zM166.998 213.002c0.666992 -14 1.33496 -24.832 2.00195 -32.499s2 -18.167 4 -31.5s5.33301 -24 10 -32s10.667 -16.333 18 -25s17.166 -15 29.499 -19s26.833 -6 43.5 -6c20 0 37 3.66699 51 11
s24.667 15.833 32 25.5s12.833 23 16.5 40s5.83398 31.5 6.50098 43.5s1 27.667 1 47v8c0 16.667 -0.333008 30.167 -1 40.5s-2.83398 24 -6.50098 41s-9 30.5 -16 40.5s-17.667 18.833 -32 26.5s-31.5 11.5 -51.5 11.5s-37.167 -3.66699 -51.5 -11s-25 -15.5 -32 -24.5
s-12.333 -20.833 -16 -35.5s-5.83398 -26.334 -6.50098 -35.001s-1 -19 -1 -31v-52z" />
    <glyph glyph-name="ntilde" unicode="&#xf1;" horiz-adv-x="561" 
d="M59 45v373c0 12.667 2.66699 22.667 8 30s10.833 11.666 16.5 12.999s12.5 2 20.5 2h40c6.66699 0 11.834 -0.333008 15.501 -1s8.33398 -2.16699 14.001 -4.5s9.83398 -6.66602 12.501 -12.999s4 -14.5 4 -24.5v-20c46 46 100 69 162 69c24 0 44.833 -2.16699 62.5 -6.5
s31.667 -11 42 -20s18.666 -17.667 24.999 -26s10.666 -20 12.999 -35s3.83301 -27 4.5 -36s1 -21.5 1 -37.5v-264c0 -29.333 -14.333 -44 -43 -44h-47c-18 -0 -30.167 3.83301 -36.5 11.5s-9.5 18.5 -9.5 32.5v274c0 10 -0.166992 17.667 -0.5 23s-1.5 12 -3.5 20
s-5 14.167 -9 18.5s-9.83301 8.16602 -17.5 11.499s-17.167 5 -28.5 5c-28 0 -50.667 -8.5 -68 -25.5s-29 -35.5 -35 -55.5c-4 -14.667 -6 -32.667 -6 -54v-208c0 -1.33301 -0.166992 -3.16602 -0.5 -5.49902s-1.33301 -6.66602 -3 -12.999s-3.83398 -11.833 -6.50098 -16.5
s-7.16699 -8.83398 -13.5 -12.501s-13.833 -5.5 -22.5 -5.5h-44c-31.333 0 -47 15 -47 45zM97 560c0 24 10.167 47.667 30.5 71s47.5 35 81.5 35c28 0 56.667 -8.5 86 -25.5s48.333 -25.5 57 -25.5h1c16.667 0 28 8.33301 34 25l2 10c1.33301 6.66699 3.5 11 6.5 13
s7.83301 3 14.5 3h32c14 0 21 -6.33301 21 -19c0 -23.333 -9.83301 -46.833 -29.5 -70.5s-47.167 -35.5 -82.5 -35.5c-27.333 0 -56 8.66699 -86 26s-49.333 26 -58 26c-16 0 -27.667 -8.33301 -35 -25c-0.666992 -1.33301 -1.5 -5 -2.5 -11s-3 -10.167 -6 -12.5
s-7.83301 -3.5 -14.5 -3.5h-29c-15.333 0 -23 6.33301 -23 19z" />
    <glyph glyph-name="ograve" unicode="&#xf2;" 
d="M30 224c0 48 6.5 89.0029 19.5 123.003s30.833 60 53.5 78s46.667 30.833 72 38.5s53.333 11.5 84 11.5c17.333 0 32.5 -0.333008 45.5 -1s29 -2.83398 48 -6.50098s35.5 -8.83398 49.5 -15.501s28.667 -16.334 44 -29.001s28 -27.667 38 -45s18.167 -39.5 24.5 -66.5
s9.5 -57.5 9.5 -91.5c0 -154 -81 -231 -243 -231c-163.333 0 -245 78.333 -245 235zM167 214.003c0.666992 -17.333 1.33789 -30.333 2.00488 -39s3 -21.167 7 -37.5s9.33301 -28.666 16 -36.999s17 -16 31 -23s31 -10.5 51 -10.5s37 3.5 51 10.5s24.5 15 31.5 24
s12.5 21.333 16.5 37s6.33301 29 7 40s1 24.833 1 41.5v8v27c0 14 -0.333008 24.5 -1 31.5s-1.83398 17.5 -3.50098 31.5s-4.83398 25 -9.50098 33s-10.834 16.5 -18.501 25.5s-17.834 15.5 -30.501 19.5s-27.667 6 -45 6c-20.667 0 -38.167 -3.66699 -52.5 -11
s-24.833 -15.5 -31.5 -24.5s-11.834 -22.333 -15.501 -40s-5.66699 -31.334 -6 -41.001s-0.5 -24.5 -0.5 -44.5v-27zM169.004 664.003v5.00098c2.66699 6.66699 9.66699 10 21 10h92c8.66699 0 16 -3 22 -9s23 -27.333 51 -64l39 -51l5 -10l1 -4
c-0.666992 -8.66699 -7 -13 -19 -13h-27c-8.66699 0 -14.5 0.666992 -17.5 2s-9.16699 5.66602 -18.5 12.999c-96.667 75.333 -145.667 113.833 -147 115.5s-2 3.5 -2 5.5z" />
    <glyph glyph-name="oacute" unicode="&#xf3;" 
d="M209 540c0 1.33301 0.333984 2.66602 1.00098 3.99902s1.66699 3.16602 3 5.49902l4.5 7.5c1.66699 2.66699 4.16699 6 7.5 10l10 12.5l12.5 16.5c5 6.66699 10 13 15 19s11.167 13.833 18.5 23.5l21 27.5c7.33301 8.66699 16 13 26 13h87c8 0 15.333 -1.66699 22 -5
l3 -5v-4c-0.666992 -4.66699 -9.33398 -13.667 -26.001 -27c-5.33301 -3.33301 -9.33301 -6.33301 -12 -9l-63 -49c-33.333 -26 -53.333 -41.167 -60 -45.5s-14 -6.5 -22 -6.5h-26c-0.666992 0 -2.5 0.166992 -5.5 0.5s-5.16699 0.5 -6.5 0.5s-2.83301 0.333008 -4.5 1
s-3 1.83398 -4 3.50098s-1.5 3.83398 -1.5 6.50098zM30.001 224c0 48 6.5 89.0029 19.5 123.003s30.833 60 53.5 78s46.667 30.833 72 38.5s53.333 11.5 84 11.5c17.333 0 32.5 -0.333008 45.5 -1s29 -2.83398 48 -6.50098s35.5 -8.83398 49.5 -15.501
s28.667 -16.334 44 -29.001s28 -27.667 38 -45s18.167 -39.5 24.5 -66.5s9.5 -57.5 9.5 -91.5c0 -154 -81 -231 -243 -231c-163.333 0 -245 78.333 -245 235zM167.001 214.003c0.666992 -17.333 1.33789 -30.333 2.00488 -39s3 -21.167 7 -37.5s9.33301 -28.666 16 -36.999
s17 -16 31 -23s31 -10.5 51 -10.5s37 3.5 51 10.5s24.5 15 31.5 24s12.5 21.333 16.5 37s6.33301 29 7 40s1 24.833 1 41.5v8v27c0 14 -0.333008 24.5 -1 31.5s-1.83398 17.5 -3.50098 31.5s-4.83398 25 -9.50098 33s-10.834 16.5 -18.501 25.5s-17.834 15.5 -30.501 19.5
s-27.667 6 -45 6c-20.667 0 -38.167 -3.66699 -52.5 -11s-24.833 -15.5 -31.5 -24.5s-11.834 -22.333 -15.501 -40s-5.66699 -31.334 -6 -41.001s-0.5 -24.5 -0.5 -44.5v-27z" />
    <glyph glyph-name="ocircumflex" unicode="&#xf4;" 
d="M30 224c0 48 6.5 89.0029 19.5 123.003s30.833 60 53.5 78s46.667 30.833 72 38.5s53.333 11.5 84 11.5c17.333 0 32.5 -0.333008 45.5 -1s29 -2.83398 48 -6.50098s35.5 -8.83398 49.5 -15.501s28.667 -16.334 44 -29.001s28 -27.667 38 -45s18.167 -39.5 24.5 -66.5
s9.5 -57.5 9.5 -91.5c0 -154 -81 -231 -243 -231c-163.333 0 -245 78.333 -245 235zM102 540.003c0 4 3.5 9.99707 10.5 17.9971s37.833 41 92.5 99c1.33301 1.33301 2.83301 3 4.5 5s3 3.5 4 4.5l4 4c1.66699 1.66699 3 2.83398 4 3.50098s2.5 1.33398 4.5 2.00098
s4 1.16699 6 1.5s4.33301 0.5 7 0.5h71c7.33301 0 14 -2.66699 20 -8s23.667 -23.666 53 -54.999l54 -58c6 -7.33301 9 -13 9 -17c0 -8.66699 -9 -13 -27 -13h-21c-8 0 -14.833 1.66699 -20.5 5s-23.5 16.333 -53.5 39l-50 37c-69.333 -51.333 -106 -78 -110 -80
c-2.66699 -0.666992 -7 -1 -13 -1h-22c-18 0 -27 4.33301 -27 13zM167 214c0.666992 -17.333 1.33789 -30.333 2.00488 -39s3 -21.167 7 -37.5s9.33301 -28.666 16 -36.999s17 -16 31 -23s31 -10.5 51 -10.5s37 3.5 51 10.5s24.5 15 31.5 24s12.5 21.333 16.5 37
s6.33301 29 7 40s1 24.833 1 41.5v8v27c0 14 -0.333008 24.5 -1 31.5s-1.83398 17.5 -3.50098 31.5s-4.83398 25 -9.50098 33s-10.834 16.5 -18.501 25.5s-17.834 15.5 -30.501 19.5s-27.667 6 -45 6c-20.667 0 -38.167 -3.66699 -52.5 -11s-24.833 -15.5 -31.5 -24.5
s-11.834 -22.333 -15.501 -40s-5.66699 -31.334 -6 -41.001s-0.5 -24.5 -0.5 -44.5v-27z" />
    <glyph glyph-name="otilde" unicode="&#xf5;" 
d="M91 560c0 24.667 10.333 48.5 31 71.5s47.667 34.5 81 34.5c28 0 56.667 -8.5 86 -25.5s48.333 -25.5 57 -25.5h1c16.667 0 28 8.33301 34 25l2 10c1.33301 6.66699 3.5 11 6.5 13s7.83301 3 14.5 3h32c13.333 0 20 -6.33301 20 -19
c0 -23.333 -9.66699 -46.833 -29 -70.5s-46.666 -35.5 -81.999 -35.5c-27.333 0 -55.833 8.66699 -85.5 26s-48.834 26 -57.501 26h-1c-16.667 0 -28 -8.33301 -34 -25c-0.666992 -1.33301 -1.5 -5 -2.5 -11s-3 -10.167 -6 -12.5s-7.83301 -3.5 -14.5 -3.5h-30
c-15.333 0 -23 6.33301 -23 19zM30 224c0 48 6.5 89.0029 19.5 123.003s30.833 60 53.5 78s46.667 30.833 72 38.5s53.333 11.5 84 11.5c17.333 0 32.5 -0.333008 45.5 -1s29 -2.83398 48 -6.50098s35.5 -8.83398 49.5 -15.501s28.667 -16.334 44 -29.001s28 -27.667 38 -45
s18.167 -39.5 24.5 -66.5s9.5 -57.5 9.5 -91.5c0 -154 -81 -231 -243 -231c-163.333 0 -245 78.333 -245 235zM167 214.003c0.666992 -17.333 1.33789 -30.333 2.00488 -39s3 -21.167 7 -37.5s9.33301 -28.666 16 -36.999s17 -16 31 -23s31 -10.5 51 -10.5s37 3.5 51 10.5
s24.5 15 31.5 24s12.5 21.333 16.5 37s6.33301 29 7 40s1 24.833 1 41.5v8v27c0 14 -0.333008 24.5 -1 31.5s-1.83398 17.5 -3.50098 31.5s-4.83398 25 -9.50098 33s-10.834 16.5 -18.501 25.5s-17.834 15.5 -30.501 19.5s-27.667 6 -45 6
c-20.667 0 -38.167 -3.66699 -52.5 -11s-24.833 -15.5 -31.5 -24.5s-11.834 -22.333 -15.501 -40s-5.66699 -31.334 -6 -41.001s-0.5 -24.5 -0.5 -44.5v-27z" />
    <glyph glyph-name="odieresis" unicode="&#xf6;" 
d="M30 224c0 48 6.5 89.0029 19.5 123.003s30.833 60 53.5 78s46.667 30.833 72 38.5s53.333 11.5 84 11.5c17.333 0 32.5 -0.333008 45.5 -1s29 -2.83398 48 -6.50098s35.5 -8.83398 49.5 -15.501s28.667 -16.334 44 -29.001s28 -27.667 38 -45s18.167 -39.5 24.5 -66.5
s9.5 -57.5 9.5 -91.5c0 -154 -81 -231 -243 -231c-163.333 0 -245 78.333 -245 235zM96 597.003l0.00195312 52.999c0 29.333 15.667 44 47 44h49c15.333 0 26.833 -3.33301 34.5 -10s11.5 -19 11.5 -37v-49c0 -5.33301 -0.333008 -10 -1 -14s-1.83398 -7.5 -3.50098 -10.5
l-4.5 -8c-1.33301 -2.33301 -3.33301 -4.16602 -6 -5.49902s-4.83398 -2.5 -6.50098 -3.5s-4 -1.83301 -7 -2.5s-5.16699 -1 -6.5 -1s-3.33301 -0.333008 -6 -1h-4h-51c-30.667 0 -46 15 -46 45zM167.002 214.002c0.666992 -17.333 1.33789 -30.333 2.00488 -39
s3 -21.167 7 -37.5s9.33301 -28.666 16 -36.999s17 -16 31 -23s31 -10.5 51 -10.5s37 3.5 51 10.5s24.5 15 31.5 24s12.5 21.333 16.5 37s6.33301 29 7 40s1 24.833 1 41.5v8v27c0 14 -0.333008 24.5 -1 31.5s-1.83398 17.5 -3.50098 31.5s-4.83398 25 -9.50098 33
s-10.834 16.5 -18.501 25.5s-17.834 15.5 -30.501 19.5s-27.667 6 -45 6c-20.667 0 -38.167 -3.66699 -52.5 -11s-24.833 -15.5 -31.5 -24.5s-11.834 -22.333 -15.501 -40s-5.66699 -31.334 -6 -41.001s-0.5 -24.5 -0.5 -44.5v-27zM309.006 599.002
c0 1.33301 0.164062 3.16504 0.49707 5.49805s0.5 4.16602 0.5 5.49902v30c0 0.666992 -0.166992 1.66699 -0.5 3s-0.5 2.33301 -0.5 3c0 11.333 1.16699 20.333 3.5 27s6.33301 11.5 12 14.5s10.334 4.66699 14.001 5l16.5 1.5h51c30.667 0 46 -15 46 -45
c0 -1.33301 -0.166992 -3.16602 -0.5 -5.49902s-0.5 -4.16602 -0.5 -5.49902v-36c0 -0.666992 0.166992 -1.66699 0.5 -3s0.5 -2.66602 0.5 -3.99902c0 -6 -0.666992 -11.5 -2 -16.5s-3.16602 -8.83301 -5.49902 -11.5s-4.66602 -5 -6.99902 -7s-5.33301 -3.5 -9 -4.5
s-6.5 -1.66699 -8.5 -2s-4.66699 -0.833008 -8 -1.5h-5h-52c-30.667 0 -46 15.667 -46 47z" />
    <glyph glyph-name="divide" unicode="&#xf7;" horiz-adv-x="855" 
d="M61 250c0 10.667 3.16895 19.8311 9.50195 27.498s15.166 12.167 26.499 13.5c5.33301 0.666992 13.333 1 24 1h621c13.333 0 24.166 -3 32.499 -9s13.333 -11.667 15 -17s2.5 -10.666 2.5 -15.999s-1 -10.666 -3 -15.999s-6.83301 -11 -14.5 -17s-18.167 -9 -31.5 -9
h-632c-33.333 0 -50 14 -50 42zM331.002 42.9971c0 33.333 17.667 50 53 50h90c31.333 0 47 -17.333 47 -52v-87c0 -34 -16.333 -51 -49 -51h-91c-33.333 0 -50 17.333 -50 52v88zM331.002 458.997v88c0 33.333 17.667 50 53 50h88c32.667 0 49 -17.667 49 -53v-87
c0 -33.333 -16.333 -50 -49 -50h-93c-32 0 -48 17.333 -48 52z" />
    <glyph glyph-name="oslash" unicode="&#xf8;" 
d="M30 225c0 166.667 81.0029 249.999 243.003 249.999c22 0 52.667 -3.66699 92 -11c39.333 70.667 61 108.334 65 113.001c7.33301 9.33301 16.333 14 27 14c10 0 18.667 -3.33301 26 -10s11 -15 11 -25c0 -7.33301 -7.66699 -24.666 -23 -51.999l-20 -36
c-8.66699 -14 -15.334 -25.333 -20.001 -34c58 -42 87 -112 87 -210c0 -156.667 -81 -235 -243 -235c-24.667 0 -54.667 3 -90 9l-17.5 -32l-15 -27l-12 -21.5l-10 -17.5c-2.33301 -4 -5 -8.33301 -8 -13s-5.66699 -8 -8 -10s-4.83301 -3.83301 -7.5 -5.5
s-5.33398 -2.83398 -8.00098 -3.50098s-5.66699 -1 -9 -1c-9.33301 0 -17.666 3.5 -24.999 10.5s-11 15.5 -11 25.5c0 2.66699 0.166992 4.83398 0.5 6.50098s1.16602 4.16699 2.49902 7.5s2.66602 6.33301 3.99902 9s3.83301 7.33398 7.5 14.001s7.5 13.167 11.5 19.5
s9.5 15.666 16.5 27.999l21.5 38.5c-58.667 39.333 -88 105.666 -88 198.999zM150.003 221.999c0 -9.33301 0.168945 -18.0029 0.501953 -26.0029s0.666016 -14.833 0.999023 -20.5s1 -11.167 2 -16.5s1.66699 -9.5 2 -12.5s1.16602 -6.5 2.49902 -10.5
s2.33301 -6.83301 3 -8.5l3 -7.5c1.33301 -3.33301 2.33301 -5.66602 3 -6.99902l158 282c-18.667 4.66699 -35.667 7 -51 7c-23.333 0 -43.333 -4 -60 -12s-29 -17.167 -37 -27.5s-14.167 -24.666 -18.5 -42.999s-6.83301 -33.166 -7.5 -44.499s-1 -27 -1 -47v-6z
M225.005 66.9961c24.667 -4 41 -5.99902 49 -5.99902c23.333 0 43.166 3.5 59.499 10.5s28.5 15.167 36.5 24.5s14.333 22.166 19 38.499s7.33398 30 8.00098 41s1 25.167 1 42.5v11c0 47.333 -5.66699 86 -17 116z" />
    <glyph glyph-name="ugrave" unicode="&#xf9;" horiz-adv-x="561" 
d="M59 139l0.000976562 274.999c0 29.333 14.667 44 44 44h46c14.667 0 25.667 -3 33 -9s11.333 -11.167 12 -15.5s1.33398 -11.166 2.00098 -20.499v-266c0 -2.66699 -0.166992 -6.66699 -0.5 -12s-0.5 -9.33301 -0.5 -12c0 -29.333 3.66699 -48.833 11 -58.5
s25 -14.5 53 -14.5c26.667 0 50.834 9.83301 72.501 29.5s32.5 53.5 32.5 101.5v225c0 10 0.333008 17.5 1 22.5s1.66699 8.5 3 10.5s4.33301 5.33301 9 10c7.33301 6 18.666 9 33.999 9h44c29.333 0 44.333 -14 45 -42v-373c0 -28.667 -15 -43 -45 -43h-47
c-27.333 0 -41 14.667 -41 44c-22.667 -22 -45.334 -36.667 -68.001 -44s-49.334 -11 -80.001 -11c-29.333 0 -54.5 3.16699 -75.5 9.5s-36.833 13.833 -47.5 22.5s-19 20.5 -25 35.5s-9.5 28 -10.5 39s-1.5 25.5 -1.5 43.5zM159.001 663.999l-0.000976562 5.00098
c2.66699 6.66699 9.66699 10 21 10h92c9.33301 0 17 -3.33301 23 -10c2.66699 -2.66699 32.334 -40.667 89.001 -114l6 -10l1 -4c-0.666992 -8.66699 -7 -13 -19 -13h-28c-8.66699 0 -14.5 0.666992 -17.5 2s-9.16699 5.66602 -18.5 12.999
c-96.667 75.333 -145.667 113.833 -147 115.5s-2 3.5 -2 5.5z" />
    </font>
</defs>
</svg>
