<?xml version="1.0" standalone="no"?>
<!DOCTYPE svg PUBLIC "-//W3C//DTD SVG 1.1//EN" "http://www.w3.org/Graphics/SVG/1.1/DTD/svg11.dtd" >
<svg>
<metadata>
Created by FontForge 20090914 at Wed Nov  7 16:05:54 2012
 By www-data
Converted by Andrey V. Panov from TeX fonts
</metadata>
<defs>
<font id="CMUSansSerif" horiz-adv-x="500" >
  <font-face 
    font-family="CMU Sans Serif"
    font-weight="500"
    font-stretch="normal"
    units-per-em="1000"
    panose-1="2 0 6 3 0 0 0 0 0 0"
    ascent="800"
    descent="-200"
    x-height="445"
    cap-height="694"
    bbox="-1135 -354.004 1481 1191"
    underline-thickness="50"
    underline-position="-100"
    unicode-range="U+0020-U+10147"
  />
<missing-glyph horiz-adv-x="760" 
d="M10 10v755h740v-755h-740zM70 112l276 276l-276 275v-551zM105 70h550l-275 276zM105 705l275 -276l275 276h-550zM414 388l276 -276v551z" />
    <glyph glyph-name="igrave" unicode="i&#x300;" horiz-adv-x="239" 
d="M-33 640h78l133 -130h-61zM82 0v445h75v-445h-75z" />
    <glyph glyph-name="iacute" unicode="i&#x301;" horiz-adv-x="239" 
d="M32 510l133 130h78l-149 -130h-62zM81 0v445h75v-445h-75z" />
    <glyph glyph-name="icircumflex" unicode="i&#x302;" horiz-adv-x="239" 
d="M-36 509l125 141h61l125 -141h-61l-95 99l-94 -99h-61zM82 0v445h75v-445h-75z" />
    <glyph glyph-name="idieresis" unicode="i&#x308;" horiz-adv-x="294" 
d="M109 0v445h75v-445h-75zM199 571v89h90v-89h-90zM5 571v89h90v-89h-90z" />
    <glyph glyph-name="Aogonek" unicode="A&#x328;" horiz-adv-x="667" 
d="M27 0l261.002 694h89l260 -694h-28l-3 -2c-2 -1.33301 -4.5 -2.83301 -7.5 -4.5s-6.5 -3.83398 -10.5 -6.50098s-8 -5.5 -12 -8.5s-8.33301 -6.5 -13 -10.5s-9 -8 -13 -12s-8 -8.5 -12 -13.5s-7.33301 -10 -10 -15s-4.83398 -10.5 -6.50098 -16.5s-2.5 -11.667 -2.5 -17
c0 -11.333 4.16699 -21 12.5 -29s21.166 -12 38.499 -12c14.667 0 37 4.66699 67 14l16 -59c-36 -16.667 -68.333 -25 -97 -25s-52 8.16699 -70 24.5s-27 37.833 -27 64.5c0 24.667 7.83301 48.334 23.5 71.001s36.167 41.667 61.5 57l-76 204h-290l-76 -204h-75z
M199.002 260h248c-78.667 218 -120 339.333 -124 364c-8.66699 -40.667 -50 -162 -124 -364z" />
    <glyph glyph-name="imacron" unicode="i&#x304;" horiz-adv-x="239" 
d="M-62 552v64h360v-64h-360zM81 0v445h75v-445h-75z" />
    <glyph glyph-name="ibreve" unicode="i&#x306;" horiz-adv-x="239" 
d="M-52 639h60.998c1.33301 -15.333 6.33301 -28.333 15 -39s19.334 -18.334 32.001 -23.001s24 -7.83398 34 -9.50098s19.333 -2.5 28 -2.5s17.834 0.833008 27.501 2.5s20.667 4.83398 33 9.50098s22.833 12.334 31.5 23.001s13.667 23.667 15 39h62
c-1.33301 -43.333 -19 -77.666 -53 -102.999s-73 -38 -117 -38s-82.833 12.667 -116.5 38s-51.167 59.666 -52.5 102.999zM80.998 0v445h75v-445h-75z" />
    <glyph glyph-name="IJ" unicode="IJ" horiz-adv-x="722" 
d="M66 0v694h90v-694h-90zM291 20l8.00195 46.001l6 29c35.333 -36.667 78.333 -55 129 -55c78 0 117 39 117 117v537h87v-539c0 -44.667 -9.33301 -80.834 -28 -108.501s-40.334 -46 -65.001 -55s-52.334 -13.5 -83.001 -13.5c-55.333 0 -112.333 14 -171 42z" />
    <glyph glyph-name="ij" unicode="ij" horiz-adv-x="544" 
d="M81 590v89h90v-89h-90zM88 0v445h75v-445h-75zM230 -171l15 61.001c24 -20.667 48.667 -31 74 -31c19.333 0 35.666 5.16699 48.999 15.5s21.333 22.166 24 35.499c0.666992 2.66699 1 11 1 25v510h76v-496c0 -54.667 -12.667 -94 -38 -118s-53.666 -36 -84.999 -36
c-39.333 0 -78 11.333 -116 34zM379 590.001v89h90v-89h-90z" />
    <glyph glyph-name="jcircumflex" unicode="j&#x302;" horiz-adv-x="267" 
d="M-8 509l125 141h61l125 -141h-61l-95 99l-94 -99h-61zM-61 -171l20.002 61.001c24.667 -20.667 49.667 -31 75 -31c19.333 0 35.666 5 48.999 15s21.666 22 24.999 36c1.33301 5.33301 2 13.666 2 24.999v510h75v-495c0 -55.333 -13 -95 -39 -119s-55 -36 -87 -36
c-40.667 0 -80.667 11.333 -120 34z" />
    <glyph glyph-name="uni01D0" unicode="i&#x30c;" horiz-adv-x="239" 
d="M-44 639h61.9971l100 -68l99 68h35l27 -1c-82 -58.667 -125.333 -89 -130 -91c-3.33301 -1.33301 -7.66602 -2 -12.999 -2h-36c-7.33301 0 -15.166 2.5 -23.499 7.5s-30.166 20.5 -65.499 46.5zM80.9971 0v445h75v-445h-75z" />
    <glyph glyph-name="uni01F0" unicode="j&#x30c;" horiz-adv-x="267" 
d="M-14 639h61.9971l100 -68l99 68h35l27 -1c-82 -58.667 -125.333 -89 -130 -91c-3.33301 -1.33301 -7.66602 -2 -12.999 -2h-36c-7.33301 0 -15.166 2.5 -23.499 7.5s-30.166 20.5 -65.499 46.5zM-61.0029 -171l20.002 61.001c24.667 -20.667 49.667 -31 75 -31
c19.333 0 35.666 5 48.999 15s21.666 22 24.999 36c1.33301 5.33301 2 13.666 2 24.999v510h75v-495c0 -55.333 -13 -95 -39 -119s-55 -36 -87 -36c-40.667 0 -80.667 11.333 -120 34z" />
    <glyph glyph-name="uni0410_acutecomb" unicode="&#x410;&#x301;" horiz-adv-x="667" 
d="M27 0l261 694h89l260 -694h-92l-77 204h-290l-76 -204h-75zM199 260h248c-78.667 218 -120 339.333 -124 364c-8.66699 -40.667 -50 -162 -124 -364zM207 760c99.333 57.333 151 86.667 155 88c3.33301 1.33301 8 2 14 2h98l-158 -79l-22 -10l-15 -1h-72z" />
    <glyph glyph-name="ff" unicode="ff" horiz-adv-x="583" 
d="M27 386v59h74v73c0 2.66699 -0.166992 6.66699 -0.5 12s-0.5 9.33301 -0.5 12c0 61.333 16.833 108.5 50.5 141.5s72.834 49.5 117.501 49.5c24.667 0 51 -3.66699 79 -11v-67c-28.667 11.333 -55.667 17 -81 17c-22.667 0 -43.834 -6.66699 -63.501 -20
s-29.5 -37 -29.5 -71v-136h113v-59h-110v-386h-75v386h-74zM378 0l0.000976562 542c0 61.333 16.667 108.5 50 141.5s72 49.5 116 49.5c24.667 0 51.334 -3.66699 80.001 -11v-67c-28.667 11.333 -55.334 17 -80.001 17c-22.667 0 -43.834 -6.66699 -63.501 -20
s-29.5 -37 -29.5 -71v-136h113v-59h-110v-386h-76z" />
    <glyph glyph-name="fi" unicode="fi" horiz-adv-x="536" 
d="M27 386l0.000976562 59h74v99c0 64 14 111.5 42 142.5s58.667 46.5 92 46.5c15.333 0 35 -3.66699 59 -11v-68c-22.667 12 -42.334 18 -59.001 18c-16 0 -30.333 -6.83301 -43 -20.5s-19 -37.167 -19 -70.5v-136h121v-59h-118v-386h-75v386h-74zM374.001 639v84h84v-84
h-84zM378.001 0v445h75v-445h-75z" />
    <glyph glyph-name="fl" unicode="fl" horiz-adv-x="536" 
d="M27 386l0.000976562 59h74v99c0 64 14 111.5 42 142.5s58.667 46.5 92 46.5c15.333 0 35 -3.66699 59 -11v-67c-22.667 11.333 -42.334 17 -59.001 17c-6.66699 0 -13 -1.16699 -19 -3.5s-12.5 -6.33301 -19.5 -12s-12.667 -15 -17 -28s-6.5 -28.833 -6.5 -47.5v-136h121
v-59h-118v-386h-75v386h-74zM378.001 0v722h75v-722h-75z" />
    <glyph glyph-name="ffi" unicode="ffi" horiz-adv-x="814" 
d="M27 386l-0.000976562 59.001h74v97c0 62 15 109.333 45 142s65 49 105 49c20.667 0 43.334 -3.66699 68.001 -11v-67c-24 11.333 -47 17 -69 17c-10.667 0 -21 -1.66699 -31 -5s-20.167 -12.333 -30.5 -27s-15.5 -34.334 -15.5 -59.001v-136h121v-59h-118v-386h-75v386
h-74zM377.999 0.000976562v539c0 67.333 14 116.5 42 147.5s58.667 46.5 92 46.5c20.667 0 40.667 -3.33301 60 -10v-69c-21.333 12 -41 18 -59 18c-16 0 -30.333 -6.83301 -43 -20.5s-19 -37.167 -19 -70.5v-136h121v-59h-118v-386h-76zM651.999 639.001v84h84v-84h-84z
M655.999 0.000976562v445h75v-445h-75z" />
    <glyph glyph-name="ffl" unicode="ffl" horiz-adv-x="814" 
d="M27 386l-0.000976562 59.001h74v97c0 62 15 109.333 45 142s65 49 105 49c20.667 0 43.334 -3.66699 68.001 -11v-67c-24 11.333 -47 17 -69 17c-10.667 0 -21 -1.66699 -31 -5s-20.167 -12.333 -30.5 -27s-15.5 -34.334 -15.5 -59.001v-136h121v-59h-118v-386h-75v386
h-74zM377.999 0.000976562l-0.000976562 539.001c0 35.333 4.33301 66.166 13 92.499s20.167 46.5 34.5 60.5s28.833 24.333 43.5 31s29.334 10 44.001 10c15.333 0 35 -3.66699 59 -11v-67c-20 11.333 -39.667 17 -59 17c-6.66699 0 -13 -1.16699 -19 -3.5
s-12.5 -6.33301 -19.5 -12s-12.667 -15 -17 -28s-6.5 -28.833 -6.5 -47.5v-136h121v-59h-118v-386h-76zM655.998 0.00195312v722h75v-722h-75z" />
    <glyph glyph-name=".notdef" horiz-adv-x="760" 
d="M10 10v755h740v-755h-740zM70 112l276 276l-276 275v-551zM105 70h550l-275 276zM105 705l275 -276l275 276h-550zM414 388l276 -276v551z" />
    <glyph glyph-name="space" unicode=" " horiz-adv-x="333" 
 />
    <glyph glyph-name="exclam" unicode="!" horiz-adv-x="319" 
d="M117 0v84h84v-84h-84zM117 722h84l-9 -547h-67l-7 496z" />
    <glyph glyph-name="quotedbl" unicode="&#x22;" 
d="M126 722h78l-8 -359v-1h-61zM294 722h78l-9 -360h-61v1z" />
    <glyph glyph-name="numbersign" unicode="#" horiz-adv-x="833" 
d="M56 150c0 20 12.3311 30.0117 36.998 30.0117h165l33 140h-200c-23.333 0.666992 -35 10.667 -35 30c0 20.667 13.333 31 40 31h211l75 302l2 5c0.666992 3.33301 1.16699 6.16602 1.5 8.49902s1.5 5.16602 3.5 8.49902s4 6.16602 6 8.49902s4.83301 4.33301 8.5 6
s7.83398 2.5 12.501 2.5c8 0 14.833 -2.83301 20.5 -8.5s8.83398 -12.5 9.50098 -20.5c0 -6 -1.33301 -13.667 -4 -23l-72 -289h157l74 302l1 5c1.33301 3.33301 2.16602 6.16602 2.49902 8.49902s1.5 5.16602 3.5 8.49902s4 6.16602 6 8.49902s4.83301 4.33301 8.5 6
s7.83398 2.5 12.501 2.5c8 0 14.833 -3 20.5 -9s8.83398 -13 9.50098 -21c0 -8 -1 -15.333 -3 -22l-72 -289h136c18.667 0 31 -2 37 -6c8.66699 -6.66699 13 -15 13 -25c0 -20 -12.333 -30 -37 -30h-165l-34 -140h201c9.33301 0 16.833 -2.16699 22.5 -6.5
s9.16699 -8.33301 10.5 -12s2 -7.5 2 -11.5c0 -20.667 -13.333 -31 -40 -31h-211l-75 -302l-1 -3c-0.666992 -2.66699 -1.16699 -4.83398 -1.5 -6.50098s-1 -3.83398 -2 -6.50098s-2 -4.83398 -3 -6.50098s-2.33301 -3.66699 -4 -6s-3.5 -4.16602 -5.5 -5.49902
s-4.5 -2.5 -7.5 -3.5s-6.16699 -1.5 -9.5 -1.5c-8 0 -14.833 3 -20.5 9s-8.83398 13 -9.50098 21c0 5.33301 1.33301 12.666 4 21.999l71 289h-156l-75 -302l-1 -3c-0.666992 -2.66699 -1.16699 -4.83398 -1.5 -6.50098s-1 -3.83398 -2 -6.50098s-2 -4.83398 -3 -6.50098
s-2.33301 -3.66699 -4 -6s-3.5 -4.16602 -5.5 -5.49902s-4.5 -2.5 -7.5 -3.5s-6.16699 -1.5 -9.5 -1.5c-8 0 -14.833 3 -20.5 9s-8.83398 13 -9.50098 21c0 5.33301 1.33301 12.666 4 21.999l72 289h-137c-19.333 0 -31.666 2 -36.999 6c-8 6 -12 14.333 -12 25z
M320.998 180.012h156l34 140h-156z" />
    <glyph glyph-name="dollar" unicode="$" 
d="M44 61l12.002 69.002c30.667 -24.667 57.167 -42.167 79.5 -52.5s50.5 -17.833 84.5 -22.5v282h-1c-40.667 9.33301 -73.834 26 -99.501 50s-42.834 48.167 -51.501 72.5s-13 49.166 -13 74.499c0 47.333 14.833 89.666 44.5 126.999s69.834 60.666 120.501 69.999v19h59
v-18c53.333 -5.33301 102.666 -24.333 147.999 -57l-12 -66c-44.667 34.667 -90 54 -136 58v-253c30.667 -7.33301 57.334 -19.166 80.001 -35.499s39.667 -34.833 51 -55.5s19.666 -40.834 24.999 -60.501s8 -39.5 8 -59.5c0 -53.333 -15.5 -100 -46.5 -140
s-70.167 -63.667 -117.5 -71v-20h-59v18c-65.333 6.66699 -124 30.334 -176 71.001zM128.002 547.002c0 -24.667 7.5 -48 22.5 -70s38.167 -37.667 69.5 -47v235h-1c-32 -10.667 -55.167 -27 -69.5 -49s-21.5 -45 -21.5 -69zM279.002 58.002
c32.667 10.667 56 28.666 70 53.999s21 51.333 21 78s-6.83301 52.334 -20.5 77.001s-37.167 43 -70.5 55v-264z" />
    <glyph glyph-name="percent" unicode="%" horiz-adv-x="833" 
d="M55 556c0 56.667 14.334 103.167 43.001 139.5s61 54.5 97 54.5c37.333 0 69.666 -18.833 96.999 -56.5s41 -83.834 41 -138.501c0 -54 -13.5 -99.833 -40.5 -137.5s-59.5 -56.5 -97.5 -56.5c-36.667 0 -69.167 18.333 -97.5 55s-42.5 83.334 -42.5 140.001zM130.001 548
c0 -71.333 19.333 -112.666 58 -123.999l10 -1c18 1.33301 33.333 14.333 46 39s19 56 19 94c0 36.667 -6.5 67.667 -19.5 93s-30.5 38.333 -52.5 39c-17.333 -2 -31.833 -13.333 -43.5 -34s-17.5 -53.334 -17.5 -98.001v-8zM176.001 -7c0 1.33301 3 8 9 20l435 724
c4.66699 8 11 12 19 12c5.33301 0 9.83301 -1.83301 13.5 -5.5s5.5 -8.16699 5.5 -13.5c0 -6 -4 -15.333 -12 -28l-425 -707c0 -0.666992 -1.16699 -2.5 -3.5 -5.5s-3.83301 -5 -4.5 -6s-2 -2.66699 -4 -5s-4 -3.83301 -6 -4.5s-4.33301 -1 -7 -1c-5.33301 0 -10 2 -14 6
s-6 8.66699 -6 14zM499.001 167c0 56.667 14.332 103.167 42.999 139.5s61.334 54.5 98.001 54.5s68.667 -18.833 96 -56.5s41 -83.834 41 -138.501c0 -54 -13.5 -99.833 -40.5 -137.5s-59.5 -56.5 -97.5 -56.5c-36.667 0 -69.167 18.333 -97.5 55
s-42.5 83.334 -42.5 140.001zM574 159c0 -71.333 19.333 -112.666 58 -123.999l10 -1c18 1.33301 33.333 14.333 46 39s19 56 19 94c0 36.667 -6.5 67.667 -19.5 93s-30.5 38.333 -52.5 39c-17.333 -2 -31.833 -13.333 -43.5 -34s-17.5 -53.334 -17.5 -98.001v-8z" />
    <glyph glyph-name="ampersand" unicode="&#x26;" horiz-adv-x="758" 
d="M41 150c0 12.667 1 24.333 3 35s6 21.5 12 32.5l15 27c4 7 12 16.5 24 28.5l27 26.5l35 32l37 33.5c-22 60 -33 118.667 -33 176c0 59.333 12.833 108 38.5 146s59.167 57 100.5 57c39.333 0 70.666 -16.667 93.999 -50s35 -70 35 -110
c0 -27.333 -10.333 -58.333 -31 -93s-61 -79 -121 -133c32 -68 85 -145.667 159 -233c78 68 133.333 161.333 166 280l64 -16c-31.333 -122 -92 -224.667 -182 -308c32 -20.667 55.667 -32.667 71 -36c10 -2 20.667 -3 32 -3c32 0 70 6 114 18v-67
c-36.667 -10 -74.667 -15 -114 -15c-57.333 0 -111 19.667 -161 59h-1c-60 -39.333 -127 -59 -201 -59c-53.333 0 -97.166 17.167 -131.499 51.5s-51.5 74.5 -51.5 120.5zM119 157.999c0 -30 9.33301 -56.833 28 -80.5s45 -35.5 79 -35.5c50 0 100 13.667 150 41
c-74 86.667 -126 160.667 -156 222l-24.5 -21.5c-11 -9.66699 -18.5 -16.5 -22.5 -20.5l-17.5 -17.5c-7.66699 -7.66699 -13 -14 -16 -19s-6.5 -11.333 -10.5 -19s-6.66699 -15.5 -8 -23.5s-2 -16.667 -2 -26zM226 575.999c0 -47.333 9 -99.333 27 -156
c71.333 64.667 107 119.667 107 165c0 23.333 -4.83301 45.5 -14.5 66.5s-25.167 31.5 -46.5 31.5c-18 0 -34.667 -8.66699 -50 -26s-23 -44.333 -23 -81z" />
    <glyph glyph-name="quotesingle" unicode="'" horiz-adv-x="278" 
d="M99 722h78l-6 -257l-2 -102v-1h-61l-1 1z" />
    <glyph glyph-name="parenleft" unicode="(" horiz-adv-x="389" 
d="M80 250c0 219.333 63.667 386 191 500h62c-37.333 -40 -64.333 -74 -81 -102c-62.667 -105.333 -94 -238 -94 -398c0 -200.667 47.667 -356 143 -466l32 -34h-62c-127.333 115.333 -191 282 -191 500z" />
    <glyph glyph-name="parenright" unicode=")" horiz-adv-x="389" 
d="M55 -250c17.333 18.667 31.333 34.334 42 47.001s25.5 34.5 44.5 65.5s34 62.5 45 94.5s21 74 30 126s13.5 107.667 13.5 167c0 62 -5 120 -15 174s-20.5 96.667 -31.5 128s-27 63.166 -48 95.499s-35.333 52.833 -43 61.5l-37.5 41h61c128 -114.667 192 -281 192 -499
c0 -219.333 -64 -386.333 -192 -501h-61z" />
    <glyph glyph-name="asterisk" unicode="*" 
d="M64 435c0 10.667 4 19 12 25s33.333 20 76 42l47 25v1l-53 28c-38 20 -61.167 33 -69.5 39s-12.5 14.333 -12.5 25c0 8 3 15.833 9 23.5s14 11.5 24 11.5c8 0 17.333 -3.33301 28 -10l98 -69c-5.33301 82 -8 127.667 -8 137c0 13.333 3.83301 22.833 11.5 28.5
s15.5 8.5 23.5 8.5c7.33301 0 14.833 -2.83301 22.5 -8.5s11.5 -14.5 11.5 -26.5c0 -2.66699 -2.66699 -49 -8 -139c71.333 50 109.666 76 114.999 78c2.66699 0.666992 5.33398 1 8.00098 1c10 0 18.5 -3.5 25.5 -10.5s10.5 -15.167 10.5 -24.5c0 -10.667 -4 -19 -12 -25
s-33.333 -20 -76 -42l-47 -25v-1l53 -28c38 -20 61.167 -33 69.5 -39s12.5 -14.333 12.5 -25c0 -8 -3 -15.667 -9 -23s-14 -11 -24 -11c-9.33301 0 -18.333 3 -27 9l-99 70c5.33301 -82 8 -127.667 8 -137c0 -12.667 -3.66699 -22 -11 -28s-15 -9 -23 -9
c-9.33301 0 -17.5 3.33301 -24.5 10s-10.5 14.667 -10.5 24v7c0 3.33301 0.333008 8.5 1 15.5s1.16699 15 1.5 24s1 22 2 39s2.16699 35.167 3.5 54.5c-72 -50.667 -110 -76.667 -114 -78c-2.66699 -1.33301 -5.66699 -2 -9 -2c-10 0 -18.5 3.5 -25.5 10.5
s-10.5 15.167 -10.5 24.5z" />
    <glyph glyph-name="plus" unicode="+" horiz-adv-x="778" 
d="M55 250c0 8 2.33398 14.5 7.00098 19.5s9.66699 8.16699 15 9.5s13.666 2 24.999 2h256v257c0 30 10 45 30 45c20.667 0 31 -15 31 -45v-257h260c28 0 42 -10.333 42 -31c0 -20 -13.333 -30 -40 -30h-262v-258c0 -30 -10 -45 -30 -45c-8 0 -14.667 2.5 -20 7.5
s-8.66602 10.167 -9.99902 15.5c-0.666992 2.66699 -1 10 -1 22v258h-258c-2.66699 -0.666992 -5.33398 -1 -8.00098 -1c-12.667 0 -22 3.16699 -28 9.5s-9 13.5 -9 21.5z" />
    <glyph glyph-name="comma" unicode="," horiz-adv-x="278" 
d="M96 0v84h84v-70l-1 -14l-41 -125h-42l26 125h-26z" />
    <glyph glyph-name="hyphen" unicode="-" horiz-adv-x="333" 
d="M10 193v59h266v-59h-266z" />
    <glyph glyph-name="period" unicode="." horiz-adv-x="278" 
d="M96 0v84h84v-84h-84z" />
    <glyph glyph-name="slash" unicode="/" 
d="M56 -219c0 4.66699 2.99902 15.668 8.99902 33.001l316 906c6.66699 19.333 17.334 29 32.001 29c8 0 15 -2.83301 21 -8.5s9 -12.834 9 -21.501c0 -4.66699 -2.33301 -14 -7 -28l-318 -911c-8 -20 -18.667 -30 -32 -30c-8 0 -15 3 -21 9s-9 13.333 -9 22z" />
    <glyph glyph-name="zero" unicode="0" 
d="M41 310l0.00488281 17.002c0 26 0.5 48.667 1.5 68s4.16699 44.833 9.5 76.5s12.666 58.667 21.999 81s23.666 44.333 42.999 66s42.333 37.5 69 47.5c20.667 8 41.667 12 63 12c18.667 0 36.667 -2.5 54 -7.5s35.666 -15 54.999 -30s36.166 -34.167 50.499 -57.5
s26.166 -55.5 35.499 -96.5s14 -88.167 14 -141.5v-21c0 -25.333 -0.5 -48 -1.5 -68s-4.16699 -45.333 -9.5 -76s-12.833 -57.167 -22.5 -79.5s-24.167 -44 -43.5 -65s-42.333 -36.5 -69 -46.5c-22 -7.33301 -43 -11 -63 -11c-18.667 0 -36.5 2.33301 -53.5 7
s-35.333 14.167 -55 28.5s-36.5 33.166 -50.5 56.499s-25.667 55.666 -35 96.999s-14 89 -14 143zM119.005 310.002c0 -44.667 2.99707 -83.832 8.99707 -117.499s13.333 -60 22 -79s19.167 -34.333 31.5 -46s23.833 -19.334 34.5 -23.001s22 -5.5 34 -5.5
c15.333 0 29.666 3.5 42.999 10.5s27 19.333 41 37s25.167 45.667 33.5 84s12.5 85.166 12.5 140.499v59c0 50.667 -4.16699 93.334 -12.5 128.001s-19.666 60 -33.999 76s-28.166 27 -41.499 33s-27.666 9 -42.999 9s-29.666 -3 -42.999 -9s-27 -17 -41 -33
s-25.167 -41.5 -33.5 -76.5s-12.5 -77.5 -12.5 -127.5v-60z" />
    <glyph glyph-name="one" unicode="1" 
d="M90 554l-0.000976562 58c80 0 143.667 22 191 66h19v-619h125v-59h-330v59h125v518c-39.333 -15.333 -82.666 -23 -129.999 -23z" />
    <glyph glyph-name="two" unicode="2" 
d="M41 514c32.667 109.333 97.335 163.999 194.002 163.999c64 0 115.667 -21 155 -63s59 -92.333 59 -151c0 -23.333 -3.16699 -44.666 -9.5 -63.999s-18.666 -39.833 -36.999 -61.5s-34.5 -39.167 -48.5 -52.5s-38 -35 -72 -65c-18 -16 -71.667 -66.333 -161 -151l328 1
v-71h-400v65l130 129c5.33301 5.33301 16.833 16 34.5 32l35.5 32.5l30.5 30c14.333 14.333 24.166 25.333 29.499 33l22.5 31c9.66699 13 16.167 24.5 19.5 34.5s6.66602 21.5 9.99902 34.5s5 26.167 5 39.5c0 42.667 -13.5 78.667 -40.5 108s-61.5 44 -103.5 44
c-22.667 0 -42.834 -5.16699 -60.501 -15.5s-31 -23 -40 -38s-16.333 -30 -22 -45s-9.5 -27.833 -11.5 -38.5l-4 -17z" />
    <glyph glyph-name="three" unicode="3" 
d="M41 81l10.999 60.999c21.333 -28.667 46.5 -51.334 75.5 -68.001s51.833 -26.5 68.5 -29.5s32.667 -4.5 48 -4.5c36.667 0 66.334 13.333 89.001 40s34 60.667 34 102c0 38.667 -10.833 71.834 -32.5 99.501s-53.5 41.5 -95.5 41.5h-73v62l41.5 3.5
c11.667 1 19.167 1.66699 22.5 2s6 0.5 8 0.5c32 6 58.167 22 78.5 48s30.5 54.667 30.5 86c0 28 -9.33301 50.5 -28 67.5s-43 25.5 -73 25.5c-58.667 0 -105 -25 -139 -75c-4 -6 -9.33301 -15.667 -16 -29l-36 55c46 72.667 110.333 109 193 109
c50.667 0 93.5 -15 128.5 -45s52.5 -66 52.5 -108c0 -72 -37 -129 -111 -171c46 -16 80.667 -39.667 104 -71s35 -65.666 35 -102.999c0 -54 -20.167 -101.167 -60.5 -141.5s-90.833 -60.5 -151.5 -60.5c-82 0 -150 34.333 -204 103z" />
    <glyph glyph-name="four" unicode="4" 
d="M27 171v48c0 8 3.66699 18.333 11 31l242 405h92v-423h99v-61h-99v-171h-80v171h-265zM105 232h193v386c-4 -24.667 -13.5 -54 -28.5 -88s-29.167 -62.833 -42.5 -86.5l-88 -152.5z" />
    <glyph glyph-name="five" unicode="5" 
d="M38 76l34.001 55.999c37.333 -61.333 89.333 -92 156 -92c33.333 0 63.5 12.833 90.5 38.5s40.5 67.834 40.5 126.501c0 54.667 -9.83301 95.167 -29.5 121.5s-43.834 39.5 -72.501 39.5c-45.333 0 -82 -26.667 -110 -80h-68v369h337v-64h-264v-205
c34 27.333 69.667 41 107 41c51.333 0 95.833 -21.5 133.5 -64.5s56.5 -95.833 56.5 -158.5c0 -64 -21.833 -117.667 -65.5 -161s-95.167 -65 -154.5 -65c-38 0 -74 8.83301 -108 26.5s-61.667 41.5 -83 71.5z" />
    <glyph glyph-name="six" unicode="6" 
d="M42 323c0 100 25.3311 184.171 75.998 252.504s114.334 102.5 191.001 102.5c34.667 0 70.334 -6.66699 107.001 -20v-60c-38 14 -73.667 21 -107 21c-38.667 0 -72.334 -13.5 -101.001 -40.5s-49 -57.667 -61 -92s-19 -69.833 -21 -106.5c20.667 26 46 46.167 76 60.5
s61 21.5 93 21.5c44 0 80.333 -20.333 109 -61c35.333 -49.333 53 -108.333 53 -177c0 -74 -23 -135.333 -69 -184c-38.667 -41.333 -84 -62 -136 -62c-18.667 0 -36.834 2.66699 -54.501 8s-36.167 15.666 -55.5 30.999s-36.166 35.166 -50.499 59.499
s-26.166 57.666 -35.499 99.999s-14 91.166 -14 146.499zM126.998 220.004c12.667 -120 54 -180 124 -180c34 0 60.833 11.5 80.5 34.5s32.5 48.5 38.5 76.5c3.33301 14.667 5 37 5 67c0 58 -9.33301 101.667 -28 131c-22 34.667 -52.333 52 -91 52
c-37.333 0 -68 -15.167 -92 -45.5s-36 -66.5 -36 -108.5c0 -6 0.666992 -15 2 -27h-3z" />
    <glyph glyph-name="seven" unicode="7" 
d="M41 585v71.002l416 -1v-65c-70.667 -81.333 -125.167 -174.333 -163.5 -279s-57.5 -212 -57.5 -322h-85c0 105.333 19.333 209.166 58 311.499s98.667 197.166 180 284.499h-348z" />
    <glyph glyph-name="eight" unicode="8" 
d="M41 180c0 37.333 11.333 71.3291 34 101.996s57.667 54.667 105 72c-32 10 -60.833 27.833 -86.5 53.5s-38.5 57.5 -38.5 95.5c0 46.667 18.667 87.5 56 122.5s83.333 52.5 138 52.5c55.333 0 101.5 -17.667 138.5 -53s55.5 -76 55.5 -122
c0 -31.333 -10.333 -60.166 -31 -86.499s-52 -47.166 -94 -62.499c36.667 -11.333 69 -32.166 97 -62.499s42 -67.833 42 -112.5c0 -53.333 -20 -100.166 -60 -140.499s-89.333 -60.5 -148 -60.5c-58 0 -107.167 20 -147.5 60s-60.5 87.333 -60.5 142zM122 180.996
c0 -42.667 11.667 -76.833 35 -102.5s54 -38.5 92 -38.5c36.667 0 67 12.667 91 38s36 60 36 104c0 42 -11.833 76 -35.5 102s-54.167 39 -91.5 39c-32.667 0 -62 -11.833 -88 -35.5s-39 -59.167 -39 -106.5zM125 501.997c0 -35.333 11.5 -63.666 34.5 -84.999
s52.5 -32 88.5 -32c37.333 0 67.5 10.833 90.5 32.5s34.5 49.834 34.5 84.501c0 35.333 -11.5 63.666 -34.5 84.999s-52.833 32 -89.5 32c-37.333 0 -67.333 -10.833 -90 -32.5s-34 -49.834 -34 -84.501z" />
    <glyph glyph-name="nine" unicode="9" 
d="M42 435c0 73.333 23.998 134.331 71.998 182.998c39.333 40 85.333 60 138 60c23.333 0 45.833 -4.83301 67.5 -14.5s43.334 -26 65.001 -49s39.167 -58.667 52.5 -107s20 -106.5 20 -174.5c0 -102.667 -24.5 -187.5 -73.5 -254.5s-108.5 -100.5 -178.5 -100.5
c-48 0 -92.333 15.333 -133 46l31 54c0.666992 -0.666992 3.5 -2.66699 8.5 -6s8.33301 -5.66602 10 -6.99902s4.83398 -3.33301 9.50098 -6s8.5 -4.66699 11.5 -6s7.16699 -3 12.5 -5s10.5 -3.5 15.5 -4.5s10.667 -1.83301 17 -2.5s12.833 -1 19.5 -1
c45.333 0.666992 83 22.334 113 65.001s47.667 99.667 53 171c-46.667 -55.333 -103 -83 -169 -83c-43.333 0 -79.333 20.333 -108 61c-36 50.667 -54 111 -54 181zM123.998 434.998c0 -30.667 2 -55.833 6 -75.5s12.667 -39.167 26 -58.5c21.333 -30.667 50.333 -46 87 -46
c37.333 0 68 15.167 92 45.5s36 66.833 36 109.5c0 11.333 -0.333008 20 -1 26h2c-1.33301 20 -4 39.167 -8 57.5s-10.167 37.666 -18.5 57.999s-20.5 36.5 -36.5 48.5s-34.667 18 -56 18c-34.667 0 -62.167 -11.667 -82.5 -35s-33.833 -48.666 -40.5 -75.999
c-4 -16 -6 -40 -6 -72z" />
    <glyph glyph-name="colon" unicode=":" horiz-adv-x="278" 
d="M96 0v84h84v-84h-84zM96 361v84h84v-84h-84z" />
    <glyph glyph-name="semicolon" unicode=";" horiz-adv-x="278" 
d="M96 0v84h84v-70l-1 -14l-41 -125h-42l26 125h-26zM96 361v84h84v-84h-84z" />
    <glyph glyph-name="less" unicode="&#x3c;" horiz-adv-x="778" 
d="M83 250c1.33301 8 3.83301 14.166 7.5 18.499s12.5 10.166 26.5 17.499l526 266c9.33301 4 16 6 20 6c8.66699 0 15.834 -3 21.501 -9s8.5 -13 8.5 -21c0 -3.33301 -0.666992 -6.66602 -2 -9.99902s-2.5 -6 -3.5 -8s-3.33301 -4.16699 -7 -6.5l-7 -4.5l-7.5 -5l-7 -3
l-477 -241l477 -241l7 -3l7.5 -5l7 -4.5c3.66699 -2.33301 6 -4.5 7 -6.5s2.16699 -4.66699 3.5 -8s2 -6.66602 2 -9.99902c0 -8 -2.83301 -15 -8.5 -21s-12.834 -9 -21.501 -9c-4.66699 0 -17.667 5.33301 -39 16l-507 256c-14 7.33301 -22.833 12.833 -26.5 16.5
s-6.16699 10.167 -7.5 19.5z" />
    <glyph glyph-name="equal" unicode="=" horiz-adv-x="778" 
d="M56 150c0 20.667 12 31 36 31c1.33301 0 3 -0.166992 5 -0.5s3.66699 -0.5 5 -0.5h581c25.333 0 38 -10 38 -30c0 -20.667 -13.667 -31 -41 -31h-585c-26 0 -39 10.333 -39 31zM56 350c0 20.667 13.333 31 40 31h585c26.667 0 40 -10.333 40 -31
c0 -4 -0.666992 -7.83301 -2 -11.5s-5 -7.66699 -11 -12s-14 -6.5 -24 -6.5h-591c-10 0 -18 2.16699 -24 6.5s-9.66699 8.33301 -11 12s-2 7.5 -2 11.5z" />
    <glyph glyph-name="greater" unicode="&#x3e;" horiz-adv-x="778" 
d="M83 -28c0 3.33301 0.666016 6.66797 1.99902 10.001s2.66602 6 3.99902 8s3.66602 4.16699 6.99902 6.5s5.66602 3.83301 6.99902 4.5l8 4c4 2 6.33301 3.33301 7 4l477 241l-477 241c-0.666992 0.666992 -3 2 -7 4l-8 4
c-1.33301 0.666992 -3.66602 2.16699 -6.99902 4.5s-5.66602 4.5 -6.99902 6.5s-2.66602 4.66699 -3.99902 8s-2 6.66602 -2 9.99902c0 8 3 15 9 21s13.333 9 22 9c4.66699 0 17.667 -5.33301 39 -16l507 -256c13.333 -6.66699 21.833 -12.167 25.5 -16.5
s6.16699 -10.833 7.5 -19.5c-1.33301 -8.66699 -3.66602 -15 -6.99902 -19s-12 -9.66699 -26 -17l-525 -265c-10.667 -4.66699 -17.667 -7 -21 -7c-8.66699 0 -16 3 -22 9s-9 13 -9 21z" />
    <glyph glyph-name="question" unicode="?" horiz-adv-x="472" 
d="M55 677c51.333 37.333 107.332 55.9961 167.999 55.9961c37.333 0 69.5 -5.16699 96.5 -15.5s47 -24.166 60 -41.499s22.333 -34.5 28 -51.5s8.5 -34.833 8.5 -53.5c0 -14 -1.33301 -27.167 -4 -39.5s-6 -22.666 -10 -30.999s-9 -16.666 -15 -24.999s-11 -14.5 -15 -18.5
s-8.83301 -8.5 -14.5 -13.5s-9.16699 -8.16699 -10.5 -9.5c-61.333 -59.333 -92 -132.333 -92 -219v-40h-67v32c0 38.667 3.5 74 10.5 106s16.5 58.833 28.5 80.5s23.167 39.334 33.5 53.001s21.833 26.667 34.5 39l23 22.5c13.333 18 20 39.333 20 64
c0 66.667 -38.333 100 -115 100c-53.333 0 -101.666 -19.333 -144.999 -58zM179.999 -0.00390625v84h84v-84h-84z" />
    <glyph glyph-name="at" unicode="@" horiz-adv-x="667" 
d="M55 362c0 104.667 33.002 192.667 99.002 264s143 107 231 107c30.667 0 58.167 -5.16699 82.5 -15.5s44.166 -22.833 59.499 -37.5s28.5 -33.834 39.5 -57.501s19.333 -45.334 25 -65.001s10 -43.167 13 -70.5s4.66699 -48.666 5 -63.999s0.5 -33.666 0.5 -54.999
c0 -73.333 -18.333 -132 -55 -176s-80 -66 -130 -66c-50.667 0 -94.167 22.667 -130.5 68s-54.5 101 -54.5 167c0 64.667 18 120.167 54 166.5s79.667 69.5 131 69.5c24.667 0 53 -9 85 -27c-24.667 68 -66 102 -124 102c-66 0 -125.167 -29.333 -177.5 -88
s-78.5 -133 -78.5 -223c0 -86 25.167 -159.167 75.5 -219.5s112.166 -90.5 185.499 -90.5c37.333 0 73.5 6.16699 108.5 18.5s54.5 18.5 58.5 18.5h52c-58.667 -66 -132.667 -99 -222 -99c-90 0 -168 35.833 -234 107.5s-99 160.167 -99 265.5zM315.002 362
c0 -51.333 11.167 -93.333 33.5 -126s48.166 -49 77.499 -49c27.333 0 52.333 16 75 48s34 73.667 34 125s-11.167 93.333 -33.5 126s-48.166 49 -77.499 49c-28 0 -53.167 -16.167 -75.5 -48.5s-33.5 -73.833 -33.5 -124.5z" />
    <glyph glyph-name="A" unicode="A" horiz-adv-x="667" 
d="M27 0l261 694h89l260 -694h-92l-77 204h-290l-76 -204h-75zM199 260h248c-78.667 218 -120 339.333 -124 364c-8.66699 -40.667 -50 -162 -124 -364z" />
    <glyph glyph-name="B" unicode="B" horiz-adv-x="667" 
d="M96 0l-0.000976562 694.003h222c46 0 86.833 -5.66699 122.5 -17s63.334 -26 83.001 -44s34.334 -36.667 44.001 -56s14.5 -38.333 14.5 -57c0 -33.333 -14.333 -64.333 -43 -93s-70.334 -50 -125.001 -64c53.333 -8.66699 99.333 -28.834 138 -60.501
s58 -69.834 58 -114.501c0 -48.667 -21.167 -90.334 -63.5 -125.001s-92.833 -55 -151.5 -61c-11.333 -1.33301 -28.333 -2 -51 -2h-248zM179.999 56.0029h142.001c68 0 119.333 14 154 42s52 58.333 52 91c0 36.667 -17.333 68 -52 94s-76.334 41.333 -125.001 46
c-6 0.666992 -23 1 -51 1h-119l-1 -37v-237zM180 392.003h120c62.667 0 112.167 13 148.5 39s54.5 55.333 54.5 88c0 29.333 -17.167 56.5 -51.5 81.5s-86.5 37.5 -156.5 37.5h-114l-1 -35v-211z" />
    <glyph glyph-name="C" unicode="C" horiz-adv-x="639" 
d="M66 347c0 54.667 9.49805 105.67 28.498 153.003s43.833 86.333 74.5 117s64.334 54.834 101.001 72.501s73 26.5 109 26.5c26 0 46.5 -0.5 61.5 -1.5s34.5 -4 58.5 -9s50 -12.833 78 -23.5l-15 -83c-30 18 -56.833 31.333 -80.5 40s-53.5 13 -89.5 13
c-66.667 0 -122.667 -29.667 -168 -89s-68 -131.333 -68 -216c0 -85.333 22.833 -157.5 68.5 -216.5s102.5 -88.5 170.5 -88.5c12.667 0 24.667 0.5 36 1.5s21 2 29 3s16.833 3.16699 26.5 6.5s16.834 5.66602 21.501 6.99902s11.5 4.66602 20.5 9.99902l17 10
c2.33301 1.33301 8.5 5.16602 18.5 11.499l18 11.5l6 -70c-36 -21.333 -67 -35.833 -93 -43.5s-59.667 -11.5 -101 -11.5c-95.333 0 -173.833 36.667 -235.5 110s-92.5 159.666 -92.5 258.999z" />
    <glyph glyph-name="D" unicode="D" horiz-adv-x="722" 
d="M95 0l-0.000976562 694.002h246c66.667 0 124 -15.667 172 -47c48.667 -32 86.334 -75.5 113.001 -130.5s40 -113.167 40 -174.5c0 -92.667 -27.333 -170.334 -82 -233.001s-119 -98.334 -193 -107.001c-10.667 -1.33301 -26.667 -2 -48 -2h-248zM181.999 56.002h143
c83.333 0 148.333 30.667 195 92c39.333 51.333 59 115.666 59 192.999c0 84.667 -22.167 155.334 -66.5 212.001s-106.833 85 -187.5 85h-143v-582z" />
    <glyph glyph-name="E" unicode="E" horiz-adv-x="597" 
d="M94 0v691h447v-66h-57l-25 1h-240l-35 1v-237h330v-61h-330v-259h85l24 1h194l22 1h46v-72h-461z" />
    <glyph glyph-name="F" unicode="F" horiz-adv-x="569" 
d="M94 0v691h433v-66h-55l-24 1h-232l-32 1v-251h301v-61h-301v-315h-90z" />
    <glyph glyph-name="G" unicode="G" horiz-adv-x="667" 
d="M66 347c0 102.667 31.501 189.831 94.501 261.498s139.833 107.5 230.5 107.5c69.333 0 136 -16 200 -48l-15 -83c-19.333 14.667 -35.333 25.834 -48 33.501s-31.167 15.167 -55.5 22.5s-50.833 11 -79.5 11c-68.667 0 -125.334 -30.167 -170.001 -90.5
s-67 -131.5 -67 -213.5c0 -85.333 22.833 -157.666 68.5 -216.999s101.5 -89 167.5 -89c34.667 0 77.667 7 129 21v174h-133v62h211v-273c-66.667 -32 -136 -48 -208 -48c-91.333 0 -168.333 36 -231 108s-94 159 -94 261z" />
    <glyph glyph-name="H" unicode="H" horiz-adv-x="708" 
d="M94 0v694h90v-302h340v302h90v-694h-90v330h-340v-330h-90z" />
    <glyph glyph-name="I" unicode="I" horiz-adv-x="278" 
d="M94 0v694h90v-694h-90z" />
    <glyph glyph-name="J" unicode="J" horiz-adv-x="472" 
d="M41 20l13 74.998c12 -10.667 20.833 -18.334 26.5 -23.001s18.667 -11.167 39 -19.5s41.5 -12.5 63.5 -12.5c33.333 0 61.333 8.83301 84 26.5s34 47.834 34 90.501v537h87v-539c0 -34 -5.16699 -63.167 -15.5 -87.5s-24.5 -42.666 -42.5 -54.999
s-36.667 -21.166 -56 -26.499s-40 -8 -62 -8c-58.667 0 -115.667 14 -171 42z" />
    <glyph glyph-name="K" unicode="K" horiz-adv-x="694" 
d="M95 0v694h86v-371l363 371h93l-268 -274v-1l282 -419h-94l-243 363l-133 -135v-228h-86z" />
    <glyph glyph-name="L" unicode="L" horiz-adv-x="542" 
d="M94 0v694h90v-629h195l120 1v-66h-405z" />
    <glyph glyph-name="M" unicode="M" horiz-adv-x="875" 
d="M100 0v694h114l154 -401c42.667 -116 65.667 -183 69 -201h1c3.33301 23.333 26 90 68 200l154 402h115v-694h-78v592l-1 32l-10 -37l-60 -164l-154 -401h-72l-150 389c-42.667 116 -66.667 187 -72 213v-624h-78z" />
    <glyph glyph-name="N" unicode="N" horiz-adv-x="708" 
d="M95 0v694h125l274 -544l39 -80v624h78v-694h-125l-274 544l-39 80v-624h-78z" />
    <glyph glyph-name="O" unicode="O" horiz-adv-x="736" 
d="M55 345c0 103.333 30.832 191 92.499 263s135.167 108 220.5 108c84 0 156.833 -36 218.5 -108s92.5 -159.667 92.5 -263c0 -104.667 -31.167 -192 -93.5 -262s-135.166 -105 -218.499 -105c-84 0 -157 35.167 -219 105.5s-93 157.5 -93 261.5zM144.999 359
c0 -87.333 20.668 -161.833 62.001 -223.5s94.666 -92.5 159.999 -92.5c63.333 0 116.333 30.5 159 91.5s64 135.833 64 224.5c0 87.333 -22 158 -66 212s-96.333 81 -157 81c-60 0 -112 -27 -156 -81s-66 -124.667 -66 -212z" />
    <glyph glyph-name="P" unicode="P" horiz-adv-x="639" 
d="M95 0v694h236c61.333 0 112.666 -13 153.999 -39c30.667 -19.333 54.5 -43 71.5 -71s25.5 -58.333 25.5 -91c0 -52 -21.5 -99.167 -64.5 -141.5s-103.833 -63.5 -182.5 -63.5c-3.33301 0 -8.66602 0.166992 -15.999 0.5s-13 0.5 -17 0.5h-117v-289h-90zM182 347
l132.999 -0.000976562c34.667 0 65 4.66699 91 14s45.333 21.833 58 37.5s22 31.334 28 47.001s9 31.5 9 47.5c0 14.667 -2.66699 29.5 -8 44.5s-14.166 30.5 -26.499 46.5s-31.5 29 -57.5 39s-57.333 15 -94 15h-133v-291z" />
    <glyph glyph-name="Q" unicode="Q" horiz-adv-x="736" 
d="M55 345c0 106 31.167 194.333 93.5 265s135.166 106 218.499 106c84.667 0 158 -36 220 -108s93 -159.667 93 -263c0 -129.333 -49 -233.333 -147 -312l119 -158h-105l-84 120c-35.333 -11.333 -67.333 -17 -96 -17c-85.333 0 -158.666 35.5 -219.999 106.5
s-92 157.833 -92 260.5zM142 344c0 -86 21.666 -157.832 64.999 -215.499s97 -86.5 161 -86.5c10.667 0 29.334 3 56.001 9l-101 144h89l78 -105h1c68 61.333 102 146 102 254c0 88.667 -21.833 162.167 -65.5 220.5s-97.5 87.5 -161.5 87.5h-1
c-64.667 -1.33301 -118 -31.333 -160 -90s-63 -131.334 -63 -218.001z" />
    <glyph glyph-name="R" unicode="R" horiz-adv-x="646" 
d="M95 0l-0.000976562 693.999h226c48 0 90.167 -6.16699 126.5 -18.5s64.333 -28.333 84 -48s34.167 -39.667 43.5 -60s14 -40.166 14 -59.499c0 -38.667 -14.667 -74.667 -44 -108s-71.666 -58 -126.999 -74l199 -326h-90l-187 316h-158v-316h-87zM181.999 377.999
h131.999c70 0 119.833 13.167 149.5 39.5s44.5 56.166 44.5 89.499c0 14.667 -3 29 -9 43s-15.667 27.833 -29 41.5s-33.166 24.834 -59.499 33.501s-57.5 13 -93.5 13h-135v-260z" />
    <glyph glyph-name="S" unicode="S" horiz-adv-x="555" 
d="M44 47l14.999 82.9951c70 -55.333 141.333 -83 214 -83c43.333 0 78.5 13.333 105.5 40s40.5 57.334 40.5 92.001c0 26 -7.83301 49.833 -23.5 71.5s-36.5 37.834 -62.5 48.501c-1.33301 0.666992 -42.666 11.667 -123.999 33c-40.667 10.667 -76.5 32.5 -107.5 65.5
s-46.5 73.5 -46.5 121.5c0 51.333 20.833 97 62.5 137s96.167 60 163.5 60c62.667 0 123.667 -16 183 -48l-14 -83c-28 21.333 -54 37.333 -78 48s-54.667 16 -92 16c-43.333 0 -78.333 -11.833 -105 -35.5s-40 -51.167 -40 -82.5c0 -23.333 7.5 -44.666 22.5 -63.999
s34.167 -33.666 57.5 -42.999c9.33301 -4 33.5 -10.667 72.5 -20s64.833 -16.666 77.5 -21.999c36.667 -15.333 68.167 -39.833 94.5 -73.5s39.5 -73.5 39.5 -119.5c0 -56.667 -21.167 -106 -63.5 -148s-96.5 -63 -162.5 -63c-80 0 -156.333 23 -229 69z" />
    <glyph glyph-name="T" unicode="T" horiz-adv-x="680" 
d="M35 623v66h608v-66h-142l-117 1v-624h-89v624l-118 -1h-142z" />
    <glyph glyph-name="U" unicode="U" horiz-adv-x="687" 
d="M94 245l0.000976562 448.999h90v-415c0 -4 -0.166992 -9.83301 -0.5 -17.5s-0.5 -13.5 -0.5 -17.5c0 -40.667 5.5 -75.667 16.5 -105s25.333 -51.166 43 -65.499s35 -24.5 52 -30.5s34.167 -9 51.5 -9c18.667 0 37.167 3.33301 55.5 10s36.333 17.334 54 32.001
s32 36.167 43 64.5s16.5 61.5 16.5 99.5c0 2 -0.166992 5 -0.5 9s-0.5 7 -0.5 9v436h79v-453c0 -42.667 -7.5 -81.334 -22.5 -116.001s-34.667 -62.334 -59 -83.001s-50.833 -36.5 -79.5 -47.5s-57.334 -16.5 -86.001 -16.5c-29.333 0 -58.333 5.33301 -87 16
s-55.5 26.334 -80.5 47.001s-45.333 48.667 -61 84s-23.5 75.333 -23.5 120z" />
    <glyph glyph-name="V" unicode="V" horiz-adv-x="667" 
d="M14 694h93l153 -394c48.667 -131.333 75.667 -208 81 -230c4 26 30 101 78 225l155 399h78l-273 -694h-92z" />
    <glyph glyph-name="W" unicode="W" horiz-adv-x="944" 
d="M14 694l87 -0.000976562l116 -407c30.667 -113.333 47.667 -185.666 51 -216.999c2.66699 29.333 20 102.666 52 219.999l115 404h82l118 -411l29 -108l19 -79l4 -26c1.33301 22 19 95 53 219l117 405h72l-203 -694h-87l-107 369
c-36.667 135.333 -57.667 220.333 -63 255c-1.33301 -13.333 -6.83301 -39.5 -16.5 -78.5s-19 -74.667 -28 -107s-13.833 -49.166 -14.5 -50.499l-112 -388h-80z" />
    <glyph glyph-name="X" unicode="X" horiz-adv-x="667" 
d="M14 0l268 365v1l-254 328h105l193 -261l188 261h96l-241 -328v-1l283 -365h-105l-221 305l-216 -305h-96z" />
    <glyph glyph-name="Y" unicode="Y" horiz-adv-x="667" 
d="M2 694l105 0.000976562l147 -213c53.333 -80 82.333 -124.333 87 -133c23.333 41.333 101 156.666 233 345.999h88l-286 -416v-278h-87v278z" />
    <glyph glyph-name="Z" unicode="Z" horiz-adv-x="611" 
d="M55 0v25.0049c0 9.33301 0.5 15.666 1.5 18.999s4.83301 9.66602 11.5 18.999l372 569l-164 -1h-207v63h486v-24v-5.5c0 -1.66699 -0.166992 -3.33398 -0.5 -5.00098s-0.5 -2.83398 -0.5 -3.50098s-0.166992 -1.66699 -0.5 -3s-0.666016 -2.33301 -0.999023 -3
s-1 -1.83398 -2 -3.50098s-1.66699 -2.83398 -2 -3.50098s-1.33301 -2.16699 -3 -4.5s-2.83398 -4.16602 -3.50098 -5.49902l-372 -568h208l23 1h159v-66h-505z" />
    <glyph glyph-name="bracketleft" unicode="[" horiz-adv-x="289" 
d="M100 -250v1000h166v-61h-91v-878h91v-61h-166z" />
    <glyph glyph-name="backslash" unicode="\" 
d="M56 719c0 8 2.99902 15.001 8.99902 21.001s13 9 21 9c7.33301 0 13.5 -2.33301 18.5 -7s8.16699 -8.83398 9.5 -12.501l7 -18.5l317 -908c3.33301 -11.333 5 -18.666 5 -21.999c0 -6.66699 -2.5 -13.334 -7.5 -20.001s-12.5 -10 -22.5 -10c-8 0 -14.667 2.66699 -20 8
s-8.66602 10 -9.99902 14l-7 21l-319 915c-0.666992 2.66699 -1 6 -1 10z" />
    <glyph glyph-name="bracketright" unicode="]" horiz-adv-x="289" 
d="M21 -189h90v878h-90v61h166v-1000h-166v61z" />
    <glyph glyph-name="asciicircum" unicode="^" horiz-adv-x="611" 
d="M133 445l141 185h62l141 -185h-61l-111 136l-111 -136h-61z" />
    <glyph glyph-name="underscore" unicode="_" horiz-adv-x="778" 
d="M84 -228c0 13.333 9 20 27 20h549c22 0 33 -7 33 -21c0 -12.667 -9.33301 -19 -28 -19h-553c-18.667 0 -28 6.66699 -28 20z" />
    <glyph glyph-name="grave" unicode="`" 
d="M97 640h78l133 -130h-61z" />
    <glyph glyph-name="a" unicode="a" horiz-adv-x="480" 
d="M44 113c0 24.667 9.33398 46.165 28.001 64.498s43.167 32 73.5 41s60 15.667 89 20s58.167 6.5 87.5 6.5v34c-1.33301 42.667 -10 73.334 -26 92.001c-16.667 20 -37.667 30 -63 30c-51.333 0 -101.333 -17 -150 -51l-6 67c50 29.333 102.333 44 157 44
c46 0 84.5 -15.167 115.5 -45.5s47.833 -67.166 50.5 -110.499v-305h-76v35c-2.66699 -2.66699 -8.83398 -7 -18.501 -13s-28.5 -13 -56.5 -21s-58.333 -12 -91 -12c-38 0 -66.5 13.5 -85.5 40.5s-28.5 54.833 -28.5 83.5zM117.001 113.998c0 -18 8.83203 -33 26.499 -45
s39.834 -18 66.501 -18c28.667 0 54.5 6 77.5 18s34.5 32.333 34.5 61v63c-20.667 0 -41.667 -1.33301 -63 -4s-43.333 -6.66699 -66 -12s-41 -13.5 -55 -24.5s-21 -23.833 -21 -38.5z" />
    <glyph glyph-name="b" unicode="b" horiz-adv-x="517" 
d="M81 0v722h75v-325c48.667 38.667 102 58 160 58c48 0 87.333 -23 118 -69s46 -100 46 -162c0 -67.333 -18.5 -123.333 -55.5 -168s-80.833 -67 -131.5 -67c-47.333 0 -92 19 -134 57v-46h-78zM159 133c0 -5.33301 0.167969 -9.5 0.500977 -12.5s1 -5.83301 2 -8.5
s2 -4.66699 3 -6l5 -7l6.5 -9c22 -26.667 49.333 -40 82 -40c35.333 0 68 14 98 42s45 71.667 45 131c0 31.333 -4.33301 58.833 -13 82.5s-20.167 41.5 -34.5 53.5s-28.833 20.833 -43.5 26.5s-29.334 8.5 -44.001 8.5c-26 0 -50.333 -7.66699 -73 -23s-34 -32.333 -34 -51
v-187z" />
    <glyph glyph-name="c" unicode="c" horiz-adv-x="444" 
d="M35 223c0 62 19.998 117.164 59.998 165.497s93.333 72.5 160 72.5c31.333 0 57.333 -3 78 -9s46.334 -17.667 77.001 -35l-12 -66c-32.667 20.667 -57.667 33.334 -75 38.001c-19.333 5.33301 -42.333 8 -69 8c-45.333 0 -80.166 -17.167 -104.499 -51.5
s-36.5 -75.166 -36.5 -122.499c0 -49.333 13 -90 39 -122s59.667 -48 101 -48c52 0 104.333 18 157 54l5 -67c-52.667 -34 -107 -51 -163 -51c-61.333 0 -112.833 22.833 -154.5 68.5s-62.5 100.834 -62.5 165.501z" />
    <glyph glyph-name="d" unicode="d" horiz-adv-x="517" 
d="M35 221c0 66 17.332 121.667 51.999 167s76.667 68 126 68c50.667 0 99 -18.333 145 -55v321h76v-722h-79v52c-43.333 -42 -92.666 -63 -147.999 -63c-49.333 0 -90.333 23.167 -123 69.5s-49 100.5 -49 162.5zM112.999 222c0 -59.333 13.999 -102.669 41.999 -130.002
s59 -41 93 -41c28 0 52.833 9.5 74.5 28.5s32.5 37.167 32.5 54.5v191c0 12.667 -7 25.667 -21 39c-21.333 20 -46 30 -74 30h-2c-16 0 -31.833 -3 -47.5 -9s-31.167 -15.167 -46.5 -27.5s-27.666 -30.166 -36.999 -53.499s-14 -50.666 -14 -81.999z" />
    <glyph glyph-name="e" unicode="e" horiz-adv-x="444" 
d="M34 226c0 66 20.167 121.667 60.5 167s87.5 68 141.5 68c20 0 39 -3.16699 57 -9.5s36.167 -16.833 54.5 -31.5s33.5 -36.667 45.5 -66s19 -64.333 21 -105v-29h-310c2 -50 17.333 -90.667 46 -122s62.667 -47 102 -47c50.667 0 101.334 18.333 152.001 55l6 -66
c-50.667 -34 -103.334 -51 -158.001 -51c-63.333 0 -115.5 23.5 -156.5 70.5s-61.5 102.5 -61.5 166.5zM109 275l247.999 -0.000976562c-4 26 -11.167 48 -21.5 66s-22 30.833 -35 38.5s-24.667 12.834 -35 15.501s-20.166 4 -29.499 4c-34 0 -62 -13 -84 -39
s-36.333 -54.333 -43 -85z" />
    <glyph glyph-name="f" unicode="f" horiz-adv-x="305" 
d="M27 386v59h74v73c0 2.66699 -0.166992 6.66699 -0.5 12s-0.5 9.33301 -0.5 12c0 61.333 16.833 108.5 50.5 141.5s72.834 49.5 117.501 49.5c24.667 0 51 -3.66699 79 -11v-67c-28.667 11.333 -55.667 17 -81 17c-22.667 0 -43.834 -6.66699 -63.501 -20
s-29.5 -37 -29.5 -71v-136h113v-59h-110v-386h-75v386h-74z" />
    <glyph glyph-name="g" unicode="g" 
d="M27 -71c0 43.333 21.334 77.667 64.001 103c-16.667 24 -25 49.333 -25 76c0 30 9.66699 58 29 84v1c-22 28.667 -33 61.667 -33 99c0 47.333 15.833 86.333 47.5 117s68.834 46 111.501 46c34 0 66.667 -11 98 -33l-2 2c49.333 20.667 101.666 31 156.999 31l11 -63
c-20 2 -39.667 3 -59 3c-2 0 -27 -1.33301 -75 -4l-9 8c26 -35.333 39 -71 39 -107c0 -43.333 -15.333 -81.333 -46 -114s-68.667 -49 -114 -49c-29.333 0 -59.666 10 -90.999 30c-7.33301 -14.667 -11 -27 -11 -37c0 -13.333 4 -25.5 12 -36.5s22.667 -16.5 44 -16.5h75
c23.333 0 43.166 -0.833008 59.499 -2.5s36.666 -5.33398 60.999 -11.001s44.666 -16 60.999 -31s27.833 -34.167 34.5 -57.5c3.33301 -13.333 5 -25.666 5 -36.999c0 -38.667 -21.667 -71 -65 -97s-95.666 -39 -156.999 -39c-62 0 -114.5 13 -157.5 39s-64.5 58 -64.5 96z
M97.001 -70.999c0 -17.333 8.99902 -32.167 26.999 -44.5s38 -21 60 -26s43.333 -7.5 64 -7.5c42 0 78 7.16699 108 21.5s45 32.833 45 55.5c0 46 -49.667 69 -149 69h-63l-29 -1c-19.333 -2 -34.666 -9.66699 -45.999 -23s-17 -28 -17 -44zM132 292
c0 -32 8.16699 -57.5 24.5 -76.5s38.166 -28.5 65.499 -28.5c22.667 0 43.167 8.16699 61.5 24.5s27.5 43.5 27.5 81.5c0 32 -8.16699 57.5 -24.5 76.5s-38.166 28.5 -65.499 28.5c-22.667 0 -43.167 -8.16699 -61.5 -24.5s-27.5 -43.5 -27.5 -81.5z" />
    <glyph glyph-name="h" unicode="h" horiz-adv-x="517" 
d="M80 0l-0.000976562 722.001h75v-338c40 47.333 88 71 144 71c25.333 0 47 -4 65 -12s31.5 -17.5 40.5 -28.5s16 -25 21 -42s8 -31.333 9 -43s1.5 -25.5 1.5 -41.5v-288h-78v281c0 11.333 -0.166992 20.333 -0.5 27s-2.33301 16.167 -6 28.5s-8.66699 22.166 -15 29.499
s-16 13.833 -29 19.5s-28.833 8.5 -47.5 8.5c-35.333 0 -61.166 -15 -77.499 -45s-24.5 -66.333 -24.5 -109v-240h-78z" />
    <glyph glyph-name="i" unicode="i" horiz-adv-x="239" 
d="M81 0v445h75v-445h-75zM74 590v89h90v-89h-90z" />
    <glyph glyph-name="j" unicode="j" horiz-adv-x="267" 
d="M-61 -171l15 61c26 -20.667 52 -31 78 -31c19.333 0 35.833 4.83301 49.5 14.5s22.5 21.5 26.5 35.5c1.33301 6 2 14.667 2 26v510h75v-495c0 -55.333 -13 -95 -39 -119s-55 -36 -87 -36c-40.667 0 -80.667 11.333 -120 34zM96 590v89h90v-89h-90z" />
    <glyph glyph-name="k" unicode="k" horiz-adv-x="489" 
d="M83 0v722h72v-486l204 209h90l-168 -172l190 -273h-82l-156 224l-80 -82v-142h-70z" />
    <glyph glyph-name="l" unicode="l" horiz-adv-x="239" 
d="M81 0v722h75v-722h-75z" />
    <glyph glyph-name="m" unicode="m" horiz-adv-x="794" 
d="M80 0l-0.000976562 450.002h73v-70c38.667 50 87.334 75 146.001 75c64.667 0 107 -27 127 -81c40.667 54 91 81 151 81c25.333 0 47.166 -4.16699 65.499 -12.5s32 -18 41 -29s16 -25.167 21 -42.5s7.83301 -31.5 8.5 -42.5s1 -24.5 1 -40.5v-288h-79v281v6
c0 2.66699 -0.666992 8 -2 16s-3.16602 15.5 -5.49902 22.5s-5.83301 14.833 -10.5 23.5s-10.334 16.167 -17.001 22.5s-15.334 11.666 -26.001 15.999s-22.667 6.5 -36 6.5c-35.333 0 -61.166 -15 -77.499 -45s-24.5 -66.333 -24.5 -109v-240h-78v281
c0 11.333 -0.166992 20.333 -0.5 27s-2.33301 16.167 -6 28.5s-8.66699 22.166 -15 29.499s-16 13.833 -29 19.5s-28.833 8.5 -47.5 8.5c-35.333 0 -61.166 -15 -77.499 -45s-24.5 -66.333 -24.5 -109v-240h-78z" />
    <glyph glyph-name="n" unicode="n" horiz-adv-x="517" 
d="M80 0l-0.00292969 450.001h73v-70c38.667 50 87.334 75 146.001 75c24.667 0 45.834 -3.66699 63.501 -11s31.167 -16.333 40.5 -27s16.5 -24.167 21.5 -40.5s8.16699 -30.833 9.5 -43.5s2 -27.667 2 -45v-288h-78v281c0 11.333 -0.166992 20.333 -0.5 27
s-2.33301 16.167 -6 28.5s-8.66699 22.166 -15 29.499s-16 13.833 -29 19.5s-28.833 8.5 -47.5 8.5c-35.333 0 -61.166 -15 -77.499 -45s-24.5 -66.333 -24.5 -109v-240h-78z" />
    <glyph glyph-name="o" unicode="o" 
d="M30 221c0 67.333 21.501 124.167 64.501 170.5s94.5 69.5 154.5 69.5c62.667 0 115 -24.167 157 -72.5s63 -104.5 63 -168.5c0 -66 -22 -121 -66 -165s-95.333 -66 -154 -66s-109.834 22.167 -153.501 66.5s-65.5 99.5 -65.5 165.5zM108.001 231.001
c0 -58.667 14.1689 -103 42.502 -133s61.166 -45 98.499 -45s70.166 15.167 98.499 45.5s42.5 74.5 42.5 132.5c0 56 -14.167 98 -42.5 126s-61.166 42 -98.499 42c-36.667 0 -69.334 -14 -98.001 -42s-43 -70 -43 -126z" />
    <glyph glyph-name="p" unicode="p" horiz-adv-x="517" 
d="M81 -195v640h75v-49c48.667 39.333 104 59 166 59c46 0 83.833 -23 113.5 -69s44.5 -100 44.5 -162c0 -68.667 -18.5 -125 -55.5 -169s-80.5 -66 -130.5 -66c-49.333 0 -94.333 19 -135 57v-241h-78zM159 126c0 -14.667 9.5 -31.001 28.5 -49.001s41.833 -27 68.5 -27
c37.333 0 70.833 16 100.5 48s44.5 73.333 44.5 124c0 45.333 -12.667 84.833 -38 118.5s-58 50.5 -98 50.5c-7.33301 0 -14.333 -0.5 -21 -1.5s-12.834 -2.66699 -18.501 -5s-11 -4.66602 -16 -6.99902s-9.66699 -5 -14 -8s-8.16602 -5.83301 -11.499 -8.5
s-6.5 -5.66699 -9.5 -9l-7 -8c-1.66699 -2 -3.5 -4 -5.5 -6l-3 -4v-208z" />
    <glyph glyph-name="q" unicode="q" horiz-adv-x="517" 
d="M35 221c0 67.333 18.3311 123.167 54.998 167.5s80.334 66.5 131.001 66.5s96.334 -22.333 137.001 -67v67h76v-650h-79v245c-44.667 -40.667 -95 -61 -151 -61c-47.333 0 -87.333 22.667 -120 68s-49 100 -49 164zM112.998 221.001
c0 -47.333 13.334 -87.501 40.001 -120.501s58.667 -49.5 96 -49.5c27.333 0 52.333 9.33301 75 28s34 38.334 34 59.001v147c0 20.667 -8.83301 43.5 -26.5 68.5s-41.834 37.5 -72.501 37.5c-38 0 -71.833 -16 -101.5 -48s-44.5 -72.667 -44.5 -122z" />
    <glyph glyph-name="r" unicode="r" horiz-adv-x="342" 
d="M81 0l-0.000976562 449.999h70v-90c8 12.667 17.667 24.834 29 36.501s30.5 24.167 57.5 37.5s56.5 20.333 88.5 21v-67c-17.333 -0.666992 -34.666 -3.83398 -51.999 -9.50098s-35.5 -14.667 -54.5 -27s-34.333 -31.166 -46 -56.499s-17.5 -55 -17.5 -89v-206h-75z" />
    <glyph glyph-name="s" unicode="s" horiz-adv-x="383" 
d="M27 34l12.0039 68.0029c1.33301 -0.666992 5.66602 -3.16699 12.999 -7.5s12.833 -7.5 16.5 -9.5s9.66699 -5 18 -9s16 -7.16699 23 -9.5s15.167 -4.83301 24.5 -7.5s19.166 -4.5 29.499 -5.5s21.166 -1.5 32.499 -1.5c33.333 0 57.166 7 71.499 21s21.5 29.667 21.5 47
c0 16.667 -6 30.5 -18 41.5s-24.667 18.5 -38 22.5c-6.66699 2 -21.5 5.33301 -44.5 10s-40.167 8.66699 -51.5 12c-27.333 8.66699 -51.5 23.5 -72.5 44.5s-31.5 47.167 -31.5 78.5c0 15.333 2.33301 29.833 7 43.5s12.5 27.667 23.5 42s28 25.666 51 33.999
s50.5 12.5 82.5 12.5c48 0 96.667 -10.333 146 -31l-11 -66c-0.666992 0.666992 -4.5 2.5 -11.5 5.5s-11 4.83301 -12 5.5s-4.66699 2.33398 -11 5.00098s-10.666 4.33398 -12.999 5.00098s-6.5 2.16699 -12.5 4.5s-10.667 3.66602 -14 3.99902s-8.16602 1.33301 -14.499 3
s-12 2.66699 -17 3s-10.833 0.666016 -17.5 0.999023s-13.667 0.5 -21 0.5c-30.667 0 -52.334 -6.16699 -65.001 -18.5s-19 -26.5 -19 -42.5c0 -22 8.83301 -37.833 26.5 -47.5s42.5 -17.334 74.5 -23.001s54.667 -11.5 68 -17.5c24 -10.667 44.5 -26.667 61.5 -48
s25.5 -47 25.5 -77c0 -15.333 -2.33301 -30.333 -7 -45s-12.5 -29.334 -23.5 -44.001s-28 -26.5 -51 -35.5s-50.167 -13.5 -81.5 -13.5c-58.667 0 -115.334 15 -170.001 45z" />
    <glyph glyph-name="t" unicode="t" horiz-adv-x="361" 
d="M18 386l-0.000976562 59h86v126h70v-126h141v-59h-141v-246c0 -58 18 -87 54 -87c28 0 57.333 11 88 33l16 -59c-47.333 -25.333 -96.666 -38 -147.999 -38c-54.667 0 -82 42.667 -82 128v269h-84z" />
    <glyph glyph-name="u" unicode="u" horiz-adv-x="517" 
d="M80 122l-0.000976562 323h78v-335c0.666992 -23.333 6.16699 -40 16.5 -50s31.5 -15 63.5 -15c34.667 0 62.5 9.16699 83.5 27.5s32.833 39.5 35.5 63.5c0.666992 6.66699 1 16.334 1 29.001v280h78v-445h-76v48c-45.333 -39.333 -103.666 -59 -174.999 -59
c-20 0 -37 3.16699 -51 9.5s-24.5 13.5 -31.5 21.5s-12.333 19.167 -16 33.5s-5.66699 25.666 -6 33.999s-0.5 19.833 -0.5 34.5z" />
    <glyph glyph-name="v" unicode="v" horiz-adv-x="461" 
d="M14 445l77 -0.000976562l93 -244c28.667 -81.333 44.667 -131.666 48 -150.999c5.33301 34 52 165.667 140 395h74l-172 -445h-88z" />
    <glyph glyph-name="w" unicode="w" horiz-adv-x="683" 
d="M14 445l75 -0.000976562c64.667 -205.333 100.667 -337 108 -395c2 41.333 37.333 173 106 395h71l73 -244c23.333 -84 36 -134.333 38 -151c3.33301 32.667 40.333 164.334 111 395.001h73l-138 -445h-87c-45.333 150 -73.333 244.167 -84 282.5
s-18.334 75.5 -23.001 111.5c-1.33301 -34 -36.666 -165.333 -105.999 -394h-79z" />
    <glyph glyph-name="x" unicode="x" horiz-adv-x="461" 
d="M0 0l194 228v2l-188 215h83l138 -165h1l133 165h83l-184 -215v-1l200 -229h-83l-150 188l-144 -188h-83z" />
    <glyph glyph-name="y" unicode="y" horiz-adv-x="461" 
d="M14 445l79.001 -0.00292969c42.667 -98 74.667 -174.667 96 -230s33.833 -90.166 37.5 -104.499s7.5 -34.5 11.5 -60.5c1.33301 46.667 45.666 178.334 132.999 395.001h75l-217 -535c-19.333 -44.667 -37.333 -75 -54 -91s-37 -24 -61 -24
c-27.333 0 -51.666 2.66699 -72.999 8l-5 65c35.333 -11.333 59.666 -17 72.999 -17c18 0 31.5 6.5 40.5 19.5s22.833 42.167 41.5 87.5l11 27c2.66699 6 4 11.333 4 16s-1.66699 10.334 -5 17.001z" />
    <glyph glyph-name="z" unicode="z" horiz-adv-x="435" 
d="M27 0v41l266 345l-30 -1h-222v60h357v-40l-265 -343h201l21 1h46v-63h-374z" />
    <glyph glyph-name="braceleft" unicode="{" 
d="M52 219l-0.00390625 62.001c38.667 0 73.834 9.33301 105.501 28s49.167 45.334 52.5 80.001v237c0 8 0.833008 16 2.5 24s6 18.5 13 31.5s16.667 24.167 29 33.5s30.5 17.5 54.5 24.5s52 10.5 84 10.5h53v-61h-24c-31.333 0 -56.666 -1.66699 -75.999 -5
s-32.833 -8.83301 -40.5 -16.5s-12.5 -14.667 -14.5 -21s-3 -14.833 -3 -25.5v-211c0 -24.667 -4.16699 -46.667 -12.5 -66s-18.333 -34.5 -30 -45.5s-25.334 -20.333 -41.001 -28s-29.667 -12.834 -42 -15.501s-24.166 -4.33398 -35.499 -5.00098
c15.333 -0.666992 31 -3.5 47 -8.5s33.167 -13 51.5 -24s33.333 -27.5 45 -49.5s17.5 -48 17.5 -78v-215c0 -21.333 9 -37.333 27 -48s53.667 -16 107 -16h24v-61h-45c-47.333 0 -87 7 -119 21c-9.33301 4 -17.666 8.66699 -24.999 14s-13.5 10.333 -18.5 15
s-9.33301 10 -13 16s-6.33398 11 -8.00098 15s-3.16699 9.16699 -4.5 15.5s-2.16602 10.833 -2.49902 13.5s-0.5 6.66699 -0.5 12v9v207c-1.33301 26.667 -3.66602 44 -6.99902 52c-10.667 25.333 -30 44.833 -58 58.5s-59 20.5 -93 20.5z" />
    <glyph glyph-name="bar" unicode="|" horiz-adv-x="278" 
d="M118 -220v940c0 19.333 6.66699 29 20 29s20 -9.66699 20 -29v-940c0 -19.333 -6.66699 -29 -20 -29s-20 9.66699 -20 29z" />
    <glyph glyph-name="braceright" unicode="}" 
d="M52 -189l5.99902 0.00195312c19.333 0 34.833 0.333008 46.5 1s26.334 2.16699 44.001 4.5s31.5 7 41.5 14s16.333 15.833 19 26.5c0.666992 3.33301 1 12.333 1 27v206c0 30 5.83301 56 17.5 78s26.667 38.5 45 49.5s35.5 19 51.5 24s31.667 7.83301 47 8.5
c-15.333 0.666992 -31 3.5 -47 8.5s-33.167 13 -51.5 24s-33.333 27.5 -45 49.5s-17.5 48 -17.5 78v215c0 21.333 -9 37.333 -27 48s-54 16 -108 16h-23v61h49c19.333 -0.666992 33.166 -1.16699 41.499 -1.5s19.166 -1.83301 32.499 -4.5s26.333 -7 39 -13
c9.33301 -4 18 -8.66699 26 -14s14.5 -10.333 19.5 -15s9.33301 -10.167 13 -16.5s6.33398 -11.5 8.00098 -15.5s3.16699 -9.16699 4.5 -15.5s2.16602 -10.833 2.49902 -13.5s0.5 -6.83398 0.5 -12.501v-9.5v-207c1.33301 -24.667 4 -42 8 -52
c10.667 -25.333 29.834 -44.833 57.501 -58.5s58.5 -20.5 92.5 -20.5v-62c-38.667 0 -73.667 -9.33301 -105 -28s-48.666 -45.334 -51.999 -80.001l-1 -23v-207c-1.33301 -26.667 -4.33301 -45 -9 -55c-12.667 -25.333 -34.5 -44.333 -65.5 -57s-67.167 -19 -108.5 -19h-53
v61z" />
    <glyph glyph-name="asciitilde" unicode="~" horiz-adv-x="611" 
d="M83 557c1.33301 35.333 14.333 64.001 39 86.001s54 33 88 33c23.333 0 55.5 -9.5 96.5 -28.5s71.833 -28.5 92.5 -28.5c17.333 0 32.333 4.66699 45 14s20 23.666 22 42.999h61c-1.33301 -35.333 -14.333 -64 -39 -86s-54 -33 -88 -33c-23.333 0 -55.5 9.66699 -96.5 29
s-71.833 29 -92.5 29c-17.333 0 -32.333 -4.83301 -45 -14.5s-20 -24.167 -22 -43.5h-61z" />
    <glyph glyph-name="uni00A0" unicode="&#xa0;" horiz-adv-x="333" 
 />
    <glyph glyph-name="exclamdown" unicode="&#xa1;" horiz-adv-x="319" 
d="M117 -195l8 548h67l8 -496l1 -52h-84zM117 444v84h84v-84h-84z" />
    <glyph glyph-name="cent" unicode="&#xa2;" 
d="M35 222c0 57.333 19.168 108.997 57.501 154.997s89.833 73.333 154.5 82v88h59v-87c31.333 -0.666992 57.166 -3.83398 77.499 -9.50098s47.5 -16.834 81.5 -33.501l-11 -66l-13.5 7l-13.5 7c-1.33301 0.666992 -5.33301 2.5 -12 5.5s-11 4.83301 -13 5.5
s-6 2.16699 -12 4.5s-10.667 3.83301 -14 4.5s-8 1.83398 -14 3.50098s-11.5 2.83398 -16.5 3.50098s-11 1.33398 -18 2.00098l-21.5 2v-342c53.333 4.66699 106.333 22.334 159 53.001l6 -67c-54 -29.333 -109 -46 -165 -50v-87h-59v88c-63.333 8 -114.5 34.333 -153.5 79
s-58.5 95.334 -58.5 152.001zM113.001 222.997c0 -44 12.333 -81 37 -111s57 -48.667 97 -56v338c-44.667 -8 -78.167 -28.5 -100.5 -61.5s-33.5 -69.5 -33.5 -109.5z" />
    <glyph glyph-name="sterling" unicode="&#xa3;" horiz-adv-x="639" 
d="M55 58c0 25.333 12.335 46.168 37.002 62.501s55 24.5 91 24.5c10.667 0 27.667 -2.33301 51 -7c2.66699 24 4 42.667 4 56v138h-72v58h72v139c0 78 18.667 136.5 56 175.5s77.666 58.5 120.999 58.5c36 0 67.333 -12.167 94 -36.5s45.5 -52.333 56.5 -84
s16.5 -63.5 16.5 -95.5c0 -26.667 -11.667 -40 -35 -40c-19.333 0 -31 11.333 -35 34h-8c-0.666992 59.333 -9.83398 101 -27.501 125s-37.834 36 -60.501 36c-25.333 0 -48.333 -12.667 -69 -38s-31 -69 -31 -131v-143h100v-58h-100v-139
c0 -30.667 -3.66699 -57.667 -11 -81c2 -0.666992 9.33301 -4.16699 22 -10.5s24.334 -11.833 35.001 -16.5s23.5 -10 38.5 -16s29.833 -10.667 44.5 -14s28 -5 40 -5c31.333 0 47 31.667 47 95h78c-1.33301 -46.667 -17.333 -84.334 -48 -113.001s-67 -43 -109 -43
c-24 0 -47.167 4 -69.5 12s-60.5 24.667 -114.5 50c-35.333 -41.333 -78.333 -62 -129 -62c-23.333 0 -43.333 6.5 -60 19.5s-25 29.5 -25 49.5zM130.002 61.002c0 -6.66699 4.66699 -9.99805 14 -9.99805c4.66699 0 9.5 0.666992 14.5 2s9.33301 2.66602 13 3.99902
s7.5 3.16602 11.5 5.49902s7.16699 4.33301 9.5 6s4.5 3.5 6.5 5.5l3 2c-18.667 4.66699 -33.667 7 -45 7c-18 0 -27 -7.33301 -27 -22z" />
    <glyph glyph-name="currency" unicode="&#xa4;" horiz-adv-x="757" 
d="M46 -26c0 4 2.5 8.83203 7.5 14.499s20.167 21.167 45.5 46.5l56 55v1c-49.333 55.333 -74 120.333 -74 195s24.667 139.667 74 195v1l-64 63c-28 27.333 -43 44 -45 50v1c-1.33301 5.33301 0 10.333 4 15s9 7 15 7h1c5.33301 0 14.666 -6.33301 27.999 -19l89 -89
c54.667 48.667 119.667 73 195 73c76 0 141 -24.333 195 -73h1c52 52.667 83.167 83.834 93.5 93.501s18.166 14.5 23.499 14.5s10 -1.83301 14 -5.5s6 -8.16699 6 -13.5c0 -6 -6 -15 -18 -27c-5.33301 -6 -17.666 -18.667 -36.999 -38l-54 -53
c48.667 -54.667 73 -119.667 73 -195c0 -72.667 -24.333 -138 -73 -196c68 -68 103 -104 105 -108c1.33301 -1.33301 2.33301 -4.66602 3 -9.99902c0 -4 -1.66699 -8.33301 -5 -13c-4 -3.33301 -8.66699 -5 -14 -5s-12.166 3.83301 -20.499 11.5s-40.5 39.834 -96.5 96.501
h-1c-54.667 -48.667 -119.667 -73 -195 -73c-72 0 -137 24.333 -195 73l-50 -50c-28 -28.667 -44.833 -45.334 -50.5 -50.001s-10.834 -7.33398 -15.501 -8.00098h-3c-5.33301 0 -9.66602 2.16699 -12.999 6.5s-5 8.83301 -5 13.5zM121 285.999
c0 -70 24.834 -130.333 74.501 -181s110.5 -76 182.5 -76c70 0 130.333 24.667 181 74s76 110.333 76 183c0 71.333 -25.167 132 -75.5 182s-110.5 75 -180.5 75c-70.667 0 -131.334 -24.833 -182.001 -74.5s-76 -110.5 -76 -182.5z" />
    <glyph glyph-name="yen" unicode="&#xa5;" horiz-adv-x="667" 
d="M-27 189c0 20.667 13.333 31.001 40 31.001h277v58l-55 80h-217c-14 0 -23.333 1.16699 -28 3.5s-9.33398 7.16602 -14.001 14.499c-2 4 -3 8 -3 12c0 20.667 13.667 31 41 31h8c0.666992 0 1.83398 0.166992 3.50098 0.5s2.83398 0.5 3.50098 0.5h164l-190 274h106
l187 -274h92l188 274h88l-189 -274h178c27.333 0 41 -10.667 41 -32c0 -12 -5 -20.333 -15 -25c-6 -3.33301 -16 -5 -30 -5h-216l-56 -80v-58h277c26.667 0 40 -10.333 40 -31c0 -14.667 -7.33301 -24.334 -22 -29.001c-4.66699 -1.33301 -11.667 -2 -21 -2h-274v-158h-87
v158h-274c-8.66699 0 -15.334 0.666992 -20.001 2c-15.333 4.66699 -23 14.334 -23 29.001zM337 358.001l5 -10l6 10h-11z" />
    <glyph glyph-name="brokenbar" unicode="&#xa6;" horiz-adv-x="167" 
d="M63 141c0 18.667 6.33301 28 19 28c14 0 21 -9 21 -27v-363c0 -18.667 -6.66699 -28 -20 -28s-20 9 -20 27v363zM63 358v363c0 18.667 6.66699 28 20 28s20 -9 20 -27v-362c0 -19.333 -6.66699 -29 -20 -29s-20 9 -20 27z" />
    <glyph glyph-name="section" unicode="&#xa7;" horiz-adv-x="444" 
d="M44 -133l12.0059 67.999c25.333 -27.333 47.666 -46.333 66.999 -57c28 -14.667 59.333 -22 94 -22c28 0 48 11.5 60 34.5s18 47.5 18 73.5c0 13.333 -2 25.833 -6 37.5s-8.83301 21.167 -14.5 28.5s-12.667 14.5 -21 21.5s-15.333 12 -21 15s-12.334 6.33301 -20.001 10
s-11.834 5.83398 -12.501 6.50098c-11.333 6 -22.5 13 -33.5 21s-24.833 19.833 -41.5 35.5s-30.167 35 -40.5 58s-15.5 47.5 -15.5 73.5c0 59.333 24.333 107.333 73 144c-48.667 47.333 -73 96.666 -73 147.999c0 44 14 83.333 42 118s65.667 52 113 52
c52.667 0 101.667 -19.333 147 -58l-6 -37l-6 -29c-25.333 27.333 -51 45.333 -77 54c-17.333 6 -36 9 -56 9c-27.333 0 -47.166 -11.667 -59.499 -35s-18.5 -47.666 -18.5 -72.999c0 -11.333 1.33301 -22.166 4 -32.499s6.66699 -19.166 12 -26.499s10.666 -14 15.999 -20
s11.666 -11.333 18.999 -16l17.5 -11c4.33301 -2.66699 9.66602 -5.33398 15.999 -8.00098s9.83301 -4.33398 10.5 -5.00098c11.333 -6 22.5 -13 33.5 -21s24.833 -19.833 41.5 -35.5s30.167 -35 40.5 -58s15.5 -47.5 15.5 -73.5c0 -60 -24.333 -108.333 -73 -145
c14 -14 25.5 -26.5 34.5 -37.5s17.667 -26.5 26 -46.5s12.5 -41 12.5 -63c0 -44 -14 -83.333 -42 -118s-66.333 -52 -115 -52c-64.667 0 -122.334 24 -173.001 72zM148.006 271.999c0 -16.667 3 -32.0029 9 -46.0029s13.333 -25.167 22 -33.5s17.834 -15.666 27.501 -21.999
s17.667 -10.666 24 -12.999s10.5 -3.5 12.5 -3.5c12 0 23.667 10.333 35 31s17 44.334 17 71.001c0 16.667 -3 32 -9 46s-13.333 25.167 -22 33.5s-17.834 15.5 -27.501 21.5s-17.667 10.167 -24 12.5s-10.5 3.5 -12.5 3.5c-12 0 -23.667 -10.167 -35 -30.5
s-17 -43.833 -17 -70.5z" />
    <glyph glyph-name="dieresis" unicode="&#xa8;" 
d="M302 571v89h90v-89h-90zM107 571v89h90v-89h-90z" />
    <glyph glyph-name="copyright" unicode="&#xa9;" horiz-adv-x="1111" 
d="M55 250c0 96.667 22.832 185.171 68.499 265.504s106.834 143.166 183.501 188.499s159.334 68 248.001 68c65.333 0 128.5 -13.333 189.5 -40s114.167 -62.834 159.5 -108.501s81.666 -101.167 108.999 -166.5s41 -134.333 41 -207c0 -96.667 -23 -185.334 -69 -266.001
s-107.167 -143.5 -183.5 -188.5s-158.833 -67.5 -247.5 -67.5c-88 0 -170.167 22.667 -246.5 68s-137.5 108.166 -183.5 188.499s-69 168.833 -69 265.5zM94.999 250.004c0 -89.333 21.165 -171.166 63.498 -245.499s98.5 -132.333 168.5 -174s145.333 -62.5 226 -62.5
c82.667 0 159.334 21.167 230.001 63.5s126.834 100.5 168.501 174.5s62.5 155.333 62.5 244c0 67.333 -12.667 131.166 -38 191.499s-58.833 111.5 -100.5 153.5s-90.5 75.333 -146.5 100s-113.667 37 -173 37c-126.667 0 -235.167 -47 -325.5 -141
s-135.5 -207.667 -135.5 -341zM287.997 243.004c0 71.333 31.834 133.335 95.501 186.002s144.834 79 243.501 79c46 0 94 -8 144 -24l-14 -83l-12.5 8c-6.33301 4 -10.833 6.66699 -13.5 8s-7 3.66602 -13 6.99902s-10.833 5.66602 -14.5 6.99902s-8.83398 3 -15.501 5
s-12.834 3.5 -18.501 4.5s-12.334 1.83301 -20.001 2.5s-15.834 1 -24.501 1c-71.333 0 -130.5 -20.333 -177.5 -61s-70.5 -87.334 -70.5 -140.001c0 -52 23.167 -98.5 69.5 -139.5s106.833 -61.5 181.5 -61.5c24.667 0 46.334 2.16699 65.001 6.5s31.834 8.5 39.501 12.5
s22.167 12.333 43.5 25l6 -69c-28.667 -15.333 -52.667 -25.666 -72 -30.999s-47.333 -8 -84 -8c-96 0 -176.333 26.167 -241 78.5s-97 114.5 -97 186.5z" />
    <glyph glyph-name="ordfeminine" unicode="&#xaa;" horiz-adv-x="444" 
d="M25 304c0 20.667 13.333 31 40 31h313c27.333 0 41 -10.333 41 -31c0 -20 -13 -30 -39 -30h-305c-1.33301 0 -3.33301 -0.166992 -6 -0.5s-4.66699 -0.5 -6 -0.5c-10 0 -18 2.16699 -24 6.5s-9.83301 8.5 -11.5 12.5s-2.5 8 -2.5 12zM44 465
c0 19.333 9.33301 35.667 28 49s42.5 22.5 71.5 27.5s52.833 8.33301 71.5 10s35.667 2.5 51 2.5v36c0 42 -6 72 -18 90s-26 27 -42 27c-19.333 0 -37.5 -3 -54.5 -9s-29.333 -11.833 -37 -17.5l-31.5 -24.5l-6 68c40 28 83 42 129 42c38.667 0 71.5 -15.167 98.5 -45.5
s40.5 -72.5 40.5 -126.5v-219h-76v33c-44 -29.333 -90.333 -44 -139 -44c-20.667 0 -38 6.66699 -52 20s-23.167 27 -27.5 41s-6.5 27.333 -6.5 40zM118 465.001c0.666992 -12.667 7.33301 -22.333 20 -29s26.667 -10 42 -10c20.667 0 39.167 5.5 55.5 16.5
s26.166 25.833 29.499 44.5l1 16c-58.667 -2.66699 -97.667 -6.66699 -117 -12s-29.666 -14 -30.999 -26z" />
    <glyph glyph-name="guillemotleft" unicode="&#xab;" horiz-adv-x="667" 
d="M110 220l227 219h62l-211 -220l211 -219h-62zM276 220l228 219h61l-210 -220l210 -219h-61z" />
    <glyph glyph-name="logicalnot" unicode="&#xac;" horiz-adv-x="667" 
d="M56 332c0 13.333 11.333 20 34 20h493c18 0 27 -9.66699 27 -29v-252c0 -18.667 -6.66699 -28 -20 -28s-20 10 -20 30v239h-482c-21.333 0 -32 6.66699 -32 20z" />
    <glyph glyph-name="uni00AD" unicode="&#xad;" horiz-adv-x="167" 
d="M10 193v59h266v-59h-266z" />
    <glyph glyph-name="registered" unicode="&#xae;" horiz-adv-x="1111" 
d="M55 250c0 96.667 22.832 185.171 68.499 265.504s106.834 143.166 183.501 188.499s159.334 68 248.001 68c65.333 0 128.5 -13.333 189.5 -40s114.167 -62.834 159.5 -108.501s81.666 -101.167 108.999 -166.5s41 -134.333 41 -207c0 -96.667 -23 -185.334 -69 -266.001
s-107.167 -143.5 -183.5 -188.5s-158.833 -67.5 -247.5 -67.5c-88 0 -170.167 22.667 -246.5 68s-137.5 108.166 -183.5 188.499s-69 168.833 -69 265.5zM94.999 250.004c0 -89.333 21.165 -171.166 63.498 -245.499s98.5 -132.333 168.5 -174s145.333 -62.5 226 -62.5
c82.667 0 159.334 21.167 230.001 63.5s126.834 100.5 168.501 174.5s62.5 155.333 62.5 244c0 67.333 -12.667 131.166 -38 191.499s-58.833 111.5 -100.5 153.5s-90.5 75.333 -146.5 100s-113.667 37 -173 37c-126.667 0 -235.167 -47 -325.5 -141
s-135.5 -207.667 -135.5 -341zM344.997 0.00390625l-0.000976562 486h224c70.667 0 129.334 -10.667 176.001 -32c58 -27.333 87 -61.333 87 -102c0 -31.333 -15.5 -58.5 -46.5 -81.5s-69.167 -39.5 -114.5 -49.5l189 -221h-90l-176 212h-163v-212h-86zM430.996 274.004
l123.003 0.000976562c63.333 0 109.666 5.66699 138.999 17c36 13.333 55.333 33.333 58 60c-0.666992 6 -1.33398 10.5 -2.00098 13.5s-3 8 -7 15s-11.333 13.667 -22 20s-24.334 12.166 -41.001 17.499c-26.667 8.66699 -64.667 13 -114 13h-133l-1 -57v-99z" />
    <glyph glyph-name="macron" unicode="&#xaf;" 
d="M69 618v64h360v-64h-360z" />
    <glyph glyph-name="degree" unicode="&#xb0;" horiz-adv-x="333" 
d="M55 583c0 30.667 10.833 56.834 32.5 78.501s47.834 32.5 78.501 32.5c31.333 0 57.666 -11.167 78.999 -33.5s32 -48.166 32 -77.499c0 -30.667 -10.833 -56.834 -32.5 -78.501s-47.834 -32.5 -78.501 -32.5c-31.333 0 -57.666 11.167 -78.999 33.5
s-32 48.166 -32 77.499zM95 583c0 -18.667 6.66699 -35 20 -49s30.333 -21 51 -21c19.333 0 35.833 6.66699 49.5 20s20.5 30 20.5 50c0 18.667 -6.66699 35.167 -20 49.5s-30 21.5 -50 21.5c-19.333 0 -36 -6.83301 -50 -20.5s-21 -30.5 -21 -50.5z" />
    <glyph glyph-name="plusminus" unicode="&#xb1;" horiz-adv-x="778" 
d="M56 18c0 14.667 9.33301 22.001 28 22.001h284v273h-282c-20 0 -30 6.66699 -30 20s9.66699 20 29 20h283v282c0 20 6.66699 30 20 30s20 -9.66699 20 -29v-283h282c20.667 0 31 -6.66699 31 -20s-10 -20 -30 -20h-283v-273h287c16.667 -0.666992 25 -7.33398 25 -20.001
c0 -13.333 -9.33301 -20 -28 -20h-608c-18.667 0 -28 6 -28 18z" />
    <glyph glyph-name="twosuperior" unicode="&#xb2;" horiz-adv-x="444" 
d="M41 691c23.333 28.667 47.833 49.3311 73.5 61.998s56.5 19 92.5 19c54.667 0 99.334 -13.833 134.001 -41.5s52 -63.167 52 -106.5c0 -14.667 -2.83301 -27.667 -8.5 -39s-14.667 -21.166 -27 -29.499s-24 -15.166 -35 -20.499s-26 -12 -45 -20
s-34.167 -14.667 -45.5 -20c-16 -8 -54.667 -29.333 -116 -64h149l25 1h103v-71h-344v70l112 66c8 4.66699 20.667 10.667 38 18s31.166 13.833 41.499 19.5s21.5 12.667 33.5 21s21 18 27 29s9 23.5 9 37.5c0 25.333 -10.833 46 -32.5 62s-49.5 24 -83.5 24
c-22 0 -41.167 -4.33301 -57.5 -13s-27.833 -17.5 -34.5 -26.5s-14 -20.833 -22 -35.5z" />
    <glyph glyph-name="threesuperior" unicode="&#xb3;" horiz-adv-x="444" 
d="M41 378l9.00195 60.9951c62 -18 117.333 -27 166 -27c20.667 0 38 2.5 52 7.5s23.833 11.5 29.5 19.5s9.33398 14.667 11.001 20s2.5 10.666 2.5 15.999c0 18.667 -10 34 -30 46c-16.667 9.33301 -41.334 14 -74.001 14h-41v62c3.33301 0.666992 11 1.33398 23 2.00098
s20.167 1.33398 24.5 2.00098s10.833 2 19.5 4s16 4.66699 22 8s11.667 7.66602 17 12.999c12.667 11.333 19 25 19 41c0 12 -5.5 22.667 -16.5 32s-29.5 14 -55.5 14c-44.667 0 -88.334 -17.333 -131.001 -52l-33 56c51.333 36.667 106 55 164 55
c42 0 78.333 -10.167 109 -30.5s46 -45.166 46 -74.499c0 -7.33301 -0.833008 -14.5 -2.5 -21.5s-3.66699 -13.167 -6 -18.5s-5.5 -10.666 -9.5 -15.999s-7.5 -9.66602 -10.5 -12.999s-7 -7.16602 -12 -11.499s-8.66699 -7.33301 -11 -9s-6 -4 -11 -7
s-7.83301 -4.83301 -8.5 -5.5c24 -7.33301 46.333 -18.5 67 -33.5s31 -34.5 31 -58.5c0 -31.333 -16.833 -59.666 -50.5 -84.999s-77.834 -38 -132.501 -38c-57.333 0 -116.333 9.33301 -177 28z" />
    <glyph glyph-name="acute" unicode="&#xb4;" 
d="M190 510l133 130h78l-149 -130h-62z" />
    <glyph glyph-name="uni00B5" unicode="&#xb5;" horiz-adv-x="517" 
d="M80 -195v639.999h78v-335c0.666992 -23.333 6.16699 -40 16.5 -50s31.5 -15 63.5 -15c34.667 0 62.5 9.16699 83.5 27.5s32.833 39.5 35.5 63.5c0.666992 6.66699 1 16.334 1 29.001v280h78v-445h-76v48c-45.333 -39.333 -103.333 -59 -174 -59
c-6.66699 0 -16 0.666992 -28 2v-186h-78z" />
    <glyph glyph-name="paragraph" unicode="&#xb6;" horiz-adv-x="611" 
d="M55 484c0 25.333 5.00098 51.333 15.001 78s24.833 52.167 44.5 76.5s47.167 44.333 82.5 60s75.666 23.5 120.999 23.5h233c16 0 26 -5 30 -15c2 -16 -6.33301 -24.333 -25 -25h-57v-847c0 -19.333 -6.66699 -29 -20 -29s-20 9.66699 -20 29v847h-69v-844
c0 -21.333 -6.66699 -32 -20 -32s-20 9.66699 -20 29v409c-47.333 2.66699 -92.5 12.167 -135.5 28.5s-80.333 43 -112 80s-47.5 80.833 -47.5 131.5z" />
    <glyph glyph-name="periodcentered" unicode="&#xb7;" horiz-adv-x="236" 
d="M73 175v89h90v-89h-90z" />
    <glyph glyph-name="cedilla" unicode="&#xb8;" horiz-adv-x="444" 
d="M117 -192l74 169h61l-65 -169h-70z" />
    <glyph glyph-name="onesuperior" unicode="&#xb9;" horiz-adv-x="444" 
d="M69 639l0.000976562 58.001c77.333 0.666992 138.666 25.667 183.999 75h19v-352h102v-59h-291v59h109v245c-36.667 -16.667 -77.667 -25.334 -123 -26.001z" />
    <glyph glyph-name="ordmasculine" unicode="&#xba;" horiz-adv-x="444" 
d="M25 304c0 20.667 13.333 31 40 31h313c27.333 0 41 -10.333 41 -31c0 -20 -13 -30 -39 -30h-305c-1.33301 0 -3.33301 -0.166992 -6 -0.5s-4.66699 -0.5 -6 -0.5c-10 0 -18 2.16699 -24 6.5s-9.83301 8.5 -11.5 12.5s-2.5 8 -2.5 12zM30 561
c0 54 18.167 101.667 54.5 143s82.166 62 137.499 62c54 0 99.5 -20.667 136.5 -62s55.5 -89 55.5 -143c0 -56 -19.167 -102.833 -57.5 -140.5s-83.166 -56.5 -134.499 -56.5c-52 0 -97 18.833 -135 56.5s-57 84.5 -57 140.5zM109 570
c0 -43.333 10.5 -77.8311 31.5 -103.498s48.5 -38.5 82.5 -38.5c28 0 53.667 11.333 77 34s35 58.667 35 108c0 47.333 -11.667 81.666 -35 102.999s-49.333 32 -78 32c-29.333 0 -55.5 -10.833 -78.5 -32.5s-34.5 -55.834 -34.5 -102.501z" />
    <glyph glyph-name="guillemotright" unicode="&#xbb;" horiz-adv-x="667" 
d="M100 0l210 220l-210 219h61l228 -220l-228 -219h-61zM266 0l211 220l-211 219h62l227 -220l-227 -219h-62z" />
    <glyph glyph-name="onequarter" unicode="&#xbc;" horiz-adv-x="444" 
d="M8 280c3.33301 12 12.335 18 27.002 18h369c16 0 26 -5 30 -15c0.666992 -4.66699 0.666992 -8.5 0 -11.5s-3.16699 -6 -7.5 -9s-10.833 -4.5 -19.5 -4.5h-371c-10.667 0 -17.834 1.83301 -21.501 5.5s-5.83398 9.16699 -6.50098 16.5zM27.002 -47l193 265h97v-265h99
v-62h-99v-86h-80v86h-210v62zM69.002 672v59c79.333 0 140.333 13.667 183 41h20v-376h102v-58h-292v58h110v290c-37.333 -9.33301 -78.333 -14 -123 -14zM110.002 -47h132.001v227c-4 -18 -7.83301 -32 -11.5 -42s-14.834 -29.5 -33.501 -58.5s-47.667 -71.167 -87 -126.5z
" />
    <glyph glyph-name="onehalf" unicode="&#xbd;" horiz-adv-x="444" 
d="M8 280c3.33301 12 12.335 18 27.002 18h369c16 0 26 -5 30 -15c0.666992 -4.66699 0.666992 -8.5 0 -11.5s-3.16699 -6 -7.5 -9s-10.833 -4.5 -19.5 -4.5h-371c-10.667 0 -17.834 1.83301 -21.501 5.5s-5.83398 9.16699 -6.50098 16.5zM41.002 168
c24.667 26 49.667 44.5 75 55.5s55.666 16.5 90.999 16.5h1c54.667 0 99.167 -12.667 133.5 -38s51.5 -58.666 51.5 -99.999c0 -15.333 -3.16699 -29.5 -9.5 -42.5s-15.5 -24.5 -27.5 -34.5s-24 -18.667 -36 -26l-44 -26c-17.333 -10 -31.333 -18.667 -42 -26l-111 -77h270
v-65h-344v59l113 83c4.66699 3.33301 13.834 9.16602 27.501 17.499s22.667 14 27 17l22.5 15c10.667 7 17.834 12.167 21.501 15.5l16.5 15c7.33301 6.66699 12.166 12.334 14.499 17.001s5.5 10.167 9.5 16.5s6.5 12.666 7.5 18.999s1.5 13.166 1.5 20.499
c0 28.667 -11.833 49.334 -35.5 62.001s-50.5 19 -80.5 19c-31.333 0 -55 -6.16699 -71 -18.5s-30.333 -29.833 -43 -52.5zM69.002 672v59c79.333 0 140.333 13.667 183 41h20v-376h102v-58h-292v58h110v290c-37.333 -9.33301 -78.333 -14 -123 -14z" />
    <glyph glyph-name="threequarters" unicode="&#xbe;" horiz-adv-x="444" 
d="M8 280c3.33301 12 12.335 18 27.002 18h369c16 0 26 -5 30 -15c0.666992 -4.66699 0.666992 -8.5 0 -11.5s-3.16699 -6 -7.5 -9s-10.833 -4.5 -19.5 -4.5h-371c-10.667 0 -17.834 1.83301 -21.501 5.5s-5.83398 9.16699 -6.50098 16.5zM27.002 -47l193 265h97v-265h99
v-62h-99v-86h-80v86h-210v62zM41.002 340l8.99902 61.999c66.667 -16.667 121.334 -25 164.001 -25c36 0 61.333 7.5 76 22.5s22 31.167 22 48.5c0 15.333 -3.83301 28.333 -11.5 39s-17.5 18 -29.5 22s-22.5 6.83301 -31.5 8.5s-17.833 2.5 -26.5 2.5h-47v61
c3.33301 0 9.16602 0.333008 17.499 1s14.833 1.33398 19.5 2.00098s10.667 1.83398 18 3.50098s14 3.66699 20 6s11.667 5.5 17 9.5c22 15.333 33 34.333 33 57c0 13.333 -5.5 25.5 -16.5 36.5s-29.5 16.5 -55.5 16.5c-46 0 -89.667 -16.333 -131 -49l-33 56
c52 34.667 106.667 52 164 52c44 0 80.833 -10.833 110.5 -32.5s44.5 -48.167 44.5 -79.5c0 -9.33301 -1.16699 -18.5 -3.5 -27.5s-5.66602 -17 -9.99902 -24s-8.83301 -13.5 -13.5 -19.5s-9.83398 -11.333 -15.501 -16s-10.5 -8.33398 -14.5 -11.001l-12 -8l-6 -4
c68 -24 102 -58.333 102 -103c0 -34 -16.667 -64.5 -50 -91.5s-78.666 -40.5 -135.999 -40.5c-53.333 0 -111.333 8.33301 -174 25zM110.001 -47.001h132.001v227c-4 -18 -7.83301 -32 -11.5 -42s-14.834 -29.5 -33.501 -58.5s-47.667 -71.167 -87 -126.5z" />
    <glyph glyph-name="questiondown" unicode="&#xbf;" horiz-adv-x="472" 
d="M55 -43c0 14 1.00098 27 3.00098 39s4.33301 21.833 7 29.5s6.66699 15.667 12 24s9.5 14.166 12.5 17.499l14 15c6.33301 6.66699 10.166 11 11.499 13c48.667 57.333 73 129 73 215v43h67v-30c0 -106.667 -26 -195 -78 -265l-12 -15.5l-10.5 -14
c-1.66699 -2.33301 -4.16699 -6.16602 -7.5 -11.499s-5.5 -9.5 -6.5 -12.5s-2.33301 -7.33301 -4 -13s-2.66699 -11.5 -3 -17.5s-0.5 -13 -0.5 -21c0 -64.667 30 -97 90 -97c58.667 0 115.334 19.333 170.001 58l23 -64c-60 -36.667 -124.333 -55 -193 -55
c-60.667 0 -103.834 16 -129.501 48s-38.5 70 -38.5 114zM180.001 444v84h84v-84h-84z" />
    <glyph glyph-name="Agrave" unicode="&#xc0;" horiz-adv-x="667" 
d="M27 0l261 694h89l260 -694h-92l-77 204h-290l-76 -204h-75zM190 850l100 0.000976562c7.33301 0 18.166 -3.83301 32.499 -11.5s59.5 -33.834 135.5 -78.501h-73h-3l-2 -1c-7.33301 0 -44.666 17 -111.999 51zM199 260.001h248c-78.667 218 -120 339.333 -124 364
c-8.66699 -40.667 -50 -162 -124 -364z" />
    <glyph glyph-name="Aacute" unicode="&#xc1;" horiz-adv-x="667" 
d="M27 0l261 694h89l260 -694h-92l-77 204h-290l-76 -204h-75zM199 260h248c-78.667 218 -120 339.333 -124 364c-8.66699 -40.667 -50 -162 -124 -364zM207 760c99.333 57.333 151 86.667 155 88c3.33301 1.33301 8 2 14 2h98l-158 -79l-22 -10l-15 -1h-72z" />
    <glyph glyph-name="Acircumflex" unicode="&#xc2;" horiz-adv-x="667" 
d="M170 727l124 173h76l111 -173h-61l-94 122l-94 -122h-62zM27 0l261 694h89l260 -694h-92l-77 204h-290l-76 -204h-75zM199 260h248c-78.667 218 -120 339.333 -124 364c-8.66699 -40.667 -50 -162 -124 -364z" />
    <glyph glyph-name="Atilde" unicode="&#xc3;" horiz-adv-x="667" 
d="M27 0l261 694h89l260 -694h-92l-77 204h-290l-76 -204h-75zM166 727c0.666992 54 10.499 94.5029 29.499 121.503s41.167 40.5 66.5 40.5c14.667 0 28.334 -5.16699 41.001 -15.5s22.834 -21.833 30.501 -34.5s17.167 -24.167 28.5 -34.5s23.666 -15.5 36.999 -15.5
c8.66699 0 15.667 2.5 21 7.5s9.16602 12.667 11.499 23s3.83301 20.666 4.5 30.999s1 23.166 1 38.499h62c-0.666992 -54.667 -10.667 -95.334 -30 -122.001s-41.666 -40 -66.999 -40c-14.667 0 -28.334 5.16699 -41.001 15.5s-22.667 21.833 -30 34.5
s-16.833 24.167 -28.5 34.5s-24.167 15.5 -37.5 15.5c-8.66699 0 -15.667 -2.5 -21 -7.5s-9.16602 -12.833 -11.499 -23.5s-3.83301 -21 -4.5 -31s-1 -22.667 -1 -38h-61zM198.999 260.003h248c-78.667 218 -120 339.333 -124 364c-8.66699 -40.667 -50 -162 -124 -364z" />
    <glyph glyph-name="Adieresis" unicode="&#xc4;" horiz-adv-x="667" 
d="M385 761v89h90v-89h-90zM190 761v89h90v-89h-90zM27 0l261 694h89l260 -694h-92l-77 204h-290l-76 -204h-75zM199 260h248c-78.667 218 -120 339.333 -124 364c-8.66699 -40.667 -50 -162 -124 -364z" />
    <glyph glyph-name="Aring" unicode="&#xc5;" horiz-adv-x="667" 
d="M27 0l244.001 648.999l-3 1l-5 5c-2 2 -4.5 4.33301 -7.5 7s-6 5.83398 -9 9.50098l-9.5 12c-3.33301 4.33301 -6.33301 9.33301 -9 15s-5 11.5 -7 17.5s-3.66699 13 -5 21s-2 16 -2 24c0 34 10.667 63.667 32 89s47.666 38 78.999 38c32 0 58.5 -12.833 79.5 -38.5
s31.5 -55.5 31.5 -89.5c0 -38.667 -15 -73 -45 -103l246 -657h-92l-77 204h-290l-76 -204h-75zM199.001 259.999h248c-78.667 218 -120 339.333 -124 364c-8.66699 -40.667 -50 -162 -124 -364zM270.001 760.999c0 -24.667 5.5 -42 16.5 -52s23.833 -15 38.5 -15
s27.667 5 39 15s17 27 17 51c0 24.667 -5.66699 42 -17 52s-24.333 15 -39 15c-14 0 -26.667 -5 -38 -15s-17 -27 -17 -51z" />
    <glyph glyph-name="AE" unicode="&#xc6;" horiz-adv-x="861" 
d="M27 0l284 694h493v-66h-47l-23 1h-205l-22 1v-238h270v-62h-270v-260h65l24 1h162l21 1h39v-72h-400v222h-225l-91 -222h-75zM217 278h201v352h-58z" />
    <glyph glyph-name="Ccedilla" unicode="&#xc7;" horiz-adv-x="639" 
d="M66 347c0 104 31.332 191.504 93.999 262.504s135.667 106.5 219 106.5c26 0 46.5 -0.5 61.5 -1.5s34.5 -4 58.5 -9s50 -12.833 78 -23.5l-15 -83c-30 18.667 -57 32.167 -81 40.5s-53.667 12.5 -89 12.5c-66.667 0 -122.667 -29.833 -168 -89.5s-68 -131.5 -68 -215.5
c0 -85.333 22.833 -157.5 68.5 -216.5s102.5 -88.5 170.5 -88.5c12.667 0 24.667 0.5 36 1.5s21 2 29 3s16.833 3.16699 26.5 6.5s16.834 5.66602 21.501 6.99902s11.5 4.66602 20.5 9.99902l17 10c2.33301 1.33301 8.5 5.16602 18.5 11.499l18 11.5l6 -70
c-36 -21.333 -67 -35.833 -93 -43.5s-59.667 -11.5 -101 -11.5c-95.333 0 -173.833 36.667 -235.5 110s-92.5 159.666 -92.5 258.999zM283.999 -191.996l74 169h61l-65 -169h-70z" />
    <glyph glyph-name="Egrave" unicode="&#xc8;" horiz-adv-x="597" 
d="M142 851h99.998c6.66699 0 16.334 -3.5 29.001 -10.5l139 -80.5h-78c-7.33301 0 -44.666 17 -111.999 51zM93.998 0v691h447v-66h-57l-25 1h-240l-35 1v-237h330v-61h-330v-259h85l24 1h194l22 1h46v-72h-461z" />
    <glyph glyph-name="Eacute" unicode="&#xc9;" horiz-adv-x="597" 
d="M94 0v691h447v-66h-57l-25 1h-240l-35 1v-237h330v-61h-330v-259h85l24 1h194l22 1h46v-72h-461zM200 760l77.999 44.999c38.667 22.667 61.834 35.834 69.501 39.501s15.167 5.5 22.5 5.5h98l-158 -79l-22 -10l-15 -1h-73z" />
    <glyph glyph-name="Ecircumflex" unicode="&#xca;" horiz-adv-x="597" 
d="M94 0v691h447v-66h-57l-25 1h-240l-35 1v-237h330v-61h-330v-259h85l24 1h194l22 1h46v-72h-461zM129 727l125 173h61l125 -173h-61l-95 122l-94 -122h-61z" />
    <glyph glyph-name="Edieresis" unicode="&#xcb;" horiz-adv-x="597" 
d="M337 760v89h90v-89h-90zM143 760v89h90v-89h-90zM94 0v691h447v-66h-57l-25 1h-240l-35 1v-237h330v-61h-330v-259h85l24 1h194l22 1h46v-72h-461z" />
    <glyph glyph-name="Igrave" unicode="&#xcc;" horiz-adv-x="278" 
d="M-16 850l101 0.000976562c6 0 16.5 -4.16699 31.5 -12.5l134.5 -77.5h-77c-7.33301 0 -19.833 4.16699 -37.5 12.5s-68.5 34.166 -152.5 77.499zM95 0.000976562v694h90v-694h-90z" />
    <glyph glyph-name="Iacute" unicode="&#xcd;" horiz-adv-x="278" 
d="M54 760c99.333 57.333 151 86.667 155 88c3.33301 1.33301 8 2 14 2h99l-158 -79l-22 -10l-15 -1h-73zM94 0.000976562v694h90v-694h-90z" />
    <glyph glyph-name="Icircumflex" unicode="&#xce;" horiz-adv-x="278" 
d="M-16 727l125 173h61l125 -173h-61l-95 122l-93 -122h-62zM95 0v694h90v-694h-90z" />
    <glyph glyph-name="Idieresis" unicode="&#xcf;" horiz-adv-x="278" 
d="M191 760v89h90v-89h-90zM-3 760v89h90v-89h-90zM94 0v694h90v-694h-90z" />
    <glyph glyph-name="Eth" unicode="&#xd0;" horiz-adv-x="722" 
d="M0 311l-0.000976562 59.002h95v324h246c66.667 0 124 -15.667 172 -47c48.667 -32 86.334 -75.5 113.001 -130.5s40 -113.167 40 -174.5c0 -92.667 -27.167 -170.334 -81.5 -233.001s-118.5 -98.334 -192.5 -107.001c-10.667 -1.33301 -26.667 -2 -48 -2h-249v311h-95z
M181.999 56.002l144 0.00195312c83.333 0 148.333 30.667 195 92c39.333 51.333 59 115.666 59 192.999c0 83.333 -22 153.666 -66 210.999s-107 86 -189 86h-142l-1 -37v-231h179v-59h-179v-255z" />
    <glyph glyph-name="Ntilde" unicode="&#xd1;" horiz-adv-x="708" 
d="M95 0v694h125l274 -544l39 -80v624h78v-694h-125l-274 544l-39 80v-624h-78zM186 727c0.666992 54 10.501 94.5029 29.501 121.503s41.167 40.5 66.5 40.5c14.667 0 28.334 -5.16699 41.001 -15.5s22.834 -21.833 30.501 -34.5s17.334 -24.167 29.001 -34.5
s24.167 -15.5 37.5 -15.5c8.66699 0 15.667 2.5 21 7.5s9.16602 12.667 11.499 23s3.83301 20.666 4.5 30.999s1 23.166 1 38.499h62c-0.666992 -54.667 -10.667 -95.334 -30 -122.001s-41.333 -40 -66 -40c-14.667 0 -28.334 5.16699 -41.001 15.5
s-22.834 21.833 -30.501 34.5s-17.334 24.167 -29.001 34.5s-24.167 15.5 -37.5 15.5c-14.667 0 -24.667 -7.83301 -30 -23.5s-8 -41.167 -8 -76.5h-62z" />
    <glyph glyph-name="Ograve" unicode="&#xd2;" horiz-adv-x="736" 
d="M225 851h99.998c6.66699 0 16.334 -3.5 29.001 -10.5l139 -80.5h-78c-7.33301 0 -44.666 17 -111.999 51zM54.998 345c0 103.333 30.832 191 92.499 263s135.167 108 220.5 108c84 0 156.833 -36 218.5 -108s92.5 -159.667 92.5 -263c0 -104.667 -31.167 -192 -93.5 -262
s-135.166 -105 -218.499 -105c-84 0 -157 35.167 -219 105.5s-93 157.5 -93 261.5zM144.997 359c0 -87.333 20.668 -161.833 62.001 -223.5s94.666 -92.5 159.999 -92.5c63.333 0 116.333 30.5 159 91.5s64 135.833 64 224.5c0 87.333 -22 158 -66 212s-96.333 81 -157 81
c-60 0 -112 -27 -156 -81s-66 -124.667 -66 -212z" />
    <glyph glyph-name="Oacute" unicode="&#xd3;" horiz-adv-x="736" 
d="M55 345c0 103.333 30.832 191 92.499 263s135.167 108 220.5 108c84 0 156.833 -36 218.5 -108s92.5 -159.667 92.5 -263c0 -104.667 -31.167 -192 -93.5 -262s-135.166 -105 -218.499 -105c-84 0 -157 35.167 -219 105.5s-93 157.5 -93 261.5zM144.999 359
c0 -87.333 20.668 -161.833 62.001 -223.5s94.666 -92.5 159.999 -92.5c63.333 0 116.333 30.5 159 91.5s64 135.833 64 224.5c0 87.333 -22 158 -66 212s-96.333 81 -157 81c-60 0 -112 -27 -156 -81s-66 -124.667 -66 -212zM242 760c99.333 57.333 151 86.667 155 88
c3.33301 1.33301 8 2 14 2h99l-159 -79l-22 -10l-14 -1h-73z" />
    <glyph glyph-name="Ocircumflex" unicode="&#xd4;" horiz-adv-x="736" 
d="M55 345c0 103.333 30.832 191 92.499 263s135.167 108 220.5 108c84 0 156.833 -36 218.5 -108s92.5 -159.667 92.5 -263c0 -104.667 -31.167 -192 -93.5 -262s-135.166 -105 -218.499 -105c-84 0 -157 35.167 -219 105.5s-93 157.5 -93 261.5zM144.999 359
c0 -87.333 20.668 -161.833 62.001 -223.5s94.666 -92.5 159.999 -92.5c63.333 0 116.333 30.5 159 91.5s64 135.833 64 224.5c0 87.333 -22 158 -66 212s-96.333 81 -157 81c-60 0 -112 -27 -156 -81s-66 -124.667 -66 -212zM212 727l124 173h62l125 -173h-61l-95 122
l-94 -122h-61z" />
    <glyph glyph-name="Otilde" unicode="&#xd5;" horiz-adv-x="736" 
d="M55 345c0 103.333 30.832 191 92.499 263s135.167 108 220.5 108c84 0 156.833 -36 218.5 -108s92.5 -159.667 92.5 -263c0 -104.667 -31.167 -192 -93.5 -262s-135.166 -105 -218.499 -105c-84 0 -157 35.167 -219 105.5s-93 157.5 -93 261.5zM144.999 359
c0 -87.333 20.668 -161.833 62.001 -223.5s94.666 -92.5 159.999 -92.5c63.333 0 116.333 30.5 159 91.5s64 135.833 64 224.5c0 87.333 -22 158 -66 212s-96.333 81 -157 81c-60 0 -112 -27 -156 -81s-66 -124.667 -66 -212zM200 727
c2.66699 69.333 19.335 116.999 50.002 142.999c16 12.667 31.333 19 46 19s28.334 -5.16699 41.001 -15.5s23 -21.833 31 -34.5s17.833 -24.167 29.5 -34.5s23.834 -15.5 36.501 -15.5c6 0 11.167 1.33301 15.5 4s7.83301 6.5 10.5 11.5s5 10 7 15s3.33301 11.333 4 19
s1.16699 13.834 1.5 18.501s0.5 10.667 0.5 18v14h61c-4 -72 -20.333 -120 -49 -144c-13.333 -12 -29 -18 -47 -18c-14.667 0 -28.334 5.16699 -41.001 15.5s-23 21.833 -31 34.5s-17.833 24.167 -29.5 34.5s-23.834 15.5 -36.501 15.5c-6 0 -11.167 -1.33301 -15.5 -4
s-7.83301 -6.5 -10.5 -11.5s-4.83398 -10 -6.50098 -15s-2.83398 -11.333 -3.50098 -19s-1.16699 -14 -1.5 -19s-0.5 -11 -0.5 -18v-13.5h-62z" />
    <glyph glyph-name="Odieresis" unicode="&#xd6;" horiz-adv-x="736" 
d="M420 760v89h90v-89h-90zM225 760v89h90v-89h-90zM55 345c0 103.333 30.832 191 92.499 263s135.167 108 220.5 108c84 0 156.833 -36 218.5 -108s92.5 -159.667 92.5 -263c0 -104.667 -31.167 -192 -93.5 -262s-135.166 -105 -218.499 -105c-84 0 -157 35.167 -219 105.5
s-93 157.5 -93 261.5zM144.999 359c0 -87.333 20.668 -161.833 62.001 -223.5s94.666 -92.5 159.999 -92.5c63.333 0 116.333 30.5 159 91.5s64 135.833 64 224.5c0 87.333 -22 158 -66 212s-96.333 81 -157 81c-60 0 -112 -27 -156 -81s-66 -124.667 -66 -212z" />
    <glyph glyph-name="multiply" unicode="&#xd7;" horiz-adv-x="778" 
d="M148 28c0 3.33301 1 6.66504 3 9.99805s3.83301 5.83301 5.5 7.5l8.5 8.5l7 7l188 189l-189 189l-9 9l-6.5 6.5c-1 1 -2.16699 2.66699 -3.5 5s-2.33301 4.5 -3 6.5s-1 4.33301 -1 7c0 4 1.83301 7.83301 5.5 11.5s8.16699 5.5 13.5 5.5
c6.66699 0 16.667 -6.66699 30 -20l192 -192l192 193c12.667 12.667 22.334 19 29.001 19s11.5 -2.16699 14.5 -6.5s4.5 -8.16602 4.5 -11.499s-0.833008 -6.5 -2.5 -9.5s-3.33398 -5.5 -5.00098 -7.5s-4.16699 -4.66699 -7.5 -8l-8 -8l-189 -189l189 -189
c2 -2 4.33301 -4.5 7 -7.5s4.5 -5 5.5 -6l4 -4c1.66699 -1.66699 2.66699 -3 3 -4s0.833008 -2.16699 1.5 -3.5s1.16699 -2.66602 1.5 -3.99902s0.5 -3 0.5 -5c0 -4 -1.83301 -7.83301 -5.5 -11.5s-8.16699 -5.5 -13.5 -5.5c-6 0 -15.667 6.66699 -29 20l-193 192l-200 -201
l-11 -9c-4 -2 -7.66699 -3 -11 -3c-4 0 -8 2 -12 6s-6 8.33301 -6 13z" />
    <glyph glyph-name="Oslash" unicode="&#xd8;" horiz-adv-x="778" 
d="M55 345c0 104 32.832 191.833 98.499 263.5s143.834 107.5 234.501 107.5c52 0 103 -13.667 153 -41l48 84h1l55 -32l-52 -90c38 -32 68.833 -73.667 92.5 -125s35.5 -107 35.5 -167c0 -104 -33 -191.167 -99 -261.5s-144 -105.5 -234 -105.5c-52 0 -103 13.667 -153 41
l-48 -84l-55 32l51 89c-42 36 -73.833 79.5 -95.5 130.5s-32.5 103.833 -32.5 158.5zM140.999 344c0 -94.667 25.667 -170.333 77 -227l290 502c-40.667 24 -80.667 36 -120 36c-68.667 0 -127 -28.5 -175 -85.5s-72 -132.167 -72 -225.5zM267.999 75.001
c17.333 -9.33301 29.835 -15.668 37.502 -19.001s19.167 -7 34.5 -11s31.666 -6 48.999 -6c67.333 0 125.166 27.667 173.499 83s72.5 130 72.5 224c0 90.667 -25.667 167.334 -77 230.001h-1z" />
    <glyph glyph-name="Ugrave" unicode="&#xd9;" horiz-adv-x="687" 
d="M201 851h99.998c6.66699 0 16.334 -3.5 29.001 -10.5l139 -80.5h-78c-7.33301 0 -44.666 17 -111.999 51zM93.998 245l0.000976562 448.999h90v-415c0 -4 -0.166992 -9.83301 -0.5 -17.5s-0.5 -13.5 -0.5 -17.5c0 -40.667 5.5 -75.667 16.5 -105
s25.333 -51.166 43 -65.499s35 -24.5 52 -30.5s34.167 -9 51.5 -9c18.667 0 37.167 3.33301 55.5 10s36.333 17.334 54 32.001s32 36.167 43 64.5s16.5 61.5 16.5 99.5c0 2 -0.166992 5 -0.5 9s-0.5 7 -0.5 9v436h79v-453c0 -42.667 -7.5 -81.334 -22.5 -116.001
s-34.667 -62.334 -59 -83.001s-50.833 -36.5 -79.5 -47.5s-57.334 -16.5 -86.001 -16.5c-29.333 0 -58.333 5.33301 -87 16s-55.5 26.334 -80.5 47.001s-45.333 48.667 -61 84s-23.5 75.333 -23.5 120z" />
    <glyph glyph-name="Uacute" unicode="&#xda;" horiz-adv-x="687" 
d="M94 245l0.000976562 448.999h90v-415c0 -4 -0.166992 -9.83301 -0.5 -17.5s-0.5 -13.5 -0.5 -17.5c0 -40.667 5.5 -75.667 16.5 -105s25.333 -51.166 43 -65.499s35 -24.5 52 -30.5s34.167 -9 51.5 -9c18.667 0 37.167 3.33301 55.5 10s36.333 17.334 54 32.001
s32 36.167 43 64.5s16.5 61.5 16.5 99.5c0 2 -0.166992 5 -0.5 9s-0.5 7 -0.5 9v436h79v-453c0 -42.667 -7.5 -81.334 -22.5 -116.001s-34.667 -62.334 -59 -83.001s-50.833 -36.5 -79.5 -47.5s-57.334 -16.5 -86.001 -16.5c-29.333 0 -58.333 5.33301 -87 16
s-55.5 26.334 -80.5 47.001s-45.333 48.667 -61 84s-23.5 75.333 -23.5 120zM259.001 759.999l77.999 44.999c38.667 22.667 61.834 35.834 69.501 39.501s15.167 5.5 22.5 5.5h98l-158 -79l-22 -10l-15 -1h-73z" />
    <glyph glyph-name="Ucircumflex" unicode="&#xdb;" horiz-adv-x="687" 
d="M94 245l0.000976562 448.999h90v-415c0 -4 -0.166992 -9.83301 -0.5 -17.5s-0.5 -13.5 -0.5 -17.5c0 -40.667 5.5 -75.667 16.5 -105s25.333 -51.166 43 -65.499s35 -24.5 52 -30.5s34.167 -9 51.5 -9c18.667 0 37.167 3.33301 55.5 10s36.333 17.334 54 32.001
s32 36.167 43 64.5s16.5 61.5 16.5 99.5c0 2 -0.166992 5 -0.5 9s-0.5 7 -0.5 9v436h79v-453c0 -42.667 -7.5 -81.334 -22.5 -116.001s-34.667 -62.334 -59 -83.001s-50.833 -36.5 -79.5 -47.5s-57.334 -16.5 -86.001 -16.5c-29.333 0 -58.333 5.33301 -87 16
s-55.5 26.334 -80.5 47.001s-45.333 48.667 -61 84s-23.5 75.333 -23.5 120zM190.001 726.999l125 173h57l130 -173h-62l-94 122l-94 -122h-62z" />
    <glyph glyph-name="Udieresis" unicode="&#xdc;" horiz-adv-x="687" 
d="M396 761v89h90v-89h-90zM201 761v89h90v-89h-90zM94 245l0.000976562 448.999h90v-415c0 -4 -0.166992 -9.83301 -0.5 -17.5s-0.5 -13.5 -0.5 -17.5c0 -40.667 5.5 -75.667 16.5 -105s25.333 -51.166 43 -65.499s35 -24.5 52 -30.5s34.167 -9 51.5 -9
c18.667 0 37.167 3.33301 55.5 10s36.333 17.334 54 32.001s32 36.167 43 64.5s16.5 61.5 16.5 99.5c0 2 -0.166992 5 -0.5 9s-0.5 7 -0.5 9v436h79v-453c0 -42.667 -7.5 -81.334 -22.5 -116.001s-34.667 -62.334 -59 -83.001s-50.833 -36.5 -79.5 -47.5
s-57.334 -16.5 -86.001 -16.5c-29.333 0 -58.333 5.33301 -87 16s-55.5 26.334 -80.5 47.001s-45.333 48.667 -61 84s-23.5 75.333 -23.5 120z" />
    <glyph glyph-name="Yacute" unicode="&#xdd;" horiz-adv-x="667" 
d="M2 694l105 0.000976562l147 -213c53.333 -80 82.333 -124.333 87 -133c23.333 41.333 101 156.666 233 345.999h88l-286 -416v-278h-87v278zM248 760.001l77.999 44.999c38.667 22.667 61.834 35.834 69.501 39.501s15.167 5.5 22.5 5.5h98l-158 -79l-22 -10l-15 -1h-73z
" />
    <glyph glyph-name="Thorn" unicode="&#xde;" horiz-adv-x="583" 
d="M96 0l0.000976562 694h84v-127h122c39.333 0 74.166 -6.33301 104.499 -19s53.833 -29 70.5 -49s29 -40.667 37 -62s12 -42.333 12 -63c0 -48.667 -18.833 -93.167 -56.5 -133.5s-91.5 -60.5 -161.5 -60.5h-128v-180h-84zM180.001 236h102.001c54 0 94.667 14.5 122 43.5
s41 60.167 41 93.5c0 14 -2.83301 28.333 -8.5 43s-14.834 29.5 -27.501 44.5s-31.667 27.167 -57 36.5s-55.333 14 -90 14h-81l-1 -38v-237z" />
    <glyph glyph-name="germandbls" unicode="&#xdf;" horiz-adv-x="480" 
d="M81 0l-0.00585938 564.002c0 32 4.83301 59.667 14.5 83s23 40.833 40 52.5s34.833 20.167 53.5 25.5s39.334 8 62.001 8c48 0 88.833 -12.5 122.5 -37.5s50.5 -67.167 50.5 -126.5c0 -33.333 -3.83301 -61.666 -11.5 -84.999s-17.5 -40.166 -29.5 -50.499
s-23.667 -18 -35 -23s-22.166 -8.33301 -32.499 -10s-16.166 -3.16699 -17.499 -4.5c-10 -8 -15 -29.667 -15 -65c0 -17.333 1.66699 -30 5 -38s7 -13 11 -15s12.333 -4.16699 25 -6.5s24 -5.16602 34 -8.49902c22 -7.33301 42.167 -22.666 60.5 -45.999
s27.5 -53.333 27.5 -90c0 -42 -11.167 -75.5 -33.5 -100.5s-53.5 -37.5 -93.5 -37.5c-39.333 0 -75 15 -107 45l12 68l3 -4l7 -7l9.5 -9.5c3.66699 -3.66699 8.16699 -7.16699 13.5 -10.5s11 -6.5 17 -9.5s12.667 -5.33301 20 -7s15 -2.5 23 -2.5c21.333 0 36.333 7 45 21
s13 29.667 13 47c0 32.667 -12 54.667 -36 66c-2 0.666992 -13.5 3.66699 -34.5 9s-37.833 13.666 -50.5 24.999c-28 26 -42 63 -42 111c0 36 7.66699 65.5 23 88.5s38 36.5 68 40.5c0.666992 0 2.83398 0.166992 6.50098 0.5s6 0.666016 7 0.999023l6 2
c3 1 5 2.16699 6 3.5l4.5 6c2 2.66699 3.5 5.66699 4.5 9s2.16699 7.66602 3.5 12.999s2.33301 11.166 3 17.499s1.16699 14 1.5 23s0.5 18.833 0.5 29.5c0 10 -0.166992 18 -0.5 24s-2.16602 14.833 -5.49902 26.5s-8 21.167 -14 28.5s-15.333 13.833 -28 19.5
s-27.667 8.5 -45 8.5c-18.667 0 -34.667 -3 -48 -9s-23 -12.667 -29 -20s-10.667 -17.333 -14 -30s-5.16602 -21.834 -5.49902 -27.501s-0.5 -13.834 -0.5 -24.501v-561h-75z" />
    <glyph glyph-name="agrave" unicode="&#xe0;" horiz-adv-x="480" 
d="M153 640h78l133 -130h-61zM44 113c0 24.667 9.33398 46.165 28.001 64.498s43.167 32 73.5 41s60 15.667 89 20s58.167 6.5 87.5 6.5v34c-1.33301 42.667 -10 73.334 -26 92.001c-16.667 20 -37.667 30 -63 30c-51.333 0 -101.333 -17 -150 -51l-6 67
c50 29.333 102.333 44 157 44c46 0 84.5 -15.167 115.5 -45.5s47.833 -67.166 50.5 -110.499v-305h-76v35c-2.66699 -2.66699 -8.83398 -7 -18.501 -13s-28.5 -13 -56.5 -21s-58.333 -12 -91 -12c-38 0 -66.5 13.5 -85.5 40.5s-28.5 54.833 -28.5 83.5zM117.001 113.998
c0 -18 8.83203 -33 26.499 -45s39.834 -18 66.501 -18c28.667 0 54.5 6 77.5 18s34.5 32.333 34.5 61v63c-20.667 0 -41.667 -1.33301 -63 -4s-43.333 -6.66699 -66 -12s-41 -13.5 -55 -24.5s-21 -23.833 -21 -38.5z" />
    <glyph glyph-name="aacute" unicode="&#xe1;" horiz-adv-x="480" 
d="M136 510l133 130h78l-149 -130h-62zM44 113c0 24.667 9.33398 46.165 28.001 64.498s43.167 32 73.5 41s60 15.667 89 20s58.167 6.5 87.5 6.5v34c-1.33301 42.667 -10 73.334 -26 92.001c-16.667 20 -37.667 30 -63 30c-51.333 0 -101.333 -17 -150 -51l-6 67
c50 29.333 102.333 44 157 44c46 0 84.5 -15.167 115.5 -45.5s47.833 -67.166 50.5 -110.499v-305h-76v35c-2.66699 -2.66699 -8.83398 -7 -18.501 -13s-28.5 -13 -56.5 -21s-58.333 -12 -91 -12c-38 0 -66.5 13.5 -85.5 40.5s-28.5 54.833 -28.5 83.5zM117.001 113.998
c0 -18 8.83203 -33 26.499 -45s39.834 -18 66.501 -18c28.667 0 54.5 6 77.5 18s34.5 32.333 34.5 61v63c-20.667 0 -41.667 -1.33301 -63 -4s-43.333 -6.66699 -66 -12s-41 -13.5 -55 -24.5s-21 -23.833 -21 -38.5z" />
    <glyph glyph-name="acircumflex" unicode="&#xe2;" horiz-adv-x="480" 
d="M44 113c0 24.667 9.33398 46.165 28.001 64.498s43.167 32 73.5 41s60 15.667 89 20s58.167 6.5 87.5 6.5v34c-1.33301 42.667 -10 73.334 -26 92.001c-16.667 20 -37.667 30 -63 30c-51.333 0 -101.333 -17 -150 -51l-6 67c50 29.333 102.333 44 157 44
c46 0 84.5 -15.167 115.5 -45.5s47.833 -67.166 50.5 -110.499v-305h-76v35c-2.66699 -2.66699 -8.83398 -7 -18.501 -13s-28.5 -13 -56.5 -21s-58.333 -12 -91 -12c-38 0 -66.5 13.5 -85.5 40.5s-28.5 54.833 -28.5 83.5zM83.001 508.998l125 141h84l102 -141h-61l-94 99
l-95 -99h-61zM117.001 113.998c0 -18 8.83203 -33 26.499 -45s39.834 -18 66.501 -18c28.667 0 54.5 6 77.5 18s34.5 32.333 34.5 61v63c-20.667 0 -41.667 -1.33301 -63 -4s-43.333 -6.66699 -66 -12s-41 -13.5 -55 -24.5s-21 -23.833 -21 -38.5z" />
    <glyph glyph-name="atilde" unicode="&#xe3;" horiz-adv-x="480" 
d="M44 113c0 24.667 9.33398 46.165 28.001 64.498s43.167 32 73.5 41s60 15.667 89 20s58.167 6.5 87.5 6.5v34c-1.33301 42.667 -10 73.334 -26 92.001c-16.667 20 -37.667 30 -63 30c-51.333 0 -101.333 -17 -150 -51l-6 67c50 29.333 102.333 44 157 44
c46 0 84.5 -15.167 115.5 -45.5s47.833 -67.166 50.5 -110.499v-305h-76v35c-2.66699 -2.66699 -8.83398 -7 -18.501 -13s-28.5 -13 -56.5 -21s-58.333 -12 -91 -12c-38 0 -66.5 13.5 -85.5 40.5s-28.5 54.833 -28.5 83.5zM83.001 528.998
c0.666992 32.667 10.668 59 30.001 79s42 30 68 30c18 0 41.167 -8 69.5 -24s49.5 -24 63.5 -24c12.667 0 22.5 4.66699 29.5 14s10.833 21 11.5 35h61c-0.666992 -32 -10.667 -58.333 -30 -79s-42 -31 -68 -31c-17.333 0 -40.5 8 -69.5 24s-50.167 24 -63.5 24
c-24.667 0 -38.334 -16 -41.001 -48h-61zM117.002 113.998c0 -18 8.83203 -33 26.499 -45s39.834 -18 66.501 -18c28.667 0 54.5 6 77.5 18s34.5 32.333 34.5 61v63c-20.667 0 -41.667 -1.33301 -63 -4s-43.333 -6.66699 -66 -12s-41 -13.5 -55 -24.5s-21 -23.833 -21 -38.5
z" />
    <glyph glyph-name="adieresis" unicode="&#xe4;" horiz-adv-x="480" 
d="M303 571v89h90v-89h-90zM108 571v89h90v-89h-90zM44 113c0 24.667 9.33398 46.165 28.001 64.498s43.167 32 73.5 41s60 15.667 89 20s58.167 6.5 87.5 6.5v34c-1.33301 42.667 -10 73.334 -26 92.001c-16.667 20 -37.667 30 -63 30c-51.333 0 -101.333 -17 -150 -51
l-6 67c50 29.333 102.333 44 157 44c46 0 84.5 -15.167 115.5 -45.5s47.833 -67.166 50.5 -110.499v-305h-76v35c-2.66699 -2.66699 -8.83398 -7 -18.501 -13s-28.5 -13 -56.5 -21s-58.333 -12 -91 -12c-38 0 -66.5 13.5 -85.5 40.5s-28.5 54.833 -28.5 83.5z
M117.001 113.998c0 -18 8.83203 -33 26.499 -45s39.834 -18 66.501 -18c28.667 0 54.5 6 77.5 18s34.5 32.333 34.5 61v63c-20.667 0 -41.667 -1.33301 -63 -4s-43.333 -6.66699 -66 -12s-41 -13.5 -55 -24.5s-21 -23.833 -21 -38.5z" />
    <glyph glyph-name="aring" unicode="&#xe5;" horiz-adv-x="480" 
d="M44 113c0 24.667 9.33398 46.165 28.001 64.498s43.167 32 73.5 41s60 15.667 89 20s58.167 6.5 87.5 6.5v34c-1.33301 42.667 -10 73.334 -26 92.001c-16.667 20 -37.667 30 -63 30c-51.333 0 -101.333 -17 -150 -51l-6 67c50 29.333 102.333 44 157 44
c46 0 84.5 -15.167 115.5 -45.5s47.833 -67.166 50.5 -110.499v-305h-76v35c-2.66699 -2.66699 -8.83398 -7 -18.501 -13s-28.5 -13 -56.5 -21s-58.333 -12 -91 -12c-38 0 -66.5 13.5 -85.5 40.5s-28.5 54.833 -28.5 83.5zM117.001 113.998c0 -18 8.83203 -33 26.499 -45
s39.834 -18 66.501 -18c28.667 0 54.5 6 77.5 18s34.5 32.333 34.5 61v63c-20.667 0 -41.667 -1.33301 -63 -4s-43.333 -6.66699 -66 -12s-41 -13.5 -55 -24.5s-21 -23.833 -21 -38.5zM127 557.998c0 22.667 11 41.834 33 57.501s48.333 23.5 79 23.5
c34 0 61 -8.66699 81 -26s30 -36 30 -56c0 -22.667 -11 -41.834 -33 -57.501s-48.333 -23.5 -79 -23.5c-30 0 -56 7.83301 -78 23.5s-33 35.167 -33 58.5zM183 556.998c0 -12 4.16699 -23 12.5 -33s22.5 -15 42.5 -15s34.333 5 43 15s13 21.333 13 34
c0 12 -4.16699 23 -12.5 33s-22.5 15 -42.5 15c-17.333 0 -31 -4.5 -41 -13.5s-15 -20.833 -15 -35.5z" />
    <glyph glyph-name="ae" unicode="&#xe6;" horiz-adv-x="722" 
d="M46 114c0 42 25.9951 74.335 77.9951 97.002s117.667 34.667 197 36v32c-1.33301 42.667 -9.66602 73 -24.999 91c-16.667 20.667 -37.667 31 -63 31c-52 0 -102.333 -17 -151 -51l-6 67c52.667 29.333 105.334 44 158.001 44c56.667 0 103.667 -26 141 -78
c40.667 52 91.334 78 152.001 78c19.333 0 37.666 -3.33301 54.999 -10s34.833 -18 52.5 -34s31.834 -40.833 42.501 -74.5s16 -74.5 16 -122.5h-294c0 -0.666992 0.166992 -3.5 0.5 -8.5s0.833008 -9.16699 1.5 -12.5s1.5 -8.33301 2.5 -15s2.33301 -12.834 4 -18.501
s3.83398 -12 6.50098 -19s6 -13.833 10 -20.5s8.33301 -13.334 13 -20.001s10.5 -13 17.5 -19s14.5 -11.667 22.5 -17c20 -12.667 42.333 -19 67 -19c48 0 94 18.333 138 55l6 -66c-44 -34 -92.333 -51 -145 -51c-63.333 0 -118 25.667 -164 77
c-35.333 -51.333 -108.666 -77 -219.999 -77c-39.333 0 -68 13.833 -86 41.5s-27 55.5 -27 83.5zM118.995 115.002c0.666992 -19.333 9.66797 -34.835 27.001 -46.502s39 -17.5 65 -17.5c17.333 0 33.833 1.66699 49.5 5s30.5 11 44.5 23s21 27.667 21 47
c0 2 -0.166992 4.5 -0.5 7.5s-0.833008 9.66699 -1.5 20s-1.33398 22.833 -2.00098 37.5c-60.667 -1.33301 -110 -8.66602 -148 -21.999c-6 -2 -11.5 -4.16699 -16.5 -6.5s-9.33301 -4.83301 -13 -7.5l-10 -7c-3 -2 -5.33301 -4.33301 -7 -7l-4 -6.5
c-1 -1.66699 -1.83301 -3.66699 -2.5 -6s-1.16699 -4.16602 -1.5 -5.49902s-0.5 -3 -0.5 -5v-3zM404.996 275h229c-13.333 82.667 -48.666 124 -105.999 124c-26 0 -50.833 -11 -74.5 -33s-39.834 -52.333 -48.501 -91z" />
    <glyph glyph-name="ccedilla" unicode="&#xe7;" horiz-adv-x="444" 
d="M145 -192l74 169h61l-65 -169h-70zM35 223c0 62 19.998 117.164 59.998 165.497s93.333 72.5 160 72.5c31.333 0 57.333 -3 78 -9s46.334 -17.667 77.001 -35l-12 -66c-32.667 20.667 -57.667 33.334 -75 38.001c-19.333 5.33301 -42.333 8 -69 8
c-45.333 0 -80.166 -17.167 -104.499 -51.5s-36.5 -75.166 -36.5 -122.499c0 -49.333 13 -90 39 -122s59.667 -48 101 -48c52 0 104.333 18 157 54l5 -67c-52.667 -34 -107 -51 -163 -51c-61.333 0 -112.833 22.833 -154.5 68.5s-62.5 100.834 -62.5 165.501z" />
    <glyph glyph-name="egrave" unicode="&#xe8;" horiz-adv-x="444" 
d="M152 640h78l133 -130h-61zM34 226c0 66 20.167 121.667 60.5 167s87.5 68 141.5 68c20 0 39 -3.16699 57 -9.5s36.167 -16.833 54.5 -31.5s33.5 -36.667 45.5 -66s19 -64.333 21 -105v-29h-310c2 -50 17.333 -90.667 46 -122s62.667 -47 102 -47
c50.667 0 101.334 18.333 152.001 55l6 -66c-50.667 -34 -103.334 -51 -158.001 -51c-63.333 0 -115.5 23.5 -156.5 70.5s-61.5 102.5 -61.5 166.5zM109 275l247.999 -0.000976562c-4 26 -11.167 48 -21.5 66s-22 30.833 -35 38.5s-24.667 12.834 -35 15.501
s-20.166 4 -29.499 4c-34 0 -62 -13 -84 -39s-36.333 -54.333 -43 -85z" />
    <glyph glyph-name="eacute" unicode="&#xe9;" horiz-adv-x="444" 
d="M107 510l133 130h78l-149 -130h-62zM34 226c0 66 20.167 121.667 60.5 167s87.5 68 141.5 68c20 0 39 -3.16699 57 -9.5s36.167 -16.833 54.5 -31.5s33.5 -36.667 45.5 -66s19 -64.333 21 -105v-29h-310c2 -50 17.333 -90.667 46 -122s62.667 -47 102 -47
c50.667 0 101.334 18.333 152.001 55l6 -66c-50.667 -34 -103.334 -51 -158.001 -51c-63.333 0 -115.5 23.5 -156.5 70.5s-61.5 102.5 -61.5 166.5zM109 275l247.999 -0.000976562c-4 26 -11.167 48 -21.5 66s-22 30.833 -35 38.5s-24.667 12.834 -35 15.501
s-20.166 4 -29.499 4c-34 0 -62 -13 -84 -39s-36.333 -54.333 -43 -85z" />
    <glyph glyph-name="ecircumflex" unicode="&#xea;" horiz-adv-x="444" 
d="M34 226c0 66 20.167 121.667 60.5 167s87.5 68 141.5 68c20 0 39 -3.16699 57 -9.5s36.167 -16.833 54.5 -31.5s33.5 -36.667 45.5 -66s19 -64.333 21 -105v-29h-310c2 -50 17.333 -90.667 46 -122s62.667 -47 102 -47c50.667 0 101.334 18.333 152.001 55l6 -66
c-50.667 -34 -103.334 -51 -158.001 -51c-63.333 0 -115.5 23.5 -156.5 70.5s-61.5 102.5 -61.5 166.5zM66 509l124 141h63l124 -141h-61l-95 99l-94 -99h-61zM109 275l247.999 -0.000976562c-4 26 -11.167 48 -21.5 66s-22 30.833 -35 38.5s-24.667 12.834 -35 15.501
s-20.166 4 -29.499 4c-34 0 -62 -13 -84 -39s-36.333 -54.333 -43 -85z" />
    <glyph glyph-name="edieresis" unicode="&#xeb;" horiz-adv-x="444" 
d="M274 571v89h90v-89h-90zM79 571v89h90v-89h-90zM34 226c0 66 20.167 121.667 60.5 167s87.5 68 141.5 68c20 0 39 -3.16699 57 -9.5s36.167 -16.833 54.5 -31.5s33.5 -36.667 45.5 -66s19 -64.333 21 -105v-29h-310c2 -50 17.333 -90.667 46 -122s62.667 -47 102 -47
c50.667 0 101.334 18.333 152.001 55l6 -66c-50.667 -34 -103.334 -51 -158.001 -51c-63.333 0 -115.5 23.5 -156.5 70.5s-61.5 102.5 -61.5 166.5zM109 275l247.999 -0.000976562c-4 26 -11.167 48 -21.5 66s-22 30.833 -35 38.5s-24.667 12.834 -35 15.501
s-20.166 4 -29.499 4c-34 0 -62 -13 -84 -39s-36.333 -54.333 -43 -85z" />
    <glyph glyph-name="eth" unicode="&#xf0;" 
d="M30 220c0 64 21.002 120.166 63.002 168.499s94 72.5 156 72.5c31.333 0 65 -9 101 -27c-16.667 33.333 -32.834 60.166 -48.501 80.499s-36.834 43.5 -63.501 69.5h-1l-95 -55l-34 61l69 40c-42 22.667 -78 38.334 -108 47.001l53 45
c45.333 -13.333 84.666 -32 117.999 -56l98 56l35 -60l-73 -42c47.333 -42 87.333 -94.667 120 -158s49 -134.333 49 -213v-13c0 -57.333 -12.333 -105.666 -37 -144.999c-20.667 -32 -47.167 -57 -79.5 -75s-66.833 -27 -103.5 -27c-59.333 0 -110.666 22 -153.999 66
s-65 99 -65 165zM108.002 230.999c0 -58 14.1689 -102.167 42.502 -132.5s61.166 -45.5 98.499 -45.5c42 0 76 16.333 102 49s39 74 39 124s-13 91.333 -39 124s-60 49 -102 49c-36.667 0 -69.334 -14 -98.001 -42s-43 -70 -43 -126z" />
    <glyph glyph-name="ntilde" unicode="&#xf1;" horiz-adv-x="517" 
d="M91 529c0.666992 32.667 10.668 59.167 30.001 79.5s42 30.5 68 30.5c18 0 41.167 -8.16699 69.5 -24.5s49.5 -24.5 63.5 -24.5c12.667 0 22.5 4.66699 29.5 14s10.833 21 11.5 35h61c-0.666992 -32 -10.667 -58.333 -30 -79s-42 -31 -68 -31c-18 0 -41.167 8 -69.5 24
s-49.5 24 -63.5 24c-24.667 0 -38.334 -16 -41.001 -48h-61zM80.001 0l-0.00292969 450.001h73v-70c38.667 50 87.334 75 146.001 75c24.667 0 45.834 -3.66699 63.501 -11s31.167 -16.333 40.5 -27s16.5 -24.167 21.5 -40.5s8.16699 -30.833 9.5 -43.5s2 -27.667 2 -45
v-288h-78v281c0 11.333 -0.166992 20.333 -0.5 27s-2.33301 16.167 -6 28.5s-8.66699 22.166 -15 29.499s-16 13.833 -29 19.5s-28.833 8.5 -47.5 8.5c-35.333 0 -61.166 -15 -77.499 -45s-24.5 -66.333 -24.5 -109v-240h-78z" />
    <glyph glyph-name="ograve" unicode="&#xf2;" 
d="M152 640h78l133 -130h-61zM30 221c0 67.333 21.501 124.167 64.501 170.5s94.5 69.5 154.5 69.5c62.667 0 115 -24.167 157 -72.5s63 -104.5 63 -168.5c0 -66 -22 -121 -66 -165s-95.333 -66 -154 -66s-109.834 22.167 -153.501 66.5s-65.5 99.5 -65.5 165.5z
M108.001 231.001c0 -58.667 14.1689 -103 42.502 -133s61.166 -45 98.499 -45s70.166 15.167 98.499 45.5s42.5 74.5 42.5 132.5c0 56 -14.167 98 -42.5 126s-61.166 42 -98.499 42c-36.667 0 -69.334 -14 -98.001 -42s-43 -70 -43 -126z" />
    <glyph glyph-name="oacute" unicode="&#xf3;" 
d="M191 510l133 130h78l-149 -130h-62zM30 221c0 67.333 21.501 124.167 64.501 170.5s94.5 69.5 154.5 69.5c62.667 0 115 -24.167 157 -72.5s63 -104.5 63 -168.5c0 -66 -22 -121 -66 -165s-95.333 -66 -154 -66s-109.834 22.167 -153.501 66.5s-65.5 99.5 -65.5 165.5z
M108.001 231.001c0 -58.667 14.1689 -103 42.502 -133s61.166 -45 98.499 -45s70.166 15.167 98.499 45.5s42.5 74.5 42.5 132.5c0 56 -14.167 98 -42.5 126s-61.166 42 -98.499 42c-36.667 0 -69.334 -14 -98.001 -42s-43 -70 -43 -126z" />
    <glyph glyph-name="ocircumflex" unicode="&#xf4;" 
d="M94 509l125 141h61l125 -141h-61l-95 99l-94 -99h-61zM30 221c0 67.333 21.501 124.167 64.501 170.5s94.5 69.5 154.5 69.5c62.667 0 115 -24.167 157 -72.5s63 -104.5 63 -168.5c0 -66 -22 -121 -66 -165s-95.333 -66 -154 -66s-109.834 22.167 -153.501 66.5
s-65.5 99.5 -65.5 165.5zM108.001 231.001c0 -58.667 14.1689 -103 42.502 -133s61.166 -45 98.499 -45s70.166 15.167 98.499 45.5s42.5 74.5 42.5 132.5c0 56 -14.167 98 -42.5 126s-61.166 42 -98.499 42c-36.667 0 -69.334 -14 -98.001 -42s-43 -70 -43 -126z" />
    <glyph glyph-name="otilde" unicode="&#xf5;" 
d="M83 529c0.666992 32.667 10.668 59.167 30.001 79.5s42 30.5 68 30.5c18 0 41.167 -8.16699 69.5 -24.5s49.5 -24.5 63.5 -24.5c12.667 0 22.5 4.66699 29.5 14s10.833 21 11.5 35h61c-0.666992 -32 -10.667 -58.333 -30 -79s-42 -31 -68 -31c-18 0 -41.167 8 -69.5 24
s-49.5 24 -63.5 24c-24.667 0 -38.334 -16 -41.001 -48h-61zM30.001 221c0 67.333 21.501 124.167 64.501 170.5s94.5 69.5 154.5 69.5c62.667 0 115 -24.167 157 -72.5s63 -104.5 63 -168.5c0 -66 -22 -121 -66 -165s-95.333 -66 -154 -66s-109.834 22.167 -153.501 66.5
s-65.5 99.5 -65.5 165.5zM108.002 231.001c0 -58.667 14.1689 -103 42.502 -133s61.166 -45 98.499 -45s70.166 15.167 98.499 45.5s42.5 74.5 42.5 132.5c0 56 -14.167 98 -42.5 126s-61.166 42 -98.499 42c-36.667 0 -69.334 -14 -98.001 -42s-43 -70 -43 -126z" />
    <glyph glyph-name="odieresis" unicode="&#xf6;" 
d="M302 571v89h90v-89h-90zM107 571v89h90v-89h-90zM30 221c0 67.333 21.501 124.167 64.501 170.5s94.5 69.5 154.5 69.5c62.667 0 115 -24.167 157 -72.5s63 -104.5 63 -168.5c0 -66 -22 -121 -66 -165s-95.333 -66 -154 -66s-109.834 22.167 -153.501 66.5
s-65.5 99.5 -65.5 165.5zM108.001 231.001c0 -58.667 14.1689 -103 42.502 -133s61.166 -45 98.499 -45s70.166 15.167 98.499 45.5s42.5 74.5 42.5 132.5c0 56 -14.167 98 -42.5 126s-61.166 42 -98.499 42c-36.667 0 -69.334 -14 -98.001 -42s-43 -70 -43 -126z" />
    <glyph glyph-name="divide" unicode="&#xf7;" horiz-adv-x="778" 
d="M56 250c0 13.333 9.66699 20 29 20h599h12.5c2.33301 0 5.83301 -0.666992 10.5 -2s8 -3.5 10 -6.5s3 -6.83301 3 -11.5c0 -13.333 -9.33301 -20 -28 -20h-609c-18 0 -27 6.66699 -27 20zM326 -6v67.0029c-0.666992 18.667 8.33301 28 27 28h65
c14 0 22.833 -2.33301 26.5 -7s5.5 -12.334 5.5 -23.001v-49c0 -12.667 -0.333008 -21.334 -1 -26.001s-3 -8.83398 -7 -12.501s-11 -5.5 -21 -5.5h-65c-12 0 -20 2.5 -24 7.5s-6 11.833 -6 20.5zM326 439.003v67.002c0 18.667 9 28 27 28h65
c10.667 0 18.667 -1.66699 24 -5s8 -11 8 -23v-51c0 -12.667 -0.333008 -21.334 -1 -26.001s-3 -8.83398 -7 -12.501s-10.667 -5.5 -20 -5.5h-66c-10 0 -17.5 1.83301 -22.5 5.5s-7.5 11.167 -7.5 22.5z" />
    <glyph glyph-name="oslash" unicode="&#xf8;" 
d="M31 221c0 64 21.001 120 63.001 168s93.667 72 155 72c26.667 0 56 -7 88 -21l65 116h1l53 -30l-68 -121c52.667 -52.667 79 -114 79 -184c0 -64 -21.167 -118.667 -63.5 -164s-93.833 -68 -154.5 -68c-26.667 0 -55.334 6.33301 -86.001 19l-67 -120l-54 30l69 123
c-53.333 46 -80 106 -80 180zM106.001 220c0 -42.667 12.667 -83 38 -121l162 287c-23.333 8.66699 -42.333 13 -57 13c-37.333 0 -70.5 -15 -99.5 -45s-43.5 -74.667 -43.5 -134zM194.001 62c18.667 -7.33301 37 -11 55 -11c38.667 0 72.167 14.333 100.5 43
s42.5 70.334 42.5 125.001c0 49.333 -12.333 91.666 -37 126.999h-1z" />
    <glyph glyph-name="ugrave" unicode="&#xf9;" horiz-adv-x="517" 
d="M147 640h78l133 -130h-61zM80 122l-0.000976562 323h78v-335c0.666992 -23.333 6.16699 -40 16.5 -50s31.5 -15 63.5 -15c34.667 0 62.5 9.16699 83.5 27.5s32.833 39.5 35.5 63.5c0.666992 6.66699 1 16.334 1 29.001v280h78v-445h-76v48
c-45.333 -39.333 -103.666 -59 -174.999 -59c-20 0 -37 3.16699 -51 9.5s-24.5 13.5 -31.5 21.5s-12.333 19.167 -16 33.5s-5.66699 25.666 -6 33.999s-0.5 19.833 -0.5 34.5z" />
    <glyph glyph-name="uacute" unicode="&#xfa;" horiz-adv-x="517" 
d="M144 510l133 130h78l-149 -130h-62zM80 122l-0.000976562 323h78v-335c0.666992 -23.333 6.16699 -40 16.5 -50s31.5 -15 63.5 -15c34.667 0 62.5 9.16699 83.5 27.5s32.833 39.5 35.5 63.5c0.666992 6.66699 1 16.334 1 29.001v280h78v-445h-76v48
c-45.333 -39.333 -103.666 -59 -174.999 -59c-20 0 -37 3.16699 -51 9.5s-24.5 13.5 -31.5 21.5s-12.333 19.167 -16 33.5s-5.66699 25.666 -6 33.999s-0.5 19.833 -0.5 34.5z" />
    <glyph glyph-name="ucircumflex" unicode="&#xfb;" horiz-adv-x="517" 
d="M103 509l125 141h61l125 -141h-61l-95 99l-94 -99h-61zM80 122l-0.000976562 323h78v-335c0.666992 -23.333 6.16699 -40 16.5 -50s31.5 -15 63.5 -15c34.667 0 62.5 9.16699 83.5 27.5s32.833 39.5 35.5 63.5c0.666992 6.66699 1 16.334 1 29.001v280h78v-445h-76v48
c-45.333 -39.333 -103.666 -59 -174.999 -59c-20 0 -37 3.16699 -51 9.5s-24.5 13.5 -31.5 21.5s-12.333 19.167 -16 33.5s-5.66699 25.666 -6 33.999s-0.5 19.833 -0.5 34.5z" />
    <glyph glyph-name="udieresis" unicode="&#xfc;" horiz-adv-x="517" 
d="M311 571v89h90v-89h-90zM116 571v89h90v-89h-90zM80 122l-0.000976562 323h78v-335c0.666992 -23.333 6.16699 -40 16.5 -50s31.5 -15 63.5 -15c34.667 0 62.5 9.16699 83.5 27.5s32.833 39.5 35.5 63.5c0.666992 6.66699 1 16.334 1 29.001v280h78v-445h-76v48
c-45.333 -39.333 -103.666 -59 -174.999 -59c-20 0 -37 3.16699 -51 9.5s-24.5 13.5 -31.5 21.5s-12.333 19.167 -16 33.5s-5.66699 25.666 -6 33.999s-0.5 19.833 -0.5 34.5z" />
    <glyph glyph-name="yacute" unicode="&#xfd;" horiz-adv-x="461" 
d="M171 510l133 130h78l-149 -130h-62zM14 445l79.001 -0.00292969c42.667 -98 74.667 -174.667 96 -230s33.833 -90.166 37.5 -104.499s7.5 -34.5 11.5 -60.5c1.33301 46.667 45.666 178.334 132.999 395.001h75l-217 -535c-19.333 -44.667 -37.333 -75 -54 -91
s-37 -24 -61 -24c-27.333 0 -51.666 2.66699 -72.999 8l-5 65c35.333 -11.333 59.666 -17 72.999 -17c18 0 31.5 6.5 40.5 19.5s22.833 42.167 41.5 87.5l11 27c2.66699 6 4 11.333 4 16s-1.66699 10.334 -5 17.001z" />
    <glyph glyph-name="thorn" unicode="&#xfe;" horiz-adv-x="517" 
d="M81 -195v917h75v-326c48.667 39.333 104 59 166 59c46 0 83.833 -23 113.5 -69s44.5 -100 44.5 -162c0 -68.667 -18.5 -125 -55.5 -169s-80.5 -66 -130.5 -66c-49.333 0 -94.333 19 -135 57v-241h-78zM159 126c0 -14.667 9.5 -31.001 28.5 -49.001s41.833 -27 68.5 -27
c37.333 0 70.833 16 100.5 48s44.5 73.333 44.5 124c0 45.333 -12.667 84.833 -38 118.5s-58 50.5 -98 50.5c-7.33301 0 -14.333 -0.5 -21 -1.5s-12.834 -2.66699 -18.501 -5s-11 -4.66602 -16 -6.99902s-9.66699 -5 -14 -8s-8.16602 -5.83301 -11.499 -8.5
s-6.5 -5.66699 -9.5 -9l-7 -8c-1.66699 -2 -3.5 -4 -5.5 -6l-3 -4v-208z" />
    <glyph glyph-name="ydieresis" unicode="&#xff;" horiz-adv-x="461" 
d="M283 571v89h90v-89h-90zM88 571v89h90v-89h-90zM14 445l79.001 -0.00292969c42.667 -98 74.667 -174.667 96 -230s33.833 -90.166 37.5 -104.499s7.5 -34.5 11.5 -60.5c1.33301 46.667 45.666 178.334 132.999 395.001h75l-217 -535c-19.333 -44.667 -37.333 -75 -54 -91
s-37 -24 -61 -24c-27.333 0 -51.666 2.66699 -72.999 8l-5 65c35.333 -11.333 59.666 -17 72.999 -17c18 0 31.5 6.5 40.5 19.5s22.833 42.167 41.5 87.5l11 27c2.66699 6 4 11.333 4 16s-1.66699 10.334 -5 17.001z" />
    <glyph glyph-name="Amacron" unicode="&#x100;" horiz-adv-x="667" 
d="M138 773v64h388v-64h-388zM27 0l261 694h89l260 -694h-92l-77 204h-290l-76 -204h-75zM199 260h248c-78.667 218 -120 339.333 -124 364c-8.66699 -40.667 -50 -162 -124 -364z" />
    <glyph glyph-name="amacron" unicode="&#x101;" horiz-adv-x="480" 
d="M54 552v64h360v-64h-360zM44 113c0 24.667 9.33398 46.165 28.001 64.498s43.167 32 73.5 41s60 15.667 89 20s58.167 6.5 87.5 6.5v34c-1.33301 42.667 -10 73.334 -26 92.001c-16.667 20 -37.667 30 -63 30c-51.333 0 -101.333 -17 -150 -51l-6 67
c50 29.333 102.333 44 157 44c46 0 84.5 -15.167 115.5 -45.5s47.833 -67.166 50.5 -110.499v-305h-76v35c-2.66699 -2.66699 -8.83398 -7 -18.501 -13s-28.5 -13 -56.5 -21s-58.333 -12 -91 -12c-38 0 -66.5 13.5 -85.5 40.5s-28.5 54.833 -28.5 83.5zM117.001 113.998
c0 -18 8.83203 -33 26.499 -45s39.834 -18 66.501 -18c28.667 0 54.5 6 77.5 18s34.5 32.333 34.5 61v63c-20.667 0 -41.667 -1.33301 -63 -4s-43.333 -6.66699 -66 -12s-41 -13.5 -55 -24.5s-21 -23.833 -21 -38.5z" />
    <glyph glyph-name="Abreve" unicode="&#x102;" horiz-adv-x="667" 
d="M27 0l261 694h89l260 -694h-92l-77 204h-290l-76 -204h-75zM156 889h60.999c2 -30.667 13.833 -54.167 35.5 -70.5s45.834 -24.5 72.501 -24.5s50.834 8.16699 72.501 24.5s33.5 39.833 35.5 70.5h62c-1.33301 -48 -18.833 -87 -52.5 -117s-72.834 -45 -117.501 -45
c-45.333 0 -84.5 15 -117.5 45s-50.167 69 -51.5 117zM198.999 260h248c-78.667 218 -120 339.333 -124 364c-8.66699 -40.667 -50 -162 -124 -364z" />
    <glyph glyph-name="abreve" unicode="&#x103;" horiz-adv-x="480" 
d="M81 639h60.998c1.33301 -15.333 6.33301 -28.333 15 -39s19.334 -18.334 32.001 -23.001s24 -7.83398 34 -9.50098s19.333 -2.5 28 -2.5s17.834 0.833008 27.501 2.5s20.667 4.83398 33 9.50098s22.833 12.334 31.5 23.001s13.667 23.667 15 39h62
c-1.33301 -43.333 -19 -77.666 -53 -102.999s-73 -38 -117 -38s-82.833 12.667 -116.5 38s-51.167 59.666 -52.5 102.999zM43.998 113c0 24.667 9.33398 46.165 28.001 64.498s43.167 32 73.5 41s60 15.667 89 20s58.167 6.5 87.5 6.5v34
c-1.33301 42.667 -10 73.334 -26 92.001c-16.667 20 -37.667 30 -63 30c-51.333 0 -101.333 -17 -150 -51l-6 67c50 29.333 102.333 44 157 44c46 0 84.5 -15.167 115.5 -45.5s47.833 -67.166 50.5 -110.499v-305h-76v35c-2.66699 -2.66699 -8.83398 -7 -18.501 -13
s-28.5 -13 -56.5 -21s-58.333 -12 -91 -12c-38 0 -66.5 13.5 -85.5 40.5s-28.5 54.833 -28.5 83.5zM116.999 113.998c0 -18 8.83203 -33 26.499 -45s39.834 -18 66.501 -18c28.667 0 54.5 6 77.5 18s34.5 32.333 34.5 61v63c-20.667 0 -41.667 -1.33301 -63 -4
s-43.333 -6.66699 -66 -12s-41 -13.5 -55 -24.5s-21 -23.833 -21 -38.5z" />
    <glyph glyph-name="aogonek" unicode="&#x105;" horiz-adv-x="480" 
d="M44 113c0 24.667 9.33594 46.165 28.0029 64.498s43.167 32 73.5 41s60 15.667 89 20s58.167 6.5 87.5 6.5v34c-1.33301 42.667 -10 73.334 -26 92.001c-16.667 20 -37.667 30 -63 30c-23.333 0 -45.5 -3.16699 -66.5 -9.5s-36.167 -12.166 -45.5 -17.499
s-22 -13.333 -38 -24l-6 67c50 29.333 102.333 44 157 44c46 0 84.5 -15.167 115.5 -45.5s47.833 -67.166 50.5 -110.499v-305c-13.333 0 -23.333 -2.33301 -30 -7c-4 -2 -9.66699 -5.66699 -17 -11c-38.667 -26.667 -58 -55.334 -58 -86.001
c0 -11.333 4.16699 -21.333 12.5 -30s22.166 -13 41.499 -13c11.333 0 34 4.66699 68 14l16 -59c-36.667 -16.667 -69.334 -25 -98.001 -25s-51.834 8.16699 -69.501 24.5s-26.5 37.833 -26.5 64.5c0 49.333 28.333 92 85 128v35c-2.66699 -2.66699 -8.83398 -7 -18.501 -13
s-28.5 -13 -56.5 -21s-58.333 -12 -91 -12c-37.333 0 -65.666 13.333 -84.999 40s-29 54.667 -29 84zM117.003 113.998c0 -18 8.83301 -32.999 26.5 -44.999s39.834 -18 66.501 -18c12 0 23.667 1.16699 35 3.5s23.166 6 35.499 11s22.333 13.167 30 24.5
s11.5 24.666 11.5 39.999v63c-20.667 0 -41.667 -1.33301 -63 -4s-43.333 -6.66699 -66 -12s-41 -13.5 -55 -24.5s-21 -23.833 -21 -38.5z" />
    <glyph glyph-name="Cacute" unicode="&#x106;" horiz-adv-x="639" 
d="M66 347c0 54.667 9.49805 105.67 28.498 153.003s43.833 86.333 74.5 117s64.334 54.834 101.001 72.501s73 26.5 109 26.5c26 0 46.5 -0.5 61.5 -1.5s34.5 -4 58.5 -9s50 -12.833 78 -23.5l-15 -83c-30 18 -56.833 31.333 -80.5 40s-53.5 13 -89.5 13
c-66.667 0 -122.667 -29.667 -168 -89s-68 -131.333 -68 -216c0 -85.333 22.833 -157.5 68.5 -216.5s102.5 -88.5 170.5 -88.5c12.667 0 24.667 0.5 36 1.5s21 2 29 3s16.833 3.16699 26.5 6.5s16.834 5.66602 21.501 6.99902s11.5 4.66602 20.5 9.99902l17 10
c2.33301 1.33301 8.5 5.16602 18.5 11.499l18 11.5l6 -70c-36 -21.333 -67 -35.833 -93 -43.5s-59.667 -11.5 -101 -11.5c-95.333 0 -173.833 36.667 -235.5 110s-92.5 159.666 -92.5 258.999zM234.998 760.003c99.333 57.333 151 86.667 155 88c3.33301 1.33301 8 2 14 2
h98l-158 -79l-22 -10l-15 -1h-72z" />
    <glyph glyph-name="cacute" unicode="&#x107;" horiz-adv-x="444" 
d="M149 510l133 130h78l-149 -130h-62zM35 223c0 62 19.998 117.164 59.998 165.497s93.333 72.5 160 72.5c31.333 0 57.333 -3 78 -9s46.334 -17.667 77.001 -35l-12 -66c-32.667 20.667 -57.667 33.334 -75 38.001c-19.333 5.33301 -42.333 8 -69 8
c-45.333 0 -80.166 -17.167 -104.499 -51.5s-36.5 -75.166 -36.5 -122.499c0 -49.333 13 -90 39 -122s59.667 -48 101 -48c52 0 104.333 18 157 54l5 -67c-52.667 -34 -107 -51 -163 -51c-61.333 0 -112.833 22.833 -154.5 68.5s-62.5 100.834 -62.5 165.501z" />
    <glyph glyph-name="Ccircumflex" unicode="&#x108;" horiz-adv-x="639" 
d="M222 727l124 173h76l111 -173h-61l-94 122l-94 -122h-62zM66 347c0 54.667 9.49805 105.67 28.498 153.003s43.833 86.333 74.5 117s64.334 54.834 101.001 72.501s73 26.5 109 26.5c26 0 46.5 -0.5 61.5 -1.5s34.5 -4 58.5 -9s50 -12.833 78 -23.5l-15 -83
c-30 18 -56.833 31.333 -80.5 40s-53.5 13 -89.5 13c-66.667 0 -122.667 -29.667 -168 -89s-68 -131.333 -68 -216c0 -85.333 22.833 -157.5 68.5 -216.5s102.5 -88.5 170.5 -88.5c12.667 0 24.667 0.5 36 1.5s21 2 29 3s16.833 3.16699 26.5 6.5
s16.834 5.66602 21.501 6.99902s11.5 4.66602 20.5 9.99902l17 10c2.33301 1.33301 8.5 5.16602 18.5 11.499l18 11.5l6 -70c-36 -21.333 -67 -35.833 -93 -43.5s-59.667 -11.5 -101 -11.5c-95.333 0 -173.833 36.667 -235.5 110s-92.5 159.666 -92.5 258.999z" />
    <glyph glyph-name="ccircumflex" unicode="&#x109;" horiz-adv-x="444" 
d="M99 509l125 141h61l125 -141h-61l-95 99l-94 -99h-61zM35 223c0 62 19.998 117.164 59.998 165.497s93.333 72.5 160 72.5c31.333 0 57.333 -3 78 -9s46.334 -17.667 77.001 -35l-12 -66c-32.667 20.667 -57.667 33.334 -75 38.001c-19.333 5.33301 -42.333 8 -69 8
c-45.333 0 -80.166 -17.167 -104.499 -51.5s-36.5 -75.166 -36.5 -122.499c0 -49.333 13 -90 39 -122s59.667 -48 101 -48c52 0 104.333 18 157 54l5 -67c-52.667 -34 -107 -51 -163 -51c-61.333 0 -112.833 22.833 -154.5 68.5s-62.5 100.834 -62.5 165.501z" />
    <glyph glyph-name="Cdotaccent" unicode="&#x10a;" horiz-adv-x="639" 
d="M333 766v89h90v-89h-90zM66 347c0 54.667 9.49805 105.67 28.498 153.003s43.833 86.333 74.5 117s64.334 54.834 101.001 72.501s73 26.5 109 26.5c26 0 46.5 -0.5 61.5 -1.5s34.5 -4 58.5 -9s50 -12.833 78 -23.5l-15 -83c-30 18 -56.833 31.333 -80.5 40
s-53.5 13 -89.5 13c-66.667 0 -122.667 -29.667 -168 -89s-68 -131.333 -68 -216c0 -85.333 22.833 -157.5 68.5 -216.5s102.5 -88.5 170.5 -88.5c12.667 0 24.667 0.5 36 1.5s21 2 29 3s16.833 3.16699 26.5 6.5s16.834 5.66602 21.501 6.99902s11.5 4.66602 20.5 9.99902
l17 10c2.33301 1.33301 8.5 5.16602 18.5 11.499l18 11.5l6 -70c-36 -21.333 -67 -35.833 -93 -43.5s-59.667 -11.5 -101 -11.5c-95.333 0 -173.833 36.667 -235.5 110s-92.5 159.666 -92.5 258.999z" />
    <glyph glyph-name="cdotaccent" unicode="&#x10b;" horiz-adv-x="444" 
d="M210 590v89h90v-89h-90zM35 223c0 62 19.998 117.164 59.998 165.497s93.333 72.5 160 72.5c31.333 0 57.333 -3 78 -9s46.334 -17.667 77.001 -35l-12 -66c-32.667 20.667 -57.667 33.334 -75 38.001c-19.333 5.33301 -42.333 8 -69 8
c-45.333 0 -80.166 -17.167 -104.499 -51.5s-36.5 -75.166 -36.5 -122.499c0 -49.333 13 -90 39 -122s59.667 -48 101 -48c52 0 104.333 18 157 54l5 -67c-52.667 -34 -107 -51 -163 -51c-61.333 0 -112.833 22.833 -154.5 68.5s-62.5 100.834 -62.5 165.501z" />
    <glyph glyph-name="Ccaron" unicode="&#x10c;" horiz-adv-x="639" 
d="M66 347c0 54.667 9.49805 105.67 28.498 153.003s43.833 86.333 74.5 117s64.334 54.834 101.001 72.501s73 26.5 109 26.5c26 0 46.5 -0.5 61.5 -1.5s34.5 -4 58.5 -9s50 -12.833 78 -23.5l-15 -83c-30 18 -56.833 31.333 -80.5 40s-53.5 13 -89.5 13
c-66.667 0 -122.667 -29.667 -168 -89s-68 -131.333 -68 -216c0 -85.333 22.833 -157.5 68.5 -216.5s102.5 -88.5 170.5 -88.5c12.667 0 24.667 0.5 36 1.5s21 2 29 3s16.833 3.16699 26.5 6.5s16.834 5.66602 21.501 6.99902s11.5 4.66602 20.5 9.99902l17 10
c2.33301 1.33301 8.5 5.16602 18.5 11.499l18 11.5l6 -70c-36 -21.333 -67 -35.833 -93 -43.5s-59.667 -11.5 -101 -11.5c-95.333 0 -173.833 36.667 -235.5 110s-92.5 159.666 -92.5 258.999zM229.998 889.003h61l97 -111l97 111h61l-122 -162h-72z" />
    <glyph glyph-name="ccaron" unicode="&#x10d;" horiz-adv-x="444" 
d="M87 639h61.9971l100 -68l99 68h35l27 -1c-82 -58.667 -125.333 -89 -130 -91c-3.33301 -1.33301 -7.66602 -2 -12.999 -2h-36c-7.33301 0 -15.166 2.5 -23.499 7.5s-30.166 20.5 -65.499 46.5zM34.9971 223c0 62 19.998 117.164 59.998 165.497s93.333 72.5 160 72.5
c31.333 0 57.333 -3 78 -9s46.334 -17.667 77.001 -35l-12 -66c-32.667 20.667 -57.667 33.334 -75 38.001c-19.333 5.33301 -42.333 8 -69 8c-45.333 0 -80.166 -17.167 -104.499 -51.5s-36.5 -75.166 -36.5 -122.499c0 -49.333 13 -90 39 -122s59.667 -48 101 -48
c52 0 104.333 18 157 54l5 -67c-52.667 -34 -107 -51 -163 -51c-61.333 0 -112.833 22.833 -154.5 68.5s-62.5 100.834 -62.5 165.501z" />
    <glyph glyph-name="Dcaron" unicode="&#x10e;" horiz-adv-x="722" 
d="M127 889h60l98 -111l96 111h63l-123 -162h-72zM95 0l-0.000976562 694.002h246c66.667 0 124 -15.667 172 -47c48.667 -32 86.334 -75.5 113.001 -130.5s40 -113.167 40 -174.5c0 -92.667 -27.333 -170.334 -82 -233.001s-119 -98.334 -193 -107.001
c-10.667 -1.33301 -26.667 -2 -48 -2h-248zM181.999 56.002h143c83.333 0 148.333 30.667 195 92c39.333 51.333 59 115.666 59 192.999c0 84.667 -22.167 155.334 -66.5 212.001s-106.833 85 -187.5 85h-143v-582z" />
    <glyph glyph-name="dcaron" unicode="&#x10f;" horiz-adv-x="633" 
d="M35 221c0 66 17.332 121.667 51.999 167s76.667 68 126 68c50.667 0 99 -18.333 145 -55v321h76v-722h-79v52c-43.333 -42 -92.666 -63 -147.999 -63c-49.333 0 -90.333 23.167 -123 69.5s-49 100.5 -49 162.5zM112.999 222c0 -59.333 13.999 -102.669 41.999 -130.002
s59 -41 93 -41c28 0 52.833 9.5 74.5 28.5s32.5 37.167 32.5 54.5v191c0 12.667 -7 25.667 -21 39c-21.333 20 -46 30 -74 30h-2c-16 0 -31.833 -3 -47.5 -9s-31.167 -15.167 -46.5 -27.5s-27.666 -30.166 -36.999 -53.499s-14 -50.666 -14 -81.999zM488.998 596.997
l26.002 82.999h-26v84h84v-69c-0.666992 -6.66699 -1.83398 -12.667 -3.50098 -18s-3.5 -10.166 -5.5 -14.499s-6.33301 -12.833 -13 -25.5l-20.001 -40h-42z" />
    <glyph glyph-name="Dcroat" unicode="&#x110;" horiz-adv-x="722" 
d="M0 311l-0.000976562 59.002h95v324h246c66.667 0 124 -15.667 172 -47c48.667 -32 86.334 -75.5 113.001 -130.5s40 -113.167 40 -174.5c0 -92.667 -27.167 -170.334 -81.5 -233.001s-118.5 -98.334 -192.5 -107.001c-10.667 -1.33301 -26.667 -2 -48 -2h-249v311h-95z
M181.999 56.002l144 0.00195312c83.333 0 148.333 30.667 195 92c39.333 51.333 59 115.666 59 192.999c0 83.333 -22 153.666 -66 210.999s-107 86 -189 86h-142l-1 -37v-231h179v-59h-179v-255z" />
    <glyph glyph-name="dcroat" unicode="&#x111;" horiz-adv-x="517" 
d="M35 221c0 66 17.332 121.667 51.999 167s76.667 68 126 68c50.667 0 99 -18.333 145 -55v150h-191v59h191v112h76v-112h101v-59h-101v-551h-79v52c-43.333 -42 -92.666 -63 -147.999 -63c-49.333 0 -90.333 23.167 -123 69.5s-49 100.5 -49 162.5zM112.999 222
c0 -59.333 13.999 -102.669 41.999 -130.002s59 -41 93 -41c28 0 52.833 9.5 74.5 28.5s32.5 37.167 32.5 54.5v191c0 12.667 -7 25.667 -21 39c-21.333 20 -46 30 -74 30h-2c-16 0 -31.833 -3 -47.5 -9s-31.167 -15.167 -46.5 -27.5s-27.666 -30.166 -36.999 -53.499
s-14 -50.666 -14 -81.999z" />
    <glyph glyph-name="Emacron" unicode="&#x112;" horiz-adv-x="597" 
d="M130 773v64h388v-64h-388zM94 0v691h447v-66h-57l-25 1h-240l-35 1v-237h330v-61h-330v-259h85l24 1h194l22 1h46v-72h-461z" />
    <glyph glyph-name="emacron" unicode="&#x113;" horiz-adv-x="444" 
d="M56 552v64h360v-64h-360zM34 226c0 66 20.167 121.667 60.5 167s87.5 68 141.5 68c20 0 39 -3.16699 57 -9.5s36.167 -16.833 54.5 -31.5s33.5 -36.667 45.5 -66s19 -64.333 21 -105v-29h-310c2 -50 17.333 -90.667 46 -122s62.667 -47 102 -47
c50.667 0 101.334 18.333 152.001 55l6 -66c-50.667 -34 -103.334 -51 -158.001 -51c-63.333 0 -115.5 23.5 -156.5 70.5s-61.5 102.5 -61.5 166.5zM109 275l247.999 -0.000976562c-4 26 -11.167 48 -21.5 66s-22 30.833 -35 38.5s-24.667 12.834 -35 15.501
s-20.166 4 -29.499 4c-34 0 -62 -13 -84 -39s-36.333 -54.333 -43 -85z" />
    <glyph glyph-name="Ebreve" unicode="&#x114;" horiz-adv-x="597" 
d="M154 889h61.001c2 -30.667 14 -54.167 36 -70.5s46.333 -24.5 73 -24.5c28.667 0 53.334 8.5 74.001 25.5s32 40.167 34 69.5h62c-1.33301 -48 -18.833 -87 -52.5 -117s-72.834 -45 -117.501 -45c-45.333 0 -84.833 15 -118.5 45s-50.834 69 -51.501 117zM94.001 0v691
h447v-66h-57l-25 1h-240l-35 1v-237h330v-61h-330v-259h85l24 1h194l22 1h46v-72h-461z" />
    <glyph glyph-name="ebreve" unicode="&#x115;" horiz-adv-x="444" 
d="M66 639h60.998c1.33301 -15.333 6.33301 -28.333 15 -39s19.334 -18.334 32.001 -23.001s24 -7.83398 34 -9.50098s19.333 -2.5 28 -2.5s17.834 0.833008 27.501 2.5s20.667 4.83398 33 9.50098s22.833 12.334 31.5 23.001s13.667 23.667 15 39h62
c-1.33301 -43.333 -19 -77.666 -53 -102.999s-73 -38 -117 -38s-82.833 12.667 -116.5 38s-51.167 59.666 -52.5 102.999zM33.998 226c0 66 20.167 121.667 60.5 167s87.5 68 141.5 68c20 0 39 -3.16699 57 -9.5s36.167 -16.833 54.5 -31.5s33.5 -36.667 45.5 -66
s19 -64.333 21 -105v-29h-310c2 -50 17.333 -90.667 46 -122s62.667 -47 102 -47c50.667 0 101.334 18.333 152.001 55l6 -66c-50.667 -34 -103.334 -51 -158.001 -51c-63.333 0 -115.5 23.5 -156.5 70.5s-61.5 102.5 -61.5 166.5zM108.998 275l247.999 -0.000976562
c-4 26 -11.167 48 -21.5 66s-22 30.833 -35 38.5s-24.667 12.834 -35 15.501s-20.166 4 -29.499 4c-34 0 -62 -13 -84 -39s-36.333 -54.333 -43 -85z" />
    <glyph glyph-name="Edotaccent" unicode="&#x116;" horiz-adv-x="597" 
d="M279 766v89h90v-89h-90zM94 0v691h447v-66h-57l-25 1h-240l-35 1v-237h330v-61h-330v-259h85l24 1h194l22 1h46v-72h-461z" />
    <glyph glyph-name="edotaccent" unicode="&#x117;" horiz-adv-x="444" 
d="M191 590v89h90v-89h-90zM34 226c0 66 20.167 121.667 60.5 167s87.5 68 141.5 68c20 0 39 -3.16699 57 -9.5s36.167 -16.833 54.5 -31.5s33.5 -36.667 45.5 -66s19 -64.333 21 -105v-29h-310c2 -50 17.333 -90.667 46 -122s62.667 -47 102 -47
c50.667 0 101.334 18.333 152.001 55l6 -66c-50.667 -34 -103.334 -51 -158.001 -51c-63.333 0 -115.5 23.5 -156.5 70.5s-61.5 102.5 -61.5 166.5zM109 275l247.999 -0.000976562c-4 26 -11.167 48 -21.5 66s-22 30.833 -35 38.5s-24.667 12.834 -35 15.501
s-20.166 4 -29.499 4c-34 0 -62 -13 -84 -39s-36.333 -54.333 -43 -85z" />
    <glyph glyph-name="Eogonek" unicode="&#x118;" horiz-adv-x="597" 
d="M94 0v691h447v-66h-57l-25 1h-240l-35 1v-237h330v-61h-330v-259h85l24 1h194l22 1h46v-72h-40c-13.333 0 -22.166 -0.833008 -26.499 -2.5s-13.5 -7.16699 -27.5 -16.5c-14.667 -10 -28.334 -23 -41.001 -39s-19 -32 -19 -48c0 -27.333 17 -41 51 -41
c15.333 0 38 4.66699 68 14l15 -59c-36 -16.667 -68.333 -25 -97 -25s-52 8.16699 -70 24.5s-27 37.833 -27 64.5c0 48 28.333 90.667 85 128h-332z" />
    <glyph glyph-name="eogonek" unicode="&#x119;" horiz-adv-x="444" 
d="M34 226c0 63.333 19.4971 118.334 58.4971 165.001s86.833 70 143.5 70c20 0 39.333 -3.33301 58 -10s37.667 -18.167 57 -34.5s34.666 -41.333 45.999 -75s17 -74.167 17 -121.5h-310c2 -50.667 17.5 -91.667 46.5 -123s62.833 -47 101.5 -47
c49.333 0 100 18.667 152 56l6 -66c-2.66699 -1.33301 -16 -8.83301 -40 -22.5s-42.667 -25.167 -56 -34.5s-26.833 -22.333 -40.5 -39s-20.5 -33.334 -20.5 -50.001c0 -14 4.83301 -24.333 14.5 -31s21.834 -10 36.501 -10c14 0 37.333 4.66699 70 14l15 -59
c-36 -16.667 -68.333 -25 -97 -25s-52 8.16699 -70 24.5s-27 37.833 -27 64.5c0 41.333 23 80.666 69 117.999c-1.33301 0 -3.66602 -0.166992 -6.99902 -0.5s-5.66602 -0.5 -6.99902 -0.5c-59.333 0 -110.166 22.833 -152.499 68.5s-63.5 101.834 -63.5 168.501z
M108.997 275.001l247.999 -0.000976562c-4 26 -11.167 48 -21.5 66s-22 30.833 -35 38.5s-24.667 12.834 -35 15.501s-20.166 4 -29.499 4c-34 0 -62 -13 -84 -39s-36.333 -54.333 -43 -85z" />
    <glyph glyph-name="Ecaron" unicode="&#x11a;" horiz-adv-x="597" 
d="M140 889h60l98 -111l96 111h63l-123 -162h-72zM94 0v691h447v-66h-57l-25 1h-240l-35 1v-237h330v-61h-330v-259h85l24 1h194l22 1h46v-72h-461z" />
    <glyph glyph-name="ecaron" unicode="&#x11b;" horiz-adv-x="444" 
d="M74 639h61.9971l100 -68l99 68h35l27 -1c-82 -58.667 -125.333 -89 -130 -91c-3.33301 -1.33301 -7.66602 -2 -12.999 -2h-36c-7.33301 0 -15.166 2.5 -23.499 7.5s-30.166 20.5 -65.499 46.5zM33.9971 226c0 66 20.167 121.667 60.5 167s87.5 68 141.5 68
c20 0 39 -3.16699 57 -9.5s36.167 -16.833 54.5 -31.5s33.5 -36.667 45.5 -66s19 -64.333 21 -105v-29h-310c2 -50 17.333 -90.667 46 -122s62.667 -47 102 -47c50.667 0 101.334 18.333 152.001 55l6 -66c-50.667 -34 -103.334 -51 -158.001 -51
c-63.333 0 -115.5 23.5 -156.5 70.5s-61.5 102.5 -61.5 166.5zM108.997 275l247.999 -0.000976562c-4 26 -11.167 48 -21.5 66s-22 30.833 -35 38.5s-24.667 12.834 -35 15.501s-20.166 4 -29.499 4c-34 0 -62 -13 -84 -39s-36.333 -54.333 -43 -85z" />
    <glyph glyph-name="Gcircumflex" unicode="&#x11c;" horiz-adv-x="667" 
d="M235 727l124 173h76l111 -173h-61l-94 122l-94 -122h-62zM66 347c0 102.667 31.501 189.831 94.501 261.498s139.833 107.5 230.5 107.5c69.333 0 136 -16 200 -48l-15 -83c-19.333 14.667 -35.333 25.834 -48 33.501s-31.167 15.167 -55.5 22.5s-50.833 11 -79.5 11
c-68.667 0 -125.334 -30.167 -170.001 -90.5s-67 -131.5 -67 -213.5c0 -85.333 22.833 -157.666 68.5 -216.999s101.5 -89 167.5 -89c34.667 0 77.667 7 129 21v174h-133v62h211v-273c-66.667 -32 -136 -48 -208 -48c-91.333 0 -168.333 36 -231 108s-94 159 -94 261z" />
    <glyph glyph-name="gcircumflex" unicode="&#x11d;" 
d="M65 509l125 141h61l125 -141h-61l-95 99l-94 -99h-61zM27 -71c0 43.333 21.334 77.667 64.001 103c-16.667 24 -25 49.333 -25 76c0 30 9.66699 58 29 84v1c-22 28.667 -33 61.667 -33 99c0 47.333 15.833 86.333 47.5 117s68.834 46 111.501 46c34 0 66.667 -11 98 -33
l-2 2c49.333 20.667 101.666 31 156.999 31l11 -63c-20 2 -39.667 3 -59 3c-2 0 -27 -1.33301 -75 -4l-9 8c26 -35.333 39 -71 39 -107c0 -43.333 -15.333 -81.333 -46 -114s-68.667 -49 -114 -49c-29.333 0 -59.666 10 -90.999 30c-7.33301 -14.667 -11 -27 -11 -37
c0 -13.333 4 -25.5 12 -36.5s22.667 -16.5 44 -16.5h75c23.333 0 43.166 -0.833008 59.499 -2.5s36.666 -5.33398 60.999 -11.001s44.666 -16 60.999 -31s27.833 -34.167 34.5 -57.5c3.33301 -13.333 5 -25.666 5 -36.999c0 -38.667 -21.667 -71 -65 -97
s-95.666 -39 -156.999 -39c-62 0 -114.5 13 -157.5 39s-64.5 58 -64.5 96zM97.001 -70.999c0 -17.333 8.99902 -32.167 26.999 -44.5s38 -21 60 -26s43.333 -7.5 64 -7.5c42 0 78 7.16699 108 21.5s45 32.833 45 55.5c0 46 -49.667 69 -149 69h-63l-29 -1
c-19.333 -2 -34.666 -9.66699 -45.999 -23s-17 -28 -17 -44zM132 292c0 -32 8.16699 -57.5 24.5 -76.5s38.166 -28.5 65.499 -28.5c22.667 0 43.167 8.16699 61.5 24.5s27.5 43.5 27.5 81.5c0 32 -8.16699 57.5 -24.5 76.5s-38.166 28.5 -65.499 28.5
c-22.667 0 -43.167 -8.16699 -61.5 -24.5s-27.5 -43.5 -27.5 -81.5z" />
    <glyph glyph-name="Gbreve" unicode="&#x11e;" horiz-adv-x="667" 
d="M66 347c0 102.667 31.501 189.831 94.501 261.498s139.833 107.5 230.5 107.5c69.333 0 136 -16 200 -48l-15 -83c-19.333 14.667 -35.333 25.834 -48 33.501s-31.167 15.167 -55.5 22.5s-50.833 11 -79.5 11c-68.667 0 -125.334 -30.167 -170.001 -90.5
s-67 -131.5 -67 -213.5c0 -85.333 22.833 -157.666 68.5 -216.999s101.5 -89 167.5 -89c34.667 0 77.667 7 129 21v174h-133v62h211v-273c-66.667 -32 -136 -48 -208 -48c-91.333 0 -168.333 36 -231 108s-94 159 -94 261zM219.001 888.997l60.999 0.000976562
c2 -30.667 13.833 -54.167 35.5 -70.5s45.834 -24.5 72.501 -24.5s50.834 8.16699 72.501 24.5s33.5 39.833 35.5 70.5h62c-1.33301 -48.667 -18.833 -87.834 -52.5 -117.501s-72.834 -44.5 -117.501 -44.5c-45.333 0 -84.5 15 -117.5 45s-50.167 69 -51.5 117z" />
    <glyph glyph-name="gbreve" unicode="&#x11f;" 
d="M80 639h60.998c1.33301 -15.333 6.33301 -28.333 15 -39s19.334 -18.334 32.001 -23.001s24 -7.83398 34 -9.50098s19.333 -2.5 28 -2.5s17.834 0.833008 27.501 2.5s20.667 4.83398 33 9.50098s22.833 12.334 31.5 23.001s13.667 23.667 15 39h62
c-1.33301 -43.333 -19 -77.666 -53 -102.999s-73 -38 -117 -38s-82.833 12.667 -116.5 38s-51.167 59.666 -52.5 102.999zM26.998 -71c0 43.333 21.334 77.667 64.001 103c-16.667 24 -25 49.333 -25 76c0 30 9.66699 58 29 84v1c-22 28.667 -33 61.667 -33 99
c0 47.333 15.833 86.333 47.5 117s68.834 46 111.501 46c34 0 66.667 -11 98 -33l-2 2c49.333 20.667 101.666 31 156.999 31l11 -63c-20 2 -39.667 3 -59 3c-2 0 -27 -1.33301 -75 -4l-9 8c26 -35.333 39 -71 39 -107c0 -43.333 -15.333 -81.333 -46 -114
s-68.667 -49 -114 -49c-29.333 0 -59.666 10 -90.999 30c-7.33301 -14.667 -11 -27 -11 -37c0 -13.333 4 -25.5 12 -36.5s22.667 -16.5 44 -16.5h75c23.333 0 43.166 -0.833008 59.499 -2.5s36.666 -5.33398 60.999 -11.001s44.666 -16 60.999 -31
s27.833 -34.167 34.5 -57.5c3.33301 -13.333 5 -25.666 5 -36.999c0 -38.667 -21.667 -71 -65 -97s-95.666 -39 -156.999 -39c-62 0 -114.5 13 -157.5 39s-64.5 58 -64.5 96zM96.999 -70.999c0 -17.333 8.99902 -32.167 26.999 -44.5s38 -21 60 -26s43.333 -7.5 64 -7.5
c42 0 78 7.16699 108 21.5s45 32.833 45 55.5c0 46 -49.667 69 -149 69h-63l-29 -1c-19.333 -2 -34.666 -9.66699 -45.999 -23s-17 -28 -17 -44zM131.998 292c0 -32 8.16699 -57.5 24.5 -76.5s38.166 -28.5 65.499 -28.5c22.667 0 43.167 8.16699 61.5 24.5
s27.5 43.5 27.5 81.5c0 32 -8.16699 57.5 -24.5 76.5s-38.166 28.5 -65.499 28.5c-22.667 0 -43.167 -8.16699 -61.5 -24.5s-27.5 -43.5 -27.5 -81.5z" />
    <glyph glyph-name="Gdotaccent" unicode="&#x120;" horiz-adv-x="667" 
d="M346 766v89h90v-89h-90zM66 347c0 102.667 31.501 189.831 94.501 261.498s139.833 107.5 230.5 107.5c69.333 0 136 -16 200 -48l-15 -83c-19.333 14.667 -35.333 25.834 -48 33.501s-31.167 15.167 -55.5 22.5s-50.833 11 -79.5 11
c-68.667 0 -125.334 -30.167 -170.001 -90.5s-67 -131.5 -67 -213.5c0 -85.333 22.833 -157.666 68.5 -216.999s101.5 -89 167.5 -89c34.667 0 77.667 7 129 21v174h-133v62h211v-273c-66.667 -32 -136 -48 -208 -48c-91.333 0 -168.333 36 -231 108s-94 159 -94 261z" />
    <glyph glyph-name="gdotaccent" unicode="&#x121;" 
d="M176 590v89h90v-89h-90zM27 -71c0 43.333 21.334 77.667 64.001 103c-16.667 24 -25 49.333 -25 76c0 30 9.66699 58 29 84v1c-22 28.667 -33 61.667 -33 99c0 47.333 15.833 86.333 47.5 117s68.834 46 111.501 46c34 0 66.667 -11 98 -33l-2 2
c49.333 20.667 101.666 31 156.999 31l11 -63c-20 2 -39.667 3 -59 3c-2 0 -27 -1.33301 -75 -4l-9 8c26 -35.333 39 -71 39 -107c0 -43.333 -15.333 -81.333 -46 -114s-68.667 -49 -114 -49c-29.333 0 -59.666 10 -90.999 30c-7.33301 -14.667 -11 -27 -11 -37
c0 -13.333 4 -25.5 12 -36.5s22.667 -16.5 44 -16.5h75c23.333 0 43.166 -0.833008 59.499 -2.5s36.666 -5.33398 60.999 -11.001s44.666 -16 60.999 -31s27.833 -34.167 34.5 -57.5c3.33301 -13.333 5 -25.666 5 -36.999c0 -38.667 -21.667 -71 -65 -97
s-95.666 -39 -156.999 -39c-62 0 -114.5 13 -157.5 39s-64.5 58 -64.5 96zM97.001 -70.999c0 -17.333 8.99902 -32.167 26.999 -44.5s38 -21 60 -26s43.333 -7.5 64 -7.5c42 0 78 7.16699 108 21.5s45 32.833 45 55.5c0 46 -49.667 69 -149 69h-63l-29 -1
c-19.333 -2 -34.666 -9.66699 -45.999 -23s-17 -28 -17 -44zM132 292c0 -32 8.16699 -57.5 24.5 -76.5s38.166 -28.5 65.499 -28.5c22.667 0 43.167 8.16699 61.5 24.5s27.5 43.5 27.5 81.5c0 32 -8.16699 57.5 -24.5 76.5s-38.166 28.5 -65.499 28.5
c-22.667 0 -43.167 -8.16699 -61.5 -24.5s-27.5 -43.5 -27.5 -81.5z" />
    <glyph glyph-name="Hcircumflex" unicode="&#x124;" horiz-adv-x="708" 
d="M198 727l124 173h76l111 -173h-61l-94 122l-94 -122h-62zM94 0v694h90v-302h340v302h90v-694h-90v330h-340v-330h-90z" />
    <glyph glyph-name="hcircumflex" unicode="&#x125;" horiz-adv-x="517" 
d="M102 770l125 141h61l125 -141h-61l-95 99l-94 -99h-61zM80 0l-0.000976562 722.001h75v-338c40 47.333 88 71 144 71c25.333 0 47 -4 65 -12s31.5 -17.5 40.5 -28.5s16 -25 21 -42s8 -31.333 9 -43s1.5 -25.5 1.5 -41.5v-288h-78v281c0 11.333 -0.166992 20.333 -0.5 27
s-2.33301 16.167 -6 28.5s-8.66699 22.166 -15 29.499s-16 13.833 -29 19.5s-28.833 8.5 -47.5 8.5c-35.333 0 -61.166 -15 -77.499 -45s-24.5 -66.333 -24.5 -109v-240h-78z" />
    <glyph glyph-name="uni0127" unicode="&#x127;" horiz-adv-x="564" 
d="M16 511l0.00195312 59.0029h111v125h75v-125h142v-59h-142v-127c40 47.333 88 71 144 71c25.333 0 47.166 -4.33301 65.499 -13s32 -18.334 41 -29.001s16 -24.834 21 -42.501s7.83301 -31.834 8.5 -42.501s1 -24 1 -40v-288h-78v281c0 11.333 -0.166992 20.5 -0.5 27.5
s-2.33301 16.5 -6 28.5s-8.66699 21.667 -15 29s-16 13.833 -29 19.5s-28.833 8.5 -47.5 8.5c-34.667 0 -60.334 -14.667 -77.001 -44s-25 -66 -25 -110v-240h-78v511h-111z" />
    <glyph glyph-name="Itilde" unicode="&#x128;" horiz-adv-x="278" 
d="M-27 805c1.33301 37.333 12 65.833 32 85.5s42 29.5 66 29.5c18 0 41.333 -8.83301 70 -26.5s50 -26.5 64 -26.5c24.667 0 38 17.667 40 53h61c-1.33301 -37.333 -12 -65.666 -32 -84.999s-42 -29 -66 -29c-18.667 0 -42 8.83301 -70 26.5s-49 26.5 -63 26.5
c-12 0 -21.5 -4.83301 -28.5 -14.5s-11.167 -22.834 -12.5 -39.501h-61zM95 0v694h90v-694h-90z" />
    <glyph glyph-name="itilde" unicode="&#x129;" horiz-adv-x="239" 
d="M-47 555c1.33301 36.667 12 65 32 85s42 30 66 30c18 0 41.333 -8.83301 70 -26.5s50 -26.5 64 -26.5c24.667 0 38 17.667 40 53h61c-1.33301 -37.333 -12 -65.666 -32 -84.999s-42 -29 -66 -29c-18.667 0 -42 8.83301 -70 26.5s-49 26.5 -63 26.5
c-12 0 -21.5 -4.83301 -28.5 -14.5s-11.167 -22.834 -12.5 -39.501h-61zM82 0v445h75v-445h-75z" />
    <glyph glyph-name="Imacron" unicode="&#x12a;" horiz-adv-x="278" 
d="M-41 766v64h360v-64h-360zM94 0v694h90v-694h-90z" />
    <glyph glyph-name="Ibreve" unicode="&#x12c;" horiz-adv-x="278" 
d="M-31 889h61.001c2 -30.667 14 -54.167 36 -70.5s46.333 -24.5 73 -24.5c28.667 0 53.334 8.5 74.001 25.5s32 40.167 34 69.5h62c-1.33301 -48 -18.833 -87 -52.5 -117s-72.834 -45 -117.501 -45c-45.333 0 -84.833 15 -118.5 45s-50.834 69 -51.501 117zM94.001 0v694
h90v-694h-90z" />
    <glyph glyph-name="Idotaccent" unicode="&#x130;" horiz-adv-x="278" 
d="M94 0v694h90v-694h-90zM94 778v89h90v-89h-90z" />
    <glyph glyph-name="dotlessi" unicode="&#x131;" horiz-adv-x="239" 
d="M81 0v445h75v-445h-75z" />
    <glyph glyph-name="Jcircumflex" unicode="&#x134;" horiz-adv-x="472" 
d="M188 727l124 173h76l111 -173h-61l-94 122l-94 -122h-62zM41 20l13 74.998c12 -10.667 20.833 -18.334 26.5 -23.001s18.667 -11.167 39 -19.5s41.5 -12.5 63.5 -12.5c33.333 0 61.333 8.83301 84 26.5s34 47.834 34 90.501v537h87v-539
c0 -34 -5.16699 -63.167 -15.5 -87.5s-24.5 -42.666 -42.5 -54.999s-36.667 -21.166 -56 -26.499s-40 -8 -62 -8c-58.667 0 -115.667 14 -171 42z" />
    <glyph glyph-name="Lacute" unicode="&#x139;" horiz-adv-x="542" 
d="M9 760c99.333 57.333 151 86.667 155 88c3.33301 1.33301 8 2 14 2h99l-158 -79l-22 -10l-15 -1h-73zM94 0.000976562v694h90v-629h195l120 1v-66h-405z" />
    <glyph glyph-name="lacute" unicode="&#x13a;" horiz-adv-x="239" 
d="M34 760c99.333 57.333 151 86.667 155 88c3.33301 1.33301 8 2 14 2h99l-158 -79l-22 -10l-15 -1h-73zM81 0.000976562v722h75v-722h-75z" />
    <glyph glyph-name="Lcaron" unicode="&#x13d;" horiz-adv-x="542" 
d="M94 0v694h90v-629h195l120 1v-66h-405zM334 611l26.001 82.999h-26v84h84v-69c-0.666992 -6.66699 -1.83398 -12.667 -3.50098 -18s-3.5 -10.166 -5.5 -14.499s-6.33301 -12.833 -13 -25.5l-20 -40h-42z" />
    <glyph glyph-name="lcaron" unicode="&#x13e;" horiz-adv-x="355" 
d="M81 0v722h75v-722h-75zM212 597l25.001 82.999h-25v84h84v-69c-0.666992 -6.66699 -1.83398 -12.667 -3.50098 -18s-3.5 -10.166 -5.5 -14.499s-6.33301 -12.833 -13 -25.5l-20 -40h-42z" />
    <glyph glyph-name="Lslash" unicode="&#x141;" horiz-adv-x="625" 
d="M77 278l100 85v331h90v-254l126 107l40 -47l-166 -141v-294h195l120 1v-66h-405v282l-60 -51z" />
    <glyph glyph-name="lslash" unicode="&#x142;" horiz-adv-x="324" 
d="M27 286l95 81v355h76v-291l71 61l38 -45l-109 -92v-355h-76v290l-57 -49z" />
    <glyph glyph-name="Nacute" unicode="&#x143;" horiz-adv-x="708" 
d="M95 0v694h125l274 -544l39 -80v624h78v-694h-125l-274 544l-39 80v-624h-78zM227 760l77.999 44.999c38.667 22.667 61.834 35.834 69.501 39.501s15.167 5.5 22.5 5.5h98l-158 -79l-22 -10l-15 -1h-73z" />
    <glyph glyph-name="nacute" unicode="&#x144;" horiz-adv-x="517" 
d="M172 510l133 130h78l-149 -130h-62zM80 0l-0.00292969 450.001h73v-70c38.667 50 87.334 75 146.001 75c24.667 0 45.834 -3.66699 63.501 -11s31.167 -16.333 40.5 -27s16.5 -24.167 21.5 -40.5s8.16699 -30.833 9.5 -43.5s2 -27.667 2 -45v-288h-78v281
c0 11.333 -0.166992 20.333 -0.5 27s-2.33301 16.167 -6 28.5s-8.66699 22.166 -15 29.499s-16 13.833 -29 19.5s-28.833 8.5 -47.5 8.5c-35.333 0 -61.166 -15 -77.499 -45s-24.5 -66.333 -24.5 -109v-240h-78z" />
    <glyph glyph-name="Ncaron" unicode="&#x147;" horiz-adv-x="708" 
d="M95 0v694h125l274 -544l39 -80v624h78v-694h-125l-274 544l-39 80v-624h-78zM195 889h61l97 -111l97 111h61l-122 -162h-72z" />
    <glyph glyph-name="ncaron" unicode="&#x148;" horiz-adv-x="517" 
d="M65 639h61.9971l100 -68l99 68h35l27 -1c-82 -58.667 -125.333 -89 -130 -91c-3.33301 -1.33301 -7.66602 -2 -12.999 -2h-36c-7.33301 0 -15.166 2.5 -23.499 7.5s-30.166 20.5 -65.499 46.5zM78.9971 0l-0.00292969 450.001h73v-70c40.667 50 89.334 75 146.001 75
c24.667 0 45.834 -3.66699 63.501 -11s31.167 -16.333 40.5 -27s16.5 -24.167 21.5 -40.5s8.16699 -30.833 9.5 -43.5s2 -27.667 2 -45v-288h-78v281c0 11.333 -0.166992 20.333 -0.5 27s-2.33301 16.167 -6 28.5s-8.66699 22.166 -15 29.499s-16 13.833 -29 19.5
s-28.833 8.5 -47.5 8.5c-35.333 0 -61.166 -15 -77.499 -45s-24.5 -66.333 -24.5 -109v-240h-78z" />
    <glyph glyph-name="Eng" unicode="&#x14a;" horiz-adv-x="750" 
d="M94 0l-0.000976562 694.001h90v-27c61.333 58.667 132.333 88 213 88c78.667 0 147.834 -27.333 207.501 -82s89.5 -128.667 89.5 -222v-302c0 -20.667 -2.33301 -40.334 -7 -59.001s-12.167 -36.834 -22.5 -54.501s-25.666 -31.667 -45.999 -42s-44.5 -15.5 -72.5 -15.5
c-48 0 -95.667 14 -143 42l13 75c2 -3.33301 5.83301 -8.5 11.5 -15.5s17 -15.333 34 -25s35.167 -14.5 54.5 -14.5c42.667 0 70.334 21 83.001 63c3.33301 10.667 5 30 5 58v288c0 38 -5 69 -15 93c-14.667 36.667 -39.334 68.334 -74.001 95.001s-76 40 -124 40
c-56.667 0 -105.334 -19.333 -146.001 -58s-61 -81.667 -61 -129v-490h-90z" />
    <glyph glyph-name="eng" unicode="&#x14b;" horiz-adv-x="517" 
d="M80 0l-0.00292969 450.002h73v-70c38.667 50 87.334 75 146.001 75c25.333 0 47 -4 65 -12s31.5 -17.333 40.5 -28s16 -24.667 21 -42s8 -31.833 9 -43.5s1.5 -25.5 1.5 -41.5v-288h-1c-0.666992 -56 -12.667 -104.167 -36 -144.5s-54 -60.5 -92 -60.5
c-40 0 -79.333 11.333 -118 34l27 61c22 -20.667 44.667 -31 68 -31c18.667 0 35.834 8.66699 51.501 26s23.5 46.666 23.5 87.999v27h-1v281c0 11.333 -0.166992 20.333 -0.5 27s-2.33301 16.167 -6 28.5s-8.66699 22.166 -15 29.499s-16 13.833 -29 19.5
s-28.833 8.5 -47.5 8.5c-35.333 0 -61.166 -15 -77.499 -45s-24.5 -66.333 -24.5 -109v-240h-78z" />
    <glyph glyph-name="Omacron" unicode="&#x14c;" horiz-adv-x="736" 
d="M174 773v64h388v-64h-388zM55 345c0 103.333 30.832 191 92.499 263s135.167 108 220.5 108c84 0 156.833 -36 218.5 -108s92.5 -159.667 92.5 -263c0 -104.667 -31.167 -192 -93.5 -262s-135.166 -105 -218.499 -105c-84 0 -157 35.167 -219 105.5s-93 157.5 -93 261.5z
M144.999 359c0 -87.333 20.668 -161.833 62.001 -223.5s94.666 -92.5 159.999 -92.5c63.333 0 116.333 30.5 159 91.5s64 135.833 64 224.5c0 87.333 -22 158 -66 212s-96.333 81 -157 81c-60 0 -112 -27 -156 -81s-66 -124.667 -66 -212z" />
    <glyph glyph-name="omacron" unicode="&#x14d;" 
d="M69 552v64h360v-64h-360zM30 221c0 67.333 21.501 124.167 64.501 170.5s94.5 69.5 154.5 69.5c62.667 0 115 -24.167 157 -72.5s63 -104.5 63 -168.5c0 -66 -22 -121 -66 -165s-95.333 -66 -154 -66s-109.834 22.167 -153.501 66.5s-65.5 99.5 -65.5 165.5z
M108.001 231.001c0 -58.667 14.1689 -103 42.502 -133s61.166 -45 98.499 -45s70.166 15.167 98.499 45.5s42.5 74.5 42.5 132.5c0 56 -14.167 98 -42.5 126s-61.166 42 -98.499 42c-36.667 0 -69.334 -14 -98.001 -42s-43 -70 -43 -126z" />
    <glyph glyph-name="Obreve" unicode="&#x14e;" horiz-adv-x="736" 
d="M198 889h61.001c2 -30.667 14 -54.167 36 -70.5s46.333 -24.5 73 -24.5c28.667 0 53.334 8.5 74.001 25.5s32 40.167 34 69.5h62c-1.33301 -48 -18.833 -87 -52.5 -117s-72.834 -45 -117.501 -45c-45.333 0 -84.833 15 -118.5 45s-50.834 69 -51.501 117zM55.001 345
c0 103.333 30.832 191 92.499 263s135.167 108 220.5 108c84 0 156.833 -36 218.5 -108s92.5 -159.667 92.5 -263c0 -104.667 -31.167 -192 -93.5 -262s-135.166 -105 -218.499 -105c-84 0 -157 35.167 -219 105.5s-93 157.5 -93 261.5zM145 359
c0 -87.333 20.668 -161.833 62.001 -223.5s94.666 -92.5 159.999 -92.5c63.333 0 116.333 30.5 159 91.5s64 135.833 64 224.5c0 87.333 -22 158 -66 212s-96.333 81 -157 81c-60 0 -112 -27 -156 -81s-66 -124.667 -66 -212z" />
    <glyph glyph-name="obreve" unicode="&#x14f;" 
d="M79 639h60.998c1.33301 -15.333 6.33301 -28.333 15 -39s19.334 -18.334 32.001 -23.001s24 -7.83398 34 -9.50098s19.333 -2.5 28 -2.5s17.834 0.833008 27.501 2.5s20.667 4.83398 33 9.50098s22.833 12.334 31.5 23.001s13.667 23.667 15 39h62
c-1.33301 -43.333 -19 -77.666 -53 -102.999s-73 -38 -117 -38s-82.833 12.667 -116.5 38s-51.167 59.666 -52.5 102.999zM29.998 221c0 67.333 21.501 124.167 64.501 170.5s94.5 69.5 154.5 69.5c62.667 0 115 -24.167 157 -72.5s63 -104.5 63 -168.5
c0 -66 -22 -121 -66 -165s-95.333 -66 -154 -66s-109.834 22.167 -153.501 66.5s-65.5 99.5 -65.5 165.5zM107.999 231.001c0 -58.667 14.1689 -103 42.502 -133s61.166 -45 98.499 -45s70.166 15.167 98.499 45.5s42.5 74.5 42.5 132.5c0 56 -14.167 98 -42.5 126
s-61.166 42 -98.499 42c-36.667 0 -69.334 -14 -98.001 -42s-43 -70 -43 -126z" />
    <glyph glyph-name="Ohungarumlaut" unicode="&#x150;" horiz-adv-x="736" 
d="M55 345c0 103.333 30.832 191 92.499 263s135.167 108 220.5 108c84 0 156.833 -36 218.5 -108s92.5 -159.667 92.5 -263c0 -104.667 -31.167 -192 -93.5 -262s-135.166 -105 -218.499 -105c-84 0 -157 35.167 -219 105.5s-93 157.5 -93 261.5zM144.999 359
c0 -87.333 20.668 -161.833 62.001 -223.5s94.666 -92.5 159.999 -92.5c63.333 0 116.333 30.5 159 91.5s64 135.833 64 224.5c0 87.333 -22 158 -66 212s-96.333 81 -157 81c-60 0 -112 -27 -156 -81s-66 -124.667 -66 -212zM200 760c99.333 57.333 151 86.667 155 88
c3.33301 1.33301 8 2 14 2h99l-158 -79l-23 -10l-14 -1h-73zM366 760.001l41.999 24l34 20l25.5 15.5c8.33301 5 15 8.83301 20 11.5l14.5 8c4.66699 2.66699 8.33398 4.66699 11.001 6s5.16699 2.5 7.5 3.5s4.33301 1.66699 6 2s3.16699 0.5 4.5 0.5h5h68l30 -1l-158 -79
l-22 -10l-15 -1h-73z" />
    <glyph glyph-name="ohungarumlaut" unicode="&#x151;" 
d="M108 510l133 130h78l-149 -130h-62zM274 510l133 130h78l-149 -130h-62zM30 221c0 67.333 21.501 124.167 64.501 170.5s94.5 69.5 154.5 69.5c62.667 0 115 -24.167 157 -72.5s63 -104.5 63 -168.5c0 -66 -22 -121 -66 -165s-95.333 -66 -154 -66
s-109.834 22.167 -153.501 66.5s-65.5 99.5 -65.5 165.5zM108.001 231.001c0 -58.667 14.1689 -103 42.502 -133s61.166 -45 98.499 -45s70.166 15.167 98.499 45.5s42.5 74.5 42.5 132.5c0 56 -14.167 98 -42.5 126s-61.166 42 -98.499 42
c-36.667 0 -69.334 -14 -98.001 -42s-43 -70 -43 -126z" />
    <glyph glyph-name="OE" unicode="&#x152;" horiz-adv-x="972" 
d="M27 345c0 104.667 33 192.667 99 264s143.667 107 233 107c18.667 0 45 -3.66699 79 -11s63.667 -11 89 -11h388v-66h-57l-24 1h-239l-37 1v-238h329v-62h-329v-260h86l24 1h193l22 1h46v-72h-424c-14.667 -0.666992 -38 -4.5 -70 -11.5s-58 -10.5 -78 -10.5
c-56.667 0 -110 15.5 -160 46.5s-90.833 75 -122.5 132s-47.5 119.833 -47.5 188.5zM114 358c0 -86 23.834 -160.665 71.501 -223.998s106.834 -95 177.501 -95c45.333 0 74.666 12.167 87.999 36.5s20 75.5 20 153.5v242c0 74.667 -6.5 123.667 -19.5 147
s-40.167 35.666 -81.5 36.999h-19c-62.667 -2.66699 -117.834 -31.334 -165.501 -86.001s-71.5 -125 -71.5 -211z" />
    <glyph glyph-name="oe" unicode="&#x153;" horiz-adv-x="778" 
d="M30 225c0 64 20.5 119.336 61.5 166.003s90.833 70 149.5 70c71.333 0 129.333 -33 174 -99c18 29.333 42 53.166 72 71.499s61.667 27.5 95 27.5c19.333 0 37.666 -3.33301 54.999 -10s35 -18 53 -34s32.333 -40.833 43 -74.5s16 -74.5 16 -122.5h-294
c0 -0.666992 0.166992 -3.5 0.5 -8.5s0.833008 -9.16699 1.5 -12.5s1.5 -8.33301 2.5 -15s2.33301 -12.834 4 -18.501s3.83398 -12 6.50098 -19s6 -13.833 10 -20.5s8.33301 -13.334 13 -20.001s10.5 -13 17.5 -19s14.5 -11.667 22.5 -17c20 -12.667 42 -19 66 -19
c48.667 0 95 18.333 139 55l6 -66c-45.333 -34 -94 -51 -146 -51c-74.667 0 -135.334 33.667 -182.001 101c-19.333 -31.333 -44.666 -56 -75.999 -74s-64.333 -27 -99 -27c-56.667 0 -106 22.667 -148 68s-63 101.333 -63 168zM103 231.003
c0 -53.333 12.8311 -96.668 38.498 -130.001s58.834 -50 99.501 -50c36 0 67.667 15 95 45s41 75 41 135c0 52.667 -13 93.834 -39 123.501s-58.333 44.5 -97 44.5c-39.333 0 -72.166 -15 -98.499 -45s-39.5 -71 -39.5 -123zM459.998 275.001h230.001
c-13.333 82.667 -48.666 124 -105.999 124c-26.667 0 -51.834 -11 -75.501 -33s-39.834 -52.333 -48.501 -91z" />
    <glyph glyph-name="Racute" unicode="&#x154;" horiz-adv-x="646" 
d="M95 0l-0.000976562 693.999h226c48 0 90.167 -6.16699 126.5 -18.5s64.333 -28.333 84 -48s34.167 -39.667 43.5 -60s14 -40.166 14 -59.499c0 -38.667 -14.667 -74.667 -44 -108s-71.666 -58 -126.999 -74l199 -326h-90l-187 316h-158v-316h-87zM181.999 377.999
h131.999c70 0 119.833 13.167 149.5 39.5s44.5 56.166 44.5 89.499c0 14.667 -3 29 -9 43s-15.667 27.833 -29 41.5s-33.166 24.834 -59.499 33.501s-57.5 13 -93.5 13h-135v-260zM182.998 759.999c99.333 57.333 151 86.667 155 88c3.33301 1.33301 8 2 14 2h98l-158 -79
l-22 -10l-15 -1h-72z" />
    <glyph glyph-name="racute" unicode="&#x155;" horiz-adv-x="342" 
d="M88 510l133 130h78l-149 -130h-62zM81 0l-0.000976562 449.999h70v-90c8 12.667 17.667 24.834 29 36.501s30.5 24.167 57.5 37.5s56.5 20.333 88.5 21v-67c-17.333 -0.666992 -34.666 -3.83398 -51.999 -9.50098s-35.5 -14.667 -54.5 -27s-34.333 -31.166 -46 -56.499
s-17.5 -55 -17.5 -89v-206h-75z" />
    <glyph glyph-name="Rcaron" unicode="&#x158;" horiz-adv-x="646" 
d="M148 889h60l98 -111l96 111h63l-123 -162h-72zM95 0l-0.000976562 693.999h226c48 0 90.167 -6.16699 126.5 -18.5s64.333 -28.333 84 -48s34.167 -39.667 43.5 -60s14 -40.166 14 -59.499c0 -38.667 -14.667 -74.667 -44 -108s-71.666 -58 -126.999 -74l199 -326h-90
l-187 316h-158v-316h-87zM181.999 377.999h131.999c70 0 119.833 13.167 149.5 39.5s44.5 56.166 44.5 89.499c0 14.667 -3 29 -9 43s-15.667 27.833 -29 41.5s-33.166 24.834 -59.499 33.501s-57.5 13 -93.5 13h-135v-260z" />
    <glyph glyph-name="rcaron" unicode="&#x159;" horiz-adv-x="342" 
d="M60 639h61.9971l100 -68l99 68h35l27 -1c-82 -58.667 -125.333 -89 -130 -91c-3.33301 -1.33301 -7.66602 -2 -12.999 -2h-36c-7.33301 0 -15.166 2.5 -23.499 7.5s-30.166 20.5 -65.499 46.5zM80.9971 0l-0.000976562 449.999h70v-90c8 12.667 17.667 24.834 29 36.501
s30.5 24.167 57.5 37.5s56.5 20.333 88.5 21v-67c-17.333 -0.666992 -34.666 -3.83398 -51.999 -9.50098s-35.5 -14.667 -54.5 -27s-34.333 -31.166 -46 -56.499s-17.5 -55 -17.5 -89v-206h-75z" />
    <glyph glyph-name="Sacute" unicode="&#x15a;" horiz-adv-x="555" 
d="M44 47l14.999 82.9951c70 -55.333 141.333 -83 214 -83c43.333 0 78.5 13.333 105.5 40s40.5 57.334 40.5 92.001c0 26 -7.83301 49.833 -23.5 71.5s-36.5 37.834 -62.5 48.501c-1.33301 0.666992 -42.666 11.667 -123.999 33c-40.667 10.667 -76.5 32.5 -107.5 65.5
s-46.5 73.5 -46.5 121.5c0 51.333 20.833 97 62.5 137s96.167 60 163.5 60c62.667 0 123.667 -16 183 -48l-14 -83c-28 21.333 -54 37.333 -78 48s-54.667 16 -92 16c-43.333 0 -78.333 -11.833 -105 -35.5s-40 -51.167 -40 -82.5c0 -23.333 7.5 -44.666 22.5 -63.999
s34.167 -33.666 57.5 -42.999c9.33301 -4 33.5 -10.667 72.5 -20s64.833 -16.666 77.5 -21.999c36.667 -15.333 68.167 -39.833 94.5 -73.5s39.5 -73.5 39.5 -119.5c0 -56.667 -21.167 -106 -63.5 -148s-96.5 -63 -162.5 -63c-80 0 -156.333 23 -229 69zM137.999 759.995
c99.333 57.333 151 86.667 155 88c3.33301 1.33301 8 2 14 2h98l-158 -79l-22 -10l-15 -1h-72z" />
    <glyph glyph-name="sacute" unicode="&#x15b;" horiz-adv-x="383" 
d="M27 34l12.0049 68.001c16.667 -10 30 -17.667 40 -23s26.167 -11.166 48.5 -17.499s45.5 -9.5 69.5 -9.5c34.667 0 58.667 6.66699 72 20s20 29 20 47c0 8.66699 -1.5 16.5 -4.5 23.5s-7.33301 13 -13 18s-11.334 9.33301 -17.001 13s-12.334 6.66699 -20.001 9
s-14 4.16602 -19 5.49902s-10.833 2.66602 -17.5 3.99902s-10.334 2 -11.001 2c-103.333 18.667 -155 64 -155 136c0 87.333 54.667 131 164 131c48.667 0 97.667 -10.333 147 -31l-11 -66c-2 0.666992 -6 2.5 -12 5.5l-12 6c-2 1 -5.83301 2.66699 -11.5 5
s-9.83398 4 -12.501 5s-6.83398 2.33301 -12.501 4s-10.5 3 -14.5 4s-9 2 -15 3s-11.667 1.83301 -17 2.5s-11.333 1.16699 -18 1.5s-13.667 0.5 -21 0.5c-54.667 0 -82 -20 -82 -60c0 -28.667 16.667 -48.667 50 -60c4.66699 -1.33301 22 -5 52 -11s52 -12 66 -18
c22 -9.33301 42.167 -24.333 60.5 -45s27.5 -47.667 27.5 -81c0 -91.333 -55 -137 -165 -137c-56.667 0 -112.667 15 -168 45zM110.005 510.001l133 130h78l-149 -130h-62z" />
    <glyph glyph-name="Scircumflex" unicode="&#x15c;" horiz-adv-x="555" 
d="M125 727l124 173h76l111 -173h-61l-94 122l-94 -122h-62zM44 47l14.999 82.9951c70 -55.333 141.333 -83 214 -83c43.333 0 78.5 13.333 105.5 40s40.5 57.334 40.5 92.001c0 26 -7.83301 49.833 -23.5 71.5s-36.5 37.834 -62.5 48.501
c-1.33301 0.666992 -42.666 11.667 -123.999 33c-40.667 10.667 -76.5 32.5 -107.5 65.5s-46.5 73.5 -46.5 121.5c0 51.333 20.833 97 62.5 137s96.167 60 163.5 60c62.667 0 123.667 -16 183 -48l-14 -83c-28 21.333 -54 37.333 -78 48s-54.667 16 -92 16
c-43.333 0 -78.333 -11.833 -105 -35.5s-40 -51.167 -40 -82.5c0 -23.333 7.5 -44.666 22.5 -63.999s34.167 -33.666 57.5 -42.999c9.33301 -4 33.5 -10.667 72.5 -20s64.833 -16.666 77.5 -21.999c36.667 -15.333 68.167 -39.833 94.5 -73.5s39.5 -73.5 39.5 -119.5
c0 -56.667 -21.167 -106 -63.5 -148s-96.5 -63 -162.5 -63c-80 0 -156.333 23 -229 69z" />
    <glyph glyph-name="scircumflex" unicode="&#x15d;" horiz-adv-x="383" 
d="M41 509l125 141h61l125 -141h-61l-95 99l-94 -99h-61zM27 34l12.0039 68.0029c1.33301 -0.666992 5.66602 -3.16699 12.999 -7.5s12.833 -7.5 16.5 -9.5s9.66699 -5 18 -9s16 -7.16699 23 -9.5s15.167 -4.83301 24.5 -7.5s19.166 -4.5 29.499 -5.5
s21.166 -1.5 32.499 -1.5c33.333 0 57.166 7 71.499 21s21.5 29.667 21.5 47c0 16.667 -6 30.5 -18 41.5s-24.667 18.5 -38 22.5c-6.66699 2 -21.5 5.33301 -44.5 10s-40.167 8.66699 -51.5 12c-27.333 8.66699 -51.5 23.5 -72.5 44.5s-31.5 47.167 -31.5 78.5
c0 15.333 2.33301 29.833 7 43.5s12.5 27.667 23.5 42s28 25.666 51 33.999s50.5 12.5 82.5 12.5c48 0 96.667 -10.333 146 -31l-11 -66c-0.666992 0.666992 -4.5 2.5 -11.5 5.5s-11 4.83301 -12 5.5s-4.66699 2.33398 -11 5.00098s-10.666 4.33398 -12.999 5.00098
s-6.5 2.16699 -12.5 4.5s-10.667 3.66602 -14 3.99902s-8.16602 1.33301 -14.499 3s-12 2.66699 -17 3s-10.833 0.666016 -17.5 0.999023s-13.667 0.5 -21 0.5c-30.667 0 -52.334 -6.16699 -65.001 -18.5s-19 -26.5 -19 -42.5c0 -22 8.83301 -37.833 26.5 -47.5
s42.5 -17.334 74.5 -23.001s54.667 -11.5 68 -17.5c24 -10.667 44.5 -26.667 61.5 -48s25.5 -47 25.5 -77c0 -15.333 -2.33301 -30.333 -7 -45s-12.5 -29.334 -23.5 -44.001s-28 -26.5 -51 -35.5s-50.167 -13.5 -81.5 -13.5c-58.667 0 -115.334 15 -170.001 45z" />
    <glyph glyph-name="Scedilla" unicode="&#x15e;" horiz-adv-x="555" 
d="M44 47l14.999 82.9961c68.667 -55.333 140 -83 214 -83c43.333 0 78.5 13.333 105.5 40s40.5 57.334 40.5 92.001c0 26 -7.83301 49.833 -23.5 71.5s-36.5 37.834 -62.5 48.501c-1.33301 0.666992 -42.666 11.667 -123.999 33c-40.667 10.667 -76.5 32.5 -107.5 65.5
s-46.5 73.5 -46.5 121.5c0 51.333 20.667 97 62 137s96 60 164 60c62.667 0 123.667 -16 183 -48l-14 -83c-28 21.333 -54 37.333 -78 48s-54.667 16 -92 16c-44.667 0 -80 -12.167 -106 -36.5s-39 -51.833 -39 -82.5c0 -23.333 7.5 -44.5 22.5 -63.5
s34.167 -33.167 57.5 -42.5c9.33301 -4 33.5 -10.667 72.5 -20s64.833 -16.666 77.5 -21.999c36 -15.333 67.333 -39.666 94 -72.999s40 -73.333 40 -120c0 -56 -20.833 -105.167 -62.5 -147.5s-96.167 -63.5 -163.5 -63.5c-80 0 -156.333 23 -229 69zM172.999 -192.004
l74 169h61l-65 -169h-70z" />
    <glyph glyph-name="scedilla" unicode="&#x15f;" horiz-adv-x="383" 
d="M27 34l12.0059 68.002c16.667 -10 30 -17.667 40 -23s26.167 -11.166 48.5 -17.499s45.5 -9.5 69.5 -9.5c34.667 0 58.667 6.66699 72 20s20 29 20 47c0 8.66699 -1.5 16.5 -4.5 23.5s-7.33301 13 -13 18s-11.334 9.33301 -17.001 13s-12.334 6.66699 -20.001 9
s-14 4.16602 -19 5.49902s-10.833 2.66602 -17.5 3.99902s-10.334 2 -11.001 2c-103.333 18.667 -155 64 -155 136c0 87.333 54.667 131 164 131c48.667 0 97.667 -10.333 147 -31l-11 -66c-2 0.666992 -6 2.5 -12 5.5l-12 6c-2 1 -5.83301 2.66699 -11.5 5
s-9.83398 4 -12.501 5s-6.83398 2.33301 -12.501 4s-10.5 3 -14.5 4s-9 2 -15 3s-11.667 1.83301 -17 2.5s-11.333 1.16699 -18 1.5s-13.667 0.5 -21 0.5c-54.667 0 -82 -20 -82 -60c0 -28.667 16.667 -48.667 50 -60c4 -1.33301 21.333 -4.83301 52 -10.5
s53 -11.834 67 -18.501c21.333 -9.33301 41.166 -24.333 59.499 -45s27.5 -47.667 27.5 -81c0 -91.333 -55 -137 -165 -137c-56.667 0 -112.667 15 -168 45zM92.0059 -191.998l74 169h61l-65 -169h-70z" />
    <glyph glyph-name="Scaron" unicode="&#x160;" horiz-adv-x="555" 
d="M44 47l14.999 82.9951c70 -55.333 141.333 -83 214 -83c43.333 0 78.5 13.333 105.5 40s40.5 57.334 40.5 92.001c0 26 -7.83301 49.833 -23.5 71.5s-36.5 37.834 -62.5 48.501c-1.33301 0.666992 -42.666 11.667 -123.999 33c-40.667 10.667 -76.5 32.5 -107.5 65.5
s-46.5 73.5 -46.5 121.5c0 51.333 20.833 97 62.5 137s96.167 60 163.5 60c62.667 0 123.667 -16 183 -48l-14 -83c-28 21.333 -54 37.333 -78 48s-54.667 16 -92 16c-43.333 0 -78.333 -11.833 -105 -35.5s-40 -51.167 -40 -82.5c0 -23.333 7.5 -44.666 22.5 -63.999
s34.167 -33.666 57.5 -42.999c9.33301 -4 33.5 -10.667 72.5 -20s64.833 -16.666 77.5 -21.999c36.667 -15.333 68.167 -39.833 94.5 -73.5s39.5 -73.5 39.5 -119.5c0 -56.667 -21.167 -106 -63.5 -148s-96.5 -63 -162.5 -63c-80 0 -156.333 23 -229 69zM118.999 888.995h61
l97 -111l97 111h61l-122 -162h-72z" />
    <glyph glyph-name="scaron" unicode="&#x161;" horiz-adv-x="383" 
d="M27 34l12 67.998c54 -33.333 107 -50 159 -50c60.667 0 91 22.667 91 68c0 5.33301 -0.666992 10.5 -2 15.5s-3 9.33301 -5 13s-4.66699 7.16699 -8 10.5l-9 9c-2.66699 2.66699 -6.16699 5 -10.5 7l-11 5c-3 1.33301 -6.5 2.66602 -10.5 3.99902l-9 3
c-2 0.666992 -4.66699 1.33398 -8 2.00098l-5 1c-2 0.666992 -9.16699 2 -21.5 4s-20.666 3.66699 -24.999 5s-12 3.33301 -23 6s-19.333 5.5 -25 8.5l-21 11.5c-8.33301 4.66699 -15.666 10 -21.999 16s-12.5 13 -18.5 21c-14.667 20.667 -22 43.334 -22 68.001
c0 87.333 54.333 131 163 131c49.333 0 98.666 -10.333 147.999 -31l-12 -66c-2 0.666992 -6 2.5 -12 5.5l-12 6c-2 1 -5.83301 2.66699 -11.5 5s-9.83398 4 -12.501 5s-6.83398 2.33301 -12.501 4s-10.5 3 -14.5 4s-9 2 -15 3s-11.667 1.83301 -17 2.5
s-11.333 1.16699 -18 1.5s-13.667 0.5 -21 0.5c-54.667 0 -82 -20 -82 -60c0 -22 8.66699 -38 26 -48s42 -17.833 74 -23.5s53.667 -10.834 65 -15.501c25.333 -11.333 46.833 -27.666 64.5 -48.999s26.5 -47.666 26.5 -78.999c0 -91.333 -54.667 -137 -164 -137
c-57.333 0 -113.666 15 -168.999 45zM27 638.998h61.9971l100 -68l99 68h35l27 -1c-82 -58.667 -125.333 -89 -130 -91c-3.33301 -1.33301 -7.66602 -2 -12.999 -2h-36c-7.33301 0 -15.166 2.5 -23.499 7.5s-30.166 20.5 -65.499 46.5z" />
    <glyph glyph-name="Tcommaaccent" unicode="&#x162;" horiz-adv-x="680" 
d="M235 -192l74 169h61l-65 -169h-70zM35 623v66h608v-66h-142l-117 1v-624h-89v624l-118 -1h-142z" />
    <glyph glyph-name="tcommaaccent" unicode="&#x163;" horiz-adv-x="361" 
d="M18 386l-0.000976562 59h86v126h70v-126h141v-59h-141v-252c0 -54 17.667 -81 53 -81c28 0 57.667 11 89 33l16 -59c-47.333 -25.333 -97 -38 -149 -38c-31.333 0 -52.666 11.667 -63.999 35s-17 56 -17 98v264h-84zM116.999 -192l74 169h61l-65 -169h-70z" />
    <glyph glyph-name="Tcaron" unicode="&#x164;" horiz-adv-x="680" 
d="M181 889h60l98 -111l96 111h63l-123 -162h-72zM35 623v66h608v-66h-142l-117 1v-624h-89v624l-118 -1h-142z" />
    <glyph glyph-name="tcaron" unicode="&#x165;" horiz-adv-x="361" 
d="M18 386l0.000976562 59h86v126h70v-126h141v-59h-141v-252c0 -54 17.667 -81 53 -81c28 0 57.667 11 89 33l16 -59c-47.333 -25.333 -97 -38 -149 -38c-30.667 0 -51.834 11.333 -63.501 34s-17.5 55.667 -17.5 99v264h-84zM273.001 488l26.001 82.999h-26v84h84v-69
c-0.666992 -6.66699 -1.83398 -12.667 -3.50098 -18s-3.5 -10.166 -5.5 -14.499s-6.33301 -12.833 -13 -25.5l-20 -40h-42z" />
    <glyph glyph-name="Utilde" unicode="&#x168;" horiz-adv-x="687" 
d="M94 245l0.000976562 448.999h90v-415c0 -4 -0.166992 -9.83301 -0.5 -17.5s-0.5 -13.5 -0.5 -17.5c0 -40.667 5.5 -75.667 16.5 -105s25.333 -51.166 43 -65.499s35 -24.5 52 -30.5s34.167 -9 51.5 -9c18.667 0 37.167 3.33301 55.5 10s36.333 17.334 54 32.001
s32 36.167 43 64.5s16.5 61.5 16.5 99.5c0 2 -0.166992 5 -0.5 9s-0.5 7 -0.5 9v436h79v-453c0 -42.667 -7.5 -81.334 -22.5 -116.001s-34.667 -62.334 -59 -83.001s-50.833 -36.5 -79.5 -47.5s-57.334 -16.5 -86.001 -16.5c-29.333 0 -58.333 5.33301 -87 16
s-55.5 26.334 -80.5 47.001s-45.333 48.667 -61 84s-23.5 75.333 -23.5 120zM179.001 804.999c1.33301 37.333 11.998 65.833 31.998 85.5s42 29.5 66 29.5c18.667 0 42.167 -8.83301 70.5 -26.5s49.5 -26.5 63.5 -26.5c24.667 0 38 17.667 40 53h62
c-1.33301 -38 -12.166 -66.5 -32.499 -85.5s-42.166 -28.5 -65.499 -28.5c-18.667 0 -42.167 8.83301 -70.5 26.5s-49.5 26.5 -63.5 26.5c-24.667 0 -38 -18 -40 -54h-62z" />
    <glyph glyph-name="utilde" unicode="&#x169;" horiz-adv-x="517" 
d="M77 555c1.33301 36.667 12 65 32 85s42 30 66 30c18 0 41.333 -8.83301 70 -26.5s50 -26.5 64 -26.5c24.667 0 38 17.667 40 53h61c-1.33301 -37.333 -12 -65.666 -32 -84.999s-42 -29 -66 -29c-18.667 0 -42 8.83301 -70 26.5s-49 26.5 -63 26.5
c-12 0 -21.5 -4.83301 -28.5 -14.5s-11.167 -22.834 -12.5 -39.501h-61zM80 122l-0.000976562 323h78v-335c0.666992 -23.333 6.16699 -40 16.5 -50s31.5 -15 63.5 -15c34.667 0 62.5 9.16699 83.5 27.5s32.833 39.5 35.5 63.5c0.666992 6.66699 1 16.334 1 29.001v280h78
v-445h-76v48c-45.333 -39.333 -103.666 -59 -174.999 -59c-20 0 -37 3.16699 -51 9.5s-24.5 13.5 -31.5 21.5s-12.333 19.167 -16 33.5s-5.66699 25.666 -6 33.999s-0.5 19.833 -0.5 34.5z" />
    <glyph glyph-name="Umacron" unicode="&#x16a;" horiz-adv-x="687" 
d="M150 773v64h388v-64h-388zM94 245l0.000976562 448.999h90v-415c0 -4 -0.166992 -9.83301 -0.5 -17.5s-0.5 -13.5 -0.5 -17.5c0 -40.667 5.5 -75.667 16.5 -105s25.333 -51.166 43 -65.499s35 -24.5 52 -30.5s34.167 -9 51.5 -9c18.667 0 37.167 3.33301 55.5 10
s36.333 17.334 54 32.001s32 36.167 43 64.5s16.5 61.5 16.5 99.5c0 2 -0.166992 5 -0.5 9s-0.5 7 -0.5 9v436h79v-453c0 -42.667 -7.5 -81.334 -22.5 -116.001s-34.667 -62.334 -59 -83.001s-50.833 -36.5 -79.5 -47.5s-57.334 -16.5 -86.001 -16.5
c-29.333 0 -58.333 5.33301 -87 16s-55.5 26.334 -80.5 47.001s-45.333 48.667 -61 84s-23.5 75.333 -23.5 120z" />
    <glyph glyph-name="umacron" unicode="&#x16b;" horiz-adv-x="517" 
d="M78 552v64h360v-64h-360zM80 122l-0.000976562 323h78v-335c0.666992 -23.333 6.16699 -40 16.5 -50s31.5 -15 63.5 -15c34.667 0 62.5 9.16699 83.5 27.5s32.833 39.5 35.5 63.5c0.666992 6.66699 1 16.334 1 29.001v280h78v-445h-76v48
c-45.333 -39.333 -103.666 -59 -174.999 -59c-20 0 -37 3.16699 -51 9.5s-24.5 13.5 -31.5 21.5s-12.333 19.167 -16 33.5s-5.66699 25.666 -6 33.999s-0.5 19.833 -0.5 34.5z" />
    <glyph glyph-name="Ubreve" unicode="&#x16c;" horiz-adv-x="687" 
d="M174 889h61.001c2 -30.667 14 -54.167 36 -70.5s46.333 -24.5 73 -24.5c28.667 0 53.334 8.5 74.001 25.5s32 40.167 34 69.5h62c-1.33301 -48 -18.833 -87 -52.5 -117s-72.834 -45 -117.501 -45c-45.333 0 -84.833 15 -118.5 45s-50.834 69 -51.501 117zM94.001 245
l0.000976562 448.999h90v-415c0 -4 -0.166992 -9.83301 -0.5 -17.5s-0.5 -13.5 -0.5 -17.5c0 -40.667 5.5 -75.667 16.5 -105s25.333 -51.166 43 -65.499s35 -24.5 52 -30.5s34.167 -9 51.5 -9c18.667 0 37.167 3.33301 55.5 10s36.333 17.334 54 32.001s32 36.167 43 64.5
s16.5 61.5 16.5 99.5c0 2 -0.166992 5 -0.5 9s-0.5 7 -0.5 9v436h79v-453c0 -42.667 -7.5 -81.334 -22.5 -116.001s-34.667 -62.334 -59 -83.001s-50.833 -36.5 -79.5 -47.5s-57.334 -16.5 -86.001 -16.5c-29.333 0 -58.333 5.33301 -87 16s-55.5 26.334 -80.5 47.001
s-45.333 48.667 -61 84s-23.5 75.333 -23.5 120z" />
    <glyph glyph-name="ubreve" unicode="&#x16d;" horiz-adv-x="517" 
d="M88 639h60.998c1.33301 -15.333 6.33301 -28.333 15 -39s19.334 -18.334 32.001 -23.001s24 -7.83398 34 -9.50098s19.333 -2.5 28 -2.5s17.834 0.833008 27.501 2.5s20.667 4.83398 33 9.50098s22.833 12.334 31.5 23.001s13.667 23.667 15 39h62
c-1.33301 -43.333 -19 -77.666 -53 -102.999s-73 -38 -117 -38s-82.833 12.667 -116.5 38s-51.167 59.666 -52.5 102.999zM79.998 122l-0.000976562 323h78v-335c0.666992 -23.333 6.16699 -40 16.5 -50s31.5 -15 63.5 -15c34.667 0 62.5 9.16699 83.5 27.5
s32.833 39.5 35.5 63.5c0.666992 6.66699 1 16.334 1 29.001v280h78v-445h-76v48c-45.333 -39.333 -103.666 -59 -174.999 -59c-20 0 -37 3.16699 -51 9.5s-24.5 13.5 -31.5 21.5s-12.333 19.167 -16 33.5s-5.66699 25.666 -6 33.999s-0.5 19.833 -0.5 34.5z" />
    <glyph glyph-name="Uring" unicode="&#x16e;" horiz-adv-x="687" 
d="M94 245l0.000976562 448.999h90v-415c0 -4 -0.166992 -9.83301 -0.5 -17.5s-0.5 -13.5 -0.5 -17.5c0 -40.667 5.5 -75.667 16.5 -105s25.333 -51.166 43 -65.499s35 -24.5 52 -30.5s34.167 -9 51.5 -9c18.667 0 37.167 3.33301 55.5 10s36.333 17.334 54 32.001
s32 36.167 43 64.5s16.5 61.5 16.5 99.5c0 2 -0.166992 5 -0.5 9s-0.5 7 -0.5 9v436h79v-453c0 -42.667 -7.5 -81.334 -22.5 -116.001s-34.667 -62.334 -59 -83.001s-50.833 -36.5 -79.5 -47.5s-57.334 -16.5 -86.001 -16.5c-29.333 0 -58.333 5.33301 -87 16
s-55.5 26.334 -80.5 47.001s-45.333 48.667 -61 84s-23.5 75.333 -23.5 120zM235.001 776.999c0 32 11.1699 58.499 33.5029 79.499s48.166 31.5 77.499 31.5c32 0 58.5 -11.167 79.5 -33.5s31.5 -48.166 31.5 -77.499c0 -32 -11.333 -58.5 -34 -79.5
s-48.334 -31.5 -77.001 -31.5c-32.667 0 -59.334 11 -80.001 33s-31 48 -31 78zM291.004 776.998c0 -33.333 18.333 -50 55 -50s55 16.667 55 50s-18 50 -54 50c-37.333 0 -56 -16.667 -56 -50z" />
    <glyph glyph-name="uring" unicode="&#x16f;" horiz-adv-x="517" 
d="M147 558c0 20.667 10.167 39.334 30.5 56.001s47.166 25 80.499 25c34 0 61 -8.66699 81 -26s30 -36 30 -56c0 -20.667 -10.167 -39.334 -30.5 -56.001s-47.166 -25 -80.499 -25c-34 0 -61 8.66699 -81 26s-30 36 -30 56zM203 557c0 -12 4.16699 -23 12.5 -33
s22.5 -15 42.5 -15c19.333 0 33.333 5.16699 42 15.5s13 21.5 13 33.5s-4.16699 23 -12.5 33s-22.5 15 -42.5 15c-16.667 0 -30 -4.33301 -40 -13s-15 -20.667 -15 -36zM80 122l-0.000976562 323h78v-335c0.666992 -23.333 6.16699 -40 16.5 -50s31.5 -15 63.5 -15
c34.667 0 62.5 9.16699 83.5 27.5s32.833 39.5 35.5 63.5c0.666992 6.66699 1 16.334 1 29.001v280h78v-445h-76v48c-45.333 -39.333 -103.666 -59 -174.999 -59c-20 0 -37 3.16699 -51 9.5s-24.5 13.5 -31.5 21.5s-12.333 19.167 -16 33.5s-5.66699 25.666 -6 33.999
s-0.5 19.833 -0.5 34.5z" />
    <glyph glyph-name="Uhungarumlaut" unicode="&#x170;" horiz-adv-x="687" 
d="M342 760l41.999 24l34 20l25.5 15.5c8.33301 5 15 8.83301 20 11.5l14.5 8c4.66699 2.66699 8.33398 4.66699 11.001 6s5.16699 2.5 7.5 3.5s4.33301 1.66699 6 2s3.16699 0.5 4.5 0.5h5h68l30 -1l-158 -79l-22 -10l-15 -1h-73zM175.999 760l41.999 24l34 20l25.5 15.5
c8.33301 5 15 8.83301 20 11.5l14.5 8c4.66699 2.66699 8.33398 4.66699 11.001 6s5.16699 2.5 7.5 3.5s4.33301 1.66699 6 2s3.16699 0.5 4.5 0.5h5h68l30 -1l-158 -79l-22 -10l-15 -1h-73zM93.998 245l0.000976562 448.999h90v-415c0 -4 -0.166992 -9.83301 -0.5 -17.5
s-0.5 -13.5 -0.5 -17.5c0 -40.667 5.5 -75.667 16.5 -105s25.333 -51.166 43 -65.499s35 -24.5 52 -30.5s34.167 -9 51.5 -9c18.667 0 37.167 3.33301 55.5 10s36.333 17.334 54 32.001s32 36.167 43 64.5s16.5 61.5 16.5 99.5c0 2 -0.166992 5 -0.5 9s-0.5 7 -0.5 9v436h79
v-453c0 -42.667 -7.5 -81.334 -22.5 -116.001s-34.667 -62.334 -59 -83.001s-50.833 -36.5 -79.5 -47.5s-57.334 -16.5 -86.001 -16.5c-29.333 0 -58.333 5.33301 -87 16s-55.5 26.334 -80.5 47.001s-45.333 48.667 -61 84s-23.5 75.333 -23.5 120z" />
    <glyph glyph-name="uhungarumlaut" unicode="&#x171;" horiz-adv-x="517" 
d="M283 510l133 130h78l-149 -130h-62zM116 510l133 130h78l-149 -130h-62zM80 122l-0.000976562 323h78v-335c0.666992 -23.333 6.16699 -40 16.5 -50s31.5 -15 63.5 -15c34.667 0 62.5 9.16699 83.5 27.5s32.833 39.5 35.5 63.5c0.666992 6.66699 1 16.334 1 29.001v280
h78v-445h-76v48c-45.333 -39.333 -103.666 -59 -174.999 -59c-20 0 -37 3.16699 -51 9.5s-24.5 13.5 -31.5 21.5s-12.333 19.167 -16 33.5s-5.66699 25.666 -6 33.999s-0.5 19.833 -0.5 34.5z" />
    <glyph glyph-name="Wcircumflex" unicode="&#x174;" horiz-adv-x="944" 
d="M316 727l124 173h76l111 -173h-61l-94 122l-94 -122h-62zM14 694l87 -0.000976562l116 -407c30.667 -113.333 47.667 -185.666 51 -216.999c2.66699 29.333 20 102.666 52 219.999l115 404h82l118 -411l29 -108l19 -79l4 -26c1.33301 22 19 95 53 219l117 405h72
l-203 -694h-87l-107 369c-36.667 135.333 -57.667 220.333 -63 255c-1.33301 -13.333 -6.83301 -39.5 -16.5 -78.5s-19 -74.667 -28 -107s-13.833 -49.166 -14.5 -50.499l-112 -388h-80z" />
    <glyph glyph-name="wcircumflex" unicode="&#x175;" horiz-adv-x="683" 
d="M185 509l125 141h61l125 -141h-61l-95 99l-94 -99h-61zM14 445l75 -0.000976562c64.667 -205.333 100.667 -337 108 -395c2 41.333 37.333 173 106 395h71l73 -244c23.333 -84 36 -134.333 38 -151c3.33301 32.667 40.333 164.334 111 395.001h73l-138 -445h-87
c-45.333 150 -73.333 244.167 -84 282.5s-18.334 75.5 -23.001 111.5c-1.33301 -34 -36.666 -165.333 -105.999 -394h-79z" />
    <glyph glyph-name="Ycircumflex" unicode="&#x176;" horiz-adv-x="667" 
d="M176 727l124 173h76l111 -173h-61l-94 122l-94 -122h-62zM2 694l105 0.000976562l147 -213c53.333 -80 82.333 -124.333 87 -133c23.333 41.333 101 156.666 233 345.999h88l-286 -416v-278h-87v278z" />
    <glyph glyph-name="ycircumflex" unicode="&#x177;" horiz-adv-x="461" 
d="M77 509l125 141h61l125 -141h-61l-95 99l-94 -99h-61zM14 445l79.001 -0.00292969c42.667 -98 74.667 -174.667 96 -230s33.833 -90.166 37.5 -104.499s7.5 -34.5 11.5 -60.5c1.33301 46.667 45.666 178.334 132.999 395.001h75l-217 -535
c-19.333 -44.667 -37.333 -75 -54 -91s-37 -24 -61 -24c-27.333 0 -51.666 2.66699 -72.999 8l-5 65c35.333 -11.333 59.666 -17 72.999 -17c18 0 31.5 6.5 40.5 19.5s22.833 42.167 41.5 87.5l11 27c2.66699 6 4 11.333 4 16s-1.66699 10.334 -5 17.001z" />
    <glyph glyph-name="Ydieresis" unicode="&#x178;" horiz-adv-x="667" 
d="M385 761v89h90v-89h-90zM190 761v89h90v-89h-90zM2 694l105 0.000976562l147 -213c53.333 -80 82.333 -124.333 87 -133c23.333 41.333 101 156.666 233 345.999h88l-286 -416v-278h-87v278z" />
    <glyph glyph-name="Zacute" unicode="&#x179;" horiz-adv-x="611" 
d="M55 0v25.0049c0 9.33301 0.5 15.666 1.5 18.999s4.83301 9.66602 11.5 18.999l372 569l-164 -1h-207v63h486v-24v-5.5c0 -1.66699 -0.166992 -3.33398 -0.5 -5.00098s-0.5 -2.83398 -0.5 -3.50098s-0.166992 -1.66699 -0.5 -3s-0.666016 -2.33301 -0.999023 -3
s-1 -1.83398 -2 -3.50098s-1.66699 -2.83398 -2 -3.50098s-1.33301 -2.16699 -3 -4.5s-2.83398 -4.16602 -3.50098 -5.49902l-372 -568h208l23 1h159v-66h-505zM193 760.005l77.999 44.999c38.667 22.667 61.834 35.834 69.501 39.501s15.167 5.5 22.5 5.5h98l-158 -79
l-23 -10l-14 -1h-73z" />
    <glyph glyph-name="zacute" unicode="&#x17a;" horiz-adv-x="435" 
d="M135 510l133 130h78l-149 -130h-62zM27 0v41l266 345l-30 -1h-222v60h357v-40l-265 -343h201l21 1h46v-63h-374z" />
    <glyph glyph-name="Zdotaccent" unicode="&#x17b;" horiz-adv-x="611" 
d="M55 0v25.0049c0 9.33301 0.5 15.666 1.5 18.999s4.83301 9.66602 11.5 18.999l372 569l-164 -1h-207v63h486v-24v-5.5c0 -1.66699 -0.166992 -3.33398 -0.5 -5.00098s-0.5 -2.83398 -0.5 -3.50098s-0.166992 -1.66699 -0.5 -3s-0.666016 -2.33301 -0.999023 -3
s-1 -1.83398 -2 -3.50098s-1.66699 -2.83398 -2 -3.50098s-1.33301 -2.16699 -3 -4.5s-2.83398 -4.16602 -3.50098 -5.49902l-372 -568h208l23 1h159v-66h-505zM288 778.005v89h90v-89h-90z" />
    <glyph glyph-name="zdotaccent" unicode="&#x17c;" horiz-adv-x="435" 
d="M191 590v89h90v-89h-90zM27 0v41l266 345l-30 -1h-222v60h357v-40l-265 -343h201l21 1h46v-63h-374z" />
    <glyph glyph-name="Zcaron" unicode="&#x17d;" horiz-adv-x="611" 
d="M148 889h60l98 -111l96 111h63l-123 -162h-72zM55 0v25.0049c0 9.33301 0.5 15.666 1.5 18.999s4.83301 9.66602 11.5 18.999l372 569l-164 -1h-207v63h486v-24v-5.5c0 -1.66699 -0.166992 -3.33398 -0.5 -5.00098s-0.5 -2.83398 -0.5 -3.50098
s-0.166992 -1.66699 -0.5 -3s-0.666016 -2.33301 -0.999023 -3s-1 -1.83398 -2 -3.50098s-1.66699 -2.83398 -2 -3.50098s-1.33301 -2.16699 -3 -4.5s-2.83398 -4.16602 -3.50098 -5.49902l-372 -568h208l23 1h159v-66h-505z" />
    <glyph glyph-name="zcaron" unicode="&#x17e;" horiz-adv-x="435" 
d="M58 639h61.9971l100 -68l99 68h35l27 -1c-82 -58.667 -125.333 -89 -130 -91c-3.33301 -1.33301 -7.66602 -2 -12.999 -2h-36c-7.33301 0 -15.166 2.5 -23.499 7.5s-30.166 20.5 -65.499 46.5zM26.9971 0v41l266 345l-30 -1h-222v60h357v-40l-265 -343h201l21 1h46v-63
h-374z" />
    <glyph glyph-name="longs" unicode="&#x17f;" horiz-adv-x="305" 
d="M101 0l0.000976562 547.002c0 55.333 15.833 100.166 47.5 134.499s71.5 51.5 119.5 51.5c23.333 0 49.666 -3.66699 78.999 -11v-67c-29.333 11.333 -56.333 17 -81 17c-24 0 -45.5 -7 -64.5 -21s-28.5 -37.333 -28.5 -70c0 -46 0.166992 -83.5 0.5 -112.5
s0.833008 -49.333 1.5 -61s1 -18.834 1 -21.501v-386h-75z" />
    <glyph glyph-name="uni0180" unicode="&#x180;" horiz-adv-x="517" 
d="M0 511v59h80v125h76v-125h142v-59h-142v-114c48.667 38.667 102 58 160 58c48 0 87.167 -23 117.5 -69s45.5 -100 45.5 -162c0 -66.667 -18.167 -122.5 -54.5 -167.5s-79.5 -67.5 -129.5 -67.5c-50.667 0 -96 19.333 -136 58v-47h-79v511h-80zM159 134
c0 -5.33301 0.167969 -9.5 0.500977 -12.5s1 -6.16699 2 -9.5s1.83301 -5.5 2.5 -6.5s2.5 -3.5 5.5 -7.5s5.16699 -7 6.5 -9c20.667 -25.333 47.667 -38 81 -38c36 0 69 13.833 99 41.5s45 71.167 45 130.5c0 31.333 -4.33301 58.833 -13 82.5s-20.167 41.5 -34.5 53.5
s-28.833 20.833 -43.5 26.5s-29.334 8.5 -44.001 8.5c-26 0 -50.333 -7.83301 -73 -23.5s-34 -32.167 -34 -49.5v-187z" />
    <glyph glyph-name="uni0186" unicode="&#x186;" horiz-adv-x="639" 
d="M52 661c36 21.333 67.3291 35.834 93.9961 43.501s61.334 11.5 104.001 11.5c90 0 166.5 -36.167 229.5 -108.5s94.5 -159.5 94.5 -261.5c0 -104 -31.667 -190.833 -95 -260.5s-136 -105.5 -218 -107.5h-35c-53.333 2 -107.666 13.333 -162.999 34l15 83
c0.666992 0 5 -2.5 13 -7.5s14.5 -8.83301 19.5 -11.5s12.833 -6.33398 23.5 -11.001s20.5 -8.33398 29.5 -11.001s19.833 -5.16699 32.5 -7.5s25.334 -3.5 38.001 -3.5c2 0 5 -0.166992 9 -0.5s7 -0.5 9 -0.5c66 0 121.333 30.167 166 90.5s67 131.833 67 214.5
c0 88 -23.667 160.667 -71 218s-101 86 -161 86h-23c-35.333 0 -63.666 -4.16699 -84.999 -12.5s-50.333 -24.166 -87 -47.499z" />
    <glyph glyph-name="uni0188" unicode="&#x188;" 
d="M35 223c0 62.667 20.1592 117.997 60.4922 165.997s93.5 72 159.5 72c36.667 0 68 -4.33301 94 -13v81c0 46 12.333 82.333 37 109s54.334 40 89.001 40c36 0 67 -15.333 93 -46l-23 -62l-2 4c-1.33301 2 -2.16602 3.5 -2.49902 4.5s-1.5 2.83301 -3.5 5.5l-5 6.5
c-1.33301 1.66699 -3.16602 3.66699 -5.49902 6s-4.66602 4.33301 -6.99902 6s-5.16602 3.5 -8.49902 5.5s-6.66602 3.5 -9.99902 4.5s-7.16602 1.83301 -11.499 2.5s-8.83301 1 -13.5 1c-19.333 0 -34.5 -7.16699 -45.5 -21.5s-17.5 -30.833 -19.5 -49.5l-1 -24v-104
l-12 -66c-32.667 20.667 -57.667 33.334 -75 38.001c-19.333 5.33301 -42.333 8 -69 8c-45.333 0 -80.166 -17.167 -104.499 -51.5s-36.5 -75.166 -36.5 -122.499c0 -49.333 13 -90 39 -122s59.667 -48 101 -48c52 0 104.333 18 157 54l5 -67c-52.667 -34 -107 -51 -163 -51
c-63.333 0 -115.333 23.333 -156 70s-61 101.334 -61 164.001z" />
    <glyph glyph-name="uni018E" unicode="&#x18e;" horiz-adv-x="597" 
d="M41 0v72h46l22 -1h194l24 -1h85v259h-330v61h330v237l-35 -1h-240l-25 -1h-57v66h447v-691h-461z" />
    <glyph glyph-name="uni018F" unicode="&#x18f;" horiz-adv-x="669" 
d="M27 333l513.999 0.000976562c0 45.333 -5 86.333 -15 123s-22 66 -36 88s-30.167 41 -48.5 57s-34.333 27.167 -48 33.5s-26.5 10.833 -38.5 13.5c-13.333 2.66699 -28.333 4 -45 4c-16 0 -30 -0.166992 -42 -0.5s-24.167 -1.66602 -36.5 -3.99902
s-21.333 -3.83301 -27 -4.5s-14.5 -3.33398 -26.5 -8.00098s-19.5 -7.66699 -22.5 -9l-28.5 -13c-16 -7.33301 -26 -12 -30 -14l-15 83c50 15.333 88.333 24.833 115 28.5s61.667 5.5 105 5.5h25c80.667 0 150.667 -35.667 210 -107s89 -159.333 89 -264
c0 -112 -28 -201.167 -84 -267.5s-130.333 -99.5 -223 -99.5c-26 0 -51.167 2.66699 -75.5 8s-50.166 16 -77.499 32s-50.833 36.667 -70.5 62s-36 59.666 -49 102.999s-19.5 93.333 -19.5 150zM106.999 271.001c3.33301 -62.667 23.832 -116.5 61.499 -161.5
s87.834 -67.5 150.501 -67.5c57.333 0 105.5 20.5 144.5 61.5s63.167 96.833 72.5 167.5h-429z" />
    <glyph glyph-name="uni0190" unicode="&#x190;" horiz-adv-x="555" 
d="M41 185c0 27.333 5 51.8301 15 73.4971s20.833 38.167 32.5 49.5s26.834 21.5 45.501 30.5s31.834 14.5 39.501 16.5s17.5 4.33301 29.5 7c2 0.666992 3.33301 1 4 1c-40.667 8.66699 -73.834 26.667 -99.501 54s-38.5 63 -38.5 107c0 32.667 5 61.167 15 85.5
s22.5 43.166 37.5 56.499s33.667 23.833 56 31.5s43.166 12.667 62.499 15s41.333 3.5 66 3.5c64 0 126.333 -11.333 187 -34l-14 -83c-0.666992 0 -4.66699 2.5 -12 7.5s-12.833 8.33301 -16.5 10s-10 4.83398 -19 9.50098s-17.333 8.16699 -25 10.5
s-16.834 4.83301 -27.501 7.5s-22.334 4.66699 -35.001 6s-25.667 2 -39 2c-20.667 0 -39.167 -1.5 -55.5 -4.5s-32.833 -8.66699 -49.5 -17s-29.667 -21.666 -39 -39.999s-14 -41.166 -14 -68.499c0 -13.333 1.66699 -26.166 5 -38.499s9 -25.5 17 -39.5
s20.833 -25.667 38.5 -35s39.167 -15 64.5 -17h88v-62h-66c-114.667 0 -172 -47.667 -172 -143c0 -41.333 12.333 -75.833 37 -103.5s66.667 -41.5 126 -41.5c34.667 0 65.334 3 92.001 9s45.834 12 57.501 18l63.5 34l6 -70c-39.333 -20.667 -73.666 -35 -102.999 -43
s-69.333 -12 -120 -12c-38.667 0 -72.834 4.66699 -102.501 14s-53 21 -70 35s-30.833 30.833 -41.5 50.5s-17.667 38 -21 55s-5 34.5 -5 52.5z" />
    <glyph glyph-name="florin" unicode="&#x192;" horiz-adv-x="620" 
d="M6 -171l34 61.002c20.667 -20.667 43.334 -31 68.001 -31c15.333 0 29 2.66699 41 8s21.167 11.833 27.5 19.5s11.333 15.5 15 23.5s5.83398 14.667 6.50098 20l2 8l96 448h-74l12 59h74c2 10.667 4.5 23 7.5 37l6.5 30l5 22.5c2 9 3.33301 15.167 4 18.5
s1.83398 7.83301 3.50098 13.5l3.5 12c0.666992 2.33301 1.66699 5.33301 3 9s2.66602 6.83398 3.99902 9.50098l5 10c5.33301 11.333 12.5 23 21.5 35s21 25.5 36 40.5s34 27.167 57 36.5s47.5 14 73.5 14s51.333 -3.66699 76 -11l-16 -67c-28.667 11.333 -54 17 -76 17
c-20 0 -38 -4.5 -54 -13.5s-27.333 -17.833 -34 -26.5s-12 -17 -16 -25c-3.33301 -8 -16 -62 -38 -162h114l-12 -59h-110l-88 -413c-8 -38.667 -16 -65.334 -24 -80.001c-6 -12.667 -13.833 -25.334 -23.5 -38.001s-25.334 -25.834 -47.001 -39.501
s-44.834 -20.5 -69.501 -20.5c-41.333 0 -79.333 11.333 -114 34z" />
    <glyph glyph-name="uni0195" unicode="&#x195;" horiz-adv-x="728" 
d="M80 0l0.00292969 695.002h75v-311c39.333 47.333 87 71 143 71c53.333 0 91.333 -17 114 -51c15.333 -24 23.333 -63.333 24 -118s4.33398 -95.334 11.001 -122.001c6 -24 13.833 -44.333 23.5 -61s20 -28.334 31 -35.001s20.333 -11.167 28 -13.5s15.167 -3.5 22.5 -3.5
c52.667 0 78.667 66 78 198v7v31c0 31.333 -1.33301 56.333 -4 75s-5.5 31.5 -8.5 38.5s-4.5 12.167 -4.5 15.5c0 12 4.16699 21.5 12.5 28.5s17.5 10.5 27.5 10.5c36.667 0 55 -49 55 -147v-24c0 -34 -2.5 -67 -7.5 -99s-13 -63.333 -24 -94s-27.333 -55.334 -49 -74.001
s-47.167 -28 -76.5 -28c-17.333 0 -34.833 3 -52.5 9s-36.167 16 -55.5 30s-36.333 35.667 -51 65s-24.334 64.333 -29.001 105c-2.66699 24.667 -4.33398 49.834 -5.00098 75.501s-1.83398 44.167 -3.50098 55.5s-6.16699 22 -13.5 32c-16.667 22 -43.667 33 -81 33
c-26.667 0 -50.334 -11.667 -71.001 -35s-31 -63.333 -31 -120v-239h-78z" />
    <glyph glyph-name="uni0199" unicode="&#x199;" horiz-adv-x="489" 
d="M83 0v534.002c0 55.333 21.333 99.666 64 132.999s94 50 154 50h2c24.667 0 47.5 -3.83301 68.5 -11.5s36.167 -14.834 45.5 -21.501s20 -15.667 32 -27l-23 -62c-10.667 12 -19.334 21.167 -26.001 27.5s-19.167 13.333 -37.5 21s-38.833 11.5 -61.5 11.5
c-40.667 0 -74.167 -10.167 -100.5 -30.5s-41.166 -44.166 -44.499 -71.499c-0.666992 -6.66699 -1 -16.334 -1 -29.001v-288l204 209h90l-168 -172v-1l191 -272h-82l-157 224l-80 -82v-142h-70z" />
    <glyph glyph-name="uni019A" unicode="&#x19a;" horiz-adv-x="389" 
d="M45 335v59h111v301h75v-301h111v-59h-111v-335h-75v335h-111z" />
    <glyph glyph-name="uni019b" unicode="&#x19b;" horiz-adv-x="528" 
d="M-25 664c0 20.667 13.002 31.001 39.002 31.001c21.333 0 40.666 -2 57.999 -6s30.333 -8 39 -12s17 -10.333 25 -19s12.5 -14 13.5 -16s3.5 -6.66699 7.5 -14l78 -150l120 62l33 -63l-119 -62l185 -355c17.333 -32.667 32.666 -56.334 45.999 -71.001h-63
c-17.333 0 -31.833 8.5 -43.5 25.5s-39.167 66.833 -82.5 149.5l-49 94l-144 -247c-10 -15.333 -21.333 -23 -34 -23c-11.333 0 -20.833 4 -28.5 12s-11.5 17 -11.5 27c0 8.66699 4.66699 20.334 14 35.001l167 267l-25 49l-120 -63l-33 64l119 62
c-47.333 90.667 -73.833 141 -79.5 151s-10.834 17.333 -15.501 22c-10 9.33301 -25.167 15.166 -45.5 17.499s-31.166 3.83301 -32.499 4.5c-12 4.66699 -18 14 -18 28z" />
    <glyph glyph-name="uni019E" unicode="&#x19e;" horiz-adv-x="489" 
d="M80 0l-0.00195312 450h73v-70c38.667 50 87.334 75 146.001 75c25.333 0 47.166 -4.16699 65.499 -12.5s32 -18 41 -29s16 -25.5 21 -43.5s7.83301 -32.667 8.5 -44s1 -25.333 1 -42v-479h-78v475c0 12 -0.166992 21.167 -0.5 27.5s-2.16602 15.833 -5.49902 28.5
s-8.16602 22.5 -14.499 29.5s-16.166 13.5 -29.499 19.5s-29.333 9 -48 9c-31.333 0 -55.333 -12.667 -72 -38s-26.334 -55.333 -29.001 -90l-1 -32v-234h-78z" />
    <glyph glyph-name="Ohorn" unicode="&#x1a0;" horiz-adv-x="736" 
d="M55 345c0 104.667 31 192.667 93 264s135.333 107 220 107c54 0 106 -16.667 156 -50l31 28h-25v84h84v-84l-63 -49c86 -80 129 -180 129 -300c0 -104 -31.167 -191.167 -93.5 -261.5s-135.5 -105.5 -219.5 -105.5s-157 35.167 -219 105.5s-93 157.5 -93 261.5zM145 359
c0 -87.333 20.668 -161.833 62.001 -223.5s94.666 -92.5 159.999 -92.5c63.333 0 116.333 30.5 159 91.5s64 135.833 64 224.5c0 87.333 -22 158 -66 212s-96.333 81 -157 81c-60 0 -112 -27 -156 -81s-66 -124.667 -66 -212z" />
    <glyph glyph-name="ohorn" unicode="&#x1a1;" 
d="M30 220c0 66.667 21.5 123.501 64.5 170.501s94.5 70.5 154.5 70.5c46.667 0 90 -15.667 130 -47l33 30h-25v84h84v-84l-68 -52c44 -50.667 66 -107.667 66 -171c0 -66.667 -21.833 -122 -65.5 -166s-95.167 -66 -154.5 -66c-62 0 -114 22.667 -156 68
s-63 99.666 -63 162.999zM108 231.001c0 -58.667 14.1689 -103 42.502 -133s61.166 -45 98.499 -45s70.166 15.167 98.499 45.5s42.5 74.5 42.5 132.5c0 56 -14.167 98 -42.5 126s-61.166 42 -98.499 42c-36.667 0 -69.334 -14 -98.001 -42s-43 -70 -43 -126z" />
    <glyph glyph-name="uni01A5" unicode="&#x1a5;" horiz-adv-x="489" 
d="M53 -195v723.001c0 12 0.333008 21 1 27s3.16699 17.167 7.5 33.5s13 31.833 26 46.5s29.833 28.667 50.5 42c42.667 26.667 93.334 40 152.001 40c34.667 0 63.834 -4.83301 87.501 -14.5s48.5 -24.834 74.5 -45.501l-23 -62c-14.667 13.333 -25.834 23 -33.501 29
s-21.167 12.667 -40.5 20s-41.333 11 -66 11c-16 0 -32.333 -1.83301 -49 -5.5s-33.834 -9.66699 -51.501 -18s-32.167 -21 -43.5 -38s-17 -36.833 -17 -59.5v-137c48.667 38.667 102 58 160 58c48 0 87.333 -23 118 -69s46 -100 46 -162
c0 -66.667 -18.167 -122.5 -54.5 -167.5s-79.833 -67.5 -130.5 -67.5s-96 19.333 -136 58v-242h-78zM131 134.001c0 -6.66699 0.499023 -12 1.49902 -16s1.83301 -6.83301 2.5 -8.5s2.83398 -5 6.50098 -10s6.16699 -8.5 7.5 -10.5c20.667 -25.333 47.334 -38 80.001 -38
c36 0 69.167 13.833 99.5 41.5s45.5 71.167 45.5 130.5c0 31.333 -4.5 58.833 -13.5 82.5s-20.667 41.5 -35 53.5s-28.833 20.833 -43.5 26.5s-29.334 8.5 -44.001 8.5c-26 0 -50.333 -7.83301 -73 -23.5s-34 -32.167 -34 -49.5v-187z" />
    <glyph glyph-name="uni01A7" unicode="&#x1a7;" horiz-adv-x="555" 
d="M57 186c0 21.333 3.16992 43.0039 9.50293 65.0039s20.166 45.833 41.499 71.5s49 45.5 83 59.5c12.667 5.33301 38.667 12.666 78 21.999s63.333 16 72 20c23.333 9.33301 42.5 23.666 57.5 42.999s22.5 39.333 22.5 60c-0.666992 37.333 -14.667 67.166 -42 89.499
s-61 33.5 -101 33.5c-37.333 0 -68.333 -5.33301 -93 -16s-51 -27 -79 -49l-14 83c59.333 32.667 121.333 49 186 49c60.667 0 113 -18.833 157 -56.5s66 -84.834 66 -141.501c0 -48 -15.5 -88.5 -46.5 -121.5s-66.833 -54.833 -107.5 -65.5
c-22.667 -6.66699 -45.834 -12.667 -69.501 -18s-41.834 -10.333 -54.501 -15c-30.667 -12 -52.667 -30 -66 -54s-20 -46.667 -20 -68c0 -28.667 12.5 -57.5 37.5 -86.5s62.167 -43.5 111.5 -43.5c72 0 142.333 27.667 211 83l15 -83c-74.667 -46 -151.667 -69 -231 -69
c-67.333 0 -121.5 21.5 -162.5 64.5s-61.5 90.833 -61.5 143.5z" />
    <glyph glyph-name="uni01A8" unicode="&#x1a8;" horiz-adv-x="383" 
d="M24 127c0 32.667 9.16602 59.332 27.499 79.999s38.166 35.667 59.499 45c13.333 6 39.166 12.5 77.499 19.5s64.5 18.167 78.5 33.5c8.66699 10.667 13 22 13 34c0 16 -6.33301 30.5 -19 43.5s-33.667 19.5 -63 19.5c-20.667 0 -39.167 -1.33301 -55.5 -4
s-27.5 -5 -33.5 -7s-16.333 -6.66699 -31 -14l-26 -13l-11 66c19.333 8 33.5 13.5 42.5 16.5s22.833 6.16699 41.5 9.5s39.334 5 62.001 5c59.333 0 101.5 -13.167 126.5 -39.5s37.5 -55.833 37.5 -88.5c0 -34 -10.667 -61.667 -32 -83s-45.333 -36 -72 -44
c-14 -4 -32.5 -8.16699 -55.5 -12.5s-40.333 -9 -52 -14s-22.167 -13.167 -31.5 -24.5c-8.66699 -11.333 -13 -22.666 -13 -33.999c0 -6.66699 1.16699 -13.5 3.5 -20.5s6.5 -14.5 12.5 -22.5s15.833 -14.333 29.5 -19s29.834 -7 48.501 -7c23.333 0 45.833 3 67.5 9
s36.834 11.333 45.501 16s23 13 43 25l12 -68c-53.333 -30 -110 -45 -170 -45c-58 0 -99.667 14 -125 42s-38 60 -38 96z" />
    <glyph glyph-name="uni01AA" unicode="&#x1aa;" horiz-adv-x="358" 
d="M-5 600c0 33.333 11.835 61.1689 35.502 83.502s50.5 33.5 80.5 33.5c29.333 0 56.5 -13.5 81.5 -40.5s37.5 -68.167 37.5 -123.5v-599l1 -30c1.33301 -18.667 7.16602 -36.5 17.499 -53.5s25.166 -25.5 44.499 -25.5c32 0 55.667 18.333 71 55l22 -62
c-25.333 -36.667 -57 -55 -95 -55c-33.333 0 -61.5 11 -84.5 33s-38.167 46.667 -45.5 74c-4.66699 15.333 -7 35.666 -7 60.999c0 2.66699 0.166992 6.66699 0.5 12s0.5 9.33301 0.5 12v519c-16 -7.33301 -30.333 -11 -43 -11c-30 0 -57 11.167 -81 33.5
s-36 50.166 -36 83.499zM61.002 600.003c0 -6.66699 1 -13.333 3 -20s7.16699 -13.834 15.5 -21.501s19.5 -12.5 33.5 -14.5c25.333 4.66699 38 21.334 38 50.001c0 12 -3.33301 24.667 -10 38s-16.667 21 -30 23c-14.667 0 -26.667 -5.66699 -36 -17s-14 -24 -14 -38z" />
    <glyph glyph-name="uni01AB" unicode="&#x1ab;" horiz-adv-x="389" 
d="M18 386l-0.00195312 59.0029h86v126h70v-126h142v-59h-142v-246c0 -58 18 -87 54 -87c28.667 0 58.334 11 89.001 33c10.667 -40 16 -62.667 16 -68v-76c0 -60.667 -12.167 -102.334 -36.5 -125.001s-52.833 -34 -85.5 -34c-17.333 0 -32.333 3.16699 -45 9.5
s-21.667 12.666 -27 18.999s-11.666 15.166 -18.999 26.499l23 62c13.333 -36.667 35.333 -55 66 -55c20.667 0 36.667 9.66699 48 29c8.66699 15.333 13 38.333 13 69v58c-30 -8 -58 -12 -84 -12c-56 0 -84 41 -84 123v274h-84z" />
    <glyph glyph-name="uni01AD" unicode="&#x1ad;" horiz-adv-x="389" 
d="M18 386v58.999h86v40c0 34.667 6 63.334 18 86.001c11.333 21.333 28.5 39.333 51.5 54s49.5 22 79.5 22c38 0 73.667 -13.667 107 -41l-23 -62c-23.333 28 -51.333 42 -84 42c-24.667 0 -43.334 -8.33301 -56.001 -25s-20 -33.667 -22 -51
c-0.666992 -6 -1 -14.667 -1 -26v-39h142v-59h-142v-246c0 -58 18 -87 54 -87c28.667 0 58.334 11 89.001 33l16 -59c-47.333 -25.333 -97 -38 -149 -38c-54.667 0 -82 43 -82 129v268h-84z" />
    <glyph glyph-name="Uhorn" unicode="&#x1af;" horiz-adv-x="687" 
d="M94 244v449.997h90v-415c0 -4 -0.166992 -9.83301 -0.5 -17.5s-0.5 -13.5 -0.5 -17.5c0 -40.667 5.5 -75.667 16.5 -105s25.333 -51.166 43 -65.499s35 -24.5 52 -30.5s34.167 -9 51.5 -9c18.667 0 37.167 3.33301 55.5 10s36.333 17.334 54 32.001s32 36.167 43 64.5
s16.5 61.5 16.5 99.5c0 2 -0.166992 5 -0.5 9s-0.5 7 -0.5 9v436h79v-33l40 33h-25v84h84v-84l-99 -73v-373c0 -54.667 -10.333 -101 -31 -139c-19.333 -36.667 -48 -67.667 -86 -93s-81.333 -38 -130 -38c-29.333 0 -58.333 5.33301 -87 16s-55.5 26.334 -80.5 47.001
s-45.333 48.5 -61 83.5s-23.5 74.833 -23.5 119.5z" />
    <glyph glyph-name="uhorn" unicode="&#x1b0;" horiz-adv-x="544" 
d="M80 122l-0.000976562 323h78v-335c0.666992 -23.333 6.16699 -40 16.5 -50s31.5 -15 63.5 -15c34.667 0 62.5 9.16699 83.5 27.5s32.833 39.5 35.5 63.5c0.666992 6.66699 1 16.334 1 29.001v280h78v-35l40 34h-24v84h83v-84l-99 -73v-371h-76v48
c-45.333 -39.333 -103.666 -59 -174.999 -59c-20 0 -37 3.16699 -51 9.5s-24.5 13.5 -31.5 21.5s-12.333 19.167 -16 33.5s-5.66699 25.666 -6 33.999s-0.5 19.833 -0.5 34.5z" />
    <glyph glyph-name="uni01B7" unicode="&#x1b7;" horiz-adv-x="546" 
d="M41 156l78.001 7.00098c3.33301 -26 10.666 -47.667 21.999 -65s25.333 -29.666 42 -36.999s31.5 -12.333 44.5 -15s26.5 -4 40.5 -4c45.333 0 82.5 13 111.5 39s43.5 60 43.5 102c0 30 -9.66699 59 -29 87s-51.333 45.333 -96 52l-31 3l1 6l-38 -1h-58v61l243 222v2
h-123l-251 -2v81h469v-81l-243 -222v-6c76 -0.666992 135.833 -21.834 179.5 -63.501s65.5 -87.834 65.5 -138.501c0 -55.333 -23.333 -103.333 -70 -144s-105 -61 -175 -61c-64.667 0 -117 15 -157 45s-63 74.333 -69 133z" />
    <glyph glyph-name="uni01B9" unicode="&#x1b9;" horiz-adv-x="435" 
d="M41 -4c0 49.333 11.501 95 34.501 137s55.5 64 97.5 66l-121 190l-7 13l-1 18v25h357v-65h-255l158 -247h-81c-38 0 -64.833 -13.333 -80.5 -40s-23.5 -59 -23.5 -97c0 -50 11.667 -85.833 35 -107.5s49.333 -32.5 78 -32.5c64 0 116.333 28.667 157 86l12 -67
c-46.667 -53.333 -103.334 -80 -170.001 -80c-51.333 0 -95.833 19 -133.5 57s-56.5 86 -56.5 144z" />
    <glyph glyph-name="uni01BA" unicode="&#x1ba;" horiz-adv-x="435" 
d="M41 380l0.000976562 65.001h357v-32c0 -6.66699 -4 -15.834 -12 -27.501s-33.333 -46.167 -76 -103.5l-38 -51c35.333 -7.33301 65.666 -20.5 90.999 -39.5s38 -44.833 38 -77.5c0 -18 -7.33301 -35.167 -22 -51.5s-32.667 -30.833 -54 -43.5l-64 -37.5
c-21.333 -12.333 -39.333 -25.833 -54 -40.5s-22 -29.667 -22 -45c0 -6 1 -12 3 -18l5 -7c11.333 -10 31.333 -15 60 -15c45.333 0 85.333 17 120 51h1l54 -55c-50.667 -38 -107 -57 -169 -57c-45.333 0 -81.166 12.333 -107.499 37s-39.5 52 -39.5 82c0 24 10.5 45 31.5 63
s48.5 36.167 82.5 54.5s58.333 34.833 73 49.5c18.667 18.667 28 36.667 28 54c0 9.33301 -3.83301 17 -11.5 23s-24.334 10.833 -50.001 14.5s-61.5 5.5 -107.5 5.5h-20l151 202h-248z" />
    <glyph glyph-name="uni01BF" unicode="&#x1bf;" horiz-adv-x="461" 
d="M81 88v356.996h75v-32c8 2.66699 18.5 6.5 31.5 11.5s21.5 8.33301 25.5 10s10 3.83398 18 6.50098s13.667 4.33398 17 5.00098s7.5 1.33398 12.5 2.00098s9.83301 1 14.5 1c39.333 0 74 -17.167 104 -51.5s45 -78.5 45 -132.5c0 -52 -13 -98.667 -39 -140
s-61 -70.333 -105 -87c-16 -5.33301 -56.667 -17.666 -122 -36.999v-186l-76 -20v267zM158 61.9961l39.501 11.499c15 4.33301 25.667 7.5 32 9.5s14.166 4.33301 23.499 7s15.833 4.83398 19.5 6.50098s8.16699 3.83398 13.5 6.50098s9.33301 5.16699 12 7.5
s5.5 5.16602 8.5 8.49902l9.5 11c20 28 30 71 30 129c0 42.667 -9 74.5 -27 95.5s-37.667 31.5 -59 31.5c-9.33301 0 -43 -10.667 -101 -32v-254z" />
    <glyph glyph-name="uni01C0" unicode="&#x1c0;" horiz-adv-x="278" 
d="M99 -195v890h78v-890h-78z" />
    <glyph glyph-name="uni01C1" unicode="&#x1c1;" horiz-adv-x="444" 
d="M96 -195v890h73v-890h-73zM274 -195v890h72v-890h-72z" />
    <glyph glyph-name="uni01C2" unicode="&#x1c2;" horiz-adv-x="556" 
d="M55 129v64h183v82h-183v64h183v356h78v-356h183v-64h-183v-82h183v-64h-183v-324h-78v324h-183z" />
    <glyph glyph-name="uni01C3" unicode="&#x1c3;" horiz-adv-x="319" 
d="M117 0v84h84v-84h-84zM117 695h84l-9 -520h-67z" />
    <glyph glyph-name="uni01C4" unicode="&#x1c4;" horiz-adv-x="1333" 
d="M870 889h60l98 -111l96 111h63l-123 -162h-72zM777 0v25.0049c0 9.33301 0.5 15.666 1.5 18.999s4.83301 9.66602 11.5 18.999l372 569l-164 -1h-207v63h486v-24v-5.5c0 -1.66699 -0.166992 -3.33398 -0.5 -5.00098s-0.5 -2.83398 -0.5 -3.50098
s-0.166992 -1.66699 -0.5 -3s-0.666016 -2.33301 -0.999023 -3s-1 -1.83398 -2 -3.50098s-1.66699 -2.83398 -2 -3.50098s-1.33301 -2.16699 -3 -4.5s-2.83398 -4.16602 -3.50098 -5.49902l-372 -568h208l23 1h159v-66h-505zM95 0.00488281l-0.000976562 694.002h246
c66.667 0 124 -15.667 172 -47c48.667 -32 86.334 -75.5 113.001 -130.5s40 -113.167 40 -174.5c0 -92.667 -27.333 -170.334 -82 -233.001s-119 -98.334 -193 -107.001c-10.667 -1.33301 -26.667 -2 -48 -2h-248zM181.999 56.0068h143c83.333 0 148.333 30.667 195 92
c39.333 51.333 59 115.666 59 192.999c0 84.667 -22.167 155.334 -66.5 212.001s-106.833 85 -187.5 85h-143v-582z" />
    <glyph glyph-name="uni01C5" unicode="&#x1c5;" horiz-adv-x="1157" 
d="M780 639h61.9971l100 -68l99 68h35l27 -1c-82 -58.667 -125.333 -89 -130 -91c-3.33301 -1.33301 -7.66602 -2 -12.999 -2h-36c-7.33301 0 -15.166 2.5 -23.499 7.5s-30.166 20.5 -65.499 46.5zM748.997 0v41l266 345l-30 -1h-222v60h357v-40l-265 -343h201l21 1h46v-63
h-374zM94.9971 0l-0.000976562 694.002h246c66.667 0 124 -15.667 172 -47c48.667 -32 86.334 -75.5 113.001 -130.5s40 -113.167 40 -174.5c0 -92.667 -27.333 -170.334 -82 -233.001s-119 -98.334 -193 -107.001c-10.667 -1.33301 -26.667 -2 -48 -2h-248zM181.996 56.002
h143c83.333 0 148.333 30.667 195 92c39.333 51.333 59 115.666 59 192.999c0 84.667 -22.167 155.334 -66.5 212.001s-106.833 85 -187.5 85h-143v-582z" />
    <glyph glyph-name="uni01C6" unicode="&#x1c6;" horiz-adv-x="952" 
d="M575 639h61.9971l100 -68l99 68h35l27 -1c-82 -58.667 -125.333 -89 -130 -91c-3.33301 -1.33301 -7.66602 -2 -12.999 -2h-36c-7.33301 0 -15.166 2.5 -23.499 7.5s-30.166 20.5 -65.499 46.5zM543.997 0v41l266 345l-30 -1h-222v60h357v-40l-265 -343h201l21 1h46v-63
h-374zM34.9971 221c0 66 17.332 121.667 51.999 167s76.667 68 126 68c50.667 0 99 -18.333 145 -55v321h76v-722h-79v52c-43.333 -42 -92.666 -63 -147.999 -63c-49.333 0 -90.333 23.167 -123 69.5s-49 100.5 -49 162.5zM112.996 222
c0 -59.333 13.999 -102.669 41.999 -130.002s59 -41 93 -41c28 0 52.833 9.5 74.5 28.5s32.5 37.167 32.5 54.5v191c0 12.667 -7 25.667 -21 39c-21.333 20 -46 30 -74 30h-2c-16 0 -31.833 -3 -47.5 -9s-31.167 -15.167 -46.5 -27.5s-27.666 -30.166 -36.999 -53.499
s-14 -50.666 -14 -81.999z" />
    <glyph glyph-name="uni01C7" unicode="&#x1c7;" horiz-adv-x="1014" 
d="M583 20l13 74.998c12 -10.667 20.833 -18.334 26.5 -23.001s18.667 -11.167 39 -19.5s41.5 -12.5 63.5 -12.5c33.333 0 61.333 8.83301 84 26.5s34 47.834 34 90.501v537h87v-539c0 -34 -5.16699 -63.167 -15.5 -87.5s-24.5 -42.666 -42.5 -54.999
s-36.667 -21.166 -56 -26.499s-40 -8 -62 -8c-58.667 0 -115.667 14 -171 42zM94 -0.00195312v694h90v-629h195l120 1v-66h-405z" />
    <glyph glyph-name="uni01C8" unicode="&#x1c8;" horiz-adv-x="809" 
d="M481 -171l15 61c26 -20.667 52 -31 78 -31c19.333 0 35.833 4.83301 49.5 14.5s22.5 21.5 26.5 35.5c1.33301 6 2 14.667 2 26v510h75v-495c0 -55.333 -13 -95 -39 -119s-55 -36 -87 -36c-40.667 0 -80.667 11.333 -120 34zM638 590v89h90v-89h-90zM94 0v694h90v-629h195
l120 1v-66h-405z" />
    <glyph glyph-name="uni01C9" unicode="&#x1c9;" horiz-adv-x="506" 
d="M178 -171l15 61c26 -20.667 52 -31 78 -31c19.333 0 35.833 4.83301 49.5 14.5s22.5 21.5 26.5 35.5c1.33301 6 2 14.667 2 26v510h75v-495c0 -55.333 -13 -95 -39 -119s-55 -36 -87 -36c-40.667 0 -80.667 11.333 -120 34zM335 590v89h90v-89h-90zM81 0v722h75v-722h-75
z" />
    <glyph glyph-name="uni01CA" unicode="&#x1ca;" horiz-adv-x="1180" 
d="M749 20l13 74.998c12 -10.667 20.833 -18.334 26.5 -23.001s18.667 -11.167 39 -19.5s41.5 -12.5 63.5 -12.5c33.333 0 61.333 8.83301 84 26.5s34 47.834 34 90.501v537h87v-539c0 -34 -5.16699 -63.167 -15.5 -87.5s-24.5 -42.666 -42.5 -54.999
s-36.667 -21.166 -56 -26.499s-40 -8 -62 -8c-58.667 0 -115.667 14 -171 42zM95 -0.00195312v694h125l274 -544l39 -80v624h78v-694h-125l-274 544l-39 80v-624h-78z" />
    <glyph glyph-name="uni01CB" unicode="&#x1cb;" horiz-adv-x="975" 
d="M647 -171l15 61c26 -20.667 52 -31 78 -31c19.333 0 35.833 4.83301 49.5 14.5s22.5 21.5 26.5 35.5c1.33301 6 2 14.667 2 26v510h75v-495c0 -55.333 -13 -95 -39 -119s-55 -36 -87 -36c-40.667 0 -80.667 11.333 -120 34zM804 590v89h90v-89h-90zM95 0v694h125
l274 -544l39 -80v624h78v-694h-125l-274 544l-39 80v-624h-78z" />
    <glyph glyph-name="uni01CC" unicode="&#x1cc;" horiz-adv-x="784" 
d="M456 -171l15 61c26 -20.667 52 -31 78 -31c19.333 0 35.833 4.83301 49.5 14.5s22.5 21.5 26.5 35.5c1.33301 6 2 14.667 2 26v510h75v-495c0 -55.333 -13 -95 -39 -119s-55 -36 -87 -36c-40.667 0 -80.667 11.333 -120 34zM613 590v89h90v-89h-90zM80 0
l-0.00292969 450.001h73v-70c38.667 50 87.334 75 146.001 75c24.667 0 45.834 -3.66699 63.501 -11s31.167 -16.333 40.5 -27s16.5 -24.167 21.5 -40.5s8.16699 -30.833 9.5 -43.5s2 -27.667 2 -45v-288h-78v281c0 11.333 -0.166992 20.333 -0.5 27
s-2.33301 16.167 -6 28.5s-8.66699 22.166 -15 29.499s-16 13.833 -29 19.5s-28.833 8.5 -47.5 8.5c-35.333 0 -61.166 -15 -77.499 -45s-24.5 -66.333 -24.5 -109v-240h-78z" />
    <glyph glyph-name="uni01CD" unicode="&#x1cd;" horiz-adv-x="667" 
d="M174 889h60l98 -111l96 111h63l-123 -162h-72zM27 0l261 694h89l260 -694h-92l-77 204h-290l-76 -204h-75zM199 260h248c-78.667 218 -120 339.333 -124 364c-8.66699 -40.667 -50 -162 -124 -364z" />
    <glyph glyph-name="uni01CE" unicode="&#x1ce;" horiz-adv-x="480" 
d="M72 639h61.9971l100 -68l99 68h35l27 -1c-82 -58.667 -125.333 -89 -130 -91c-3.33301 -1.33301 -7.66602 -2 -12.999 -2h-36c-7.33301 0 -15.166 2.5 -23.499 7.5s-30.166 20.5 -65.499 46.5zM43.9971 113c0 24.667 9.33398 46.165 28.001 64.498s43.167 32 73.5 41
s60 15.667 89 20s58.167 6.5 87.5 6.5v34c-1.33301 42.667 -10 73.334 -26 92.001c-16.667 20 -37.667 30 -63 30c-51.333 0 -101.333 -17 -150 -51l-6 67c50 29.333 102.333 44 157 44c46 0 84.5 -15.167 115.5 -45.5s47.833 -67.166 50.5 -110.499v-305h-76v35
c-2.66699 -2.66699 -8.83398 -7 -18.501 -13s-28.5 -13 -56.5 -21s-58.333 -12 -91 -12c-38 0 -66.5 13.5 -85.5 40.5s-28.5 54.833 -28.5 83.5zM116.998 113.998c0 -18 8.83203 -33 26.499 -45s39.834 -18 66.501 -18c28.667 0 54.5 6 77.5 18s34.5 32.333 34.5 61v63
c-20.667 0 -41.667 -1.33301 -63 -4s-43.333 -6.66699 -66 -12s-41 -13.5 -55 -24.5s-21 -23.833 -21 -38.5z" />
    <glyph glyph-name="uni01CF" unicode="&#x1cf;" horiz-adv-x="278" 
d="M-19 889h60l98 -111l96 111h63l-123 -162h-72zM94 0v694h90v-694h-90z" />
    <glyph glyph-name="uni01D1" unicode="&#x1d1;" horiz-adv-x="736" 
d="M210 889h60l98 -111l96 111h63l-123 -162h-72zM55 345c0 103.333 30.832 191 92.499 263s135.167 108 220.5 108c84 0 156.833 -36 218.5 -108s92.5 -159.667 92.5 -263c0 -104.667 -31.167 -192 -93.5 -262s-135.166 -105 -218.499 -105c-84 0 -157 35.167 -219 105.5
s-93 157.5 -93 261.5zM144.999 359c0 -87.333 20.668 -161.833 62.001 -223.5s94.666 -92.5 159.999 -92.5c63.333 0 116.333 30.5 159 91.5s64 135.833 64 224.5c0 87.333 -22 158 -66 212s-96.333 81 -157 81c-60 0 -112 -27 -156 -81s-66 -124.667 -66 -212z" />
    <glyph glyph-name="uni01D2" unicode="&#x1d2;" 
d="M87 639h61.9971l100 -68l99 68h35l27 -1c-82 -58.667 -125.333 -89 -130 -91c-3.33301 -1.33301 -7.66602 -2 -12.999 -2h-36c-7.33301 0 -15.166 2.5 -23.499 7.5s-30.166 20.5 -65.499 46.5zM29.9971 221c0 67.333 21.501 124.167 64.501 170.5s94.5 69.5 154.5 69.5
c62.667 0 115 -24.167 157 -72.5s63 -104.5 63 -168.5c0 -66 -22 -121 -66 -165s-95.333 -66 -154 -66s-109.834 22.167 -153.501 66.5s-65.5 99.5 -65.5 165.5zM107.998 231.001c0 -58.667 14.1689 -103 42.502 -133s61.166 -45 98.499 -45s70.166 15.167 98.499 45.5
s42.5 74.5 42.5 132.5c0 56 -14.167 98 -42.5 126s-61.166 42 -98.499 42c-36.667 0 -69.334 -14 -98.001 -42s-43 -70 -43 -126z" />
    <glyph glyph-name="uni01D3" unicode="&#x1d3;" horiz-adv-x="687" 
d="M186 889h60l98 -111l96 111h63l-123 -162h-72zM94 245l0.000976562 448.999h90v-415c0 -4 -0.166992 -9.83301 -0.5 -17.5s-0.5 -13.5 -0.5 -17.5c0 -40.667 5.5 -75.667 16.5 -105s25.333 -51.166 43 -65.499s35 -24.5 52 -30.5s34.167 -9 51.5 -9
c18.667 0 37.167 3.33301 55.5 10s36.333 17.334 54 32.001s32 36.167 43 64.5s16.5 61.5 16.5 99.5c0 2 -0.166992 5 -0.5 9s-0.5 7 -0.5 9v436h79v-453c0 -42.667 -7.5 -81.334 -22.5 -116.001s-34.667 -62.334 -59 -83.001s-50.833 -36.5 -79.5 -47.5
s-57.334 -16.5 -86.001 -16.5c-29.333 0 -58.333 5.33301 -87 16s-55.5 26.334 -80.5 47.001s-45.333 48.667 -61 84s-23.5 75.333 -23.5 120z" />
    <glyph glyph-name="uni01D4" unicode="&#x1d4;" horiz-adv-x="517" 
d="M96 639h61.9971l100 -68l99 68h35l27 -1c-82 -58.667 -125.333 -89 -130 -91c-3.33301 -1.33301 -7.66602 -2 -12.999 -2h-36c-7.33301 0 -15.166 2.5 -23.499 7.5s-30.166 20.5 -65.499 46.5zM79.9971 122l-0.000976562 323h78v-335
c0.666992 -23.333 6.16699 -40 16.5 -50s31.5 -15 63.5 -15c34.667 0 62.5 9.16699 83.5 27.5s32.833 39.5 35.5 63.5c0.666992 6.66699 1 16.334 1 29.001v280h78v-445h-76v48c-45.333 -39.333 -103.666 -59 -174.999 -59c-20 0 -37 3.16699 -51 9.5s-24.5 13.5 -31.5 21.5
s-12.333 19.167 -16 33.5s-5.66699 25.666 -6 33.999s-0.5 19.833 -0.5 34.5z" />
    <glyph glyph-name="uni01DD" unicode="&#x1dd;" horiz-adv-x="444" 
d="M29 230h310.001c-2 50.667 -17.333 91.5 -46 122.5s-62.334 46.5 -101.001 46.5c-51.333 0 -102.333 -18.333 -153 -55l-6 66c50.667 34 103.667 51 159 51c63.333 0 115.333 -23.5 156 -70.5s61 -102.5 61 -166.5c0 -65.333 -20 -120.833 -60 -166.5
s-87 -68.5 -141 -68.5c-20 0 -39 3.16699 -57 9.5s-36.167 16.833 -54.5 31.5s-33.5 36.667 -45.5 66s-19 64.333 -21 105zM87.001 175c2.66699 -30 14.333 -58.167 35 -84.5s49 -39.5 85 -39.5c34 0 62 12.833 84 38.5s36.333 54.167 43 85.5h-247z" />
    <glyph glyph-name="uni01E2" unicode="&#x1e2;" horiz-adv-x="861" 
d="M268 773v64h388v-64h-388zM27 0l284 694h493v-66h-47l-23 1h-205l-22 1v-238h270v-62h-270v-260h65l24 1h162l21 1h39v-72h-400v222h-225l-91 -222h-75zM217 278h201v352h-58z" />
    <glyph glyph-name="uni01E3" unicode="&#x1e3;" horiz-adv-x="722" 
d="M185 552v64h360v-64h-360zM46 114c0 42 25.9951 74.335 77.9951 97.002s117.667 34.667 197 36v32c-1.33301 42.667 -9.66602 73 -24.999 91c-16.667 20.667 -37.667 31 -63 31c-52 0 -102.333 -17 -151 -51l-6 67c52.667 29.333 105.334 44 158.001 44
c56.667 0 103.667 -26 141 -78c40.667 52 91.334 78 152.001 78c19.333 0 37.666 -3.33301 54.999 -10s34.833 -18 52.5 -34s31.834 -40.833 42.501 -74.5s16 -74.5 16 -122.5h-294c0 -0.666992 0.166992 -3.5 0.5 -8.5s0.833008 -9.16699 1.5 -12.5s1.5 -8.33301 2.5 -15
s2.33301 -12.834 4 -18.501s3.83398 -12 6.50098 -19s6 -13.833 10 -20.5s8.33301 -13.334 13 -20.001s10.5 -13 17.5 -19s14.5 -11.667 22.5 -17c20 -12.667 42.333 -19 67 -19c48 0 94 18.333 138 55l6 -66c-44 -34 -92.333 -51 -145 -51c-63.333 0 -118 25.667 -164 77
c-35.333 -51.333 -108.666 -77 -219.999 -77c-39.333 0 -68 13.833 -86 41.5s-27 55.5 -27 83.5zM118.995 115.002c0.666992 -19.333 9.66797 -34.835 27.001 -46.502s39 -17.5 65 -17.5c17.333 0 33.833 1.66699 49.5 5s30.5 11 44.5 23s21 27.667 21 47
c0 2 -0.166992 4.5 -0.5 7.5s-0.833008 9.66699 -1.5 20s-1.33398 22.833 -2.00098 37.5c-60.667 -1.33301 -110 -8.66602 -148 -21.999c-6 -2 -11.5 -4.16699 -16.5 -6.5s-9.33301 -4.83301 -13 -7.5l-10 -7c-3 -2 -5.33301 -4.33301 -7 -7l-4 -6.5
c-1 -1.66699 -1.83301 -3.66699 -2.5 -6s-1.16699 -4.16602 -1.5 -5.49902s-0.5 -3 -0.5 -5v-3zM404.996 275h229c-13.333 82.667 -48.666 124 -105.999 124c-26 0 -50.833 -11 -74.5 -33s-39.834 -52.333 -48.501 -91z" />
    <glyph glyph-name="Gcaron" unicode="&#x1e6;" horiz-adv-x="667" 
d="M233 889h60l98 -111l96 111h63l-123 -162h-72zM66 347c0 102.667 31.501 189.831 94.501 261.498s139.833 107.5 230.5 107.5c69.333 0 136 -16 200 -48l-15 -83c-19.333 14.667 -35.333 25.834 -48 33.501s-31.167 15.167 -55.5 22.5s-50.833 11 -79.5 11
c-68.667 0 -125.334 -30.167 -170.001 -90.5s-67 -131.5 -67 -213.5c0 -85.333 22.833 -157.666 68.5 -216.999s101.5 -89 167.5 -89c34.667 0 77.667 7 129 21v174h-133v62h211v-273c-66.667 -32 -136 -48 -208 -48c-91.333 0 -168.333 36 -231 108s-94 159 -94 261z" />
    <glyph glyph-name="gcaron" unicode="&#x1e7;" 
d="M59 639h61.9971l100 -68l99 68h35l27 -1c-82 -58.667 -125.333 -89 -130 -91c-3.33301 -1.33301 -7.66602 -2 -12.999 -2h-36c-7.33301 0 -15.166 2.5 -23.499 7.5s-30.166 20.5 -65.499 46.5zM26.9971 -71c0 43.333 21.334 77.667 64.001 103
c-16.667 24 -25 49.333 -25 76c0 30 9.66699 58 29 84v1c-22 28.667 -33 61.667 -33 99c0 47.333 15.833 86.333 47.5 117s68.834 46 111.501 46c34 0 66.667 -11 98 -33l-2 2c49.333 20.667 101.666 31 156.999 31l11 -63c-20 2 -39.667 3 -59 3c-2 0 -27 -1.33301 -75 -4
l-9 8c26 -35.333 39 -71 39 -107c0 -43.333 -15.333 -81.333 -46 -114s-68.667 -49 -114 -49c-29.333 0 -59.666 10 -90.999 30c-7.33301 -14.667 -11 -27 -11 -37c0 -13.333 4 -25.5 12 -36.5s22.667 -16.5 44 -16.5h75c23.333 0 43.166 -0.833008 59.499 -2.5
s36.666 -5.33398 60.999 -11.001s44.666 -16 60.999 -31s27.833 -34.167 34.5 -57.5c3.33301 -13.333 5 -25.666 5 -36.999c0 -38.667 -21.667 -71 -65 -97s-95.666 -39 -156.999 -39c-62 0 -114.5 13 -157.5 39s-64.5 58 -64.5 96zM96.998 -70.999
c0 -17.333 8.99902 -32.167 26.999 -44.5s38 -21 60 -26s43.333 -7.5 64 -7.5c42 0 78 7.16699 108 21.5s45 32.833 45 55.5c0 46 -49.667 69 -149 69h-63l-29 -1c-19.333 -2 -34.666 -9.66699 -45.999 -23s-17 -28 -17 -44zM131.997 292c0 -32 8.16699 -57.5 24.5 -76.5
s38.166 -28.5 65.499 -28.5c22.667 0 43.167 8.16699 61.5 24.5s27.5 43.5 27.5 81.5c0 32 -8.16699 57.5 -24.5 76.5s-38.166 28.5 -65.499 28.5c-22.667 0 -43.167 -8.16699 -61.5 -24.5s-27.5 -43.5 -27.5 -81.5z" />
    <glyph glyph-name="uni01E8" unicode="&#x1e8;" horiz-adv-x="694" 
d="M215 889h60l98 -111l96 111h63l-123 -162h-72zM95 0v694h86v-371l363 371h93l-268 -274v-1l282 -419h-94l-243 363l-133 -135v-228h-86z" />
    <glyph glyph-name="uni01E9" unicode="&#x1e9;" horiz-adv-x="489" 
d="M115 900h61.9971l100 -68l99 68h35l27 -1c-82 -58.667 -125.333 -89 -130 -91c-3.33301 -1.33301 -7.66602 -2 -12.999 -2h-36c-7.33301 0 -15.166 2.5 -23.499 7.5s-30.166 20.5 -65.499 46.5zM82.9971 0v722h72v-486l204 209h90l-168 -172l190 -273h-82l-156 224
l-80 -82v-142h-70z" />
    <glyph glyph-name="uni01EB" unicode="&#x1eb;" 
d="M30 220c0 66 21.3311 122.669 63.998 170.002s94.667 71 156 71c60 0 111.5 -23.5 154.5 -70.5s64.5 -103.833 64.5 -170.5c0 -44 -10.667 -84.167 -32 -120.5s-50 -64.5 -86 -84.5c-74.667 -41.333 -112 -82.333 -112 -123c0 -11.333 4.16699 -20.833 12.5 -28.5
s21.5 -11.5 39.5 -11.5c8.66699 0 18.5 1.16699 29.5 3.5s20.167 4.66602 27.5 6.99902s11.333 3.5 12 3.5l15 -59c-35.333 -16.667 -67.666 -25 -96.999 -25c-30 0 -53.667 8.5 -71 25.5s-26 38.167 -26 63.5c0 40.667 23 80 69 118h-1
c-59.333 0 -110.666 22.167 -153.999 66.5s-65 99.166 -65 164.499zM107.998 230.002c0 -56.667 13.999 -100.333 41.999 -131s61 -46 99 -46c39.333 0 72.833 15.5 100.5 46.5s41.5 74.5 41.5 130.5c0 55.333 -14 97.5 -42 126.5s-61.333 43.5 -100 43.5
c-37.333 0 -70.166 -14.333 -98.499 -43s-42.5 -71 -42.5 -127z" />
    <glyph glyph-name="uni01ED" unicode="&#x1ed;" 
d="M69 511v64h360v-64h-360zM30 220c0 66 21.3311 122.669 63.998 170.002s94.667 71 156 71c60 0 111.5 -23.5 154.5 -70.5s64.5 -103.833 64.5 -170.5c0 -44 -10.667 -84.167 -32 -120.5s-50 -64.5 -86 -84.5c-74.667 -41.333 -112 -82.333 -112 -123
c0 -11.333 4.16699 -20.833 12.5 -28.5s21.5 -11.5 39.5 -11.5c8.66699 0 18.5 1.16699 29.5 3.5s20.167 4.66602 27.5 6.99902s11.333 3.5 12 3.5l15 -59c-35.333 -16.667 -67.666 -25 -96.999 -25c-30 0 -53.667 8.5 -71 25.5s-26 38.167 -26 63.5c0 40.667 23 80 69 118
h-1c-59.333 0 -110.666 22.167 -153.999 66.5s-65 99.166 -65 164.499zM107.998 230.002c0 -56.667 13.999 -100.333 41.999 -131s61 -46 99 -46c39.333 0 72.833 15.5 100.5 46.5s41.5 74.5 41.5 130.5c0 55.333 -14 97.5 -42 126.5s-61.333 43.5 -100 43.5
c-37.333 0 -70.166 -14.333 -98.499 -43s-42.5 -71 -42.5 -127z" />
    <glyph glyph-name="uni01EE" unicode="&#x1ee;" horiz-adv-x="546" 
d="M118 889h60l98 -111l96 111h63l-123 -162h-72zM41 156l78.001 7.00098c3.33301 -26 10.666 -47.667 21.999 -65s25.333 -29.666 42 -36.999s31.5 -12.333 44.5 -15s26.5 -4 40.5 -4c45.333 0 82.5 13 111.5 39s43.5 60 43.5 102c0 30 -9.66699 59 -29 87
s-51.333 45.333 -96 52l-31 3l1 6l-38 -1h-58v61l243 222v2h-123l-251 -2v81h469v-81l-243 -222v-6c76 -0.666992 135.833 -21.834 179.5 -63.501s65.5 -87.834 65.5 -138.501c0 -55.333 -23.333 -103.333 -70 -144s-105 -61 -175 -61c-64.667 0 -117 15 -157 45
s-63 74.333 -69 133z" />
    <glyph glyph-name="uni01EF" unicode="&#x1ef;" horiz-adv-x="435" 
d="M63 639h61.9971l100 -68l99 68h35l27 -1c-82 -58.667 -125.333 -89 -130 -91c-3.33301 -1.33301 -7.66602 -2 -12.999 -2h-36c-7.33301 0 -15.166 2.5 -23.499 7.5s-30.166 20.5 -65.499 46.5zM40.9971 -122l23.999 63.999c11.333 -18 24.833 -33.333 40.5 -46
s31 -21.5 46 -26.5s27.5 -8.5 37.5 -10.5s19.333 -3 28 -3c36.667 0 64.834 13.833 84.501 41.5s29.5 60.5 29.5 98.5c0 41.333 -19 74.5 -57 99.5s-89.667 37.5 -155 37.5l172 247h-250v65h357v-25l-1 -17l-7 -13l-143 -204c52.667 -16 92.834 -41.167 120.501 -75.5
s41.5 -71.5 41.5 -111.5c0 -53.333 -17.833 -100.666 -53.5 -141.999s-81.834 -62 -138.501 -62c-68 0 -126.667 27.667 -176 83z" />
    <glyph glyph-name="uni01F1" unicode="&#x1f1;" horiz-adv-x="1333" 
d="M777 0v25.0049c0 9.33301 0.5 15.666 1.5 18.999s4.83301 9.66602 11.5 18.999l372 569l-164 -1h-207v63h486v-24v-5.5c0 -1.66699 -0.166992 -3.33398 -0.5 -5.00098s-0.5 -2.83398 -0.5 -3.50098s-0.166992 -1.66699 -0.5 -3s-0.666016 -2.33301 -0.999023 -3
s-1 -1.83398 -2 -3.50098s-1.66699 -2.83398 -2 -3.50098s-1.33301 -2.16699 -3 -4.5s-2.83398 -4.16602 -3.50098 -5.49902l-372 -568h208l23 1h159v-66h-505zM95 0.00488281l-0.000976562 694.002h246c66.667 0 124 -15.667 172 -47
c48.667 -32 86.334 -75.5 113.001 -130.5s40 -113.167 40 -174.5c0 -92.667 -27.333 -170.334 -82 -233.001s-119 -98.334 -193 -107.001c-10.667 -1.33301 -26.667 -2 -48 -2h-248zM181.999 56.0068h143c83.333 0 148.333 30.667 195 92
c39.333 51.333 59 115.666 59 192.999c0 84.667 -22.167 155.334 -66.5 212.001s-106.833 85 -187.5 85h-143v-582z" />
    </font>
</defs>
</svg>
