<?xml version="1.0" standalone="no"?>
<!DOCTYPE svg PUBLIC "-//W3C//DTD SVG 1.1//EN" "http://www.w3.org/Graphics/SVG/1.1/DTD/svg11.dtd">
<svg xmlns:xlink="http://www.w3.org/1999/xlink" width="18.643ex" height="2.176ex" style="vertical-align: -0.338ex;" viewBox="0 -791.3 8027 936.9" xmlns="http://www.w3.org/2000/svg">
<defs>
<path stroke-width="10" id="E1-MJMATHI-61" d="M33 157Q33 258 109 349T280 441Q331 441 370 392Q386 422 416 422Q429 422 439 414T449 394Q449 381 412 234T374 68Q374 43 381 35T402 26Q411 27 422 35Q443 55 463 131Q469 151 473 152Q475 153 483 153H487Q506 153 506 144Q506 138 501 117T481 63T449 13Q436 0 417 -8Q409 -10 393 -10Q359 -10 336 5T306 36L300 51Q299 52 296 50Q294 48 292 46Q233 -10 172 -10Q117 -10 75 30T33 157ZM351 328Q351 334 346 350T323 385T277 405Q242 405 210 374T160 293Q131 214 119 129Q119 126 119 118T118 106Q118 61 136 44T179 26Q217 26 254 59T298 110Q300 114 325 217T351 328Z"></path>
<path stroke-width="10" id="E1-MJMAIN-D7" d="M630 29Q630 9 609 9Q604 9 587 25T493 118L389 222L284 117Q178 13 175 11Q171 9 168 9Q160 9 154 15T147 29Q147 36 161 51T255 146L359 250L255 354Q174 435 161 449T147 471Q147 480 153 485T168 490Q173 490 175 489Q178 487 284 383L389 278L493 382Q570 459 587 475T609 491Q630 491 630 471Q630 464 620 453T522 355L418 250L522 145Q606 61 618 48T630 29Z"></path>
<path stroke-width="10" id="E1-MJMAIN-31" d="M213 578L200 573Q186 568 160 563T102 556H83V602H102Q149 604 189 617T245 641T273 663Q275 666 285 666Q294 666 302 660V361L303 61Q310 54 315 52T339 48T401 46H427V0H416Q395 3 257 3Q121 3 100 0H88V46H114Q136 46 152 46T177 47T193 50T201 52T207 57T213 61V578Z"></path>
<path stroke-width="10" id="E1-MJMAIN-2243" d="M55 283Q55 356 103 409T217 463Q262 463 297 447T395 382Q431 355 446 344T493 320T554 307H558Q613 307 652 344T694 433Q694 464 708 464T722 432Q722 356 673 304T564 251H554Q510 251 465 275T387 329T310 382T223 407H219Q164 407 122 367Q91 333 85 295T76 253T69 250Q55 250 55 283ZM56 56Q56 71 72 76H706Q722 70 722 56Q722 44 707 36H70Q56 43 56 56Z"></path>
<path stroke-width="10" id="E1-MJMAIN-2E" d="M78 60Q78 84 95 102T138 120Q162 120 180 104T199 61Q199 36 182 18T139 0T96 17T78 60Z"></path>
</defs>
<g stroke="currentColor" fill="currentColor" stroke-width="0" transform="matrix(1 0 0 -1 0 0)">
 <use xlink:href="#E1-MJMATHI-61" x="0" y="0"></use>
 <use xlink:href="#E1-MJMAIN-D7" x="756" y="0"></use>
 <use xlink:href="#E1-MJMAIN-31" x="1761" y="0"></use>
 <use xlink:href="#E1-MJMAIN-2243" x="2544" y="0"></use>
 <use xlink:href="#E1-MJMAIN-31" x="3605" y="0"></use>
 <use xlink:href="#E1-MJMAIN-D7" x="4332" y="0"></use>
 <use xlink:href="#E1-MJMATHI-61" x="5337" y="0"></use>
 <use xlink:href="#E1-MJMAIN-2243" x="6149" y="0"></use>
 <use xlink:href="#E1-MJMATHI-61" x="7210" y="0"></use>
 <use xlink:href="#E1-MJMAIN-2E" x="7744" y="0"></use>
</g>
</svg>